<svg width="552" height="552" viewBox="0 0 552 552" fill="none" xmlns="http://www.w3.org/2000/svg">
<rect width="552" height="552" fill="white"/>
<circle cx="276" cy="276" r="275" fill="white" stroke="black"/>
<circle cx="276" cy="276" r="212.114" fill="white" stroke="black"/>
<path d="M242.514 267.641C242.514 265.733 241.241 265.097 239.382 264.216C238.126 263.629 236.87 263.156 236.87 261.557C236.87 260.334 237.848 259.795 238.794 259.795C239.561 259.795 239.985 259.991 240.328 260.219C240.899 260.627 241.404 261.524 241.682 262.389H242.008L241.714 259.534H241.388L241.16 260.138H241.078C240.572 259.665 239.92 259.355 238.827 259.355C237 259.355 235.858 260.562 235.858 262.014C235.858 263.824 237.212 264.591 238.68 265.276C240.409 266.059 241.502 266.5 241.502 268.229C241.502 269.387 240.736 270.333 239.104 270.333C237.555 270.333 236.429 268.8 235.907 266.989H235.597L235.76 270.414H235.989L236.364 269.729H236.462C237.016 270.268 237.963 270.773 239.121 270.773C240.85 270.773 242.514 269.631 242.514 267.641ZM250.899 268.587V265.064C250.899 264.167 250.931 263.58 250.931 263.074C250.931 262.976 250.899 262.96 250.817 262.96H248.746V263.253C249.007 263.27 249.3 263.335 249.496 263.466C249.675 263.596 249.773 263.743 249.822 263.971C249.855 264.167 249.855 264.64 249.855 264.885V267.119C249.855 267.625 249.838 268.131 249.757 268.539C249.626 269.061 249.349 269.468 248.99 269.762C248.664 270.039 248.256 270.186 247.832 270.186C247.343 270.186 246.968 270.072 246.69 269.778C246.348 269.452 246.234 268.995 246.234 268.278V265.031C246.234 264.265 246.25 263.58 246.282 263.074C246.282 262.976 246.234 262.96 246.168 262.96H244.08V263.253C244.374 263.27 244.635 263.319 244.814 263.433C244.945 263.514 245.059 263.629 245.124 263.873C245.173 264.053 245.19 264.395 245.19 264.754V268.375C245.19 269.256 245.385 269.664 245.63 269.974C246.152 270.594 246.87 270.708 247.457 270.708C248.109 270.708 248.615 270.496 249.007 270.219C249.317 269.974 249.529 269.746 249.822 269.175H249.92V270.398C249.92 270.496 249.969 270.545 250.034 270.545H252.024V270.235C251.829 270.219 251.568 270.186 251.404 270.104C251.111 269.974 251.013 269.762 250.948 269.452C250.899 269.191 250.899 268.881 250.899 268.587ZM258.83 268.441C258.83 267.185 257.851 266.712 256.53 266.157C255.258 265.635 254.671 265.292 254.671 264.379C254.671 263.661 255.242 263.188 256.041 263.188C256.53 263.188 256.889 263.319 257.15 263.531C257.558 263.841 257.803 264.363 258.031 265.015H258.325L258.243 262.878H258.031L257.721 263.351H257.623C257.329 263.074 256.856 262.764 256.025 262.764C254.654 262.764 253.79 263.645 253.79 264.689C253.79 266.124 254.671 266.532 255.959 267.07C257.395 267.674 257.982 268 257.982 268.963C257.982 269.876 257.346 270.284 256.432 270.284C255.258 270.284 254.393 269.354 254.002 267.87H253.659L253.708 270.545H254.002L254.312 269.909H254.426C254.899 270.398 255.698 270.692 256.416 270.692C257.688 270.692 258.83 269.99 258.83 268.441ZM264.524 269.534C264.182 269.925 263.741 270.137 263.236 270.137C262.436 270.137 262.192 269.778 262.192 269.109L262.208 263.417H264.263V262.96H262.208V260.35H261.947C261.392 262.405 260.87 262.96 259.957 263.107V263.384C260.12 263.384 261.001 263.4 261.197 263.4C261.18 263.645 261.18 268.995 261.18 269.093C261.18 269.746 261.295 270.039 261.556 270.268C261.931 270.578 262.322 270.692 262.926 270.692C263.595 270.692 264.263 270.398 264.704 269.746L264.524 269.534ZM272.217 270.382L272.12 270.104C271.973 270.186 271.744 270.235 271.598 270.235C271.402 270.235 271.255 270.17 271.157 270.039C271.027 269.86 270.978 269.566 270.978 268.783V264.249C270.978 263.123 269.95 262.764 268.841 262.764C268.009 262.764 267.03 263.139 266.671 263.563C266.476 263.759 266.378 264.004 266.378 264.265C266.378 264.624 266.622 264.836 266.9 264.836C267.275 264.836 267.471 264.673 267.52 264.2C267.569 263.775 267.748 263.498 268.025 263.335C268.286 263.221 268.564 263.156 268.873 263.156C269.64 263.156 269.95 263.466 269.95 264.297V265.521C269.852 265.88 269.395 266.32 268.564 266.597C267.699 266.907 267.079 267.005 266.476 267.56C266.117 267.919 265.97 268.392 265.97 268.8C265.97 270.039 266.802 270.692 267.96 270.692C269.069 270.692 269.656 270.039 269.901 269.583H270.015C270.032 270.153 270.178 270.398 270.423 270.561C270.57 270.643 270.749 270.692 271.027 270.692C271.5 270.692 272.005 270.529 272.217 270.382ZM269.95 266.19V268.734C269.852 269.599 269.02 270.121 268.335 270.121C267.585 270.121 267.03 269.713 267.03 268.783C267.03 268.278 267.177 267.935 267.422 267.674C267.65 267.429 268.058 267.234 268.645 266.989C269.134 266.777 269.689 266.5 269.95 266.19ZM275.134 261.051C275.558 261.051 275.884 260.741 275.884 260.301C275.884 259.877 275.574 259.534 275.134 259.534C274.726 259.534 274.416 259.861 274.416 260.301C274.416 260.741 274.726 261.051 275.134 261.051ZM275.639 264.526C275.639 263.873 275.672 263.417 275.688 263.074C275.688 262.992 275.639 262.96 275.574 262.96H273.552V263.253C273.91 263.302 274.09 263.368 274.253 263.482C274.416 263.596 274.481 263.71 274.547 263.922C274.596 264.102 274.612 264.722 274.612 264.983V268.767C274.612 269.044 274.612 269.273 274.547 269.534C274.481 269.795 274.302 269.974 274.041 270.104C273.927 270.17 273.698 270.219 273.552 270.235V270.545H276.732V270.235C276.569 270.219 276.341 270.153 276.227 270.104C275.998 269.99 275.786 269.86 275.705 269.534C275.656 269.322 275.639 269.012 275.639 268.767V264.526ZM285.245 268.506V264.77C285.245 263.939 284.951 263.433 284.56 263.139C284.217 262.911 283.809 262.764 283.255 262.764C282.651 262.764 282.08 262.944 281.672 263.221C281.265 263.449 280.84 263.841 280.547 264.444H280.449C280.465 264.167 280.482 263.286 280.482 263.058C280.482 262.976 280.449 262.96 280.367 262.96H278.377V263.253C278.638 263.286 278.899 263.368 279.095 263.482C279.258 263.58 279.356 263.71 279.405 263.922C279.454 264.134 279.454 264.591 279.454 264.983V268.343C279.454 268.734 279.454 269.191 279.421 269.403C279.34 269.811 279.16 269.974 278.785 270.121C278.671 270.17 278.459 270.219 278.312 270.235V270.545H281.607V270.235C281.444 270.219 281.281 270.17 281.134 270.121C280.775 269.974 280.628 269.778 280.563 269.485C280.498 269.224 280.498 268.783 280.498 268.424V266.288C280.498 265.602 280.579 265.129 280.824 264.624C281.183 263.841 281.966 263.433 282.782 263.433C283.255 263.433 283.581 263.563 283.809 263.808C284.07 264.085 284.201 264.461 284.201 265.129V268.424C284.201 268.783 284.201 269.207 284.119 269.501C284.021 269.827 283.923 269.99 283.597 270.121C283.467 270.17 283.255 270.219 283.091 270.235V270.545H286.321V270.235C286.174 270.219 285.962 270.17 285.848 270.121C285.489 269.958 285.375 269.762 285.31 269.452C285.261 269.224 285.245 268.848 285.245 268.506ZM294.15 270.382L294.052 270.104C293.905 270.186 293.677 270.235 293.53 270.235C293.334 270.235 293.187 270.17 293.09 270.039C292.959 269.86 292.91 269.566 292.91 268.783V264.249C292.91 263.123 291.882 262.764 290.773 262.764C289.941 262.764 288.963 263.139 288.604 263.563C288.408 263.759 288.31 264.004 288.31 264.265C288.31 264.624 288.555 264.836 288.832 264.836C289.207 264.836 289.403 264.673 289.452 264.2C289.501 263.775 289.68 263.498 289.958 263.335C290.219 263.221 290.496 263.156 290.806 263.156C291.573 263.156 291.882 263.466 291.882 264.297V265.521C291.785 265.88 291.328 266.32 290.496 266.597C289.631 266.907 289.012 267.005 288.408 267.56C288.049 267.919 287.902 268.392 287.902 268.8C287.902 270.039 288.734 270.692 289.892 270.692C291.002 270.692 291.589 270.039 291.833 269.583H291.948C291.964 270.153 292.111 270.398 292.355 270.561C292.502 270.643 292.682 270.692 292.959 270.692C293.432 270.692 293.938 270.529 294.15 270.382ZM291.882 266.19V268.734C291.785 269.599 290.953 270.121 290.268 270.121C289.517 270.121 288.963 269.713 288.963 268.783C288.963 268.278 289.109 267.935 289.354 267.674C289.582 267.429 289.99 267.234 290.577 266.989C291.067 266.777 291.621 266.5 291.882 266.19ZM297.148 258.931H294.995V259.224C295.288 259.241 295.598 259.273 295.81 259.436C295.941 259.534 296.039 259.665 296.104 259.844C296.153 259.991 296.169 260.301 296.169 260.562V269.012C296.169 269.452 296.153 270.039 296.12 270.578H296.446L297.131 269.583H297.278C297.702 270.219 298.551 270.692 299.399 270.692C300.785 270.692 302.824 269.664 302.824 266.744C302.824 263.775 301.16 262.764 299.66 262.764C298.632 262.764 297.784 263.253 297.311 264.249H297.213V261.133C297.213 260.252 297.278 259.485 297.278 259.045C297.278 258.963 297.213 258.931 297.148 258.931ZM299.529 263.27C300.802 263.27 301.666 264.2 301.666 266.761C301.666 268.865 300.867 270.251 299.382 270.251C298.763 270.251 298.143 270.056 297.751 269.55C297.343 269.028 297.213 268.441 297.213 267.413V265.766C297.213 264.689 297.621 264.216 297.898 263.906C298.355 263.433 298.893 263.27 299.529 263.27ZM306.617 260.562C306.617 259.958 306.65 259.371 306.65 259.045C306.65 258.963 306.617 258.931 306.536 258.931H304.513V259.241C304.839 259.257 305.051 259.29 305.231 259.42C305.378 259.534 305.459 259.649 305.525 259.861C305.59 260.056 305.59 260.66 305.59 260.905V268.653C305.59 268.963 305.59 269.256 305.525 269.501C305.443 269.811 305.28 269.99 305.019 270.104C304.888 270.17 304.693 270.219 304.53 270.235V270.545H307.645V270.235C307.482 270.219 307.303 270.17 307.156 270.104C306.911 269.974 306.748 269.811 306.666 269.452C306.617 269.207 306.617 268.93 306.617 268.653V260.562ZM311.527 263.645C311.902 263.335 312.343 263.188 312.799 263.188C313.354 263.188 313.729 263.335 314.039 263.596C314.382 263.89 314.561 264.297 314.561 265.031C314.561 265.749 314.414 265.896 313.909 265.896H310.581C310.728 264.787 311.103 264.004 311.527 263.645ZM315.768 268.326L315.409 268.196C315.067 269.24 314.414 270.121 313.011 270.121C312.343 270.121 311.772 269.909 311.348 269.468C310.793 268.865 310.532 267.772 310.532 266.777C310.532 266.614 310.532 266.467 310.548 266.32H315.67C315.703 266.108 315.719 265.766 315.719 265.488C315.719 264.314 314.887 262.764 312.783 262.764C310.907 262.764 309.358 264.493 309.358 266.744C309.358 267.902 309.684 268.963 310.45 269.746C311.038 270.365 311.821 270.692 312.799 270.692C314.235 270.692 315.311 269.827 315.768 268.326ZM244.926 280.741C244.926 280.432 244.942 280.285 245.073 280.138C245.187 280.007 245.334 279.975 245.611 279.975H246.557C248.253 279.975 249.118 280.758 249.118 282.405C249.118 282.944 249.036 283.629 248.661 284.102C248.27 284.558 247.617 284.983 246.198 284.983C245.807 284.983 245.219 284.934 244.926 284.868V280.741ZM246.361 290.219C246.182 290.202 245.986 290.186 245.839 290.137C245.513 290.039 245.317 289.876 245.154 289.55C244.975 289.126 244.926 288.539 244.926 287.56V285.341C245.171 285.374 245.725 285.423 246.182 285.423C247.552 285.423 248.449 285.113 249.004 284.787C249.787 284.33 250.341 283.466 250.341 282.275C250.341 280.415 248.824 279.567 246.704 279.567H242.349V279.893C242.577 279.91 242.74 279.942 242.854 279.975C243.148 280.073 243.36 280.219 243.523 280.529C243.719 280.97 243.751 281.557 243.751 282.519V287.576C243.751 288.539 243.719 289.126 243.523 289.566C243.36 289.909 243.164 290.039 242.903 290.121C242.707 290.186 242.544 290.202 242.381 290.219V290.545H246.361V290.219ZM253.818 284.656H253.72C253.72 284.722 253.769 283.025 253.769 283.058C253.769 283.009 253.736 282.96 253.655 282.96H251.665V283.253C251.909 283.302 252.154 283.351 252.366 283.482C252.513 283.58 252.643 283.743 252.692 283.939C252.741 284.134 252.741 284.722 252.741 284.999V288.506C252.741 288.832 252.741 289.191 252.676 289.468C252.578 289.827 252.448 289.974 252.17 290.121C252.007 290.17 251.795 290.219 251.648 290.235V290.545H254.911V290.235C254.731 290.219 254.552 290.186 254.372 290.121C254.177 290.056 254.062 289.892 253.965 289.664C253.834 289.387 253.769 289.077 253.769 288.441V286.744C253.769 286.32 253.785 285.814 253.801 285.717C253.948 284.461 254.78 283.449 255.302 283.449C255.498 283.449 255.661 283.514 255.759 283.727C255.873 284.02 256.004 284.281 256.395 284.281C256.835 284.281 256.982 283.955 256.982 283.645C256.982 283.335 256.868 283.139 256.754 283.025C256.558 282.862 256.281 282.764 255.987 282.764C255.433 282.764 255.041 282.992 254.748 283.237C254.389 283.547 254.111 283.922 253.818 284.656ZM258.118 286.728C258.118 289.207 259.847 290.692 261.674 290.692C263.501 290.692 265.23 289.191 265.23 286.712C265.23 284.249 263.501 282.764 261.674 282.764C259.831 282.764 258.118 284.249 258.118 286.728ZM259.276 286.728C259.276 285.276 259.635 284.281 260.287 283.694C260.679 283.335 261.201 283.172 261.674 283.172C262.131 283.172 262.653 283.319 263.044 283.694C263.697 284.297 264.055 285.292 264.055 286.728C264.055 288.147 263.68 289.158 263.044 289.762C262.653 290.137 262.147 290.284 261.674 290.284C261.184 290.284 260.679 290.137 260.271 289.746C259.635 289.158 259.276 288.147 259.276 286.728ZM270.606 283.172C271.422 283.172 271.732 283.384 271.96 284.232C272.107 284.673 272.27 284.983 272.694 284.983C273.037 284.983 273.249 284.787 273.249 284.379C273.249 284.167 273.183 283.873 272.955 283.612C272.58 283.188 271.976 282.764 270.622 282.764C268.714 282.764 267.181 284.477 267.181 286.712C267.181 288.261 267.719 289.289 268.469 289.909C269.007 290.398 269.66 290.692 270.557 290.692C272.025 290.692 273.037 289.778 273.444 288.408L273.053 288.278C272.792 289.077 272.205 290.153 270.622 290.153C270.133 290.153 269.627 289.941 269.301 289.631C268.714 289.044 268.322 288.082 268.322 286.63C268.322 285.146 268.746 284.102 269.366 283.596C269.693 283.335 270.149 283.172 270.606 283.172ZM277.107 283.645C277.482 283.335 277.923 283.188 278.38 283.188C278.934 283.188 279.309 283.335 279.619 283.596C279.962 283.89 280.141 284.297 280.141 285.031C280.141 285.749 279.994 285.896 279.489 285.896H276.161C276.308 284.787 276.683 284.004 277.107 283.645ZM281.348 288.326L280.989 288.196C280.647 289.24 279.994 290.121 278.592 290.121C277.923 290.121 277.352 289.909 276.928 289.468C276.373 288.865 276.112 287.772 276.112 286.777C276.112 286.614 276.112 286.467 276.128 286.32H281.25C281.283 286.108 281.299 285.766 281.299 285.488C281.299 284.314 280.467 282.764 278.363 282.764C276.487 282.764 274.938 284.493 274.938 286.744C274.938 287.902 275.264 288.963 276.031 289.746C276.618 290.365 277.401 290.692 278.38 290.692C279.815 290.692 280.892 289.827 281.348 288.326ZM288.312 288.441C288.312 287.185 287.333 286.712 286.012 286.157C284.74 285.635 284.152 285.292 284.152 284.379C284.152 283.661 284.723 283.188 285.522 283.188C286.012 283.188 286.371 283.319 286.632 283.531C287.04 283.841 287.284 284.363 287.513 285.015H287.806L287.725 282.878H287.513L287.203 283.351H287.105C286.811 283.074 286.338 282.764 285.506 282.764C284.136 282.764 283.271 283.645 283.271 284.689C283.271 286.124 284.152 286.532 285.441 287.07C286.876 287.674 287.464 288 287.464 288.963C287.464 289.876 286.827 290.284 285.914 290.284C284.74 290.284 283.875 289.354 283.484 287.87H283.141L283.19 290.545H283.484L283.793 289.909H283.908C284.381 290.398 285.18 290.692 285.898 290.692C287.17 290.692 288.312 289.99 288.312 288.441ZM295.017 288.441C295.017 287.185 294.039 286.712 292.717 286.157C291.445 285.635 290.858 285.292 290.858 284.379C290.858 283.661 291.429 283.188 292.228 283.188C292.717 283.188 293.076 283.319 293.337 283.531C293.745 283.841 293.99 284.363 294.218 285.015H294.512L294.43 282.878H294.218L293.908 283.351H293.81C293.517 283.074 293.044 282.764 292.212 282.764C290.841 282.764 289.977 283.645 289.977 284.689C289.977 286.124 290.858 286.532 292.146 287.07C293.582 287.674 294.169 288 294.169 288.963C294.169 289.876 293.533 290.284 292.619 290.284C291.445 290.284 290.58 289.354 290.189 287.87H289.846L289.895 290.545H290.189L290.499 289.909H290.613C291.086 290.398 291.885 290.692 292.603 290.692C293.875 290.692 295.017 289.99 295.017 288.441ZM298.705 283.645C299.08 283.335 299.521 283.188 299.977 283.188C300.532 283.188 300.907 283.335 301.217 283.596C301.56 283.89 301.739 284.297 301.739 285.031C301.739 285.749 301.592 285.896 301.087 285.896H297.759C297.906 284.787 298.281 284.004 298.705 283.645ZM302.946 288.326L302.587 288.196C302.245 289.24 301.592 290.121 300.189 290.121C299.521 290.121 298.95 289.909 298.526 289.468C297.971 288.865 297.71 287.772 297.71 286.777C297.71 286.614 297.71 286.467 297.726 286.32H302.848C302.881 286.108 302.897 285.766 302.897 285.488C302.897 284.314 302.065 282.764 299.961 282.764C298.085 282.764 296.536 284.493 296.536 286.744C296.536 287.902 296.862 288.963 297.628 289.746C298.216 290.365 298.999 290.692 299.977 290.692C301.413 290.692 302.489 289.827 302.946 288.326ZM309.91 288.441C309.91 287.185 308.931 286.712 307.61 286.157C306.337 285.635 305.75 285.292 305.75 284.379C305.75 283.661 306.321 283.188 307.12 283.188C307.61 283.188 307.969 283.319 308.23 283.531C308.637 283.841 308.882 284.363 309.11 285.015H309.404L309.322 282.878H309.11L308.8 283.351H308.703C308.409 283.074 307.936 282.764 307.104 282.764C305.734 282.764 304.869 283.645 304.869 284.689C304.869 286.124 305.75 286.532 307.039 287.07C308.474 287.674 309.061 288 309.061 288.963C309.061 289.876 308.425 290.284 307.512 290.284C306.337 290.284 305.473 289.354 305.081 287.87H304.739L304.788 290.545H305.081L305.391 289.909H305.505C305.979 290.398 306.778 290.692 307.496 290.692C308.768 290.692 309.91 289.99 309.91 288.441Z" fill="black"/>
<path d="M265.519 1L297.037 32.5181L265.519 64.0363" stroke="black"/>
<path d="M14.775 189.688L54.4902 169.452L74.7261 209.167" stroke="black"/>
<path d="M114.294 498.744L107.321 454.72L151.346 447.747" stroke="black"/>
<path d="M437.87 498.186L393.845 491.213L400.818 447.188" stroke="black"/>
<path d="M537.824 190.655L517.588 230.37L477.873 210.135" stroke="black"/>
<path d="M105.608 99.7078L103.411 101.263L105.891 110.92L105.798 110.986L97.5535 105.411L95.1839 107.089L95.3725 107.355C95.5416 107.255 95.7374 107.136 95.9216 107.086C96.1911 107.015 96.4529 106.99 96.7518 107.158C97.1112 107.383 97.4245 107.741 97.9618 108.5L101.365 113.305C101.836 113.971 101.95 114.33 101.951 114.669C101.955 114.986 101.875 115.183 101.696 115.41C101.604 115.534 101.476 115.665 101.313 115.801L101.501 116.067L104.297 114.087L104.108 113.821C103.89 113.936 103.751 113.994 103.576 114.058C103.33 114.133 103.108 114.13 102.833 114.024C102.536 113.915 102.249 113.679 101.777 113.013L97.5355 107.023L97.642 106.947L106.341 112.74L106.767 112.438L104.197 102.345L104.29 102.279L108.023 107.551C108.636 108.416 109.005 108.994 109.106 109.503C109.178 109.831 109.073 110.106 108.88 110.342C108.793 110.444 108.625 110.603 108.488 110.72L108.677 110.986L111.952 108.667L111.763 108.401C111.607 108.491 111.442 108.568 111.33 108.608C111.007 108.716 110.723 108.738 110.437 108.56C110.013 108.301 109.595 107.738 108.982 106.872L106.324 103.118C105.664 102.186 105.319 101.671 105.215 101.185C105.169 100.838 105.27 100.586 105.413 100.365C105.505 100.24 105.659 100.091 105.796 99.9741L105.608 99.7078ZM118.375 103.919L118.135 103.749C118.062 103.901 117.904 104.073 117.784 104.157C117.624 104.271 117.467 104.302 117.311 104.252C117.101 104.181 116.892 103.97 116.439 103.331L113.819 99.63C113.168 98.7115 112.122 99.0124 111.217 99.6534C110.538 100.134 109.956 101.006 109.908 101.559C109.862 101.832 109.923 102.089 110.074 102.302C110.281 102.594 110.604 102.626 110.83 102.466C111.136 102.249 111.202 102.003 110.968 101.588C110.763 101.214 110.749 100.884 110.881 100.591C111.028 100.347 111.217 100.133 111.47 99.9541C112.095 99.511 112.527 99.5849 113.008 100.264L113.715 101.262C113.843 101.612 113.724 102.235 113.206 102.942C112.679 103.695 112.23 104.133 112.058 104.934C111.972 105.434 112.126 105.905 112.362 106.238C113.078 107.25 114.134 107.302 115.079 106.632C115.984 105.991 116.087 105.119 116.022 104.605L116.116 104.539C116.459 104.996 116.72 105.111 117.014 105.102C117.181 105.084 117.356 105.02 117.582 104.86C117.968 104.587 118.286 104.161 118.375 103.919ZM114.102 101.808L115.572 103.885C115.992 104.647 115.615 105.554 115.055 105.95C114.443 106.383 113.755 106.371 113.218 105.612C112.925 105.199 112.847 104.835 112.896 104.481C112.941 104.149 113.161 103.754 113.499 103.214C113.775 102.759 114.068 102.212 114.102 101.808ZM123.984 97.6487L121.825 94.6001C121.345 93.9212 120.813 93.6782 120.324 93.6648C119.912 93.6764 119.494 93.7922 119.042 94.1127C118.549 94.4615 118.187 94.9378 118.014 95.3998C117.814 95.8219 117.694 96.3864 117.803 97.0487L117.723 97.1052C117.576 96.8695 117.08 96.1412 116.948 95.9548C116.901 95.8883 116.865 95.8938 116.799 95.9409L115.174 97.091L115.344 97.3306C115.576 97.2064 115.836 97.1221 116.062 97.1022C116.252 97.0878 116.407 97.1377 116.569 97.2825C116.732 97.4273 116.996 97.8001 117.222 98.1196L119.164 100.862C119.39 101.181 119.654 101.554 119.75 101.746C119.919 102.126 119.867 102.363 119.645 102.699C119.581 102.805 119.436 102.968 119.325 103.066L119.505 103.319L122.194 101.415L122.015 101.162C121.872 101.243 121.711 101.297 121.562 101.342C121.185 101.43 120.952 101.355 120.729 101.153C120.525 100.978 120.27 100.618 120.063 100.325L118.828 98.5813C118.432 98.0221 118.225 97.5889 118.133 97.0349C117.973 96.1885 118.377 95.4032 119.042 94.9319C119.428 94.6585 119.77 94.5765 120.098 94.6442C120.471 94.7197 120.794 94.9505 121.181 95.4963L123.085 98.1854C123.292 98.4783 123.537 98.8244 123.64 99.1112C123.749 99.434 123.763 99.6236 123.573 99.9187C123.494 100.034 123.35 100.197 123.226 100.304L123.405 100.557L126.041 98.6906L125.862 98.4376C125.733 98.5092 125.531 98.5918 125.41 98.6178C125.023 98.6921 124.816 98.5983 124.584 98.3831C124.412 98.225 124.182 97.9282 123.984 97.6487ZM131.592 92.3617L129.556 89.4862C129.037 88.754 128.724 88.2559 128.432 87.8432C128.376 87.7634 128.34 87.7689 128.273 87.816L126.582 89.0132L126.752 89.2528C126.974 89.1153 127.252 88.9989 127.487 88.9923C127.709 88.9951 127.873 89.0583 128.045 89.2164C128.185 89.3573 128.458 89.7434 128.6 89.9431L129.891 91.7669C130.184 92.1796 130.462 92.6017 130.632 92.9816C130.827 93.483 130.836 93.9761 130.713 94.4231C130.607 94.8379 130.359 95.1934 130.013 95.4385C129.613 95.7213 129.241 95.8449 128.845 95.7655C128.377 95.6972 128.02 95.3905 127.605 94.8047L125.729 92.1555C125.286 91.5298 124.904 90.9613 124.638 90.5298C124.582 90.4499 124.532 90.4649 124.479 90.5026L122.775 91.7091L122.945 91.9488C123.194 91.7924 123.435 91.6815 123.647 91.671C123.801 91.6622 123.96 91.6894 124.155 91.8513C124.298 91.9695 124.51 92.2396 124.717 92.5325L126.81 95.4879C127.319 96.2068 127.714 96.4264 128.093 96.538C128.877 96.7422 129.529 96.4206 130.008 96.0813C130.541 95.7042 130.831 95.239 130.99 94.7864C131.102 94.4076 131.143 94.0987 131.052 93.4631L131.132 93.4065L131.839 94.405C131.896 94.4848 131.964 94.4965 132.017 94.4588L133.641 93.3088L133.462 93.0558C133.293 93.1556 133.061 93.2798 132.881 93.3075C132.566 93.3707 132.364 93.2542 132.131 93.039C131.94 92.8543 131.761 92.6013 131.592 92.3617ZM137.572 90.5258L137.393 90.2728C137.263 90.3444 137.045 90.4591 136.897 90.504C136.515 90.6143 136.303 90.4845 136.039 90.2521C135.844 90.0901 135.595 89.7667 135.435 89.5404L132.494 85.3869L134.131 84.2275L133.867 83.8547L132.23 85.0142L131.259 83.643C130.92 83.1637 130.701 82.7988 130.644 82.3795C130.587 81.9602 130.685 81.5908 131.045 81.3363C131.298 81.1572 131.482 81.1067 131.641 81.1339C131.791 81.1478 131.893 81.2355 132.093 81.4335C132.27 81.6277 132.391 81.7419 132.547 81.7919C132.747 81.8496 132.91 81.854 133.137 81.6938C133.416 81.4958 133.448 81.1736 133.231 80.8674C132.977 80.508 132.575 80.3926 132.137 80.423C131.748 80.4385 131.372 80.5848 130.933 80.8959C130.44 81.2447 130.101 81.7249 129.997 82.3977C129.919 82.9928 130.021 83.7005 130.769 84.7294L131.391 85.608L130.486 86.249L130.75 86.6218L131.655 85.9808L134.596 90.1343C134.785 90.4005 134.945 90.6268 135.084 90.9081C135.248 91.252 135.21 91.5381 135.05 91.7916C134.955 91.9391 134.801 92.0882 134.703 92.177L134.883 92.4299L137.572 90.5258ZM144.295 85.5654L144.055 85.3957C143.982 85.5471 143.824 85.719 143.704 85.8038C143.544 85.917 143.387 85.9485 143.231 85.8986C143.021 85.8276 142.812 85.6162 142.359 84.9772L139.739 81.2764C139.088 80.3578 138.042 80.6588 137.137 81.2998C136.458 81.7805 135.876 82.6523 135.828 83.2058C135.782 83.4787 135.843 83.7349 135.994 83.9479C136.201 84.2408 136.523 84.2725 136.75 84.1122C137.056 83.8954 137.121 83.6492 136.888 83.2348C136.683 82.8604 136.669 82.5304 136.801 82.237C136.948 81.993 137.137 81.7795 137.39 81.6004C138.015 81.1574 138.447 81.2312 138.928 81.9102L139.635 82.9086C139.763 83.258 139.644 83.8814 139.126 84.5885C138.599 85.341 138.15 85.7791 137.978 86.5805C137.892 87.0807 138.046 87.5516 138.282 87.8845C138.998 88.8962 140.054 88.948 140.999 88.2787C141.904 87.6377 142.007 86.7658 141.942 86.2517L142.036 86.1857C142.379 86.6422 142.64 86.7571 142.934 86.7488C143.101 86.7305 143.276 86.6668 143.502 86.5065C143.888 86.2331 144.206 85.8078 144.295 85.5654ZM140.022 83.4544L141.492 85.5312C141.912 86.2933 141.535 87.2 140.975 87.5959C140.363 88.0295 139.675 88.0172 139.137 87.2584C138.845 86.8457 138.767 86.4813 138.816 86.1269C138.861 85.7953 139.081 85.3999 139.419 84.8608C139.695 84.405 139.988 83.8582 140.022 83.4544ZM144.026 76.9214C144.692 76.4501 145.067 76.444 145.744 77.0043C146.118 77.2789 146.43 77.4376 146.776 77.1925C147.056 76.9945 147.116 76.7122 146.88 76.3794C146.758 76.2064 146.535 76.0045 146.197 75.9234C145.646 75.7941 144.908 75.7968 143.804 76.5792C142.246 77.682 141.984 79.9659 143.276 81.7897C144.171 83.0544 145.205 83.582 146.175 83.6543C146.897 83.7426 147.599 83.6052 148.332 83.0867C149.53 82.2383 149.827 80.9084 149.368 79.5545L148.973 79.6742C149.222 80.4774 149.365 81.6953 148.074 82.6097C147.674 82.8925 147.139 83.0116 146.694 82.9472C145.875 82.8073 145 82.2481 144.161 81.0633C143.303 79.8519 143.046 78.7548 143.259 77.9839C143.375 77.5824 143.653 77.1853 144.026 76.9214ZM154.645 77.1969C154.592 77.7143 154.355 78.1419 153.942 78.4341C153.29 78.896 152.883 78.7445 152.497 78.1987L149.22 73.5432L150.897 72.3555L150.634 71.9828L148.956 73.1705L147.448 71.0405L147.235 71.1913C147.97 73.1892 147.865 73.9435 147.204 74.5911L147.364 74.8175C147.497 74.7232 148.226 74.2275 148.385 74.1144C148.513 74.3235 151.605 78.69 151.662 78.7698C152.039 79.3023 152.302 79.476 152.647 79.5115C153.132 79.5477 153.517 79.4146 154.01 79.0658C154.556 78.6794 154.932 78.0532 154.914 77.2662L154.645 77.1969ZM160.67 71.7716L158.634 68.8961C158.115 68.164 157.803 67.6659 157.511 67.2532C157.454 67.1733 157.418 67.1788 157.351 67.226L155.661 68.4231L155.83 68.6627C156.053 68.5252 156.33 68.4088 156.565 68.4022C156.787 68.405 156.952 68.4683 157.124 68.6263C157.263 68.7672 157.537 69.1533 157.678 69.353L158.97 71.1768C159.262 71.5895 159.541 72.0116 159.71 72.3915C159.905 72.893 159.914 73.386 159.791 73.833C159.685 74.2479 159.437 74.6033 159.091 74.8484C158.692 75.1312 158.32 75.2548 157.924 75.1755C157.455 75.1072 157.098 74.8004 156.684 74.2147L154.808 71.5655C154.365 70.9398 153.982 70.3712 153.716 69.9397C153.66 69.8598 153.611 69.8748 153.557 69.9125L151.853 71.1191L152.023 71.3587C152.272 71.2023 152.513 71.0914 152.726 71.0809C152.879 71.0721 153.039 71.0993 153.233 71.2613C153.377 71.3794 153.588 71.6496 153.795 71.9424L155.888 74.8978C156.397 75.6167 156.793 75.8364 157.171 75.9479C157.956 76.1522 158.607 75.8306 159.087 75.4912C159.619 75.1142 159.909 74.6489 160.068 74.1963C160.18 73.8176 160.221 73.5086 160.131 72.873L160.211 72.8165L160.918 73.8149C160.974 73.8948 161.042 73.9064 161.096 73.8687L162.72 72.7187L162.541 72.4658C162.371 72.5656 162.14 72.6898 161.959 72.7175C161.644 72.7806 161.442 72.6641 161.21 72.4489C161.019 72.2642 160.84 72.0113 160.67 71.7716ZM162.302 65.7992L162.222 65.8557C162.26 65.909 161.319 64.4962 161.338 64.5228C161.31 64.4829 161.255 64.4618 161.188 64.509L159.564 65.659L159.734 65.8986C159.962 65.7971 160.19 65.6957 160.438 65.6796C160.615 65.6747 160.816 65.7324 160.969 65.8639C161.122 65.9953 161.461 66.4746 161.621 66.7009L163.648 69.5631C163.836 69.8293 164.044 70.1222 164.151 70.3862C164.278 70.7356 164.257 70.9309 164.115 71.2109C164.01 71.3451 163.866 71.5076 163.755 71.6058L163.934 71.8587L166.597 69.9734L166.418 69.7205C166.262 69.8109 166.097 69.8879 165.912 69.9384C165.715 69.9982 165.527 69.9311 165.316 69.8013C165.049 69.6504 164.817 69.4351 164.449 68.916L163.469 67.5315C163.223 67.1853 162.945 66.7632 162.901 66.6739C162.295 65.564 162.39 64.2579 162.816 63.9563C162.976 63.8431 163.146 63.8021 163.349 63.9186C163.612 64.0923 163.869 64.2299 164.188 64.0036C164.548 63.7491 164.479 63.398 164.3 63.1451C164.121 62.8921 163.915 62.7984 163.756 62.7712C163.501 62.7512 163.219 62.8315 162.979 63.0012C162.526 63.3217 162.339 63.7343 162.241 64.1037C162.127 64.564 162.117 65.0304 162.302 65.7992ZM164.993 59.4767C165.339 59.2316 165.426 58.7901 165.171 58.4307C164.926 58.0845 164.476 57.9841 164.116 58.2386C163.783 58.4743 163.719 58.9196 163.973 59.2791C164.228 59.6385 164.66 59.7123 164.993 59.4767ZM167.413 62.02C167.036 61.4875 166.799 61.0959 166.614 60.8069C166.567 60.7403 166.508 60.742 166.455 60.7797L164.804 61.9486L164.974 62.1882C165.295 62.0208 165.479 61.9703 165.678 61.9692C165.878 61.9682 165.997 62.0237 166.173 62.159C166.316 62.2772 166.688 62.7736 166.838 62.9866L169.025 66.0751C169.186 66.3014 169.318 66.4878 169.415 66.7385C169.513 66.9892 169.47 67.2393 169.332 67.4967C169.277 67.6159 169.119 67.7878 169.008 67.8859L169.188 68.1389L171.784 66.3007L171.604 66.0478C171.462 66.1287 171.238 66.2075 171.116 66.2335C170.864 66.2723 170.615 66.2883 170.36 66.0692C170.198 65.9244 170.006 65.6809 169.864 65.4812L167.413 62.02ZM177.552 59.7176L175.394 56.669C174.913 55.9901 174.381 55.7471 173.892 55.7337C173.48 55.7452 173.063 55.8611 172.61 56.1816C172.117 56.5304 171.755 57.0067 171.583 57.4687C171.382 57.8907 171.262 58.4553 171.371 59.1176L171.291 59.1741C171.144 58.9384 170.649 58.2101 170.517 58.0237C170.469 57.9571 170.433 57.9627 170.367 58.0098L168.743 59.1598L168.912 59.3995C169.144 59.2753 169.404 59.191 169.63 59.1711C169.82 59.1567 169.975 59.2066 170.138 59.3514C170.3 59.4962 170.564 59.8689 170.79 60.1884L172.732 62.9308C172.958 63.2503 173.222 63.6231 173.318 63.815C173.487 64.1949 173.435 64.4317 173.214 64.7684C173.149 64.8743 173.004 65.0368 172.894 65.1349L173.073 65.3878L175.762 63.4837L175.583 63.2308C175.44 63.3117 175.279 63.366 175.131 63.411C174.753 63.4985 174.52 63.4236 174.297 63.2217C174.093 63.0464 173.839 62.687 173.631 62.3941L172.396 60.6502C172 60.091 171.794 59.6578 171.701 59.1038C171.541 58.2574 171.945 57.4721 172.61 57.0008C172.997 56.7274 173.338 56.6454 173.666 56.7131C174.039 56.7886 174.362 57.0194 174.749 57.5652L176.653 60.2543C176.86 60.5472 177.106 60.8933 177.209 61.18C177.317 61.5028 177.332 61.6925 177.141 61.9876C177.063 62.1029 176.918 62.2654 176.794 62.373L176.973 62.6259L179.609 60.7595L179.43 60.5065C179.301 60.5781 179.099 60.6607 178.978 60.6867C178.591 60.761 178.385 60.6672 178.152 60.452C177.98 60.2939 177.75 59.9971 177.552 59.7176ZM179.056 54.8151C178.161 53.5504 178.337 52.5859 179.123 52.0298C179.895 51.483 180.89 51.618 181.785 52.8826C182.69 54.1606 182.474 55.1534 181.688 55.7095C180.916 56.2563 179.961 56.0931 179.056 54.8151ZM186.867 56.5595C185.906 55.2016 184.915 55.5237 183.823 56.2967C183.357 56.6266 182.282 57.5077 181.843 57.8188C181.35 58.1676 180.929 58.1658 180.675 57.8064C180.354 57.3538 180.821 56.7432 181.287 56.4133C181.504 56.2397 181.772 56.11 181.918 56.0063C182.97 55.2616 183.684 53.6167 182.704 52.2322C182.6 52.0858 182.46 51.9449 182.34 51.8306C182.177 51.6858 182.005 51.5277 181.892 51.368C181.675 51.0618 181.633 50.6919 181.819 50.5599C182.006 50.4279 182.15 50.5461 182.36 50.6171C182.547 50.6842 182.741 50.6471 182.887 50.5434C183.113 50.3832 183.213 50.0726 182.997 49.7664C182.723 49.3804 182.304 49.2971 181.918 49.5705C181.466 49.891 181.218 50.5859 181.527 51.247L181.447 51.3036C180.551 50.9984 179.611 51.224 178.919 51.7141C177.828 52.4871 177.199 54.1115 178.151 55.4561C178.783 56.348 179.754 56.6194 180.629 56.4997L180.685 56.5796C180.232 57.0404 179.856 57.8068 180.327 58.4724C180.732 59.0449 181.458 59.1104 182.114 58.7661L182.161 58.8327C181.262 59.7088 180.972 60.6539 181.462 61.3461C182.15 62.3179 183.499 62.1623 185.256 60.918C186.641 59.9377 187.961 58.1037 186.867 56.5595ZM186.381 57.2838C187.229 58.4819 186.246 59.718 185.101 60.5286C183.796 61.4524 182.876 61.5643 182.301 60.7523C181.5 59.6207 182.586 58.6714 183.161 58.1845C183.581 57.8468 184.042 57.4808 184.424 57.2302C185.17 56.7023 185.787 56.4451 186.381 57.2838Z" fill="black"/>
<path d="M419.877 87.4642L423.248 83.8281C423.825 83.2061 424.096 83.0343 424.393 82.9539C424.69 82.8734 424.944 82.8869 425.203 83.0156C425.356 83.0906 425.498 83.1776 425.676 83.3209L425.887 83.0937L423.291 80.6869L423.081 80.9142C423.213 81.0592 423.382 81.2606 423.493 81.4526C423.642 81.724 423.683 81.8956 423.659 82.1851C423.614 82.5215 423.454 82.8623 422.877 83.4843L419.495 87.1324C418.807 87.874 418.175 88.2672 417.593 88.4392C416.748 88.6788 415.754 88.3354 414.749 87.4038C413.769 86.4943 413.395 85.4581 413.954 84.375C414.222 83.8224 414.643 83.3679 414.932 83.0569L417.826 79.9351C418.592 79.1098 419.035 78.6314 419.468 78.4765C419.775 78.361 420.066 78.4078 420.336 78.5246C420.465 78.5774 420.618 78.6755 420.785 78.8077L421.007 78.5685L418.1 75.8734L417.878 76.1126C418.023 76.2687 418.144 76.4257 418.207 76.5504C418.342 76.7876 418.432 77.0266 418.317 77.3426C418.16 77.7756 417.796 78.2164 416.942 79.1374L414.424 81.8526C414.036 82.2712 413.371 82.9889 413.051 83.6935C412.443 85.0207 413.196 86.6083 414.464 87.7839C415.564 88.8043 416.836 89.1834 417.773 88.9172C418.55 88.7032 419.156 88.2417 419.877 87.4642ZM424.508 93.9162C425.362 92.9952 424.966 91.9829 424.374 90.6778C423.796 89.43 423.598 88.7795 424.219 88.1097C424.707 87.5834 425.447 87.6247 426.034 88.1682C426.392 88.5009 426.567 88.8406 426.614 89.1736C426.702 89.6781 426.527 90.2272 426.251 90.8609L426.466 91.0606L427.859 89.4382L427.703 89.2941L427.155 89.4302L427.083 89.3636C427.056 88.9607 426.92 88.4118 426.31 87.8461C425.305 86.9145 424.072 86.9725 423.363 87.738C422.386 88.7906 422.755 89.6885 423.334 90.9595C423.976 92.378 424.185 93.0165 423.531 93.7222C422.91 94.3921 422.166 94.2585 421.496 93.6374C420.635 92.8389 420.633 91.5693 421.355 90.2146L421.104 89.9817L419.321 91.9766L419.536 92.1762L420.196 91.9205L420.28 91.9981C420.294 92.6786 420.68 93.4374 421.207 93.9254C422.14 94.7905 423.454 95.0525 424.508 93.9162ZM428.858 100.598L428.975 100.328C428.812 100.288 428.611 100.168 428.503 100.069C428.36 99.9354 428.297 99.7878 428.314 99.6255C428.34 99.4052 428.504 99.1567 429.036 98.5825L432.119 95.2574C432.885 94.4321 432.375 93.4702 431.562 92.716C430.952 92.1503 429.979 91.76 429.427 91.8269C429.151 91.8374 428.913 91.9503 428.735 92.1416C428.491 92.4048 428.526 92.7266 428.73 92.9152C429.005 93.1703 429.259 93.1838 429.617 92.8702C429.941 92.5925 430.261 92.5111 430.575 92.5801C430.845 92.6738 431.092 92.8145 431.319 93.0252C431.882 93.5465 431.898 93.9845 431.333 94.5945L430.501 95.4916C430.185 95.6882 429.551 95.7006 428.752 95.3383C427.907 94.9777 427.386 94.628 426.567 94.6243C426.059 94.6434 425.63 94.8905 425.353 95.1895C424.51 96.0986 424.676 97.1426 425.526 97.9301C426.339 98.6843 427.213 98.6052 427.703 98.4366L427.787 98.5142C427.411 98.944 427.352 99.2232 427.42 99.5092C427.473 99.6688 427.571 99.8267 427.774 100.015C428.121 100.337 428.603 100.561 428.858 100.598ZM430.046 95.982L428.316 97.8479C427.656 98.4153 426.691 98.2324 426.189 97.7666C425.639 97.2564 425.509 96.5803 426.141 95.8985C426.485 95.5277 426.826 95.3763 427.183 95.3513C427.517 95.3272 427.949 95.4609 428.546 95.6808C429.049 95.858 429.644 96.0318 430.046 95.982ZM434.328 98.8407C435.382 97.7044 436.362 97.679 437.068 98.3334C437.762 98.9766 437.834 99.9781 436.78 101.114C435.716 102.263 434.7 102.255 433.994 101.6C433.3 100.957 433.264 99.989 434.328 98.8407ZM434.226 106.844C435.358 105.623 434.839 104.72 433.858 103.81C433.439 103.422 432.356 102.551 431.961 102.185C431.519 101.775 431.434 101.362 431.734 101.039C432.111 100.633 432.804 100.964 433.223 101.353C433.437 101.529 433.619 101.765 433.751 101.887C434.696 102.763 436.452 103.124 437.606 101.88C437.728 101.748 437.837 101.582 437.924 101.441C438.032 101.252 438.152 101.051 438.285 100.908C438.54 100.632 438.893 100.515 439.061 100.671C439.228 100.826 439.142 100.991 439.116 101.211C439.088 101.408 439.165 101.59 439.296 101.712C439.499 101.901 439.824 101.934 440.079 101.659C440.401 101.313 440.396 100.886 440.049 100.564C439.643 100.187 438.912 100.087 438.328 100.525L438.256 100.459C438.371 99.5192 437.957 98.6461 437.335 98.0693C436.354 97.1599 434.635 96.8785 433.515 98.0865C432.772 98.8879 432.706 99.8946 433.003 100.726L432.936 100.798C432.392 100.449 431.565 100.238 431.01 100.836C430.533 101.35 430.618 102.074 431.09 102.645L431.035 102.705C429.992 102.005 429.008 101.916 428.431 102.538C427.622 103.411 428.051 104.699 429.63 106.163C430.874 107.316 432.94 108.231 434.226 106.844ZM433.418 106.516C432.419 107.593 431.008 106.884 429.979 105.93C428.807 104.843 428.508 103.966 429.185 103.236C430.127 102.22 431.28 103.088 431.874 103.55C432.291 103.892 432.744 104.268 433.068 104.59C433.738 105.211 434.116 105.763 433.418 106.516ZM442.269 103.845C442.754 103.873 443.177 104.065 443.512 104.376C443.919 104.753 444.094 105.115 444.144 105.518C444.195 105.966 444.05 106.387 443.551 106.925C443.063 107.451 442.855 107.459 442.484 107.115L440.044 104.853C440.906 104.139 441.714 103.82 442.269 103.845ZM442.195 110.162L442.021 109.822C441.06 110.355 439.983 110.557 438.954 109.603C438.463 109.148 438.189 108.605 438.177 107.993C438.181 107.174 438.733 106.195 439.409 105.465C439.52 105.346 439.62 105.238 439.732 105.142L443.488 108.624C443.656 108.491 443.901 108.251 444.089 108.047C444.888 107.186 445.331 105.484 443.789 104.054C442.413 102.778 440.101 102.992 438.57 104.643C437.783 105.492 437.301 106.491 437.331 107.587C437.34 108.441 437.693 109.212 438.41 109.878C439.463 110.854 440.84 110.952 442.195 110.162Z" fill="black"/>
<path d="M256.542 501.117H253.85L250.294 510.431H250.18L246.673 501.117H243.769V501.443C243.965 501.459 244.194 501.476 244.373 501.541C244.634 501.639 244.862 501.769 245.009 502.079C245.172 502.471 245.221 502.944 245.221 503.874V509.762C245.221 510.578 245.107 510.937 244.911 511.214C244.732 511.475 244.552 511.589 244.275 511.671C244.128 511.72 243.949 511.752 243.737 511.768V512.095H247.162V511.768C246.918 511.736 246.771 511.703 246.591 511.654C246.347 511.573 246.167 511.442 246.004 511.198C245.825 510.937 245.727 510.578 245.727 509.762V502.422H245.857L249.609 512.176H250.131L253.867 502.454H253.981V508.914C253.981 509.974 253.948 510.659 253.736 511.132C253.606 511.442 253.361 511.605 253.067 511.687C252.937 511.72 252.708 511.752 252.529 511.768V512.095H256.542V511.768C256.362 511.752 256.183 511.72 256.069 511.687C255.742 511.589 255.498 511.442 255.367 511.132C255.171 510.676 255.155 509.974 255.155 508.914V504.314C255.155 503.172 255.171 502.552 255.367 502.096C255.53 501.786 255.759 501.639 256.003 501.541C256.15 501.492 256.362 501.459 256.542 501.443V501.117ZM264.528 511.932L264.43 511.654C264.283 511.736 264.054 511.785 263.908 511.785C263.712 511.785 263.565 511.72 263.467 511.589C263.337 511.41 263.288 511.116 263.288 510.333V505.798C263.288 504.673 262.26 504.314 261.151 504.314C260.319 504.314 259.34 504.689 258.981 505.113C258.786 505.309 258.688 505.554 258.688 505.815C258.688 506.173 258.933 506.386 259.21 506.386C259.585 506.386 259.781 506.222 259.83 505.749C259.879 505.325 260.058 505.048 260.335 504.885C260.596 504.771 260.874 504.705 261.184 504.705C261.95 504.705 262.26 505.015 262.26 505.847V507.071C262.162 507.43 261.706 507.87 260.874 508.147C260.009 508.457 259.389 508.555 258.786 509.11C258.427 509.469 258.28 509.942 258.28 510.349C258.28 511.589 259.112 512.242 260.27 512.242C261.379 512.242 261.967 511.589 262.211 511.132H262.325C262.342 511.703 262.489 511.948 262.733 512.111C262.88 512.193 263.059 512.242 263.337 512.242C263.81 512.242 264.315 512.078 264.528 511.932ZM262.26 507.739V510.284C262.162 511.149 261.33 511.671 260.645 511.671C259.895 511.671 259.34 511.263 259.34 510.333C259.34 509.827 259.487 509.485 259.732 509.224C259.96 508.979 260.368 508.783 260.955 508.539C261.445 508.327 261.999 508.049 262.26 507.739ZM270.07 511.083C269.728 511.475 269.287 511.687 268.781 511.687C267.982 511.687 267.738 511.328 267.738 510.659L267.754 504.966H269.809V504.51H267.754V501.9H267.493C266.938 503.955 266.416 504.51 265.503 504.656V504.934C265.666 504.934 266.547 504.95 266.742 504.95C266.726 505.195 266.726 510.545 266.726 510.643C266.726 511.295 266.84 511.589 267.101 511.817C267.477 512.127 267.868 512.242 268.472 512.242C269.14 512.242 269.809 511.948 270.25 511.295L270.07 511.083ZM273.559 505.195C273.934 504.885 274.374 504.738 274.831 504.738C275.386 504.738 275.761 504.885 276.071 505.146C276.413 505.439 276.593 505.847 276.593 506.581C276.593 507.299 276.446 507.446 275.94 507.446H272.612C272.759 506.337 273.134 505.554 273.559 505.195ZM277.8 509.876L277.441 509.746C277.098 510.79 276.446 511.671 275.043 511.671C274.374 511.671 273.803 511.459 273.379 511.018C272.825 510.415 272.564 509.322 272.564 508.327C272.564 508.164 272.564 508.017 272.58 507.87H277.702C277.734 507.658 277.751 507.315 277.751 507.038C277.751 505.864 276.919 504.314 274.815 504.314C272.939 504.314 271.389 506.043 271.389 508.294C271.389 509.452 271.715 510.512 272.482 511.295C273.069 511.915 273.852 512.242 274.831 512.242C276.266 512.242 277.343 511.377 277.8 509.876ZM281.615 506.206H281.517C281.517 506.271 281.566 504.575 281.566 504.608C281.566 504.559 281.533 504.51 281.452 504.51H279.462V504.803C279.707 504.852 279.951 504.901 280.163 505.032C280.31 505.13 280.441 505.293 280.489 505.488C280.538 505.684 280.538 506.271 280.538 506.549V510.056C280.538 510.382 280.538 510.741 280.473 511.018C280.375 511.377 280.245 511.524 279.967 511.671C279.804 511.72 279.592 511.768 279.446 511.785V512.095H282.708V511.785C282.528 511.768 282.349 511.736 282.17 511.671C281.974 511.605 281.86 511.442 281.762 511.214C281.631 510.937 281.566 510.627 281.566 509.99V508.294C281.566 507.87 281.582 507.364 281.599 507.266C281.745 506.01 282.577 504.999 283.099 504.999C283.295 504.999 283.458 505.064 283.556 505.276C283.67 505.57 283.801 505.831 284.192 505.831C284.633 505.831 284.78 505.505 284.78 505.195C284.78 504.885 284.665 504.689 284.551 504.575C284.355 504.412 284.078 504.314 283.784 504.314C283.23 504.314 282.838 504.542 282.545 504.787C282.186 505.097 281.909 505.472 281.615 506.206ZM287.465 502.601C287.889 502.601 288.215 502.291 288.215 501.851C288.215 501.427 287.905 501.084 287.465 501.084C287.057 501.084 286.747 501.41 286.747 501.851C286.747 502.291 287.057 502.601 287.465 502.601ZM287.97 506.076C287.97 505.423 288.003 504.966 288.019 504.624C288.019 504.542 287.97 504.51 287.905 504.51H285.882V504.803C286.241 504.852 286.421 504.917 286.584 505.032C286.747 505.146 286.812 505.26 286.877 505.472C286.926 505.652 286.943 506.271 286.943 506.532V510.317C286.943 510.594 286.943 510.822 286.877 511.083C286.812 511.344 286.633 511.524 286.372 511.654C286.258 511.72 286.029 511.768 285.882 511.785V512.095H289.063V511.785C288.9 511.768 288.672 511.703 288.558 511.654C288.329 511.54 288.117 511.41 288.036 511.083C287.987 510.871 287.97 510.561 287.97 510.317V506.076ZM296.956 511.932L296.858 511.654C296.711 511.736 296.483 511.785 296.336 511.785C296.14 511.785 295.993 511.72 295.895 511.589C295.765 511.41 295.716 511.116 295.716 510.333V505.798C295.716 504.673 294.688 504.314 293.579 504.314C292.747 504.314 291.769 504.689 291.41 505.113C291.214 505.309 291.116 505.554 291.116 505.815C291.116 506.173 291.361 506.386 291.638 506.386C292.013 506.386 292.209 506.222 292.258 505.749C292.307 505.325 292.486 505.048 292.764 504.885C293.025 504.771 293.302 504.705 293.612 504.705C294.378 504.705 294.688 505.015 294.688 505.847V507.071C294.59 507.43 294.134 507.87 293.302 508.147C292.437 508.457 291.817 508.555 291.214 509.11C290.855 509.469 290.708 509.942 290.708 510.349C290.708 511.589 291.54 512.242 292.698 512.242C293.808 512.242 294.395 511.589 294.639 511.132H294.754C294.77 511.703 294.917 511.948 295.161 512.111C295.308 512.193 295.488 512.242 295.765 512.242C296.238 512.242 296.744 512.078 296.956 511.932ZM294.688 507.739V510.284C294.59 511.149 293.759 511.671 293.073 511.671C292.323 511.671 291.769 511.263 291.769 510.333C291.769 509.827 291.915 509.485 292.16 509.224C292.388 508.979 292.796 508.783 293.383 508.539C293.873 508.327 294.427 508.049 294.688 507.739ZM300.313 502.112C300.313 501.508 300.345 500.921 300.345 500.595C300.345 500.513 300.313 500.481 300.231 500.481H298.208V500.791C298.535 500.807 298.747 500.839 298.926 500.97C299.073 501.084 299.154 501.198 299.22 501.41C299.285 501.606 299.285 502.21 299.285 502.454V510.203C299.285 510.512 299.285 510.806 299.22 511.051C299.138 511.361 298.975 511.54 298.714 511.654C298.583 511.72 298.388 511.768 298.225 511.785V512.095H301.34V511.785C301.177 511.768 300.998 511.72 300.851 511.654C300.606 511.524 300.443 511.361 300.361 511.002C300.313 510.757 300.313 510.48 300.313 510.203V502.112ZM308.24 509.99C308.24 508.734 307.261 508.261 305.94 507.707C304.668 507.185 304.08 506.842 304.08 505.929C304.08 505.211 304.651 504.738 305.451 504.738C305.94 504.738 306.299 504.869 306.56 505.081C306.968 505.391 307.212 505.913 307.441 506.565H307.734L307.653 504.428H307.441L307.131 504.901H307.033C306.739 504.624 306.266 504.314 305.434 504.314C304.064 504.314 303.199 505.195 303.199 506.239C303.199 507.674 304.08 508.082 305.369 508.62C306.804 509.224 307.392 509.55 307.392 510.512C307.392 511.426 306.755 511.834 305.842 511.834C304.668 511.834 303.803 510.904 303.412 509.42H303.069L303.118 512.095H303.412L303.721 511.459H303.836C304.309 511.948 305.108 512.242 305.826 512.242C307.098 512.242 308.24 511.54 308.24 509.99ZM248.284 529.436H247.99C247.762 529.925 247.582 530.447 246.913 531.034C246.571 531.344 246.033 531.687 244.891 531.687H243.977C243.586 531.687 243.129 531.622 242.901 531.459C242.428 531.116 242.428 530.3 242.428 529.599V526.614H243.7C244.401 526.614 244.76 526.728 245.021 526.973C245.38 527.283 245.494 527.886 245.527 528.327H245.837V524.493H245.527C245.494 524.917 245.396 525.505 245.021 525.831C244.76 526.092 244.418 526.19 243.7 526.19H242.428V523.286C242.428 522.781 242.477 522.079 242.868 521.737C243.048 521.574 243.374 521.541 243.602 521.541H244.826C245.608 521.541 246.179 521.835 246.375 521.998C246.913 522.405 247.174 522.927 247.484 523.629H247.811L247.37 521.117H239.85V521.427C240.046 521.443 240.209 521.459 240.356 521.508C240.666 521.622 240.878 521.769 241.041 522.079C241.221 522.552 241.27 523.237 241.27 524.298V528.914C241.27 529.974 241.237 530.692 241.025 531.149C240.878 531.426 240.666 531.556 240.34 531.671C240.209 531.72 240.046 531.752 239.85 531.768V532.095H247.827L248.284 529.436ZM252.344 532.095V531.785C252.164 531.768 252.001 531.72 251.822 531.622C251.675 531.54 251.528 531.393 251.528 531.198C251.528 530.953 251.675 530.676 252.034 530.154L252.98 528.783H253.029L254.285 530.61C254.497 530.937 254.578 531.1 254.578 531.295C254.578 531.508 254.432 531.605 254.301 531.671C254.171 531.72 254.007 531.768 253.795 531.785V532.095H256.927V531.785C256.683 531.752 256.422 531.638 256.259 531.524C255.998 531.344 255.622 530.871 255.247 530.317L253.681 527.968L254.546 526.679C255.133 525.815 255.361 525.391 255.932 525.032C256.095 524.95 256.373 524.836 256.585 524.787V524.51H253.91V524.803C254.138 524.836 254.334 524.869 254.481 524.95C254.611 525.015 254.709 525.146 254.709 525.374C254.709 525.635 254.595 525.896 254.22 526.451L253.485 527.593H253.437L252.344 525.961C252.148 525.684 252.034 525.521 252.034 525.276C252.034 525.081 252.164 524.983 252.344 524.917C252.49 524.869 252.621 524.836 252.817 524.803V524.51H249.717V524.803C250.011 524.852 250.223 524.966 250.37 525.064C250.631 525.26 250.892 525.652 251.283 526.222L252.768 528.408L251.691 529.942C251.055 530.855 250.761 531.23 250.321 531.508C250.142 531.622 249.946 531.736 249.668 531.785V532.095H252.344ZM262.296 531.083C261.954 531.475 261.513 531.687 261.008 531.687C260.209 531.687 259.964 531.328 259.964 530.659L259.98 524.966H262.035V524.51H259.98V521.9H259.719C259.165 523.955 258.643 524.51 257.729 524.656V524.934C257.892 524.934 258.773 524.95 258.969 524.95C258.953 525.195 258.953 530.545 258.953 530.643C258.953 531.295 259.067 531.589 259.328 531.817C259.703 532.127 260.094 532.242 260.698 532.242C261.367 532.242 262.035 531.948 262.476 531.295L262.296 531.083ZM265.814 526.206H265.716C265.716 526.271 265.765 524.575 265.765 524.608C265.765 524.559 265.732 524.51 265.651 524.51H263.661V524.803C263.905 524.852 264.15 524.901 264.362 525.032C264.509 525.13 264.639 525.293 264.688 525.488C264.737 525.684 264.737 526.271 264.737 526.549V530.056C264.737 530.382 264.737 530.741 264.672 531.018C264.574 531.377 264.444 531.524 264.166 531.671C264.003 531.72 263.791 531.768 263.644 531.785V532.095H266.907V531.785C266.727 531.768 266.548 531.736 266.368 531.671C266.173 531.605 266.058 531.442 265.961 531.214C265.83 530.937 265.765 530.627 265.765 529.99V528.294C265.765 527.87 265.781 527.364 265.797 527.266C265.944 526.01 266.776 524.999 267.298 524.999C267.494 524.999 267.657 525.064 267.755 525.276C267.869 525.57 268 525.831 268.391 525.831C268.831 525.831 268.978 525.505 268.978 525.195C268.978 524.885 268.864 524.689 268.75 524.575C268.554 524.412 268.277 524.314 267.983 524.314C267.429 524.314 267.037 524.542 266.743 524.787C266.385 525.097 266.107 525.472 265.814 526.206ZM276.329 531.932L276.231 531.654C276.084 531.736 275.856 531.785 275.709 531.785C275.513 531.785 275.366 531.72 275.268 531.589C275.138 531.41 275.089 531.116 275.089 530.333V525.798C275.089 524.673 274.061 524.314 272.952 524.314C272.12 524.314 271.141 524.689 270.783 525.113C270.587 525.309 270.489 525.554 270.489 525.815C270.489 526.173 270.734 526.386 271.011 526.386C271.386 526.386 271.582 526.222 271.631 525.749C271.68 525.325 271.859 525.048 272.136 524.885C272.397 524.771 272.675 524.705 272.985 524.705C273.751 524.705 274.061 525.015 274.061 525.847V527.071C273.963 527.43 273.507 527.87 272.675 528.147C271.81 528.457 271.19 528.555 270.587 529.11C270.228 529.469 270.081 529.942 270.081 530.349C270.081 531.589 270.913 532.242 272.071 532.242C273.18 532.242 273.768 531.589 274.012 531.132H274.127C274.143 531.703 274.29 531.948 274.534 532.111C274.681 532.193 274.861 532.242 275.138 532.242C275.611 532.242 276.117 532.078 276.329 531.932ZM274.061 527.739V530.284C273.963 531.149 273.132 531.671 272.446 531.671C271.696 531.671 271.141 531.263 271.141 530.333C271.141 529.827 271.288 529.485 271.533 529.224C271.761 528.979 272.169 528.783 272.756 528.539C273.246 528.327 273.8 528.049 274.061 527.739ZM281.105 524.722C281.92 524.722 282.23 524.934 282.458 525.782C282.605 526.222 282.768 526.532 283.193 526.532C283.535 526.532 283.747 526.337 283.747 525.929C283.747 525.717 283.682 525.423 283.454 525.162C283.078 524.738 282.475 524.314 281.121 524.314C279.212 524.314 277.679 526.027 277.679 528.261C277.679 529.811 278.217 530.839 278.968 531.459C279.506 531.948 280.159 532.242 281.056 532.242C282.524 532.242 283.535 531.328 283.943 529.958L283.551 529.827C283.29 530.627 282.703 531.703 281.121 531.703C280.632 531.703 280.126 531.491 279.8 531.181C279.212 530.594 278.821 529.632 278.821 528.18C278.821 526.695 279.245 525.652 279.865 525.146C280.191 524.885 280.648 524.722 281.105 524.722ZM289.612 531.083C289.27 531.475 288.829 531.687 288.324 531.687C287.524 531.687 287.28 531.328 287.28 530.659L287.296 524.966H289.351V524.51H287.296V521.9H287.035C286.48 523.955 285.958 524.51 285.045 524.656V524.934C285.208 524.934 286.089 524.95 286.285 524.95C286.268 525.195 286.268 530.545 286.268 530.643C286.268 531.295 286.382 531.589 286.643 531.817C287.019 532.127 287.41 532.242 288.014 532.242C288.682 532.242 289.351 531.948 289.792 531.295L289.612 531.083ZM292.64 522.601C293.064 522.601 293.39 522.291 293.39 521.851C293.39 521.427 293.08 521.084 292.64 521.084C292.232 521.084 291.922 521.41 291.922 521.851C291.922 522.291 292.232 522.601 292.64 522.601ZM293.146 526.076C293.146 525.423 293.178 524.966 293.195 524.624C293.195 524.542 293.146 524.51 293.08 524.51H291.058V524.803C291.417 524.852 291.596 524.917 291.759 525.032C291.922 525.146 291.988 525.26 292.053 525.472C292.102 525.652 292.118 526.271 292.118 526.532V530.317C292.118 530.594 292.118 530.822 292.053 531.083C291.988 531.344 291.808 531.524 291.547 531.654C291.433 531.72 291.205 531.768 291.058 531.785V532.095H294.239V531.785C294.075 531.768 293.847 531.703 293.733 531.654C293.505 531.54 293.293 531.41 293.211 531.083C293.162 530.871 293.146 530.561 293.146 530.317V526.076ZM295.916 528.278C295.916 530.757 297.645 532.242 299.472 532.242C301.299 532.242 303.028 530.741 303.028 528.261C303.028 525.798 301.299 524.314 299.472 524.314C297.629 524.314 295.916 525.798 295.916 528.278ZM297.074 528.278C297.074 526.826 297.433 525.831 298.086 525.244C298.477 524.885 298.999 524.722 299.472 524.722C299.929 524.722 300.451 524.869 300.842 525.244C301.495 525.847 301.854 526.842 301.854 528.278C301.854 529.697 301.479 530.708 300.842 531.312C300.451 531.687 299.945 531.834 299.472 531.834C298.983 531.834 298.477 531.687 298.069 531.295C297.433 530.708 297.074 529.697 297.074 528.278ZM311.671 530.056V526.32C311.671 525.488 311.377 524.983 310.985 524.689C310.643 524.461 310.235 524.314 309.681 524.314C309.077 524.314 308.506 524.493 308.098 524.771C307.69 524.999 307.266 525.391 306.973 525.994H306.875C306.891 525.717 306.907 524.836 306.907 524.608C306.907 524.526 306.875 524.51 306.793 524.51H304.803V524.803C305.064 524.836 305.325 524.917 305.521 525.032C305.684 525.13 305.782 525.26 305.831 525.472C305.88 525.684 305.88 526.141 305.88 526.532V529.893C305.88 530.284 305.88 530.741 305.847 530.953C305.766 531.361 305.586 531.524 305.211 531.671C305.097 531.72 304.885 531.768 304.738 531.785V532.095H308.033V531.785C307.87 531.768 307.707 531.72 307.56 531.671C307.201 531.524 307.054 531.328 306.989 531.034C306.924 530.773 306.924 530.333 306.924 529.974V527.837C306.924 527.152 307.005 526.679 307.25 526.173C307.609 525.391 308.392 524.983 309.207 524.983C309.681 524.983 310.007 525.113 310.235 525.358C310.496 525.635 310.627 526.01 310.627 526.679V529.974C310.627 530.333 310.627 530.757 310.545 531.051C310.447 531.377 310.349 531.54 310.023 531.671C309.893 531.72 309.681 531.768 309.517 531.785V532.095H312.747V531.785C312.6 531.768 312.388 531.72 312.274 531.671C311.915 531.508 311.801 531.312 311.736 531.002C311.687 530.773 311.671 530.398 311.671 530.056Z" fill="black"/>
<path d="M43.0917 306.239L42.7923 306.319C42.8273 306.512 42.8495 306.658 42.8444 306.829C42.8301 307.153 42.7674 307.423 42.5018 307.63C42.1071 307.921 41.4107 308.159 40.3866 308.433L35.9276 309.628C34.9034 309.902 34.2332 310.048 33.7257 309.981C33.404 309.915 33.2273 309.76 33.0326 309.475C32.9473 309.345 32.8694 309.181 32.803 308.996L32.4878 309.08L33.6995 313.602C33.9739 314.626 34.4867 315.468 35.0148 316.053C36.1668 317.264 37.9603 318.033 40.3868 317.383C42.766 316.746 43.9903 315.202 44.3697 313.53C44.5548 312.771 44.5862 311.817 44.2443 310.54L43.0917 306.239ZM40.0502 316.19C38.0964 316.713 36.6786 316.401 35.6386 315.734C34.8268 315.225 34.3425 314.426 34.0892 313.481L33.9288 312.882C33.7894 312.362 33.7596 311.999 33.898 311.759C34.1129 311.364 34.5971 311.217 35.3377 311.019L42.4279 309.119C42.7431 309.034 43.0424 308.954 43.2307 309.089C43.3747 309.186 43.4926 309.374 43.6109 309.815L43.8304 310.634C44.0964 311.627 44.128 312.564 43.7822 313.417C43.2719 314.601 42.0512 315.654 40.0502 316.19ZM45.1346 319.598C45.2444 320.008 45.6282 320.243 46.0536 320.129C46.4633 320.019 46.7139 319.631 46.5999 319.206C46.4944 318.812 46.0991 318.597 45.6736 318.711C45.2482 318.825 45.0291 319.204 45.1346 319.598ZM41.9094 320.986C42.5397 320.817 42.9893 320.73 43.3244 320.658C43.4032 320.636 43.422 320.581 43.4051 320.518L42.8816 318.564L42.598 318.64C42.6436 318.999 42.6271 319.189 42.559 319.377C42.4909 319.564 42.3975 319.656 42.2096 319.774C42.0489 319.868 41.4544 320.044 41.2023 320.112L37.5469 321.091C37.279 321.163 37.0584 321.222 36.7895 321.226C36.5205 321.231 36.3007 321.104 36.1071 320.886C36.0145 320.792 35.9082 320.584 35.8544 320.447L35.555 320.527L36.3783 323.6L36.6777 323.519C36.6512 323.358 36.6551 323.12 36.6728 322.997C36.724 322.747 36.7952 322.508 37.0892 322.345C37.2814 322.243 37.5765 322.147 37.8129 322.084L41.9094 320.986ZM40.1876 329.686C41.4008 329.361 41.6044 328.293 41.7982 326.873C41.973 325.509 42.1519 324.853 43.0343 324.617C43.7275 324.431 44.3322 324.86 44.5391 325.632C44.6658 326.105 44.6326 326.485 44.4953 326.792C44.3015 327.266 43.8606 327.638 43.2895 328.027L43.3655 328.311L45.4084 327.679L45.3535 327.474L44.8164 327.297L44.7911 327.203C44.9829 326.847 45.1599 326.31 44.9445 325.507C44.5899 324.183 43.5153 323.576 42.5069 323.846C41.1204 324.218 40.9545 325.174 40.768 326.558C40.5566 328.101 40.3935 328.753 39.4638 329.002C38.5815 329.238 38.0229 328.729 37.7865 327.847C37.4825 326.712 38.1569 325.637 39.4894 324.874L39.4007 324.543L36.8294 325.283L36.9054 325.567L37.6001 325.701L37.6296 325.812C37.2794 326.395 37.2026 327.243 37.3884 327.937C37.7177 329.165 38.6907 330.087 40.1876 329.686ZM40.6057 335.469C40.1389 335.239 39.82 334.869 39.6892 334.38C39.4823 333.608 39.7656 333.279 40.4116 333.106L45.9147 331.648L46.4467 333.633L46.8878 333.515L46.3559 331.53L48.8769 330.855L48.8093 330.602C46.6805 330.599 46.0097 330.238 45.6315 329.394L45.3636 329.465C45.4058 329.623 45.618 330.478 45.6687 330.667C45.4281 330.715 40.2601 332.099 40.1656 332.125C39.5354 332.294 39.2813 332.48 39.1283 332.791C38.926 333.234 38.917 333.641 39.0732 334.224C39.2463 334.87 39.703 335.44 40.4473 335.697L40.6057 335.469ZM46.2271 337.604L46.2017 337.509C46.1387 337.526 47.79 337.134 47.7585 337.143C47.8058 337.13 47.8446 337.086 47.8235 337.007L47.3084 335.085L47.0248 335.161C47.0409 335.41 47.0569 335.659 46.9858 335.898C46.9292 336.065 46.8054 336.233 46.629 336.331C46.4526 336.429 45.8854 336.581 45.6176 336.653L42.23 337.56C41.9149 337.645 41.5682 337.738 41.2835 337.746C40.9115 337.745 40.7359 337.657 40.5224 337.427C40.4329 337.282 40.3307 337.09 40.277 336.952L39.9776 337.032L40.822 340.184L41.1213 340.103C41.0907 339.926 41.0757 339.744 41.0923 339.554C41.1047 339.348 41.2327 339.195 41.4279 339.042C41.662 338.844 41.9445 338.701 42.559 338.536L44.1976 338.097C44.6073 337.987 45.0999 337.872 45.1987 337.863C46.4499 337.679 47.6421 338.221 47.7772 338.725C47.8279 338.914 47.8071 339.089 47.6276 339.238C47.3735 339.424 47.1552 339.618 47.2565 339.996C47.3705 340.422 47.7236 340.479 48.023 340.399C48.3224 340.319 48.4819 340.158 48.5626 340.018C48.6695 339.786 48.6923 339.493 48.6163 339.21C48.4727 338.674 48.1508 338.355 47.8385 338.135C47.4463 337.868 47.0121 337.697 46.2271 337.604ZM51.2232 342.321C51.333 342.731 51.7168 342.966 52.1422 342.852C52.5518 342.742 52.8025 342.354 52.6885 341.929C52.583 341.535 52.1876 341.32 51.7622 341.434C51.3368 341.548 51.1176 341.927 51.2232 342.321ZM47.998 343.709C48.6283 343.54 49.0779 343.453 49.413 343.38C49.4918 343.359 49.5106 343.304 49.4937 343.241L48.9702 341.287L48.6866 341.363C48.7322 341.722 48.7156 341.912 48.6476 342.099C48.5795 342.287 48.4861 342.379 48.2981 342.497C48.1375 342.591 47.543 342.767 47.2909 342.834L43.6355 343.814C43.3676 343.886 43.147 343.945 42.878 343.949C42.609 343.954 42.3893 343.827 42.1957 343.609C42.1031 343.515 41.9967 343.307 41.943 343.17L41.6436 343.25L42.4669 346.322L42.7662 346.242C42.7398 346.08 42.7437 345.843 42.7614 345.72C42.8126 345.47 42.8838 345.231 43.1778 345.068C43.3699 344.966 43.6651 344.87 43.9014 344.807L47.998 343.709ZM54.5416 346.513L53.9843 344.433L53.7007 344.509C53.7609 344.797 53.8096 345.104 53.707 345.351C53.6462 345.503 53.5455 345.631 53.3891 345.741C53.2599 345.826 52.9648 345.922 52.7127 345.989L44.551 348.176C44.1256 348.29 43.5542 348.426 43.0258 348.534L43.1102 348.849L44.2486 349.254L44.2866 349.395C43.7819 349.97 43.5445 350.911 43.7641 351.731C44.1229 353.07 45.6433 354.774 48.4636 354.018C51.3312 353.25 51.8775 351.381 51.4891 349.931C51.2231 348.938 50.5309 348.246 49.4473 348.046L49.422 347.952L52.4314 347.145C53.2822 346.917 54.0397 346.782 54.4651 346.668C54.5439 346.647 54.5585 346.576 54.5416 346.513ZM50.9669 349.936C51.2962 351.165 50.6218 352.241 48.1481 352.903C46.1156 353.448 44.5694 353.035 44.1852 351.601C44.0248 351.002 44.0535 350.353 44.4406 349.844C44.8392 349.315 45.3727 349.037 46.3653 348.771L47.9567 348.344C48.9966 348.066 49.5591 348.337 49.9302 348.525C50.5053 348.844 50.8022 349.321 50.9669 349.936ZM48.8513 362.586L52.2546 361.674C53.1212 361.442 53.6968 361.322 54.1853 361.191C54.2798 361.166 54.2871 361.13 54.266 361.051L53.7298 359.05L53.4462 359.126C53.498 359.382 53.511 359.683 53.4356 359.906C53.356 360.113 53.2395 360.245 53.0316 360.352C52.851 360.434 52.394 360.556 52.1577 360.62L49.9991 361.198C49.5107 361.329 49.018 361.444 48.603 361.471C48.065 361.48 47.5994 361.317 47.2229 361.047C46.8706 360.803 46.6232 360.448 46.5135 360.038C46.3868 359.565 46.4 359.173 46.6118 358.829C46.8383 358.414 47.2499 358.186 47.9432 358L51.0786 357.16C51.8192 356.961 52.4852 356.8 52.982 356.7C53.0766 356.675 53.0797 356.624 53.0628 356.561L52.5224 354.544L52.2388 354.62C52.299 354.908 52.3193 355.172 52.2554 355.375C52.2104 355.522 52.1297 355.662 51.9102 355.789C51.7496 355.882 51.4229 355.987 51.0763 356.08L47.5784 357.017C46.7276 357.245 46.3844 357.539 46.1483 357.856C45.6847 358.521 45.7602 359.243 45.9122 359.811C46.081 360.441 46.4167 360.874 46.7859 361.181C47.1025 361.417 47.3779 361.563 48.0054 361.698L48.0307 361.793L46.849 362.11C46.7545 362.135 46.7199 362.195 46.7368 362.258L47.2518 364.18L47.5512 364.1C47.5163 363.907 47.4803 363.646 47.5168 363.467C47.5669 363.15 47.7464 363.001 48.0288 362.857C48.2683 362.743 48.5676 362.662 48.8513 362.586ZM49.7284 369.515C49.2616 369.286 48.9428 368.915 48.8119 368.427C48.6051 367.655 48.8884 367.326 49.5344 367.153L55.0375 365.695L55.5694 367.68L56.0106 367.562L55.4787 365.577L57.9996 364.901L57.9321 364.649C55.8033 364.645 55.1325 364.285 54.7542 363.44L54.4864 363.512C54.5286 363.67 54.7408 364.525 54.7915 364.714C54.5509 364.761 49.3829 366.146 49.2884 366.171C48.6581 366.34 48.4041 366.527 48.251 366.838C48.0488 367.28 48.0398 367.688 48.196 368.271C48.3691 368.917 48.8258 369.487 49.5701 369.744L49.7284 369.515ZM58.7053 370.245C58.8151 370.655 59.1989 370.889 59.6243 370.775C60.034 370.666 60.2846 370.278 60.1706 369.852C60.0651 369.458 59.6697 369.243 59.2443 369.357C58.8189 369.471 58.5998 369.851 58.7053 370.245ZM55.4801 371.633C56.1104 371.464 56.56 371.377 56.8951 371.304C56.9739 371.283 56.9927 371.227 56.9758 371.164L56.4523 369.21L56.1687 369.286C56.2143 369.646 56.1977 369.836 56.1297 370.023C56.0616 370.21 55.9682 370.303 55.7802 370.421C55.6196 370.514 55.0251 370.691 54.773 370.758L51.1176 371.738C50.8497 371.809 50.6291 371.868 50.3601 371.873C50.0912 371.878 49.8714 371.751 49.6778 371.532C49.5852 371.439 49.4788 371.231 49.4251 371.093L49.1257 371.174L49.949 374.246L50.2484 374.166C50.2219 374.004 50.2258 373.767 50.2435 373.644C50.2947 373.393 50.3659 373.155 50.6599 372.992C50.8521 372.89 51.1472 372.794 51.3835 372.73L55.4801 371.633ZM54.0701 374.879C51.6752 375.52 50.6889 377.575 51.1617 379.339C51.6346 381.104 53.5317 382.386 55.9266 381.744C58.3058 381.106 59.292 379.052 58.8192 377.287C58.3421 375.507 56.465 374.237 54.0701 374.879ZM54.3699 375.997C55.7721 375.621 56.8262 375.711 57.5622 376.189C58.0102 376.474 58.3029 376.936 58.4253 377.393C58.5435 377.834 58.5368 378.376 58.2757 378.852C57.8616 379.638 56.9934 380.242 55.6069 380.614C54.2361 380.981 53.1621 380.88 52.4145 380.422C51.9507 380.141 51.6781 379.691 51.5556 379.234C51.429 378.761 51.4399 378.235 51.7125 377.739C52.1151 376.973 52.9991 376.365 54.3699 375.997ZM56.4302 390.556L60.0384 389.589C60.8419 389.374 61.2544 388.96 61.4367 388.506C61.5686 388.116 61.6049 387.684 61.4613 387.148C61.3051 386.565 60.984 386.06 60.6106 385.738C60.2845 385.403 59.7966 385.095 59.1376 384.967L59.1123 384.873C59.3844 384.817 60.2394 384.605 60.46 384.545C60.5388 384.524 60.5461 384.489 60.525 384.41L60.0099 382.488L59.7263 382.564C59.7623 382.824 59.7511 383.097 59.6915 383.316C59.6392 383.499 59.5384 383.627 59.3463 383.729C59.1541 383.831 58.7129 383.95 58.3348 384.051L55.089 384.921C54.7109 385.022 54.2697 385.14 54.0564 385.164C53.6414 385.19 53.4374 385.059 53.1985 384.735C53.1217 384.637 53.0195 384.445 52.9658 384.307L52.6664 384.388L53.5192 387.57L53.8186 387.49C53.7921 387.328 53.7972 387.158 53.8065 387.004C53.8554 386.619 54.0065 386.427 54.2732 386.288C54.5084 386.157 54.9338 386.043 55.2804 385.95L57.3445 385.397C58.0063 385.22 58.4843 385.176 59.0361 385.282C59.8852 385.426 60.4818 386.076 60.6929 386.864C60.8153 387.321 60.7737 387.67 60.5965 387.954C60.3962 388.278 60.0675 388.501 59.4215 388.674L56.2388 389.527C55.8922 389.62 55.4825 389.729 55.1778 389.727C54.8373 389.717 54.6544 389.664 54.444 389.383C54.3629 389.27 54.2608 389.077 54.2028 388.924L53.9034 389.004L54.7393 392.124L55.0387 392.044C55.0165 391.898 55.0089 391.68 55.0266 391.557C55.0913 391.168 55.2508 391.007 55.5333 390.864C55.7412 390.758 56.0993 390.645 56.4302 390.556Z" fill="black"/>
<path d="M478.155 394.152L478.035 394.42C478.389 394.828 478.793 395.205 479.057 396.054C479.201 396.493 479.295 397.125 478.83 398.168L478.459 399.002C478.299 399.36 478.054 399.75 477.812 399.892C477.306 400.185 476.561 399.853 475.921 399.568L473.194 398.353L473.712 397.191C473.997 396.55 474.248 396.269 474.577 396.13C475.006 395.928 475.604 396.07 476.02 396.219L476.146 395.936L472.644 394.376L472.518 394.659C472.892 394.861 473.389 395.19 473.534 395.665C473.666 396.01 473.616 396.362 473.324 397.018L472.807 398.18L470.154 396.999C469.692 396.793 469.072 396.463 468.918 395.966C468.842 395.735 468.945 395.424 469.038 395.215L469.536 394.098C469.855 393.383 470.355 392.981 470.584 392.868C471.175 392.543 471.758 392.517 472.525 392.519L472.658 392.221L470.184 391.601L467.124 398.47L467.407 398.596C467.501 398.424 467.583 398.281 467.687 398.167C467.918 397.931 468.138 397.797 468.487 397.774C468.993 397.802 469.638 398.037 470.607 398.468L474.824 400.347C475.792 400.778 476.434 401.1 476.765 401.48C476.959 401.727 476.992 401.974 476.963 402.318C476.955 402.457 476.918 402.619 476.853 402.805L477.151 402.938L480.398 395.652L478.155 394.152ZM482.246 386.494L478.833 384.974C478.074 384.635 477.492 384.698 477.065 384.936C476.717 385.156 476.417 385.469 476.191 385.975C475.945 386.527 475.877 387.121 475.964 387.606C476.007 388.072 476.192 388.619 476.624 389.132L476.584 389.222C476.337 389.094 475.539 388.721 475.33 388.628C475.256 388.595 475.228 388.618 475.195 388.692L474.385 390.51L474.653 390.629C474.789 390.404 474.97 390.199 475.154 390.067C475.309 389.958 475.468 389.921 475.682 389.963C475.896 390.005 476.313 390.19 476.67 390.35L479.74 391.717C480.097 391.877 480.515 392.063 480.695 392.179C481.034 392.419 481.11 392.649 481.092 393.052C481.09 393.176 481.048 393.39 481.004 393.53L481.287 393.657L482.628 390.647L482.345 390.521C482.263 390.663 482.152 390.792 482.048 390.906C481.768 391.174 481.529 391.229 481.234 391.169C480.969 391.122 480.567 390.943 480.239 390.797L478.287 389.927C477.662 389.648 477.263 389.381 476.9 388.952C476.331 388.306 476.277 387.424 476.609 386.679C476.802 386.247 477.054 386.003 477.37 385.893C477.73 385.768 478.125 385.801 478.736 386.074L481.746 387.415C482.074 387.561 482.461 387.733 482.696 387.927C482.955 388.149 483.064 388.305 483.05 388.656C483.042 388.795 483 389.009 482.949 389.165L483.232 389.291L484.546 386.341L484.263 386.215C484.188 386.342 484.057 386.516 483.966 386.6C483.671 386.862 483.446 386.886 483.136 386.82C482.908 386.771 482.558 386.634 482.246 386.494ZM484.891 378.674C486.172 379.245 486.857 380.353 486.339 381.515C485.808 382.707 484.52 383.312 482.196 382.277C479.931 381.268 479.384 379.81 479.922 378.603C480.168 378.052 480.461 377.754 480.905 377.559C481.422 377.36 482.015 377.392 482.864 377.771L484.891 378.674ZM488.331 377.885L488.048 377.759C487.974 377.887 487.823 378.105 487.688 378.206C487.456 378.406 487.224 378.446 486.936 378.371C486.693 378.316 486.395 378.183 486.127 378.064L479.615 375.163C478.796 374.797 477.885 374.356 477.415 374.129C477.326 374.089 477.289 374.091 477.256 374.165L476.38 376.132L476.648 376.251C476.769 376.02 476.905 375.794 477.096 375.647C477.258 375.523 477.409 375.465 477.667 375.527C477.926 375.588 478.699 375.897 479.131 376.09L481.262 377.039L481.235 377.099C480.66 377.146 479.994 377.439 479.543 378.452C478.866 379.972 479.154 382.171 481.716 383.313C484.115 384.382 485.994 383.451 486.645 381.991C487.116 380.933 486.874 379.914 486.283 379.276L486.323 379.187L487.008 379.492C487.157 379.559 487.336 379.638 487.447 379.67C487.513 379.681 487.556 379.665 487.589 379.59C487.623 379.516 488.272 378.019 488.331 377.885ZM487.084 371.267C489.348 372.276 491.408 371.301 492.151 369.632C492.895 367.963 492.228 365.773 489.963 364.764C487.713 363.761 485.654 364.737 484.91 366.405C484.16 368.089 484.819 370.258 487.084 371.267ZM487.555 370.209C486.229 369.618 485.466 368.885 485.195 368.05C485.027 367.547 485.09 367.004 485.283 366.571C485.468 366.154 485.815 365.737 486.317 365.532C487.134 365.182 488.189 365.259 489.5 365.843C490.796 366.421 491.567 367.175 491.86 368.002C492.043 368.512 491.971 369.034 491.779 369.466C491.58 369.913 491.24 370.315 490.716 370.528C489.921 370.87 488.851 370.787 487.555 370.209ZM495.501 361.752L495.218 361.626C495.144 361.754 495.014 361.964 494.91 362.078C494.638 362.368 494.39 362.364 494.043 362.299C493.793 362.259 493.414 362.108 493.161 361.995L488.512 359.924L489.329 358.091L488.912 357.905L488.095 359.738L486.56 359.054C486.024 358.815 485.65 358.613 485.387 358.281C485.124 357.95 485.02 357.582 485.199 357.18C485.325 356.897 485.458 356.759 485.608 356.702C485.744 356.637 485.877 356.66 486.15 356.729C486.402 356.805 486.564 356.842 486.723 356.805C486.925 356.753 487.068 356.673 487.181 356.42C487.32 356.107 487.183 355.814 486.84 355.661C486.438 355.482 486.034 355.587 485.672 355.837C485.346 356.049 485.097 356.367 484.878 356.858C484.632 357.41 484.585 357.996 484.84 358.627C485.076 359.179 485.525 359.736 486.693 360.239L487.677 360.677L487.225 361.69L487.643 361.876L488.094 360.863L492.743 362.934C493.041 363.067 493.294 363.18 493.557 363.35C493.873 363.563 493.987 363.828 493.979 364.128C493.972 364.303 493.916 364.51 493.877 364.636L494.16 364.762L495.501 361.752ZM497.933 356.294L501.16 349.052L498.669 347.389L498.529 347.702C499.026 348.191 499.461 348.617 499.732 349.452C499.909 349.977 500.037 350.57 499.566 351.628L499.194 352.462C498.975 352.954 498.663 353.333 498.161 353.377C497.863 353.405 497.522 353.289 497.001 353.057L491.652 350.673C490.773 350.282 490.279 350.026 489.942 349.662C489.703 349.395 489.662 349.126 489.694 348.855C489.716 348.686 489.759 348.509 489.817 348.338L489.519 348.205L487.906 351.826L488.204 351.959C488.292 351.802 488.38 351.644 488.484 351.53C488.706 351.272 488.92 351.153 489.278 351.152C489.753 351.167 490.295 351.355 491.174 351.746L495.807 353.811C496.672 354.196 497.173 354.473 497.494 354.795C497.733 355.061 497.789 355.336 497.745 355.674C497.722 355.807 497.685 355.969 497.621 356.154L497.933 356.294ZM493.99 341.819C494.162 341.431 494.012 341.007 493.61 340.828C493.222 340.655 492.783 340.799 492.604 341.201C492.438 341.574 492.61 341.99 493.012 342.169C493.414 342.348 493.824 342.191 493.99 341.819ZM497.369 342.771C496.773 342.505 496.369 342.29 496.063 342.135C495.988 342.102 495.939 342.134 495.912 342.193L495.089 344.041L495.357 344.16C495.548 343.852 495.681 343.715 495.851 343.613C496.022 343.51 496.153 343.497 496.373 343.524C496.557 343.552 497.13 343.789 497.368 343.895L500.825 345.436C501.078 345.548 501.287 345.641 501.499 345.807C501.71 345.973 501.801 346.21 501.814 346.501C501.827 346.632 501.779 346.861 501.734 347.002L502.017 347.128L503.312 344.222L503.029 344.096C502.948 344.238 502.795 344.421 502.704 344.505C502.507 344.667 502.301 344.808 501.97 344.749C501.756 344.708 501.467 344.597 501.243 344.497L497.369 342.771ZM505.296 339.77L505.013 339.643C504.938 339.771 504.809 339.981 504.704 340.095C504.432 340.385 504.184 340.381 503.838 340.316C503.588 340.276 503.209 340.125 502.955 340.012L498.307 337.941L499.123 336.109L498.706 335.923L497.889 337.755L496.355 337.072C495.818 336.833 495.444 336.63 495.181 336.299C494.918 335.967 494.814 335.599 494.993 335.197C495.119 334.914 495.252 334.777 495.403 334.719C495.539 334.654 495.671 334.678 495.944 334.746C496.196 334.822 496.358 334.859 496.517 334.823C496.72 334.77 496.862 334.69 496.975 334.437C497.114 334.124 496.977 333.831 496.634 333.678C496.232 333.499 495.828 333.605 495.467 333.854C495.14 334.066 494.891 334.384 494.672 334.876C494.427 335.427 494.38 336.013 494.634 336.644C494.871 337.196 495.319 337.753 496.488 338.256L497.471 338.694L497.02 339.707L497.437 339.893L497.888 338.88L502.537 340.951C502.835 341.084 503.088 341.197 503.352 341.368C503.668 341.58 503.782 341.845 503.773 342.145C503.766 342.32 503.71 342.527 503.672 342.653L503.955 342.779L505.296 339.77ZM500.714 333.099C500.584 332.63 500.629 332.168 500.815 331.751C501.04 331.244 501.327 330.962 501.692 330.785C502.099 330.591 502.545 330.593 503.215 330.892C503.871 331.184 503.945 331.378 503.739 331.84L502.385 334.879C501.432 334.294 500.869 333.633 500.714 333.099ZM506.716 331.13L506.451 331.405C507.265 332.143 507.804 333.097 507.233 334.379C506.961 334.99 506.535 335.425 505.96 335.633C505.183 335.894 504.079 335.688 503.17 335.283C503.021 335.216 502.887 335.157 502.759 335.082L504.844 330.403C504.663 330.287 504.357 330.133 504.104 330.02C503.031 329.542 501.277 329.671 500.421 331.593C499.657 333.307 500.606 335.426 502.662 336.342C503.72 336.814 504.821 336.947 505.848 336.565C506.654 336.281 507.27 335.699 507.669 334.805C508.253 333.494 507.901 332.158 506.716 331.13ZM487.955 400.858L486.86 403.317L493.92 410.355L493.874 410.46L483.939 409.873L482.757 412.525L483.055 412.658C483.15 412.485 483.257 412.283 483.39 412.146C483.586 411.948 483.798 411.792 484.141 411.784C484.565 411.794 485.017 411.942 485.866 412.321L491.245 414.717C491.99 415.049 492.271 415.299 492.445 415.591C492.61 415.861 492.641 416.072 492.603 416.358C492.588 416.512 492.545 416.689 492.473 416.89L492.771 417.022L494.165 413.893L493.867 413.761C493.738 413.971 493.649 414.092 493.531 414.236C493.357 414.426 493.164 414.537 492.875 414.586C492.563 414.644 492.196 414.587 491.451 414.255L484.746 411.268L484.799 411.149L495.236 411.692L495.448 411.215L488.088 403.846L488.135 403.742L494.035 406.371C495.003 406.802 495.616 407.111 495.962 407.497C496.192 407.742 496.241 408.032 496.196 408.334C496.173 408.466 496.11 408.688 496.052 408.859L496.35 408.991L497.983 405.326L497.685 405.193C497.597 405.35 497.494 405.501 497.418 405.592C497.195 405.85 496.962 406.014 496.626 406.007C496.129 406 495.481 405.729 494.513 405.298L490.311 403.426C489.268 402.961 488.709 402.694 488.371 402.329C488.154 402.054 488.113 401.786 488.123 401.522C488.138 401.368 488.195 401.161 488.253 400.991L487.955 400.858ZM501.084 397.965L500.791 397.942C500.805 398.109 500.757 398.337 500.697 398.471C500.618 398.65 500.498 398.758 500.339 398.794C500.122 398.84 499.834 398.765 499.119 398.447L494.977 396.601C493.949 396.143 493.203 396.936 492.751 397.949C492.413 398.709 492.357 399.756 492.598 400.256C492.698 400.514 492.881 400.703 493.12 400.81C493.447 400.956 493.741 400.819 493.854 400.565C494.006 400.223 493.937 399.977 493.525 399.74C493.157 399.523 492.977 399.246 492.941 398.926C492.943 398.642 492.996 398.362 493.122 398.079C493.434 397.378 493.843 397.221 494.603 397.56L495.721 398.058C496.009 398.293 496.225 398.89 496.14 399.762C496.071 400.678 495.908 401.284 496.169 402.061C496.351 402.535 496.723 402.862 497.096 403.028C498.228 403.532 499.163 403.038 499.634 401.98C500.086 400.967 499.729 400.165 499.411 399.756L499.457 399.651C499.986 399.869 500.269 399.834 500.517 399.677C500.652 399.576 500.769 399.432 500.882 399.179C501.075 398.747 501.132 398.218 501.084 397.965ZM496.332 398.33L498.656 399.366C499.406 399.807 499.544 400.779 499.265 401.405C498.96 402.09 498.362 402.431 497.512 402.053C497.051 401.847 496.797 401.573 496.659 401.244C496.528 400.935 496.515 400.483 496.531 399.847C496.536 399.314 496.509 398.694 496.332 398.33ZM502.708 389.71L499.296 388.19C498.536 387.851 497.955 387.914 497.527 388.152C497.179 388.372 496.879 388.684 496.653 389.191C496.408 389.742 496.339 390.337 496.427 390.822C496.469 391.288 496.654 391.834 497.086 392.348L497.046 392.438C496.8 392.31 496.002 391.936 495.793 391.844C495.719 391.81 495.69 391.833 495.657 391.908L494.847 393.726L495.115 393.845C495.251 393.62 495.432 393.415 495.616 393.283C495.772 393.173 495.931 393.137 496.145 393.179C496.358 393.22 496.775 393.406 497.133 393.566L500.202 394.933C500.56 395.092 500.977 395.278 501.158 395.394C501.497 395.635 501.573 395.865 501.554 396.268C501.552 396.392 501.511 396.605 501.466 396.746L501.749 396.872L503.09 393.863L502.807 393.736C502.726 393.879 502.615 394.008 502.51 394.122C502.23 394.39 501.992 394.445 501.697 394.385C501.432 394.338 501.03 394.159 500.702 394.013L498.75 393.143C498.124 392.864 497.725 392.597 497.363 392.168C496.794 391.521 496.74 390.64 497.072 389.895C497.264 389.463 497.516 389.218 497.833 389.109C498.192 388.984 498.588 389.017 499.199 389.289L502.209 390.63C502.536 390.777 502.924 390.949 503.159 391.143C503.417 391.365 503.526 391.521 503.513 391.872C503.504 392.011 503.463 392.225 503.411 392.381L503.694 392.507L505.009 389.556L504.726 389.43C504.651 389.558 504.52 389.732 504.429 389.816C504.134 390.077 503.908 390.102 503.599 390.035C503.37 389.987 503.021 389.849 502.708 389.71ZM508.046 382.339L507.753 382.316C507.767 382.483 507.719 382.712 507.659 382.846C507.58 383.024 507.46 383.132 507.301 383.168C507.084 383.214 506.796 383.14 506.081 382.821L501.939 380.975C500.911 380.517 500.165 381.31 499.713 382.323C499.375 383.083 499.319 384.13 499.56 384.63C499.66 384.889 499.843 385.078 500.082 385.184C500.409 385.33 500.703 385.193 500.816 384.939C500.968 384.597 500.899 384.352 500.487 384.114C500.119 383.897 499.939 383.62 499.903 383.301C499.905 383.016 499.958 382.736 500.084 382.453C500.396 381.752 500.805 381.596 501.565 381.934L502.683 382.432C502.971 382.667 503.187 383.264 503.102 384.137C503.033 385.052 502.87 385.658 503.131 386.435C503.313 386.909 503.685 387.236 504.058 387.402C505.19 387.906 506.125 387.412 506.596 386.354C507.048 385.341 506.691 384.539 506.373 384.13L506.419 384.025C506.948 384.243 507.231 384.208 507.479 384.051C507.614 383.95 507.731 383.806 507.844 383.553C508.037 383.121 508.094 382.593 508.046 382.339ZM503.294 382.704L505.618 383.74C506.368 384.181 506.506 385.153 506.227 385.779C505.922 386.465 505.324 386.805 504.474 386.427C504.013 386.221 503.759 385.947 503.621 385.618C503.49 385.31 503.477 384.857 503.493 384.221C503.498 383.688 503.471 383.069 503.294 382.704ZM504.618 377.728C503.202 377.098 502.862 376.178 503.254 375.299C503.639 374.435 504.563 374.043 505.979 374.674C507.409 375.311 507.73 376.275 507.338 377.154C506.953 378.019 506.048 378.366 504.618 377.728ZM512.225 375.243C510.706 374.566 510.018 375.348 509.473 376.57C509.241 377.092 508.766 378.398 508.547 378.89C508.301 379.441 507.938 379.654 507.536 379.475C507.03 379.249 507.12 378.486 507.352 377.964C507.45 377.704 507.614 377.456 507.687 377.292C508.212 376.115 507.986 374.336 506.437 373.646C506.273 373.573 506.081 373.523 505.919 373.486C505.705 373.445 505.476 373.396 505.298 373.317C504.955 373.164 504.73 372.867 504.823 372.659C504.916 372.45 505.1 372.479 505.317 372.432C505.512 372.394 505.66 372.264 505.733 372.1C505.846 371.847 505.773 371.528 505.43 371.376C504.998 371.183 504.596 371.325 504.403 371.757C504.177 372.264 504.319 372.988 504.922 373.399L504.882 373.489C503.956 373.683 503.263 374.357 502.918 375.131C502.373 376.353 502.661 378.071 504.166 378.742C505.165 379.186 506.139 378.924 506.83 378.375L506.919 378.414C506.765 379.042 506.832 379.893 507.577 380.225C508.218 380.511 508.875 380.197 509.263 379.566L509.338 379.599C509.012 380.811 509.245 381.772 510.02 382.117C511.107 382.602 512.188 381.78 513.064 379.813C513.755 378.263 513.954 376.013 512.225 375.243ZM512.177 376.114C513.518 376.711 513.303 378.276 512.732 379.558C512.081 381.018 511.347 381.584 510.438 381.179C509.171 380.614 509.622 379.243 509.867 378.531C510.057 378.027 510.266 377.477 510.467 377.066C510.838 376.232 511.238 375.696 512.177 376.114ZM506.793 368.598C506.662 368.129 506.708 367.667 506.893 367.25C507.119 366.743 507.406 366.46 507.77 366.284C508.178 366.09 508.624 366.092 509.294 366.391C509.95 366.683 510.024 366.877 509.818 367.339L508.464 370.378C507.511 369.793 506.948 369.132 506.793 368.598ZM512.795 366.629L512.53 366.904C513.344 367.642 513.883 368.596 513.312 369.878C513.04 370.489 512.614 370.924 512.039 371.132C511.262 371.393 510.158 371.187 509.249 370.782C509.1 370.715 508.966 370.655 508.838 370.581L510.923 365.902C510.742 365.786 510.436 365.632 510.183 365.519C509.11 365.041 507.356 365.17 506.499 367.092C505.736 368.806 506.685 370.925 508.741 371.841C509.799 372.312 510.9 372.446 511.927 372.064C512.732 371.78 513.349 371.198 513.747 370.304C514.332 368.993 513.98 367.657 512.795 366.629ZM516.563 362.863C516.428 363.125 516.274 363.27 516.097 363.388C515.891 363.528 515.696 363.566 515.446 363.526C515.181 363.48 514.772 363.315 514.444 363.169L512.552 362.326C511.926 362.047 511.467 361.754 511.141 361.323C510.581 360.698 510.388 359.969 510.733 359.194C510.952 358.702 511.212 358.479 511.618 358.41C511.972 358.336 512.378 358.427 512.855 358.64L515.865 359.981C516.192 360.127 516.603 360.327 516.823 360.515C517.035 360.681 517.131 360.866 517.157 361.128C517.172 361.295 517.145 361.515 517.06 361.746L517.344 361.872L518.671 358.892L518.403 358.772C518.28 358.968 518.134 359.135 518.022 359.227C517.781 359.406 517.578 359.422 517.27 359.392C516.998 359.361 516.64 359.201 516.328 359.062L514.42 358.212C513.765 357.92 513.291 357.62 512.99 357.254C512.383 356.572 512.24 355.812 512.572 355.067C512.764 354.635 513.003 354.42 513.349 354.324C513.732 354.227 514.152 354.325 514.659 354.55L517.684 355.898C518.011 356.044 518.384 356.21 518.626 356.389C518.837 356.555 518.955 356.732 518.968 357.024C518.983 357.191 518.956 357.411 518.886 357.648L519.169 357.774L520.49 354.809L520.222 354.69C520.141 354.832 520.01 355.006 519.897 355.098C519.637 355.322 519.426 355.353 519.074 355.303C518.824 355.263 518.496 355.117 518.183 354.978L514.801 353.471C514.041 353.132 513.516 353.148 513.058 353.373C512.702 353.571 512.407 353.833 512.128 354.459C511.909 354.95 511.859 355.464 511.946 355.949C512.019 356.428 512.192 356.88 512.639 357.401L512.606 357.475C512.058 357.302 511.621 357.322 511.256 357.499C510.855 357.677 510.548 358.005 510.303 358.556C510.05 359.122 510.03 359.649 510.139 360.126C510.21 360.568 510.411 360.998 510.827 361.468L510.78 361.573C510.474 361.418 509.742 361.057 509.549 360.97C509.489 360.944 509.452 360.945 509.419 361.02L508.596 362.867L508.864 362.987C509.015 362.768 509.174 362.571 509.358 362.439C509.493 362.338 509.688 362.3 509.887 362.335C510.1 362.377 510.518 362.563 510.89 362.729L514.019 364.123C514.347 364.269 514.711 364.413 514.93 364.564C515.232 364.806 515.322 365.007 515.323 365.365C515.308 365.519 515.281 365.739 515.236 365.88L515.505 365.999L516.846 362.989L516.563 362.863ZM515.732 348.534C515.602 348.065 515.647 347.603 515.833 347.186C516.059 346.68 516.345 346.397 516.71 346.22C517.117 346.026 517.563 346.028 518.233 346.327C518.889 346.619 518.963 346.813 518.758 347.275L517.403 350.315C516.45 349.729 515.887 349.068 515.732 348.534ZM521.735 346.566L521.469 346.84C522.283 347.578 522.823 348.533 522.252 349.814C521.979 350.425 521.553 350.86 520.978 351.068C520.201 351.329 519.097 351.123 518.188 350.718C518.039 350.651 517.905 350.592 517.777 350.517L519.862 345.838C519.682 345.722 519.375 345.568 519.122 345.455C518.049 344.977 516.295 345.106 515.439 347.028C514.675 348.742 515.624 350.861 517.68 351.777C518.738 352.249 519.839 352.382 520.867 352.001C521.672 351.716 522.288 351.134 522.687 350.24C523.271 348.929 522.919 347.594 521.735 346.566ZM525.403 338.773L521.991 337.253C521.231 336.914 520.65 336.977 520.222 337.215C519.874 337.435 519.574 337.747 519.348 338.254C519.103 338.805 519.034 339.4 519.122 339.885C519.164 340.351 519.349 340.897 519.781 341.411L519.741 341.501C519.494 341.373 518.696 340.999 518.488 340.906C518.413 340.873 518.385 340.896 518.352 340.971L517.542 342.789L517.81 342.908C517.946 342.683 518.127 342.478 518.311 342.346C518.467 342.236 518.626 342.2 518.839 342.242C519.053 342.283 519.47 342.469 519.828 342.628L522.897 343.996C523.255 344.155 523.672 344.341 523.852 344.457C524.192 344.698 524.268 344.928 524.249 345.331C524.247 345.455 524.206 345.668 524.161 345.809L524.444 345.935L525.785 342.925L525.502 342.799C525.421 342.942 525.31 343.071 525.205 343.185C524.925 343.453 524.686 343.507 524.392 343.448C524.127 343.401 523.724 343.222 523.397 343.076L521.445 342.206C520.819 341.927 520.42 341.66 520.058 341.231C519.489 340.584 519.435 339.703 519.767 338.958C519.959 338.526 520.211 338.281 520.528 338.172C520.887 338.047 521.283 338.08 521.894 338.352L524.904 339.693C525.231 339.839 525.619 340.012 525.854 340.206C526.112 340.428 526.221 340.584 526.208 340.935C526.199 341.074 526.158 341.288 526.106 341.443L526.389 341.57L527.704 338.619L527.42 338.493C527.346 338.621 527.215 338.795 527.124 338.879C526.829 339.14 526.603 339.165 526.294 339.098C526.065 339.05 525.716 338.912 525.403 338.773ZM529.136 332.919C529.354 333.392 529.369 333.88 529.163 334.342C528.838 335.072 528.41 335.15 527.799 334.877L522.606 332.546L523.442 330.668L523.025 330.482L522.189 332.36L519.805 331.298L519.698 331.536C521.35 332.879 521.644 333.582 521.407 334.476L521.66 334.589C521.726 334.44 522.1 333.642 522.179 333.463C522.396 333.577 527.283 335.755 527.373 335.795C527.969 336.06 528.283 336.075 528.598 335.93C529.034 335.713 529.298 335.402 529.543 334.851C529.816 334.24 529.82 333.51 529.403 332.842L529.136 332.919Z" fill="black"/>
</svg>
