<svg width="277" height="280" viewBox="0 0 277 280" fill="none" xmlns="http://www.w3.org/2000/svg">
<rect width="277" height="279.015" fill="white"/>
<circle cx="138.5" cy="138.5" r="137.5" fill="white" stroke="black" stroke-width="0.499093"/>
<circle cx="138.5" cy="138.5" r="92.5" fill="white" stroke="black" stroke-width="0.499093"/>
<path d="M115.451 135.042C115.451 133.755 114.593 133.326 113.339 132.732C112.492 132.336 111.645 132.017 111.645 130.939C111.645 130.114 112.305 129.751 112.943 129.751C113.46 129.751 113.746 129.883 113.977 130.037C114.362 130.312 114.703 130.917 114.89 131.5H115.11L114.912 129.575H114.692L114.538 129.982H114.483C114.142 129.663 113.702 129.454 112.965 129.454C111.733 129.454 110.963 130.268 110.963 131.247C110.963 132.468 111.876 132.985 112.866 133.447C114.032 133.975 114.769 134.272 114.769 135.438C114.769 136.219 114.252 136.857 113.152 136.857C112.107 136.857 111.348 135.823 110.996 134.602H110.787L110.897 136.912H111.051L111.304 136.45H111.37C111.744 136.813 112.382 137.154 113.163 137.154C114.329 137.154 115.451 136.384 115.451 135.042ZM121.133 135.68V133.304C121.133 132.699 121.155 132.303 121.155 131.962C121.155 131.896 121.133 131.885 121.078 131.885H119.681V132.083C119.857 132.094 120.055 132.138 120.187 132.226C120.308 132.314 120.374 132.413 120.407 132.567C120.429 132.699 120.429 133.018 120.429 133.183V134.69C120.429 135.031 120.418 135.372 120.363 135.647C120.275 135.999 120.088 136.274 119.846 136.472C119.626 136.659 119.351 136.758 119.065 136.758C118.735 136.758 118.482 136.681 118.295 136.483C118.064 136.263 117.987 135.955 117.987 135.471V133.282C117.987 132.765 117.998 132.303 118.02 131.962C118.02 131.896 117.987 131.885 117.943 131.885H116.535V132.083C116.733 132.094 116.909 132.127 117.03 132.204C117.118 132.259 117.195 132.336 117.239 132.501C117.272 132.622 117.283 132.853 117.283 133.095V135.537C117.283 136.131 117.415 136.406 117.58 136.615C117.932 137.033 118.416 137.11 118.812 137.11C119.252 137.11 119.593 136.967 119.857 136.78C120.066 136.615 120.209 136.461 120.407 136.076H120.473V136.901C120.473 136.967 120.506 137 120.55 137H121.892V136.791C121.76 136.78 121.584 136.758 121.474 136.703C121.276 136.615 121.21 136.472 121.166 136.263C121.133 136.087 121.133 135.878 121.133 135.68ZM126.51 135.581C126.51 134.734 125.85 134.415 124.959 134.041C124.101 133.689 123.705 133.458 123.705 132.842C123.705 132.358 124.09 132.039 124.629 132.039C124.959 132.039 125.201 132.127 125.377 132.27C125.652 132.479 125.817 132.831 125.971 133.271H126.169L126.114 131.83H125.971L125.762 132.149H125.696C125.498 131.962 125.179 131.753 124.618 131.753C123.694 131.753 123.111 132.347 123.111 133.051C123.111 134.019 123.705 134.294 124.574 134.657C125.542 135.064 125.938 135.284 125.938 135.933C125.938 136.549 125.509 136.824 124.893 136.824C124.101 136.824 123.518 136.197 123.254 135.196H123.023L123.056 137H123.254L123.463 136.571H123.54C123.859 136.901 124.398 137.099 124.882 137.099C125.74 137.099 126.51 136.626 126.51 135.581ZM130.377 136.318C130.146 136.582 129.849 136.725 129.508 136.725C128.969 136.725 128.804 136.483 128.804 136.032L128.815 132.193H130.201V131.885H128.815V130.125H128.639C128.265 131.511 127.913 131.885 127.297 131.984V132.171C127.407 132.171 128.001 132.182 128.133 132.182C128.122 132.347 128.122 135.955 128.122 136.021C128.122 136.461 128.199 136.659 128.375 136.813C128.628 137.022 128.892 137.099 129.299 137.099C129.75 137.099 130.201 136.901 130.498 136.461L130.377 136.318ZM135.593 136.89L135.527 136.703C135.428 136.758 135.274 136.791 135.175 136.791C135.043 136.791 134.944 136.747 134.878 136.659C134.79 136.538 134.757 136.34 134.757 135.812V132.754C134.757 131.995 134.064 131.753 133.316 131.753C132.755 131.753 132.095 132.006 131.853 132.292C131.721 132.424 131.655 132.589 131.655 132.765C131.655 133.007 131.82 133.15 132.007 133.15C132.26 133.15 132.392 133.04 132.425 132.721C132.458 132.435 132.579 132.248 132.766 132.138C132.942 132.061 133.129 132.017 133.338 132.017C133.855 132.017 134.064 132.226 134.064 132.787V133.612C133.998 133.854 133.69 134.151 133.129 134.338C132.546 134.547 132.128 134.613 131.721 134.987C131.479 135.229 131.38 135.548 131.38 135.823C131.38 136.659 131.941 137.099 132.722 137.099C133.47 137.099 133.866 136.659 134.031 136.351H134.108C134.119 136.736 134.218 136.901 134.383 137.011C134.482 137.066 134.603 137.099 134.79 137.099C135.109 137.099 135.45 136.989 135.593 136.89ZM134.064 134.063V135.779C133.998 136.362 133.437 136.714 132.975 136.714C132.469 136.714 132.095 136.439 132.095 135.812C132.095 135.471 132.194 135.24 132.359 135.064C132.513 134.899 132.788 134.767 133.184 134.602C133.514 134.459 133.888 134.272 134.064 134.063ZM137.588 130.598C137.874 130.598 138.094 130.389 138.094 130.092C138.094 129.806 137.885 129.575 137.588 129.575C137.313 129.575 137.104 129.795 137.104 130.092C137.104 130.389 137.313 130.598 137.588 130.598ZM137.929 132.941C137.929 132.501 137.951 132.193 137.962 131.962C137.962 131.907 137.929 131.885 137.885 131.885H136.521V132.083C136.763 132.116 136.884 132.16 136.994 132.237C137.104 132.314 137.148 132.391 137.192 132.534C137.225 132.655 137.236 133.073 137.236 133.249V135.801C137.236 135.988 137.236 136.142 137.192 136.318C137.148 136.494 137.027 136.615 136.851 136.703C136.774 136.747 136.62 136.78 136.521 136.791V137H138.666V136.791C138.556 136.78 138.402 136.736 138.325 136.703C138.171 136.626 138.028 136.538 137.973 136.318C137.94 136.175 137.929 135.966 137.929 135.801V132.941ZM144.434 135.625V133.106C144.434 132.545 144.236 132.204 143.972 132.006C143.741 131.852 143.466 131.753 143.092 131.753C142.685 131.753 142.3 131.874 142.025 132.061C141.75 132.215 141.464 132.479 141.266 132.886H141.2C141.211 132.699 141.222 132.105 141.222 131.951C141.222 131.896 141.2 131.885 141.145 131.885H139.803V132.083C139.979 132.105 140.155 132.16 140.287 132.237C140.397 132.303 140.463 132.391 140.496 132.534C140.529 132.677 140.529 132.985 140.529 133.249V135.515C140.529 135.779 140.529 136.087 140.507 136.23C140.452 136.505 140.331 136.615 140.078 136.714C140.001 136.747 139.858 136.78 139.759 136.791V137H141.981V136.791C141.871 136.78 141.761 136.747 141.662 136.714C141.42 136.615 141.321 136.483 141.277 136.285C141.233 136.109 141.233 135.812 141.233 135.57V134.129C141.233 133.667 141.288 133.348 141.453 133.007C141.695 132.479 142.223 132.204 142.773 132.204C143.092 132.204 143.312 132.292 143.466 132.457C143.642 132.644 143.73 132.897 143.73 133.348V135.57C143.73 135.812 143.73 136.098 143.675 136.296C143.609 136.516 143.543 136.626 143.323 136.714C143.235 136.747 143.092 136.78 142.982 136.791V137H145.16V136.791C145.061 136.78 144.918 136.747 144.841 136.714C144.599 136.604 144.522 136.472 144.478 136.263C144.445 136.109 144.434 135.856 144.434 135.625ZM150.467 136.89L150.401 136.703C150.302 136.758 150.148 136.791 150.049 136.791C149.917 136.791 149.818 136.747 149.752 136.659C149.664 136.538 149.631 136.34 149.631 135.812V132.754C149.631 131.995 148.938 131.753 148.19 131.753C147.629 131.753 146.969 132.006 146.727 132.292C146.595 132.424 146.529 132.589 146.529 132.765C146.529 133.007 146.694 133.15 146.881 133.15C147.134 133.15 147.266 133.04 147.299 132.721C147.332 132.435 147.453 132.248 147.64 132.138C147.816 132.061 148.003 132.017 148.212 132.017C148.729 132.017 148.938 132.226 148.938 132.787V133.612C148.872 133.854 148.564 134.151 148.003 134.338C147.42 134.547 147.002 134.613 146.595 134.987C146.353 135.229 146.254 135.548 146.254 135.823C146.254 136.659 146.815 137.099 147.596 137.099C148.344 137.099 148.74 136.659 148.905 136.351H148.982C148.993 136.736 149.092 136.901 149.257 137.011C149.356 137.066 149.477 137.099 149.664 137.099C149.983 137.099 150.324 136.989 150.467 136.89ZM148.938 134.063V135.779C148.872 136.362 148.311 136.714 147.849 136.714C147.343 136.714 146.969 136.439 146.969 135.812C146.969 135.471 147.068 135.24 147.233 135.064C147.387 134.899 147.662 134.767 148.058 134.602C148.388 134.459 148.762 134.272 148.938 134.063ZM152.517 129.168H151.065V129.366C151.263 129.377 151.472 129.399 151.615 129.509C151.703 129.575 151.769 129.663 151.813 129.784C151.846 129.883 151.857 130.092 151.857 130.268V135.966C151.857 136.263 151.846 136.659 151.824 137.022H152.044L152.506 136.351H152.605C152.891 136.78 153.463 137.099 154.035 137.099C154.97 137.099 156.345 136.406 156.345 134.437C156.345 132.435 155.223 131.753 154.211 131.753C153.518 131.753 152.946 132.083 152.627 132.754H152.561V130.653C152.561 130.059 152.605 129.542 152.605 129.245C152.605 129.19 152.561 129.168 152.517 129.168ZM154.123 132.094C154.981 132.094 155.564 132.721 155.564 134.448C155.564 135.867 155.025 136.802 154.024 136.802C153.606 136.802 153.188 136.67 152.924 136.329C152.649 135.977 152.561 135.581 152.561 134.888V133.777C152.561 133.051 152.836 132.732 153.023 132.523C153.331 132.204 153.694 132.094 154.123 132.094ZM158.931 130.268C158.931 129.861 158.953 129.465 158.953 129.245C158.953 129.19 158.931 129.168 158.876 129.168H157.512V129.377C157.732 129.388 157.875 129.41 157.996 129.498C158.095 129.575 158.15 129.652 158.194 129.795C158.238 129.927 158.238 130.334 158.238 130.499V135.724C158.238 135.933 158.238 136.131 158.194 136.296C158.139 136.505 158.029 136.626 157.853 136.703C157.765 136.747 157.633 136.78 157.523 136.791V137H159.624V136.791C159.514 136.78 159.393 136.747 159.294 136.703C159.129 136.615 159.019 136.505 158.964 136.263C158.931 136.098 158.931 135.911 158.931 135.724V130.268ZM162.27 132.347C162.523 132.138 162.82 132.039 163.128 132.039C163.502 132.039 163.755 132.138 163.964 132.314C164.195 132.512 164.316 132.787 164.316 133.282C164.316 133.766 164.217 133.865 163.876 133.865H161.632C161.731 133.117 161.984 132.589 162.27 132.347ZM165.13 135.504L164.888 135.416C164.657 136.12 164.217 136.714 163.271 136.714C162.82 136.714 162.435 136.571 162.149 136.274C161.775 135.867 161.599 135.13 161.599 134.459C161.599 134.349 161.599 134.25 161.61 134.151H165.064C165.086 134.008 165.097 133.777 165.097 133.59C165.097 132.798 164.536 131.753 163.117 131.753C161.852 131.753 160.807 132.919 160.807 134.437C160.807 135.218 161.027 135.933 161.544 136.461C161.94 136.879 162.468 137.099 163.128 137.099C164.096 137.099 164.822 136.516 165.13 135.504ZM117.119 143.389C117.119 143.18 117.13 143.081 117.218 142.982C117.295 142.894 117.394 142.872 117.581 142.872H118.219C119.363 142.872 119.946 143.4 119.946 144.511C119.946 144.874 119.891 145.336 119.638 145.655C119.374 145.963 118.934 146.249 117.977 146.249C117.713 146.249 117.317 146.216 117.119 146.172V143.389ZM118.087 149.78C117.966 149.769 117.834 149.758 117.735 149.725C117.515 149.659 117.383 149.549 117.273 149.329C117.152 149.043 117.119 148.647 117.119 147.987V146.491C117.284 146.513 117.658 146.546 117.966 146.546C118.89 146.546 119.495 146.337 119.869 146.117C120.397 145.809 120.771 145.226 120.771 144.423C120.771 143.169 119.748 142.597 118.318 142.597H115.381V142.817C115.535 142.828 115.645 142.85 115.722 142.872C115.92 142.938 116.063 143.037 116.173 143.246C116.305 143.543 116.327 143.939 116.327 144.588V147.998C116.327 148.647 116.305 149.043 116.173 149.34C116.063 149.571 115.931 149.659 115.755 149.714C115.623 149.758 115.513 149.769 115.403 149.78V150H118.087V149.78ZM123.144 146.029H123.078C123.078 146.073 123.111 144.929 123.111 144.951C123.111 144.918 123.089 144.885 123.034 144.885H121.692V145.083C121.857 145.116 122.022 145.149 122.165 145.237C122.264 145.303 122.352 145.413 122.385 145.545C122.418 145.677 122.418 146.073 122.418 146.26V148.625C122.418 148.845 122.418 149.087 122.374 149.274C122.308 149.516 122.22 149.615 122.033 149.714C121.923 149.747 121.78 149.78 121.681 149.791V150H123.881V149.791C123.76 149.78 123.639 149.758 123.518 149.714C123.386 149.67 123.309 149.56 123.243 149.406C123.155 149.219 123.111 149.01 123.111 148.581V147.437C123.111 147.151 123.122 146.81 123.133 146.744C123.232 145.897 123.793 145.215 124.145 145.215C124.277 145.215 124.387 145.259 124.453 145.402C124.53 145.6 124.618 145.776 124.882 145.776C125.179 145.776 125.278 145.556 125.278 145.347C125.278 145.138 125.201 145.006 125.124 144.929C124.992 144.819 124.805 144.753 124.607 144.753C124.233 144.753 123.969 144.907 123.771 145.072C123.529 145.281 123.342 145.534 123.144 146.029ZM126.071 147.426C126.071 149.098 127.237 150.099 128.469 150.099C129.701 150.099 130.867 149.087 130.867 147.415C130.867 145.754 129.701 144.753 128.469 144.753C127.226 144.753 126.071 145.754 126.071 147.426ZM126.852 147.426C126.852 146.447 127.094 145.776 127.534 145.38C127.798 145.138 128.15 145.028 128.469 145.028C128.777 145.028 129.129 145.127 129.393 145.38C129.833 145.787 130.075 146.458 130.075 147.426C130.075 148.383 129.822 149.065 129.393 149.472C129.129 149.725 128.788 149.824 128.469 149.824C128.139 149.824 127.798 149.725 127.523 149.461C127.094 149.065 126.852 148.383 126.852 147.426ZM134.521 145.028C135.071 145.028 135.28 145.171 135.434 145.743C135.533 146.04 135.643 146.249 135.929 146.249C136.16 146.249 136.303 146.117 136.303 145.842C136.303 145.699 136.259 145.501 136.105 145.325C135.852 145.039 135.445 144.753 134.532 144.753C133.245 144.753 132.211 145.908 132.211 147.415C132.211 148.46 132.574 149.153 133.08 149.571C133.443 149.901 133.883 150.099 134.488 150.099C135.478 150.099 136.16 149.483 136.435 148.559L136.171 148.471C135.995 149.01 135.599 149.736 134.532 149.736C134.202 149.736 133.861 149.593 133.641 149.384C133.245 148.988 132.981 148.339 132.981 147.36C132.981 146.359 133.267 145.655 133.685 145.314C133.905 145.138 134.213 145.028 134.521 145.028ZM138.933 145.347C139.186 145.138 139.483 145.039 139.791 145.039C140.165 145.039 140.418 145.138 140.627 145.314C140.858 145.512 140.979 145.787 140.979 146.282C140.979 146.766 140.88 146.865 140.539 146.865H138.295C138.394 146.117 138.647 145.589 138.933 145.347ZM141.793 148.504L141.551 148.416C141.32 149.12 140.88 149.714 139.934 149.714C139.483 149.714 139.098 149.571 138.812 149.274C138.438 148.867 138.262 148.13 138.262 147.459C138.262 147.349 138.262 147.25 138.273 147.151H141.727C141.749 147.008 141.76 146.777 141.76 146.59C141.76 145.798 141.199 144.753 139.78 144.753C138.515 144.753 137.47 145.919 137.47 147.437C137.47 148.218 137.69 148.933 138.207 149.461C138.603 149.879 139.131 150.099 139.791 150.099C140.759 150.099 141.485 149.516 141.793 148.504ZM146.517 148.581C146.517 147.734 145.857 147.415 144.966 147.041C144.108 146.689 143.712 146.458 143.712 145.842C143.712 145.358 144.097 145.039 144.636 145.039C144.966 145.039 145.208 145.127 145.384 145.27C145.659 145.479 145.824 145.831 145.978 146.271H146.176L146.121 144.83H145.978L145.769 145.149H145.703C145.505 144.962 145.186 144.753 144.625 144.753C143.701 144.753 143.118 145.347 143.118 146.051C143.118 147.019 143.712 147.294 144.581 147.657C145.549 148.064 145.945 148.284 145.945 148.933C145.945 149.549 145.516 149.824 144.9 149.824C144.108 149.824 143.525 149.197 143.261 148.196H143.03L143.063 150H143.261L143.47 149.571H143.547C143.866 149.901 144.405 150.099 144.889 150.099C145.747 150.099 146.517 149.626 146.517 148.581ZM151.066 148.581C151.066 147.734 150.406 147.415 149.515 147.041C148.657 146.689 148.261 146.458 148.261 145.842C148.261 145.358 148.646 145.039 149.185 145.039C149.515 145.039 149.757 145.127 149.933 145.27C150.208 145.479 150.373 145.831 150.527 146.271H150.725L150.67 144.83H150.527L150.318 145.149H150.252C150.054 144.962 149.735 144.753 149.174 144.753C148.25 144.753 147.667 145.347 147.667 146.051C147.667 147.019 148.261 147.294 149.13 147.657C150.098 148.064 150.494 148.284 150.494 148.933C150.494 149.549 150.065 149.824 149.449 149.824C148.657 149.824 148.074 149.197 147.81 148.196H147.579L147.612 150H147.81L148.019 149.571H148.096C148.415 149.901 148.954 150.099 149.438 150.099C150.296 150.099 151.066 149.626 151.066 148.581ZM153.581 145.347C153.834 145.138 154.131 145.039 154.439 145.039C154.813 145.039 155.066 145.138 155.275 145.314C155.506 145.512 155.627 145.787 155.627 146.282C155.627 146.766 155.528 146.865 155.187 146.865H152.943C153.042 146.117 153.295 145.589 153.581 145.347ZM156.441 148.504L156.199 148.416C155.968 149.12 155.528 149.714 154.582 149.714C154.131 149.714 153.746 149.571 153.46 149.274C153.086 148.867 152.91 148.13 152.91 147.459C152.91 147.349 152.91 147.25 152.921 147.151H156.375C156.397 147.008 156.408 146.777 156.408 146.59C156.408 145.798 155.847 144.753 154.428 144.753C153.163 144.753 152.118 145.919 152.118 147.437C152.118 148.218 152.338 148.933 152.855 149.461C153.251 149.879 153.779 150.099 154.439 150.099C155.407 150.099 156.133 149.516 156.441 148.504ZM161.165 148.581C161.165 147.734 160.505 147.415 159.614 147.041C158.756 146.689 158.36 146.458 158.36 145.842C158.36 145.358 158.745 145.039 159.284 145.039C159.614 145.039 159.856 145.127 160.032 145.27C160.307 145.479 160.472 145.831 160.626 146.271H160.824L160.769 144.83H160.626L160.417 145.149H160.351C160.153 144.962 159.834 144.753 159.273 144.753C158.349 144.753 157.766 145.347 157.766 146.051C157.766 147.019 158.36 147.294 159.229 147.657C160.197 148.064 160.593 148.284 160.593 148.933C160.593 149.549 160.164 149.824 159.548 149.824C158.756 149.824 158.173 149.197 157.909 148.196H157.678L157.711 150H157.909L158.118 149.571H158.195C158.514 149.901 159.053 150.099 159.537 150.099C160.395 150.099 161.165 149.626 161.165 148.581Z" fill="black"/>
<path d="M130 1.39941L152 23.8994L130 46.3994" stroke="black" stroke-width="0.499093"/>
<path d="M269.2 96L254.6 123.876L226.402 109.906" stroke="black" stroke-width="0.499093"/>
<path d="M7 96.9229L35.1971 82.9525L49.7975 110.829" stroke="black" stroke-width="0.499093"/>
<path d="M223.249 246.6L192.225 241.328L196.798 210.194" stroke="black" stroke-width="0.499093"/>
<path d="M62.7984 253.338L58.2252 222.204L89.2487 216.932" stroke="black" stroke-width="0.499093"/>
<path d="M55.6681 59.2421L54.1869 60.291L55.8595 66.8028L55.7967 66.8473L50.2368 63.0879L48.6389 64.2194L48.766 64.399C48.8801 64.3317 49.0121 64.2516 49.1363 64.2176C49.3181 64.1698 49.4946 64.1526 49.6962 64.266C49.9385 64.4179 50.1498 64.6591 50.5121 65.1708L52.8069 68.4116C53.1248 68.8605 53.2018 69.1025 53.2021 69.3314C53.2051 69.545 53.1508 69.6777 53.03 69.8307C52.9683 69.9148 52.8822 70.0027 52.7719 70.0943L52.899 70.2739L54.7842 68.9389L54.6571 68.7594C54.5097 68.8368 54.4162 68.876 54.2984 68.919C54.132 68.9695 53.9824 68.9676 53.7972 68.8965C53.5968 68.8228 53.4031 68.6634 53.0852 68.2146L50.2247 64.1748L50.2965 64.1239L56.1626 68.0303L56.4499 67.8269L54.7171 61.0207L54.7799 60.9762L57.2972 64.5312C57.7104 65.1148 57.9594 65.5045 58.027 65.8475C58.076 66.0689 58.0049 66.2541 57.8751 66.4134C57.816 66.4822 57.703 66.5891 57.6106 66.668L57.7378 66.8476L59.9462 65.2838L59.8191 65.1043C59.7139 65.1652 59.6025 65.2172 59.5269 65.2437C59.3092 65.317 59.1174 65.3316 58.9248 65.2118C58.6391 65.0368 58.3567 64.6571 57.9436 64.0736L56.151 61.542C55.706 60.9136 55.4734 60.5661 55.4031 60.2384C55.3721 60.0043 55.4406 59.8345 55.5371 59.6853C55.5989 59.6011 55.7029 59.5005 55.7952 59.4216L55.6681 59.2421ZM64.3005 62.0658L64.1385 61.9514C64.0895 62.0534 63.9829 62.1694 63.9021 62.2266C63.7944 62.3029 63.6882 62.3242 63.5834 62.2905C63.4417 62.2426 63.3003 62.1001 62.9952 61.6692L61.228 59.1735C60.7894 58.554 60.084 58.757 59.4736 59.1893C59.0157 59.5135 58.6233 60.1013 58.5911 60.4746C58.5596 60.6586 58.6011 60.8314 58.7028 60.975C58.8427 61.1725 59.0599 61.1939 59.2126 61.0858C59.419 60.9396 59.4632 60.7736 59.3058 60.4942C59.1674 60.2417 59.1581 60.0191 59.2472 59.8213C59.3463 59.6568 59.4735 59.5128 59.6441 59.392C60.066 59.0932 60.3574 59.143 60.6815 59.6009L61.1583 60.2742C61.2443 60.5098 61.1646 60.9302 60.8148 61.407C60.4598 61.9145 60.1568 62.2099 60.0407 62.7503C59.9831 63.0877 60.0866 63.4052 60.2455 63.6297C60.7287 64.3119 61.4408 64.3468 62.0782 63.8955C62.6886 63.4632 62.7575 62.8753 62.7142 62.5286L62.777 62.4841C63.0085 62.7919 63.1846 62.8694 63.3829 62.8638C63.4955 62.8515 63.6133 62.8085 63.7659 62.7004C64.0262 62.5161 64.241 62.2293 64.3005 62.0658ZM61.4189 60.6422L62.4106 62.0427C62.6936 62.5566 62.4392 63.1681 62.0621 63.4351C61.6492 63.7275 61.185 63.7192 60.8227 63.2075C60.6257 62.9292 60.573 62.6835 60.6059 62.4445C60.6362 62.2208 60.7844 61.9542 61.0122 61.5907C61.1989 61.2833 61.3961 60.9145 61.4189 60.6422ZM68.1059 57.8212L66.6502 55.7654C66.326 55.3075 65.9674 55.1437 65.6375 55.1346C65.36 55.1425 65.0784 55.2206 64.7731 55.4367C64.441 55.6719 64.1967 55.9931 64.0803 56.3047C63.9449 56.5893 63.864 56.97 63.9376 57.4166L63.8838 57.4547C63.7847 57.2958 63.4504 56.8046 63.3614 56.6789C63.3296 56.6341 63.3053 56.6378 63.2604 56.6696L62.1652 57.4451L62.2796 57.6067C62.436 57.5229 62.6114 57.4661 62.7636 57.4527C62.8915 57.443 62.9962 57.4766 63.1058 57.5743C63.2154 57.6719 63.3934 57.9233 63.5459 58.1387L64.8554 59.9881C65.008 60.2035 65.186 60.4549 65.2506 60.5843C65.3647 60.8405 65.3295 61.0002 65.1802 61.2272C65.1365 61.2986 65.0388 61.4082 64.9644 61.4744L65.0852 61.645L66.8986 60.3609L66.7778 60.1903C66.6817 60.2449 66.5728 60.2816 66.473 60.3118C66.2182 60.3709 66.0612 60.3204 65.9108 60.1842C65.7732 60.066 65.6016 59.8236 65.4617 59.6261L64.629 58.4501C64.362 58.073 64.2226 57.7809 64.1602 57.4073C64.0525 56.8365 64.3245 56.307 64.7734 55.9891C65.0337 55.8048 65.2641 55.7495 65.4852 55.7951C65.7369 55.846 65.9549 56.0017 66.2155 56.3697L67.4996 58.1831C67.6394 58.3806 67.8047 58.614 67.8743 58.8074C67.9475 59.0251 67.9572 59.153 67.8285 59.352C67.7758 59.4298 67.6781 59.5393 67.5947 59.6119L67.7155 59.7824L69.493 58.5238L69.3722 58.3532C69.2851 58.4015 69.1493 58.4572 69.0674 58.4747C68.8063 58.5248 68.6672 58.4616 68.5105 58.3164C68.3946 58.2098 68.2394 58.0097 68.1059 57.8212ZM73.259 54.2398L71.8859 52.3007C71.5363 51.8069 71.3254 51.471 71.1284 51.1927C71.0902 51.1388 71.0659 51.1426 71.021 51.1744L69.8809 51.9817L69.9953 52.1433C70.1453 52.0505 70.3323 51.972 70.4909 51.9676C70.6405 51.9695 70.7516 52.0121 70.8675 52.1187C70.9618 52.2137 71.1461 52.4741 71.2415 52.6087L72.1123 53.8386C72.3094 54.1169 72.4975 54.4016 72.6115 54.6578C72.7431 54.9959 72.7494 55.3284 72.6663 55.6299C72.5948 55.9096 72.4276 56.1493 72.1942 56.3146C71.9249 56.5053 71.6739 56.5887 71.4069 56.5351C71.0912 56.4891 70.8504 56.2822 70.5707 55.8872L69.3057 54.1007C69.0069 53.6788 68.7489 53.2954 68.5698 53.0044C68.5317 52.9505 68.4984 52.9606 68.4625 52.986L67.3134 53.7997L67.4278 53.9613C67.5958 53.8558 67.7585 53.7811 67.9017 53.774C68.0053 53.768 68.1127 53.7864 68.2439 53.8956C68.3408 53.9753 68.4833 54.1574 68.6231 54.3549L70.0343 56.3479C70.3776 56.8327 70.6442 56.9808 70.8996 57.056C71.4285 57.1938 71.868 56.9769 72.1912 56.7481C72.5502 56.4938 72.7459 56.18 72.8533 55.8749C72.9285 55.6194 72.9562 55.4111 72.8953 54.9825L72.9492 54.9443L73.4259 55.6176C73.4641 55.6715 73.5101 55.6794 73.546 55.6539L74.6412 54.8784L74.5205 54.7078C74.4064 54.7751 74.25 54.8589 74.1285 54.8776C73.916 54.9202 73.7795 54.8416 73.6228 54.6965C73.4942 54.5719 73.3734 54.4013 73.259 54.2398ZM77.3144 52.9855L77.1937 52.815C77.1065 52.8632 76.9591 52.9406 76.8593 52.9709C76.6019 53.0453 76.4591 52.9577 76.2807 52.801C76.1494 52.6917 75.9816 52.4737 75.8735 52.3211L73.8902 49.5201L74.9944 48.7383L74.8164 48.4869L73.7122 49.2688L73.0575 48.3441C72.8286 48.0209 72.6813 47.7748 72.6428 47.492C72.6043 47.2093 72.6706 46.9602 72.913 46.7886C73.0835 46.6678 73.2077 46.6338 73.3151 46.6521C73.416 46.6615 73.4848 46.7206 73.6198 46.8541C73.7395 46.9851 73.821 47.0621 73.9257 47.0958C74.0611 47.1347 74.1711 47.1377 74.3237 47.0297C74.5122 46.8962 74.5336 46.6789 74.3874 46.4724C74.2157 46.23 73.945 46.1522 73.6495 46.1727C73.3873 46.1831 73.1337 46.2818 72.8375 46.4916C72.5053 46.7268 72.2764 47.0507 72.2067 47.5043C72.1539 47.9056 72.2223 48.3829 72.7271 49.0767L73.1466 49.6693L72.5362 50.1015L72.7142 50.3529L73.3246 49.9206L75.3079 52.7215C75.4351 52.9011 75.5431 53.0537 75.637 53.2433C75.7473 53.4752 75.7222 53.6682 75.6141 53.8391C75.5497 53.9386 75.4457 54.0392 75.3803 54.099L75.501 54.2696L77.3144 52.9855ZM81.8709 49.6244L81.709 49.5099C81.66 49.612 81.5534 49.7279 81.4726 49.7851C81.3648 49.8614 81.2586 49.8827 81.1539 49.849C81.0121 49.8011 80.8708 49.6586 80.5657 49.2277L78.7985 46.732C78.3599 46.1126 77.6545 46.3156 77.044 46.7478C76.5862 47.072 76.1937 47.6599 76.1615 48.0331C76.1301 48.2172 76.1715 48.39 76.2733 48.5336C76.4131 48.7311 76.6304 48.7524 76.783 48.6444C76.9895 48.4982 77.0337 48.3321 76.8762 48.0527C76.7379 47.8002 76.7286 47.5777 76.8176 47.3799C76.9168 47.2153 77.044 47.0713 77.2145 46.9506C77.6365 46.6518 77.9278 46.7016 78.252 47.1594L78.7288 47.8327C78.8147 48.0684 78.735 48.4887 78.3852 48.9655C78.0302 49.473 77.7272 49.7684 77.6112 50.3089C77.5535 50.6462 77.6571 50.9638 77.816 51.1882C78.2991 51.8705 79.0112 51.9054 79.6486 51.454C80.2591 51.0218 80.328 50.4339 80.2847 50.0871L80.3475 50.0426C80.579 50.3505 80.7551 50.4279 80.9533 50.4224C81.0659 50.41 81.1837 50.367 81.3363 50.259C81.5967 50.0746 81.8114 49.7878 81.8709 49.6244ZM78.9894 48.2008L79.981 49.6013C80.2641 50.1152 80.0096 50.7267 79.6326 50.9936C79.2196 51.286 78.7555 51.2777 78.3932 50.766C78.1961 50.4877 78.1434 50.242 78.1764 50.003C78.2067 49.7794 78.3548 49.5127 78.5827 49.1492C78.7694 48.8418 78.9665 48.4731 78.9894 48.2008ZM81.7125 43.7791C82.1614 43.4612 82.4146 43.4572 82.8708 43.835C83.1232 44.0202 83.3338 44.1272 83.5672 43.9619C83.7557 43.8284 83.7961 43.638 83.6372 43.4136C83.5546 43.2969 83.4042 43.1607 83.1769 43.1061C82.8051 43.0189 82.3077 43.0207 81.5626 43.5483C80.5122 44.292 80.3358 45.8322 81.2067 47.0621C81.8106 47.9149 82.5073 48.2707 83.1618 48.3194C83.6488 48.379 84.1223 48.2863 84.616 47.9367C85.424 47.3646 85.6246 46.4677 85.3151 45.5547L85.0487 45.6355C85.2166 46.1771 85.313 46.9984 84.4422 47.615C84.1728 47.8057 83.8119 47.8861 83.5116 47.8426C82.9596 47.7483 82.369 47.3712 81.8033 46.5722C81.2248 45.7553 81.0514 45.0154 81.1955 44.4956C81.2733 44.2248 81.4611 43.9571 81.7125 43.7791ZM88.8966 43.9487C88.8606 44.2976 88.7009 44.586 88.4226 44.783C87.9827 45.0945 87.7082 44.9924 87.4476 44.6243L85.238 41.4849L86.3692 40.6839L86.1912 40.4325L85.06 41.2335L84.043 39.7971L83.8993 39.8988C84.395 41.2461 84.3239 41.7547 83.8784 42.1915L83.9864 42.3441C84.0762 42.2806 84.5674 41.9463 84.6751 41.87C84.7615 42.011 86.8465 44.9556 86.8846 45.0094C87.1389 45.3685 87.3161 45.4856 87.5488 45.5096C87.876 45.534 88.136 45.4442 88.4681 45.209C88.8362 44.9484 89.0899 44.5262 89.078 43.9955L88.8966 43.9487ZM92.9821 40.274L91.6091 38.3349C91.2594 37.8412 91.0486 37.5053 90.8515 37.227C90.8134 37.1731 90.789 37.1768 90.7442 37.2086L89.604 38.0159L89.7185 38.1775C89.8685 38.0848 90.0555 38.0063 90.2141 38.0018C90.3637 38.0037 90.4747 38.0464 90.5907 38.153C90.6849 38.248 90.8692 38.5083 90.9646 38.643L91.8355 39.8729C92.0325 40.1512 92.2206 40.4358 92.3346 40.6921C92.4662 41.0302 92.4725 41.3627 92.3895 41.6641C92.318 41.9439 92.1508 42.1836 91.9173 42.3489C91.648 42.5396 91.3971 42.6229 91.13 42.5694C90.8144 42.5233 90.5735 42.3165 90.2938 41.9215L89.0288 40.135C88.7301 39.7131 88.4721 39.3296 88.293 39.0386C88.2548 38.9848 88.2215 38.9949 88.1856 39.0203L87.0365 39.834L87.151 39.9955C87.3189 39.8901 87.4816 39.8153 87.6249 39.8082C87.7285 39.8023 87.8358 39.8206 87.9671 39.9299C88.0639 40.0095 88.2064 40.1917 88.3462 40.3892L89.7574 42.3822C90.1007 42.8669 90.3673 43.0151 90.6228 43.0903C91.1516 43.228 91.5911 43.0112 91.9143 42.7823C92.2734 42.5281 92.469 42.2143 92.5764 41.9091C92.6516 41.6537 92.6794 41.4454 92.6185 41.0167L92.6723 40.9786L93.1491 41.6519C93.1872 41.7058 93.2332 41.7136 93.2691 41.6882L94.3644 40.9127L94.2436 40.7421C94.1295 40.8094 93.9731 40.8932 93.8516 40.9118C93.6391 40.9544 93.5026 40.8759 93.346 40.7307C93.2173 40.6062 93.0965 40.4356 92.9821 40.274ZM94.1054 36.2303L94.0515 36.2685C94.077 36.3044 93.4428 35.3517 93.4555 35.3696C93.4364 35.3427 93.3994 35.3285 93.3545 35.3602L92.2593 36.1358L92.3737 36.2974C92.5275 36.2289 92.6812 36.1605 92.8487 36.1497C92.9677 36.1464 93.1031 36.1853 93.2063 36.2739C93.3095 36.3626 93.5383 36.6858 93.6464 36.8384L95.0131 38.7685C95.1402 38.9481 95.2801 39.1456 95.3522 39.3236C95.4382 39.5592 95.4236 39.6909 95.3282 39.8797C95.2575 39.9702 95.1599 40.0798 95.0854 40.146L95.2062 40.3166L97.0017 39.0452L96.8809 38.8747C96.7758 38.9356 96.6643 38.9876 96.5401 39.0216C96.407 39.062 96.2806 39.0167 96.1377 38.9291C95.9578 38.8274 95.8011 38.6822 95.5532 38.3321L94.8921 37.3985C94.7269 37.1651 94.5388 36.8804 94.5096 36.8202C94.1009 36.0717 94.1647 35.191 94.4519 34.9875C94.5597 34.9113 94.6749 34.8836 94.8114 34.9622C94.9886 35.0793 95.1622 35.172 95.3776 35.0195C95.62 34.8478 95.5737 34.6111 95.4529 34.4405C95.3321 34.27 95.193 34.2067 95.0856 34.1884C94.9144 34.1749 94.7236 34.2291 94.562 34.3435C94.2568 34.5596 94.1303 34.8379 94.0641 35.087C93.9874 35.3974 93.9809 35.7119 94.1054 36.2303ZM95.9428 31.9506C96.1762 31.7853 96.235 31.4876 96.0633 31.2452C95.8981 31.0118 95.594 30.944 95.3516 31.1157C95.1272 31.2746 95.0837 31.5749 95.2554 31.8173C95.427 32.0597 95.7184 32.1095 95.9428 31.9506ZM97.5751 33.6657C97.3208 33.3066 97.1608 33.0425 97.0363 32.8476C97.0045 32.8027 96.9648 32.8038 96.9289 32.8293L95.8157 33.6175L95.9301 33.7791C96.1467 33.6662 96.2709 33.6322 96.4052 33.6314C96.5394 33.6307 96.6198 33.6681 96.7384 33.7594C96.8352 33.8391 97.0858 34.1739 97.1875 34.3175L98.6623 36.4002C98.7703 36.5528 98.8593 36.6785 98.9251 36.8476C98.9909 37.0167 98.9621 37.1853 98.8693 37.3589C98.8319 37.4393 98.7253 37.5552 98.6508 37.6214L98.7716 37.7919L100.522 36.5524L100.401 36.3818C100.305 36.4364 100.154 36.4895 100.072 36.5071C99.9021 36.5332 99.7345 36.544 99.5625 36.3963C99.4529 36.2986 99.3232 36.1344 99.2278 35.9998L97.5751 33.6657ZM104.435 32.0968L102.979 30.041C102.655 29.5832 102.297 29.4193 101.967 29.4103C101.689 29.4181 101.408 29.4962 101.102 29.7124C100.77 29.9476 100.526 30.2688 100.41 30.5803C100.274 30.8649 100.193 31.2457 100.267 31.6922L100.213 31.7304C100.114 31.5714 99.7796 31.0803 99.6906 30.9546C99.6588 30.9097 99.6345 30.9134 99.5896 30.9452L98.4944 31.7207L98.6088 31.8823C98.7652 31.7986 98.9406 31.7418 99.0928 31.7283C99.2207 31.7186 99.3255 31.7523 99.435 31.8499C99.5446 31.9476 99.7226 32.1989 99.8752 32.4144L101.185 34.2637C101.337 34.4792 101.515 34.7305 101.58 34.86C101.694 35.1162 101.659 35.2759 101.509 35.5029C101.466 35.5743 101.368 35.6839 101.294 35.7501L101.414 35.9206L103.228 34.6366L103.107 34.466C103.011 34.5206 102.902 34.5572 102.802 34.5875C102.547 34.6466 102.39 34.596 102.24 34.4599C102.102 34.3417 101.931 34.0993 101.791 33.9018L100.958 32.7257C100.691 32.3487 100.552 32.0566 100.489 31.6829C100.382 31.1122 100.654 30.5826 101.103 30.2648C101.363 30.0804 101.593 30.0251 101.814 30.0708C102.066 30.1217 102.284 30.2773 102.545 30.6454L103.829 32.4588C103.969 32.6563 104.134 32.8897 104.203 33.0831C104.277 33.3008 104.286 33.4287 104.158 33.6276C104.105 33.7054 104.007 33.815 103.924 33.8875L104.045 34.0581L105.822 32.7995L105.701 32.6289C105.614 32.6771 105.479 32.7328 105.397 32.7504C105.136 32.8005 104.996 32.7372 104.84 32.5921C104.724 32.4855 104.569 32.2854 104.435 32.0968ZM105.472 28.7747C104.868 27.9218 104.987 27.2714 105.517 26.8964C106.038 26.5277 106.709 26.6187 107.313 27.4715C107.923 28.3334 107.777 29.0028 107.247 29.3779C106.726 29.7466 106.082 29.6365 105.472 28.7747ZM110.74 29.9511C110.091 29.0354 109.423 29.2526 108.687 29.7738C108.372 29.9963 107.648 30.5905 107.351 30.8003C107.019 31.0355 106.735 31.0343 106.564 30.7919C106.347 30.4867 106.662 30.0749 106.977 29.8524C107.123 29.7354 107.304 29.6479 107.402 29.578C108.112 29.0758 108.593 27.9666 107.932 27.0329C107.862 26.9342 107.768 26.8392 107.686 26.7621C107.577 26.6645 107.461 26.5579 107.385 26.4501C107.238 26.2437 107.21 25.9942 107.336 25.9052C107.461 25.8162 107.558 25.8959 107.7 25.9438C107.826 25.989 107.957 25.964 108.056 25.8941C108.208 25.786 108.276 25.5766 108.129 25.3701C107.945 25.1098 107.663 25.0536 107.402 25.238C107.097 25.4541 106.93 25.9227 107.138 26.3686L107.084 26.4067C106.48 26.2009 105.847 26.353 105.38 26.6836C104.644 27.2048 104.22 28.3002 104.862 29.2069C105.288 29.8084 105.943 29.9914 106.533 29.9107L106.571 29.9646C106.265 30.2753 106.011 30.7922 106.329 31.241C106.602 31.6271 107.092 31.6713 107.534 31.4391L107.566 31.484C106.96 32.0748 106.764 32.7121 107.095 33.1789C107.559 33.8343 108.468 33.7293 109.653 32.8902C110.587 32.2291 111.477 30.9924 110.74 29.9511ZM110.411 30.4395C110.984 31.2474 110.32 32.081 109.548 32.6277C108.669 33.2506 108.048 33.3261 107.66 32.7784C107.12 32.0154 107.853 31.3752 108.24 31.0469C108.524 30.8191 108.834 30.5723 109.092 30.4033C109.595 30.0474 110.011 29.8739 110.411 30.4395Z" fill="black"/>
<path d="M207.449 48.8027L209.723 46.3507C210.112 45.9312 210.294 45.8154 210.495 45.7611C210.695 45.7069 210.867 45.7159 211.041 45.8028C211.144 45.8534 211.24 45.912 211.36 46.0087L211.502 45.8554L209.752 44.2324L209.61 44.3857C209.699 44.4835 209.813 44.6193 209.888 44.7488C209.989 44.9318 210.016 45.0475 210 45.2427C209.97 45.4696 209.862 45.6994 209.473 46.1188L207.192 48.5789C206.728 49.079 206.302 49.3442 205.91 49.4602C205.34 49.6218 204.669 49.3902 203.992 48.7619C203.33 48.1486 203.078 47.4498 203.456 46.7195C203.636 46.3469 203.92 46.0403 204.115 45.8306L206.067 43.7254C206.583 43.1689 206.882 42.8462 207.174 42.7418C207.381 42.6639 207.577 42.6955 207.759 42.7742C207.846 42.8099 207.95 42.876 208.062 42.9652L208.212 42.8038L206.251 40.9864L206.102 41.1477C206.199 41.253 206.281 41.3589 206.323 41.4429C206.415 41.6029 206.475 41.7641 206.398 41.9772C206.292 42.2691 206.046 42.5664 205.471 43.1875L203.773 45.0185C203.511 45.3008 203.062 45.7847 202.847 46.2599C202.437 47.1549 202.944 48.2255 203.799 49.0183C204.541 49.7064 205.399 49.962 206.031 49.7825C206.555 49.6382 206.963 49.327 207.449 48.8027ZM210.593 53.1726C211.169 52.5516 210.902 51.8689 210.503 50.9888C210.113 50.1473 209.979 49.7087 210.398 49.257C210.727 48.9021 211.227 48.9299 211.622 49.2964C211.864 49.5208 211.981 49.7499 212.013 49.9744C212.073 50.3146 211.954 50.6849 211.768 51.1123L211.913 51.2469L212.853 50.1529L212.748 50.0557L212.378 50.1475L212.329 50.1026C212.311 49.8308 212.22 49.4607 211.808 49.0792C211.131 48.451 210.299 48.4901 209.821 49.0063C209.162 49.7162 209.411 50.3217 209.801 51.1787C210.234 52.1354 210.375 52.5659 209.934 53.0418C209.515 53.4935 209.014 53.4035 208.562 52.9846C207.981 52.4461 207.98 51.5899 208.467 50.6764L208.298 50.5194L207.095 51.8646L207.24 51.9993L207.685 51.8268L207.742 51.8791C207.751 52.338 208.012 52.8497 208.367 53.1788C208.996 53.7622 209.882 53.9389 210.593 53.1726ZM213.547 57.6973L213.626 57.5153C213.516 57.4883 213.381 57.4078 213.308 57.3405C213.211 57.2507 213.168 57.1511 213.18 57.0417C213.198 56.8932 213.308 56.7255 213.667 56.3384L215.746 54.096C216.262 53.5395 215.919 52.8908 215.37 52.3822C214.959 52.0008 214.303 51.7376 213.931 51.7827C213.745 51.7898 213.584 51.8659 213.464 51.9949C213.3 52.1724 213.323 52.3894 213.461 52.5166C213.646 52.6886 213.818 52.6977 214.059 52.4862C214.277 52.2989 214.493 52.2441 214.705 52.2906C214.887 52.3538 215.054 52.4487 215.207 52.5908C215.586 52.9423 215.597 53.2377 215.216 53.649L214.655 54.254C214.442 54.3866 214.014 54.3949 213.476 54.1506C212.906 53.9074 212.555 53.6716 212.002 53.6691C211.66 53.682 211.37 53.8486 211.183 54.0503C210.615 54.6633 210.727 55.3674 211.3 55.8984C211.848 56.407 212.438 56.3536 212.768 56.24L212.825 56.2923C212.571 56.5821 212.531 56.7704 212.578 56.9633C212.613 57.0709 212.679 57.1774 212.816 57.3045C213.05 57.5214 213.375 57.6726 213.547 57.6973ZM214.348 54.5847L213.181 55.843C212.737 56.2256 212.086 56.1023 211.747 55.7881C211.376 55.4441 211.289 54.9881 211.715 54.5284C211.947 54.2783 212.177 54.1763 212.417 54.1594C212.642 54.1431 212.934 54.2333 213.336 54.3816C213.676 54.5011 214.077 54.6183 214.348 54.5847ZM217.257 56.5315C217.967 55.7652 218.628 55.7481 219.104 56.1894C219.572 56.6232 219.621 57.2985 218.91 58.0648C218.192 58.8391 217.507 58.8338 217.031 58.3925C216.563 57.9587 216.539 57.3058 217.257 56.5315ZM217.188 61.9282C217.951 61.1055 217.601 60.496 216.939 59.8827C216.657 59.6209 215.927 59.0336 215.66 58.7867C215.362 58.51 215.305 58.2319 215.507 58.0142C215.761 57.7399 216.229 57.9636 216.511 58.2253C216.656 58.3444 216.778 58.5033 216.867 58.5855C217.504 59.1764 218.689 59.4197 219.467 58.5808C219.549 58.4921 219.622 58.3804 219.681 58.2847C219.754 58.1574 219.835 58.0221 219.924 57.9253C220.096 57.7398 220.335 57.6607 220.448 57.7654C220.561 57.8701 220.503 57.9813 220.485 58.1299C220.466 58.2629 220.518 58.3855 220.607 58.4678C220.744 58.5949 220.962 58.6178 221.134 58.4323C221.351 58.1984 221.348 57.9105 221.114 57.6936C220.84 57.4393 220.347 57.3723 219.954 57.6673L219.905 57.6225C219.983 56.9891 219.703 56.4002 219.284 56.0113C218.623 55.398 217.463 55.2082 216.708 56.0229C216.207 56.5633 216.162 57.2422 216.363 57.8028L216.318 57.8512C215.951 57.616 215.393 57.4736 215.019 57.8769C214.697 58.2237 214.755 58.7119 215.073 59.0969L215.035 59.1372C214.333 58.6656 213.669 58.605 213.28 59.0245C212.734 59.6133 213.023 60.4819 214.088 61.4692C214.927 62.247 216.32 62.8639 217.188 61.9282ZM216.642 61.7075C215.969 62.4334 215.017 61.9556 214.323 61.3124C213.533 60.5794 213.332 59.9877 213.788 59.4957C214.424 58.8101 215.201 59.3956 215.602 59.7074C215.883 59.9381 216.188 60.1912 216.407 60.4087C216.858 60.8276 217.114 61.1993 216.642 61.7075ZM222.631 59.9254C222.959 59.9442 223.244 60.0735 223.47 60.283C223.744 60.5373 223.863 60.7819 223.896 61.053C223.931 61.3553 223.833 61.6392 223.496 62.0022C223.167 62.3571 223.027 62.3624 222.777 62.1305L221.132 60.6047C221.713 60.1235 222.257 59.9084 222.631 59.9254ZM222.582 64.185L222.464 63.9559C221.816 64.3151 221.09 64.4514 220.396 63.8082C220.066 63.5016 219.88 63.1349 219.873 62.7227C219.875 62.17 220.247 61.5099 220.703 61.0178C220.778 60.9372 220.846 60.8646 220.921 60.7995L223.454 63.148C223.567 63.0581 223.732 62.8962 223.859 62.7591C224.398 62.1783 224.697 61.0306 223.656 60.0658C222.729 59.2056 221.17 59.3501 220.138 60.4632C219.607 61.0359 219.282 61.7098 219.302 62.4484C219.308 63.0242 219.546 63.5445 220.03 63.9933C220.739 64.6515 221.668 64.7176 222.582 64.185Z" fill="black"/>
<path d="M125.215 243.644H123.4L121.002 249.925H120.925L118.56 243.644H116.602V243.864C116.734 243.875 116.888 243.886 117.009 243.93C117.185 243.996 117.339 244.084 117.438 244.293C117.548 244.557 117.581 244.876 117.581 245.503V249.474C117.581 250.024 117.504 250.266 117.372 250.453C117.251 250.629 117.13 250.706 116.943 250.761C116.844 250.794 116.723 250.816 116.58 250.827V251.047H118.89V250.827C118.725 250.805 118.626 250.783 118.505 250.75C118.34 250.695 118.219 250.607 118.109 250.442C117.988 250.266 117.922 250.024 117.922 249.474V244.524H118.01L120.54 251.102H120.892L123.411 244.546H123.488V248.902C123.488 249.617 123.466 250.079 123.323 250.398C123.235 250.607 123.07 250.717 122.872 250.772C122.784 250.794 122.63 250.816 122.509 250.827V251.047H125.215V250.827C125.094 250.816 124.973 250.794 124.896 250.772C124.676 250.706 124.511 250.607 124.423 250.398C124.291 250.09 124.28 249.617 124.28 248.902V245.8C124.28 245.03 124.291 244.612 124.423 244.304C124.533 244.095 124.687 243.996 124.852 243.93C124.951 243.897 125.094 243.875 125.215 243.864V243.644ZM130.628 250.937L130.562 250.75C130.463 250.805 130.309 250.838 130.21 250.838C130.078 250.838 129.979 250.794 129.913 250.706C129.825 250.585 129.792 250.387 129.792 249.859V246.801C129.792 246.042 129.099 245.8 128.351 245.8C127.79 245.8 127.13 246.053 126.888 246.339C126.756 246.471 126.69 246.636 126.69 246.812C126.69 247.054 126.855 247.197 127.042 247.197C127.295 247.197 127.427 247.087 127.46 246.768C127.493 246.482 127.614 246.295 127.801 246.185C127.977 246.108 128.164 246.064 128.373 246.064C128.89 246.064 129.099 246.273 129.099 246.834V247.659C129.033 247.901 128.725 248.198 128.164 248.385C127.581 248.594 127.163 248.66 126.756 249.034C126.514 249.276 126.415 249.595 126.415 249.87C126.415 250.706 126.976 251.146 127.757 251.146C128.505 251.146 128.901 250.706 129.066 250.398H129.143C129.154 250.783 129.253 250.948 129.418 251.058C129.517 251.113 129.638 251.146 129.825 251.146C130.144 251.146 130.485 251.036 130.628 250.937ZM129.099 248.11V249.826C129.033 250.409 128.472 250.761 128.01 250.761C127.504 250.761 127.13 250.486 127.13 249.859C127.13 249.518 127.229 249.287 127.394 249.111C127.548 248.946 127.823 248.814 128.219 248.649C128.549 248.506 128.923 248.319 129.099 248.11ZM134.393 250.365C134.162 250.629 133.865 250.772 133.524 250.772C132.985 250.772 132.82 250.53 132.82 250.079L132.831 246.24H134.217V245.932H132.831V244.172H132.655C132.281 245.558 131.929 245.932 131.313 246.031V246.218C131.423 246.218 132.017 246.229 132.149 246.229C132.138 246.394 132.138 250.002 132.138 250.068C132.138 250.508 132.215 250.706 132.391 250.86C132.644 251.069 132.908 251.146 133.315 251.146C133.766 251.146 134.217 250.948 134.514 250.508L134.393 250.365ZM136.774 246.394C137.027 246.185 137.324 246.086 137.632 246.086C138.006 246.086 138.259 246.185 138.468 246.361C138.699 246.559 138.82 246.834 138.82 247.329C138.82 247.813 138.721 247.912 138.38 247.912H136.136C136.235 247.164 136.488 246.636 136.774 246.394ZM139.634 249.551L139.392 249.463C139.161 250.167 138.721 250.761 137.775 250.761C137.324 250.761 136.939 250.618 136.653 250.321C136.279 249.914 136.103 249.177 136.103 248.506C136.103 248.396 136.103 248.297 136.114 248.198H139.568C139.59 248.055 139.601 247.824 139.601 247.637C139.601 246.845 139.04 245.8 137.621 245.8C136.356 245.8 135.311 246.966 135.311 248.484C135.311 249.265 135.531 249.98 136.048 250.508C136.444 250.926 136.972 251.146 137.632 251.146C138.6 251.146 139.326 250.563 139.634 249.551ZM142.235 247.076H142.169C142.169 247.12 142.202 245.976 142.202 245.998C142.202 245.965 142.18 245.932 142.125 245.932H140.783V246.13C140.948 246.163 141.113 246.196 141.256 246.284C141.355 246.35 141.443 246.46 141.476 246.592C141.509 246.724 141.509 247.12 141.509 247.307V249.672C141.509 249.892 141.509 250.134 141.465 250.321C141.399 250.563 141.311 250.662 141.124 250.761C141.014 250.794 140.871 250.827 140.772 250.838V251.047H142.972V250.838C142.851 250.827 142.73 250.805 142.609 250.761C142.477 250.717 142.4 250.607 142.334 250.453C142.246 250.266 142.202 250.057 142.202 249.628V248.484C142.202 248.198 142.213 247.857 142.224 247.791C142.323 246.944 142.884 246.262 143.236 246.262C143.368 246.262 143.478 246.306 143.544 246.449C143.621 246.647 143.709 246.823 143.973 246.823C144.27 246.823 144.369 246.603 144.369 246.394C144.369 246.185 144.292 246.053 144.215 245.976C144.083 245.866 143.896 245.8 143.698 245.8C143.324 245.8 143.06 245.954 142.862 246.119C142.62 246.328 142.433 246.581 142.235 247.076ZM146.207 244.645C146.493 244.645 146.713 244.436 146.713 244.139C146.713 243.853 146.504 243.622 146.207 243.622C145.932 243.622 145.723 243.842 145.723 244.139C145.723 244.436 145.932 244.645 146.207 244.645ZM146.548 246.988C146.548 246.548 146.57 246.24 146.581 246.009C146.581 245.954 146.548 245.932 146.504 245.932H145.14V246.13C145.382 246.163 145.503 246.207 145.613 246.284C145.723 246.361 145.767 246.438 145.811 246.581C145.844 246.702 145.855 247.12 145.855 247.296V249.848C145.855 250.035 145.855 250.189 145.811 250.365C145.767 250.541 145.646 250.662 145.47 250.75C145.393 250.794 145.239 250.827 145.14 250.838V251.047H147.285V250.838C147.175 250.827 147.021 250.783 146.944 250.75C146.79 250.673 146.647 250.585 146.592 250.365C146.559 250.222 146.548 250.013 146.548 249.848V246.988ZM152.636 250.937L152.57 250.75C152.471 250.805 152.317 250.838 152.218 250.838C152.086 250.838 151.987 250.794 151.921 250.706C151.833 250.585 151.8 250.387 151.8 249.859V246.801C151.8 246.042 151.107 245.8 150.359 245.8C149.798 245.8 149.138 246.053 148.896 246.339C148.764 246.471 148.698 246.636 148.698 246.812C148.698 247.054 148.863 247.197 149.05 247.197C149.303 247.197 149.435 247.087 149.468 246.768C149.501 246.482 149.622 246.295 149.809 246.185C149.985 246.108 150.172 246.064 150.381 246.064C150.898 246.064 151.107 246.273 151.107 246.834V247.659C151.041 247.901 150.733 248.198 150.172 248.385C149.589 248.594 149.171 248.66 148.764 249.034C148.522 249.276 148.423 249.595 148.423 249.87C148.423 250.706 148.984 251.146 149.765 251.146C150.513 251.146 150.909 250.706 151.074 250.398H151.151C151.162 250.783 151.261 250.948 151.426 251.058C151.525 251.113 151.646 251.146 151.833 251.146C152.152 251.146 152.493 251.036 152.636 250.937ZM151.107 248.11V249.826C151.041 250.409 150.48 250.761 150.018 250.761C149.512 250.761 149.138 250.486 149.138 249.859C149.138 249.518 149.237 249.287 149.402 249.111C149.556 248.946 149.831 248.814 150.227 248.649C150.557 248.506 150.931 248.319 151.107 248.11ZM154.927 244.315C154.927 243.908 154.949 243.512 154.949 243.292C154.949 243.237 154.927 243.215 154.872 243.215H153.508V243.424C153.728 243.435 153.871 243.457 153.992 243.545C154.091 243.622 154.146 243.699 154.19 243.842C154.234 243.974 154.234 244.381 154.234 244.546V249.771C154.234 249.98 154.234 250.178 154.19 250.343C154.135 250.552 154.025 250.673 153.849 250.75C153.761 250.794 153.629 250.827 153.519 250.838V251.047H155.62V250.838C155.51 250.827 155.389 250.794 155.29 250.75C155.125 250.662 155.015 250.552 154.96 250.31C154.927 250.145 154.927 249.958 154.927 249.771V244.315ZM160.301 249.628C160.301 248.781 159.641 248.462 158.75 248.088C157.892 247.736 157.496 247.505 157.496 246.889C157.496 246.405 157.881 246.086 158.42 246.086C158.75 246.086 158.992 246.174 159.168 246.317C159.443 246.526 159.608 246.878 159.762 247.318H159.96L159.905 245.877H159.762L159.553 246.196H159.487C159.289 246.009 158.97 245.8 158.409 245.8C157.485 245.8 156.902 246.394 156.902 247.098C156.902 248.066 157.496 248.341 158.365 248.704C159.333 249.111 159.729 249.331 159.729 249.98C159.729 250.596 159.3 250.871 158.684 250.871C157.892 250.871 157.309 250.244 157.045 249.243H156.814L156.847 251.047H157.045L157.254 250.618H157.331C157.65 250.948 158.189 251.146 158.673 251.146C159.531 251.146 160.301 250.673 160.301 249.628ZM119.646 262.254H119.448C119.294 262.584 119.173 262.936 118.722 263.332C118.491 263.541 118.128 263.772 117.358 263.772H116.742C116.478 263.772 116.17 263.728 116.016 263.618C115.697 263.387 115.697 262.837 115.697 262.364V260.351H116.555C117.028 260.351 117.27 260.428 117.446 260.593C117.688 260.802 117.765 261.209 117.787 261.506H117.996V258.921H117.787C117.765 259.207 117.699 259.603 117.446 259.823C117.27 259.999 117.039 260.065 116.555 260.065H115.697V258.107C115.697 257.766 115.73 257.293 115.994 257.062C116.115 256.952 116.335 256.93 116.489 256.93H117.314C117.842 256.93 118.227 257.128 118.359 257.238C118.722 257.513 118.898 257.865 119.107 258.338H119.327L119.03 256.644H113.959V256.853C114.091 256.864 114.201 256.875 114.3 256.908C114.509 256.985 114.652 257.084 114.762 257.293C114.883 257.612 114.916 258.074 114.916 258.789V261.902C114.916 262.617 114.894 263.101 114.751 263.409C114.652 263.596 114.509 263.684 114.289 263.761C114.201 263.794 114.091 263.816 113.959 263.827V264.047H119.338L119.646 262.254ZM122.412 264.047V263.838C122.291 263.827 122.181 263.794 122.06 263.728C121.961 263.673 121.862 263.574 121.862 263.442C121.862 263.277 121.961 263.09 122.203 262.738L122.841 261.814H122.874L123.721 263.046C123.864 263.266 123.919 263.376 123.919 263.508C123.919 263.651 123.82 263.717 123.732 263.761C123.644 263.794 123.534 263.827 123.391 263.838V264.047H125.503V263.838C125.338 263.816 125.162 263.739 125.052 263.662C124.876 263.541 124.623 263.222 124.37 262.848L123.314 261.264L123.897 260.395C124.293 259.812 124.447 259.526 124.832 259.284C124.942 259.229 125.129 259.152 125.272 259.119V258.932H123.468V259.13C123.622 259.152 123.754 259.174 123.853 259.229C123.941 259.273 124.007 259.361 124.007 259.515C124.007 259.691 123.93 259.867 123.677 260.241L123.182 261.011H123.149L122.412 259.911C122.28 259.724 122.203 259.614 122.203 259.449C122.203 259.317 122.291 259.251 122.412 259.207C122.511 259.174 122.599 259.152 122.731 259.13V258.932H120.641V259.13C120.839 259.163 120.982 259.24 121.081 259.306C121.257 259.438 121.433 259.702 121.697 260.087L122.698 261.561L121.972 262.595C121.543 263.211 121.345 263.464 121.048 263.651C120.927 263.728 120.795 263.805 120.608 263.838V264.047H122.412ZM129.151 263.365C128.92 263.629 128.623 263.772 128.282 263.772C127.743 263.772 127.578 263.53 127.578 263.079L127.589 259.24H128.975V258.932H127.589V257.172H127.413C127.039 258.558 126.687 258.932 126.071 259.031V259.218C126.181 259.218 126.775 259.229 126.907 259.229C126.896 259.394 126.896 263.002 126.896 263.068C126.896 263.508 126.973 263.706 127.149 263.86C127.402 264.069 127.666 264.146 128.073 264.146C128.524 264.146 128.975 263.948 129.272 263.508L129.151 263.365ZM131.551 260.076H131.485C131.485 260.12 131.518 258.976 131.518 258.998C131.518 258.965 131.496 258.932 131.441 258.932H130.099V259.13C130.264 259.163 130.429 259.196 130.572 259.284C130.671 259.35 130.759 259.46 130.792 259.592C130.825 259.724 130.825 260.12 130.825 260.307V262.672C130.825 262.892 130.825 263.134 130.781 263.321C130.715 263.563 130.627 263.662 130.44 263.761C130.33 263.794 130.187 263.827 130.088 263.838V264.047H132.288V263.838C132.167 263.827 132.046 263.805 131.925 263.761C131.793 263.717 131.716 263.607 131.65 263.453C131.562 263.266 131.518 263.057 131.518 262.628V261.484C131.518 261.198 131.529 260.857 131.54 260.791C131.639 259.944 132.2 259.262 132.552 259.262C132.684 259.262 132.794 259.306 132.86 259.449C132.937 259.647 133.025 259.823 133.289 259.823C133.586 259.823 133.685 259.603 133.685 259.394C133.685 259.185 133.608 259.053 133.531 258.976C133.399 258.866 133.212 258.8 133.014 258.8C132.64 258.8 132.376 258.954 132.178 259.119C131.936 259.328 131.749 259.581 131.551 260.076ZM138.67 263.937L138.604 263.75C138.505 263.805 138.351 263.838 138.252 263.838C138.12 263.838 138.021 263.794 137.955 263.706C137.867 263.585 137.834 263.387 137.834 262.859V259.801C137.834 259.042 137.141 258.8 136.393 258.8C135.832 258.8 135.172 259.053 134.93 259.339C134.798 259.471 134.732 259.636 134.732 259.812C134.732 260.054 134.897 260.197 135.084 260.197C135.337 260.197 135.469 260.087 135.502 259.768C135.535 259.482 135.656 259.295 135.843 259.185C136.019 259.108 136.206 259.064 136.415 259.064C136.932 259.064 137.141 259.273 137.141 259.834V260.659C137.075 260.901 136.767 261.198 136.206 261.385C135.623 261.594 135.205 261.66 134.798 262.034C134.556 262.276 134.457 262.595 134.457 262.87C134.457 263.706 135.018 264.146 135.799 264.146C136.547 264.146 136.943 263.706 137.108 263.398H137.185C137.196 263.783 137.295 263.948 137.46 264.058C137.559 264.113 137.68 264.146 137.867 264.146C138.186 264.146 138.527 264.036 138.67 263.937ZM137.141 261.11V262.826C137.075 263.409 136.514 263.761 136.052 263.761C135.546 263.761 135.172 263.486 135.172 262.859C135.172 262.518 135.271 262.287 135.436 262.111C135.59 261.946 135.865 261.814 136.261 261.649C136.591 261.506 136.965 261.319 137.141 261.11ZM141.918 259.075C142.468 259.075 142.677 259.218 142.831 259.79C142.93 260.087 143.04 260.296 143.326 260.296C143.557 260.296 143.7 260.164 143.7 259.889C143.7 259.746 143.656 259.548 143.502 259.372C143.249 259.086 142.842 258.8 141.929 258.8C140.642 258.8 139.608 259.955 139.608 261.462C139.608 262.507 139.971 263.2 140.477 263.618C140.84 263.948 141.28 264.146 141.885 264.146C142.875 264.146 143.557 263.53 143.832 262.606L143.568 262.518C143.392 263.057 142.996 263.783 141.929 263.783C141.599 263.783 141.258 263.64 141.038 263.431C140.642 263.035 140.378 262.386 140.378 261.407C140.378 260.406 140.664 259.702 141.082 259.361C141.302 259.185 141.61 259.075 141.918 259.075ZM147.683 263.365C147.452 263.629 147.155 263.772 146.814 263.772C146.275 263.772 146.11 263.53 146.11 263.079L146.121 259.24H147.507V258.932H146.121V257.172H145.945C145.571 258.558 145.219 258.932 144.603 259.031V259.218C144.713 259.218 145.307 259.229 145.439 259.229C145.428 259.394 145.428 263.002 145.428 263.068C145.428 263.508 145.505 263.706 145.681 263.86C145.934 264.069 146.198 264.146 146.605 264.146C147.056 264.146 147.507 263.948 147.804 263.508L147.683 263.365ZM149.753 257.645C150.039 257.645 150.259 257.436 150.259 257.139C150.259 256.853 150.05 256.622 149.753 256.622C149.478 256.622 149.269 256.842 149.269 257.139C149.269 257.436 149.478 257.645 149.753 257.645ZM150.094 259.988C150.094 259.548 150.116 259.24 150.127 259.009C150.127 258.954 150.094 258.932 150.05 258.932H148.686V259.13C148.928 259.163 149.049 259.207 149.159 259.284C149.269 259.361 149.313 259.438 149.357 259.581C149.39 259.702 149.401 260.12 149.401 260.296V262.848C149.401 263.035 149.401 263.189 149.357 263.365C149.313 263.541 149.192 263.662 149.016 263.75C148.939 263.794 148.785 263.827 148.686 263.838V264.047H150.831V263.838C150.721 263.827 150.567 263.783 150.49 263.75C150.336 263.673 150.193 263.585 150.138 263.365C150.105 263.222 150.094 263.013 150.094 262.848V259.988ZM151.99 261.473C151.99 263.145 153.156 264.146 154.388 264.146C155.62 264.146 156.786 263.134 156.786 261.462C156.786 259.801 155.62 258.8 154.388 258.8C153.145 258.8 151.99 259.801 151.99 261.473ZM152.771 261.473C152.771 260.494 153.013 259.823 153.453 259.427C153.717 259.185 154.069 259.075 154.388 259.075C154.696 259.075 155.048 259.174 155.312 259.427C155.752 259.834 155.994 260.505 155.994 261.473C155.994 262.43 155.741 263.112 155.312 263.519C155.048 263.772 154.707 263.871 154.388 263.871C154.058 263.871 153.717 263.772 153.442 263.508C153.013 263.112 152.771 262.43 152.771 261.473ZM162.642 262.672V260.153C162.642 259.592 162.444 259.251 162.18 259.053C161.949 258.899 161.674 258.8 161.3 258.8C160.893 258.8 160.508 258.921 160.233 259.108C159.958 259.262 159.672 259.526 159.474 259.933H159.408C159.419 259.746 159.43 259.152 159.43 258.998C159.43 258.943 159.408 258.932 159.353 258.932H158.011V259.13C158.187 259.152 158.363 259.207 158.495 259.284C158.605 259.35 158.671 259.438 158.704 259.581C158.737 259.724 158.737 260.032 158.737 260.296V262.562C158.737 262.826 158.737 263.134 158.715 263.277C158.66 263.552 158.539 263.662 158.286 263.761C158.209 263.794 158.066 263.827 157.967 263.838V264.047H160.189V263.838C160.079 263.827 159.969 263.794 159.87 263.761C159.628 263.662 159.529 263.53 159.485 263.332C159.441 263.156 159.441 262.859 159.441 262.617V261.176C159.441 260.714 159.496 260.395 159.661 260.054C159.903 259.526 160.431 259.251 160.981 259.251C161.3 259.251 161.52 259.339 161.674 259.504C161.85 259.691 161.938 259.944 161.938 260.395V262.617C161.938 262.859 161.938 263.145 161.883 263.343C161.817 263.563 161.751 263.673 161.531 263.761C161.443 263.794 161.3 263.827 161.19 263.838V264.047H163.368V263.838C163.269 263.827 163.126 263.794 163.049 263.761C162.807 263.651 162.73 263.519 162.686 263.31C162.653 263.156 162.642 262.903 162.642 262.672Z" fill="black"/>
<path d="M25.3751 144.038L25.1732 144.092C25.1967 144.223 25.2117 144.321 25.2083 144.436C25.1987 144.655 25.1564 144.837 24.9773 144.976C24.7111 145.173 24.2415 145.333 23.5508 145.518L20.5439 146.324C19.8533 146.509 19.4013 146.607 19.059 146.562C18.8422 146.518 18.723 146.413 18.5917 146.22C18.5342 146.133 18.4816 146.022 18.4368 145.897L18.2243 145.954L19.0414 149.004C19.2265 149.694 19.5722 150.262 19.9284 150.657C20.7053 151.473 21.9147 151.992 23.551 151.553C25.1554 151.124 25.981 150.082 26.2369 148.955C26.3617 148.443 26.3829 147.8 26.1523 146.939L25.3751 144.038ZM23.324 150.749C22.0065 151.102 21.0503 150.891 20.349 150.441C19.8016 150.098 19.475 149.559 19.3042 148.922L19.196 148.518C19.1021 148.168 19.0819 147.922 19.1753 147.761C19.3202 147.494 19.6467 147.395 20.1461 147.261L24.9274 145.98C25.1399 145.923 25.3418 145.869 25.4688 145.961C25.5659 146.026 25.6454 146.152 25.7252 146.45L25.8732 147.002C26.0526 147.672 26.0739 148.304 25.8407 148.879C25.4966 149.677 24.6734 150.387 23.324 150.749ZM26.7599 153.074C26.834 153.351 27.0928 153.509 27.3797 153.432C27.6559 153.358 27.825 153.096 27.7481 152.81C27.6769 152.544 27.4103 152.399 27.1234 152.476C26.8366 152.553 26.6888 152.809 26.7599 153.074ZM24.585 154.01C25.01 153.896 25.3132 153.838 25.5392 153.789C25.5923 153.774 25.6051 153.737 25.5937 153.694L25.2406 152.377L25.0494 152.428C25.0801 152.67 25.069 152.799 25.023 152.925C24.9771 153.051 24.9142 153.113 24.7874 153.193C24.6791 153.256 24.2782 153.375 24.1082 153.42L21.6431 154.081C21.4625 154.129 21.3137 154.169 21.1324 154.172C20.951 154.175 20.8028 154.09 20.6722 153.942C20.6098 153.88 20.538 153.739 20.5018 153.647L20.2999 153.701L20.8551 155.773L21.057 155.718C21.0391 155.609 21.0418 155.449 21.0537 155.366C21.0882 155.198 21.1362 155.037 21.3345 154.927C21.4641 154.858 21.6631 154.793 21.8225 154.75L24.585 154.01ZM23.4311 159.904C24.2493 159.685 24.3866 158.965 24.5172 158.007C24.6352 157.087 24.7558 156.645 25.3508 156.485C25.8183 156.36 26.2261 156.65 26.3656 157.17C26.451 157.489 26.4286 157.745 26.3361 157.952C26.2054 158.272 25.9081 158.523 25.5229 158.785L25.5741 158.977L26.9518 158.55L26.9148 158.412L26.5526 158.293L26.5355 158.229C26.6649 157.99 26.7842 157.627 26.639 157.086C26.3998 156.193 25.6752 155.784 24.9952 155.966C24.0602 156.216 23.9483 156.861 23.8226 157.795C23.68 158.835 23.57 159.274 22.9431 159.442C22.3481 159.602 21.9714 159.259 21.812 158.664C21.607 157.899 22.0617 157.173 22.9603 156.659L22.9005 156.436L21.1665 156.935L21.2178 157.126L21.6862 157.217L21.7062 157.291C21.47 157.685 21.4182 158.257 21.5435 158.724C21.7656 159.553 22.4217 160.174 23.4311 159.904ZM23.7203 163.831C23.4055 163.676 23.1905 163.426 23.1022 163.097C22.9627 162.576 23.1538 162.354 23.5894 162.237L27.3005 161.254L27.6592 162.593L27.9567 162.513L27.598 161.174L29.298 160.719L29.2524 160.549C27.8169 160.546 27.3645 160.303 27.1095 159.734L26.9288 159.782C26.9573 159.888 27.1004 160.465 27.1346 160.593C26.9723 160.625 23.4873 161.558 23.4235 161.576C22.9985 161.689 22.8272 161.815 22.724 162.025C22.5876 162.323 22.5816 162.598 22.6869 162.991C22.8036 163.427 23.1116 163.811 23.6135 163.984L23.7203 163.831ZM27.5183 165.297L27.5013 165.234C27.4588 165.245 28.5723 164.981 28.5511 164.986C28.5829 164.978 28.6091 164.948 28.5949 164.895L28.2476 163.599L28.0563 163.65C28.0671 163.818 28.078 163.986 28.03 164.147C27.9918 164.259 27.9084 164.373 27.7894 164.439C27.6704 164.505 27.2879 164.607 27.1073 164.656L24.8229 165.268C24.6104 165.325 24.3766 165.388 24.1846 165.393C23.9338 165.392 23.8154 165.333 23.6714 165.178C23.611 165.08 23.5421 164.951 23.5059 164.858L23.304 164.912L23.8734 167.037L24.0753 166.983C24.0546 166.863 24.0445 166.741 24.0557 166.612C24.064 166.473 24.1504 166.371 24.282 166.267C24.4399 166.134 24.6304 166.037 25.0448 165.926L26.1498 165.63C26.426 165.556 26.7583 165.478 26.8249 165.472C27.6686 165.348 28.4726 165.714 28.5637 166.054C28.5978 166.181 28.5838 166.299 28.4628 166.399C28.2914 166.525 28.1442 166.656 28.2125 166.911C28.2894 167.198 28.5275 167.236 28.7294 167.182C28.9313 167.128 29.0389 167.019 29.0933 166.925C29.1654 166.769 29.1808 166.572 29.1295 166.38C29.0327 166.019 28.8156 165.804 28.605 165.655C28.3405 165.476 28.0477 165.36 27.5183 165.297ZM30.8947 168.506C30.9687 168.782 31.2276 168.94 31.5144 168.863C31.7907 168.789 31.9597 168.528 31.8829 168.241C31.8117 167.975 31.5451 167.83 31.2582 167.907C30.9713 167.984 30.8236 168.24 30.8947 168.506ZM28.7198 169.441C29.1448 169.327 29.448 169.269 29.674 169.22C29.7271 169.206 29.7398 169.168 29.7285 169.126L29.3754 167.808L29.1842 167.859C29.2149 168.102 29.2037 168.23 29.1578 168.356C29.1119 168.482 29.0489 168.545 28.9222 168.624C28.8139 168.687 28.413 168.806 28.243 168.852L25.7779 169.512C25.5973 169.561 25.4485 169.6 25.2671 169.603C25.0857 169.607 24.9376 169.521 24.807 169.374C24.7446 169.311 24.6728 169.171 24.6366 169.078L24.4347 169.132L24.9899 171.204L25.1918 171.15C25.1739 171.041 25.1766 170.88 25.1885 170.798C25.223 170.629 25.271 170.468 25.4693 170.358C25.5989 170.289 25.7979 170.224 25.9573 170.182L28.7198 169.441ZM33.1397 171.359L32.7639 169.956L32.5727 170.008C32.6133 170.202 32.6461 170.409 32.5769 170.576C32.5359 170.678 32.468 170.765 32.3625 170.838C32.2754 170.896 32.0764 170.961 31.9064 171.006L26.4026 172.481C26.1157 172.558 25.7303 172.65 25.374 172.722L25.4309 172.935L26.1986 173.207L26.2243 173.303C25.8839 173.69 25.7238 174.325 25.8719 174.878C26.1139 175.781 27.1391 176.93 29.041 176.42C30.9748 175.902 31.3432 174.642 31.0813 173.664C30.9019 172.995 30.4351 172.528 29.7044 172.393L29.6873 172.33L31.7167 171.786C32.2905 171.632 32.8013 171.541 33.0881 171.464C33.1413 171.45 33.1511 171.401 33.1397 171.359ZM30.7291 173.668C30.9512 174.496 30.4964 175.222 28.8283 175.669C27.4576 176.036 26.415 175.757 26.1559 174.79C26.0477 174.387 26.067 173.949 26.3281 173.605C26.5969 173.249 26.9566 173.061 27.626 172.882L28.6992 172.594C29.4004 172.406 29.7797 172.589 30.03 172.716C30.4179 172.931 30.6181 173.253 30.7291 173.668ZM29.3097 182.225L31.6047 181.61C32.1891 181.454 32.5773 181.373 32.9067 181.284C32.9704 181.267 32.9754 181.243 32.9611 181.19L32.5996 179.841L32.4083 179.892C32.4432 180.065 32.452 180.267 32.4011 180.418C32.3475 180.557 32.2689 180.647 32.1287 180.718C32.0069 180.774 31.6988 180.856 31.5394 180.899L30.0837 181.289C29.7544 181.377 29.4221 181.455 29.1423 181.473C28.7795 181.479 28.4654 181.37 28.2116 181.187C27.974 181.023 27.8072 180.783 27.7332 180.507C27.6478 180.188 27.6567 179.924 27.7995 179.692C27.9522 179.412 28.2298 179.258 28.6973 179.132L30.8117 178.566C31.3111 178.432 31.7602 178.323 32.0953 178.256C32.159 178.239 32.1611 178.204 32.1497 178.162L31.7853 176.802L31.5941 176.853C31.6347 177.047 31.6484 177.226 31.6053 177.363C31.5749 177.462 31.5205 177.556 31.3725 177.641C31.2642 177.704 31.0439 177.775 30.8101 177.838L28.4513 178.47C27.8776 178.623 27.6461 178.822 27.4869 179.035C27.1743 179.484 27.2252 179.971 27.3277 180.354C27.4416 180.779 27.6679 181.071 27.9169 181.278C28.1304 181.437 28.3161 181.535 28.7393 181.627L28.7563 181.69L27.9595 181.904C27.8957 181.921 27.8724 181.961 27.8838 182.004L28.2311 183.3L28.433 183.246C28.4094 183.116 28.3851 182.94 28.4098 182.82C28.4435 182.605 28.5646 182.505 28.7551 182.408C28.9165 182.331 29.1184 182.277 29.3097 182.225ZM29.9084 186.925C29.5937 186.77 29.3787 186.52 29.2904 186.191C29.1509 185.67 29.3419 185.448 29.7776 185.332L33.4886 184.349L33.8473 185.687L34.1448 185.608L33.7861 184.269L35.4861 183.813L35.4406 183.643C34.005 183.641 33.5527 183.398 33.2976 182.828L33.117 182.877C33.1454 182.983 33.2886 183.56 33.3227 183.687C33.1605 183.719 29.6754 184.653 29.6117 184.67C29.1867 184.784 29.0154 184.91 28.9122 185.119C28.7758 185.418 28.7697 185.693 28.875 186.086C28.9918 186.522 29.2998 186.906 29.8016 187.079L29.9084 186.925ZM35.9693 187.444C36.0433 187.72 36.3021 187.879 36.589 187.802C36.8652 187.728 37.0343 187.466 36.9574 187.179C36.8862 186.914 36.6196 186.769 36.3327 186.845C36.0459 186.922 35.8981 187.178 35.9693 187.444ZM33.7943 188.38C34.2194 188.266 34.5225 188.207 34.7485 188.158C34.8017 188.144 34.8144 188.106 34.803 188.064L34.4499 186.746L34.2587 186.798C34.2894 187.04 34.2783 187.168 34.2324 187.294C34.1865 187.421 34.1235 187.483 33.9967 187.562C33.8884 187.626 33.4875 187.744 33.3175 187.79L30.8524 188.451C30.6718 188.499 30.5231 188.539 30.3417 188.542C30.1603 188.545 30.0121 188.459 29.8815 188.312C29.8191 188.249 29.7474 188.109 29.7111 188.016L29.5092 188.07L30.0644 190.142L30.2663 190.088C30.2484 189.979 30.2511 189.819 30.263 189.736C30.2975 189.567 30.3455 189.406 30.5438 189.296C30.6734 189.227 30.8724 189.163 31.0318 189.12L33.7943 188.38ZM32.8507 190.596C31.2357 191.028 30.5706 192.414 30.8895 193.604C31.2083 194.794 32.4876 195.658 34.1026 195.225C35.707 194.795 36.3722 193.41 36.0533 192.22C35.7316 191.019 34.4658 190.163 32.8507 190.596ZM33.0529 191.35C33.9985 191.097 34.7093 191.157 35.2057 191.479C35.5077 191.672 35.7051 191.983 35.7877 192.291C35.8674 192.589 35.8629 192.954 35.6868 193.275C35.4076 193.805 34.8221 194.213 33.887 194.463C32.9626 194.711 32.2384 194.643 31.7342 194.334C31.4215 194.144 31.2376 193.841 31.1551 193.533C31.0697 193.214 31.077 192.859 31.2609 192.525C31.5323 192.008 32.1285 191.598 33.0529 191.35ZM34.4495 201.195L36.8827 200.543C37.4246 200.398 37.7027 200.118 37.8256 199.812C37.9146 199.549 37.939 199.258 37.8422 198.897C37.7369 198.503 37.5204 198.163 37.2686 197.946C37.0486 197.72 36.7196 197.512 36.2752 197.426L36.2582 197.362C36.4416 197.325 37.0182 197.181 37.167 197.142C37.2201 197.127 37.2251 197.103 37.2108 197.05L36.8635 195.754L36.6722 195.805C36.6965 195.981 36.689 196.165 36.6487 196.312C36.6135 196.436 36.5455 196.522 36.416 196.591C36.2864 196.66 35.9889 196.74 35.7339 196.808L33.5451 197.395C33.2901 197.463 32.9926 197.543 32.8487 197.558C32.5689 197.576 32.4313 197.488 32.2702 197.269C32.2184 197.203 32.1495 197.074 32.1133 196.981L31.9114 197.035L32.4865 199.181L32.6884 199.127C32.6705 199.018 32.6739 198.903 32.6802 198.799C32.7132 198.54 32.815 198.41 32.9949 198.316C33.1535 198.228 33.4404 198.151 33.6742 198.089L35.0661 197.716C35.5123 197.596 35.8347 197.567 36.2068 197.638C36.7794 197.735 37.1817 198.174 37.324 198.705C37.4066 199.013 37.3785 199.249 37.259 199.44C37.124 199.658 36.9023 199.809 36.4667 199.926L34.3204 200.501C34.0867 200.563 33.8104 200.637 33.6049 200.636C33.3753 200.629 33.252 200.593 33.1101 200.404C33.0554 200.327 32.9865 200.198 32.9474 200.094L32.7456 200.148L33.3093 202.252L33.5111 202.198C33.4961 202.1 33.491 201.953 33.503 201.87C33.5466 201.608 33.6541 201.499 33.8446 201.403C33.9848 201.331 34.2264 201.255 34.4495 201.195Z" fill="black"/>
<path d="M228.77 199.801L228.689 199.982C228.928 200.257 229.2 200.511 229.378 201.084C229.475 201.38 229.538 201.806 229.225 202.509L228.974 203.072C228.867 203.313 228.701 203.576 228.538 203.672C228.197 203.87 227.695 203.646 227.263 203.453L225.424 202.634L225.773 201.85C225.966 201.418 226.135 201.228 226.357 201.135C226.647 200.999 227.05 201.094 227.33 201.195L227.415 201.004L225.054 199.952L224.969 200.143C225.221 200.279 225.556 200.501 225.654 200.821C225.743 201.054 225.709 201.292 225.512 201.734L225.163 202.518L223.374 201.721C223.063 201.582 222.644 201.359 222.541 201.024C222.49 200.869 222.559 200.659 222.622 200.518L222.957 199.765C223.172 199.282 223.51 199.011 223.664 198.935C224.063 198.716 224.456 198.698 224.973 198.7L225.063 198.499L223.395 198.081L221.331 202.713L221.522 202.798C221.585 202.682 221.64 202.586 221.711 202.509C221.866 202.349 222.015 202.259 222.25 202.243C222.591 202.263 223.027 202.421 223.68 202.712L226.523 203.979C227.176 204.27 227.609 204.487 227.833 204.743C227.963 204.909 227.985 205.076 227.966 205.308C227.96 205.402 227.936 205.511 227.892 205.636L228.093 205.726L230.282 200.812L228.77 199.801ZM231.54 194.611L229.239 193.586C228.726 193.358 228.334 193.4 228.046 193.561C227.811 193.709 227.609 193.92 227.457 194.261C227.291 194.633 227.245 195.034 227.304 195.361C227.332 195.675 227.457 196.044 227.748 196.391L227.722 196.451C227.555 196.365 227.017 196.113 226.876 196.05C226.826 196.028 226.807 196.043 226.785 196.094L226.239 197.32L226.419 197.4C226.511 197.248 226.633 197.11 226.757 197.021C226.862 196.947 226.969 196.923 227.113 196.951C227.258 196.979 227.539 197.104 227.78 197.211L229.85 198.134C230.091 198.241 230.372 198.366 230.494 198.445C230.723 198.607 230.774 198.762 230.762 199.034C230.76 199.117 230.732 199.261 230.702 199.356L230.893 199.441L231.797 197.412L231.606 197.327C231.552 197.423 231.477 197.51 231.406 197.587C231.217 197.768 231.056 197.804 230.858 197.764C230.679 197.732 230.408 197.612 230.187 197.513L228.87 196.927C228.448 196.739 228.179 196.558 227.935 196.269C227.551 195.833 227.515 195.239 227.739 194.736C227.869 194.445 228.038 194.28 228.252 194.206C228.494 194.122 228.761 194.144 229.173 194.328L231.203 195.232C231.424 195.331 231.685 195.447 231.844 195.578C232.018 195.728 232.091 195.833 232.082 196.07C232.076 196.163 232.048 196.307 232.014 196.412L232.205 196.497L233.091 194.508L232.9 194.423C232.85 194.509 232.761 194.626 232.7 194.683C232.501 194.859 232.349 194.876 232.14 194.831C231.986 194.798 231.751 194.706 231.54 194.611ZM233.335 189.312C234.199 189.697 234.661 190.445 234.311 191.229C233.953 192.032 233.085 192.44 231.518 191.742C229.99 191.061 229.621 190.078 229.984 189.264C230.15 188.893 230.348 188.692 230.647 188.56C230.996 188.427 231.395 188.448 231.968 188.703L233.335 189.312ZM235.655 188.78L235.464 188.695C235.414 188.781 235.312 188.929 235.221 188.997C235.065 189.132 234.909 189.158 234.714 189.108C234.55 189.071 234.349 188.981 234.168 188.901L229.777 186.944C229.225 186.698 228.611 186.401 228.294 186.247C228.233 186.22 228.209 186.222 228.186 186.272L227.596 187.598L227.776 187.679C227.858 187.522 227.95 187.371 228.078 187.271C228.188 187.188 228.29 187.149 228.464 187.19C228.638 187.232 229.159 187.44 229.451 187.57L230.888 188.21L230.87 188.25C230.482 188.282 230.033 188.479 229.728 189.163C229.272 190.187 229.466 191.671 231.194 192.441C232.812 193.162 234.079 192.534 234.518 191.549C234.836 190.836 234.672 190.149 234.274 189.718L234.3 189.658L234.763 189.864C234.863 189.909 234.984 189.963 235.059 189.984C235.103 189.992 235.132 189.981 235.155 189.93C235.177 189.88 235.615 188.871 235.655 188.78ZM234.836 184.266C236.364 184.947 237.752 184.289 238.254 183.164C238.755 182.038 238.305 180.561 236.778 179.881C235.261 179.205 233.872 179.863 233.371 180.988C232.865 182.123 233.309 183.586 234.836 184.266ZM235.154 183.553C234.26 183.154 233.745 182.66 233.563 182.097C233.449 181.758 233.492 181.391 233.622 181.1C233.747 180.819 233.981 180.537 234.319 180.399C234.87 180.163 235.582 180.215 236.466 180.609C237.34 180.998 237.86 181.507 238.057 182.065C238.181 182.409 238.132 182.76 238.003 183.052C237.868 183.353 237.639 183.624 237.286 183.768C236.75 183.999 236.028 183.942 235.154 183.553ZM240.524 177.825L240.333 177.74C240.283 177.825 240.196 177.967 240.125 178.044C239.942 178.24 239.774 178.237 239.541 178.193C239.372 178.166 239.117 178.065 238.946 177.988L235.811 176.592L236.362 175.356L236.08 175.23L235.53 176.466L234.495 176.005C234.133 175.844 233.881 175.708 233.703 175.484C233.526 175.26 233.456 175.012 233.577 174.741C233.662 174.55 233.751 174.458 233.853 174.419C233.945 174.375 234.034 174.391 234.218 174.437C234.388 174.488 234.497 174.513 234.605 174.489C234.741 174.453 234.837 174.399 234.913 174.229C235.007 174.018 234.915 173.82 234.683 173.717C234.412 173.596 234.14 173.667 233.896 173.836C233.676 173.978 233.508 174.193 233.36 174.524C233.195 174.896 233.163 175.291 233.335 175.717C233.494 176.089 233.796 176.465 234.585 176.804L235.248 177.099L234.943 177.783L235.225 177.908L235.529 177.225L238.664 178.621C238.865 178.711 239.036 178.787 239.213 178.902C239.426 179.045 239.503 179.224 239.497 179.426C239.493 179.545 239.455 179.684 239.429 179.769L239.62 179.854L240.524 177.825ZM242.187 174.093L244.363 169.209L242.683 168.088L242.589 168.299C242.924 168.628 243.217 168.916 243.4 169.479C243.519 169.833 243.606 170.233 243.288 170.946L243.037 171.509C242.889 171.84 242.679 172.096 242.341 172.126C242.14 172.145 241.91 172.066 241.558 171.91L237.951 170.302C237.358 170.038 237.025 169.866 236.798 169.62C236.637 169.44 236.609 169.259 236.631 169.076C236.645 168.962 236.674 168.843 236.714 168.728L236.513 168.638L235.425 171.08L235.626 171.169C235.685 171.063 235.744 170.957 235.815 170.88C235.965 170.706 236.109 170.626 236.35 170.625C236.671 170.635 237.036 170.762 237.629 171.026L240.753 172.418C241.336 172.678 241.674 172.865 241.891 173.082C242.052 173.261 242.089 173.447 242.06 173.675C242.044 173.764 242.02 173.874 241.976 173.999L242.187 174.093ZM239.539 164.306C239.655 164.044 239.554 163.758 239.283 163.638C239.021 163.521 238.725 163.618 238.604 163.889C238.492 164.141 238.608 164.421 238.88 164.542C239.151 164.663 239.427 164.557 239.539 164.306ZM241.818 164.948C241.416 164.769 241.144 164.623 240.937 164.519C240.887 164.497 240.853 164.518 240.835 164.558L240.28 165.804L240.461 165.885C240.59 165.677 240.679 165.584 240.794 165.515C240.909 165.446 240.998 165.437 241.146 165.455C241.27 165.474 241.656 165.635 241.817 165.706L244.148 166.745C244.319 166.821 244.46 166.884 244.603 166.995C244.745 167.107 244.807 167.267 244.815 167.464C244.824 167.552 244.792 167.706 244.762 167.801L244.952 167.886L245.825 165.927L245.635 165.841C245.58 165.937 245.477 166.06 245.415 166.117C245.282 166.226 245.144 166.321 244.92 166.282C244.776 166.254 244.581 166.179 244.43 166.112L241.818 164.948ZM247.175 162.898L246.984 162.813C246.933 162.899 246.846 163.041 246.776 163.118C246.592 163.313 246.425 163.311 246.191 163.267C246.023 163.24 245.767 163.138 245.596 163.062L242.461 161.665L243.012 160.429L242.731 160.304L242.18 161.54L241.145 161.079C240.783 160.918 240.531 160.781 240.354 160.558C240.176 160.334 240.106 160.086 240.227 159.815C240.312 159.624 240.402 159.531 240.503 159.492C240.595 159.449 240.684 159.465 240.868 159.511C241.038 159.562 241.148 159.587 241.255 159.562C241.391 159.527 241.487 159.473 241.563 159.302C241.657 159.091 241.565 158.894 241.334 158.791C241.062 158.67 240.79 158.741 240.546 158.909C240.326 159.052 240.158 159.266 240.011 159.598C239.845 159.97 239.813 160.365 239.985 160.791C240.144 161.163 240.447 161.538 241.235 161.878L241.898 162.173L241.594 162.856L241.875 162.982L242.179 162.298L245.314 163.695C245.515 163.785 245.686 163.861 245.864 163.976C246.077 164.119 246.154 164.298 246.148 164.5C246.143 164.618 246.105 164.758 246.079 164.843L246.27 164.928L247.175 162.898ZM244.096 158.375C244.008 158.058 244.039 157.747 244.164 157.465C244.316 157.124 244.51 156.933 244.756 156.814C245.03 156.683 245.331 156.685 245.783 156.886C246.225 157.083 246.275 157.214 246.136 157.525L245.223 159.575C244.58 159.18 244.201 158.734 244.096 158.375ZM248.144 157.047L247.965 157.232C248.514 157.73 248.878 158.373 248.493 159.237C248.309 159.649 248.022 159.943 247.634 160.083C247.11 160.259 246.365 160.12 245.752 159.847C245.652 159.802 245.561 159.762 245.475 159.712L246.881 156.557C246.759 156.478 246.553 156.374 246.382 156.298C245.659 155.976 244.476 156.063 243.898 157.359C243.384 158.515 244.023 159.944 245.41 160.562C246.123 160.879 246.866 160.969 247.559 160.712C248.102 160.52 248.517 160.128 248.786 159.525C249.18 158.641 248.943 157.74 248.144 157.047ZM234.945 204.1L234.206 205.758L238.968 210.504L238.936 210.575L232.236 210.179L231.44 211.967L231.641 212.057C231.704 211.94 231.777 211.804 231.866 211.712C231.998 211.578 232.141 211.473 232.373 211.468C232.659 211.475 232.963 211.574 233.536 211.829L237.163 213.445C237.666 213.669 237.855 213.838 237.973 214.035C238.084 214.217 238.105 214.359 238.079 214.552C238.069 214.656 238.04 214.775 237.992 214.91L238.193 215L239.133 212.89L238.932 212.8C238.845 212.942 238.784 213.024 238.705 213.121C238.588 213.249 238.458 213.324 238.262 213.357C238.052 213.396 237.805 213.358 237.302 213.134L232.781 211.119L232.816 211.039L239.855 211.405L239.998 211.084L235.035 206.115L235.066 206.044L239.045 207.817C239.698 208.108 240.111 208.316 240.344 208.577C240.499 208.742 240.533 208.938 240.502 209.141C240.487 209.23 240.444 209.38 240.405 209.495L240.606 209.584L241.707 207.112L241.506 207.023C241.447 207.129 241.377 207.231 241.326 207.292C241.176 207.466 241.019 207.576 240.792 207.572C240.457 207.567 240.02 207.385 239.367 207.094L236.534 205.831C235.83 205.518 235.453 205.338 235.225 205.092C235.079 204.906 235.052 204.725 235.058 204.548C235.069 204.444 235.107 204.304 235.146 204.189L234.945 204.1ZM243.81 202.123L243.612 202.107C243.622 202.22 243.589 202.374 243.549 202.465C243.495 202.585 243.415 202.658 243.308 202.682C243.161 202.713 242.967 202.663 242.485 202.448L239.691 201.203C238.998 200.895 238.495 201.429 238.191 202.112C237.962 202.625 237.925 203.331 238.088 203.668C238.154 203.842 238.278 203.97 238.439 204.041C238.66 204.14 238.858 204.047 238.934 203.877C239.037 203.645 238.99 203.48 238.712 203.32C238.464 203.174 238.343 202.987 238.318 202.771C238.32 202.579 238.356 202.391 238.441 202.2C238.651 201.727 238.927 201.622 239.44 201.85L240.193 202.186C240.387 202.344 240.533 202.747 240.476 203.335C240.429 203.953 240.32 204.361 240.496 204.885C240.618 205.205 240.869 205.425 241.12 205.537C241.884 205.877 242.514 205.544 242.832 204.831C243.137 204.147 242.896 203.607 242.682 203.331L242.713 203.26C243.069 203.407 243.26 203.384 243.428 203.278C243.518 203.21 243.598 203.112 243.674 202.942C243.804 202.65 243.842 202.294 243.81 202.123ZM240.605 202.369L242.173 203.068C242.678 203.365 242.771 204.021 242.583 204.443C242.377 204.905 241.974 205.135 241.401 204.88C241.09 204.741 240.919 204.556 240.826 204.334C240.738 204.126 240.729 203.821 240.739 203.392C240.743 203.033 240.724 202.615 240.605 202.369ZM244.916 196.531L242.615 195.506C242.103 195.277 241.711 195.319 241.423 195.48C241.188 195.628 240.986 195.839 240.833 196.181C240.668 196.553 240.622 196.954 240.68 197.281C240.709 197.595 240.834 197.963 241.125 198.31L241.098 198.37C240.932 198.284 240.394 198.032 240.253 197.97C240.203 197.947 240.184 197.963 240.162 198.013L239.615 199.239L239.796 199.319C239.888 199.168 240.01 199.029 240.134 198.94C240.239 198.866 240.346 198.842 240.49 198.87C240.634 198.898 240.916 199.023 241.157 199.131L243.227 200.053C243.468 200.16 243.749 200.286 243.871 200.364C244.1 200.526 244.151 200.682 244.138 200.953C244.137 201.037 244.109 201.181 244.079 201.276L244.27 201.361L245.174 199.331L244.983 199.246C244.928 199.342 244.853 199.429 244.783 199.506C244.594 199.687 244.433 199.724 244.234 199.683C244.056 199.652 243.784 199.531 243.563 199.432L242.247 198.846C241.825 198.658 241.556 198.478 241.312 198.188C240.928 197.752 240.892 197.158 241.116 196.656C241.245 196.364 241.415 196.199 241.629 196.126C241.871 196.041 242.138 196.064 242.55 196.247L244.58 197.151C244.801 197.25 245.062 197.366 245.22 197.497C245.395 197.647 245.468 197.752 245.459 197.989C245.453 198.083 245.425 198.227 245.391 198.332L245.581 198.417L246.468 196.427L246.277 196.342C246.227 196.428 246.138 196.545 246.077 196.602C245.878 196.779 245.726 196.795 245.517 196.75C245.363 196.718 245.127 196.625 244.916 196.531ZM248.527 191.535L248.33 191.519C248.34 191.632 248.307 191.786 248.267 191.876C248.213 191.997 248.133 192.069 248.025 192.094C247.879 192.125 247.685 192.075 247.202 191.86L244.409 190.615C243.716 190.306 243.213 190.841 242.908 191.524C242.68 192.036 242.642 192.742 242.805 193.08C242.872 193.254 242.996 193.381 243.157 193.453C243.378 193.552 243.575 193.459 243.652 193.288C243.755 193.057 243.708 192.892 243.43 192.732C243.182 192.585 243.06 192.399 243.036 192.183C243.037 191.991 243.073 191.802 243.158 191.611C243.369 191.139 243.645 191.033 244.157 191.262L244.911 191.597C245.105 191.756 245.251 192.158 245.193 192.747C245.147 193.364 245.037 193.773 245.213 194.297C245.336 194.617 245.587 194.837 245.838 194.949C246.602 195.289 247.232 194.956 247.55 194.242C247.854 193.559 247.613 193.018 247.399 192.742L247.431 192.672C247.787 192.818 247.978 192.795 248.145 192.689C248.236 192.621 248.315 192.524 248.391 192.353C248.521 192.062 248.56 191.706 248.527 191.535ZM245.323 191.781L246.89 192.479C247.396 192.777 247.489 193.432 247.301 193.854C247.095 194.317 246.692 194.546 246.119 194.291C245.807 194.152 245.637 193.968 245.543 193.746C245.455 193.538 245.446 193.233 245.457 192.804C245.461 192.444 245.442 192.027 245.323 191.781ZM246.227 188.4C245.272 187.975 245.043 187.354 245.307 186.762C245.567 186.179 246.19 185.915 247.145 186.34C248.109 186.77 248.325 187.42 248.061 188.013C247.802 188.596 247.192 188.83 246.227 188.4ZM251.357 186.724C250.332 186.267 249.868 186.795 249.501 187.619C249.345 187.97 249.024 188.851 248.877 189.183C248.711 189.555 248.466 189.699 248.195 189.578C247.853 189.426 247.914 188.911 248.071 188.559C248.137 188.384 248.248 188.216 248.297 188.106C248.651 187.312 248.499 186.112 247.454 185.647C247.343 185.597 247.214 185.564 247.104 185.539C246.96 185.511 246.806 185.479 246.685 185.425C246.454 185.322 246.303 185.122 246.365 184.981C246.428 184.841 246.552 184.86 246.698 184.828C246.83 184.803 246.93 184.715 246.979 184.604C247.055 184.433 247.006 184.219 246.775 184.116C246.483 183.986 246.212 184.082 246.082 184.373C245.93 184.715 246.026 185.203 246.432 185.481L246.405 185.541C245.781 185.672 245.313 186.126 245.08 186.649C244.713 187.473 244.908 188.631 245.923 189.083C246.596 189.383 247.253 189.206 247.719 188.836L247.779 188.863C247.675 189.286 247.72 189.86 248.222 190.084C248.654 190.276 249.098 190.064 249.36 189.639L249.41 189.661C249.19 190.479 249.347 191.127 249.87 191.36C250.603 191.686 251.332 191.132 251.923 189.806C252.388 188.761 252.523 187.243 251.357 186.724ZM251.324 187.311C252.229 187.714 252.084 188.769 251.699 189.633C251.26 190.618 250.765 191 250.152 190.727C249.298 190.346 249.601 189.422 249.767 188.941C249.895 188.601 250.036 188.23 250.171 187.953C250.422 187.391 250.691 187.029 251.324 187.311ZM247.705 182.217C247.617 181.901 247.648 181.59 247.773 181.308C247.925 180.967 248.119 180.776 248.364 180.656C248.639 180.526 248.94 180.527 249.392 180.729C249.834 180.926 249.884 181.057 249.745 181.368L248.832 183.418C248.189 183.023 247.81 182.577 247.705 182.217ZM251.753 180.89L251.574 181.075C252.123 181.572 252.486 182.216 252.101 183.08C251.918 183.492 251.631 183.786 251.243 183.926C250.719 184.102 249.974 183.963 249.361 183.69C249.261 183.645 249.17 183.605 249.084 183.554L250.49 180.399C250.368 180.321 250.162 180.217 249.991 180.141C249.268 179.819 248.085 179.906 247.507 181.202C246.992 182.357 247.632 183.786 249.019 184.404C249.732 184.722 250.475 184.812 251.168 184.555C251.711 184.363 252.126 183.97 252.395 183.368C252.789 182.483 252.552 181.583 251.753 180.89ZM254.305 178.324C254.214 178.501 254.11 178.599 253.991 178.678C253.852 178.773 253.72 178.799 253.552 178.772C253.373 178.74 253.097 178.629 252.876 178.531L251.6 177.962C251.178 177.774 250.869 177.576 250.649 177.286C250.271 176.864 250.141 176.373 250.373 175.85C250.521 175.519 250.697 175.368 250.97 175.321C251.209 175.271 251.483 175.333 251.804 175.476L253.834 176.381C254.055 176.479 254.332 176.614 254.48 176.741C254.623 176.853 254.688 176.978 254.706 177.154C254.716 177.267 254.698 177.416 254.64 177.571L254.831 177.656L255.727 175.646L255.546 175.566C255.463 175.697 255.365 175.81 255.289 175.873C255.127 175.993 254.989 176.004 254.782 175.984C254.598 175.962 254.357 175.855 254.146 175.761L252.86 175.188C252.418 174.991 252.099 174.789 251.896 174.542C251.486 174.082 251.39 173.569 251.613 173.067C251.743 172.776 251.904 172.631 252.138 172.566C252.396 172.5 252.679 172.566 253.021 172.719L255.061 173.627C255.282 173.726 255.533 173.838 255.696 173.959C255.839 174.07 255.918 174.19 255.927 174.387C255.937 174.499 255.919 174.648 255.872 174.808L256.063 174.893L256.953 172.893L256.773 172.813C256.718 172.909 256.629 173.026 256.553 173.088C256.378 173.239 256.236 173.26 255.998 173.226C255.83 173.199 255.608 173.101 255.397 173.007L253.117 171.991C252.604 171.762 252.25 171.773 251.942 171.925C251.701 172.058 251.503 172.235 251.314 172.657C251.167 172.988 251.133 173.335 251.192 173.662C251.241 173.985 251.358 174.29 251.659 174.641L251.637 174.691C251.267 174.574 250.972 174.588 250.726 174.707C250.456 174.827 250.249 175.048 250.083 175.42C249.913 175.802 249.9 176.157 249.973 176.479C250.021 176.777 250.157 177.066 250.437 177.384L250.405 177.454C250.199 177.35 249.705 177.106 249.575 177.048C249.535 177.03 249.51 177.031 249.488 177.081L248.933 178.327L249.113 178.408C249.215 178.26 249.323 178.128 249.447 178.038C249.537 177.97 249.669 177.945 249.803 177.968C249.947 177.996 250.228 178.122 250.48 178.234L252.59 179.174C252.811 179.272 253.056 179.37 253.204 179.472C253.408 179.635 253.468 179.77 253.469 180.011C253.459 180.115 253.441 180.264 253.41 180.359L253.591 180.439L254.496 178.409L254.305 178.324ZM253.756 168.636C253.668 168.32 253.699 168.008 253.824 167.727C253.976 167.385 254.17 167.195 254.415 167.075C254.69 166.945 254.991 166.946 255.443 167.148C255.885 167.345 255.935 167.475 255.796 167.787L254.883 169.837C254.24 169.442 253.861 168.996 253.756 168.636ZM257.804 167.309L257.625 167.494C258.174 167.991 258.538 168.635 258.153 169.499C257.969 169.911 257.682 170.204 257.294 170.345C256.77 170.521 256.025 170.382 255.412 170.109C255.312 170.064 255.221 170.024 255.135 169.973L256.541 166.818C256.419 166.74 256.213 166.636 256.042 166.56C255.319 166.237 254.136 166.325 253.558 167.621C253.043 168.776 253.683 170.205 255.07 170.823C255.783 171.141 256.526 171.231 257.219 170.974C257.762 170.782 258.177 170.389 258.446 169.786C258.84 168.902 258.603 168.002 257.804 167.309ZM260.289 162.028L257.988 161.003C257.476 160.775 257.084 160.817 256.795 160.977C256.561 161.126 256.358 161.336 256.206 161.678C256.04 162.05 255.994 162.451 256.053 162.778C256.082 163.092 256.207 163.461 256.498 163.807L256.471 163.867C256.305 163.781 255.767 163.529 255.626 163.467C255.576 163.444 255.557 163.46 255.534 163.51L254.988 164.736L255.169 164.817C255.261 164.665 255.383 164.526 255.507 164.437C255.612 164.364 255.719 164.339 255.863 164.367C256.007 164.395 256.288 164.521 256.529 164.628L258.599 165.55C258.84 165.658 259.122 165.783 259.243 165.861C259.472 166.023 259.523 166.179 259.511 166.45C259.51 166.534 259.482 166.678 259.451 166.773L259.642 166.858L260.547 164.828L260.356 164.743C260.301 164.839 260.226 164.926 260.156 165.003C259.967 165.184 259.806 165.221 259.607 165.18C259.428 165.149 259.157 165.028 258.936 164.93L257.62 164.343C257.198 164.155 256.929 163.975 256.684 163.686C256.301 163.25 256.264 162.655 256.488 162.153C256.618 161.862 256.788 161.696 257.001 161.623C257.244 161.538 257.511 161.561 257.923 161.744L259.952 162.649C260.173 162.747 260.435 162.864 260.593 162.994C260.767 163.144 260.841 163.249 260.832 163.486C260.826 163.58 260.798 163.724 260.763 163.829L260.954 163.914L261.84 161.924L261.65 161.839C261.599 161.925 261.511 162.043 261.449 162.099C261.25 162.276 261.099 162.292 260.89 162.247C260.736 162.215 260.5 162.122 260.289 162.028ZM262.818 158.055C262.965 158.374 262.975 158.703 262.836 159.015C262.617 159.507 262.328 159.559 261.916 159.376L258.414 157.803L258.978 156.537L258.697 156.412L258.133 157.678L256.525 156.961L256.454 157.122C257.567 158.028 257.766 158.502 257.605 159.105L257.776 159.181C257.821 159.08 258.073 158.542 258.127 158.422C258.273 158.499 261.569 159.967 261.629 159.994C262.031 160.173 262.243 160.183 262.455 160.085C262.749 159.939 262.927 159.729 263.092 159.358C263.276 158.946 263.279 158.453 262.998 158.003L262.818 158.055Z" fill="black"/>
</svg>
