<svg width="552" height="552" viewBox="0 0 552 552" fill="none" xmlns="http://www.w3.org/2000/svg">
<path d="M225.846 259.826C222.942 259.826 220.756 262.338 220.756 265.536C220.756 268.716 222.942 271.228 225.846 271.228C228.716 271.228 230.919 268.716 230.919 265.536C230.919 262.338 228.716 259.826 225.846 259.826ZM225.846 270.772C224.948 270.772 224.247 270.511 223.676 270.005C222.681 269.124 222.11 267.591 222.11 265.536C222.11 263.448 222.681 261.931 223.643 261.082C224.247 260.56 224.948 260.299 225.846 260.299C226.726 260.299 227.428 260.56 228.015 261.066C228.994 261.947 229.548 263.497 229.548 265.536C229.548 267.64 228.977 269.173 227.999 270.021C227.411 270.511 226.71 270.772 225.846 270.772ZM239.884 269.043V265.519C239.884 264.622 239.917 264.035 239.917 263.529C239.917 263.431 239.884 263.415 239.802 263.415H237.731V263.709C237.992 263.725 238.285 263.79 238.481 263.921C238.661 264.051 238.758 264.198 238.807 264.426C238.84 264.622 238.84 265.095 238.84 265.34V267.574C238.84 268.08 238.824 268.586 238.742 268.994C238.612 269.516 238.334 269.923 237.975 270.217C237.649 270.494 237.241 270.641 236.817 270.641C236.328 270.641 235.953 270.527 235.675 270.233C235.333 269.907 235.219 269.45 235.219 268.733V265.487C235.219 264.72 235.235 264.035 235.268 263.529C235.268 263.431 235.219 263.415 235.153 263.415H233.066V263.709C233.359 263.725 233.62 263.774 233.8 263.888C233.93 263.97 234.044 264.084 234.11 264.328C234.158 264.508 234.175 264.85 234.175 265.209V268.831C234.175 269.711 234.371 270.119 234.615 270.429C235.137 271.049 235.855 271.163 236.442 271.163C237.095 271.163 237.6 270.951 237.992 270.674C238.302 270.429 238.514 270.201 238.807 269.63H238.905V270.853C238.905 270.951 238.954 271 239.019 271H241.009V270.69C240.814 270.674 240.553 270.641 240.39 270.56C240.096 270.429 239.998 270.217 239.933 269.907C239.884 269.646 239.884 269.336 239.884 269.043ZM245.132 265.111H245.034C245.034 265.177 245.083 263.48 245.083 263.513C245.083 263.464 245.051 263.415 244.969 263.415H242.979V263.709C243.224 263.758 243.468 263.806 243.681 263.937C243.827 264.035 243.958 264.198 244.007 264.394C244.056 264.589 244.056 265.177 244.056 265.454V268.961C244.056 269.287 244.056 269.646 243.99 269.923C243.893 270.282 243.762 270.429 243.485 270.576C243.322 270.625 243.11 270.674 242.963 270.69V271H246.225V270.69C246.046 270.674 245.866 270.641 245.687 270.576C245.491 270.511 245.377 270.348 245.279 270.119C245.149 269.842 245.083 269.532 245.083 268.896V267.199C245.083 266.775 245.1 266.27 245.116 266.172C245.263 264.916 246.095 263.904 246.617 263.904C246.812 263.904 246.976 263.97 247.073 264.182C247.188 264.475 247.318 264.736 247.71 264.736C248.15 264.736 248.297 264.41 248.297 264.1C248.297 263.79 248.183 263.594 248.068 263.48C247.873 263.317 247.595 263.219 247.302 263.219C246.747 263.219 246.356 263.448 246.062 263.692C245.703 264.002 245.426 264.377 245.132 265.111ZM261.261 268.096C261.261 266.188 259.989 265.552 258.129 264.671C256.873 264.084 255.617 263.611 255.617 262.012C255.617 260.789 256.596 260.25 257.542 260.25C258.309 260.25 258.733 260.446 259.075 260.675C259.646 261.082 260.152 261.98 260.429 262.844H260.756L260.462 259.989H260.136L259.907 260.593H259.826C259.32 260.12 258.668 259.81 257.575 259.81C255.748 259.81 254.606 261.017 254.606 262.469C254.606 264.279 255.96 265.046 257.428 265.731C259.157 266.514 260.25 266.955 260.25 268.684C260.25 269.842 259.483 270.788 257.852 270.788C256.302 270.788 255.177 269.255 254.655 267.444H254.345L254.508 270.87H254.736L255.112 270.184H255.209C255.764 270.723 256.71 271.228 257.868 271.228C259.597 271.228 261.261 270.087 261.261 268.096ZM270.112 269.043V265.519C270.112 264.622 270.144 264.035 270.144 263.529C270.144 263.431 270.112 263.415 270.03 263.415H267.958V263.709C268.219 263.725 268.513 263.79 268.709 263.921C268.888 264.051 268.986 264.198 269.035 264.426C269.068 264.622 269.068 265.095 269.068 265.34V267.574C269.068 268.08 269.051 268.586 268.97 268.994C268.839 269.516 268.562 269.923 268.203 270.217C267.877 270.494 267.469 270.641 267.045 270.641C266.556 270.641 266.18 270.527 265.903 270.233C265.561 269.907 265.446 269.45 265.446 268.733V265.487C265.446 264.72 265.463 264.035 265.495 263.529C265.495 263.431 265.446 263.415 265.381 263.415H263.293V263.709C263.587 263.725 263.848 263.774 264.027 263.888C264.158 263.97 264.272 264.084 264.337 264.328C264.386 264.508 264.402 264.85 264.402 265.209V268.831C264.402 269.711 264.598 270.119 264.843 270.429C265.365 271.049 266.082 271.163 266.67 271.163C267.322 271.163 267.828 270.951 268.219 270.674C268.529 270.429 268.741 270.201 269.035 269.63H269.133V270.853C269.133 270.951 269.182 271 269.247 271H271.237V270.69C271.041 270.674 270.78 270.641 270.617 270.56C270.324 270.429 270.226 270.217 270.16 269.907C270.112 269.646 270.112 269.336 270.112 269.043ZM279.617 267.167C279.617 269.597 278.704 270.772 277.317 270.772C276.681 270.772 276.175 270.56 275.817 270.152C275.441 269.76 275.229 269.173 275.229 268.129V266.188C275.229 265.47 275.556 264.785 275.931 264.394C276.339 263.953 276.844 263.676 277.513 263.676C278.655 263.676 279.617 264.524 279.617 267.167ZM274.202 272.321C274.202 272.648 274.218 273.006 274.153 273.267C274.055 273.643 273.875 273.789 273.647 273.904C273.517 273.969 273.305 274.001 273.125 274.018V274.311H276.355V274.018C276.127 274.001 275.914 273.969 275.768 273.904C275.539 273.806 275.36 273.594 275.295 273.267C275.246 273.006 275.229 272.648 275.229 272.321V270.364H275.327C275.866 270.935 276.616 271.163 277.301 271.163C279.046 271.163 280.759 269.891 280.759 267.199C280.759 264.279 279.226 263.219 277.644 263.219C276.583 263.219 275.8 263.79 275.262 264.72H275.18L275.197 263.529C275.197 263.448 275.148 263.415 275.083 263.415H273.06V263.709C273.337 263.741 273.631 263.823 273.859 263.986C274.006 264.1 274.104 264.247 274.153 264.443C274.202 264.638 274.202 265.095 274.202 265.356V272.321ZM289.321 267.167C289.321 269.597 288.407 270.772 287.021 270.772C286.385 270.772 285.879 270.56 285.52 270.152C285.145 269.76 284.933 269.173 284.933 268.129V266.188C284.933 265.47 285.259 264.785 285.634 264.394C286.042 263.953 286.548 263.676 287.216 263.676C288.358 263.676 289.321 264.524 289.321 267.167ZM283.905 272.321C283.905 272.648 283.921 273.006 283.856 273.267C283.758 273.643 283.579 273.789 283.351 273.904C283.22 273.969 283.008 274.001 282.829 274.018V274.311H286.058V274.018C285.83 274.001 285.618 273.969 285.471 273.904C285.243 273.806 285.063 273.594 284.998 273.267C284.949 273.006 284.933 272.648 284.933 272.321V270.364H285.031C285.569 270.935 286.319 271.163 287.004 271.163C288.75 271.163 290.463 269.891 290.463 267.199C290.463 264.279 288.929 263.219 287.347 263.219C286.287 263.219 285.504 263.79 284.965 264.72H284.884L284.9 263.529C284.9 263.448 284.851 263.415 284.786 263.415H282.763V263.709C283.041 263.741 283.334 263.823 283.563 263.986C283.709 264.1 283.807 264.247 283.856 264.443C283.905 264.638 283.905 265.095 283.905 265.356V272.321ZM292.807 267.183C292.807 269.662 294.536 271.147 296.363 271.147C298.19 271.147 299.919 269.646 299.919 267.167C299.919 264.704 298.19 263.219 296.363 263.219C294.52 263.219 292.807 264.704 292.807 267.183ZM293.966 267.183C293.966 265.731 294.324 264.736 294.977 264.149C295.368 263.79 295.89 263.627 296.363 263.627C296.82 263.627 297.342 263.774 297.734 264.149C298.386 264.753 298.745 265.748 298.745 267.183C298.745 268.602 298.37 269.613 297.734 270.217C297.342 270.592 296.836 270.739 296.363 270.739C295.874 270.739 295.368 270.592 294.961 270.201C294.324 269.613 293.966 268.602 293.966 267.183ZM304.231 265.111H304.133C304.133 265.177 304.182 263.48 304.182 263.513C304.182 263.464 304.15 263.415 304.068 263.415H302.078V263.709C302.323 263.758 302.567 263.806 302.779 263.937C302.926 264.035 303.057 264.198 303.106 264.394C303.155 264.589 303.155 265.177 303.155 265.454V268.961C303.155 269.287 303.155 269.646 303.089 269.923C302.991 270.282 302.861 270.429 302.584 270.576C302.421 270.625 302.209 270.674 302.062 270.69V271H305.324V270.69C305.145 270.674 304.965 270.641 304.786 270.576C304.59 270.511 304.476 270.348 304.378 270.119C304.247 269.842 304.182 269.532 304.182 268.896V267.199C304.182 266.775 304.199 266.27 304.215 266.172C304.362 264.916 305.194 263.904 305.716 263.904C305.911 263.904 306.074 263.97 306.172 264.182C306.286 264.475 306.417 264.736 306.808 264.736C307.249 264.736 307.396 264.41 307.396 264.1C307.396 263.79 307.282 263.594 307.167 263.48C306.972 263.317 306.694 263.219 306.401 263.219C305.846 263.219 305.455 263.448 305.161 263.692C304.802 264.002 304.525 264.377 304.231 265.111ZM313.411 269.989C313.069 270.38 312.628 270.592 312.123 270.592C311.323 270.592 311.079 270.233 311.079 269.565L311.095 263.872H313.15V263.415H311.095V260.805H310.834C310.279 262.86 309.757 263.415 308.844 263.562V263.839C309.007 263.839 309.888 263.855 310.084 263.855C310.067 264.1 310.067 269.45 310.067 269.548C310.067 270.201 310.181 270.494 310.442 270.723C310.818 271.033 311.209 271.147 311.813 271.147C312.481 271.147 313.15 270.853 313.591 270.201L313.411 269.989ZM317.365 264.1C317.74 263.79 318.18 263.643 318.637 263.643C319.192 263.643 319.567 263.79 319.877 264.051C320.219 264.345 320.399 264.753 320.399 265.487C320.399 266.204 320.252 266.351 319.746 266.351H316.419C316.566 265.242 316.941 264.459 317.365 264.1ZM321.606 268.782L321.247 268.651C320.904 269.695 320.252 270.576 318.849 270.576C318.18 270.576 317.609 270.364 317.185 269.923C316.631 269.32 316.37 268.227 316.37 267.232C316.37 267.069 316.37 266.922 316.386 266.775H321.508C321.541 266.563 321.557 266.221 321.557 265.943C321.557 264.769 320.725 263.219 318.621 263.219C316.745 263.219 315.195 264.948 315.195 267.199C315.195 268.357 315.522 269.418 316.288 270.201C316.875 270.821 317.658 271.147 318.637 271.147C320.073 271.147 321.149 270.282 321.606 268.782ZM329.377 268.194C329.377 269.597 328.643 270.674 327.371 270.674C326.066 270.674 324.989 269.744 324.989 267.199C324.989 264.72 326.098 263.627 327.42 263.627C328.023 263.627 328.415 263.774 328.774 264.1C329.165 264.492 329.377 265.046 329.377 265.976V268.194ZM331.498 271.016V270.706C331.351 270.69 331.09 270.641 330.943 270.56C330.666 270.429 330.535 270.233 330.486 269.94C330.437 269.695 330.437 269.369 330.437 269.075V261.947C330.437 261.05 330.47 260.038 330.486 259.516C330.486 259.419 330.47 259.386 330.388 259.386H328.235V259.68C328.496 259.696 328.757 259.728 328.969 259.843C329.149 259.941 329.263 260.055 329.312 260.316C329.361 260.577 329.393 261.409 329.393 261.882V264.214H329.328C329.051 263.709 328.513 263.219 327.403 263.219C325.74 263.219 323.847 264.377 323.847 267.183C323.847 269.809 325.462 271.147 327.061 271.147C328.219 271.147 329.051 270.511 329.393 269.711H329.491V270.462C329.491 270.625 329.491 270.821 329.508 270.935C329.524 271 329.557 271.033 329.638 271.033C329.72 271.033 331.351 271.016 331.498 271.016ZM249.072 285.197C249.072 284.887 249.088 284.74 249.219 284.593C249.333 284.462 249.48 284.43 249.757 284.43H250.703C252.4 284.43 253.264 285.213 253.264 286.86C253.264 287.399 253.183 288.084 252.807 288.557C252.416 289.014 251.763 289.438 250.344 289.438C249.953 289.438 249.366 289.389 249.072 289.323V285.197ZM250.507 294.674C250.328 294.657 250.132 294.641 249.985 294.592C249.659 294.494 249.463 294.331 249.3 294.005C249.121 293.581 249.072 292.994 249.072 292.015V289.796C249.317 289.829 249.871 289.878 250.328 289.878C251.698 289.878 252.595 289.568 253.15 289.242C253.933 288.785 254.487 287.921 254.487 286.73C254.487 284.87 252.97 284.022 250.85 284.022H246.495V284.348C246.723 284.365 246.886 284.397 247 284.43C247.294 284.528 247.506 284.675 247.669 284.984C247.865 285.425 247.897 286.012 247.897 286.975V292.031C247.897 292.994 247.865 293.581 247.669 294.021C247.506 294.364 247.31 294.494 247.049 294.576C246.854 294.641 246.69 294.657 246.527 294.674V295H250.507V294.674ZM258.429 289.111H258.331C258.331 289.177 258.38 287.48 258.38 287.513C258.38 287.464 258.347 287.415 258.266 287.415H256.276V287.709C256.52 287.758 256.765 287.806 256.977 287.937C257.124 288.035 257.255 288.198 257.303 288.394C257.352 288.589 257.352 289.177 257.352 289.454V292.961C257.352 293.287 257.352 293.646 257.287 293.923C257.189 294.282 257.059 294.429 256.781 294.576C256.618 294.625 256.406 294.674 256.259 294.69V295H259.522V294.69C259.342 294.674 259.163 294.641 258.984 294.576C258.788 294.511 258.674 294.348 258.576 294.119C258.445 293.842 258.38 293.532 258.38 292.896V291.199C258.38 290.775 258.396 290.27 258.413 290.172C258.559 288.916 259.391 287.904 259.913 287.904C260.109 287.904 260.272 287.97 260.37 288.182C260.484 288.475 260.615 288.736 261.006 288.736C261.447 288.736 261.593 288.41 261.593 288.1C261.593 287.79 261.479 287.594 261.365 287.48C261.169 287.317 260.892 287.219 260.598 287.219C260.044 287.219 259.652 287.448 259.359 287.692C259 288.002 258.723 288.377 258.429 289.111ZM263.194 291.183C263.194 293.662 264.923 295.147 266.75 295.147C268.577 295.147 270.306 293.646 270.306 291.167C270.306 288.704 268.577 287.219 266.75 287.219C264.907 287.219 263.194 288.704 263.194 291.183ZM264.352 291.183C264.352 289.731 264.711 288.736 265.364 288.149C265.755 287.79 266.277 287.627 266.75 287.627C267.207 287.627 267.729 287.774 268.12 288.149C268.773 288.753 269.132 289.748 269.132 291.183C269.132 292.602 268.757 293.613 268.12 294.217C267.729 294.592 267.223 294.739 266.75 294.739C266.261 294.739 265.755 294.592 265.347 294.201C264.711 293.613 264.352 292.602 264.352 291.183ZM274.096 285.506C274.52 285.506 274.83 285.197 274.83 284.756C274.83 284.332 274.52 283.989 274.096 283.989C273.688 283.989 273.362 284.316 273.362 284.756C273.362 285.197 273.688 285.506 274.096 285.506ZM273.607 295.946C273.607 296.745 273.492 297.267 273.28 297.594C273.068 297.871 272.807 297.92 272.449 297.92C271.992 297.92 271.747 297.74 271.747 297.382C271.747 297.316 271.747 297.251 271.763 297.137C271.78 297.023 271.796 296.957 271.796 296.827C271.796 296.452 271.551 296.24 271.193 296.24C270.883 296.24 270.605 296.484 270.605 296.925C270.605 297.333 270.801 297.708 271.176 297.969C271.486 298.197 271.894 298.311 272.432 298.311C273.085 298.311 273.46 298.116 273.77 297.822C274.194 297.414 274.634 296.713 274.634 294.788V288.981C274.634 288.345 274.667 287.888 274.667 287.529C274.667 287.448 274.634 287.415 274.553 287.415H272.53V287.709C272.856 287.758 273.068 287.823 273.248 287.937C273.395 288.035 273.492 288.165 273.541 288.377C273.59 288.573 273.607 289.128 273.607 289.421V295.946ZM279.769 288.1C280.144 287.79 280.584 287.643 281.041 287.643C281.596 287.643 281.971 287.79 282.281 288.051C282.623 288.345 282.803 288.753 282.803 289.487C282.803 290.204 282.656 290.351 282.15 290.351H278.823C278.969 289.242 279.345 288.459 279.769 288.1ZM284.01 292.782L283.651 292.651C283.308 293.695 282.656 294.576 281.253 294.576C280.584 294.576 280.013 294.364 279.589 293.923C279.035 293.32 278.774 292.227 278.774 291.232C278.774 291.069 278.774 290.922 278.79 290.775H283.912C283.944 290.563 283.961 290.221 283.961 289.943C283.961 288.769 283.129 287.219 281.025 287.219C279.149 287.219 277.599 288.948 277.599 291.199C277.599 292.357 277.925 293.418 278.692 294.201C279.279 294.821 280.062 295.147 281.041 295.147C282.476 295.147 283.553 294.282 284.01 292.782ZM289.66 287.627C290.476 287.627 290.786 287.839 291.014 288.687C291.161 289.128 291.324 289.438 291.748 289.438C292.091 289.438 292.303 289.242 292.303 288.834C292.303 288.622 292.238 288.328 292.009 288.067C291.634 287.643 291.031 287.219 289.677 287.219C287.768 287.219 286.235 288.932 286.235 291.167C286.235 292.716 286.773 293.744 287.524 294.364C288.062 294.853 288.714 295.147 289.611 295.147C291.08 295.147 292.091 294.233 292.499 292.863L292.107 292.733C291.846 293.532 291.259 294.609 289.677 294.609C289.187 294.609 288.682 294.396 288.355 294.087C287.768 293.499 287.377 292.537 287.377 291.085C287.377 289.601 287.801 288.557 288.421 288.051C288.747 287.79 289.204 287.627 289.66 287.627ZM298.633 293.989C298.291 294.38 297.85 294.592 297.344 294.592C296.545 294.592 296.3 294.233 296.3 293.565L296.317 287.872H298.372V287.415H296.317V284.805H296.056C295.501 286.86 294.979 287.415 294.066 287.562V287.839C294.229 287.839 295.11 287.855 295.305 287.855C295.289 288.1 295.289 293.45 295.289 293.548C295.289 294.201 295.403 294.494 295.664 294.723C296.039 295.033 296.431 295.147 297.035 295.147C297.703 295.147 298.372 294.853 298.813 294.201L298.633 293.989ZM305.764 292.896C305.764 291.64 304.785 291.167 303.464 290.612C302.191 290.09 301.604 289.748 301.604 288.834C301.604 288.116 302.175 287.643 302.974 287.643C303.464 287.643 303.823 287.774 304.084 287.986C304.491 288.296 304.736 288.818 304.964 289.47H305.258L305.176 287.333H304.964L304.654 287.806H304.557C304.263 287.529 303.79 287.219 302.958 287.219C301.588 287.219 300.723 288.1 300.723 289.144C300.723 290.579 301.604 290.987 302.893 291.526C304.328 292.129 304.915 292.455 304.915 293.418C304.915 294.331 304.279 294.739 303.366 294.739C302.191 294.739 301.327 293.809 300.935 292.325H300.593L300.642 295H300.935L301.245 294.364H301.359C301.832 294.853 302.632 295.147 303.35 295.147C304.622 295.147 305.764 294.445 305.764 292.896Z" fill="black"/>
<path d="M276 396L276 551" stroke="black"/>
<path d="M276 1L276 156" stroke="black"/>
<path d="M396 276L551 276" stroke="black"/>
<path d="M1 276L156 276" stroke="black"/>
<circle cx="276" cy="276" r="275" stroke="black"/>
<circle cx="276" cy="276" r="120" stroke="black"/>
<path d="M109.659 137.829C110.477 137.01 111.169 136.78 112.058 136.814C112.796 136.86 113.672 137.137 114.734 137.76L114.976 137.518L112.438 134.98L112.242 135.176L112.415 135.88L112.369 135.926C111.654 135.995 110.524 136.318 109.359 137.483C107.502 139.34 107.421 142.72 109.797 145.096C112.185 147.483 115.31 147.679 117.386 145.603C118.932 144.058 119.105 142.154 118.171 140.297L117.813 140.424C118.805 142.454 118.113 143.908 117.121 144.9C116.521 145.499 115.979 145.88 115.16 146.03C114.099 146.215 112.669 146.076 110.766 144.173C109.013 142.42 108.667 140.966 108.747 139.871C108.77 138.902 109.186 138.302 109.659 137.829ZM126.041 136.396L125.775 136.269C125.729 136.43 125.602 136.626 125.498 136.73C125.36 136.868 125.21 136.926 125.049 136.903C124.829 136.868 124.587 136.695 124.034 136.142L120.827 132.935C120.031 132.139 119.051 132.612 118.266 133.397C117.678 133.985 117.251 134.942 117.298 135.496C117.298 135.773 117.401 136.015 117.586 136.199C117.84 136.453 118.163 136.43 118.359 136.234C118.624 135.969 118.647 135.715 118.347 135.346C118.082 135.011 118.013 134.688 118.093 134.377C118.197 134.112 118.347 133.87 118.566 133.65C119.108 133.108 119.547 133.108 120.135 133.697L121 134.562C121.185 134.885 121.173 135.519 120.781 136.303C120.389 137.134 120.02 137.641 119.985 138.46C119.985 138.968 120.216 139.406 120.504 139.694C121.381 140.571 122.43 140.444 123.249 139.625C124.034 138.841 123.987 137.964 123.837 137.468L123.918 137.388C124.333 137.78 124.61 137.849 124.899 137.791C125.06 137.745 125.222 137.653 125.418 137.457C125.752 137.122 125.994 136.649 126.041 136.396ZM121.473 135.035L123.272 136.834C123.814 137.514 123.595 138.472 123.111 138.956C122.58 139.487 121.9 139.591 121.242 138.933C120.885 138.576 120.746 138.23 120.735 137.872C120.723 137.537 120.873 137.111 121.115 136.522C121.311 136.026 121.508 135.438 121.473 135.035ZM124.729 129.61L124.66 129.679C124.706 129.725 123.541 128.491 123.564 128.514C123.53 128.48 123.472 128.468 123.414 128.526L122.007 129.933L122.215 130.14C122.422 130.002 122.63 129.864 122.872 129.806C123.045 129.771 123.253 129.794 123.426 129.898C123.599 130.002 124.014 130.417 124.21 130.613L126.69 133.093C126.921 133.324 127.174 133.578 127.324 133.82C127.509 134.143 127.52 134.339 127.428 134.639C127.347 134.789 127.232 134.973 127.14 135.089L127.359 135.308L129.666 133.001L129.447 132.782C129.308 132.897 129.158 133.001 128.985 133.082C128.801 133.174 128.605 133.139 128.374 133.047C128.086 132.943 127.82 132.77 127.37 132.32L126.171 131.121C125.871 130.821 125.525 130.452 125.467 130.371C124.683 129.379 124.556 128.076 124.925 127.707C125.064 127.568 125.225 127.499 125.444 127.58C125.733 127.707 126.009 127.799 126.286 127.522C126.598 127.211 126.471 126.876 126.252 126.657C126.032 126.438 125.813 126.38 125.652 126.38C125.398 126.403 125.133 126.53 124.925 126.738C124.533 127.13 124.418 127.568 124.383 127.949C124.348 128.422 124.418 128.883 124.729 129.61ZM125.204 121.038L123.681 122.561L123.889 122.769C124.108 122.572 124.35 122.376 124.615 122.342C124.777 122.319 124.938 122.342 125.111 122.423C125.25 122.492 125.48 122.699 125.665 122.884L131.64 128.859C131.951 129.17 132.355 129.597 132.712 130.001L132.943 129.77L132.724 128.582L132.828 128.478C133.577 128.628 134.512 128.363 135.111 127.763C136.092 126.782 136.807 124.614 134.742 122.549C132.643 120.45 130.752 120.912 129.69 121.973C128.964 122.699 128.71 123.645 129.079 124.683L129.01 124.752L126.807 122.549C126.184 121.927 125.688 121.338 125.377 121.027C125.319 120.969 125.25 120.992 125.204 121.038ZM129.956 122.423C130.855 121.523 132.124 121.569 133.935 123.38C135.423 124.868 135.838 126.413 134.789 127.463C134.35 127.901 133.773 128.201 133.139 128.12C132.482 128.04 131.974 127.717 131.247 126.99L130.083 125.825C129.321 125.064 129.275 124.441 129.252 124.026C129.241 123.368 129.506 122.872 129.956 122.423ZM136.391 120.878C138.144 122.631 140.416 122.458 141.708 121.166C143 119.874 143.162 117.59 141.408 115.837C139.667 114.096 137.395 114.269 136.103 115.56C134.799 116.864 134.638 119.124 136.391 120.878ZM137.21 120.059C136.183 119.032 135.734 118.075 135.78 117.198C135.803 116.668 136.057 116.183 136.391 115.849C136.714 115.526 137.187 115.26 137.729 115.249C138.617 115.214 139.574 115.664 140.59 116.679C141.593 117.683 142.043 118.663 142.02 119.54C142.008 120.082 141.754 120.543 141.42 120.878C141.074 121.224 140.613 121.477 140.047 121.489C139.182 121.524 138.213 121.062 137.21 120.059ZM149.117 110.666L146.476 108.025C145.888 107.436 145.322 107.286 144.838 107.356C144.434 107.436 144.042 107.621 143.65 108.013C143.223 108.44 142.946 108.97 142.854 109.455C142.727 109.905 142.704 110.481 142.923 111.116L142.854 111.185C142.67 110.977 142.058 110.343 141.897 110.182C141.839 110.124 141.804 110.135 141.747 110.193L140.34 111.6L140.547 111.808C140.755 111.646 140.997 111.52 141.216 111.462C141.401 111.416 141.562 111.439 141.747 111.554C141.931 111.669 142.254 111.992 142.531 112.269L144.907 114.645C145.184 114.922 145.507 115.245 145.634 115.418C145.865 115.764 145.853 116.006 145.692 116.375C145.645 116.491 145.53 116.675 145.438 116.791L145.657 117.01L147.987 114.68L147.768 114.461C147.641 114.565 147.491 114.645 147.352 114.715C146.995 114.864 146.753 114.83 146.499 114.668C146.268 114.53 145.957 114.219 145.703 113.965L144.192 112.454C143.708 111.969 143.431 111.577 143.246 111.047C142.946 110.239 143.212 109.397 143.788 108.82C144.123 108.486 144.446 108.348 144.78 108.359C145.161 108.371 145.519 108.544 145.991 109.017L148.321 111.346C148.575 111.6 148.875 111.9 149.025 112.165C149.186 112.465 149.233 112.65 149.094 112.973C149.036 113.1 148.921 113.284 148.817 113.411L149.036 113.63L151.32 111.346L151.101 111.127C150.986 111.22 150.801 111.335 150.686 111.381C150.317 111.52 150.098 111.462 149.832 111.289C149.636 111.162 149.359 110.908 149.117 110.666ZM116.467 176.034C115.118 174.685 113.768 175.135 111.831 175.827C110.527 176.3 109.305 176.853 108.174 175.723C107.309 174.858 107.621 173.785 108.29 173.116C108.832 172.574 109.27 172.413 109.674 172.332C110.366 172.217 111.358 172.493 112.165 172.909L112.396 172.678L110.17 170.867L109.939 171.098L110.204 171.686L110.147 171.744C109.454 171.767 108.774 172.009 108.001 172.782C106.709 174.074 106.755 175.734 107.782 176.761C109.062 178.041 110.562 177.626 112.084 177.072C113.861 176.403 114.945 175.942 116.167 177.165C116.986 177.984 117.113 179.195 115.96 180.348C114.864 181.444 112.984 181.156 111.335 180.244L111.115 180.464L113.653 182.77L113.814 182.609L113.595 181.859L113.664 181.79C114.437 181.778 115.464 181.467 116.283 180.648C117.505 179.425 117.875 177.442 116.467 176.034ZM116.842 170.008C116.888 169.524 117.095 169.109 117.418 168.786C117.811 168.393 118.18 168.232 118.583 168.197C119.033 168.163 119.448 168.324 119.967 168.843C120.475 169.351 120.475 169.558 120.117 169.916L117.764 172.269C117.084 171.381 116.795 170.562 116.842 170.008ZM123.151 170.32L122.805 170.481C123.301 171.462 123.462 172.546 122.47 173.538C121.997 174.011 121.444 174.264 120.832 174.253C120.014 174.218 119.056 173.63 118.353 172.926C118.237 172.811 118.133 172.707 118.041 172.592L121.663 168.97C121.536 168.797 121.305 168.543 121.109 168.347C120.279 167.517 118.595 167.009 117.107 168.497C115.78 169.824 115.907 172.142 117.499 173.734C118.318 174.553 119.298 175.072 120.394 175.083C121.248 175.106 122.032 174.783 122.724 174.091C123.739 173.076 123.889 171.704 123.151 170.32ZM125.636 161.583C124.817 161.434 124.009 161.595 123.271 162.333C122.118 163.487 121.772 165.747 123.629 167.604C125.405 169.381 127.504 169.334 128.761 168.077C129.499 167.339 129.753 166.393 129.488 165.62L129.557 165.551L131.241 167.235C131.472 167.466 131.714 167.731 131.864 167.95C132.072 168.273 132.037 168.516 131.922 168.792C131.852 168.954 131.737 169.115 131.633 169.242L131.841 169.45L134.09 167.201L133.883 166.993C133.767 167.085 133.617 167.189 133.456 167.258C133.167 167.385 132.914 167.362 132.648 167.166C132.429 167.016 132.175 166.762 131.945 166.532L127.008 161.595C126.547 161.134 125.993 160.511 125.636 160.061L125.393 160.303L125.693 161.526L125.636 161.583ZM128.219 164.375C128.761 164.917 129.05 165.436 129.119 165.943C129.211 166.474 129.05 167.074 128.611 167.512C127.631 168.492 126.062 168.423 124.309 166.67C122.752 165.113 122.66 163.567 123.571 162.656C124.055 162.172 124.551 162.022 125.07 162.033C125.67 162.033 126.131 162.287 126.72 162.875L128.219 164.375ZM136.171 157.669L133.68 155.177C133.045 154.543 132.653 154.105 132.295 153.747C132.226 153.678 132.192 153.689 132.134 153.747L130.669 155.212L130.877 155.419C131.073 155.246 131.327 155.085 131.557 155.039C131.776 155.004 131.949 155.039 132.146 155.166C132.307 155.281 132.641 155.616 132.815 155.789L134.395 157.369C134.752 157.726 135.098 158.095 135.329 158.441C135.606 158.903 135.698 159.387 135.652 159.849C135.617 160.275 135.433 160.668 135.133 160.967C134.787 161.314 134.441 161.498 134.037 161.487C133.564 161.498 133.161 161.256 132.653 160.748L130.358 158.453C129.816 157.911 129.343 157.415 129.008 157.034C128.939 156.965 128.893 156.988 128.847 157.034L127.37 158.511L127.578 158.718C127.797 158.522 128.016 158.372 128.224 158.326C128.374 158.292 128.535 158.292 128.754 158.418C128.916 158.511 129.17 158.741 129.423 158.995L131.984 161.556C132.607 162.179 133.034 162.329 133.426 162.375C134.233 162.444 134.821 162.017 135.237 161.602C135.698 161.14 135.906 160.633 135.986 160.16C136.033 159.768 136.021 159.456 135.825 158.845L135.894 158.776L136.759 159.641C136.828 159.71 136.898 159.71 136.944 159.664L138.351 158.257L138.132 158.038C137.982 158.165 137.774 158.326 137.601 158.384C137.301 158.499 137.082 158.418 136.817 158.245C136.598 158.095 136.379 157.876 136.171 157.669ZM136.48 150.37C136.526 149.886 136.733 149.471 137.056 149.148C137.448 148.756 137.817 148.594 138.221 148.559C138.671 148.525 139.086 148.686 139.605 149.205C140.113 149.713 140.113 149.921 139.755 150.278L137.402 152.631C136.722 151.743 136.433 150.924 136.48 150.37ZM142.789 150.682L142.443 150.843C142.939 151.824 143.1 152.908 142.108 153.9C141.635 154.373 141.082 154.627 140.47 154.615C139.651 154.58 138.694 153.992 137.991 153.289C137.875 153.173 137.771 153.069 137.679 152.954L141.301 149.332C141.174 149.159 140.943 148.906 140.747 148.709C139.917 147.879 138.233 147.371 136.745 148.859C135.418 150.186 135.545 152.504 137.137 154.096C137.956 154.915 138.936 155.434 140.032 155.445C140.886 155.469 141.67 155.146 142.362 154.454C143.377 153.438 143.527 152.066 142.789 150.682ZM148.122 145.51C147.234 144.622 146.208 144.979 144.881 145.521C143.612 146.052 142.955 146.225 142.309 145.579C141.802 145.071 141.871 144.333 142.436 143.768C142.782 143.422 143.128 143.26 143.463 143.226C143.97 143.157 144.512 143.353 145.135 143.653L145.343 143.445L143.774 141.992L143.624 142.142L143.739 142.695L143.67 142.765C143.266 142.776 142.713 142.891 142.125 143.48C141.156 144.449 141.167 145.683 141.905 146.421C142.92 147.436 143.832 147.101 145.123 146.571C146.565 145.983 147.211 145.798 147.892 146.479C148.538 147.124 148.376 147.863 147.73 148.509C146.9 149.339 145.631 149.293 144.305 148.52L144.062 148.762L145.989 150.619L146.196 150.412L145.965 149.743L146.046 149.662C146.727 149.674 147.5 149.316 148.007 148.808C148.907 147.909 149.218 146.605 148.122 145.51ZM153.25 141.927C153.285 142.446 153.124 142.908 152.766 143.265C152.201 143.83 151.774 143.75 151.301 143.277L147.287 139.24L148.741 137.786L148.418 137.463L146.964 138.917L145.119 137.071L144.934 137.256C145.995 139.101 146.018 139.863 145.476 140.612L145.672 140.808C145.788 140.693 146.422 140.082 146.561 139.943C146.722 140.128 150.505 143.911 150.574 143.98C151.036 144.442 151.324 144.569 151.67 144.545C152.155 144.499 152.512 144.303 152.939 143.877C153.412 143.404 153.677 142.723 153.527 141.95L153.25 141.927ZM152.618 135.662L152.548 135.732C152.595 135.778 151.43 134.544 151.453 134.567C151.418 134.532 151.36 134.521 151.303 134.578L149.896 135.985L150.103 136.193C150.311 136.055 150.518 135.916 150.761 135.859C150.934 135.824 151.141 135.847 151.314 135.951C151.487 136.055 151.903 136.47 152.099 136.666L154.578 139.146C154.809 139.377 155.063 139.63 155.213 139.873C155.397 140.195 155.409 140.392 155.317 140.691C155.236 140.841 155.121 141.026 155.028 141.141L155.247 141.36L157.554 139.054L157.335 138.834C157.197 138.95 157.047 139.054 156.874 139.134C156.689 139.227 156.493 139.192 156.262 139.1C155.974 138.996 155.709 138.823 155.259 138.373L154.059 137.173C153.76 136.874 153.413 136.504 153.356 136.424C152.571 135.432 152.445 134.128 152.814 133.759C152.952 133.621 153.114 133.552 153.333 133.632C153.621 133.759 153.898 133.852 154.175 133.575C154.486 133.263 154.359 132.929 154.14 132.71C153.921 132.491 153.702 132.433 153.54 132.433C153.287 132.456 153.021 132.583 152.814 132.79C152.422 133.183 152.306 133.621 152.272 134.002C152.237 134.474 152.306 134.936 152.618 135.662ZM164.43 131.947L164.165 131.82C164.119 131.982 163.992 132.178 163.888 132.281C163.75 132.42 163.6 132.478 163.438 132.454C163.219 132.42 162.977 132.247 162.423 131.693L159.217 128.487C158.421 127.691 157.44 128.164 156.656 128.948C156.068 129.536 155.641 130.494 155.687 131.047C155.687 131.324 155.791 131.566 155.976 131.751C156.229 132.005 156.552 131.982 156.748 131.785C157.014 131.52 157.037 131.266 156.737 130.897C156.472 130.563 156.402 130.24 156.483 129.928C156.587 129.663 156.737 129.421 156.956 129.202C157.498 128.66 157.936 128.66 158.525 129.248L159.39 130.113C159.574 130.436 159.563 131.07 159.171 131.855C158.778 132.685 158.409 133.193 158.375 134.012C158.375 134.519 158.605 134.957 158.894 135.246C159.77 136.122 160.82 135.995 161.639 135.177C162.423 134.392 162.377 133.516 162.227 133.02L162.308 132.939C162.723 133.331 163 133.4 163.288 133.343C163.45 133.296 163.611 133.204 163.807 133.008C164.142 132.674 164.384 132.201 164.43 131.947ZM159.863 130.586L161.662 132.385C162.204 133.066 161.985 134.023 161.501 134.508C160.97 135.038 160.289 135.142 159.632 134.484C159.274 134.127 159.136 133.781 159.124 133.423C159.113 133.089 159.263 132.662 159.505 132.074C159.701 131.578 159.897 130.99 159.863 130.586ZM168.079 127.099C168.113 127.618 167.952 128.079 167.594 128.437C167.029 129.002 166.602 128.921 166.129 128.449L162.115 124.412L163.569 122.958L163.246 122.635L161.792 124.089L159.947 122.243L159.762 122.428C160.824 124.273 160.847 125.034 160.304 125.784L160.501 125.98C160.616 125.865 161.25 125.254 161.389 125.115C161.55 125.3 165.333 129.083 165.403 129.152C165.864 129.614 166.152 129.74 166.498 129.717C166.983 129.671 167.34 129.475 167.767 129.048C168.24 128.575 168.505 127.895 168.355 127.122L168.079 127.099ZM164.551 118.631C164.851 118.331 164.862 117.882 164.551 117.57C164.251 117.27 163.789 117.247 163.478 117.559C163.19 117.847 163.201 118.297 163.513 118.608C163.824 118.92 164.262 118.92 164.551 118.631ZM167.365 120.731C166.904 120.269 166.604 119.923 166.373 119.669C166.315 119.612 166.258 119.623 166.212 119.669L164.781 121.1L164.989 121.307C165.277 121.088 165.45 121.007 165.646 120.973C165.843 120.938 165.969 120.973 166.166 121.077C166.327 121.169 166.777 121.596 166.961 121.78L169.637 124.456C169.833 124.652 169.995 124.814 170.133 125.044C170.272 125.275 170.272 125.529 170.179 125.806C170.145 125.932 170.018 126.129 169.926 126.244L170.145 126.463L172.394 124.214L172.175 123.995C172.048 124.099 171.84 124.214 171.725 124.26C171.483 124.341 171.241 124.398 170.952 124.225C170.768 124.11 170.537 123.902 170.364 123.729L167.365 120.731ZM171.21 120C172.963 121.753 175.236 121.58 176.527 120.288C177.819 118.996 177.981 116.712 176.228 114.959C174.486 113.218 172.214 113.391 170.922 114.682C169.618 115.986 169.457 118.247 171.21 120ZM172.029 119.181C171.003 118.154 170.553 117.197 170.599 116.32C170.622 115.79 170.876 115.305 171.21 114.971C171.533 114.648 172.006 114.383 172.548 114.371C173.436 114.336 174.394 114.786 175.409 115.801C176.412 116.805 176.862 117.785 176.839 118.662C176.827 119.204 176.574 119.665 176.239 120C175.893 120.346 175.432 120.599 174.866 120.611C174.001 120.646 173.033 120.184 172.029 119.181ZM183.936 109.788L181.295 107.147C180.707 106.558 180.142 106.408 179.657 106.478C179.253 106.558 178.861 106.743 178.469 107.135C178.042 107.562 177.765 108.092 177.673 108.577C177.546 109.027 177.523 109.603 177.742 110.238L177.673 110.307C177.489 110.099 176.877 109.465 176.716 109.304C176.658 109.246 176.624 109.257 176.566 109.315L175.159 110.722L175.366 110.93C175.574 110.768 175.816 110.642 176.035 110.584C176.22 110.538 176.381 110.561 176.566 110.676C176.75 110.791 177.073 111.114 177.35 111.391L179.726 113.767C180.003 114.044 180.326 114.367 180.453 114.54C180.684 114.886 180.672 115.128 180.511 115.497C180.464 115.613 180.349 115.797 180.257 115.913L180.476 116.132L182.806 113.802L182.587 113.583C182.46 113.687 182.31 113.767 182.172 113.837C181.814 113.986 181.572 113.952 181.318 113.79C181.087 113.652 180.776 113.341 180.522 113.087L179.011 111.576C178.527 111.091 178.25 110.699 178.065 110.169C177.765 109.361 178.031 108.519 178.607 107.943C178.942 107.608 179.265 107.47 179.599 107.481C179.98 107.493 180.338 107.666 180.81 108.139L183.14 110.469C183.394 110.722 183.694 111.022 183.844 111.287C184.005 111.587 184.052 111.772 183.913 112.095C183.856 112.222 183.74 112.406 183.636 112.533L183.856 112.752L186.139 110.469L185.92 110.249C185.805 110.342 185.62 110.457 185.505 110.503C185.136 110.642 184.917 110.584 184.651 110.411C184.455 110.284 184.179 110.03 183.936 109.788Z" fill="black"/>
<path d="M147.868 382.359L147.938 382.428L145.804 386.777L143.474 384.447L147.868 382.359ZM140.706 387.445C140.556 387.272 140.383 387.03 140.325 386.88C140.21 386.627 140.221 386.315 140.51 386.027C140.706 385.831 140.89 385.692 141.432 385.427L143.059 384.654L145.596 387.192L144.904 388.599C144.65 389.106 144.5 389.464 144.178 389.787C143.901 390.064 143.578 390.018 143.359 389.914C143.186 389.833 143.059 389.752 142.84 389.579L142.609 389.81L145.296 392.498L145.527 392.267C145.423 392.117 145.354 392.002 145.273 391.782C145.181 391.529 145.146 391.24 145.262 390.825C145.331 390.571 145.504 390.052 145.896 389.268L149.783 381.344L149.506 381.067L141.109 385.012C140.487 385.312 140.106 385.462 139.852 385.554C139.552 385.646 139.333 385.658 139.149 385.612C138.906 385.554 138.768 385.462 138.549 385.289L138.318 385.519L140.475 387.676L140.706 387.445ZM152.892 397.21L155.534 394.568C156.122 393.98 156.272 393.415 156.203 392.931C156.122 392.527 155.937 392.135 155.545 391.743C155.118 391.316 154.588 391.039 154.103 390.947C153.653 390.82 153.077 390.797 152.442 391.016L152.373 390.947C152.581 390.762 153.215 390.151 153.377 389.989C153.434 389.932 153.423 389.897 153.365 389.839L151.958 388.432L151.75 388.64C151.912 388.847 152.039 389.09 152.096 389.309C152.142 389.493 152.119 389.655 152.004 389.839C151.889 390.024 151.566 390.347 151.289 390.624L148.913 393C148.636 393.277 148.313 393.6 148.14 393.726C147.794 393.957 147.552 393.946 147.183 393.784C147.067 393.738 146.883 393.623 146.767 393.53L146.548 393.75L148.878 396.079L149.097 395.86C148.994 395.733 148.913 395.583 148.844 395.445C148.694 395.087 148.728 394.845 148.89 394.592C149.028 394.361 149.34 394.049 149.593 393.796L151.104 392.285C151.589 391.8 151.981 391.523 152.512 391.339C153.319 391.039 154.161 391.304 154.738 391.881C155.072 392.215 155.211 392.538 155.199 392.873C155.187 393.254 155.014 393.611 154.542 394.084L152.212 396.414C151.958 396.668 151.658 396.968 151.393 397.118C151.093 397.279 150.908 397.325 150.585 397.187C150.458 397.129 150.274 397.014 150.147 396.91L149.928 397.129L152.212 399.413L152.431 399.194C152.339 399.078 152.223 398.894 152.177 398.778C152.039 398.409 152.096 398.19 152.269 397.925C152.396 397.729 152.65 397.452 152.892 397.21ZM158.192 405.162L158.318 404.897C158.157 404.851 157.961 404.724 157.857 404.62C157.719 404.482 157.661 404.332 157.684 404.17C157.719 403.951 157.892 403.709 158.445 403.155L161.652 399.949C162.448 399.153 161.975 398.172 161.19 397.388C160.602 396.8 159.645 396.373 159.091 396.419C158.814 396.419 158.572 396.523 158.388 396.707C158.134 396.961 158.157 397.284 158.353 397.48C158.618 397.745 158.872 397.769 159.241 397.469C159.576 397.203 159.899 397.134 160.21 397.215C160.475 397.319 160.718 397.469 160.937 397.688C161.479 398.23 161.479 398.668 160.891 399.256L160.025 400.122C159.703 400.306 159.068 400.295 158.284 399.902C157.453 399.51 156.946 399.141 156.127 399.107C155.619 399.107 155.181 399.337 154.893 399.626C154.016 400.502 154.143 401.552 154.962 402.371C155.746 403.155 156.623 403.109 157.119 402.959L157.2 403.04C156.807 403.455 156.738 403.732 156.796 404.02C156.842 404.182 156.934 404.343 157.13 404.539C157.465 404.874 157.938 405.116 158.192 405.162ZM159.553 400.594L157.753 402.394C157.073 402.936 156.115 402.717 155.631 402.232C155.1 401.702 154.997 401.021 155.654 400.364C156.012 400.006 156.358 399.868 156.715 399.856C157.05 399.845 157.476 399.995 158.065 400.237C158.561 400.433 159.149 400.629 159.553 400.594ZM165.785 403.228C166.269 403.274 166.684 403.482 167.007 403.804C167.399 404.197 167.561 404.566 167.595 404.969C167.63 405.419 167.469 405.835 166.95 406.354C166.442 406.861 166.234 406.861 165.877 406.504L163.524 404.151C164.412 403.47 165.231 403.182 165.785 403.228ZM165.473 409.537L165.312 409.191C164.331 409.687 163.247 409.848 162.255 408.856C161.782 408.384 161.528 407.83 161.54 407.219C161.575 406.4 162.163 405.442 162.866 404.739C162.982 404.623 163.086 404.52 163.201 404.427L166.823 408.049C166.996 407.922 167.249 407.692 167.446 407.495C168.276 406.665 168.784 404.981 167.296 403.493C165.969 402.167 163.651 402.293 162.059 403.885C161.24 404.704 160.721 405.685 160.71 406.78C160.686 407.634 161.009 408.418 161.701 409.11C162.716 410.125 164.089 410.275 165.473 409.537ZM171.095 409.969L171.026 409.899C170.98 409.945 172.214 408.781 172.191 408.804C172.225 408.769 172.237 408.711 172.179 408.654L170.772 407.246L170.565 407.454C170.703 407.662 170.841 407.869 170.899 408.112C170.934 408.285 170.911 408.492 170.807 408.665C170.703 408.838 170.288 409.253 170.092 409.45L167.612 411.929C167.381 412.16 167.127 412.414 166.885 412.564C166.562 412.748 166.366 412.76 166.066 412.668C165.916 412.587 165.732 412.471 165.616 412.379L165.397 412.598L167.704 414.905L167.923 414.686C167.808 414.548 167.704 414.398 167.623 414.225C167.531 414.04 167.566 413.844 167.658 413.613C167.762 413.325 167.935 413.06 168.385 412.61L169.584 411.41C169.884 411.11 170.253 410.764 170.334 410.707C171.326 409.922 172.629 409.796 172.998 410.165C173.137 410.303 173.206 410.465 173.125 410.684C172.998 410.972 172.906 411.249 173.183 411.526C173.494 411.837 173.829 411.71 174.048 411.491C174.267 411.272 174.325 411.053 174.325 410.891C174.302 410.638 174.175 410.372 173.967 410.165C173.575 409.772 173.137 409.657 172.756 409.623C172.283 409.588 171.822 409.657 171.095 409.969ZM173 414.803C171.247 416.556 171.42 418.828 172.711 420.12C174.003 421.412 176.287 421.574 178.04 419.82C179.782 418.079 179.609 415.806 178.317 414.515C177.014 413.211 174.753 413.05 173 414.803ZM173.819 415.622C174.845 414.595 175.803 414.145 176.679 414.192C177.21 414.215 177.694 414.468 178.029 414.803C178.352 415.126 178.617 415.599 178.629 416.141C178.663 417.029 178.213 417.986 177.198 419.001C176.195 420.005 175.214 420.455 174.338 420.432C173.796 420.42 173.334 420.166 173 419.832C172.654 419.486 172.4 419.024 172.388 418.459C172.354 417.594 172.815 416.625 173.819 415.622ZM186.303 417.079L184.78 415.557L184.573 415.764C184.769 415.983 184.965 416.226 184.999 416.491C185.022 416.652 184.999 416.814 184.919 416.987C184.849 417.125 184.642 417.356 184.457 417.54L178.482 423.515C178.171 423.827 177.744 424.23 177.341 424.588L177.571 424.819L178.759 424.599L178.863 424.703C178.713 425.453 178.978 426.387 179.578 426.987C180.559 427.967 182.727 428.683 184.792 426.618C186.891 424.519 186.43 422.627 185.368 421.566C184.642 420.839 183.696 420.585 182.658 420.955L182.589 420.885L184.792 418.682C185.415 418.059 186.003 417.563 186.314 417.252C186.372 417.194 186.349 417.125 186.303 417.079ZM184.919 421.831C185.818 422.731 185.772 424 183.961 425.81C182.473 427.298 180.928 427.714 179.878 426.664C179.44 426.226 179.14 425.649 179.221 425.015C179.301 424.357 179.624 423.85 180.351 423.123L181.516 421.958C182.277 421.197 182.9 421.151 183.315 421.128C183.973 421.116 184.469 421.381 184.919 421.831ZM191.517 425.292C191.817 425.592 192.267 425.604 192.578 425.292C192.878 424.992 192.901 424.531 192.589 424.219C192.301 423.931 191.851 423.943 191.54 424.254C191.228 424.565 191.228 425.004 191.517 425.292ZM189.418 428.106C189.879 427.645 190.225 427.345 190.479 427.114C190.536 427.057 190.525 426.999 190.479 426.953L189.048 425.523L188.841 425.73C189.06 426.019 189.141 426.192 189.175 426.388C189.21 426.584 189.175 426.711 189.072 426.907C188.979 427.068 188.552 427.518 188.368 427.703L185.692 430.379C185.496 430.575 185.334 430.736 185.104 430.875C184.873 431.013 184.619 431.013 184.342 430.921C184.216 430.886 184.02 430.759 183.904 430.667L183.685 430.886L185.934 433.135L186.153 432.916C186.05 432.789 185.934 432.582 185.888 432.466C185.807 432.224 185.75 431.982 185.923 431.694C186.038 431.509 186.246 431.278 186.419 431.105L189.418 428.106ZM195.073 431.848C195.65 432.424 195.719 432.793 195.281 433.555C195.073 433.97 194.97 434.304 195.27 434.604C195.512 434.847 195.8 434.858 196.088 434.57C196.238 434.42 196.4 434.166 196.423 433.82C196.458 433.255 196.331 432.528 195.373 431.571C194.024 430.221 191.729 430.348 190.148 431.928C189.053 433.024 188.707 434.131 188.799 435.1C188.833 435.827 189.087 436.496 189.722 437.13C190.76 438.168 192.121 438.238 193.378 437.557L193.193 437.188C192.444 437.569 191.267 437.915 190.148 436.796C189.802 436.45 189.595 435.942 189.583 435.493C189.583 434.662 189.987 433.705 191.013 432.678C192.063 431.629 193.101 431.19 193.897 431.271C194.312 431.317 194.751 431.525 195.073 431.848ZM131.281 396.898L131.061 397.117C131.188 397.267 131.281 397.382 131.361 397.532C131.511 397.821 131.592 398.086 131.465 398.397C131.269 398.847 130.785 399.401 130.035 400.15L126.771 403.415C126.021 404.164 125.513 404.626 125.041 404.822C124.729 404.926 124.498 404.879 124.187 404.73C124.049 404.66 123.899 404.557 123.749 404.43L123.518 404.66L126.828 407.971C127.578 408.72 128.443 409.193 129.193 409.436C130.796 409.908 132.734 409.678 134.51 407.901C136.252 406.16 136.54 404.211 136.033 402.573C135.814 401.823 135.364 400.981 134.429 400.047L131.281 396.898ZM133.622 407.036C132.192 408.467 130.808 408.905 129.574 408.847C128.616 408.813 127.797 408.363 127.105 407.671L126.667 407.232C126.286 406.852 126.079 406.552 126.079 406.275C126.067 405.825 126.413 405.456 126.955 404.914L132.146 399.724C132.376 399.493 132.596 399.274 132.826 399.297C132.999 399.308 133.195 399.412 133.518 399.735L134.118 400.335C134.845 401.062 135.341 401.858 135.468 402.769C135.617 404.049 135.087 405.572 133.622 407.036ZM140.058 407.775C140.358 408.075 140.808 408.086 141.12 407.775C141.419 407.475 141.443 407.014 141.131 406.702C140.843 406.414 140.393 406.425 140.082 406.737C139.77 407.048 139.77 407.486 140.058 407.775ZM137.959 410.589C138.421 410.128 138.767 409.828 139.02 409.597C139.078 409.54 139.066 409.482 139.02 409.436L137.59 408.006L137.382 408.213C137.602 408.502 137.682 408.675 137.717 408.871C137.752 409.067 137.717 409.194 137.613 409.39C137.521 409.551 137.094 410.001 136.91 410.186L134.234 412.861C134.038 413.058 133.876 413.219 133.645 413.357C133.415 413.496 133.161 413.496 132.884 413.404C132.757 413.369 132.561 413.242 132.446 413.15L132.227 413.369L134.476 415.618L134.695 415.399C134.591 415.272 134.476 415.065 134.43 414.949C134.349 414.707 134.291 414.465 134.464 414.176C134.58 413.992 134.787 413.761 134.96 413.588L137.959 410.589ZM140.616 414.446C141.712 413.35 142.692 413.362 143.373 414.042C144.042 414.711 144.077 415.715 142.981 416.81C141.873 417.918 140.858 417.871 140.178 417.191C139.509 416.522 139.509 415.553 140.616 414.446ZM140.213 422.439C141.389 421.263 140.905 420.34 139.959 419.394C139.555 418.99 138.505 418.079 138.125 417.698C137.698 417.272 137.629 416.856 137.94 416.545C138.332 416.153 139.013 416.51 139.417 416.914C139.624 417.099 139.797 417.341 139.924 417.468C140.835 418.379 142.577 418.806 143.777 417.606C143.903 417.479 144.019 417.318 144.111 417.179C144.226 416.995 144.353 416.799 144.492 416.66C144.757 416.395 145.115 416.291 145.276 416.453C145.438 416.614 145.345 416.776 145.311 416.995C145.276 417.191 145.345 417.376 145.472 417.502C145.668 417.698 145.991 417.745 146.256 417.479C146.591 417.145 146.603 416.718 146.268 416.384C145.876 415.991 145.149 415.865 144.549 416.28L144.48 416.211C144.63 415.276 144.25 414.388 143.65 413.788C142.704 412.843 140.997 412.497 139.832 413.661C139.059 414.434 138.955 415.438 139.221 416.28L139.151 416.349C138.621 415.98 137.802 415.738 137.225 416.314C136.729 416.81 136.787 417.537 137.237 418.125L137.179 418.183C136.164 417.445 135.184 417.318 134.584 417.918C133.742 418.76 134.122 420.063 135.645 421.586C136.845 422.785 138.875 423.777 140.213 422.439ZM139.417 422.081C138.379 423.12 136.994 422.358 136.003 421.366C134.872 420.236 134.607 419.348 135.31 418.644C136.291 417.664 137.41 418.575 137.986 419.06C138.39 419.417 138.828 419.809 139.14 420.144C139.786 420.79 140.143 421.355 139.417 422.081ZM148.691 420.075C149.175 420.121 149.591 420.329 149.914 420.652C150.306 421.044 150.467 421.413 150.502 421.817C150.536 422.267 150.375 422.682 149.856 423.201C149.348 423.709 149.141 423.709 148.783 423.351L146.43 420.998C147.318 420.317 148.137 420.029 148.691 420.075ZM148.38 426.384L148.218 426.038C147.238 426.534 146.153 426.696 145.161 425.704C144.689 425.231 144.435 424.677 144.446 424.066C144.481 423.247 145.069 422.29 145.773 421.586C145.888 421.471 145.992 421.367 146.107 421.275L149.729 424.897C149.902 424.77 150.156 424.539 150.352 424.343C151.182 423.512 151.69 421.828 150.202 420.341C148.875 419.014 146.557 419.141 144.965 420.733C144.146 421.552 143.627 422.532 143.616 423.628C143.593 424.481 143.916 425.266 144.608 425.958C145.623 426.973 146.995 427.123 148.38 426.384ZM153.552 431.718C154.44 430.83 154.082 429.803 153.54 428.477C153.01 427.208 152.836 426.551 153.482 425.905C153.99 425.397 154.728 425.467 155.293 426.032C155.639 426.378 155.801 426.724 155.835 427.058C155.905 427.566 155.709 428.108 155.409 428.731L155.616 428.938L157.07 427.37L156.92 427.22L156.366 427.335L156.297 427.266C156.285 426.862 156.17 426.309 155.582 425.72C154.613 424.751 153.379 424.763 152.64 425.501C151.625 426.516 151.96 427.427 152.49 428.719C153.079 430.161 153.263 430.807 152.583 431.487C151.937 432.133 151.199 431.972 150.553 431.326C149.722 430.495 149.768 429.227 150.541 427.9L150.299 427.658L148.442 429.584L148.65 429.792L149.319 429.561L149.399 429.642C149.388 430.322 149.745 431.095 150.253 431.603C151.152 432.502 152.456 432.814 153.552 431.718ZM157.134 436.846C156.615 436.881 156.154 436.719 155.796 436.362C155.231 435.797 155.312 435.37 155.785 434.897L159.822 430.883L161.275 432.336L161.598 432.013L160.145 430.56L161.99 428.714L161.805 428.53C159.96 429.591 159.199 429.614 158.449 429.072L158.253 429.268C158.368 429.383 158.98 430.018 159.118 430.156C158.933 430.318 155.15 434.101 155.081 434.17C154.62 434.632 154.493 434.92 154.516 435.266C154.562 435.75 154.758 436.108 155.185 436.535C155.658 437.008 156.338 437.273 157.111 437.123L157.134 436.846ZM165.602 433.318C165.902 433.618 166.352 433.63 166.663 433.318C166.963 433.018 166.986 432.557 166.675 432.246C166.386 431.957 165.936 431.969 165.625 432.28C165.313 432.592 165.313 433.03 165.602 433.318ZM163.503 436.133C163.964 435.671 164.31 435.371 164.564 435.141C164.621 435.083 164.61 435.025 164.564 434.979L163.134 433.549L162.926 433.757C163.145 434.045 163.226 434.218 163.26 434.414C163.295 434.61 163.26 434.737 163.157 434.933C163.064 435.095 162.638 435.544 162.453 435.729L159.777 438.405C159.581 438.601 159.419 438.762 159.189 438.901C158.958 439.039 158.704 439.039 158.428 438.947C158.301 438.912 158.105 438.786 157.989 438.693L157.77 438.912L160.019 441.162L160.238 440.942C160.135 440.816 160.019 440.608 159.973 440.493C159.892 440.25 159.835 440.008 160.008 439.72C160.123 439.535 160.331 439.305 160.504 439.132L163.503 436.133ZM164.233 439.978C162.48 441.731 162.653 444.003 163.945 445.295C165.237 446.587 167.521 446.748 169.274 444.995C171.016 443.253 170.843 440.981 169.551 439.689C168.247 438.386 165.987 438.224 164.233 439.978ZM165.052 440.797C166.079 439.77 167.036 439.32 167.913 439.366C168.443 439.389 168.928 439.643 169.262 439.978C169.585 440.301 169.851 440.774 169.862 441.316C169.897 442.204 169.447 443.161 168.432 444.176C167.428 445.18 166.448 445.629 165.571 445.606C165.029 445.595 164.568 445.341 164.233 445.007C163.887 444.661 163.634 444.199 163.622 443.634C163.587 442.769 164.049 441.8 165.052 440.797ZM174.445 452.704L177.086 450.062C177.675 449.474 177.825 448.909 177.755 448.425C177.675 448.021 177.49 447.629 177.098 447.237C176.671 446.81 176.141 446.533 175.656 446.441C175.206 446.314 174.63 446.291 173.995 446.51L173.926 446.441C174.134 446.256 174.768 445.645 174.93 445.483C174.987 445.426 174.976 445.391 174.918 445.333L173.511 443.926L173.303 444.134C173.465 444.341 173.592 444.584 173.649 444.803C173.695 444.987 173.672 445.149 173.557 445.333C173.442 445.518 173.119 445.841 172.842 446.118L170.466 448.494C170.189 448.771 169.866 449.094 169.693 449.22C169.347 449.451 169.105 449.44 168.736 449.278C168.62 449.232 168.436 449.117 168.32 449.024L168.101 449.244L170.431 451.573L170.65 451.354C170.547 451.227 170.466 451.078 170.397 450.939C170.247 450.582 170.281 450.339 170.443 450.086C170.581 449.855 170.893 449.543 171.146 449.29L172.657 447.779C173.142 447.294 173.534 447.017 174.064 446.833C174.872 446.533 175.714 446.798 176.291 447.375C176.625 447.71 176.763 448.032 176.752 448.367C176.74 448.748 176.567 449.105 176.095 449.578L173.765 451.908C173.511 452.162 173.211 452.462 172.946 452.612C172.646 452.773 172.461 452.819 172.138 452.681C172.011 452.623 171.827 452.508 171.7 452.404L171.481 452.623L173.765 454.907L173.984 454.688C173.891 454.572 173.776 454.388 173.73 454.273C173.592 453.903 173.649 453.684 173.822 453.419C173.949 453.223 174.203 452.946 174.445 452.704Z" fill="black"/>
<path d="M343.796 452.357L349.402 446.752L347.672 444.307L347.43 444.549C347.718 445.183 347.972 445.737 347.926 446.613C347.903 447.167 347.81 447.767 346.991 448.586L346.346 449.232C345.965 449.612 345.538 449.855 345.054 449.716C344.765 449.635 344.489 449.405 344.085 449.001L339.944 444.86C339.264 444.18 338.894 443.764 338.71 443.303C338.583 442.969 338.641 442.703 338.768 442.461C338.848 442.311 338.952 442.161 339.067 442.023L338.837 441.792L336.034 444.595L336.265 444.826C336.403 444.71 336.541 444.595 336.68 444.526C336.98 444.364 337.222 444.33 337.556 444.456C337.995 444.641 338.433 445.01 339.114 445.691L342.701 449.278C343.37 449.947 343.739 450.385 343.923 450.8C344.05 451.135 344.004 451.412 343.843 451.712C343.773 451.827 343.681 451.965 343.554 452.115L343.796 452.357ZM348.545 442.211C350.298 443.964 352.571 443.791 353.862 442.499C355.154 441.207 355.316 438.924 353.562 437.17C351.821 435.429 349.549 435.602 348.257 436.894C346.953 438.197 346.792 440.458 348.545 442.211ZM349.364 441.392C348.337 440.365 347.888 439.408 347.934 438.531C347.957 438.001 348.211 437.516 348.545 437.182C348.868 436.859 349.341 436.594 349.883 436.582C350.771 436.547 351.729 436.997 352.744 438.012C353.747 439.016 354.197 439.996 354.174 440.873C354.162 441.415 353.909 441.876 353.574 442.211C353.228 442.557 352.767 442.811 352.201 442.822C351.336 442.857 350.368 442.395 349.364 441.392ZM350.821 428.908L349.299 430.43L349.506 430.638C349.725 430.442 349.968 430.246 350.233 430.211C350.394 430.188 350.556 430.211 350.729 430.292C350.867 430.361 351.098 430.569 351.283 430.753L357.257 436.728C357.569 437.04 357.972 437.466 358.33 437.87L358.561 437.639L358.342 436.451L358.445 436.348C359.195 436.497 360.129 436.232 360.729 435.632C361.71 434.652 362.425 432.484 360.36 430.419C358.261 428.32 356.369 428.781 355.308 429.842C354.581 430.569 354.328 431.515 354.697 432.553L354.628 432.622L352.424 430.419C351.802 429.796 351.306 429.208 350.994 428.896C350.937 428.839 350.867 428.862 350.821 428.908ZM355.573 430.292C356.473 429.392 357.742 429.438 359.553 431.249C361.041 432.737 361.456 434.283 360.406 435.333C359.968 435.771 359.391 436.071 358.757 435.99C358.099 435.909 357.592 435.586 356.865 434.86L355.7 433.695C354.939 432.933 354.893 432.311 354.87 431.895C354.858 431.238 355.123 430.742 355.573 430.292ZM357.592 422.137L356.07 423.659L356.278 423.867C356.497 423.671 356.739 423.475 357.004 423.44C357.166 423.417 357.327 423.44 357.5 423.521C357.639 423.59 357.869 423.798 358.054 423.982L364.029 429.957C364.34 430.268 364.744 430.695 365.101 431.099L365.332 430.868L365.113 429.68L365.217 429.576C365.966 429.726 366.901 429.461 367.5 428.861C368.481 427.881 369.196 425.712 367.131 423.648C365.032 421.548 363.14 422.01 362.079 423.071C361.353 423.798 361.099 424.743 361.468 425.782L361.399 425.851L359.196 423.648C358.573 423.025 358.077 422.437 357.765 422.125C357.708 422.067 357.639 422.091 357.592 422.137ZM362.345 423.521C363.244 422.621 364.513 422.667 366.324 424.478C367.812 425.966 368.227 427.512 367.177 428.561C366.739 429 366.162 429.299 365.528 429.219C364.871 429.138 364.363 428.815 363.636 428.088L362.471 426.923C361.71 426.162 361.664 425.539 361.641 425.124C361.629 424.467 361.895 423.971 362.345 423.521ZM373.979 423.536C373.76 423.017 371.707 418.127 371.257 417.169C370.98 416.57 370.807 416.074 370.749 415.831C370.703 415.578 370.726 415.416 370.761 415.266C370.807 415.105 370.899 414.966 370.991 414.851L370.784 414.643L369.019 416.408L369.227 416.616C369.365 416.5 369.527 416.362 369.723 416.304C369.919 416.247 370.126 416.27 370.345 416.489C370.599 416.743 370.726 416.962 370.991 417.573L372.618 421.299L372.537 421.379L368.788 419.684C368.212 419.43 367.912 419.269 367.716 419.072C367.508 418.865 367.496 418.692 367.543 418.53C367.589 418.369 367.75 418.115 367.889 417.954L367.681 417.746L365.49 419.938L365.697 420.145C365.812 420.053 366.009 419.926 366.205 419.868C366.458 419.799 366.654 419.857 366.989 420.007C367.243 420.099 367.693 420.295 368.362 420.595L372.537 422.44C372.745 422.533 372.848 422.59 373.01 422.752C373.321 423.063 373.587 423.744 373.667 423.94C374.002 424.736 374.256 425.497 373.956 425.797C373.852 425.901 373.783 425.947 373.679 425.981C373.61 426.005 373.517 426.028 373.402 426.028C373.125 426.005 372.941 426.028 372.733 426.235C372.525 426.443 372.537 426.8 372.791 427.054C373.091 427.354 373.621 427.331 374.036 426.916C374.567 426.385 374.671 425.797 374.521 425.163C374.394 424.551 374.256 424.205 373.979 423.536ZM371.721 411.007C372.021 410.708 372.032 410.258 371.721 409.946C371.421 409.646 370.959 409.623 370.648 409.935C370.36 410.223 370.371 410.673 370.683 410.984C370.994 411.296 371.432 411.296 371.721 411.007ZM374.535 413.107C374.074 412.645 373.774 412.299 373.543 412.045C373.485 411.988 373.428 411.999 373.382 412.045L371.951 413.476L372.159 413.683C372.447 413.464 372.62 413.383 372.816 413.349C373.012 413.314 373.139 413.349 373.335 413.453C373.497 413.545 373.947 413.972 374.131 414.156L376.807 416.832C377.003 417.028 377.165 417.19 377.303 417.42C377.442 417.651 377.442 417.905 377.349 418.182C377.315 418.309 377.188 418.505 377.096 418.62L377.315 418.839L379.564 416.59L379.345 416.371C379.218 416.475 379.01 416.59 378.895 416.636C378.653 416.717 378.411 416.775 378.122 416.602C377.938 416.486 377.707 416.279 377.534 416.106L374.535 413.107ZM383.259 409.919C382.371 409.031 381.344 409.388 380.018 409.931C378.749 410.461 378.092 410.634 377.446 409.988C376.938 409.481 377.007 408.743 377.573 408.177C377.919 407.831 378.265 407.67 378.599 407.635C379.107 407.566 379.649 407.762 380.272 408.062L380.479 407.854L378.911 406.401L378.761 406.551L378.876 407.105L378.807 407.174C378.403 407.185 377.849 407.301 377.261 407.889C376.292 408.858 376.304 410.092 377.042 410.83C378.057 411.845 378.968 411.511 380.26 410.98C381.702 410.392 382.348 410.207 383.028 410.888C383.674 411.534 383.513 412.272 382.867 412.918C382.036 413.748 380.768 413.702 379.441 412.929L379.199 413.172L381.125 415.029L381.333 414.821L381.102 414.152L381.183 414.071C381.863 414.083 382.636 413.725 383.144 413.218C384.043 412.318 384.355 411.015 383.259 409.919ZM388.387 406.337C388.422 406.856 388.26 407.317 387.903 407.675C387.337 408.24 386.911 408.159 386.438 407.686L382.424 403.649L383.877 402.196L383.554 401.873L382.101 403.326L380.255 401.481L380.071 401.665C381.132 403.511 381.155 404.272 380.613 405.022L380.809 405.218C380.924 405.102 381.559 404.491 381.697 404.353C381.859 404.537 385.642 408.32 385.711 408.39C386.173 408.851 386.461 408.978 386.807 408.955C387.291 408.909 387.649 408.713 388.076 408.286C388.549 407.813 388.814 407.132 388.664 406.36L388.387 406.337ZM396.943 394.966L397.485 395.508C398.12 396.143 398.339 396.57 398.339 396.8C398.339 397.192 398.016 397.746 397.289 398.473C396.712 399.049 396.239 399.338 395.536 399.557C394.186 399.984 392.675 399.603 390.726 397.654C388.811 395.739 388.5 394.251 388.661 393.236C388.765 392.509 389.031 391.944 389.619 391.356C390.588 390.387 391.36 390.168 392.364 390.318C393.033 390.41 393.748 390.71 394.579 391.218L394.821 390.975L392.341 388.496L392.145 388.692L392.341 389.418L392.295 389.464C391.707 389.453 390.553 389.776 389.319 391.01C387.543 392.786 387.208 396.097 389.746 398.634C392.202 401.091 395.282 401.195 397.67 398.807C398.189 398.288 398.8 397.515 399.169 396.985C399.434 396.604 399.607 396.223 399.7 395.993L398.246 394.539C397.531 393.824 397.174 393.421 397.081 393.075C397.001 392.763 397.058 392.544 397.185 392.279C397.255 392.14 397.358 391.99 397.474 391.852L397.243 391.621L394.429 394.436L394.659 394.666C394.798 394.551 394.936 394.459 395.075 394.39C395.363 394.24 395.559 394.182 395.87 394.263C396.251 394.366 396.505 394.528 396.943 394.966ZM399.641 388.185L399.572 388.254C399.618 388.301 398.453 387.066 398.476 387.089C398.441 387.055 398.384 387.043 398.326 387.101L396.919 388.508L397.127 388.716C397.334 388.577 397.542 388.439 397.784 388.381C397.957 388.347 398.165 388.37 398.338 388.474C398.511 388.577 398.926 388.993 399.122 389.189L401.602 391.669C401.833 391.899 402.086 392.153 402.236 392.395C402.421 392.718 402.432 392.914 402.34 393.214C402.259 393.364 402.144 393.549 402.052 393.664L402.271 393.883L404.578 391.576L404.359 391.357C404.22 391.472 404.07 391.576 403.897 391.657C403.713 391.749 403.517 391.715 403.286 391.622C402.997 391.519 402.732 391.346 402.282 390.896L401.083 389.696C400.783 389.396 400.437 389.027 400.379 388.946C399.595 387.954 399.468 386.651 399.837 386.282C399.976 386.144 400.137 386.074 400.356 386.155C400.644 386.282 400.921 386.374 401.198 386.097C401.51 385.786 401.383 385.452 401.164 385.232C400.944 385.013 400.725 384.956 400.564 384.956C400.31 384.979 400.045 385.106 399.837 385.313C399.445 385.705 399.33 386.144 399.295 386.524C399.26 386.997 399.33 387.459 399.641 388.185ZM404.475 386.28C406.229 388.034 408.501 387.861 409.793 386.569C411.085 385.277 411.246 382.993 409.493 381.24C407.751 379.498 405.479 379.671 404.187 380.963C402.884 382.267 402.722 384.527 404.475 386.28ZM405.294 385.462C404.268 384.435 403.818 383.478 403.864 382.601C403.887 382.07 404.141 381.586 404.475 381.252C404.798 380.929 405.271 380.663 405.813 380.652C406.702 380.617 407.659 381.067 408.674 382.082C409.677 383.086 410.127 384.066 410.104 384.943C410.093 385.485 409.839 385.946 409.504 386.28C409.158 386.627 408.697 386.88 408.132 386.892C407.267 386.926 406.298 386.465 405.294 385.462ZM417.075 376.311L414.583 373.82C413.949 373.185 413.557 372.747 413.199 372.389C413.13 372.32 413.095 372.332 413.038 372.389L411.573 373.854L411.78 374.062C411.977 373.889 412.23 373.727 412.461 373.681C412.68 373.647 412.853 373.681 413.049 373.808C413.211 373.923 413.545 374.258 413.718 374.431L415.298 376.011C415.656 376.369 416.002 376.738 416.233 377.084C416.51 377.545 416.602 378.03 416.556 378.491C416.521 378.918 416.336 379.31 416.037 379.61C415.691 379.956 415.345 380.14 414.941 380.129C414.468 380.14 414.064 379.898 413.557 379.391L411.261 377.095C410.719 376.553 410.246 376.057 409.912 375.677C409.843 375.607 409.797 375.63 409.75 375.677L408.274 377.153L408.482 377.361C408.701 377.165 408.92 377.015 409.128 376.968C409.278 376.934 409.439 376.934 409.658 377.061C409.82 377.153 410.073 377.384 410.327 377.637L412.888 380.198C413.511 380.821 413.937 380.971 414.33 381.017C415.137 381.086 415.725 380.659 416.14 380.244C416.602 379.783 416.809 379.275 416.89 378.802C416.936 378.41 416.925 378.099 416.729 377.488L416.798 377.418L417.663 378.283C417.732 378.353 417.801 378.353 417.847 378.306L419.255 376.899L419.036 376.68C418.886 376.807 418.678 376.968 418.505 377.026C418.205 377.141 417.986 377.061 417.721 376.888C417.501 376.738 417.282 376.519 417.075 376.311ZM422.47 368.263C424.188 369.982 424.373 371.458 423.393 372.438C422.943 372.888 422.435 373.096 421.893 373.061C421.351 373.05 420.786 372.784 420.048 372.046L418.675 370.674C418.168 370.166 417.914 369.451 417.902 368.909C417.879 368.309 418.041 367.755 418.514 367.283C419.321 366.475 420.601 366.394 422.47 368.263ZM422.285 375.737C422.516 375.968 422.781 376.21 422.92 376.441C423.116 376.775 423.093 377.006 423.012 377.248C422.966 377.387 422.839 377.56 422.724 377.698L422.931 377.906L425.215 375.622L425.007 375.414C424.834 375.564 424.661 375.691 424.511 375.749C424.281 375.841 424.004 375.818 423.727 375.633C423.508 375.483 423.243 375.241 423.012 375.011L421.628 373.626L421.697 373.557C422.481 373.58 423.173 373.211 423.658 372.727C424.892 371.493 425.203 369.382 423.3 367.479C421.236 365.414 419.402 365.749 418.283 366.867C417.533 367.617 417.383 368.574 417.66 369.612L417.602 369.67L416.772 368.817C416.714 368.759 416.657 368.77 416.61 368.817L415.18 370.247L415.388 370.454C415.607 370.281 415.872 370.132 416.149 370.085C416.334 370.062 416.507 370.097 416.68 370.201C416.853 370.305 417.176 370.628 417.36 370.812L422.285 375.737ZM429.769 363.409C428.881 362.52 427.855 362.878 426.528 363.42C425.26 363.951 424.602 364.124 423.956 363.478C423.449 362.97 423.518 362.232 424.083 361.667C424.429 361.321 424.775 361.159 425.11 361.125C425.617 361.056 426.159 361.252 426.782 361.552L426.99 361.344L425.421 359.891L425.271 360.041L425.386 360.594L425.317 360.663C424.914 360.675 424.36 360.79 423.772 361.379C422.803 362.347 422.814 363.582 423.552 364.32C424.568 365.335 425.479 365 426.771 364.47C428.212 363.882 428.858 363.697 429.539 364.377C430.185 365.023 430.023 365.762 429.377 366.408C428.547 367.238 427.278 367.192 425.952 366.419L425.709 366.661L427.636 368.518L427.843 368.311L427.613 367.642L427.693 367.561C428.374 367.572 429.147 367.215 429.654 366.707C430.554 365.808 430.865 364.504 429.769 363.409ZM441.71 354.767C442.275 354.201 442.356 353.152 442.218 352.76L441.918 352.714C441.895 353.013 441.814 353.394 441.491 353.717C441.168 354.04 440.707 354.04 440.049 353.913C439.922 353.902 439.634 353.844 439.242 353.798C439.011 352.898 438.434 351.745 438.1 351.133C437.742 350.499 437.604 350.107 437.569 349.911C437.535 349.669 437.512 349.484 437.592 349.219C437.65 349.023 437.742 348.861 437.904 348.677L437.673 348.446L435.551 350.568L435.782 350.799C435.943 350.66 436.093 350.557 436.266 350.499C436.601 350.395 436.866 350.476 437.12 350.73C437.408 351.018 437.662 351.387 437.846 351.71C438.238 352.379 438.55 353.06 438.723 353.717L435.943 353.29C435.009 353.163 434.351 353.037 433.844 352.967C433.982 352.045 434.051 350.568 433.209 349.726C432.379 348.896 431.341 348.988 430.43 349.899C429.438 350.891 429.553 352.137 430.384 352.967C430.995 353.579 431.745 353.775 432.598 353.89C432.783 353.913 433.013 353.959 433.267 354.005C433.048 355.17 432.644 357.097 433.994 358.446C435.124 359.576 436.866 359.611 438.273 358.204C439.138 357.339 439.646 356.162 439.553 354.986L440.107 355.078C440.926 355.251 441.295 355.182 441.71 354.767ZM438.204 357.281C437.304 358.181 435.92 358.55 434.605 357.235C433.498 356.128 433.532 355.24 433.729 354.075L435.505 354.351C436.312 354.467 437.985 354.732 439.08 354.905C439.127 355.851 438.861 356.624 438.204 357.281ZM430.753 351.975C430.199 351.422 430.257 350.718 430.753 350.222C431.352 349.622 431.964 349.818 432.587 350.441C433.475 351.329 433.544 352.068 433.417 352.91C432.068 352.714 431.237 352.46 430.753 351.975ZM388.112 438.223L387.904 438.431C388.089 438.938 388.331 439.434 388.273 440.322C388.25 440.784 388.112 441.407 387.304 442.214L386.659 442.86C386.382 443.137 386.013 443.413 385.736 443.46C385.159 443.552 384.582 442.975 384.086 442.479L381.976 440.368L382.875 439.469C383.371 438.973 383.706 438.8 384.063 438.788C384.536 438.754 385.044 439.1 385.378 439.388L385.597 439.169L382.887 436.458L382.668 436.677C382.944 437 383.291 437.485 383.256 437.981C383.256 438.35 383.083 438.661 382.575 439.169L381.676 440.069L379.623 438.015C379.265 437.658 378.804 437.127 378.838 436.608C378.85 436.366 379.057 436.112 379.219 435.951L380.084 435.086C380.638 434.532 381.249 434.336 381.503 434.313C382.172 434.221 382.725 434.405 383.44 434.682L383.671 434.451L381.583 432.986L376.266 438.304L376.485 438.523C376.635 438.396 376.762 438.292 376.901 438.223C377.2 438.085 377.454 438.038 377.789 438.142C378.25 438.35 378.769 438.8 379.519 439.549L382.783 442.814C383.533 443.563 384.017 444.094 384.19 444.567C384.282 444.867 384.225 445.109 384.075 445.42C384.017 445.547 383.925 445.686 383.798 445.836L384.029 446.066L389.669 440.426L388.112 438.223ZM393.538 432.59C394.53 433.581 394.772 434.862 393.872 435.761C392.949 436.684 391.531 436.788 389.731 434.989C387.978 433.235 387.99 431.678 388.924 430.744C389.351 430.317 389.731 430.144 390.216 430.121C390.769 430.121 391.312 430.363 391.969 431.021L393.538 432.59ZM397.033 433.086L396.813 432.866C396.698 432.959 396.479 433.109 396.317 433.155C396.029 433.259 395.798 433.212 395.556 433.039C395.349 432.901 395.118 432.67 394.91 432.463L389.87 427.422C389.235 426.788 388.543 426.05 388.186 425.669C388.117 425.6 388.082 425.588 388.024 425.646L386.502 427.168L386.709 427.376C386.906 427.203 387.113 427.042 387.344 426.972C387.54 426.915 387.701 426.915 387.921 427.065C388.14 427.215 388.751 427.78 389.085 428.114L390.735 429.764L390.689 429.81C390.135 429.648 389.408 429.683 388.624 430.467C387.448 431.644 386.929 433.801 388.912 435.785C390.769 437.642 392.857 437.445 393.988 436.315C394.806 435.496 394.945 434.458 394.622 433.651L394.691 433.581L395.222 434.112C395.337 434.227 395.475 434.366 395.568 434.435C395.625 434.47 395.672 434.47 395.729 434.412C395.787 434.354 396.929 433.189 397.033 433.086ZM401.737 425.59L399.246 423.098C398.611 422.464 398.219 422.026 397.862 421.668C397.792 421.599 397.758 421.61 397.7 421.668L396.235 423.133L396.443 423.341C396.639 423.168 396.893 423.006 397.123 422.96C397.342 422.925 397.515 422.96 397.712 423.087C397.873 423.202 398.208 423.537 398.381 423.71L399.961 425.29C400.318 425.647 400.664 426.017 400.895 426.363C401.172 426.824 401.264 427.308 401.218 427.77C401.183 428.197 400.999 428.589 400.699 428.889C400.353 429.235 400.007 429.419 399.603 429.408C399.13 429.419 398.727 429.177 398.219 428.669L395.924 426.374C395.382 425.832 394.909 425.336 394.574 424.955C394.505 424.886 394.459 424.909 394.413 424.955L392.936 426.432L393.144 426.639C393.363 426.443 393.582 426.293 393.79 426.247C393.94 426.213 394.101 426.213 394.321 426.34C394.482 426.432 394.736 426.662 394.989 426.916L397.55 429.477C398.173 430.1 398.6 430.25 398.992 430.296C399.799 430.365 400.388 429.938 400.803 429.523C401.264 429.062 401.472 428.554 401.552 428.081C401.599 427.689 401.587 427.378 401.391 426.766L401.46 426.697L402.325 427.562C402.394 427.631 402.464 427.631 402.51 427.585L403.917 426.178L403.698 425.959C403.548 426.086 403.34 426.247 403.167 426.305C402.867 426.42 402.648 426.34 402.383 426.167C402.164 426.017 401.945 425.797 401.737 425.59ZM402.588 417.08C403.164 416.504 403.533 416.434 404.295 416.873C404.71 417.08 405.044 417.184 405.344 416.884C405.587 416.642 405.598 416.354 405.31 416.065C405.16 415.915 404.906 415.754 404.56 415.731C403.995 415.696 403.268 415.823 402.311 416.78C400.961 418.13 401.088 420.425 402.668 422.006C403.764 423.101 404.871 423.447 405.84 423.355C406.567 423.32 407.236 423.067 407.87 422.432C408.908 421.394 408.978 420.033 408.297 418.776L407.928 418.96C408.309 419.71 408.655 420.887 407.536 422.006C407.19 422.352 406.682 422.559 406.233 422.571C405.402 422.571 404.445 422.167 403.418 421.14C402.369 420.091 401.93 419.053 402.011 418.257C402.057 417.842 402.265 417.403 402.588 417.08ZM415.472 414.392L415.207 414.265C415.161 414.427 415.034 414.623 414.93 414.727C414.792 414.865 414.642 414.923 414.48 414.9C414.261 414.865 414.019 414.692 413.465 414.138L410.259 410.932C409.463 410.136 408.482 410.609 407.698 411.393C407.11 411.981 406.683 412.939 406.729 413.492C406.729 413.769 406.833 414.011 407.018 414.196C407.271 414.45 407.594 414.427 407.79 414.231C408.056 413.965 408.079 413.712 407.779 413.342C407.514 413.008 407.444 412.685 407.525 412.374C407.629 412.108 407.779 411.866 407.998 411.647C408.54 411.105 408.978 411.105 409.567 411.693L410.432 412.558C410.616 412.881 410.605 413.516 410.213 414.3C409.82 415.13 409.451 415.638 409.417 416.457C409.417 416.964 409.647 417.403 409.936 417.691C410.812 418.568 411.862 418.441 412.681 417.622C413.465 416.837 413.419 415.961 413.269 415.465L413.35 415.384C413.765 415.776 414.042 415.845 414.33 415.788C414.492 415.742 414.653 415.649 414.849 415.453C415.184 415.119 415.426 414.646 415.472 414.392ZM410.905 413.031L412.704 414.83C413.246 415.511 413.027 416.468 412.543 416.953C412.012 417.483 411.331 417.587 410.674 416.93C410.316 416.572 410.178 416.226 410.166 415.868C410.155 415.534 410.305 415.107 410.547 414.519C410.743 414.023 410.939 413.435 410.905 413.031ZM419.121 409.544C419.155 410.063 418.994 410.525 418.636 410.882C418.071 411.447 417.644 411.367 417.171 410.894L413.157 406.857L414.611 405.403L414.288 405.08L412.834 406.534L410.989 404.688L410.804 404.873C411.866 406.718 411.889 407.48 411.346 408.229L411.543 408.425C411.658 408.31 412.292 407.699 412.431 407.56C412.592 407.745 416.375 411.528 416.445 411.597C416.906 412.059 417.194 412.186 417.54 412.162C418.025 412.116 418.382 411.92 418.809 411.493C419.282 411.021 419.547 410.34 419.397 409.567L419.121 409.544ZM415.593 401.076C415.893 400.777 415.904 400.327 415.593 400.015C415.293 399.715 414.831 399.692 414.52 400.004C414.232 400.292 414.243 400.742 414.555 401.053C414.866 401.365 415.304 401.365 415.593 401.076ZM418.407 403.176C417.946 402.714 417.646 402.368 417.415 402.115C417.357 402.057 417.3 402.068 417.254 402.115L415.823 403.545L416.031 403.752C416.319 403.533 416.492 403.452 416.688 403.418C416.885 403.383 417.011 403.418 417.208 403.522C417.369 403.614 417.819 404.041 418.003 404.225L420.679 406.901C420.875 407.097 421.037 407.259 421.175 407.489C421.314 407.72 421.314 407.974 421.221 408.251C421.187 408.378 421.06 408.574 420.968 408.689L421.187 408.908L423.436 406.659L423.217 406.44C423.09 406.544 422.882 406.659 422.767 406.705C422.525 406.786 422.283 406.844 421.994 406.671C421.81 406.555 421.579 406.348 421.406 406.175L418.407 403.176ZM422.252 402.445C424.005 404.198 426.278 404.025 427.569 402.733C428.861 401.441 429.023 399.158 427.27 397.404C425.528 395.663 423.256 395.836 421.964 397.128C420.66 398.431 420.499 400.692 422.252 402.445ZM423.071 401.626C422.045 400.599 421.595 399.642 421.641 398.765C421.664 398.235 421.918 397.75 422.252 397.416C422.575 397.093 423.048 396.828 423.59 396.816C424.478 396.782 425.436 397.231 426.451 398.246C427.454 399.25 427.904 400.23 427.881 401.107C427.869 401.649 427.616 402.11 427.281 402.445C426.935 402.791 426.474 403.045 425.908 403.056C425.043 403.091 424.075 402.629 423.071 401.626ZM434.978 392.233L432.337 389.592C431.749 389.004 431.184 388.854 430.699 388.923C430.295 389.004 429.903 389.188 429.511 389.58C429.084 390.007 428.807 390.538 428.715 391.022C428.588 391.472 428.565 392.049 428.784 392.683L428.715 392.752C428.531 392.545 427.919 391.91 427.758 391.749C427.7 391.691 427.666 391.703 427.608 391.76L426.201 393.167L426.408 393.375C426.616 393.214 426.858 393.087 427.077 393.029C427.262 392.983 427.423 393.006 427.608 393.121C427.792 393.237 428.115 393.56 428.392 393.836L430.768 396.213C431.045 396.489 431.368 396.812 431.495 396.985C431.726 397.331 431.714 397.574 431.553 397.943C431.506 398.058 431.391 398.243 431.299 398.358L431.518 398.577L433.848 396.247L433.629 396.028C433.502 396.132 433.352 396.213 433.214 396.282C432.856 396.432 432.614 396.397 432.36 396.236C432.129 396.097 431.818 395.786 431.564 395.532L430.053 394.021C429.569 393.537 429.292 393.144 429.107 392.614C428.807 391.806 429.073 390.964 429.649 390.388C429.984 390.053 430.307 389.915 430.641 389.926C431.022 389.938 431.38 390.111 431.853 390.584L434.182 392.914C434.436 393.167 434.736 393.467 434.886 393.733C435.048 394.033 435.094 394.217 434.955 394.54C434.898 394.667 434.782 394.851 434.678 394.978L434.898 395.197L437.181 392.914L436.962 392.695C436.847 392.787 436.662 392.902 436.547 392.948C436.178 393.087 435.959 393.029 435.693 392.856C435.497 392.729 435.221 392.475 434.978 392.233Z" fill="black"/>
<path d="M418.084 111.76L416.181 109.857L407.081 113.929L407 113.848L411.106 104.782L409.053 102.729L408.822 102.96C408.949 103.11 409.099 103.283 409.18 103.456C409.295 103.709 409.364 103.963 409.249 104.286C409.088 104.678 408.788 105.047 408.13 105.705L403.966 109.869C403.39 110.445 403.055 110.618 402.721 110.676C402.409 110.734 402.202 110.688 401.948 110.549C401.809 110.48 401.66 110.376 401.498 110.238L401.267 110.468L403.69 112.891L403.92 112.66C403.77 112.464 403.69 112.337 403.597 112.175C403.482 111.945 403.447 111.726 403.505 111.437C403.563 111.126 403.747 110.803 404.324 110.226L409.514 105.036L409.607 105.128L405.362 114.678L405.731 115.048L415.247 110.814L415.328 110.895L410.76 115.463C410.01 116.212 409.503 116.674 409.018 116.858C408.707 116.985 408.419 116.928 408.153 116.778C408.038 116.708 407.853 116.57 407.715 116.455L407.484 116.685L410.322 119.523L410.552 119.292C410.437 119.154 410.333 119.004 410.276 118.9C410.114 118.6 410.045 118.323 410.172 118.012C410.356 117.55 410.841 117.043 411.591 116.293L414.843 113.041C415.651 112.233 416.1 111.806 416.562 111.622C416.896 111.518 417.162 111.576 417.404 111.68C417.542 111.749 417.715 111.876 417.854 111.991L418.084 111.76ZM418.316 117.759C418.8 117.805 419.216 118.013 419.539 118.336C419.931 118.728 420.092 119.097 420.127 119.501C420.161 119.951 420 120.366 419.481 120.885C418.973 121.392 418.766 121.392 418.408 121.035L416.055 118.682C416.943 118.001 417.762 117.713 418.316 117.759ZM418.005 124.068L417.843 123.722C416.863 124.218 415.778 124.38 414.787 123.388C414.314 122.915 414.06 122.361 414.071 121.75C414.106 120.931 414.694 119.974 415.398 119.27C415.513 119.155 415.617 119.051 415.732 118.959L419.354 122.58C419.527 122.454 419.781 122.223 419.977 122.027C420.807 121.196 421.315 119.512 419.827 118.024C418.501 116.698 416.182 116.825 414.59 118.417C413.771 119.235 413.252 120.216 413.241 121.312C413.218 122.165 413.541 122.949 414.233 123.642C415.248 124.657 416.62 124.807 418.005 124.068ZM421.689 129.46C421.17 129.494 420.708 129.333 420.351 128.975C419.786 128.41 419.866 127.983 420.339 127.51L424.376 123.496L425.83 124.95L426.153 124.627L424.699 123.173L426.545 121.328L426.36 121.143C424.515 122.205 423.753 122.228 423.004 121.685L422.808 121.882C422.923 121.997 423.534 122.631 423.673 122.77C423.488 122.931 419.705 126.714 419.636 126.784C419.174 127.245 419.047 127.533 419.07 127.879C419.117 128.364 419.313 128.721 419.739 129.148C420.212 129.621 420.893 129.886 421.666 129.736L421.689 129.46ZM428.622 134.94L431.241 132.322C431.841 131.722 432.002 131.191 431.933 130.684C431.887 130.269 431.679 129.876 431.287 129.484C430.849 129.046 430.318 128.769 429.834 128.677C429.372 128.538 428.83 128.527 428.242 128.723L428.173 128.654L430.756 126.07C431.114 125.713 431.852 124.997 431.956 124.894C432.025 124.824 432.014 124.79 431.956 124.732L430.479 123.256L430.26 123.475C430.445 123.683 430.595 123.902 430.664 124.155C430.71 124.317 430.687 124.525 430.56 124.698C430.456 124.847 430.226 125.124 429.926 125.424L424.574 130.776C424.32 131.03 424.032 131.318 423.824 131.457C423.49 131.676 423.236 131.653 422.913 131.514C422.798 131.468 422.625 131.364 422.498 131.261L422.279 131.48L424.597 133.798L424.816 133.579C424.712 133.452 424.609 133.279 424.551 133.152C424.436 132.852 424.447 132.61 424.689 132.229C424.816 132.033 425.012 131.791 425.301 131.503L426.8 130.003C427.261 129.542 427.734 129.207 428.242 129.046C429.015 128.781 429.857 129 430.468 129.611C430.802 129.946 430.987 130.315 430.918 130.73C430.872 131.099 430.664 131.445 430.272 131.837L427.953 134.156C427.665 134.444 427.423 134.663 427.204 134.79C426.835 135.021 426.592 135.032 426.327 134.928C426.189 134.882 426.027 134.767 425.877 134.64L425.658 134.859L427.953 137.155L428.173 136.935C428.069 136.809 427.953 136.647 427.907 136.509C427.78 136.174 427.815 135.955 428 135.655C428.138 135.447 428.38 135.182 428.622 134.94ZM433.933 142.903L434.06 142.638C433.898 142.592 433.702 142.465 433.599 142.361C433.46 142.223 433.403 142.073 433.426 141.912C433.46 141.692 433.633 141.45 434.187 140.897L437.393 137.69C438.189 136.894 437.716 135.914 436.932 135.129C436.344 134.541 435.386 134.114 434.833 134.16C434.556 134.16 434.314 134.264 434.129 134.449C433.875 134.703 433.898 135.026 434.095 135.222C434.36 135.487 434.614 135.51 434.983 135.21C435.317 134.945 435.64 134.876 435.952 134.956C436.217 135.06 436.459 135.21 436.678 135.429C437.22 135.971 437.22 136.41 436.632 136.998L435.767 137.863C435.444 138.048 434.81 138.036 434.025 137.644C433.195 137.252 432.687 136.883 431.868 136.848C431.361 136.848 430.923 137.079 430.634 137.367C429.758 138.244 429.885 139.293 430.704 140.112C431.488 140.897 432.364 140.85 432.86 140.7L432.941 140.781C432.549 141.196 432.48 141.473 432.537 141.762C432.584 141.923 432.676 142.085 432.872 142.281C433.206 142.615 433.679 142.857 433.933 142.903ZM435.294 138.336L433.495 140.135C432.814 140.677 431.857 140.458 431.372 139.974C430.842 139.443 430.738 138.763 431.396 138.105C431.753 137.748 432.099 137.609 432.457 137.598C432.791 137.586 433.218 137.736 433.806 137.978C434.302 138.174 434.89 138.371 435.294 138.336ZM441.388 147.705L444.029 145.064C444.617 144.476 444.767 143.91 444.698 143.426C444.617 143.022 444.433 142.63 444.041 142.238C443.614 141.811 443.083 141.534 442.599 141.442C442.149 141.315 441.572 141.292 440.938 141.511L440.869 141.442C441.076 141.258 441.711 140.646 441.872 140.485C441.93 140.427 441.918 140.393 441.861 140.335L440.453 138.928L440.246 139.135C440.407 139.343 440.534 139.585 440.592 139.804C440.638 139.989 440.615 140.15 440.5 140.335C440.384 140.519 440.061 140.842 439.784 141.119L437.408 143.495C437.132 143.772 436.809 144.095 436.636 144.222C436.29 144.453 436.047 144.441 435.678 144.28C435.563 144.233 435.378 144.118 435.263 144.026L435.044 144.245L437.374 146.575L437.593 146.356C437.489 146.229 437.408 146.079 437.339 145.94C437.189 145.583 437.224 145.341 437.385 145.087C437.524 144.856 437.835 144.545 438.089 144.291L439.6 142.78C440.084 142.296 440.477 142.019 441.007 141.834C441.815 141.534 442.657 141.8 443.233 142.376C443.568 142.711 443.706 143.034 443.695 143.368C443.683 143.749 443.51 144.107 443.037 144.579L440.707 146.909C440.453 147.163 440.154 147.463 439.888 147.613C439.588 147.774 439.404 147.821 439.081 147.682C438.954 147.624 438.769 147.509 438.643 147.405L438.423 147.624L440.707 149.908L440.926 149.689C440.834 149.574 440.719 149.389 440.673 149.274C440.534 148.905 440.592 148.686 440.765 148.42C440.892 148.224 441.146 147.947 441.388 147.705ZM448.59 148.033C449.075 148.079 449.49 148.287 449.813 148.61C450.205 149.002 450.367 149.371 450.401 149.775C450.436 150.225 450.274 150.64 449.755 151.159C449.248 151.667 449.04 151.667 448.683 151.309L446.33 148.956C447.218 148.276 448.037 147.987 448.59 148.033ZM448.279 154.343L448.117 153.997C447.137 154.493 446.053 154.654 445.061 153.662C444.588 153.189 444.334 152.635 444.346 152.024C444.38 151.205 444.968 150.248 445.672 149.544C445.787 149.429 445.891 149.325 446.007 149.233L449.628 152.855C449.801 152.728 450.055 152.497 450.251 152.301C451.082 151.471 451.589 149.787 450.101 148.299C448.775 146.972 446.456 147.099 444.865 148.691C444.046 149.51 443.527 150.49 443.515 151.586C443.492 152.439 443.815 153.224 444.507 153.916C445.522 154.931 446.895 155.081 448.279 154.343ZM398.004 125.967C398.823 126.786 399.054 127.478 399.019 128.366C398.973 129.104 398.696 129.981 398.073 131.042L398.315 131.284L400.853 128.747L400.657 128.551L399.953 128.724L399.907 128.678C399.838 127.962 399.515 126.832 398.35 125.667C396.493 123.81 393.113 123.729 390.737 126.105C388.35 128.493 388.154 131.619 390.23 133.695C391.775 135.241 393.679 135.414 395.536 134.479L395.409 134.122C393.379 135.114 391.925 134.422 390.933 133.43C390.334 132.83 389.953 132.288 389.803 131.469C389.618 130.408 389.757 128.977 391.66 127.074C393.413 125.321 394.867 124.975 395.962 125.056C396.931 125.079 397.531 125.494 398.004 125.967ZM399.437 142.349L399.564 142.084C399.403 142.038 399.207 141.911 399.103 141.807C398.965 141.668 398.907 141.518 398.93 141.357C398.965 141.138 399.138 140.896 399.691 140.342L402.898 137.135C403.694 136.34 403.221 135.359 402.436 134.575C401.848 133.987 400.891 133.56 400.337 133.606C400.06 133.606 399.818 133.71 399.634 133.894C399.38 134.148 399.403 134.471 399.599 134.667C399.864 134.932 400.118 134.955 400.487 134.656C400.822 134.39 401.145 134.321 401.456 134.402C401.721 134.506 401.963 134.656 402.183 134.875C402.725 135.417 402.725 135.855 402.136 136.443L401.271 137.308C400.948 137.493 400.314 137.481 399.53 137.089C398.699 136.697 398.192 136.328 397.373 136.293C396.865 136.293 396.427 136.524 396.139 136.812C395.262 137.689 395.389 138.739 396.208 139.558C396.992 140.342 397.869 140.296 398.365 140.146L398.446 140.227C398.053 140.642 397.984 140.919 398.042 141.207C398.088 141.369 398.18 141.53 398.376 141.726C398.711 142.061 399.184 142.303 399.437 142.349ZM400.798 137.781L398.999 139.581C398.319 140.123 397.361 139.904 396.877 139.419C396.346 138.889 396.242 138.208 396.9 137.551C397.257 137.193 397.604 137.055 397.961 137.043C398.296 137.032 398.722 137.182 399.311 137.424C399.807 137.62 400.395 137.816 400.798 137.781ZM407.78 145.501C406.062 147.22 404.585 147.404 403.605 146.424C403.155 145.974 402.947 145.467 402.982 144.925C402.994 144.382 403.259 143.817 403.997 143.079L405.37 141.707C405.877 141.199 406.592 140.945 407.134 140.934C407.734 140.911 408.288 141.072 408.761 141.545C409.568 142.352 409.649 143.633 407.78 145.501ZM400.306 145.317C400.075 145.547 399.833 145.813 399.602 145.951C399.268 146.147 399.037 146.124 398.795 146.043C398.657 145.997 398.484 145.87 398.345 145.755L398.138 145.963L400.421 148.246L400.629 148.039C400.479 147.866 400.352 147.693 400.294 147.543C400.202 147.312 400.225 147.035 400.41 146.759C400.56 146.539 400.802 146.274 401.033 146.043L402.417 144.659L402.486 144.729C402.463 145.513 402.832 146.205 403.316 146.689C404.551 147.924 406.661 148.235 408.565 146.332C410.629 144.267 410.295 142.433 409.176 141.314C408.426 140.565 407.469 140.415 406.431 140.692L406.373 140.634L407.227 139.803C407.284 139.746 407.273 139.688 407.227 139.642L405.796 138.212L405.589 138.419C405.762 138.638 405.912 138.904 405.958 139.181C405.981 139.365 405.946 139.538 405.842 139.711C405.739 139.884 405.416 140.207 405.231 140.392L400.306 145.317ZM411.147 152.859C410.628 152.893 410.166 152.732 409.809 152.374C409.244 151.809 409.324 151.382 409.797 150.909L413.834 146.895L415.288 148.349L415.61 148.026L414.157 146.572L416.003 144.727L415.818 144.542C413.973 145.604 413.211 145.627 412.462 145.085L412.266 145.281C412.381 145.396 412.992 146.03 413.131 146.169C412.946 146.33 409.163 150.113 409.094 150.183C408.632 150.644 408.505 150.932 408.528 151.278C408.575 151.763 408.771 152.12 409.197 152.547C409.67 153.02 410.351 153.285 411.124 153.135L411.147 152.859ZM417.838 158.212L420.33 155.721C420.964 155.086 421.402 154.694 421.76 154.337C421.829 154.267 421.818 154.233 421.76 154.175L420.295 152.71L420.087 152.918C420.26 153.114 420.422 153.368 420.468 153.598C420.503 153.818 420.468 153.991 420.341 154.187C420.226 154.348 419.891 154.683 419.718 154.856L418.138 156.436C417.781 156.793 417.411 157.139 417.065 157.37C416.604 157.647 416.12 157.739 415.658 157.693C415.231 157.659 414.839 157.474 414.539 157.174C414.193 156.828 414.009 156.482 414.02 156.078C414.009 155.605 414.251 155.202 414.759 154.694L417.054 152.399C417.596 151.857 418.092 151.384 418.473 151.049C418.542 150.98 418.519 150.934 418.473 150.888L416.996 149.411L416.789 149.619C416.985 149.838 417.135 150.057 417.181 150.265C417.215 150.415 417.215 150.576 417.088 150.796C416.996 150.957 416.766 151.211 416.512 151.465L413.951 154.025C413.328 154.648 413.178 155.075 413.132 155.467C413.063 156.274 413.49 156.863 413.905 157.278C414.366 157.739 414.874 157.947 415.347 158.028C415.739 158.074 416.05 158.062 416.662 157.866L416.731 157.935L415.866 158.8C415.797 158.87 415.797 158.939 415.843 158.985L417.25 160.392L417.469 160.173C417.342 160.023 417.181 159.815 417.123 159.642C417.008 159.343 417.088 159.123 417.261 158.858C417.411 158.639 417.631 158.42 417.838 158.212ZM424.329 159.144L424.26 159.074C424.214 159.12 425.448 157.955 425.425 157.979C425.459 157.944 425.471 157.886 425.413 157.829L424.006 156.421L423.799 156.629C423.937 156.837 424.075 157.044 424.133 157.287C424.168 157.46 424.145 157.667 424.041 157.84C423.937 158.013 423.522 158.428 423.326 158.624L420.846 161.104C420.615 161.335 420.361 161.589 420.119 161.739C419.796 161.923 419.6 161.935 419.3 161.843C419.15 161.762 418.966 161.646 418.85 161.554L418.631 161.773L420.938 164.08L421.157 163.861C421.042 163.723 420.938 163.573 420.857 163.4C420.765 163.215 420.8 163.019 420.892 162.788C420.996 162.5 421.169 162.235 421.619 161.785L422.818 160.585C423.118 160.285 423.487 159.939 423.568 159.882C424.56 159.097 425.863 158.971 426.232 159.34C426.371 159.478 426.44 159.64 426.359 159.859C426.232 160.147 426.14 160.424 426.417 160.701C426.728 161.012 427.063 160.885 427.282 160.666C427.501 160.447 427.559 160.228 427.559 160.066C427.536 159.813 427.409 159.547 427.201 159.34C426.809 158.947 426.371 158.832 425.99 158.798C425.517 158.763 425.056 158.832 424.329 159.144ZM429.948 163.332C430.432 163.378 430.847 163.586 431.17 163.909C431.563 164.301 431.724 164.67 431.759 165.074C431.793 165.524 431.632 165.939 431.113 166.458C430.605 166.965 430.398 166.965 430.04 166.608L427.687 164.255C428.575 163.574 429.394 163.286 429.948 163.332ZM429.636 169.641L429.475 169.295C428.494 169.791 427.41 169.953 426.418 168.961C425.945 168.488 425.692 167.934 425.703 167.323C425.738 166.504 426.326 165.547 427.03 164.843C427.145 164.728 427.249 164.624 427.364 164.532L430.986 168.153C431.159 168.026 431.413 167.796 431.609 167.6C432.439 166.769 432.947 165.085 431.459 163.597C430.132 162.271 427.814 162.398 426.222 163.989C425.403 164.808 424.884 165.789 424.873 166.885C424.85 167.738 425.173 168.522 425.865 169.214C426.88 170.229 428.252 170.379 429.636 169.641Z" fill="black"/>
</svg>
