<svg width="552" height="552" viewBox="0 0 552 552" fill="none" xmlns="http://www.w3.org/2000/svg">
<rect width="552" height="552" fill="white"/>
<path d="M229.136 261.826C226.233 261.826 224.047 264.338 224.047 267.536C224.047 270.716 226.233 273.228 229.136 273.228C232.007 273.228 234.209 270.716 234.209 267.536C234.209 264.338 232.007 261.826 229.136 261.826ZM229.136 272.772C228.239 272.772 227.538 272.511 226.967 272.005C225.972 271.124 225.401 269.591 225.401 267.536C225.401 265.448 225.972 263.931 226.934 263.082C227.538 262.56 228.239 262.299 229.136 262.299C230.017 262.299 230.719 262.56 231.306 263.066C232.285 263.947 232.839 265.497 232.839 267.536C232.839 269.64 232.268 271.173 231.29 272.021C230.702 272.511 230.001 272.772 229.136 272.772ZM242.71 271.043V267.519C242.71 266.622 242.742 266.035 242.742 265.529C242.742 265.431 242.71 265.415 242.628 265.415H240.556V265.709C240.817 265.725 241.111 265.79 241.307 265.921C241.486 266.051 241.584 266.198 241.633 266.426C241.666 266.622 241.666 267.095 241.666 267.34V269.574C241.666 270.08 241.649 270.586 241.568 270.994C241.437 271.516 241.16 271.923 240.801 272.217C240.475 272.494 240.067 272.641 239.643 272.641C239.154 272.641 238.778 272.527 238.501 272.233C238.159 271.907 238.044 271.45 238.044 270.733V267.487C238.044 266.72 238.061 266.035 238.093 265.529C238.093 265.431 238.044 265.415 237.979 265.415H235.891V265.709C236.185 265.725 236.446 265.774 236.625 265.888C236.756 265.97 236.87 266.084 236.935 266.328C236.984 266.508 237 266.85 237 267.209V270.831C237 271.711 237.196 272.119 237.441 272.429C237.963 273.049 238.681 273.163 239.268 273.163C239.92 273.163 240.426 272.951 240.817 272.674C241.127 272.429 241.339 272.201 241.633 271.63H241.731V272.853C241.731 272.951 241.78 273 241.845 273H243.835V272.69C243.639 272.674 243.378 272.641 243.215 272.56C242.922 272.429 242.824 272.217 242.759 271.907C242.71 271.646 242.71 271.336 242.71 271.043ZM247.493 267.111H247.395C247.395 267.177 247.444 265.48 247.444 265.513C247.444 265.464 247.411 265.415 247.33 265.415H245.34V265.709C245.584 265.758 245.829 265.806 246.041 265.937C246.188 266.035 246.318 266.198 246.367 266.394C246.416 266.589 246.416 267.177 246.416 267.454V270.961C246.416 271.287 246.416 271.646 246.351 271.923C246.253 272.282 246.123 272.429 245.845 272.576C245.682 272.625 245.47 272.674 245.323 272.69V273H248.586V272.69C248.406 272.674 248.227 272.641 248.047 272.576C247.852 272.511 247.738 272.348 247.64 272.119C247.509 271.842 247.444 271.532 247.444 270.896V269.199C247.444 268.775 247.46 268.27 247.477 268.172C247.623 266.916 248.455 265.904 248.977 265.904C249.173 265.904 249.336 265.97 249.434 266.182C249.548 266.475 249.679 266.736 250.07 266.736C250.511 266.736 250.657 266.41 250.657 266.1C250.657 265.79 250.543 265.594 250.429 265.48C250.233 265.317 249.956 265.219 249.662 265.219C249.108 265.219 248.716 265.448 248.423 265.692C248.064 266.002 247.786 266.377 247.493 267.111ZM262.691 270.096C262.691 268.188 261.419 267.552 259.56 266.671C258.304 266.084 257.048 265.611 257.048 264.012C257.048 262.789 258.026 262.25 258.972 262.25C259.739 262.25 260.163 262.446 260.506 262.675C261.077 263.082 261.582 263.98 261.86 264.844H262.186L261.892 261.989H261.566L261.338 262.593H261.256C260.75 262.12 260.098 261.81 259.005 261.81C257.178 261.81 256.036 263.017 256.036 264.469C256.036 266.279 257.39 267.046 258.858 267.731C260.587 268.514 261.68 268.955 261.68 270.684C261.68 271.842 260.913 272.788 259.282 272.788C257.733 272.788 256.607 271.255 256.085 269.444H255.775L255.938 272.87H256.167L256.542 272.184H256.64C257.194 272.723 258.14 273.228 259.299 273.228C261.028 273.228 262.691 272.087 262.691 270.096ZM271.077 271.043V267.519C271.077 266.622 271.109 266.035 271.109 265.529C271.109 265.431 271.077 265.415 270.995 265.415H268.923V265.709C269.184 265.725 269.478 265.79 269.674 265.921C269.853 266.051 269.951 266.198 270 266.426C270.033 266.622 270.033 267.095 270.033 267.34V269.574C270.033 270.08 270.016 270.586 269.935 270.994C269.804 271.516 269.527 271.923 269.168 272.217C268.842 272.494 268.434 272.641 268.01 272.641C267.521 272.641 267.145 272.527 266.868 272.233C266.526 271.907 266.411 271.45 266.411 270.733V267.487C266.411 266.72 266.428 266.035 266.46 265.529C266.46 265.431 266.411 265.415 266.346 265.415H264.258V265.709C264.552 265.725 264.813 265.774 264.992 265.888C265.123 265.97 265.237 266.084 265.302 266.328C265.351 266.508 265.367 266.85 265.367 267.209V270.831C265.367 271.711 265.563 272.119 265.808 272.429C266.33 273.049 267.048 273.163 267.635 273.163C268.287 273.163 268.793 272.951 269.184 272.674C269.494 272.429 269.706 272.201 270 271.63H270.098V272.853C270.098 272.951 270.147 273 270.212 273H272.202V272.69C272.006 272.674 271.745 272.641 271.582 272.56C271.289 272.429 271.191 272.217 271.126 271.907C271.077 271.646 271.077 271.336 271.077 271.043ZM280.117 269.167C280.117 271.597 279.204 272.772 277.817 272.772C277.181 272.772 276.675 272.56 276.317 272.152C275.941 271.76 275.729 271.173 275.729 270.129V268.188C275.729 267.47 276.056 266.785 276.431 266.394C276.839 265.953 277.344 265.676 278.013 265.676C279.155 265.676 280.117 266.524 280.117 269.167ZM274.702 274.321C274.702 274.648 274.718 275.006 274.653 275.267C274.555 275.643 274.375 275.789 274.147 275.904C274.017 275.969 273.805 276.001 273.625 276.018V276.311H276.855V276.018C276.627 276.001 276.414 275.969 276.268 275.904C276.039 275.806 275.86 275.594 275.795 275.267C275.746 275.006 275.729 274.648 275.729 274.321V272.364H275.827C276.366 272.935 277.116 273.163 277.801 273.163C279.546 273.163 281.259 271.891 281.259 269.199C281.259 266.279 279.726 265.219 278.144 265.219C277.083 265.219 276.3 265.79 275.762 266.72H275.68L275.697 265.529C275.697 265.448 275.648 265.415 275.583 265.415H273.56V265.709C273.837 265.741 274.131 265.823 274.359 265.986C274.506 266.1 274.604 266.247 274.653 266.443C274.702 266.638 274.702 267.095 274.702 267.356V274.321ZM289.356 269.167C289.356 271.597 288.442 272.772 287.056 272.772C286.419 272.772 285.914 272.56 285.555 272.152C285.18 271.76 284.968 271.173 284.968 270.129V268.188C284.968 267.47 285.294 266.785 285.669 266.394C286.077 265.953 286.583 265.676 287.251 265.676C288.393 265.676 289.356 266.524 289.356 269.167ZM283.94 274.321C283.94 274.648 283.956 275.006 283.891 275.267C283.793 275.643 283.614 275.789 283.385 275.904C283.255 275.969 283.043 276.001 282.863 276.018V276.311H286.093V276.018C285.865 276.001 285.653 275.969 285.506 275.904C285.278 275.806 285.098 275.594 285.033 275.267C284.984 275.006 284.968 274.648 284.968 274.321V272.364H285.066C285.604 272.935 286.354 273.163 287.039 273.163C288.785 273.163 290.497 271.891 290.497 269.199C290.497 266.279 288.964 265.219 287.382 265.219C286.322 265.219 285.539 265.79 285 266.72H284.919L284.935 265.529C284.935 265.448 284.886 265.415 284.821 265.415H282.798V265.709C283.075 265.741 283.369 265.823 283.597 265.986C283.744 266.1 283.842 266.247 283.891 266.443C283.94 266.638 283.94 267.095 283.94 267.356V274.321ZM292.377 269.183C292.377 271.662 294.106 273.147 295.933 273.147C297.76 273.147 299.489 271.646 299.489 269.167C299.489 266.704 297.76 265.219 295.933 265.219C294.09 265.219 292.377 266.704 292.377 269.183ZM293.535 269.183C293.535 267.731 293.894 266.736 294.547 266.149C294.938 265.79 295.46 265.627 295.933 265.627C296.39 265.627 296.912 265.774 297.303 266.149C297.956 266.753 298.315 267.748 298.315 269.183C298.315 270.602 297.939 271.613 297.303 272.217C296.912 272.592 296.406 272.739 295.933 272.739C295.444 272.739 294.938 272.592 294.53 272.201C293.894 271.613 293.535 270.602 293.535 269.183ZM303.336 267.111H303.238C303.238 267.177 303.287 265.48 303.287 265.513C303.287 265.464 303.254 265.415 303.173 265.415H301.183V265.709C301.427 265.758 301.672 265.806 301.884 265.937C302.031 266.035 302.161 266.198 302.21 266.394C302.259 266.589 302.259 267.177 302.259 267.454V270.961C302.259 271.287 302.259 271.646 302.194 271.923C302.096 272.282 301.966 272.429 301.688 272.576C301.525 272.625 301.313 272.674 301.166 272.69V273H304.429V272.69C304.249 272.674 304.07 272.641 303.89 272.576C303.695 272.511 303.58 272.348 303.483 272.119C303.352 271.842 303.287 271.532 303.287 270.896V269.199C303.287 268.775 303.303 268.27 303.319 268.172C303.466 266.916 304.298 265.904 304.82 265.904C305.016 265.904 305.179 265.97 305.277 266.182C305.391 266.475 305.522 266.736 305.913 266.736C306.353 266.736 306.5 266.41 306.5 266.1C306.5 265.79 306.386 265.594 306.272 265.48C306.076 265.317 305.799 265.219 305.505 265.219C304.951 265.219 304.559 265.448 304.266 265.692C303.907 266.002 303.629 266.377 303.336 267.111ZM312.051 271.989C311.708 272.38 311.268 272.592 310.762 272.592C309.963 272.592 309.718 272.233 309.718 271.565L309.734 265.872H311.79V265.415H309.734V262.805H309.473C308.919 264.86 308.397 265.415 307.483 265.562V265.839C307.646 265.839 308.527 265.855 308.723 265.855C308.707 266.1 308.707 271.45 308.707 271.548C308.707 272.201 308.821 272.494 309.082 272.723C309.457 273.033 309.849 273.147 310.452 273.147C311.121 273.147 311.79 272.853 312.23 272.201L312.051 271.989ZM315.539 266.1C315.914 265.79 316.355 265.643 316.811 265.643C317.366 265.643 317.741 265.79 318.051 266.051C318.394 266.345 318.573 266.753 318.573 267.487C318.573 268.204 318.426 268.351 317.921 268.351H314.593C314.74 267.242 315.115 266.459 315.539 266.1ZM319.78 270.782L319.421 270.651C319.079 271.695 318.426 272.576 317.023 272.576C316.355 272.576 315.784 272.364 315.36 271.923C314.805 271.32 314.544 270.227 314.544 269.232C314.544 269.069 314.544 268.922 314.56 268.775H319.682C319.715 268.563 319.731 268.221 319.731 267.943C319.731 266.769 318.899 265.219 316.795 265.219C314.919 265.219 313.37 266.948 313.37 269.199C313.37 270.357 313.696 271.418 314.463 272.201C315.05 272.821 315.833 273.147 316.811 273.147C318.247 273.147 319.323 272.282 319.78 270.782ZM327.086 270.194C327.086 271.597 326.352 272.674 325.08 272.674C323.775 272.674 322.698 271.744 322.698 269.199C322.698 266.72 323.808 265.627 325.129 265.627C325.732 265.627 326.124 265.774 326.483 266.1C326.874 266.492 327.086 267.046 327.086 267.976V270.194ZM329.207 273.016V272.706C329.06 272.69 328.799 272.641 328.652 272.56C328.375 272.429 328.244 272.233 328.195 271.94C328.147 271.695 328.147 271.369 328.147 271.075V263.947C328.147 263.05 328.179 262.038 328.195 261.516C328.195 261.419 328.179 261.386 328.098 261.386H325.944V261.68C326.205 261.696 326.466 261.728 326.678 261.843C326.858 261.941 326.972 262.055 327.021 262.316C327.07 262.577 327.103 263.409 327.103 263.882V266.214H327.037C326.76 265.709 326.222 265.219 325.113 265.219C323.449 265.219 321.557 266.377 321.557 269.183C321.557 271.809 323.171 273.147 324.77 273.147C325.928 273.147 326.76 272.511 327.103 271.711H327.2V272.462C327.2 272.625 327.2 272.821 327.217 272.935C327.233 273 327.266 273.033 327.347 273.033C327.429 273.033 329.06 273.016 329.207 273.016ZM251.2 283.197C251.2 282.887 251.216 282.74 251.347 282.593C251.461 282.462 251.608 282.43 251.885 282.43H252.831C254.528 282.43 255.392 283.213 255.392 284.86C255.392 285.399 255.311 286.084 254.935 286.557C254.544 287.014 253.891 287.438 252.472 287.438C252.081 287.438 251.494 287.389 251.2 287.323V283.197ZM252.635 292.674C252.456 292.657 252.26 292.641 252.113 292.592C251.787 292.494 251.591 292.331 251.428 292.005C251.249 291.581 251.2 290.994 251.2 290.015V287.796C251.445 287.829 251.999 287.878 252.456 287.878C253.826 287.878 254.723 287.568 255.278 287.242C256.061 286.785 256.615 285.921 256.615 284.73C256.615 282.87 255.098 282.022 252.978 282.022H248.623V282.348C248.851 282.365 249.014 282.397 249.128 282.43C249.422 282.528 249.634 282.675 249.797 282.984C249.993 283.425 250.025 284.012 250.025 284.975V290.031C250.025 290.994 249.993 291.581 249.797 292.021C249.634 292.364 249.438 292.494 249.177 292.576C248.981 292.641 248.818 292.657 248.655 292.674V293H252.635V292.674ZM260.092 287.111H259.994C259.994 287.177 260.043 285.48 260.043 285.513C260.043 285.464 260.01 285.415 259.929 285.415H257.939V285.709C258.183 285.758 258.428 285.806 258.64 285.937C258.787 286.035 258.917 286.198 258.966 286.394C259.015 286.589 259.015 287.177 259.015 287.454V290.961C259.015 291.287 259.015 291.646 258.95 291.923C258.852 292.282 258.722 292.429 258.444 292.576C258.281 292.625 258.069 292.674 257.922 292.69V293H261.185V292.69C261.005 292.674 260.826 292.641 260.646 292.576C260.451 292.511 260.336 292.348 260.239 292.119C260.108 291.842 260.043 291.532 260.043 290.896V289.199C260.043 288.775 260.059 288.27 260.076 288.172C260.222 286.916 261.054 285.904 261.576 285.904C261.772 285.904 261.935 285.97 262.033 286.182C262.147 286.475 262.278 286.736 262.669 286.736C263.11 286.736 263.256 286.41 263.256 286.1C263.256 285.79 263.142 285.594 263.028 285.48C262.832 285.317 262.555 285.219 262.261 285.219C261.707 285.219 261.315 285.448 261.022 285.692C260.663 286.002 260.385 286.377 260.092 287.111ZM264.392 289.183C264.392 291.662 266.121 293.147 267.948 293.147C269.775 293.147 271.504 291.646 271.504 289.167C271.504 286.704 269.775 285.219 267.948 285.219C266.105 285.219 264.392 286.704 264.392 289.183ZM265.55 289.183C265.55 287.731 265.909 286.736 266.561 286.149C266.953 285.79 267.475 285.627 267.948 285.627C268.405 285.627 268.927 285.774 269.318 286.149C269.971 286.753 270.329 287.748 270.329 289.183C270.329 290.602 269.954 291.613 269.318 292.217C268.927 292.592 268.421 292.739 267.948 292.739C267.459 292.739 266.953 292.592 266.545 292.201C265.909 291.613 265.55 290.602 265.55 289.183ZM274.829 283.506C275.253 283.506 275.563 283.197 275.563 282.756C275.563 282.332 275.253 281.989 274.829 281.989C274.421 281.989 274.095 282.316 274.095 282.756C274.095 283.197 274.421 283.506 274.829 283.506ZM274.339 293.946C274.339 294.745 274.225 295.267 274.013 295.594C273.801 295.871 273.54 295.92 273.181 295.92C272.724 295.92 272.48 295.74 272.48 295.382C272.48 295.316 272.48 295.251 272.496 295.137C272.512 295.023 272.529 294.957 272.529 294.827C272.529 294.452 272.284 294.24 271.925 294.24C271.615 294.24 271.338 294.484 271.338 294.925C271.338 295.333 271.534 295.708 271.909 295.969C272.219 296.197 272.626 296.311 273.165 296.311C273.817 296.311 274.192 296.116 274.502 295.822C274.926 295.414 275.367 294.713 275.367 292.788V286.981C275.367 286.345 275.4 285.888 275.4 285.529C275.4 285.448 275.367 285.415 275.285 285.415H273.263V285.709C273.589 285.758 273.801 285.823 273.98 285.937C274.127 286.035 274.225 286.165 274.274 286.377C274.323 286.573 274.339 287.128 274.339 287.421V293.946ZM280.036 286.1C280.411 285.79 280.852 285.643 281.308 285.643C281.863 285.643 282.238 285.79 282.548 286.051C282.891 286.345 283.07 286.753 283.07 287.487C283.07 288.204 282.923 288.351 282.418 288.351H279.09C279.237 287.242 279.612 286.459 280.036 286.1ZM284.277 290.782L283.918 290.651C283.576 291.695 282.923 292.576 281.52 292.576C280.852 292.576 280.281 292.364 279.857 291.923C279.302 291.32 279.041 290.227 279.041 289.232C279.041 289.069 279.041 288.922 279.057 288.775H284.179C284.212 288.563 284.228 288.221 284.228 287.943C284.228 286.769 283.396 285.219 281.292 285.219C279.416 285.219 277.867 286.948 277.867 289.199C277.867 290.357 278.193 291.418 278.959 292.201C279.547 292.821 280.33 293.147 281.308 293.147C282.744 293.147 283.82 292.282 284.277 290.782ZM289.463 285.627C290.278 285.627 290.588 285.839 290.817 286.687C290.963 287.128 291.126 287.438 291.551 287.438C291.893 287.438 292.105 287.242 292.105 286.834C292.105 286.622 292.04 286.328 291.812 286.067C291.436 285.643 290.833 285.219 289.479 285.219C287.57 285.219 286.037 286.932 286.037 289.167C286.037 290.716 286.575 291.744 287.326 292.364C287.864 292.853 288.517 293.147 289.414 293.147C290.882 293.147 291.893 292.233 292.301 290.863L291.909 290.733C291.648 291.532 291.061 292.609 289.479 292.609C288.99 292.609 288.484 292.396 288.158 292.087C287.57 291.499 287.179 290.537 287.179 289.085C287.179 287.601 287.603 286.557 288.223 286.051C288.549 285.79 289.006 285.627 289.463 285.627ZM297.97 291.989C297.628 292.38 297.187 292.592 296.682 292.592C295.882 292.592 295.638 292.233 295.638 291.565L295.654 285.872H297.709V285.415H295.654V282.805H295.393C294.838 284.86 294.316 285.415 293.403 285.562V285.839C293.566 285.839 294.447 285.855 294.643 285.855C294.626 286.1 294.626 291.45 294.626 291.548C294.626 292.201 294.74 292.494 295.001 292.723C295.377 293.033 295.768 293.147 296.372 293.147C297.04 293.147 297.709 292.853 298.15 292.201L297.97 291.989ZM304.636 290.896C304.636 289.64 303.657 289.167 302.336 288.612C301.063 288.09 300.476 287.748 300.476 286.834C300.476 286.116 301.047 285.643 301.846 285.643C302.336 285.643 302.695 285.774 302.956 285.986C303.363 286.296 303.608 286.818 303.836 287.47H304.13L304.048 285.333H303.836L303.526 285.806H303.429C303.135 285.529 302.662 285.219 301.83 285.219C300.46 285.219 299.595 286.1 299.595 287.144C299.595 288.579 300.476 288.987 301.765 289.526C303.2 290.129 303.787 290.455 303.787 291.418C303.787 292.331 303.151 292.739 302.238 292.739C301.063 292.739 300.199 291.809 299.807 290.325H299.465L299.514 293H299.807L300.117 292.364H300.231C300.705 292.853 301.504 293.147 302.222 293.147C303.494 293.147 304.636 292.445 304.636 290.896Z" fill="black"/>
<path d="M276 396L276 551" stroke="black"/>
<path d="M276 1L276 156" stroke="black"/>
<path d="M396 276L551 276" stroke="black"/>
<path d="M1 276L156 276" stroke="black"/>
<circle cx="276" cy="276" r="275" stroke="black"/>
<circle cx="276" cy="276" r="120" stroke="black"/>
<path d="M112.059 138.256C112.878 137.437 113.57 137.207 114.458 137.241C115.197 137.287 116.073 137.564 117.134 138.187L117.377 137.945L114.839 135.407L114.643 135.603L114.816 136.307L114.77 136.353C114.055 136.422 112.924 136.745 111.759 137.91C109.902 139.767 109.822 143.147 112.198 145.523C114.585 147.91 117.711 148.106 119.787 146.03C121.333 144.485 121.506 142.582 120.572 140.725L120.214 140.851C121.206 142.881 120.514 144.335 119.522 145.327C118.922 145.927 118.38 146.307 117.561 146.457C116.5 146.642 115.07 146.503 113.167 144.6C111.413 142.847 111.067 141.394 111.148 140.298C111.171 139.329 111.586 138.729 112.059 138.256ZM128.112 137.152L127.847 137.025C127.801 137.186 127.674 137.382 127.57 137.486C127.432 137.624 127.282 137.682 127.121 137.659C126.901 137.624 126.659 137.451 126.105 136.898L122.899 133.691C122.103 132.895 121.123 133.368 120.338 134.153C119.75 134.741 119.323 135.698 119.369 136.252C119.369 136.529 119.473 136.771 119.658 136.955C119.912 137.209 120.235 137.186 120.431 136.99C120.696 136.725 120.719 136.471 120.419 136.102C120.154 135.767 120.085 135.444 120.165 135.133C120.269 134.868 120.419 134.626 120.638 134.406C121.18 133.864 121.619 133.864 122.207 134.453L123.072 135.318C123.257 135.641 123.245 136.275 122.853 137.059C122.461 137.89 122.092 138.397 122.057 139.216C122.057 139.724 122.288 140.162 122.576 140.45C123.453 141.327 124.502 141.2 125.321 140.381C126.105 139.597 126.059 138.72 125.909 138.224L125.99 138.143C126.405 138.536 126.682 138.605 126.971 138.547C127.132 138.501 127.294 138.409 127.49 138.213C127.824 137.878 128.066 137.405 128.112 137.152ZM123.545 135.791L125.344 137.59C125.886 138.27 125.667 139.228 125.183 139.712C124.652 140.243 123.972 140.347 123.314 139.689C122.957 139.332 122.818 138.985 122.807 138.628C122.795 138.293 122.945 137.867 123.187 137.278C123.383 136.782 123.579 136.194 123.545 135.791ZM126.472 130.695L126.403 130.764C126.449 130.81 125.284 129.576 125.307 129.599C125.273 129.564 125.215 129.553 125.157 129.611L123.75 131.018L123.958 131.225C124.165 131.087 124.373 130.949 124.615 130.891C124.788 130.856 124.996 130.879 125.169 130.983C125.342 131.087 125.757 131.502 125.953 131.698L128.433 134.178C128.664 134.409 128.917 134.663 129.067 134.905C129.252 135.228 129.263 135.424 129.171 135.724C129.09 135.874 128.975 136.058 128.883 136.174L129.102 136.393L131.409 134.086L131.19 133.867C131.051 133.982 130.901 134.086 130.728 134.167C130.544 134.259 130.348 134.224 130.117 134.132C129.829 134.028 129.563 133.855 129.114 133.405L127.914 132.206C127.614 131.906 127.268 131.537 127.21 131.456C126.426 130.464 126.299 129.161 126.668 128.792C126.807 128.653 126.968 128.584 127.187 128.665C127.476 128.792 127.752 128.884 128.029 128.607C128.341 128.296 128.214 127.961 127.995 127.742C127.776 127.523 127.556 127.465 127.395 127.465C127.141 127.488 126.876 127.615 126.668 127.823C126.276 128.215 126.161 128.653 126.126 129.034C126.092 129.507 126.161 129.968 126.472 130.695ZM126.618 122.452L125.095 123.975L125.303 124.182C125.522 123.986 125.764 123.79 126.029 123.756C126.191 123.733 126.352 123.756 126.525 123.836C126.664 123.906 126.894 124.113 127.079 124.298L133.054 130.272C133.365 130.584 133.769 131.011 134.126 131.414L134.357 131.184L134.138 129.996L134.242 129.892C134.992 130.042 135.926 129.776 136.526 129.177C137.506 128.196 138.221 126.028 136.157 123.963C134.057 121.864 132.166 122.325 131.105 123.386C130.378 124.113 130.124 125.059 130.493 126.097L130.424 126.166L128.221 123.963C127.598 123.34 127.102 122.752 126.791 122.441C126.733 122.383 126.664 122.406 126.618 122.452ZM131.37 123.836C132.269 122.937 133.538 122.983 135.349 124.794C136.837 126.282 137.252 127.827 136.203 128.877C135.764 129.315 135.188 129.615 134.553 129.534C133.896 129.454 133.388 129.131 132.662 128.404L131.497 127.239C130.735 126.478 130.689 125.855 130.666 125.44C130.655 124.782 130.92 124.286 131.37 123.836ZM137.476 122.62C139.229 124.374 141.502 124.201 142.794 122.909C144.085 121.617 144.247 119.333 142.494 117.58C140.752 115.838 138.48 116.011 137.188 117.303C135.885 118.606 135.723 120.867 137.476 122.62ZM138.295 121.801C137.269 120.775 136.819 119.818 136.865 118.941C136.888 118.41 137.142 117.926 137.476 117.591C137.799 117.268 138.272 117.003 138.814 116.992C139.702 116.957 140.66 117.407 141.675 118.422C142.678 119.425 143.128 120.406 143.105 121.282C143.093 121.825 142.84 122.286 142.505 122.62C142.159 122.966 141.698 123.22 141.133 123.232C140.268 123.266 139.299 122.805 138.295 121.801ZM149.874 112.738L147.232 110.096C146.644 109.508 146.079 109.358 145.594 109.427C145.191 109.508 144.798 109.693 144.406 110.085C143.98 110.511 143.703 111.042 143.61 111.526C143.484 111.976 143.46 112.553 143.68 113.187L143.61 113.257C143.426 113.049 142.815 112.415 142.653 112.253C142.595 112.195 142.561 112.207 142.503 112.265L141.096 113.672L141.304 113.879C141.511 113.718 141.753 113.591 141.973 113.533C142.157 113.487 142.319 113.51 142.503 113.626C142.688 113.741 143.011 114.064 143.287 114.341L145.664 116.717C145.94 116.994 146.263 117.317 146.39 117.49C146.621 117.836 146.609 118.078 146.448 118.447C146.402 118.562 146.286 118.747 146.194 118.862L146.413 119.081L148.743 116.751L148.524 116.532C148.397 116.636 148.247 116.717 148.109 116.786C147.751 116.936 147.509 116.901 147.255 116.74C147.025 116.602 146.713 116.29 146.459 116.036L144.948 114.525C144.464 114.041 144.187 113.649 144.003 113.118C143.703 112.311 143.968 111.469 144.545 110.892C144.879 110.558 145.202 110.419 145.537 110.431C145.917 110.442 146.275 110.615 146.748 111.088L149.078 113.418C149.331 113.672 149.631 113.972 149.781 114.237C149.943 114.537 149.989 114.721 149.85 115.044C149.793 115.171 149.677 115.356 149.574 115.483L149.793 115.702L152.077 113.418L151.857 113.199C151.742 113.291 151.558 113.407 151.442 113.453C151.073 113.591 150.854 113.533 150.589 113.36C150.393 113.234 150.116 112.98 149.874 112.738ZM117.026 172.646C115.677 171.297 114.327 171.747 112.39 172.439C111.086 172.912 109.864 173.465 108.733 172.335C107.868 171.47 108.18 170.397 108.849 169.728C109.391 169.186 109.829 169.025 110.233 168.944C110.925 168.828 111.917 169.105 112.724 169.521L112.955 169.29L110.729 167.479L110.498 167.71L110.763 168.298L110.706 168.356C110.014 168.379 109.333 168.621 108.56 169.394C107.268 170.685 107.315 172.346 108.341 173.373C109.621 174.653 111.121 174.238 112.643 173.684C114.42 173.015 115.504 172.554 116.727 173.777C117.546 174.596 117.672 175.807 116.519 176.96C115.423 178.056 113.543 177.768 111.894 176.856L111.675 177.075L114.212 179.382L114.374 179.221L114.154 178.471L114.224 178.402C114.996 178.39 116.023 178.079 116.842 177.26C118.065 176.037 118.434 174.053 117.026 172.646ZM117.072 166.949C117.118 166.465 117.326 166.049 117.649 165.726C118.041 165.334 118.41 165.173 118.814 165.138C119.263 165.104 119.679 165.265 120.198 165.784C120.705 166.292 120.705 166.499 120.348 166.857L117.995 169.21C117.314 168.322 117.026 167.503 117.072 166.949ZM123.381 167.261L123.035 167.422C123.531 168.402 123.693 169.487 122.701 170.479C122.228 170.951 121.674 171.205 121.063 171.194C120.244 171.159 119.286 170.571 118.583 169.867C118.468 169.752 118.364 169.648 118.271 169.533L121.893 165.911C121.766 165.738 121.536 165.484 121.34 165.288C120.509 164.458 118.825 163.95 117.337 165.438C116.011 166.765 116.138 169.083 117.729 170.675C118.548 171.494 119.529 172.013 120.624 172.024C121.478 172.047 122.262 171.724 122.954 171.032C123.969 170.017 124.119 168.645 123.381 167.261ZM125.537 158.853C124.718 158.703 123.911 158.865 123.172 159.603C122.019 160.756 121.673 163.017 123.53 164.874C125.306 166.65 127.405 166.604 128.663 165.347C129.401 164.609 129.655 163.663 129.389 162.89L129.459 162.821L131.143 164.505C131.373 164.736 131.615 165.001 131.765 165.22C131.973 165.543 131.938 165.785 131.823 166.062C131.754 166.224 131.638 166.385 131.535 166.512L131.742 166.72L133.991 164.47L133.784 164.263C133.669 164.355 133.519 164.459 133.357 164.528C133.069 164.655 132.815 164.632 132.55 164.436C132.331 164.286 132.077 164.032 131.846 163.801L126.909 158.865C126.448 158.403 125.894 157.781 125.537 157.331L125.295 157.573L125.595 158.796L125.537 158.853ZM128.121 161.645C128.663 162.187 128.951 162.706 129.02 163.213C129.112 163.744 128.951 164.344 128.513 164.782C127.532 165.762 125.964 165.693 124.21 163.94C122.653 162.383 122.561 160.837 123.472 159.926C123.957 159.441 124.453 159.292 124.972 159.303C125.571 159.303 126.033 159.557 126.621 160.145L128.121 161.645ZM135.743 155.267L133.252 152.776C132.618 152.142 132.225 151.703 131.868 151.346C131.799 151.276 131.764 151.288 131.706 151.346L130.242 152.811L130.449 153.018C130.645 152.845 130.899 152.684 131.13 152.638C131.349 152.603 131.522 152.638 131.718 152.764C131.879 152.88 132.214 153.214 132.387 153.387L133.967 154.967C134.325 155.325 134.671 155.694 134.901 156.04C135.178 156.501 135.271 156.986 135.224 157.447C135.19 157.874 135.005 158.266 134.705 158.566C134.359 158.912 134.013 159.097 133.61 159.085C133.137 159.097 132.733 158.854 132.225 158.347L129.93 156.052C129.388 155.51 128.915 155.014 128.581 154.633C128.511 154.564 128.465 154.587 128.419 154.633L126.943 156.109L127.15 156.317C127.37 156.121 127.589 155.971 127.796 155.925C127.946 155.89 128.108 155.89 128.327 156.017C128.488 156.109 128.742 156.34 128.996 156.594L131.556 159.154C132.179 159.777 132.606 159.927 132.998 159.973C133.806 160.043 134.394 159.616 134.809 159.201C135.271 158.739 135.478 158.232 135.559 157.759C135.605 157.367 135.593 157.055 135.397 156.444L135.467 156.375L136.332 157.24C136.401 157.309 136.47 157.309 136.516 157.263L137.923 155.856L137.704 155.636C137.554 155.763 137.347 155.925 137.174 155.982C136.874 156.098 136.655 156.017 136.389 155.844C136.17 155.694 135.951 155.475 135.743 155.267ZM135.723 148.298C135.769 147.813 135.977 147.398 136.3 147.075C136.692 146.683 137.061 146.522 137.465 146.487C137.915 146.452 138.33 146.614 138.849 147.133C139.356 147.64 139.356 147.848 138.999 148.206L136.646 150.559C135.965 149.671 135.677 148.852 135.723 148.298ZM142.032 148.609L141.686 148.771C142.182 149.751 142.344 150.835 141.352 151.827C140.879 152.3 140.325 152.554 139.714 152.543C138.895 152.508 137.938 151.92 137.234 151.216C137.119 151.101 137.015 150.997 136.923 150.882L140.544 147.26C140.417 147.087 140.187 146.833 139.991 146.637C139.16 145.807 137.476 145.299 135.988 146.787C134.662 148.113 134.789 150.432 136.38 152.023C137.199 152.842 138.18 153.361 139.276 153.373C140.129 153.396 140.913 153.073 141.606 152.381C142.621 151.366 142.77 149.993 142.032 148.609ZM147.037 143.766C146.149 142.878 145.122 143.236 143.796 143.778C142.527 144.308 141.87 144.481 141.224 143.835C140.716 143.328 140.785 142.59 141.351 142.024C141.697 141.678 142.043 141.517 142.377 141.482C142.885 141.413 143.427 141.609 144.05 141.909L144.257 141.701L142.689 140.248L142.539 140.398L142.654 140.952L142.585 141.021C142.181 141.033 141.627 141.148 141.039 141.736C140.07 142.705 140.082 143.939 140.82 144.677C141.835 145.692 142.746 145.358 144.038 144.827C145.48 144.239 146.126 144.054 146.806 144.735C147.452 145.381 147.291 146.119 146.645 146.765C145.814 147.596 144.546 147.549 143.219 146.777L142.977 147.019L144.903 148.876L145.111 148.668L144.88 147.999L144.961 147.918C145.641 147.93 146.414 147.572 146.922 147.065C147.821 146.165 148.133 144.862 147.037 143.766ZM151.836 140.513C151.871 141.032 151.709 141.493 151.352 141.851C150.787 142.416 150.36 142.335 149.887 141.862L145.873 137.825L147.326 136.372L147.003 136.049L145.55 137.502L143.704 135.657L143.52 135.841C144.581 137.687 144.604 138.448 144.062 139.198L144.258 139.394C144.373 139.278 145.008 138.667 145.146 138.529C145.308 138.713 149.091 142.496 149.16 142.566C149.622 143.027 149.91 143.154 150.256 143.131C150.74 143.085 151.098 142.889 151.525 142.462C151.998 141.989 152.263 141.308 152.113 140.536L151.836 140.513ZM150.874 134.577L150.805 134.646C150.851 134.692 149.686 133.458 149.71 133.481C149.675 133.446 149.617 133.435 149.56 133.493L148.152 134.9L148.36 135.107C148.568 134.969 148.775 134.831 149.017 134.773C149.19 134.738 149.398 134.761 149.571 134.865C149.744 134.969 150.159 135.384 150.355 135.58L152.835 138.06C153.066 138.291 153.32 138.545 153.47 138.787C153.654 139.11 153.666 139.306 153.573 139.606C153.493 139.756 153.377 139.94 153.285 140.056L153.504 140.275L155.811 137.968L155.592 137.749C155.454 137.864 155.304 137.968 155.131 138.049C154.946 138.141 154.75 138.106 154.519 138.014C154.231 137.91 153.966 137.737 153.516 137.287L152.316 136.088C152.016 135.788 151.67 135.419 151.613 135.338C150.828 134.346 150.701 133.043 151.071 132.674C151.209 132.535 151.37 132.466 151.59 132.547C151.878 132.674 152.155 132.766 152.432 132.489C152.743 132.178 152.616 131.843 152.397 131.624C152.178 131.405 151.959 131.347 151.797 131.347C151.543 131.37 151.278 131.497 151.071 131.705C150.678 132.097 150.563 132.535 150.528 132.916C150.494 133.389 150.563 133.85 150.874 134.577ZM162.358 131.19L162.093 131.063C162.047 131.225 161.92 131.421 161.816 131.525C161.678 131.663 161.528 131.721 161.366 131.698C161.147 131.663 160.905 131.49 160.351 130.936L157.145 127.73C156.349 126.934 155.368 127.407 154.584 128.191C153.996 128.779 153.569 129.737 153.615 130.29C153.615 130.567 153.719 130.809 153.904 130.994C154.157 131.248 154.48 131.225 154.676 131.029C154.942 130.763 154.965 130.51 154.665 130.14C154.4 129.806 154.33 129.483 154.411 129.172C154.515 128.906 154.665 128.664 154.884 128.445C155.426 127.903 155.864 127.903 156.453 128.491L157.318 129.356C157.502 129.679 157.491 130.313 157.099 131.098C156.706 131.928 156.337 132.436 156.303 133.255C156.303 133.762 156.533 134.201 156.822 134.489C157.698 135.366 158.748 135.239 159.567 134.42C160.351 133.635 160.305 132.759 160.155 132.263L160.236 132.182C160.651 132.574 160.928 132.643 161.216 132.586C161.378 132.54 161.539 132.447 161.735 132.251C162.07 131.917 162.312 131.444 162.358 131.19ZM157.791 129.829L159.59 131.628C160.132 132.309 159.913 133.266 159.428 133.751C158.898 134.281 158.217 134.385 157.56 133.728C157.202 133.37 157.064 133.024 157.052 132.666C157.041 132.332 157.191 131.905 157.433 131.317C157.629 130.821 157.825 130.233 157.791 129.829ZM165.678 126.671C165.712 127.19 165.551 127.652 165.193 128.009C164.628 128.574 164.201 128.494 163.728 128.021L159.714 123.984L161.168 122.53L160.845 122.207L159.391 123.661L157.546 121.815L157.361 122C158.423 123.845 158.446 124.606 157.904 125.356L158.1 125.552C158.215 125.437 158.849 124.826 158.988 124.687C159.149 124.872 162.932 128.655 163.002 128.724C163.463 129.186 163.751 129.312 164.097 129.289C164.582 129.243 164.939 129.047 165.366 128.62C165.839 128.147 166.104 127.467 165.954 126.694L165.678 126.671ZM161.821 118.532C162.121 118.232 162.132 117.783 161.821 117.471C161.521 117.171 161.06 117.148 160.748 117.46C160.46 117.748 160.471 118.198 160.783 118.509C161.094 118.821 161.532 118.821 161.821 118.532ZM164.635 120.631C164.174 120.17 163.874 119.824 163.643 119.57C163.586 119.513 163.528 119.524 163.482 119.57L162.052 121.001L162.259 121.208C162.547 120.989 162.721 120.908 162.917 120.874C163.113 120.839 163.24 120.874 163.436 120.978C163.597 121.07 164.047 121.497 164.231 121.681L166.907 124.357C167.104 124.553 167.265 124.715 167.403 124.945C167.542 125.176 167.542 125.43 167.45 125.707C167.415 125.833 167.288 126.03 167.196 126.145L167.415 126.364L169.664 124.115L169.445 123.896C169.318 123.999 169.11 124.115 168.995 124.161C168.753 124.242 168.511 124.299 168.222 124.126C168.038 124.011 167.807 123.803 167.634 123.63L164.635 120.631ZM168.151 120.23C169.905 121.983 172.177 121.81 173.469 120.518C174.76 119.226 174.922 116.942 173.169 115.189C171.427 113.447 169.155 113.62 167.863 114.912C166.56 116.216 166.398 118.476 168.151 120.23ZM168.97 119.411C167.944 118.384 167.494 117.427 167.54 116.55C167.563 116.02 167.817 115.535 168.151 115.201C168.474 114.878 168.947 114.612 169.489 114.601C170.377 114.566 171.335 115.016 172.35 116.031C173.353 117.035 173.803 118.015 173.78 118.892C173.769 119.434 173.515 119.895 173.18 120.23C172.834 120.576 172.373 120.829 171.808 120.841C170.943 120.876 169.974 120.414 168.97 119.411ZM180.549 110.347L177.907 107.705C177.319 107.117 176.754 106.967 176.269 107.036C175.866 107.117 175.474 107.302 175.081 107.694C174.655 108.121 174.378 108.651 174.285 109.136C174.159 109.586 174.136 110.162 174.355 110.797L174.285 110.866C174.101 110.658 173.49 110.024 173.328 109.862C173.27 109.805 173.236 109.816 173.178 109.874L171.771 111.281L171.979 111.489C172.186 111.327 172.428 111.2 172.648 111.143C172.832 111.097 172.994 111.12 173.178 111.235C173.363 111.35 173.686 111.673 173.963 111.95L176.339 114.326C176.615 114.603 176.938 114.926 177.065 115.099C177.296 115.445 177.284 115.687 177.123 116.056C177.077 116.172 176.961 116.356 176.869 116.471L177.088 116.691L179.418 114.361L179.199 114.142C179.072 114.245 178.922 114.326 178.784 114.395C178.426 114.545 178.184 114.511 177.93 114.349C177.7 114.211 177.388 113.899 177.134 113.646L175.623 112.135C175.139 111.65 174.862 111.258 174.678 110.727C174.378 109.92 174.643 109.078 175.22 108.501C175.554 108.167 175.877 108.028 176.212 108.04C176.592 108.051 176.95 108.224 177.423 108.697L179.753 111.027C180.006 111.281 180.306 111.581 180.456 111.846C180.618 112.146 180.664 112.331 180.526 112.654C180.468 112.781 180.353 112.965 180.249 113.092L180.468 113.311L182.752 111.027L182.533 110.808C182.417 110.9 182.233 111.016 182.117 111.062C181.748 111.2 181.529 111.143 181.264 110.97C181.068 110.843 180.791 110.589 180.549 110.347Z" fill="black"/>
<path d="M147.934 385.253L148.004 385.322L145.87 389.67L143.54 387.34L147.934 385.253ZM140.772 390.339C140.622 390.166 140.449 389.924 140.391 389.774C140.276 389.52 140.287 389.209 140.576 388.921C140.772 388.725 140.956 388.586 141.498 388.321L143.125 387.548L145.662 390.086L144.97 391.493C144.716 392 144.566 392.358 144.243 392.681C143.967 392.958 143.644 392.911 143.424 392.808C143.251 392.727 143.125 392.646 142.905 392.473L142.675 392.704L145.362 395.391L145.593 395.161C145.489 395.011 145.42 394.895 145.339 394.676C145.247 394.422 145.212 394.134 145.328 393.719C145.397 393.465 145.57 392.946 145.962 392.162L149.849 384.238L149.572 383.961L141.175 387.906C140.552 388.205 140.172 388.355 139.918 388.448C139.618 388.54 139.399 388.552 139.214 388.505C138.972 388.448 138.834 388.355 138.615 388.182L138.384 388.413L140.541 390.57L140.772 390.339ZM152.629 399.775L155.271 397.133C155.859 396.545 156.009 395.98 155.94 395.496C155.859 395.092 155.674 394.7 155.282 394.307C154.855 393.881 154.325 393.604 153.84 393.512C153.39 393.385 152.814 393.362 152.179 393.581L152.11 393.512C152.318 393.327 152.952 392.716 153.114 392.554C153.171 392.497 153.16 392.462 153.102 392.404L151.695 390.997L151.487 391.205C151.649 391.412 151.776 391.655 151.833 391.874C151.879 392.058 151.856 392.22 151.741 392.404C151.626 392.589 151.303 392.912 151.026 393.189L148.65 395.565C148.373 395.842 148.05 396.165 147.877 396.291C147.531 396.522 147.289 396.511 146.92 396.349C146.804 396.303 146.62 396.188 146.504 396.095L146.285 396.314L148.615 398.644L148.834 398.425C148.731 398.298 148.65 398.148 148.581 398.01C148.431 397.652 148.465 397.41 148.627 397.156C148.765 396.926 149.077 396.614 149.33 396.361L150.841 394.85C151.326 394.365 151.718 394.088 152.249 393.904C153.056 393.604 153.898 393.869 154.475 394.446C154.809 394.78 154.948 395.103 154.936 395.438C154.924 395.818 154.751 396.176 154.279 396.649L151.949 398.979C151.695 399.233 151.395 399.533 151.13 399.682C150.83 399.844 150.645 399.89 150.322 399.752C150.195 399.694 150.011 399.579 149.884 399.475L149.665 399.694L151.949 401.978L152.168 401.759C152.076 401.643 151.96 401.459 151.914 401.343C151.776 400.974 151.833 400.755 152.006 400.49C152.133 400.294 152.387 400.017 152.629 399.775ZM157.6 407.398L157.727 407.133C157.565 407.087 157.369 406.96 157.265 406.856C157.127 406.718 157.069 406.568 157.092 406.406C157.127 406.187 157.3 405.945 157.853 405.391L161.06 402.185C161.856 401.389 161.383 400.408 160.599 399.624C160.01 399.036 159.053 398.609 158.499 398.655C158.222 398.655 157.98 398.759 157.796 398.943C157.542 399.197 157.565 399.52 157.761 399.716C158.026 399.982 158.28 400.005 158.649 399.705C158.984 399.439 159.307 399.37 159.618 399.451C159.883 399.555 160.126 399.705 160.345 399.924C160.887 400.466 160.887 400.904 160.299 401.493L159.434 402.358C159.111 402.542 158.476 402.531 157.692 402.138C156.861 401.746 156.354 401.377 155.535 401.343C155.027 401.343 154.589 401.573 154.301 401.862C153.424 402.738 153.551 403.788 154.37 404.607C155.154 405.391 156.031 405.345 156.527 405.195L156.608 405.276C156.216 405.691 156.146 405.968 156.204 406.256C156.25 406.418 156.342 406.579 156.538 406.775C156.873 407.11 157.346 407.352 157.6 407.398ZM158.961 402.83L157.161 404.63C156.481 405.172 155.523 404.953 155.039 404.468C154.508 403.938 154.405 403.257 155.062 402.6C155.42 402.242 155.766 402.104 156.123 402.092C156.458 402.081 156.885 402.231 157.473 402.473C157.969 402.669 158.557 402.865 158.961 402.83ZM164.864 405.135C165.348 405.181 165.763 405.389 166.086 405.712C166.479 406.104 166.64 406.473 166.675 406.877C166.709 407.326 166.548 407.742 166.029 408.261C165.521 408.768 165.314 408.768 164.956 408.411L162.603 406.058C163.491 405.377 164.31 405.089 164.864 405.135ZM164.552 411.444L164.391 411.098C163.41 411.594 162.326 411.756 161.334 410.764C160.861 410.291 160.608 409.737 160.619 409.126C160.654 408.307 161.242 407.349 161.946 406.646C162.061 406.531 162.165 406.427 162.28 406.334L165.902 409.956C166.075 409.829 166.329 409.599 166.525 409.403C167.355 408.572 167.863 406.888 166.375 405.4C165.048 404.074 162.73 404.201 161.138 405.792C160.319 406.611 159.8 407.592 159.789 408.687C159.766 409.541 160.089 410.325 160.781 411.017C161.796 412.032 163.168 412.182 164.552 411.444ZM169.845 411.547L169.776 411.478C169.73 411.524 170.964 410.359 170.941 410.382C170.976 410.347 170.987 410.29 170.93 410.232L169.522 408.825L169.315 409.032C169.453 409.24 169.592 409.448 169.649 409.69C169.684 409.863 169.661 410.07 169.557 410.243C169.453 410.416 169.038 410.832 168.842 411.028L166.362 413.508C166.131 413.738 165.878 413.992 165.635 414.142C165.312 414.327 165.116 414.338 164.816 414.246C164.667 414.165 164.482 414.05 164.367 413.957L164.147 414.177L166.454 416.483L166.673 416.264C166.558 416.126 166.454 415.976 166.374 415.803C166.281 415.618 166.316 415.422 166.408 415.192C166.512 414.903 166.685 414.638 167.135 414.188L168.334 412.989C168.634 412.689 169.003 412.343 169.084 412.285C170.076 411.501 171.379 411.374 171.749 411.743C171.887 411.881 171.956 412.043 171.875 412.262C171.749 412.55 171.656 412.827 171.933 413.104C172.245 413.415 172.579 413.288 172.798 413.069C173.017 412.85 173.075 412.631 173.075 412.47C173.052 412.216 172.925 411.95 172.717 411.743C172.325 411.351 171.887 411.235 171.506 411.201C171.033 411.166 170.572 411.235 169.845 411.547ZM171.421 416.052C169.668 417.805 169.841 420.078 171.133 421.37C172.425 422.661 174.708 422.823 176.462 421.07C178.203 419.328 178.03 417.056 176.738 415.764C175.435 414.461 173.174 414.299 171.421 416.052ZM172.24 416.871C173.267 415.845 174.224 415.395 175.101 415.441C175.631 415.464 176.116 415.718 176.45 416.052C176.773 416.375 177.038 416.848 177.05 417.39C177.085 418.278 176.635 419.236 175.62 420.251C174.616 421.254 173.636 421.704 172.759 421.681C172.217 421.669 171.756 421.416 171.421 421.081C171.075 420.735 170.821 420.274 170.81 419.709C170.775 418.844 171.237 417.875 172.24 416.871ZM184.395 417.999L182.873 416.477L182.665 416.685C182.861 416.904 183.057 417.146 183.092 417.411C183.115 417.573 183.092 417.734 183.011 417.907C182.942 418.046 182.734 418.276 182.55 418.461L176.575 424.436C176.264 424.747 175.837 425.151 175.433 425.508L175.664 425.739L176.852 425.52L176.956 425.624C176.806 426.373 177.071 427.308 177.671 427.907C178.651 428.888 180.82 429.603 182.884 427.538C184.983 425.439 184.522 423.547 183.461 422.486C182.734 421.76 181.788 421.506 180.75 421.875L180.681 421.806L182.884 419.603C183.507 418.98 184.095 418.484 184.407 418.172C184.464 418.115 184.441 418.046 184.395 417.999ZM183.011 422.752C183.911 423.651 183.865 424.92 182.054 426.731C180.566 428.219 179.02 428.634 177.971 427.584C177.532 427.146 177.232 426.569 177.313 425.935C177.394 425.278 177.717 424.77 178.443 424.043L179.608 422.878C180.37 422.117 180.993 422.071 181.408 422.048C182.065 422.036 182.561 422.302 183.011 422.752ZM189.28 425.884C189.58 426.183 190.03 426.195 190.342 425.884C190.641 425.584 190.664 425.122 190.353 424.811C190.065 424.523 189.615 424.534 189.303 424.846C188.992 425.157 188.992 425.595 189.28 425.884ZM187.181 428.698C187.643 428.237 187.989 427.937 188.242 427.706C188.3 427.648 188.288 427.591 188.242 427.545L186.812 426.114L186.604 426.322C186.824 426.61 186.904 426.783 186.939 426.979C186.974 427.175 186.939 427.302 186.835 427.498C186.743 427.66 186.316 428.11 186.132 428.294L183.456 430.97C183.259 431.166 183.098 431.328 182.867 431.466C182.637 431.605 182.383 431.605 182.106 431.512C181.979 431.478 181.783 431.351 181.668 431.259L181.449 431.478L183.698 433.727L183.917 433.508C183.813 433.381 183.698 433.173 183.652 433.058C183.571 432.816 183.513 432.573 183.686 432.285C183.802 432.101 184.009 431.87 184.182 431.697L187.181 428.698ZM192.508 432.11C193.085 432.687 193.154 433.056 192.716 433.817C192.508 434.233 192.404 434.567 192.704 434.867C192.946 435.109 193.235 435.121 193.523 434.832C193.673 434.682 193.835 434.429 193.858 434.083C193.892 433.517 193.765 432.791 192.808 431.833C191.459 430.484 189.163 430.611 187.583 432.191C186.487 433.287 186.141 434.394 186.234 435.363C186.268 436.09 186.522 436.759 187.156 437.393C188.194 438.431 189.555 438.5 190.813 437.82L190.628 437.451C189.878 437.831 188.702 438.177 187.583 437.059C187.237 436.712 187.029 436.205 187.018 435.755C187.018 434.925 187.422 433.967 188.448 432.941C189.498 431.891 190.536 431.453 191.332 431.534C191.747 431.58 192.185 431.787 192.508 432.11ZM134.01 396.799L133.791 397.018C133.918 397.168 134.01 397.283 134.091 397.433C134.241 397.721 134.322 397.987 134.195 398.298C133.999 398.748 133.515 399.302 132.765 400.051L129.501 403.316C128.751 404.065 128.243 404.527 127.77 404.723C127.459 404.827 127.228 404.78 126.917 404.631C126.778 404.561 126.629 404.458 126.479 404.331L126.248 404.561L129.558 407.872C130.308 408.621 131.173 409.094 131.923 409.337C133.526 409.809 135.464 409.579 137.24 407.802C138.982 406.061 139.27 404.111 138.763 402.474C138.543 401.724 138.094 400.882 137.159 399.948L134.01 396.799ZM136.352 406.937C134.922 408.368 133.538 408.806 132.303 408.748C131.346 408.714 130.527 408.264 129.835 407.572L129.397 407.133C129.016 406.753 128.809 406.453 128.809 406.176C128.797 405.726 129.143 405.357 129.685 404.815L134.876 399.625C135.106 399.394 135.325 399.175 135.556 399.198C135.729 399.209 135.925 399.313 136.248 399.636L136.848 400.236C137.575 400.963 138.071 401.758 138.197 402.67C138.347 403.95 137.817 405.473 136.352 406.937ZM142.459 407.347C142.759 407.647 143.209 407.658 143.521 407.347C143.82 407.047 143.844 406.586 143.532 406.274C143.244 405.986 142.794 405.997 142.482 406.309C142.171 406.62 142.171 407.059 142.459 407.347ZM140.36 410.161C140.822 409.7 141.168 409.4 141.421 409.169C141.479 409.112 141.467 409.054 141.421 409.008L139.991 407.578L139.783 407.785C140.003 408.074 140.083 408.247 140.118 408.443C140.153 408.639 140.118 408.766 140.014 408.962C139.922 409.123 139.495 409.573 139.311 409.758L136.635 412.434C136.439 412.63 136.277 412.791 136.046 412.93C135.816 413.068 135.562 413.068 135.285 412.976C135.158 412.941 134.962 412.814 134.847 412.722L134.628 412.941L136.877 415.19L137.096 414.971C136.992 414.844 136.877 414.637 136.831 414.521C136.75 414.279 136.692 414.037 136.865 413.748C136.981 413.564 137.188 413.333 137.361 413.16L140.36 410.161ZM142.688 413.689C143.784 412.593 144.764 412.605 145.445 413.285C146.114 413.954 146.149 414.958 145.053 416.053C143.946 417.161 142.931 417.115 142.25 416.434C141.581 415.765 141.581 414.796 142.688 413.689ZM142.285 421.682C143.461 420.506 142.977 419.583 142.031 418.637C141.627 418.233 140.578 417.322 140.197 416.942C139.77 416.515 139.701 416.1 140.012 415.788C140.405 415.396 141.085 415.754 141.489 416.157C141.696 416.342 141.869 416.584 141.996 416.711C142.907 417.622 144.649 418.049 145.849 416.849C145.976 416.722 146.091 416.561 146.183 416.423C146.299 416.238 146.425 416.042 146.564 415.904C146.829 415.638 147.187 415.534 147.348 415.696C147.51 415.857 147.417 416.019 147.383 416.238C147.348 416.434 147.417 416.619 147.544 416.746C147.74 416.942 148.063 416.988 148.329 416.722C148.663 416.388 148.675 415.961 148.34 415.627C147.948 415.235 147.221 415.108 146.621 415.523L146.552 415.454C146.702 414.519 146.322 413.631 145.722 413.032C144.776 412.086 143.069 411.74 141.904 412.905C141.131 413.677 141.027 414.681 141.293 415.523L141.223 415.592C140.693 415.223 139.874 414.981 139.297 415.558C138.801 416.053 138.859 416.78 139.309 417.368L139.251 417.426C138.236 416.688 137.256 416.561 136.656 417.161C135.814 418.003 136.195 419.306 137.717 420.829C138.917 422.028 140.947 423.02 142.285 421.682ZM141.489 421.325C140.451 422.363 139.067 421.601 138.075 420.61C136.944 419.479 136.679 418.591 137.383 417.887C138.363 416.907 139.482 417.818 140.058 418.303C140.462 418.66 140.9 419.052 141.212 419.387C141.858 420.033 142.215 420.598 141.489 421.325ZM150.434 418.989C150.919 419.036 151.334 419.243 151.657 419.566C152.049 419.958 152.21 420.327 152.245 420.731C152.28 421.181 152.118 421.596 151.599 422.115C151.092 422.623 150.884 422.623 150.526 422.265L148.173 419.912C149.062 419.232 149.88 418.943 150.434 418.989ZM150.123 425.299L149.961 424.953C148.981 425.449 147.897 425.61 146.905 424.618C146.432 424.145 146.178 423.592 146.189 422.98C146.224 422.161 146.812 421.204 147.516 420.5C147.631 420.385 147.735 420.281 147.85 420.189L151.472 423.811C151.645 423.684 151.899 423.453 152.095 423.257C152.926 422.427 153.433 420.743 151.945 419.255C150.619 417.928 148.3 418.055 146.709 419.647C145.89 420.466 145.371 421.446 145.359 422.542C145.336 423.396 145.659 424.18 146.351 424.872C147.366 425.887 148.739 426.037 150.123 425.299ZM154.966 430.303C155.854 429.415 155.496 428.389 154.954 427.062C154.424 425.794 154.251 425.136 154.897 424.49C155.404 423.983 156.142 424.052 156.708 424.617C157.054 424.963 157.215 425.309 157.25 425.644C157.319 426.151 157.123 426.693 156.823 427.316L157.031 427.524L158.484 425.955L158.334 425.805L157.78 425.92L157.711 425.851C157.7 425.448 157.584 424.894 156.996 424.306C156.027 423.337 154.793 423.348 154.055 424.086C153.04 425.101 153.374 426.013 153.905 427.305C154.493 428.746 154.678 429.392 153.997 430.073C153.351 430.719 152.613 430.557 151.967 429.911C151.137 429.081 151.183 427.812 151.955 426.486L151.713 426.243L149.856 428.17L150.064 428.377L150.733 428.147L150.814 428.227C150.802 428.908 151.16 429.681 151.667 430.188C152.567 431.088 153.87 431.399 154.966 430.303ZM158.219 435.103C157.7 435.137 157.239 434.976 156.881 434.618C156.316 434.053 156.397 433.626 156.87 433.153L160.907 429.139L162.36 430.593L162.683 430.27L161.23 428.816L163.075 426.971L162.891 426.786C161.045 427.848 160.284 427.871 159.534 427.328L159.338 427.525C159.454 427.64 160.065 428.274 160.203 428.413C160.019 428.574 156.236 432.357 156.166 432.427C155.705 432.888 155.578 433.176 155.601 433.522C155.647 434.007 155.843 434.364 156.27 434.791C156.743 435.264 157.424 435.529 158.196 435.379L158.219 435.103ZM166.358 431.246C166.658 431.546 167.108 431.557 167.419 431.246C167.719 430.946 167.742 430.485 167.431 430.173C167.143 429.885 166.693 429.896 166.381 430.208C166.07 430.519 166.07 430.957 166.358 431.246ZM164.259 434.06C164.72 433.599 165.066 433.299 165.32 433.068C165.378 433.011 165.366 432.953 165.32 432.907L163.89 431.477L163.682 431.684C163.902 431.972 163.982 432.145 164.017 432.342C164.051 432.538 164.017 432.665 163.913 432.861C163.821 433.022 163.394 433.472 163.209 433.656L160.534 436.332C160.337 436.529 160.176 436.69 159.945 436.828C159.715 436.967 159.461 436.967 159.184 436.875C159.057 436.84 158.861 436.713 158.746 436.621L158.527 436.84L160.776 439.089L160.995 438.87C160.891 438.743 160.776 438.535 160.73 438.42C160.649 438.178 160.591 437.936 160.764 437.647C160.88 437.463 161.087 437.232 161.26 437.059L164.259 434.06ZM164.661 437.576C162.908 439.33 163.081 441.602 164.373 442.894C165.664 444.185 167.948 444.347 169.701 442.594C171.443 440.852 171.27 438.58 169.978 437.288C168.675 435.985 166.414 435.823 164.661 437.576ZM165.48 438.395C166.506 437.369 167.464 436.919 168.34 436.965C168.871 436.988 169.355 437.242 169.69 437.576C170.013 437.899 170.278 438.372 170.29 438.914C170.324 439.802 169.874 440.76 168.859 441.775C167.856 442.778 166.876 443.228 165.999 443.205C165.457 443.194 164.995 442.94 164.661 442.605C164.315 442.259 164.061 441.798 164.05 441.233C164.015 440.368 164.476 439.399 165.48 438.395ZM174.544 449.974L177.185 447.332C177.773 446.744 177.923 446.179 177.854 445.694C177.773 445.291 177.589 444.899 177.197 444.506C176.77 444.08 176.239 443.803 175.755 443.71C175.305 443.584 174.728 443.561 174.094 443.78L174.025 443.71C174.232 443.526 174.867 442.915 175.028 442.753C175.086 442.695 175.074 442.661 175.017 442.603L173.609 441.196L173.402 441.404C173.563 441.611 173.69 441.853 173.748 442.073C173.794 442.257 173.771 442.419 173.656 442.603C173.54 442.788 173.217 443.111 172.941 443.388L170.564 445.764C170.288 446.04 169.965 446.363 169.792 446.49C169.446 446.721 169.203 446.709 168.834 446.548C168.719 446.502 168.534 446.386 168.419 446.294L168.2 446.513L170.53 448.843L170.749 448.624C170.645 448.497 170.564 448.347 170.495 448.209C170.345 447.851 170.38 447.609 170.541 447.355C170.68 447.125 170.991 446.813 171.245 446.559L172.756 445.048C173.24 444.564 173.633 444.287 174.163 444.103C174.971 443.803 175.813 444.068 176.389 444.645C176.724 444.979 176.862 445.302 176.851 445.637C176.839 446.017 176.666 446.375 176.193 446.848L173.863 449.178C173.609 449.431 173.31 449.731 173.044 449.881C172.744 450.043 172.56 450.089 172.237 449.951C172.11 449.893 171.925 449.778 171.799 449.674L171.579 449.893L173.863 452.177L174.082 451.957C173.99 451.842 173.875 451.658 173.829 451.542C173.69 451.173 173.748 450.954 173.921 450.689C174.048 450.493 174.302 450.216 174.544 449.974Z" fill="black"/>
<path d="M348.006 450.976L353.612 445.37L351.882 442.925L351.64 443.167C351.928 443.801 352.182 444.355 352.136 445.232C352.113 445.785 352.02 446.385 351.201 447.204L350.555 447.85C350.175 448.231 349.748 448.473 349.264 448.334C348.975 448.254 348.698 448.023 348.295 447.619L344.154 443.478C343.473 442.798 343.104 442.383 342.92 441.921C342.793 441.587 342.85 441.321 342.977 441.079C343.058 440.929 343.162 440.779 343.277 440.641L343.047 440.41L340.244 443.213L340.474 443.444C340.613 443.328 340.751 443.213 340.89 443.144C341.19 442.982 341.432 442.948 341.766 443.075C342.205 443.259 342.643 443.628 343.323 444.309L346.911 447.896C347.58 448.565 347.949 449.003 348.133 449.419C348.26 449.753 348.214 450.03 348.052 450.33C347.983 450.445 347.891 450.584 347.764 450.733L348.006 450.976ZM352.426 441.158C354.179 442.911 356.451 442.738 357.743 441.446C359.035 440.154 359.197 437.871 357.443 436.117C355.702 434.376 353.429 434.549 352.138 435.841C350.834 437.144 350.673 439.405 352.426 441.158ZM353.245 440.339C352.218 439.312 351.769 438.355 351.815 437.479C351.838 436.948 352.092 436.463 352.426 436.129C352.749 435.806 353.222 435.541 353.764 435.529C354.652 435.495 355.609 435.944 356.624 436.959C357.628 437.963 358.078 438.943 358.055 439.82C358.043 440.362 357.789 440.823 357.455 441.158C357.109 441.504 356.648 441.758 356.082 441.769C355.217 441.804 354.248 441.342 353.245 440.339ZM354.373 428.184L352.851 429.706L353.058 429.914C353.277 429.718 353.52 429.522 353.785 429.487C353.946 429.464 354.108 429.487 354.281 429.568C354.419 429.637 354.65 429.845 354.835 430.029L360.809 436.004C361.121 436.316 361.524 436.742 361.882 437.146L362.113 436.915L361.894 435.727L361.997 435.624C362.747 435.774 363.681 435.508 364.281 434.908C365.262 433.928 365.977 431.76 363.912 429.695C361.813 427.596 359.921 428.057 358.86 429.118C358.133 429.845 357.88 430.791 358.249 431.829L358.18 431.898L355.976 429.695C355.354 429.072 354.858 428.484 354.546 428.172C354.489 428.115 354.419 428.138 354.373 428.184ZM359.125 429.568C360.025 428.668 361.294 428.715 363.105 430.525C364.593 432.013 365.008 433.559 363.958 434.609C363.52 435.047 362.943 435.347 362.309 435.266C361.651 435.185 361.144 434.862 360.417 434.136L359.252 432.971C358.491 432.209 358.445 431.587 358.422 431.171C358.41 430.514 358.676 430.018 359.125 429.568ZM360.816 421.742L359.293 423.264L359.501 423.472C359.72 423.276 359.962 423.08 360.227 423.045C360.389 423.022 360.55 423.045 360.723 423.126C360.862 423.195 361.092 423.403 361.277 423.587L367.252 429.562C367.563 429.873 367.967 430.3 368.324 430.704L368.555 430.473L368.336 429.285L368.44 429.181C369.189 429.331 370.124 429.066 370.724 428.466C371.704 427.486 372.419 425.317 370.354 423.253C368.255 421.153 366.364 421.615 365.302 422.676C364.576 423.403 364.322 424.348 364.691 425.386L364.622 425.456L362.419 423.253C361.796 422.63 361.3 422.042 360.989 421.73C360.931 421.672 360.862 421.695 360.816 421.742ZM365.568 423.126C366.467 422.226 367.736 422.272 369.547 424.083C371.035 425.571 371.45 427.117 370.401 428.166C369.962 428.605 369.386 428.904 368.751 428.824C368.094 428.743 367.586 428.42 366.86 427.693L365.695 426.528C364.933 425.767 364.887 425.144 364.864 424.729C364.853 424.072 365.118 423.576 365.568 423.126ZM376.873 423.47C376.654 422.951 374.601 418.06 374.151 417.103C373.874 416.503 373.701 416.007 373.643 415.765C373.597 415.511 373.62 415.35 373.655 415.2C373.701 415.039 373.793 414.9 373.886 414.785L373.678 414.577L371.913 416.342L372.121 416.55C372.259 416.434 372.421 416.296 372.617 416.238C372.813 416.18 373.021 416.203 373.24 416.423C373.493 416.676 373.62 416.896 373.886 417.507L375.512 421.232L375.431 421.313L371.683 419.618C371.106 419.364 370.806 419.202 370.61 419.006C370.402 418.799 370.391 418.626 370.437 418.464C370.483 418.303 370.644 418.049 370.783 417.887L370.575 417.68L368.384 419.871L368.591 420.079C368.707 419.987 368.903 419.86 369.099 419.802C369.353 419.733 369.549 419.791 369.883 419.941C370.137 420.033 370.587 420.229 371.256 420.529L375.431 422.374C375.639 422.467 375.743 422.524 375.904 422.686C376.216 422.997 376.481 423.678 376.562 423.874C376.896 424.67 377.15 425.431 376.85 425.731C376.746 425.835 376.677 425.881 376.573 425.915C376.504 425.938 376.412 425.961 376.296 425.961C376.019 425.938 375.835 425.961 375.627 426.169C375.42 426.377 375.431 426.734 375.685 426.988C375.985 427.288 376.515 427.265 376.931 426.85C377.461 426.319 377.565 425.731 377.415 425.096C377.288 424.485 377.15 424.139 376.873 423.47ZM374.286 411.27C374.586 410.97 374.597 410.52 374.286 410.209C373.986 409.909 373.525 409.886 373.213 410.197C372.925 410.486 372.936 410.936 373.248 411.247C373.559 411.559 373.998 411.559 374.286 411.27ZM377.1 413.369C376.639 412.908 376.339 412.562 376.108 412.308C376.051 412.251 375.993 412.262 375.947 412.308L374.517 413.738L374.724 413.946C375.013 413.727 375.186 413.646 375.382 413.612C375.578 413.577 375.705 413.612 375.901 413.715C376.062 413.808 376.512 414.234 376.697 414.419L379.373 417.095C379.569 417.291 379.73 417.453 379.869 417.683C380.007 417.914 380.007 418.168 379.915 418.444C379.88 418.571 379.753 418.767 379.661 418.883L379.88 419.102L382.129 416.853L381.91 416.634C381.783 416.737 381.576 416.853 381.46 416.899C381.218 416.98 380.976 417.037 380.687 416.864C380.503 416.749 380.272 416.541 380.099 416.368L377.1 413.369ZM385.495 410.511C384.607 409.623 383.581 409.98 382.254 410.522C380.986 411.053 380.328 411.226 379.682 410.58C379.175 410.072 379.244 409.334 379.809 408.769C380.155 408.423 380.501 408.262 380.836 408.227C381.343 408.158 381.885 408.354 382.508 408.654L382.716 408.446L381.147 406.993L380.997 407.143L381.112 407.696L381.043 407.766C380.64 407.777 380.086 407.892 379.498 408.481C378.529 409.45 378.54 410.684 379.278 411.422C380.294 412.437 381.205 412.102 382.497 411.572C383.938 410.984 384.584 410.799 385.265 411.48C385.911 412.125 385.749 412.864 385.103 413.51C384.273 414.34 383.004 414.294 381.678 413.521L381.435 413.763L383.362 415.62L383.569 415.413L383.339 414.744L383.419 414.663C384.1 414.675 384.873 414.317 385.38 413.809C386.28 412.91 386.591 411.606 385.495 410.511ZM390.295 407.257C390.329 407.776 390.168 408.238 389.81 408.595C389.245 409.16 388.818 409.08 388.345 408.607L384.331 404.57L385.785 403.116L385.462 402.793L384.008 404.247L382.163 402.401L381.978 402.586C383.04 404.431 383.063 405.192 382.521 405.942L382.717 406.138C382.832 406.023 383.466 405.412 383.605 405.273C383.766 405.458 387.549 409.241 387.619 409.31C388.08 409.772 388.368 409.898 388.714 409.875C389.199 409.829 389.556 409.633 389.983 409.206C390.456 408.734 390.721 408.053 390.571 407.28L390.295 407.257ZM398.193 396.545L398.735 397.087C399.369 397.721 399.588 398.148 399.588 398.379C399.588 398.771 399.265 399.324 398.539 400.051C397.962 400.628 397.489 400.916 396.786 401.135C395.436 401.562 393.925 401.181 391.976 399.232C390.061 397.317 389.75 395.829 389.911 394.814C390.015 394.088 390.28 393.523 390.869 392.934C391.837 391.965 392.61 391.746 393.614 391.896C394.283 391.989 394.998 392.288 395.828 392.796L396.07 392.554L393.591 390.074L393.395 390.27L393.591 390.997L393.544 391.043C392.956 391.031 391.803 391.354 390.569 392.588C388.792 394.365 388.458 397.675 390.995 400.212C393.452 402.669 396.532 402.773 398.919 400.386C399.438 399.866 400.05 399.094 400.419 398.563C400.684 398.182 400.857 397.802 400.949 397.571L399.496 396.118C398.781 395.403 398.423 394.999 398.331 394.653C398.25 394.342 398.308 394.122 398.435 393.857C398.504 393.719 398.608 393.569 398.723 393.43L398.493 393.2L395.678 396.014L395.909 396.245C396.047 396.129 396.186 396.037 396.324 395.968C396.613 395.818 396.809 395.76 397.12 395.841C397.501 395.945 397.754 396.106 398.193 396.545ZM400.562 390.092L400.493 390.162C400.539 390.208 399.374 388.974 399.397 388.997C399.362 388.962 399.305 388.951 399.247 389.008L397.84 390.415L398.047 390.623C398.255 390.485 398.463 390.346 398.705 390.289C398.878 390.254 399.085 390.277 399.258 390.381C399.431 390.485 399.847 390.9 400.043 391.096L402.523 393.576C402.753 393.806 403.007 394.06 403.157 394.302C403.342 394.625 403.353 394.821 403.261 395.121C403.18 395.271 403.065 395.456 402.972 395.571L403.192 395.79L405.498 393.484L405.279 393.264C405.141 393.38 404.991 393.484 404.818 393.564C404.633 393.657 404.437 393.622 404.207 393.53C403.918 393.426 403.653 393.253 403.203 392.803L402.004 391.603C401.704 391.304 401.358 390.934 401.3 390.854C400.516 389.862 400.389 388.558 400.758 388.189C400.896 388.051 401.058 387.982 401.277 388.062C401.565 388.189 401.842 388.282 402.119 388.005C402.43 387.693 402.303 387.359 402.084 387.14C401.865 386.921 401.646 386.863 401.485 386.863C401.231 386.886 400.966 387.013 400.758 387.22C400.366 387.613 400.25 388.051 400.216 388.432C400.181 388.904 400.25 389.366 400.562 390.092ZM405.067 388.517C406.821 390.27 409.093 390.097 410.385 388.805C411.676 387.513 411.838 385.229 410.085 383.476C408.343 381.735 406.071 381.908 404.779 383.199C403.476 384.503 403.314 386.763 405.067 388.517ZM405.886 387.698C404.86 386.671 404.41 385.714 404.456 384.837C404.479 384.307 404.733 383.822 405.067 383.488C405.39 383.165 405.863 382.899 406.405 382.888C407.293 382.853 408.251 383.303 409.266 384.318C410.269 385.322 410.719 386.302 410.696 387.179C410.684 387.721 410.431 388.182 410.096 388.517C409.75 388.863 409.289 389.116 408.724 389.128C407.859 389.163 406.89 388.701 405.886 387.698ZM417.338 378.876L414.846 376.385C414.212 375.75 413.82 375.312 413.462 374.954C413.393 374.885 413.358 374.897 413.301 374.954L411.836 376.419L412.043 376.627C412.24 376.454 412.493 376.292 412.724 376.246C412.943 376.212 413.116 376.246 413.312 376.373C413.474 376.488 413.808 376.823 413.981 376.996L415.561 378.576C415.919 378.934 416.265 379.303 416.496 379.649C416.773 380.11 416.865 380.595 416.819 381.056C416.784 381.483 416.599 381.875 416.3 382.175C415.954 382.521 415.608 382.705 415.204 382.694C414.731 382.705 414.327 382.463 413.82 381.956L411.524 379.66C410.982 379.118 410.509 378.622 410.175 378.242C410.106 378.172 410.06 378.196 410.013 378.242L408.537 379.718L408.745 379.926C408.964 379.73 409.183 379.58 409.391 379.534C409.541 379.499 409.702 379.499 409.921 379.626C410.083 379.718 410.336 379.949 410.59 380.203L413.151 382.763C413.774 383.386 414.2 383.536 414.593 383.582C415.4 383.651 415.988 383.225 416.403 382.809C416.865 382.348 417.072 381.84 417.153 381.367C417.199 380.975 417.188 380.664 416.992 380.053L417.061 379.983L417.926 380.848C417.995 380.918 418.064 380.918 418.11 380.872L419.518 379.464L419.299 379.245C419.149 379.372 418.941 379.534 418.768 379.591C418.468 379.707 418.249 379.626 417.984 379.453C417.764 379.303 417.545 379.084 417.338 378.876ZM422.404 371.157C424.123 372.876 424.307 374.352 423.327 375.332C422.877 375.782 422.369 375.99 421.827 375.955C421.285 375.944 420.72 375.678 419.982 374.94L418.609 373.568C418.102 373.06 417.848 372.345 417.836 371.803C417.813 371.203 417.975 370.649 418.448 370.177C419.255 369.369 420.535 369.288 422.404 371.157ZM422.219 378.631C422.45 378.862 422.715 379.104 422.854 379.335C423.05 379.669 423.027 379.9 422.946 380.142C422.9 380.281 422.773 380.454 422.658 380.592L422.865 380.8L425.149 378.516L424.941 378.308C424.768 378.458 424.595 378.585 424.445 378.643C424.215 378.735 423.938 378.712 423.661 378.527C423.442 378.377 423.177 378.135 422.946 377.905L421.562 376.52L421.631 376.451C422.415 376.474 423.108 376.105 423.592 375.621C424.826 374.387 425.138 372.276 423.234 370.373C421.17 368.308 419.336 368.642 418.217 369.761C417.467 370.511 417.317 371.468 417.594 372.506L417.536 372.564L416.706 371.711C416.648 371.653 416.591 371.664 416.545 371.711L415.114 373.141L415.322 373.348C415.541 373.175 415.806 373.026 416.083 372.979C416.268 372.956 416.441 372.991 416.614 373.095C416.787 373.199 417.11 373.521 417.294 373.706L422.219 378.631ZM429.375 366.631C428.487 365.743 427.46 366.101 426.134 366.643C424.865 367.174 424.207 367.347 423.561 366.701C423.054 366.193 423.123 365.455 423.688 364.89C424.034 364.544 424.38 364.382 424.715 364.348C425.222 364.278 425.764 364.475 426.387 364.774L426.595 364.567L425.026 363.114L424.876 363.263L424.992 363.817L424.922 363.886C424.519 363.898 423.965 364.013 423.377 364.601C422.408 365.57 422.419 366.804 423.158 367.543C424.173 368.558 425.084 368.223 426.376 367.693C427.818 367.104 428.463 366.92 429.144 367.6C429.79 368.246 429.628 368.984 428.983 369.63C428.152 370.461 426.883 370.415 425.557 369.642L425.315 369.884L427.241 371.741L427.448 371.534L427.218 370.865L427.298 370.784C427.979 370.795 428.752 370.438 429.259 369.93C430.159 369.031 430.47 367.727 429.375 366.631ZM440.658 358.647C441.223 358.082 441.304 357.033 441.165 356.64L440.865 356.594C440.842 356.894 440.761 357.275 440.438 357.598C440.116 357.921 439.654 357.921 438.997 357.794C438.87 357.782 438.581 357.725 438.189 357.678C437.959 356.779 437.382 355.625 437.047 355.014C436.69 354.38 436.551 353.987 436.517 353.791C436.482 353.549 436.459 353.365 436.54 353.099C436.598 352.903 436.69 352.742 436.851 352.557L436.621 352.327L434.498 354.449L434.729 354.68C434.89 354.541 435.04 354.437 435.213 354.38C435.548 354.276 435.813 354.357 436.067 354.61C436.355 354.899 436.609 355.268 436.794 355.591C437.186 356.26 437.497 356.94 437.67 357.598L434.89 357.171C433.956 357.044 433.299 356.917 432.791 356.848C432.93 355.925 432.999 354.449 432.157 353.607C431.326 352.776 430.288 352.869 429.377 353.78C428.385 354.772 428.5 356.018 429.331 356.848C429.942 357.459 430.692 357.655 431.546 357.771C431.73 357.794 431.961 357.84 432.215 357.886C431.995 359.051 431.592 360.977 432.941 362.327C434.072 363.457 435.813 363.492 437.22 362.085C438.085 361.219 438.593 360.043 438.501 358.866L439.054 358.959C439.873 359.132 440.242 359.063 440.658 358.647ZM437.151 361.162C436.252 362.061 434.867 362.431 433.553 361.116C432.445 360.008 432.48 359.12 432.676 357.955L434.452 358.232C435.26 358.347 436.932 358.613 438.028 358.786C438.074 359.732 437.809 360.504 437.151 361.162ZM429.7 355.856C429.146 355.302 429.204 354.599 429.7 354.103C430.3 353.503 430.911 353.699 431.534 354.322C432.422 355.21 432.491 355.948 432.364 356.79C431.015 356.594 430.184 356.34 429.7 355.856ZM388.013 435.493L387.806 435.701C387.99 436.208 388.232 436.704 388.175 437.592C388.152 438.054 388.013 438.676 387.206 439.484L386.56 440.13C386.283 440.407 385.914 440.683 385.637 440.729C385.06 440.822 384.484 440.245 383.988 439.749L381.877 437.638L382.777 436.739C383.273 436.243 383.607 436.07 383.965 436.058C384.438 436.023 384.945 436.37 385.28 436.658L385.499 436.439L382.788 433.728L382.569 433.947C382.846 434.27 383.192 434.755 383.157 435.251C383.157 435.62 382.984 435.931 382.477 436.439L381.577 437.338L379.524 435.285C379.166 434.928 378.705 434.397 378.74 433.878C378.751 433.636 378.959 433.382 379.12 433.221L379.985 432.356C380.539 431.802 381.15 431.606 381.404 431.583C382.073 431.491 382.627 431.675 383.342 431.952L383.572 431.721L381.485 430.256L376.167 435.574L376.387 435.793C376.537 435.666 376.663 435.562 376.802 435.493C377.102 435.355 377.356 435.308 377.69 435.412C378.151 435.62 378.67 436.07 379.42 436.819L382.684 440.084C383.434 440.833 383.919 441.364 384.092 441.837C384.184 442.137 384.126 442.379 383.976 442.69C383.919 442.817 383.826 442.956 383.699 443.106L383.93 443.336L389.57 437.696L388.013 435.493ZM393.11 430.188C394.102 431.18 394.344 432.461 393.445 433.36C392.522 434.283 391.103 434.387 389.304 432.587C387.551 430.834 387.562 429.277 388.496 428.343C388.923 427.916 389.304 427.743 389.788 427.72C390.342 427.72 390.884 427.962 391.541 428.62L393.11 430.188ZM396.605 430.684L396.386 430.465C396.271 430.557 396.051 430.707 395.89 430.754C395.602 430.857 395.371 430.811 395.129 430.638C394.921 430.5 394.69 430.269 394.483 430.061L389.442 425.021C388.808 424.387 388.116 423.648 387.758 423.268C387.689 423.199 387.654 423.187 387.597 423.245L386.074 424.767L386.282 424.975C386.478 424.802 386.686 424.64 386.916 424.571C387.112 424.513 387.274 424.513 387.493 424.663C387.712 424.813 388.323 425.379 388.658 425.713L390.307 427.362L390.261 427.409C389.708 427.247 388.981 427.282 388.197 428.066C387.02 429.243 386.501 431.399 388.485 433.383C390.342 435.24 392.43 435.044 393.56 433.914C394.379 433.095 394.517 432.057 394.194 431.249L394.264 431.18L394.794 431.711C394.909 431.826 395.048 431.965 395.14 432.034C395.198 432.068 395.244 432.068 395.302 432.011C395.359 431.953 396.501 430.788 396.605 430.684ZM400.981 423.517L398.489 421.026C397.855 420.392 397.463 419.953 397.105 419.596C397.036 419.527 397.001 419.538 396.944 419.596L395.479 421.061L395.686 421.268C395.882 421.095 396.136 420.934 396.367 420.888C396.586 420.853 396.759 420.888 396.955 421.015C397.117 421.13 397.451 421.464 397.624 421.637L399.204 423.218C399.562 423.575 399.908 423.944 400.139 424.29C400.415 424.752 400.508 425.236 400.462 425.697C400.427 426.124 400.242 426.516 399.942 426.816C399.596 427.162 399.25 427.347 398.847 427.335C398.374 427.347 397.97 427.105 397.463 426.597L395.167 424.302C394.625 423.76 394.152 423.264 393.818 422.883C393.749 422.814 393.702 422.837 393.656 422.883L392.18 424.359L392.388 424.567C392.607 424.371 392.826 424.221 393.033 424.175C393.183 424.14 393.345 424.14 393.564 424.267C393.726 424.359 393.979 424.59 394.233 424.844L396.794 427.405C397.416 428.027 397.843 428.177 398.235 428.223C399.043 428.293 399.631 427.866 400.046 427.451C400.508 426.989 400.715 426.482 400.796 426.009C400.842 425.617 400.831 425.305 400.635 424.694L400.704 424.625L401.569 425.49C401.638 425.559 401.707 425.559 401.753 425.513L403.161 424.106L402.941 423.887C402.791 424.013 402.584 424.175 402.411 424.233C402.111 424.348 401.892 424.267 401.626 424.094C401.407 423.944 401.188 423.725 400.981 423.517ZM401.502 415.337C402.079 414.76 402.448 414.691 403.209 415.129C403.625 415.337 403.959 415.441 404.259 415.141C404.501 414.899 404.513 414.61 404.224 414.322C404.074 414.172 403.821 414.011 403.475 413.987C402.909 413.953 402.183 414.08 401.225 415.037C399.876 416.387 400.003 418.682 401.583 420.262C402.679 421.358 403.786 421.704 404.755 421.612C405.482 421.577 406.151 421.323 406.785 420.689C407.823 419.651 407.892 418.29 407.212 417.033L406.843 417.217C407.223 417.967 407.569 419.143 406.451 420.262C406.104 420.608 405.597 420.816 405.147 420.827C404.317 420.827 403.359 420.424 402.333 419.397C401.283 418.347 400.845 417.309 400.926 416.513C400.972 416.098 401.179 415.66 401.502 415.337ZM414.058 412.978L413.793 412.851C413.747 413.012 413.62 413.208 413.516 413.312C413.377 413.45 413.228 413.508 413.066 413.485C412.847 413.45 412.605 413.277 412.051 412.724L408.845 409.517C408.049 408.721 407.068 409.194 406.284 409.979C405.696 410.567 405.269 411.524 405.315 412.078C405.315 412.355 405.419 412.597 405.603 412.782C405.857 413.035 406.18 413.012 406.376 412.816C406.641 412.551 406.665 412.297 406.365 411.928C406.099 411.593 406.03 411.271 406.111 410.959C406.215 410.694 406.365 410.452 406.584 410.232C407.126 409.69 407.564 409.69 408.152 410.279L409.018 411.144C409.202 411.467 409.191 412.101 408.798 412.885C408.406 413.716 408.037 414.223 408.002 415.042C408.002 415.55 408.233 415.988 408.522 416.276C409.398 417.153 410.448 417.026 411.267 416.207C412.051 415.423 412.005 414.546 411.855 414.05L411.936 413.97C412.351 414.362 412.628 414.431 412.916 414.373C413.078 414.327 413.239 414.235 413.435 414.039C413.77 413.704 414.012 413.231 414.058 412.978ZM409.49 411.617L411.29 413.416C411.832 414.096 411.613 415.054 411.128 415.538C410.598 416.069 409.917 416.173 409.26 415.515C408.902 415.158 408.764 414.812 408.752 414.454C408.741 414.119 408.891 413.693 409.133 413.104C409.329 412.608 409.525 412.02 409.49 411.617ZM417.377 408.459C417.412 408.978 417.251 409.439 416.893 409.797C416.328 410.362 415.901 410.281 415.428 409.808L411.414 405.771L412.868 404.318L412.545 403.995L411.091 405.448L409.246 403.603L409.061 403.787C410.122 405.633 410.145 406.394 409.603 407.144L409.799 407.34C409.915 407.224 410.549 406.613 410.688 406.475C410.849 406.659 414.632 410.442 414.701 410.512C415.163 410.973 415.451 411.1 415.797 411.077C416.282 411.031 416.639 410.835 417.066 410.408C417.539 409.935 417.804 409.254 417.654 408.482L417.377 408.459ZM413.521 400.32C413.821 400.02 413.832 399.57 413.521 399.259C413.221 398.959 412.759 398.936 412.448 399.247C412.16 399.535 412.171 399.985 412.483 400.297C412.794 400.608 413.232 400.608 413.521 400.32ZM416.335 402.419C415.874 401.958 415.574 401.612 415.343 401.358C415.285 401.3 415.228 401.312 415.182 401.358L413.751 402.788L413.959 402.996C414.247 402.777 414.42 402.696 414.616 402.661C414.812 402.627 414.939 402.661 415.135 402.765C415.297 402.857 415.747 403.284 415.931 403.469L418.607 406.145C418.803 406.341 418.965 406.502 419.103 406.733C419.242 406.963 419.242 407.217 419.149 407.494C419.115 407.621 418.988 407.817 418.896 407.932L419.115 408.151L421.364 405.902L421.145 405.683C421.018 405.787 420.81 405.902 420.695 405.948C420.453 406.029 420.211 406.087 419.922 405.914C419.738 405.799 419.507 405.591 419.334 405.418L416.335 402.419ZM419.851 402.017C421.604 403.77 423.877 403.597 425.168 402.305C426.46 401.014 426.622 398.73 424.869 396.977C423.127 395.235 420.855 395.408 419.563 396.7C418.259 398.003 418.098 400.264 419.851 402.017ZM420.67 401.198C419.644 400.172 419.194 399.214 419.24 398.338C419.263 397.807 419.517 397.323 419.851 396.988C420.174 396.665 420.647 396.4 421.189 396.388C422.077 396.354 423.035 396.804 424.05 397.819C425.053 398.822 425.503 399.802 425.48 400.679C425.468 401.221 425.215 401.683 424.88 402.017C424.534 402.363 424.073 402.617 423.508 402.628C422.642 402.663 421.674 402.202 420.67 401.198ZM432.248 392.134L429.607 389.493C429.019 388.905 428.454 388.755 427.969 388.824C427.566 388.905 427.173 389.089 426.781 389.481C426.354 389.908 426.078 390.439 425.985 390.923C425.858 391.373 425.835 391.95 426.055 392.584L425.985 392.653C425.801 392.446 425.189 391.811 425.028 391.65C424.97 391.592 424.936 391.604 424.878 391.661L423.471 393.069L423.678 393.276C423.886 393.115 424.128 392.988 424.347 392.93C424.532 392.884 424.693 392.907 424.878 393.022C425.063 393.138 425.386 393.461 425.662 393.738L428.038 396.114C428.315 396.39 428.638 396.713 428.765 396.886C428.996 397.232 428.984 397.475 428.823 397.844C428.777 397.959 428.661 398.144 428.569 398.259L428.788 398.478L431.118 396.148L430.899 395.929C430.772 396.033 430.622 396.114 430.484 396.183C430.126 396.333 429.884 396.298 429.63 396.137C429.399 395.998 429.088 395.687 428.834 395.433L427.323 393.922C426.839 393.438 426.562 393.045 426.377 392.515C426.078 391.708 426.343 390.866 426.92 390.289C427.254 389.954 427.577 389.816 427.912 389.827C428.292 389.839 428.65 390.012 429.123 390.485L431.453 392.815C431.706 393.069 432.006 393.368 432.156 393.634C432.318 393.934 432.364 394.118 432.225 394.441C432.168 394.568 432.052 394.753 431.949 394.879L432.168 395.099L434.451 392.815L434.232 392.596C434.117 392.688 433.932 392.803 433.817 392.849C433.448 392.988 433.229 392.93 432.964 392.757C432.767 392.63 432.491 392.376 432.248 392.134Z" fill="black"/>
<path d="M417.821 114.325L415.918 112.422L406.818 116.494L406.737 116.413L410.843 107.347L408.79 105.294L408.559 105.525C408.686 105.675 408.836 105.848 408.917 106.021C409.032 106.274 409.101 106.528 408.986 106.851C408.825 107.243 408.525 107.612 407.867 108.27L403.703 112.434C403.127 113.01 402.792 113.183 402.458 113.241C402.146 113.299 401.939 113.253 401.685 113.114C401.546 113.045 401.397 112.941 401.235 112.803L401.004 113.033L403.427 115.456L403.657 115.225C403.507 115.029 403.427 114.902 403.334 114.741C403.219 114.51 403.184 114.291 403.242 114.002C403.3 113.691 403.484 113.368 404.061 112.791L409.251 107.601L409.344 107.693L405.099 117.243L405.468 117.613L414.984 113.38L415.065 113.46L410.497 118.028C409.747 118.778 409.24 119.239 408.755 119.423C408.444 119.55 408.156 119.493 407.89 119.343C407.775 119.274 407.59 119.135 407.452 119.02L407.221 119.25L410.059 122.088L410.289 121.857C410.174 121.719 410.07 121.569 410.013 121.465C409.851 121.165 409.782 120.888 409.909 120.577C410.093 120.116 410.578 119.608 411.328 118.858L414.58 115.606C415.388 114.798 415.837 114.371 416.299 114.187C416.633 114.083 416.899 114.141 417.141 114.245C417.279 114.314 417.452 114.441 417.591 114.556L417.821 114.325ZM417.724 119.995C418.209 120.041 418.624 120.249 418.947 120.572C419.339 120.964 419.5 121.333 419.535 121.737C419.57 122.187 419.408 122.602 418.889 123.121C418.382 123.629 418.174 123.629 417.816 123.271L415.463 120.918C416.352 120.237 417.17 119.949 417.724 119.995ZM417.413 126.304L417.251 125.958C416.271 126.454 415.187 126.616 414.195 125.624C413.722 125.151 413.468 124.597 413.479 123.986C413.514 123.167 414.102 122.21 414.806 121.506C414.921 121.391 415.025 121.287 415.14 121.195L418.762 124.817C418.935 124.69 419.189 124.459 419.385 124.263C420.216 123.432 420.723 121.748 419.235 120.261C417.909 118.934 415.59 119.061 413.999 120.653C413.18 121.472 412.661 122.452 412.649 123.548C412.626 124.401 412.949 125.186 413.641 125.878C414.656 126.893 416.029 127.043 417.413 126.304ZM420.768 131.367C420.249 131.401 419.788 131.24 419.43 130.882C418.865 130.317 418.946 129.89 419.418 129.418L423.455 125.404L424.909 126.857L425.232 126.534L423.778 125.081L425.624 123.235L425.439 123.051C423.594 124.112 422.833 124.135 422.083 123.593L421.887 123.789C422.002 123.904 422.613 124.539 422.752 124.677C422.567 124.838 418.784 128.622 418.715 128.691C418.253 129.152 418.127 129.441 418.15 129.787C418.196 130.271 418.392 130.629 418.819 131.055C419.292 131.528 419.972 131.794 420.745 131.644L420.768 131.367ZM427.373 136.518L429.991 133.9C430.591 133.3 430.752 132.77 430.683 132.262C430.637 131.847 430.429 131.455 430.037 131.063C429.599 130.624 429.068 130.347 428.584 130.255C428.123 130.117 427.58 130.105 426.992 130.301L426.923 130.232L429.507 127.648C429.864 127.291 430.602 126.576 430.706 126.472C430.775 126.403 430.764 126.368 430.706 126.31L429.23 124.834L429.011 125.053C429.195 125.261 429.345 125.48 429.414 125.734C429.46 125.895 429.437 126.103 429.311 126.276C429.207 126.426 428.976 126.703 428.676 127.003L423.324 132.354C423.07 132.608 422.782 132.897 422.575 133.035C422.24 133.254 421.986 133.231 421.663 133.093C421.548 133.047 421.375 132.943 421.248 132.839L421.029 133.058L423.347 135.376L423.566 135.157C423.463 135.03 423.359 134.857 423.301 134.731C423.186 134.431 423.197 134.188 423.44 133.808C423.566 133.612 423.763 133.369 424.051 133.081L425.55 131.582C426.012 131.12 426.485 130.786 426.992 130.624C427.765 130.359 428.607 130.578 429.218 131.189C429.553 131.524 429.737 131.893 429.668 132.308C429.622 132.677 429.414 133.023 429.022 133.416L426.704 135.734C426.415 136.022 426.173 136.242 425.954 136.368C425.585 136.599 425.343 136.611 425.077 136.507C424.939 136.461 424.778 136.345 424.628 136.218L424.408 136.438L426.704 138.733L426.923 138.514C426.819 138.387 426.704 138.225 426.658 138.087C426.531 137.753 426.565 137.533 426.75 137.233C426.888 137.026 427.131 136.761 427.373 136.518ZM432.354 144.153L432.481 143.888C432.32 143.842 432.124 143.715 432.02 143.611C431.882 143.472 431.824 143.322 431.847 143.161C431.882 142.942 432.055 142.7 432.608 142.146L435.815 138.939C436.611 138.144 436.138 137.163 435.353 136.379C434.765 135.791 433.808 135.364 433.254 135.41C432.977 135.41 432.735 135.514 432.551 135.698C432.297 135.952 432.32 136.275 432.516 136.471C432.781 136.736 433.035 136.759 433.404 136.46C433.739 136.194 434.062 136.125 434.373 136.206C434.638 136.31 434.881 136.46 435.1 136.679C435.642 137.221 435.642 137.659 435.054 138.247L434.188 139.112C433.865 139.297 433.231 139.285 432.447 138.893C431.616 138.501 431.109 138.132 430.29 138.097C429.782 138.097 429.344 138.328 429.056 138.616C428.179 139.493 428.306 140.543 429.125 141.362C429.909 142.146 430.786 142.1 431.282 141.95L431.363 142.031C430.97 142.446 430.901 142.723 430.959 143.011C431.005 143.173 431.097 143.334 431.293 143.53C431.628 143.865 432.101 144.107 432.354 144.153ZM433.716 139.585L431.916 141.385C431.236 141.927 430.278 141.708 429.794 141.223C429.263 140.693 429.16 140.012 429.817 139.355C430.175 138.997 430.521 138.859 430.878 138.847C431.213 138.836 431.639 138.986 432.228 139.228C432.724 139.424 433.312 139.62 433.716 139.585ZM439.48 148.626L442.122 145.984C442.71 145.396 442.86 144.831 442.791 144.347C442.71 143.943 442.525 143.551 442.133 143.159C441.706 142.732 441.176 142.455 440.691 142.363C440.242 142.236 439.665 142.213 439.03 142.432L438.961 142.363C439.169 142.178 439.803 141.567 439.965 141.405C440.022 141.348 440.011 141.313 439.953 141.255L438.546 139.848L438.338 140.056C438.5 140.263 438.627 140.506 438.684 140.725C438.731 140.909 438.707 141.071 438.592 141.255C438.477 141.44 438.154 141.763 437.877 142.04L435.501 144.416C435.224 144.693 434.901 145.016 434.728 145.142C434.382 145.373 434.14 145.362 433.771 145.2C433.655 145.154 433.471 145.039 433.356 144.946L433.136 145.166L435.466 147.495L435.685 147.276C435.582 147.149 435.501 146.999 435.432 146.861C435.282 146.503 435.316 146.261 435.478 146.008C435.616 145.777 435.928 145.465 436.181 145.212L437.692 143.701C438.177 143.216 438.569 142.939 439.1 142.755C439.907 142.455 440.749 142.72 441.326 143.297C441.66 143.631 441.799 143.954 441.787 144.289C441.776 144.67 441.603 145.027 441.13 145.5L438.8 147.83C438.546 148.084 438.246 148.384 437.981 148.534C437.681 148.695 437.496 148.741 437.173 148.603C437.047 148.545 436.862 148.43 436.735 148.326L436.516 148.545L438.8 150.829L439.019 150.61C438.927 150.494 438.811 150.31 438.765 150.194C438.627 149.825 438.684 149.606 438.857 149.341C438.984 149.145 439.238 148.868 439.48 148.626ZM446.354 148.625C446.838 148.671 447.254 148.879 447.576 149.202C447.969 149.594 448.13 149.963 448.165 150.367C448.199 150.816 448.038 151.232 447.519 151.751C447.011 152.258 446.804 152.258 446.446 151.901L444.093 149.548C444.981 148.867 445.8 148.579 446.354 148.625ZM446.042 154.934L445.881 154.588C444.901 155.084 443.816 155.246 442.824 154.254C442.351 153.781 442.098 153.227 442.109 152.616C442.144 151.797 442.732 150.84 443.436 150.136C443.551 150.021 443.655 149.917 443.77 149.825L447.392 153.446C447.565 153.319 447.819 153.089 448.015 152.893C448.845 152.062 449.353 150.378 447.865 148.89C446.538 147.564 444.22 147.691 442.628 149.282C441.809 150.101 441.29 151.082 441.279 152.178C441.256 153.031 441.579 153.815 442.271 154.507C443.286 155.522 444.658 155.672 446.042 154.934ZM400.405 125.539C401.224 126.358 401.454 127.05 401.42 127.938C401.374 128.676 401.097 129.553 400.474 130.614L400.716 130.856L403.254 128.319L403.058 128.123L402.354 128.296L402.308 128.25C402.239 127.535 401.916 126.404 400.751 125.239C398.894 123.382 395.514 123.301 393.138 125.678C390.751 128.065 390.555 131.191 392.631 133.267C394.176 134.813 396.08 134.986 397.937 134.051L397.81 133.694C395.78 134.686 394.326 133.994 393.334 133.002C392.735 132.402 392.354 131.86 392.204 131.041C392.019 129.98 392.158 128.55 394.061 126.646C395.814 124.893 397.268 124.547 398.363 124.628C399.332 124.651 399.932 125.066 400.405 125.539ZM401.51 141.592L401.636 141.327C401.475 141.281 401.279 141.154 401.175 141.05C401.037 140.912 400.979 140.762 401.002 140.6C401.037 140.381 401.21 140.139 401.763 139.585L404.97 136.379C405.766 135.583 405.293 134.602 404.508 133.818C403.92 133.23 402.963 132.803 402.409 132.849C402.132 132.849 401.89 132.953 401.706 133.138C401.452 133.391 401.475 133.714 401.671 133.91C401.936 134.176 402.19 134.199 402.559 133.899C402.894 133.634 403.217 133.564 403.528 133.645C403.793 133.749 404.036 133.899 404.255 134.118C404.797 134.66 404.797 135.098 404.209 135.687L403.343 136.552C403.021 136.736 402.386 136.725 401.602 136.333C400.771 135.94 400.264 135.571 399.445 135.537C398.937 135.537 398.499 135.767 398.211 136.056C397.334 136.932 397.461 137.982 398.28 138.801C399.064 139.585 399.941 139.539 400.437 139.389L400.518 139.47C400.125 139.885 400.056 140.162 400.114 140.45C400.16 140.612 400.252 140.773 400.448 140.969C400.783 141.304 401.256 141.546 401.51 141.592ZM402.871 137.025L401.071 138.824C400.391 139.366 399.433 139.147 398.949 138.663C398.418 138.132 398.315 137.451 398.972 136.794C399.33 136.436 399.676 136.298 400.033 136.286C400.368 136.275 400.794 136.425 401.383 136.667C401.879 136.863 402.467 137.059 402.871 137.025ZM409.523 144.416C407.805 146.134 406.328 146.319 405.348 145.338C404.898 144.889 404.691 144.381 404.725 143.839C404.737 143.297 405.002 142.732 405.74 141.993L407.113 140.621C407.62 140.113 408.335 139.86 408.877 139.848C409.477 139.825 410.031 139.987 410.504 140.459C411.311 141.267 411.392 142.547 409.523 144.416ZM402.049 144.231C401.819 144.462 401.576 144.727 401.346 144.866C401.011 145.062 400.78 145.039 400.538 144.958C400.4 144.912 400.227 144.785 400.088 144.669L399.881 144.877L402.165 147.161L402.372 146.953C402.222 146.78 402.095 146.607 402.038 146.457C401.945 146.227 401.968 145.95 402.153 145.673C402.303 145.454 402.545 145.188 402.776 144.958L404.16 143.574L404.229 143.643C404.206 144.427 404.575 145.119 405.06 145.604C406.294 146.838 408.405 147.149 410.308 145.246C412.372 143.182 412.038 141.348 410.919 140.229C410.169 139.479 409.212 139.329 408.174 139.606L408.116 139.548L408.97 138.718C409.027 138.66 409.016 138.602 408.97 138.556L407.54 137.126L407.332 137.334C407.505 137.553 407.655 137.818 407.701 138.095C407.724 138.279 407.689 138.452 407.586 138.625C407.482 138.799 407.159 139.121 406.974 139.306L402.049 144.231ZM412.561 151.444C412.042 151.479 411.581 151.317 411.223 150.96C410.658 150.394 410.739 149.968 411.211 149.495L415.248 145.481L416.702 146.934L417.025 146.611L415.571 145.158L417.417 143.312L417.232 143.128C415.387 144.189 414.626 144.212 413.876 143.67L413.68 143.866C413.795 143.981 414.406 144.616 414.545 144.754C414.36 144.916 410.577 148.699 410.508 148.768C410.046 149.23 409.92 149.518 409.943 149.864C409.989 150.348 410.185 150.706 410.612 151.133C411.085 151.606 411.765 151.871 412.538 151.721L412.561 151.444ZM418.924 156.469L421.415 153.977C422.049 153.343 422.488 152.951 422.845 152.593C422.914 152.524 422.903 152.489 422.845 152.432L421.38 150.967L421.173 151.174C421.346 151.371 421.507 151.624 421.553 151.855C421.588 152.074 421.553 152.247 421.426 152.443C421.311 152.605 420.977 152.939 420.804 153.112L419.223 154.692C418.866 155.05 418.497 155.396 418.151 155.627C417.689 155.904 417.205 155.996 416.744 155.95C416.317 155.915 415.925 155.731 415.625 155.431C415.279 155.085 415.094 154.739 415.106 154.335C415.094 153.862 415.336 153.458 415.844 152.951L418.139 150.655C418.681 150.113 419.177 149.64 419.558 149.306C419.627 149.237 419.604 149.191 419.558 149.144L418.082 147.668L417.874 147.876C418.07 148.095 418.22 148.314 418.266 148.522C418.301 148.672 418.301 148.833 418.174 149.052C418.082 149.214 417.851 149.467 417.597 149.721L415.037 152.282C414.414 152.905 414.264 153.331 414.218 153.724C414.148 154.531 414.575 155.119 414.99 155.534C415.452 155.996 415.959 156.203 416.432 156.284C416.824 156.33 417.136 156.319 417.747 156.123L417.816 156.192L416.951 157.057C416.882 157.126 416.882 157.195 416.928 157.242L418.335 158.649L418.554 158.43C418.428 158.28 418.266 158.072 418.208 157.899C418.093 157.599 418.174 157.38 418.347 157.115C418.497 156.895 418.716 156.676 418.924 156.469ZM425.086 157.071L425.016 157.002C424.97 157.048 426.204 155.883 426.181 155.906C426.216 155.872 426.227 155.814 426.17 155.756L424.763 154.349L424.555 154.557C424.693 154.764 424.832 154.972 424.889 155.214C424.924 155.387 424.901 155.595 424.797 155.768C424.693 155.941 424.278 156.356 424.082 156.552L421.602 159.032C421.372 159.263 421.118 159.516 420.876 159.666C420.553 159.851 420.357 159.863 420.057 159.77C419.907 159.689 419.722 159.574 419.607 159.482L419.388 159.701L421.694 162.008L421.914 161.789C421.798 161.65 421.694 161.5 421.614 161.327C421.521 161.143 421.556 160.947 421.648 160.716C421.752 160.428 421.925 160.162 422.375 159.713L423.575 158.513C423.874 158.213 424.244 157.867 424.324 157.809C425.316 157.025 426.62 156.898 426.989 157.267C427.127 157.406 427.196 157.567 427.116 157.786C426.989 158.075 426.896 158.352 427.173 158.628C427.485 158.94 427.819 158.813 428.038 158.594C428.257 158.375 428.315 158.155 428.315 157.994C428.292 157.74 428.165 157.475 427.958 157.267C427.565 156.875 427.127 156.76 426.746 156.725C426.274 156.691 425.812 156.76 425.086 157.071ZM430.375 160.931C430.86 160.977 431.275 161.185 431.598 161.507C431.99 161.9 432.152 162.269 432.186 162.672C432.221 163.122 432.059 163.538 431.54 164.057C431.033 164.564 430.825 164.564 430.468 164.207L428.115 161.854C429.003 161.173 429.822 160.885 430.375 160.931ZM430.064 167.24L429.902 166.894C428.922 167.39 427.838 167.551 426.846 166.559C426.373 166.087 426.119 165.533 426.131 164.922C426.165 164.103 426.754 163.145 427.457 162.442C427.573 162.326 427.676 162.223 427.792 162.13L431.413 165.752C431.586 165.625 431.84 165.395 432.036 165.198C432.867 164.368 433.374 162.684 431.886 161.196C430.56 159.87 428.242 159.996 426.65 161.588C425.831 162.407 425.312 163.388 425.3 164.483C425.277 165.337 425.6 166.121 426.292 166.813C427.307 167.828 428.68 167.978 430.064 167.24Z" fill="black"/>
</svg>
