<svg width="277" height="280" viewBox="0 0 277 280" fill="none" xmlns="http://www.w3.org/2000/svg">
<rect width="277" height="279.015" fill="white"/>
<path d="M107.392 128.465C105.434 128.465 103.96 130.159 103.96 132.315C103.96 134.46 105.434 136.154 107.392 136.154C109.328 136.154 110.813 134.46 110.813 132.315C110.813 130.159 109.328 128.465 107.392 128.465ZM107.392 135.846C106.787 135.846 106.314 135.67 105.929 135.329C105.258 134.735 104.873 133.701 104.873 132.315C104.873 130.907 105.258 129.884 105.907 129.312C106.314 128.96 106.787 128.784 107.392 128.784C107.986 128.784 108.459 128.96 108.855 129.301C109.515 129.895 109.889 130.94 109.889 132.315C109.889 133.734 109.504 134.768 108.844 135.34C108.448 135.67 107.975 135.846 107.392 135.846ZM116.574 134.68V132.304C116.574 131.699 116.596 131.303 116.596 130.962C116.596 130.896 116.574 130.885 116.519 130.885H115.122V131.083C115.298 131.094 115.496 131.138 115.628 131.226C115.749 131.314 115.815 131.413 115.848 131.567C115.87 131.699 115.87 132.018 115.87 132.183V133.69C115.87 134.031 115.859 134.372 115.804 134.647C115.716 134.999 115.529 135.274 115.287 135.472C115.067 135.659 114.792 135.758 114.506 135.758C114.176 135.758 113.923 135.681 113.736 135.483C113.505 135.263 113.428 134.955 113.428 134.471V132.282C113.428 131.765 113.439 131.303 113.461 130.962C113.461 130.896 113.428 130.885 113.384 130.885H111.976V131.083C112.174 131.094 112.35 131.127 112.471 131.204C112.559 131.259 112.636 131.336 112.68 131.501C112.713 131.622 112.724 131.853 112.724 132.095V134.537C112.724 135.131 112.856 135.406 113.021 135.615C113.373 136.033 113.857 136.11 114.253 136.11C114.693 136.11 115.034 135.967 115.298 135.78C115.507 135.615 115.65 135.461 115.848 135.076H115.914V135.901C115.914 135.967 115.947 136 115.991 136H117.333V135.791C117.201 135.78 117.025 135.758 116.915 135.703C116.717 135.615 116.651 135.472 116.607 135.263C116.574 135.087 116.574 134.878 116.574 134.68ZM119.827 132.029H119.761C119.761 132.073 119.794 130.929 119.794 130.951C119.794 130.918 119.772 130.885 119.717 130.885H118.375V131.083C118.54 131.116 118.705 131.149 118.848 131.237C118.947 131.303 119.035 131.413 119.068 131.545C119.101 131.677 119.101 132.073 119.101 132.26V134.625C119.101 134.845 119.101 135.087 119.057 135.274C118.991 135.516 118.903 135.615 118.716 135.714C118.606 135.747 118.463 135.78 118.364 135.791V136H120.564V135.791C120.443 135.78 120.322 135.758 120.201 135.714C120.069 135.67 119.992 135.56 119.926 135.406C119.838 135.219 119.794 135.01 119.794 134.581V133.437C119.794 133.151 119.805 132.81 119.816 132.744C119.915 131.897 120.476 131.215 120.828 131.215C120.96 131.215 121.07 131.259 121.136 131.402C121.213 131.6 121.301 131.776 121.565 131.776C121.862 131.776 121.961 131.556 121.961 131.347C121.961 131.138 121.884 131.006 121.807 130.929C121.675 130.819 121.488 130.753 121.29 130.753C120.916 130.753 120.652 130.907 120.454 131.072C120.212 131.281 120.025 131.534 119.827 132.029ZM130.132 134.042C130.132 132.755 129.274 132.326 128.02 131.732C127.173 131.336 126.326 131.017 126.326 129.939C126.326 129.114 126.986 128.751 127.624 128.751C128.141 128.751 128.427 128.883 128.658 129.037C129.043 129.312 129.384 129.917 129.571 130.5H129.791L129.593 128.575H129.373L129.219 128.982H129.164C128.823 128.663 128.383 128.454 127.646 128.454C126.414 128.454 125.644 129.268 125.644 130.247C125.644 131.468 126.557 131.985 127.547 132.447C128.713 132.975 129.45 133.272 129.45 134.438C129.45 135.219 128.933 135.857 127.833 135.857C126.788 135.857 126.029 134.823 125.677 133.602H125.468L125.578 135.912H125.732L125.985 135.45H126.051C126.425 135.813 127.063 136.154 127.844 136.154C129.01 136.154 130.132 135.384 130.132 134.042ZM135.815 134.68V132.304C135.815 131.699 135.837 131.303 135.837 130.962C135.837 130.896 135.815 130.885 135.76 130.885H134.363V131.083C134.539 131.094 134.737 131.138 134.869 131.226C134.99 131.314 135.056 131.413 135.089 131.567C135.111 131.699 135.111 132.018 135.111 132.183V133.69C135.111 134.031 135.1 134.372 135.045 134.647C134.957 134.999 134.77 135.274 134.528 135.472C134.308 135.659 134.033 135.758 133.747 135.758C133.417 135.758 133.164 135.681 132.977 135.483C132.746 135.263 132.669 134.955 132.669 134.471V132.282C132.669 131.765 132.68 131.303 132.702 130.962C132.702 130.896 132.669 130.885 132.625 130.885H131.217V131.083C131.415 131.094 131.591 131.127 131.712 131.204C131.8 131.259 131.877 131.336 131.921 131.501C131.954 131.622 131.965 131.853 131.965 132.095V134.537C131.965 135.131 132.097 135.406 132.262 135.615C132.614 136.033 133.098 136.11 133.494 136.11C133.934 136.11 134.275 135.967 134.539 135.78C134.748 135.615 134.891 135.461 135.089 135.076H135.155V135.901C135.155 135.967 135.188 136 135.232 136H136.574V135.791C136.442 135.78 136.266 135.758 136.156 135.703C135.958 135.615 135.892 135.472 135.848 135.263C135.815 135.087 135.815 134.878 135.815 134.68ZM141.939 133.415C141.939 135.054 141.323 135.846 140.388 135.846C139.959 135.846 139.618 135.703 139.376 135.428C139.123 135.164 138.98 134.768 138.98 134.064V132.755C138.98 132.271 139.2 131.809 139.453 131.545C139.728 131.248 140.069 131.061 140.52 131.061C141.29 131.061 141.939 131.633 141.939 133.415ZM138.287 136.891C138.287 137.111 138.298 137.353 138.254 137.529C138.188 137.782 138.067 137.881 137.913 137.958C137.825 138.002 137.682 138.024 137.561 138.035V138.233H139.739V138.035C139.585 138.024 139.442 138.002 139.343 137.958C139.189 137.892 139.068 137.749 139.024 137.529C138.991 137.353 138.98 137.111 138.98 136.891V135.571H139.046C139.409 135.956 139.915 136.11 140.377 136.11C141.554 136.11 142.709 135.252 142.709 133.437C142.709 131.468 141.675 130.753 140.608 130.753C139.893 130.753 139.365 131.138 139.002 131.765H138.947L138.958 130.962C138.958 130.907 138.925 130.885 138.881 130.885H137.517V131.083C137.704 131.105 137.902 131.16 138.056 131.27C138.155 131.347 138.221 131.446 138.254 131.578C138.287 131.71 138.287 132.018 138.287 132.194V136.891ZM148.197 133.415C148.197 135.054 147.581 135.846 146.646 135.846C146.217 135.846 145.876 135.703 145.634 135.428C145.381 135.164 145.238 134.768 145.238 134.064V132.755C145.238 132.271 145.458 131.809 145.711 131.545C145.986 131.248 146.327 131.061 146.778 131.061C147.548 131.061 148.197 131.633 148.197 133.415ZM144.545 136.891C144.545 137.111 144.556 137.353 144.512 137.529C144.446 137.782 144.325 137.881 144.171 137.958C144.083 138.002 143.94 138.024 143.819 138.035V138.233H145.997V138.035C145.843 138.024 145.7 138.002 145.601 137.958C145.447 137.892 145.326 137.749 145.282 137.529C145.249 137.353 145.238 137.111 145.238 136.891V135.571H145.304C145.667 135.956 146.173 136.11 146.635 136.11C147.812 136.11 148.967 135.252 148.967 133.437C148.967 131.468 147.933 130.753 146.866 130.753C146.151 130.753 145.623 131.138 145.26 131.765H145.205L145.216 130.962C145.216 130.907 145.183 130.885 145.139 130.885H143.775V131.083C143.962 131.105 144.16 131.16 144.314 131.27C144.413 131.347 144.479 131.446 144.512 131.578C144.545 131.71 144.545 132.018 144.545 132.194V136.891ZM150.263 133.426C150.263 135.098 151.429 136.099 152.661 136.099C153.893 136.099 155.059 135.087 155.059 133.415C155.059 131.754 153.893 130.753 152.661 130.753C151.418 130.753 150.263 131.754 150.263 133.426ZM151.044 133.426C151.044 132.447 151.286 131.776 151.726 131.38C151.99 131.138 152.342 131.028 152.661 131.028C152.969 131.028 153.321 131.127 153.585 131.38C154.025 131.787 154.267 132.458 154.267 133.426C154.267 134.383 154.014 135.065 153.585 135.472C153.321 135.725 152.98 135.824 152.661 135.824C152.331 135.824 151.99 135.725 151.715 135.461C151.286 135.065 151.044 134.383 151.044 133.426ZM157.681 132.029H157.615C157.615 132.073 157.648 130.929 157.648 130.951C157.648 130.918 157.626 130.885 157.571 130.885H156.229V131.083C156.394 131.116 156.559 131.149 156.702 131.237C156.801 131.303 156.889 131.413 156.922 131.545C156.955 131.677 156.955 132.073 156.955 132.26V134.625C156.955 134.845 156.955 135.087 156.911 135.274C156.845 135.516 156.757 135.615 156.57 135.714C156.46 135.747 156.317 135.78 156.218 135.791V136H158.418V135.791C158.297 135.78 158.176 135.758 158.055 135.714C157.923 135.67 157.846 135.56 157.78 135.406C157.692 135.219 157.648 135.01 157.648 134.581V133.437C157.648 133.151 157.659 132.81 157.67 132.744C157.769 131.897 158.33 131.215 158.682 131.215C158.814 131.215 158.924 131.259 158.99 131.402C159.067 131.6 159.155 131.776 159.419 131.776C159.716 131.776 159.815 131.556 159.815 131.347C159.815 131.138 159.738 131.006 159.661 130.929C159.529 130.819 159.342 130.753 159.144 130.753C158.77 130.753 158.506 130.907 158.308 131.072C158.066 131.281 157.879 131.534 157.681 132.029ZM163.586 135.318C163.355 135.582 163.058 135.725 162.717 135.725C162.178 135.725 162.013 135.483 162.013 135.032L162.024 131.193H163.41V130.885H162.024V129.125H161.848C161.474 130.511 161.122 130.885 160.506 130.984V131.171C160.616 131.171 161.21 131.182 161.342 131.182C161.331 131.347 161.331 134.955 161.331 135.021C161.331 135.461 161.408 135.659 161.584 135.813C161.837 136.022 162.101 136.099 162.508 136.099C162.959 136.099 163.41 135.901 163.707 135.461L163.586 135.318ZM165.966 131.347C166.219 131.138 166.516 131.039 166.824 131.039C167.198 131.039 167.451 131.138 167.66 131.314C167.891 131.512 168.012 131.787 168.012 132.282C168.012 132.766 167.913 132.865 167.572 132.865H165.328C165.427 132.117 165.68 131.589 165.966 131.347ZM168.826 134.504L168.584 134.416C168.353 135.12 167.913 135.714 166.967 135.714C166.516 135.714 166.131 135.571 165.845 135.274C165.471 134.867 165.295 134.13 165.295 133.459C165.295 133.349 165.295 133.25 165.306 133.151H168.76C168.782 133.008 168.793 132.777 168.793 132.59C168.793 131.798 168.232 130.753 166.813 130.753C165.548 130.753 164.503 131.919 164.503 133.437C164.503 134.218 164.723 134.933 165.24 135.461C165.636 135.879 166.164 136.099 166.824 136.099C167.792 136.099 168.518 135.516 168.826 134.504ZM173.781 134.108C173.781 135.054 173.286 135.78 172.428 135.78C171.548 135.78 170.822 135.153 170.822 133.437C170.822 131.765 171.57 131.028 172.461 131.028C172.868 131.028 173.132 131.127 173.374 131.347C173.638 131.611 173.781 131.985 173.781 132.612V134.108ZM175.211 136.011V135.802C175.112 135.791 174.936 135.758 174.837 135.703C174.65 135.615 174.562 135.483 174.529 135.285C174.496 135.12 174.496 134.9 174.496 134.702V129.895C174.496 129.29 174.518 128.608 174.529 128.256C174.529 128.19 174.518 128.168 174.463 128.168H173.011V128.366C173.187 128.377 173.363 128.399 173.506 128.476C173.627 128.542 173.704 128.619 173.737 128.795C173.77 128.971 173.792 129.532 173.792 129.851V131.424H173.748C173.561 131.083 173.198 130.753 172.45 130.753C171.328 130.753 170.052 131.534 170.052 133.426C170.052 135.197 171.141 136.099 172.219 136.099C173 136.099 173.561 135.67 173.792 135.131H173.858V135.637C173.858 135.747 173.858 135.879 173.869 135.956C173.88 136 173.902 136.022 173.957 136.022C174.012 136.022 175.112 136.011 175.211 136.011ZM122.341 142.389C122.341 142.18 122.352 142.081 122.44 141.982C122.517 141.894 122.616 141.872 122.803 141.872H123.441C124.585 141.872 125.168 142.4 125.168 143.511C125.168 143.874 125.113 144.336 124.86 144.655C124.596 144.963 124.156 145.249 123.199 145.249C122.935 145.249 122.539 145.216 122.341 145.172V142.389ZM123.309 148.78C123.188 148.769 123.056 148.758 122.957 148.725C122.737 148.659 122.605 148.549 122.495 148.329C122.374 148.043 122.341 147.647 122.341 146.987V145.491C122.506 145.513 122.88 145.546 123.188 145.546C124.112 145.546 124.717 145.337 125.091 145.117C125.619 144.809 125.993 144.226 125.993 143.423C125.993 142.169 124.97 141.597 123.54 141.597H120.603V141.817C120.757 141.828 120.867 141.85 120.944 141.872C121.142 141.938 121.285 142.037 121.395 142.246C121.527 142.543 121.549 142.939 121.549 143.588V146.998C121.549 147.647 121.527 148.043 121.395 148.34C121.285 148.571 121.153 148.659 120.977 148.714C120.845 148.758 120.735 148.769 120.625 148.78V149H123.309V148.78ZM128.365 145.029H128.299C128.299 145.073 128.332 143.929 128.332 143.951C128.332 143.918 128.31 143.885 128.255 143.885H126.913V144.083C127.078 144.116 127.243 144.149 127.386 144.237C127.485 144.303 127.573 144.413 127.606 144.545C127.639 144.677 127.639 145.073 127.639 145.26V147.625C127.639 147.845 127.639 148.087 127.595 148.274C127.529 148.516 127.441 148.615 127.254 148.714C127.144 148.747 127.001 148.78 126.902 148.791V149H129.102V148.791C128.981 148.78 128.86 148.758 128.739 148.714C128.607 148.67 128.53 148.56 128.464 148.406C128.376 148.219 128.332 148.01 128.332 147.581V146.437C128.332 146.151 128.343 145.81 128.354 145.744C128.453 144.897 129.014 144.215 129.366 144.215C129.498 144.215 129.608 144.259 129.674 144.402C129.751 144.6 129.839 144.776 130.103 144.776C130.4 144.776 130.499 144.556 130.499 144.347C130.499 144.138 130.422 144.006 130.345 143.929C130.213 143.819 130.026 143.753 129.828 143.753C129.454 143.753 129.19 143.907 128.992 144.072C128.75 144.281 128.563 144.534 128.365 145.029ZM131.293 146.426C131.293 148.098 132.459 149.099 133.691 149.099C134.923 149.099 136.089 148.087 136.089 146.415C136.089 144.754 134.923 143.753 133.691 143.753C132.448 143.753 131.293 144.754 131.293 146.426ZM132.074 146.426C132.074 145.447 132.316 144.776 132.756 144.38C133.02 144.138 133.372 144.028 133.691 144.028C133.999 144.028 134.351 144.127 134.615 144.38C135.055 144.787 135.297 145.458 135.297 146.426C135.297 147.383 135.044 148.065 134.615 148.472C134.351 148.725 134.01 148.824 133.691 148.824C133.361 148.824 133.02 148.725 132.745 148.461C132.316 148.065 132.074 147.383 132.074 146.426ZM138.359 142.598C138.645 142.598 138.854 142.389 138.854 142.092C138.854 141.806 138.645 141.575 138.359 141.575C138.084 141.575 137.864 141.795 137.864 142.092C137.864 142.389 138.084 142.598 138.359 142.598ZM138.029 149.638C138.029 150.177 137.952 150.529 137.809 150.749C137.666 150.936 137.49 150.969 137.248 150.969C136.94 150.969 136.775 150.848 136.775 150.606C136.775 150.562 136.775 150.518 136.786 150.441C136.797 150.364 136.808 150.32 136.808 150.232C136.808 149.979 136.643 149.836 136.401 149.836C136.192 149.836 136.005 150.001 136.005 150.298C136.005 150.573 136.137 150.826 136.39 151.002C136.599 151.156 136.874 151.233 137.237 151.233C137.677 151.233 137.93 151.101 138.139 150.903C138.425 150.628 138.722 150.155 138.722 148.857V144.941C138.722 144.512 138.744 144.204 138.744 143.962C138.744 143.907 138.722 143.885 138.667 143.885H137.303V144.083C137.523 144.116 137.666 144.16 137.787 144.237C137.886 144.303 137.952 144.391 137.985 144.534C138.018 144.666 138.029 145.04 138.029 145.238V149.638ZM141.899 144.347C142.152 144.138 142.449 144.039 142.757 144.039C143.131 144.039 143.384 144.138 143.593 144.314C143.824 144.512 143.945 144.787 143.945 145.282C143.945 145.766 143.846 145.865 143.505 145.865H141.261C141.36 145.117 141.613 144.589 141.899 144.347ZM144.759 147.504L144.517 147.416C144.286 148.12 143.846 148.714 142.9 148.714C142.449 148.714 142.064 148.571 141.778 148.274C141.404 147.867 141.228 147.13 141.228 146.459C141.228 146.349 141.228 146.25 141.239 146.151H144.693C144.715 146.008 144.726 145.777 144.726 145.59C144.726 144.798 144.165 143.753 142.746 143.753C141.481 143.753 140.436 144.919 140.436 146.437C140.436 147.218 140.656 147.933 141.173 148.461C141.569 148.879 142.097 149.099 142.757 149.099C143.725 149.099 144.451 148.516 144.759 147.504ZM148.283 144.028C148.833 144.028 149.042 144.171 149.196 144.743C149.295 145.04 149.405 145.249 149.691 145.249C149.922 145.249 150.065 145.117 150.065 144.842C150.065 144.699 150.021 144.501 149.867 144.325C149.614 144.039 149.207 143.753 148.294 143.753C147.007 143.753 145.973 144.908 145.973 146.415C145.973 147.46 146.336 148.153 146.842 148.571C147.205 148.901 147.645 149.099 148.25 149.099C149.24 149.099 149.922 148.483 150.197 147.559L149.933 147.471C149.757 148.01 149.361 148.736 148.294 148.736C147.964 148.736 147.623 148.593 147.403 148.384C147.007 147.988 146.743 147.339 146.743 146.36C146.743 145.359 147.029 144.655 147.447 144.314C147.667 144.138 147.975 144.028 148.283 144.028ZM154.048 148.318C153.817 148.582 153.52 148.725 153.179 148.725C152.64 148.725 152.475 148.483 152.475 148.032L152.486 144.193H153.872V143.885H152.486V142.125H152.31C151.936 143.511 151.584 143.885 150.968 143.984V144.171C151.078 144.171 151.672 144.182 151.804 144.182C151.793 144.347 151.793 147.955 151.793 148.021C151.793 148.461 151.87 148.659 152.046 148.813C152.299 149.022 152.563 149.099 152.97 149.099C153.421 149.099 153.872 148.901 154.169 148.461L154.048 148.318ZM158.571 147.581C158.571 146.734 157.911 146.415 157.02 146.041C156.162 145.689 155.766 145.458 155.766 144.842C155.766 144.358 156.151 144.039 156.69 144.039C157.02 144.039 157.262 144.127 157.438 144.27C157.713 144.479 157.878 144.831 158.032 145.271H158.23L158.175 143.83H158.032L157.823 144.149H157.757C157.559 143.962 157.24 143.753 156.679 143.753C155.755 143.753 155.172 144.347 155.172 145.051C155.172 146.019 155.766 146.294 156.635 146.657C157.603 147.064 157.999 147.284 157.999 147.933C157.999 148.549 157.57 148.824 156.954 148.824C156.162 148.824 155.579 148.197 155.315 147.196H155.084L155.117 149H155.315L155.524 148.571H155.601C155.92 148.901 156.459 149.099 156.943 149.099C157.801 149.099 158.571 148.626 158.571 147.581Z" fill="black"/>
<path d="M138.5 198.5L138.5 276" stroke="black" stroke-width="0.5"/>
<path d="M138.5 1L138.5 78.5" stroke="black" stroke-width="0.5"/>
<path d="M198.5 138.5L276 138.5" stroke="black" stroke-width="0.5"/>
<path d="M1 138.5L78.5 138.5" stroke="black" stroke-width="0.5"/>
<circle cx="138.5" cy="138.5" r="137.5" stroke="black" stroke-width="0.5"/>
<circle cx="138.5" cy="138.5" r="60" stroke="black" stroke-width="0.5"/>
<path d="M52.9554 71.2632C53.5076 70.7109 53.9743 70.5554 54.5733 70.5787C55.0711 70.6098 55.6622 70.7965 56.3778 71.2165L56.5411 71.0532L54.8299 69.342L54.6977 69.4742L54.8144 69.9487L54.7833 69.9798C54.301 70.0264 53.5388 70.2442 52.7532 71.0298C51.5009 72.2821 51.4464 74.5611 53.0487 76.1634C54.6588 77.7735 56.7667 77.9057 58.1668 76.5057C59.209 75.4634 59.3257 74.18 58.6957 72.9277L58.4546 73.0133C59.1235 74.3822 58.6568 75.3623 57.9879 76.0312C57.5834 76.4357 57.2178 76.6923 56.6656 76.7934C55.95 76.9179 54.9855 76.8246 53.7021 75.5412C52.5198 74.3589 52.2865 73.3788 52.3409 72.6399C52.3565 71.9865 52.6365 71.5821 52.9554 71.2632ZM63.8006 70.4985L63.6217 70.4129C63.5906 70.5218 63.505 70.654 63.435 70.724C63.3417 70.8174 63.2406 70.8563 63.1317 70.8407C62.9839 70.8174 62.8206 70.7007 62.4472 70.3273L60.2849 68.165C59.7482 67.6283 59.087 67.9472 58.5581 68.4761C58.1614 68.8728 57.8736 69.5184 57.9048 69.8918C57.9048 70.0784 57.9748 70.2418 58.0992 70.3662C58.2703 70.5374 58.4881 70.5218 58.6203 70.3896C58.7992 70.2107 58.8148 70.0395 58.6126 69.7906C58.4337 69.5651 58.387 69.3473 58.4414 69.1373C58.5115 68.9584 58.6126 68.795 58.7604 68.6473C59.1259 68.2817 59.4215 68.2817 59.8182 68.6784L60.4015 69.2617C60.526 69.4795 60.5182 69.9073 60.2538 70.4362C59.9893 70.9963 59.7404 71.3385 59.7171 71.8908C59.7171 72.233 59.8726 72.5286 60.0671 72.723C60.6582 73.3142 61.366 73.2286 61.9183 72.6764C62.4472 72.1474 62.4161 71.5563 62.315 71.2218L62.3694 71.1674C62.6494 71.4318 62.8361 71.4785 63.0306 71.4396C63.1395 71.4085 63.2484 71.3463 63.3806 71.2141C63.6062 70.9885 63.7695 70.6696 63.8006 70.4985ZM60.7205 69.5806L61.9338 70.794C62.2994 71.2529 62.1516 71.8985 61.825 72.2252C61.4672 72.583 61.0082 72.653 60.5649 72.2097C60.3238 71.9685 60.2304 71.7352 60.2226 71.4941C60.2149 71.2685 60.316 70.9807 60.4793 70.584C60.6116 70.2496 60.7438 69.8529 60.7205 69.5806ZM62.7142 66.1246L62.6676 66.1712C62.6987 66.2023 61.9131 65.3701 61.9286 65.3856C61.9053 65.3623 61.8664 65.3545 61.8275 65.3934L60.8786 66.3424L61.0186 66.4824C61.1586 66.389 61.2986 66.2957 61.4619 66.2568C61.5786 66.2335 61.7186 66.249 61.8353 66.319C61.952 66.389 62.232 66.669 62.3642 66.8013L64.0365 68.4736C64.1921 68.6291 64.3632 68.8003 64.4643 68.9636C64.5888 69.1814 64.5965 69.3136 64.5343 69.5158C64.4799 69.617 64.4021 69.7414 64.3399 69.8192L64.4877 69.967L66.0433 68.4113L65.8955 68.2636C65.8022 68.3413 65.701 68.4113 65.5844 68.4658C65.4599 68.528 65.3277 68.5047 65.1721 68.4425C64.9777 68.3725 64.7988 68.2558 64.4954 67.9524L63.6865 67.1435C63.4843 66.9413 63.2509 66.6924 63.212 66.6379C62.6831 65.969 62.5976 65.0901 62.8465 64.8412C62.9398 64.7478 63.0487 64.7012 63.1965 64.7556C63.3909 64.8412 63.5776 64.9034 63.7643 64.7167C63.9743 64.5067 63.8887 64.2811 63.7409 64.1334C63.5932 63.9856 63.4454 63.9467 63.3365 63.9467C63.1654 63.9622 62.9865 64.0478 62.8465 64.1878C62.582 64.4523 62.5042 64.7478 62.4809 65.0045C62.4575 65.3234 62.5042 65.6345 62.7142 66.1246ZM62.8321 60.5464L61.8054 61.5731L61.9454 61.7131C62.0932 61.5809 62.2565 61.4487 62.4354 61.4253C62.5443 61.4098 62.6532 61.4253 62.7699 61.4798C62.8632 61.5264 63.0188 61.6664 63.1433 61.7909L67.1723 65.82C67.3824 66.03 67.6546 66.3178 67.8957 66.59L68.0513 66.4345L67.9035 65.6333L67.9735 65.5633C68.4791 65.6644 69.1091 65.4855 69.5136 65.0811C70.1747 64.4199 70.657 62.9576 69.2647 61.5653C67.849 60.1497 66.5734 60.4608 65.8578 61.1764C65.3678 61.6664 65.1967 62.3043 65.4456 63.0043L65.3989 63.051L63.9133 61.5653C63.4933 61.1453 63.1588 60.7486 62.9488 60.5386C62.9099 60.4997 62.8632 60.5153 62.8321 60.5464ZM66.0367 61.4798C66.6434 60.8731 67.499 60.9042 68.7202 62.1254C69.7236 63.1287 70.0036 64.171 69.2958 64.8788C69.0002 65.1744 68.6113 65.3766 68.1835 65.3222C67.7402 65.2677 67.3979 65.0499 66.9079 64.5599L66.1223 63.7743C65.6089 63.261 65.5778 62.8409 65.5623 62.5609C65.5545 62.1176 65.7334 61.7831 66.0367 61.4798ZM70.1744 60.64C71.3567 61.8223 72.889 61.7056 73.7602 60.8345C74.6313 59.9633 74.7402 58.4232 73.5579 57.241C72.3834 56.0664 70.8511 56.1831 69.98 57.0543C69.101 57.9332 68.9921 59.4577 70.1744 60.64ZM70.7267 60.0878C70.0344 59.3955 69.7311 58.7499 69.7622 58.1588C69.7777 57.801 69.9489 57.4743 70.1744 57.2487C70.3922 57.0309 70.7111 56.852 71.0767 56.8443C71.6756 56.8209 72.3212 57.1243 73.0057 57.8088C73.6824 58.4855 73.9857 59.1466 73.9702 59.7377C73.9624 60.1033 73.7913 60.4144 73.5657 60.64C73.3324 60.8734 73.0212 61.0445 72.6401 61.0523C72.0568 61.0756 71.4034 60.7645 70.7267 60.0878ZM78.5543 53.9558L76.7731 52.1746C76.3764 51.7779 75.9953 51.6768 75.6686 51.7234C75.3964 51.7779 75.1319 51.9023 74.8675 52.1668C74.5797 52.4546 74.393 52.8124 74.3308 53.139C74.2452 53.4424 74.2297 53.8313 74.3775 54.2591L74.3308 54.3058C74.2063 54.1658 73.7941 53.738 73.6852 53.6291C73.6463 53.5902 73.623 53.598 73.5841 53.6369L72.6351 54.5858L72.7751 54.7258C72.9152 54.6169 73.0785 54.5313 73.2263 54.4925C73.3507 54.4613 73.4596 54.4769 73.5841 54.5547C73.7085 54.6325 73.9263 54.8502 74.113 55.0369L75.7153 56.6392C75.902 56.8259 76.1198 57.0437 76.2053 57.1604C76.3609 57.3937 76.3531 57.5571 76.2442 57.806C76.2131 57.8837 76.1353 58.0082 76.0731 58.086L76.2209 58.2338L77.7921 56.6626L77.6443 56.5148C77.5587 56.5848 77.4576 56.6392 77.3643 56.6859C77.1231 56.787 76.9598 56.7637 76.7887 56.6548C76.6331 56.5614 76.4231 56.3514 76.252 56.1803L75.2331 55.1614C74.9064 54.8347 74.7197 54.5702 74.5952 54.2124C74.393 53.668 74.5719 53.1002 74.9608 52.7112C75.1864 52.4857 75.4042 52.3923 75.6297 52.4001C75.8864 52.4079 76.1275 52.5246 76.4464 52.8435L78.0176 54.4147C78.1888 54.5858 78.391 54.788 78.4921 54.9669C78.601 55.1692 78.6321 55.2936 78.5388 55.5114C78.4999 55.597 78.4221 55.7214 78.3521 55.807L78.4999 55.9547L80.04 54.4147L79.8922 54.2669C79.8144 54.3291 79.6899 54.4069 79.6122 54.438C79.3633 54.5313 79.2155 54.4925 79.0366 54.3758C78.9044 54.2902 78.7177 54.1191 78.5543 53.9558ZM60.3186 89.7518C59.4086 88.8417 58.4985 89.1451 57.1918 89.6118C56.3129 89.9307 55.4884 90.304 54.7261 89.5418C54.1427 88.9584 54.3528 88.235 54.8039 87.7839C55.1695 87.4183 55.465 87.3094 55.7373 87.255C56.204 87.1772 56.8729 87.3639 57.4174 87.6439L57.5729 87.4883L56.0717 86.2671L55.9162 86.4227L56.0951 86.8194L56.0562 86.8583C55.5895 86.8738 55.1306 87.0372 54.6094 87.5583C53.7383 88.4295 53.7694 89.5495 54.4616 90.2418C55.325 91.1052 56.3362 90.8252 57.3629 90.4518C58.5607 90.0007 59.2919 89.6895 60.1164 90.514C60.6686 91.0663 60.7542 91.883 59.9764 92.6608C59.2374 93.3997 57.9696 93.2053 56.8573 92.5908L56.7095 92.7386L58.4207 94.2942L58.5296 94.1853L58.3818 93.6797L58.4285 93.6331C58.9497 93.6253 59.6419 93.4153 60.1942 92.863C61.0186 92.0386 61.2675 90.7007 60.3186 89.7518ZM60.369 85.8901C60.4001 85.5634 60.5401 85.2834 60.7579 85.0656C61.0224 84.8011 61.2713 84.6922 61.5435 84.6689C61.8469 84.6456 62.1269 84.7545 62.4769 85.1045C62.8191 85.4467 62.8191 85.5867 62.578 85.8279L60.9913 87.4146C60.5323 86.8157 60.3379 86.2634 60.369 85.8901ZM64.6237 86.1001L64.3903 86.209C64.7248 86.8701 64.8337 87.6013 64.1647 88.2702C63.8458 88.5891 63.4725 88.7602 63.0602 88.7524C62.508 88.7291 61.8624 88.3324 61.3879 87.858C61.3102 87.7802 61.2402 87.7102 61.1779 87.6324L63.6203 85.19C63.5347 85.0734 63.3792 84.9022 63.2469 84.77C62.6869 84.21 61.5513 83.8678 60.5479 84.8711C59.6534 85.7656 59.739 87.329 60.8124 88.4024C61.3646 88.9547 62.0258 89.3047 62.7647 89.3125C63.3403 89.328 63.8692 89.1102 64.3359 88.6436C65.0203 87.9591 65.1215 87.0335 64.6237 86.1001ZM66.0971 80.4108C65.5449 80.3097 65.0004 80.4186 64.5026 80.9164C63.7248 81.6942 63.4915 83.2187 64.7437 84.471C65.9416 85.6689 67.3572 85.6378 68.205 84.7899C68.7028 84.2921 68.874 83.6543 68.6951 83.1332L68.7417 83.0865L69.8773 84.2221C70.0329 84.3777 70.1962 84.5566 70.2974 84.7044C70.4374 84.9222 70.414 85.0855 70.3363 85.2722C70.2896 85.3811 70.2118 85.49 70.1418 85.5755L70.2818 85.7155L71.7986 84.1988L71.6585 84.0588C71.5808 84.121 71.4796 84.191 71.3708 84.2377C71.1763 84.3232 71.0052 84.3077 70.8263 84.1755C70.6785 84.0743 70.5074 83.9032 70.3518 83.7477L67.0228 80.4186C66.7116 80.1075 66.3383 79.6875 66.0971 79.3841L65.9338 79.5475L66.136 80.3719L66.0971 80.4108ZM67.8395 82.2931C68.205 82.6587 68.3995 83.0087 68.4462 83.351C68.5084 83.7088 68.3995 84.1132 68.1039 84.4088C67.4428 85.07 66.3849 85.0233 65.2027 83.841C64.1526 82.7909 64.0904 81.7487 64.7049 81.1342C65.0315 80.8075 65.366 80.7064 65.716 80.7142C66.1205 80.7142 66.4316 80.8853 66.8283 81.282L67.8395 82.2931ZM72.9997 77.9729L71.3197 76.2928C70.8919 75.865 70.6274 75.5694 70.3863 75.3283C70.3396 75.2817 70.3163 75.2894 70.2774 75.3283L69.2896 76.3162L69.4296 76.4562C69.5618 76.3395 69.7329 76.2306 69.8885 76.1995C70.0363 76.1761 70.1529 76.1995 70.2852 76.285C70.3941 76.3628 70.6196 76.5884 70.7363 76.7051L71.8019 77.7707C72.043 78.0118 72.2764 78.2607 72.4319 78.494C72.6186 78.8052 72.6808 79.1319 72.6497 79.443C72.6264 79.7308 72.5019 79.9952 72.2997 80.1975C72.0664 80.4308 71.833 80.5553 71.5608 80.5475C71.2419 80.5553 70.9696 80.3919 70.6274 80.0497L69.0795 78.5018C68.714 78.1362 68.3951 77.8018 68.1695 77.5451C68.1228 77.4984 68.0917 77.514 68.0606 77.5451L67.065 78.5407L67.205 78.6807C67.3528 78.5485 67.5006 78.4474 67.6406 78.4163C67.7417 78.3929 67.8506 78.3929 67.9984 78.4785C68.1073 78.5407 68.2784 78.6963 68.4495 78.8674L70.1763 80.5942C70.5963 81.0142 70.8841 81.1153 71.1485 81.1464C71.693 81.1931 72.0897 80.9053 72.3697 80.6253C72.6808 80.3141 72.8208 79.9719 72.8753 79.653C72.9064 79.3885 72.8986 79.1785 72.7664 78.7663L72.8131 78.7196L73.3964 79.303C73.4431 79.3496 73.4898 79.3496 73.5209 79.3185L74.4698 78.3696L74.322 78.2218C74.2209 78.3074 74.0809 78.4163 73.9642 78.4552C73.762 78.5329 73.6142 78.4785 73.4353 78.3618C73.2875 78.2607 73.1398 78.1129 72.9997 77.9729ZM73.0058 73.2533C73.0369 72.9266 73.1769 72.6466 73.3947 72.4288C73.6591 72.1644 73.908 72.0555 74.1803 72.0321C74.4836 72.0088 74.7636 72.1177 75.1137 72.4677C75.4559 72.8099 75.4559 72.95 75.2148 73.1911L73.628 74.7778C73.1691 74.1789 72.9747 73.6267 73.0058 73.2533ZM77.2604 73.4633L77.0271 73.5722C77.3615 74.2334 77.4704 74.9645 76.8015 75.6334C76.4826 75.9523 76.1093 76.1235 75.697 76.1157C75.1448 76.0923 74.4992 75.6957 74.0247 75.2212C73.9469 75.1434 73.8769 75.0734 73.8147 74.9956L76.257 72.5533C76.1715 72.4366 76.0159 72.2655 75.8837 72.1332C75.3237 71.5732 74.1881 71.231 73.1847 72.2344C72.2902 73.1289 72.3757 74.6923 73.4491 75.7657C74.0014 76.3179 74.6625 76.6679 75.4014 76.6757C75.977 76.6913 76.5059 76.4735 76.9726 76.0068C77.6571 75.3223 77.7582 74.3967 77.2604 73.4633ZM80.6551 70.1775C80.0562 69.5786 79.364 69.8197 78.4695 70.1853C77.6139 70.5431 77.1705 70.6598 76.7349 70.2242C76.3927 69.8819 76.4394 69.3841 76.8205 69.003C77.0538 68.7697 77.2872 68.6608 77.5127 68.6374C77.855 68.5908 78.2206 68.723 78.6406 68.9252L78.7806 68.7852L77.7228 67.8052L77.6216 67.9063L77.6994 68.2796L77.6528 68.3263C77.3805 68.3341 77.0072 68.4119 76.6105 68.8086C75.9571 69.4619 75.9649 70.2942 76.4627 70.792C77.1472 71.4765 77.7616 71.2509 78.6328 70.8931C79.6051 70.4964 80.0407 70.372 80.4996 70.8309C80.9351 71.2665 80.8262 71.7643 80.3907 72.1998C79.8306 72.7599 78.975 72.7288 78.0806 72.2076L77.9172 72.371L79.2162 73.6232L79.3562 73.4832L79.2006 73.0321L79.2551 72.9777C79.714 72.9854 80.2351 72.7443 80.5773 72.4021C81.184 71.7954 81.3941 70.9164 80.6551 70.1775ZM83.9112 67.9637C83.9346 68.3137 83.8257 68.6248 83.5845 68.866C83.2034 69.2471 82.9156 69.1926 82.5967 68.8737L79.8899 66.1514L80.87 65.1713L80.6522 64.9535L79.6721 65.9336L78.4276 64.6891L78.3032 64.8135C79.0187 66.058 79.0343 66.5714 78.6687 67.077L78.801 67.2092C78.8787 67.1314 79.3065 66.7192 79.3999 66.6259C79.5088 66.7503 82.06 69.3015 82.1067 69.3482C82.4178 69.6593 82.6123 69.7449 82.8456 69.7293C83.1723 69.6982 83.4134 69.566 83.7012 69.2782C84.0201 68.9593 84.199 68.5004 84.0979 67.9793L83.9112 67.9637ZM83.2825 63.9411L83.2358 63.9878C83.2669 64.0189 82.4813 63.1866 82.4969 63.2022C82.4735 63.1788 82.4347 63.1711 82.3958 63.2099L81.4468 64.1589L81.5868 64.2989C81.7268 64.2056 81.8668 64.1122 82.0302 64.0733C82.1469 64.05 82.2869 64.0655 82.4035 64.1355C82.5202 64.2056 82.8002 64.4856 82.9325 64.6178L84.6048 66.2901C84.7603 66.4457 84.9314 66.6168 85.0326 66.7801C85.157 66.9979 85.1648 67.1301 85.1026 67.3324C85.0481 67.4335 84.9703 67.5579 84.9081 67.6357L85.0559 67.7835L86.6115 66.2279L86.4637 66.0801C86.3704 66.1579 86.2693 66.2279 86.1526 66.2823C86.0282 66.3445 85.8959 66.3212 85.7404 66.259C85.5459 66.189 85.367 66.0723 85.0637 65.769L84.2547 64.96C84.0525 64.7578 83.8192 64.5089 83.7803 64.4545C83.2514 63.7855 83.1658 62.9066 83.4147 62.6577C83.508 62.5644 83.6169 62.5177 83.7647 62.5721C83.9592 62.6577 84.1459 62.7199 84.3325 62.5332C84.5425 62.3232 84.457 62.0977 84.3092 61.9499C84.1614 61.8021 84.0136 61.7632 83.9047 61.7632C83.7336 61.7788 83.5547 61.8643 83.4147 62.0043C83.1502 62.2688 83.0725 62.5644 83.0491 62.821C83.0258 63.1399 83.0725 63.4511 83.2825 63.9411ZM91.0463 61.6375L90.8674 61.552C90.8363 61.6609 90.7507 61.7931 90.6807 61.8631C90.5874 61.9564 90.4863 61.9953 90.3774 61.9798C90.2296 61.9564 90.0663 61.8398 89.6929 61.4664L87.5306 59.3041C86.9939 58.7674 86.3327 59.0863 85.8038 59.6152C85.4071 60.0119 85.1194 60.6575 85.1505 61.0308C85.1505 61.2175 85.2205 61.3808 85.3449 61.5053C85.516 61.6764 85.7338 61.6609 85.8661 61.5286C86.045 61.3497 86.0605 61.1786 85.8583 60.9297C85.6794 60.7041 85.6327 60.4864 85.6872 60.2763C85.7572 60.0974 85.8583 59.9341 86.0061 59.7863C86.3716 59.4207 86.6672 59.4207 87.0639 59.8174L87.6473 60.4008C87.7717 60.6186 87.7639 61.0464 87.4995 61.5753C87.235 62.1353 86.9861 62.4776 86.9628 63.0298C86.9628 63.3721 87.1183 63.6676 87.3128 63.8621C87.9039 64.4532 88.6118 64.3677 89.164 63.8154C89.6929 63.2865 89.6618 62.6954 89.5607 62.3609L89.6151 62.3064C89.8951 62.5709 90.0818 62.6176 90.2763 62.5787C90.3852 62.5476 90.4941 62.4853 90.6263 62.3531C90.8519 62.1276 91.0152 61.8086 91.0463 61.6375ZM87.9662 60.7197L89.1796 61.9331C89.5451 62.392 89.3973 63.0376 89.0707 63.3643C88.7129 63.7221 88.254 63.7921 87.8106 63.3487C87.5695 63.1076 87.4761 62.8743 87.4684 62.6331C87.4606 62.4076 87.5617 62.1198 87.725 61.7231C87.8573 61.3886 87.9895 60.9919 87.9662 60.7197ZM93.3046 58.5704C93.3279 58.9204 93.219 59.2315 92.9779 59.4726C92.5967 59.8538 92.3089 59.7993 91.99 59.4804L89.2832 56.758L90.2633 55.778L90.0455 55.5602L89.0654 56.5403L87.8209 55.2958L87.6965 55.4202C88.4121 56.6647 88.4276 57.1781 88.0621 57.6837L88.1943 57.8159C88.2721 57.7381 88.6999 57.3259 88.7932 57.2325C88.9021 57.357 91.4533 59.9082 91.5 59.9549C91.8111 60.266 92.0056 60.3516 92.2389 60.336C92.5656 60.3049 92.8068 60.1727 93.0945 59.8849C93.4134 59.566 93.5923 59.1071 93.4912 58.5859L93.3046 58.5704ZM90.7235 53.0621C90.9257 52.8599 90.9335 52.5565 90.7235 52.3465C90.5213 52.1443 90.2101 52.1287 90.0001 52.3388C89.8057 52.5332 89.8134 52.8366 90.0235 53.0466C90.2335 53.2566 90.529 53.2566 90.7235 53.0621ZM92.6214 54.4778C92.3102 54.1666 92.108 53.9333 91.9524 53.7622C91.9135 53.7233 91.8747 53.7311 91.8435 53.7622L90.879 54.7267L91.0191 54.8667C91.2135 54.7189 91.3302 54.6644 91.4624 54.6411C91.5946 54.6178 91.6802 54.6411 91.8124 54.7111C91.9213 54.7733 92.2247 55.0611 92.3491 55.1856L94.1537 56.9901C94.2859 57.1223 94.3948 57.2312 94.4881 57.3868C94.5815 57.5424 94.5815 57.7135 94.5192 57.9002C94.4959 57.9857 94.4103 58.1179 94.3481 58.1957L94.4959 58.3435L96.0126 56.8268L95.8649 56.679C95.7793 56.749 95.6393 56.8268 95.5615 56.8579C95.3982 56.9123 95.2348 56.9512 95.0404 56.8345C94.9159 56.7568 94.7604 56.6168 94.6437 56.5001L92.6214 54.4778ZM80.5659 87.0181C81.7482 88.2004 83.2805 88.0837 84.1517 87.2125C85.0228 86.3414 85.1317 84.8013 83.9494 83.619C82.7749 82.4445 81.2426 82.5612 80.3715 83.4323C79.4925 84.3113 79.3837 85.8358 80.5659 87.0181ZM81.1182 86.4658C80.4259 85.7736 80.1226 85.128 80.1537 84.5368C80.1692 84.179 80.3404 83.8524 80.5659 83.6268C80.7837 83.409 81.1026 83.2301 81.4682 83.2223C82.0671 83.199 82.7127 83.5023 83.3972 84.1868C84.0739 84.8635 84.3772 85.5247 84.3617 86.1158C84.3539 86.4814 84.1828 86.7925 83.9572 87.0181C83.7239 87.2514 83.4127 87.4225 83.0316 87.4303C82.4483 87.4536 81.7949 87.1425 81.1182 86.4658ZM88.9458 80.3338L87.1646 78.5526C86.7679 78.1559 86.3868 78.0548 86.0601 78.1015C85.7879 78.1559 85.5234 78.2804 85.259 78.5448C84.9712 78.8326 84.7845 79.1904 84.7223 79.5171C84.6367 79.8205 84.6212 80.2094 84.769 80.6372L84.7223 80.6838C84.5978 80.5438 84.1856 80.116 84.0767 80.0071C84.0378 79.9682 84.0145 79.976 83.9756 80.0149L83.0266 80.9638L83.1666 81.1038C83.3067 80.995 83.47 80.9094 83.6178 80.8705C83.7422 80.8394 83.8511 80.8549 83.9756 80.9327C84.1 81.0105 84.3178 81.2283 84.5045 81.415L86.1068 83.0173C86.2935 83.204 86.5113 83.4217 86.5968 83.5384C86.7524 83.7718 86.7446 83.9351 86.6357 84.184C86.6046 84.2618 86.5268 84.3862 86.4646 84.464L86.6124 84.6118L88.1836 83.0406L88.0358 82.8928C87.9502 82.9628 87.8491 83.0173 87.7558 83.0639C87.5146 83.1651 87.3513 83.1417 87.1802 83.0328C87.0246 82.9395 86.8146 82.7295 86.6435 82.5584L85.6246 81.5394C85.2979 81.2127 85.1112 80.9483 84.9867 80.5905C84.7845 80.046 84.9634 79.4782 85.3523 79.0893C85.5779 78.8637 85.7957 78.7704 86.0212 78.7782C86.2779 78.786 86.519 78.9026 86.8379 79.2215L88.4091 80.7927C88.5803 80.9638 88.7825 81.1661 88.8836 81.345C88.9925 81.5472 89.0236 81.6717 88.9303 81.8894C88.8914 81.975 88.8136 82.0995 88.7436 82.185L88.8914 82.3328L90.4315 80.7927L90.2837 80.6449C90.2059 80.7072 90.0814 80.7849 90.0037 80.8161C89.7548 80.9094 89.607 80.8705 89.4281 80.7538C89.2959 80.6683 89.1092 80.4972 88.9458 80.3338Z" fill="black"/>
<path d="M71.1992 188.349L71.2458 188.396L69.8069 191.328L68.2357 189.757L71.1992 188.349ZM66.3689 191.78C66.2678 191.663 66.1511 191.5 66.1122 191.398C66.0345 191.227 66.0422 191.017 66.2367 190.823C66.3689 190.691 66.4934 190.597 66.8589 190.418L67.9557 189.897L69.6669 191.608L69.2002 192.557C69.0291 192.9 68.9279 193.141 68.7102 193.359C68.5235 193.545 68.3057 193.514 68.1579 193.444C68.0412 193.39 67.9557 193.335 67.8079 193.219L67.6523 193.374L69.4646 195.186L69.6202 195.031C69.5502 194.93 69.5035 194.852 69.4491 194.704C69.3869 194.533 69.3635 194.339 69.4413 194.059C69.488 193.887 69.6046 193.537 69.8691 193.009L72.4903 187.665L72.3037 187.478L66.6412 190.138C66.2211 190.341 65.9645 190.442 65.7933 190.504C65.5911 190.566 65.4433 190.574 65.3189 190.543C65.1555 190.504 65.0622 190.442 64.9144 190.325L64.7588 190.481L66.2134 191.935L66.3689 191.78ZM74.3849 198.162L76.1661 196.381C76.5628 195.984 76.6639 195.603 76.6172 195.276C76.5628 195.004 76.4383 194.74 76.1739 194.475C75.8861 194.188 75.5283 194.001 75.2016 193.939C74.8982 193.853 74.5093 193.837 74.0815 193.985L74.0349 193.939C74.1749 193.814 74.6027 193.402 74.7116 193.293C74.7505 193.254 74.7427 193.231 74.7038 193.192L73.7549 192.243L73.6148 192.383C73.7237 192.523 73.8093 192.686 73.8482 192.834C73.8793 192.959 73.8637 193.067 73.786 193.192C73.7082 193.316 73.4904 193.534 73.3037 193.721L71.7014 195.323C71.5147 195.51 71.297 195.728 71.1803 195.813C70.9469 195.969 70.7836 195.961 70.5347 195.852C70.4569 195.821 70.3325 195.743 70.2547 195.681L70.1069 195.829L71.6781 197.4L71.8259 197.252C71.7559 197.167 71.7014 197.065 71.6547 196.972C71.5536 196.731 71.577 196.568 71.6859 196.397C71.7792 196.241 71.9892 196.031 72.1603 195.86L73.1793 194.841C73.506 194.514 73.7704 194.328 74.1282 194.203C74.6727 194.001 75.2405 194.18 75.6294 194.569C75.855 194.794 75.9483 195.012 75.9405 195.238C75.9327 195.494 75.8161 195.735 75.4972 196.054L73.926 197.625C73.7549 197.797 73.5526 197.999 73.3737 198.1C73.1715 198.209 73.047 198.24 72.8293 198.147C72.7437 198.108 72.6192 198.03 72.5337 197.96L72.3859 198.108L73.926 199.648L74.0738 199.5C74.0115 199.422 73.9338 199.298 73.9026 199.22C73.8093 198.971 73.8482 198.823 73.9649 198.644C74.0504 198.512 74.2215 198.326 74.3849 198.162ZM77.7565 203.323L77.8421 203.144C77.7332 203.113 77.6009 203.027 77.5309 202.957C77.4376 202.864 77.3987 202.763 77.4143 202.654C77.4376 202.506 77.5543 202.343 77.9276 201.969L80.0899 199.807C80.6266 199.27 80.3077 198.609 79.7788 198.08C79.3821 197.684 78.7365 197.396 78.3632 197.427C78.1765 197.427 78.0132 197.497 77.8887 197.621C77.7176 197.792 77.7332 198.01 77.8654 198.142C78.0443 198.321 78.2154 198.337 78.4643 198.135C78.6899 197.956 78.9077 197.909 79.1177 197.964C79.2966 198.034 79.4599 198.135 79.6077 198.282C79.9733 198.648 79.9733 198.944 79.5766 199.34L78.9932 199.924C78.7754 200.048 78.3476 200.04 77.8187 199.776C77.2587 199.511 76.9165 199.263 76.3642 199.239C76.022 199.239 75.7264 199.395 75.5319 199.589C74.9408 200.18 75.0264 200.888 75.5786 201.44C76.1075 201.969 76.6987 201.938 77.0331 201.837L77.0876 201.892C76.8231 202.172 76.7764 202.358 76.8153 202.553C76.8464 202.662 76.9087 202.77 77.0409 202.903C77.2665 203.128 77.5854 203.292 77.7565 203.323ZM78.6743 200.243L77.4609 201.456C77.002 201.822 76.3564 201.674 76.0297 201.347C75.6719 200.989 75.6019 200.53 76.0453 200.087C76.2864 199.846 76.5198 199.753 76.7609 199.745C76.9865 199.737 77.2742 199.838 77.6709 200.001C78.0054 200.134 78.4021 200.266 78.6743 200.243ZM82.6749 201.816C83.0015 201.847 83.2816 201.987 83.4993 202.205C83.7638 202.47 83.8727 202.719 83.896 202.991C83.9194 203.294 83.8105 203.574 83.4605 203.924C83.1182 204.266 82.9782 204.266 82.7371 204.025L81.1503 202.439C81.7493 201.98 82.3015 201.785 82.6749 201.816ZM82.4649 206.071L82.356 205.838C81.6948 206.172 80.9637 206.281 80.2947 205.612C79.9758 205.293 79.8047 204.92 79.8125 204.508C79.8358 203.955 80.2325 203.31 80.707 202.835C80.7848 202.758 80.8548 202.688 80.9326 202.625L83.3749 205.068C83.4916 204.982 83.6627 204.826 83.7949 204.694C84.3549 204.134 84.6972 202.999 83.6938 201.995C82.7993 201.101 81.2359 201.186 80.1625 202.26C79.6103 202.812 79.2602 203.473 79.2525 204.212C79.2369 204.788 79.4547 205.317 79.9214 205.783C80.6059 206.468 81.5315 206.569 82.4649 206.071ZM86.054 206.16L86.0073 206.113C85.9762 206.144 86.8085 205.359 86.7929 205.374C86.8163 205.351 86.824 205.312 86.7852 205.273L85.8362 204.324L85.6962 204.464C85.7895 204.604 85.8829 204.744 85.9218 204.908C85.9451 205.024 85.9296 205.164 85.8596 205.281C85.7895 205.398 85.5095 205.678 85.3773 205.81L83.705 207.482C83.5494 207.638 83.3783 207.809 83.215 207.91C82.9972 208.035 82.865 208.042 82.6627 207.98C82.5616 207.926 82.4372 207.848 82.3594 207.786L82.2116 207.933L83.7672 209.489L83.915 209.341C83.8372 209.248 83.7672 209.147 83.7128 209.03C83.6505 208.906 83.6739 208.773 83.7361 208.618C83.8061 208.423 83.9228 208.245 84.2261 207.941L85.0351 207.132C85.2373 206.93 85.4862 206.697 85.5406 206.658C86.2096 206.129 87.0885 206.043 87.3374 206.292C87.4307 206.386 87.4774 206.494 87.423 206.642C87.3374 206.837 87.2752 207.023 87.4619 207.21C87.6719 207.42 87.8974 207.334 88.0452 207.187C88.193 207.039 88.2319 206.891 88.2319 206.782C88.2163 206.611 88.1308 206.432 87.9908 206.292C87.7263 206.028 87.4307 205.95 87.1741 205.927C86.8552 205.903 86.544 205.95 86.054 206.16ZM87.1364 209.218C85.9541 210.4 86.0708 211.933 86.9419 212.804C87.8131 213.675 89.3532 213.784 90.5355 212.602C91.71 211.427 91.5933 209.895 90.7221 209.024C89.8432 208.145 88.3187 208.036 87.1364 209.218ZM87.6886 209.77C88.3809 209.078 89.0265 208.775 89.6176 208.806C89.9754 208.821 90.3021 208.992 90.5277 209.218C90.7455 209.436 90.9244 209.755 90.9321 210.12C90.9555 210.719 90.6521 211.365 89.9677 212.049C89.291 212.726 88.6298 213.029 88.0387 213.014C87.6731 213.006 87.362 212.835 87.1364 212.609C86.9031 212.376 86.7319 212.065 86.7242 211.684C86.7008 211.1 87.0119 210.447 87.6886 209.77ZM95.9052 210.551L94.8785 209.524L94.7385 209.664C94.8707 209.812 95.0029 209.975 95.0263 210.154C95.0418 210.263 95.0263 210.372 94.9718 210.489C94.9252 210.582 94.7851 210.738 94.6607 210.862L90.6316 214.891C90.4216 215.101 90.1338 215.373 89.8616 215.614L90.0171 215.77L90.8183 215.622L90.8883 215.692C90.7872 216.198 90.9661 216.828 91.3705 217.232C92.0317 217.894 93.494 218.376 94.8863 216.983C96.3019 215.568 95.9908 214.292 95.2752 213.577C94.7851 213.087 94.1473 212.915 93.4473 213.164L93.4006 213.118L94.8863 211.632C95.3063 211.212 95.703 210.878 95.913 210.668C95.9519 210.629 95.9363 210.582 95.9052 210.551ZM94.9718 213.756C95.5785 214.362 95.5474 215.218 94.3262 216.439C93.3229 217.442 92.2806 217.722 91.5728 217.015C91.2772 216.719 91.075 216.33 91.1294 215.902C91.1839 215.459 91.4016 215.117 91.8917 214.627L92.6773 213.841C93.1906 213.328 93.6106 213.297 93.8907 213.281C94.334 213.273 94.6685 213.452 94.9718 213.756ZM99.2193 215.887C99.4216 216.09 99.7249 216.097 99.9349 215.887C100.137 215.685 100.153 215.374 99.9427 215.164C99.7482 214.97 99.4449 214.977 99.2349 215.187C99.0249 215.397 99.0249 215.693 99.2193 215.887ZM97.8037 217.785C98.1148 217.474 98.3482 217.272 98.5193 217.116C98.5582 217.077 98.5504 217.039 98.5193 217.007L97.5548 216.043L97.4148 216.183C97.5626 216.377 97.617 216.494 97.6404 216.626C97.6637 216.759 97.6404 216.844 97.5704 216.976C97.5081 217.085 97.2203 217.389 97.0959 217.513L95.2913 219.318C95.1591 219.45 95.0502 219.559 94.8947 219.652C94.7391 219.745 94.568 219.745 94.3813 219.683C94.2957 219.66 94.1635 219.574 94.0857 219.512L93.9379 219.66L95.4547 221.177L95.6025 221.029C95.5325 220.943 95.4547 220.803 95.4236 220.725C95.3691 220.562 95.3302 220.399 95.4469 220.204C95.5247 220.08 95.6647 219.924 95.7814 219.808L97.8037 217.785ZM101.416 220.106C101.805 220.495 101.851 220.744 101.556 221.257C101.416 221.537 101.346 221.763 101.548 221.965C101.711 222.128 101.906 222.136 102.1 221.942C102.201 221.841 102.31 221.67 102.326 221.436C102.349 221.055 102.264 220.565 101.618 219.919C100.708 219.009 99.1601 219.095 98.0945 220.161C97.3556 220.899 97.1222 221.646 97.1844 222.3C97.2078 222.79 97.3789 223.241 97.8067 223.669C98.5067 224.369 99.4245 224.415 100.272 223.956L100.148 223.707C99.6423 223.964 98.849 224.197 98.0945 223.443C97.8611 223.21 97.7211 222.867 97.7133 222.564C97.7133 222.004 97.9856 221.358 98.6778 220.666C99.3857 219.958 100.086 219.663 100.622 219.717C100.902 219.748 101.198 219.888 101.416 220.106ZM62.1638 195.801L62.0161 195.949C62.1016 196.05 62.1638 196.128 62.2183 196.229C62.3194 196.423 62.3738 196.602 62.2883 196.812C62.1561 197.116 61.8294 197.489 61.3238 197.994L59.1226 200.196C58.617 200.701 58.2747 201.012 57.9558 201.145C57.7458 201.215 57.5903 201.184 57.3803 201.082C57.2869 201.036 57.1858 200.966 57.0847 200.88L56.9291 201.036L59.1615 203.268C59.667 203.774 60.2504 204.093 60.756 204.256C61.8372 204.575 63.1439 204.419 64.3417 203.221C65.5162 202.047 65.7107 200.732 65.3684 199.628C65.2207 199.122 64.9173 198.554 64.2873 197.924L62.1638 195.801ZM63.7428 202.638C62.7783 203.603 61.8449 203.898 61.0127 203.859C60.3671 203.836 59.8148 203.533 59.3481 203.066L59.0526 202.77C58.7959 202.514 58.6559 202.311 58.6559 202.125C58.6481 201.821 58.8814 201.572 59.247 201.207L62.7472 197.707C62.9028 197.551 63.0505 197.403 63.2061 197.419C63.3228 197.427 63.455 197.497 63.6728 197.714L64.0773 198.119C64.5673 198.609 64.9018 199.146 64.9873 199.76C65.0884 200.623 64.7306 201.65 63.7428 202.638ZM67.8812 202.934C68.0834 203.136 68.3868 203.144 68.5968 202.934C68.799 202.732 68.8146 202.421 68.6045 202.211C68.4101 202.016 68.1067 202.024 67.8967 202.234C67.6867 202.444 67.6867 202.74 67.8812 202.934ZM66.4655 204.832C66.7767 204.521 67.01 204.318 67.1811 204.163C67.22 204.124 67.2122 204.085 67.1811 204.054L66.2166 203.09L66.0766 203.23C66.2244 203.424 66.2789 203.541 66.3022 203.673C66.3255 203.805 66.3022 203.891 66.2322 204.023C66.17 204.132 65.8822 204.435 65.7577 204.56L63.9532 206.364C63.821 206.496 63.7121 206.605 63.5565 206.699C63.4009 206.792 63.2298 206.792 63.0431 206.73C62.9576 206.706 62.8254 206.621 62.7476 206.559L62.5998 206.706L64.1165 208.223L64.2643 208.075C64.1943 207.99 64.1165 207.85 64.0854 207.772C64.031 207.609 63.9921 207.445 64.1088 207.251C64.1865 207.126 64.3265 206.971 64.4432 206.854L66.4655 204.832ZM68.0553 207.231C68.7942 206.492 69.4553 206.499 69.9143 206.958C70.3654 207.409 70.3887 208.086 69.6498 208.825C68.9031 209.572 68.2186 209.541 67.7597 209.082C67.3086 208.631 67.3086 207.977 68.0553 207.231ZM67.783 212.621C68.5764 211.827 68.2497 211.205 67.6119 210.567C67.3397 210.295 66.6319 209.681 66.3752 209.424C66.0874 209.136 66.0407 208.856 66.2507 208.646C66.5152 208.382 66.9741 208.623 67.2463 208.895C67.3864 209.019 67.503 209.183 67.5886 209.268C68.2031 209.883 69.3776 210.171 70.1865 209.362C70.2721 209.276 70.3498 209.167 70.4121 209.074C70.4898 208.949 70.5754 208.817 70.6687 208.724C70.8476 208.545 71.0888 208.475 71.1977 208.584C71.3066 208.693 71.2443 208.802 71.221 208.949C71.1977 209.082 71.2443 209.206 71.3299 209.292C71.4621 209.424 71.6799 209.455 71.8588 209.276C72.0844 209.051 72.0922 208.763 71.8666 208.537C71.6021 208.273 71.1121 208.187 70.7076 208.467L70.661 208.421C70.7621 207.791 70.5054 207.192 70.1009 206.787C69.4631 206.149 68.312 205.916 67.5264 206.702C67.0052 207.223 66.9352 207.899 67.1141 208.467L67.0674 208.514C66.7097 208.265 66.1574 208.102 65.7685 208.491C65.434 208.825 65.4729 209.315 65.7763 209.712L65.7374 209.751C65.0529 209.253 64.3918 209.167 63.9873 209.572C63.4195 210.14 63.6762 211.018 64.7029 212.045C65.5118 212.854 66.8808 213.523 67.783 212.621ZM67.2463 212.38C66.5463 213.08 65.6129 212.566 64.944 211.897C64.1817 211.135 64.0028 210.536 64.4773 210.062C65.1385 209.401 65.8929 210.015 66.2819 210.342C66.5541 210.583 66.8497 210.847 67.0597 211.073C67.4952 211.509 67.7364 211.89 67.2463 212.38ZM73.2984 210.825C73.6251 210.856 73.9051 210.996 74.1229 211.214C74.3874 211.478 74.4963 211.727 74.5196 211.999C74.543 212.303 74.4341 212.583 74.084 212.933C73.7418 213.275 73.6018 213.275 73.3607 213.034L71.7739 211.447C72.3728 210.988 72.9251 210.794 73.2984 210.825ZM73.0884 215.079L72.9795 214.846C72.3184 215.18 71.5872 215.289 70.9183 214.62C70.5994 214.302 70.4283 213.928 70.4361 213.516C70.4594 212.964 70.8561 212.318 71.3306 211.844C71.4084 211.766 71.4784 211.696 71.5561 211.634L73.9985 214.076C74.1152 213.99 74.2863 213.835 74.4185 213.703C74.9785 213.143 75.3208 212.007 74.3174 211.004C73.4229 210.109 71.8595 210.195 70.7861 211.268C70.2338 211.82 69.8838 212.481 69.876 213.22C69.8605 213.796 70.0783 214.325 70.545 214.792C71.2295 215.476 72.1551 215.577 73.0884 215.079ZM76.3742 218.474C76.9732 217.875 76.732 217.183 76.3665 216.288C76.0087 215.433 75.892 214.989 76.3276 214.554C76.6698 214.212 77.1676 214.258 77.5487 214.639C77.7821 214.873 77.891 215.106 77.9143 215.332C77.961 215.674 77.8288 216.039 77.6265 216.46L77.7665 216.6L78.7466 215.542L78.6455 215.441L78.2721 215.518L78.2254 215.472C78.2177 215.199 78.1399 214.826 77.7432 214.429C77.0898 213.776 76.2576 213.784 75.7598 214.282C75.0753 214.966 75.3009 215.581 75.6586 216.452C76.0553 217.424 76.1798 217.86 75.7209 218.319C75.2853 218.754 74.7875 218.645 74.3519 218.21C73.7919 217.65 73.823 216.794 74.3441 215.899L74.1808 215.736L72.9285 217.035L73.0685 217.175L73.5196 217.02L73.5741 217.074C73.5663 217.533 73.8074 218.054 74.1497 218.396C74.7564 219.003 75.6353 219.213 76.3742 218.474ZM78.5881 221.73C78.238 221.753 77.9269 221.645 77.6858 221.403C77.3047 221.022 77.3591 220.735 77.678 220.416L80.4004 217.709L81.3804 218.689L81.5982 218.471L80.6182 217.491L81.8627 216.247L81.7382 216.122C80.4937 216.838 79.9803 216.853 79.4748 216.488L79.3425 216.62C79.4203 216.698 79.8326 217.125 79.9259 217.219C79.8014 217.328 77.2502 219.879 77.2035 219.926C76.8924 220.237 76.8069 220.431 76.8224 220.665C76.8535 220.991 76.9857 221.232 77.2735 221.52C77.5924 221.839 78.0514 222.018 78.5725 221.917L78.5881 221.73ZM84.0963 219.149C84.2985 219.351 84.6019 219.359 84.8119 219.149C85.0141 218.947 85.0297 218.636 84.8197 218.426C84.6252 218.231 84.3219 218.239 84.1118 218.449C83.9018 218.659 83.9018 218.955 84.0963 219.149ZM82.6807 221.047C82.9918 220.736 83.2251 220.534 83.3963 220.378C83.4351 220.339 83.4274 220.3 83.3963 220.269L82.4318 219.305L82.2918 219.445C82.4395 219.639 82.494 219.756 82.5173 219.888C82.5407 220.02 82.5173 220.106 82.4473 220.238C82.3851 220.347 82.0973 220.65 81.9728 220.775L80.1683 222.579C80.0361 222.711 79.9272 222.82 79.7716 222.914C79.6161 223.007 79.4449 223.007 79.2583 222.945C79.1727 222.922 79.0405 222.836 78.9627 222.774L78.8149 222.922L80.3317 224.438L80.4794 224.29C80.4094 224.205 80.3317 224.065 80.3005 223.987C80.2461 223.824 80.2072 223.66 80.3239 223.466C80.4017 223.342 80.5417 223.186 80.6583 223.069L82.6807 221.047ZM82.9714 223.438C81.7892 224.62 81.9058 226.152 82.777 227.024C83.6481 227.895 85.1882 228.004 86.3705 226.821C87.545 225.647 87.4283 224.115 86.5572 223.243C85.6782 222.364 84.1537 222.256 82.9714 223.438ZM83.5237 223.99C84.2159 223.298 84.8615 222.994 85.4527 223.026C85.8105 223.041 86.1372 223.212 86.3627 223.438C86.5805 223.656 86.7594 223.975 86.7672 224.34C86.7905 224.939 86.4872 225.585 85.8027 226.269C85.126 226.946 84.4649 227.249 83.8737 227.234C83.5081 227.226 83.197 227.055 82.9714 226.829C82.7381 226.596 82.567 226.285 82.5592 225.904C82.5359 225.32 82.847 224.667 83.5237 223.99ZM89.6557 231.818L91.4369 230.037C91.8336 229.64 91.9347 229.259 91.888 228.932C91.8336 228.66 91.7091 228.395 91.4447 228.131C91.1569 227.843 90.7991 227.656 90.4724 227.594C90.1691 227.509 89.7801 227.493 89.3524 227.641L89.3057 227.594C89.4457 227.47 89.8735 227.058 89.9824 226.949C90.0213 226.91 90.0135 226.886 89.9746 226.847L89.0257 225.899L88.8857 226.039C88.9946 226.179 89.0801 226.342 89.119 226.49C89.1501 226.614 89.1346 226.723 89.0568 226.847C88.979 226.972 88.7612 227.19 88.5745 227.376L86.9722 228.979C86.7856 229.165 86.5678 229.383 86.4511 229.469C86.2177 229.624 86.0544 229.617 85.8055 229.508C85.7277 229.477 85.6033 229.399 85.5255 229.337L85.3777 229.484L86.9489 231.055L87.0967 230.908C87.0267 230.822 86.9722 230.721 86.9256 230.628C86.8244 230.387 86.8478 230.223 86.9567 230.052C87.05 229.897 87.26 229.687 87.4311 229.515L88.4501 228.496C88.7768 228.17 89.0412 227.983 89.399 227.859C89.9435 227.656 90.5113 227.835 90.9002 228.224C91.1258 228.45 91.2191 228.668 91.2113 228.893C91.2036 229.15 91.0869 229.391 90.768 229.71L89.1968 231.281C89.0257 231.452 88.8234 231.654 88.6445 231.756C88.4423 231.864 88.3179 231.896 88.1001 231.802C88.0145 231.763 87.8901 231.686 87.8045 231.616L87.6567 231.763L89.1968 233.303L89.3446 233.156C89.2823 233.078 89.2046 232.953 89.1735 232.876C89.0801 232.627 89.119 232.479 89.2357 232.3C89.3212 232.168 89.4924 231.981 89.6557 231.818Z" fill="black"/>
<path d="M166.497 234.701L170.277 230.921L169.11 229.272L168.947 229.435C169.141 229.863 169.312 230.236 169.281 230.827C169.266 231.201 169.204 231.605 168.651 232.158L168.216 232.593C167.959 232.85 167.671 233.013 167.345 232.92C167.15 232.865 166.963 232.71 166.691 232.438L163.899 229.645C163.44 229.186 163.191 228.906 163.067 228.595C162.981 228.37 163.02 228.191 163.106 228.027C163.16 227.926 163.23 227.825 163.308 227.732L163.152 227.576L161.262 229.466L161.418 229.622C161.511 229.544 161.604 229.466 161.698 229.42C161.9 229.311 162.063 229.287 162.289 229.373C162.584 229.497 162.88 229.746 163.339 230.205L165.758 232.624C166.209 233.075 166.458 233.371 166.582 233.651C166.668 233.877 166.637 234.063 166.528 234.265C166.481 234.343 166.419 234.437 166.333 234.538L166.497 234.701ZM169.497 228.061C170.679 229.243 172.212 229.126 173.083 228.255C173.954 227.384 174.063 225.844 172.88 224.662C171.706 223.487 170.174 223.604 169.303 224.475C168.424 225.354 168.315 226.878 169.497 228.061ZM170.049 227.508C169.357 226.816 169.054 226.171 169.085 225.579C169.1 225.222 169.271 224.895 169.497 224.669C169.715 224.452 170.034 224.273 170.399 224.265C170.998 224.242 171.644 224.545 172.328 225.229C173.005 225.906 173.308 226.567 173.293 227.158C173.285 227.524 173.114 227.835 172.888 228.061C172.655 228.294 172.344 228.465 171.963 228.473C171.379 228.496 170.726 228.185 170.049 227.508ZM170.83 219.292L169.803 220.319L169.943 220.459C170.091 220.326 170.254 220.194 170.433 220.171C170.542 220.155 170.651 220.171 170.768 220.225C170.861 220.272 171.017 220.412 171.141 220.536L175.17 224.565C175.38 224.775 175.652 225.063 175.893 225.335L176.049 225.18L175.901 224.379L175.971 224.309C176.477 224.41 177.107 224.231 177.511 223.826C178.172 223.165 178.655 221.703 177.262 220.311C175.847 218.895 174.571 219.206 173.856 219.922C173.366 220.412 173.194 221.05 173.443 221.75L173.397 221.796L171.911 220.311C171.491 219.891 171.157 219.494 170.947 219.284C170.908 219.245 170.861 219.261 170.83 219.292ZM174.034 220.225C174.641 219.618 175.497 219.65 176.718 220.871C177.721 221.874 178.001 222.916 177.294 223.624C176.998 223.92 176.609 224.122 176.181 224.068C175.738 224.013 175.396 223.795 174.906 223.305L174.12 222.52C173.607 222.006 173.576 221.586 173.56 221.306C173.552 220.863 173.731 220.529 174.034 220.225ZM175.194 214.928L174.167 215.954L174.307 216.094C174.455 215.962 174.618 215.83 174.797 215.807C174.906 215.791 175.015 215.807 175.132 215.861C175.225 215.908 175.381 216.048 175.505 216.172L179.534 220.201C179.744 220.411 180.017 220.699 180.258 220.971L180.413 220.816L180.265 220.015L180.335 219.945C180.841 220.046 181.471 219.867 181.875 219.462C182.537 218.801 183.019 217.339 181.627 215.947C180.211 214.531 178.935 214.842 178.22 215.558C177.73 216.048 177.559 216.685 177.808 217.386L177.761 217.432L176.275 215.947C175.855 215.527 175.521 215.13 175.311 214.92C175.272 214.881 175.225 214.897 175.194 214.928ZM178.399 215.861C179.005 215.254 179.861 215.285 181.082 216.507C182.086 217.51 182.366 218.552 181.658 219.26C181.362 219.556 180.973 219.758 180.545 219.703C180.102 219.649 179.76 219.431 179.27 218.941L178.484 218.156C177.971 217.642 177.94 217.222 177.924 216.942C177.916 216.499 178.095 216.164 178.399 215.861ZM186.042 216.073C185.894 215.723 184.51 212.425 184.207 211.78C184.02 211.375 183.903 211.041 183.864 210.878C183.833 210.706 183.849 210.598 183.872 210.496C183.903 210.388 183.965 210.294 184.028 210.216L183.888 210.076L182.698 211.267L182.838 211.407C182.931 211.329 183.04 211.235 183.172 211.197C183.304 211.158 183.444 211.173 183.592 211.321C183.763 211.492 183.849 211.64 184.028 212.052L185.124 214.564L185.07 214.619L182.542 213.476C182.153 213.304 181.951 213.196 181.819 213.063C181.679 212.923 181.671 212.807 181.702 212.698C181.733 212.589 181.842 212.418 181.935 212.309L181.795 212.169L180.317 213.647L180.457 213.787C180.535 213.724 180.667 213.639 180.8 213.6C180.971 213.553 181.103 213.592 181.329 213.693C181.5 213.756 181.803 213.888 182.254 214.09L185.07 215.335C185.21 215.397 185.28 215.436 185.389 215.545C185.599 215.755 185.778 216.213 185.832 216.346C186.058 216.882 186.229 217.396 186.027 217.598C185.957 217.668 185.91 217.699 185.84 217.722C185.793 217.738 185.731 217.754 185.653 217.754C185.467 217.738 185.342 217.754 185.202 217.894C185.062 218.034 185.07 218.275 185.241 218.446C185.443 218.648 185.801 218.632 186.081 218.352C186.439 217.995 186.509 217.598 186.408 217.17C186.322 216.758 186.229 216.525 186.042 216.073ZM184.317 207.827C184.52 207.624 184.527 207.321 184.317 207.111C184.115 206.909 183.804 206.893 183.594 207.103C183.4 207.298 183.407 207.601 183.617 207.811C183.827 208.021 184.123 208.021 184.317 207.827ZM186.215 209.242C185.904 208.931 185.702 208.698 185.546 208.527C185.507 208.488 185.469 208.496 185.437 208.527L184.473 209.491L184.613 209.631C184.807 209.483 184.924 209.429 185.056 209.406C185.189 209.382 185.274 209.406 185.406 209.476C185.515 209.538 185.819 209.826 185.943 209.95L187.748 211.755C187.88 211.887 187.989 211.996 188.082 212.151C188.175 212.307 188.175 212.478 188.113 212.665C188.09 212.75 188.004 212.882 187.942 212.96L188.09 213.108L189.607 211.591L189.459 211.443C189.373 211.513 189.233 211.591 189.155 211.622C188.992 211.677 188.829 211.716 188.634 211.599C188.51 211.521 188.354 211.381 188.238 211.265L186.215 209.242ZM191.896 207.295C191.297 206.696 190.605 206.937 189.711 207.302C188.855 207.66 188.412 207.777 187.976 207.341C187.634 206.999 187.681 206.501 188.062 206.12C188.295 205.887 188.528 205.778 188.754 205.755C189.096 205.708 189.462 205.84 189.882 206.042L190.022 205.902L188.964 204.922L188.863 205.023L188.941 205.397L188.894 205.444C188.622 205.451 188.248 205.529 187.852 205.926C187.198 206.579 187.206 207.411 187.704 207.909C188.388 208.594 189.003 208.368 189.874 208.01C190.846 207.614 191.282 207.489 191.741 207.948C192.176 208.384 192.067 208.881 191.632 209.317C191.072 209.877 190.216 209.846 189.322 209.325L189.158 209.488L190.457 210.74L190.597 210.6L190.442 210.149L190.496 210.095C190.955 210.103 191.476 209.862 191.819 209.519C192.425 208.913 192.635 208.034 191.896 207.295ZM195.152 205.081C195.176 205.431 195.067 205.742 194.826 205.983C194.445 206.364 194.157 206.31 193.838 205.991L191.131 203.269L192.111 202.289L191.893 202.071L190.913 203.051L189.669 201.806L189.544 201.931C190.26 203.175 190.275 203.689 189.91 204.194L190.042 204.326C190.12 204.249 190.548 203.836 190.641 203.743C190.75 203.868 193.301 206.419 193.348 206.465C193.659 206.777 193.853 206.862 194.087 206.847C194.413 206.815 194.655 206.683 194.942 206.395C195.261 206.077 195.44 205.618 195.339 205.096L195.152 205.081ZM200.518 197.817L200.884 198.183C201.311 198.611 201.459 198.899 201.459 199.054C201.459 199.319 201.241 199.692 200.751 200.182C200.363 200.571 200.044 200.765 199.569 200.913C198.659 201.201 197.64 200.944 196.326 199.63C195.034 198.338 194.824 197.335 194.933 196.651C195.003 196.161 195.182 195.779 195.579 195.383C196.232 194.729 196.753 194.582 197.43 194.683C197.881 194.745 198.364 194.947 198.924 195.289L199.087 195.126L197.415 193.454L197.282 193.586L197.415 194.076L197.383 194.107C196.987 194.099 196.209 194.317 195.377 195.149C194.179 196.347 193.953 198.58 195.664 200.291C197.321 201.948 199.398 202.018 201.008 200.407C201.358 200.057 201.77 199.536 202.019 199.179C202.198 198.922 202.315 198.665 202.377 198.51L201.397 197.53C200.915 197.047 200.674 196.775 200.611 196.542C200.557 196.332 200.596 196.184 200.681 196.005C200.728 195.912 200.798 195.811 200.876 195.717L200.72 195.562L198.822 197.46L198.978 197.615C199.071 197.537 199.165 197.475 199.258 197.428C199.452 197.327 199.585 197.288 199.795 197.343C200.051 197.413 200.223 197.522 200.518 197.817ZM202.135 193.447L202.089 193.493C202.12 193.524 201.334 192.692 201.35 192.708C201.326 192.684 201.288 192.676 201.249 192.715L200.3 193.664L200.44 193.804C200.58 193.711 200.72 193.618 200.883 193.579C201 193.555 201.14 193.571 201.256 193.641C201.373 193.711 201.653 193.991 201.785 194.123L203.458 195.796C203.613 195.951 203.784 196.122 203.885 196.286C204.01 196.503 204.018 196.636 203.955 196.838C203.901 196.939 203.823 197.063 203.761 197.141L203.909 197.289L205.464 195.733L205.317 195.586C205.223 195.663 205.122 195.733 205.006 195.788C204.881 195.85 204.749 195.827 204.593 195.764C204.399 195.694 204.22 195.578 203.917 195.274L203.108 194.465C202.905 194.263 202.672 194.014 202.633 193.96C202.104 193.291 202.019 192.412 202.268 192.163C202.361 192.07 202.47 192.023 202.618 192.078C202.812 192.163 202.999 192.225 203.185 192.039C203.395 191.829 203.31 191.603 203.162 191.455C203.014 191.308 202.867 191.269 202.758 191.269C202.587 191.284 202.408 191.37 202.268 191.51C202.003 191.774 201.925 192.07 201.902 192.326C201.879 192.645 201.925 192.957 202.135 193.447ZM205.193 192.364C206.376 193.546 207.908 193.43 208.779 192.559C209.65 191.687 209.759 190.147 208.577 188.965C207.402 187.791 205.87 187.907 204.999 188.778C204.12 189.657 204.011 191.182 205.193 192.364ZM205.746 191.812C205.053 191.12 204.75 190.474 204.781 189.883C204.797 189.525 204.968 189.198 205.193 188.973C205.411 188.755 205.73 188.576 206.096 188.568C206.695 188.545 207.34 188.848 208.025 189.533C208.701 190.21 209.005 190.871 208.989 191.462C208.981 191.827 208.81 192.139 208.585 192.364C208.351 192.597 208.04 192.769 207.659 192.776C207.076 192.8 206.422 192.489 205.746 191.812ZM213.488 185.843L211.808 184.163C211.38 183.735 211.115 183.44 210.874 183.199C210.828 183.152 210.804 183.16 210.765 183.199L209.778 184.186L209.918 184.326C210.05 184.21 210.221 184.101 210.377 184.07C210.524 184.046 210.641 184.07 210.773 184.155C210.882 184.233 211.108 184.459 211.224 184.575L212.29 185.641C212.531 185.882 212.764 186.131 212.92 186.364C213.107 186.675 213.169 187.002 213.138 187.313C213.114 187.601 212.99 187.866 212.788 188.068C212.554 188.301 212.321 188.426 212.049 188.418C211.73 188.426 211.458 188.262 211.115 187.92L209.568 186.372C209.202 186.007 208.883 185.672 208.658 185.415C208.611 185.369 208.58 185.384 208.549 185.415L207.553 186.411L207.693 186.551C207.841 186.419 207.989 186.318 208.129 186.287C208.23 186.263 208.339 186.263 208.486 186.349C208.595 186.411 208.766 186.567 208.938 186.738L210.664 188.464C211.084 188.884 211.372 188.986 211.637 189.017C212.181 189.063 212.578 188.776 212.858 188.496C213.169 188.184 213.309 187.842 213.363 187.523C213.394 187.259 213.387 187.049 213.254 186.637L213.301 186.59L213.884 187.173C213.931 187.22 213.978 187.22 214.009 187.189L214.958 186.24L214.81 186.092C214.709 186.178 214.569 186.287 214.452 186.325C214.25 186.403 214.102 186.349 213.923 186.232C213.776 186.131 213.628 185.983 213.488 185.843ZM216.924 180.618C218.083 181.777 218.207 182.773 217.546 183.434C217.243 183.737 216.901 183.877 216.535 183.854C216.17 183.846 215.788 183.667 215.291 183.169L214.365 182.244C214.023 181.901 213.852 181.419 213.844 181.054C213.828 180.649 213.937 180.276 214.256 179.957C214.801 179.412 215.664 179.358 216.924 180.618ZM216.8 185.658C216.955 185.814 217.134 185.977 217.227 186.133C217.36 186.358 217.344 186.514 217.29 186.677C217.258 186.771 217.173 186.887 217.095 186.981L217.235 187.121L218.775 185.581L218.635 185.441C218.519 185.542 218.402 185.627 218.301 185.666C218.145 185.728 217.958 185.713 217.772 185.588C217.624 185.487 217.445 185.324 217.29 185.168L216.356 184.235L216.403 184.188C216.932 184.204 217.398 183.955 217.725 183.628C218.557 182.796 218.767 181.373 217.484 180.089C216.092 178.697 214.855 178.922 214.101 179.677C213.595 180.182 213.494 180.828 213.68 181.528L213.642 181.567L213.082 180.991C213.043 180.953 213.004 180.96 212.973 180.991L212.008 181.956L212.148 182.096C212.296 181.979 212.475 181.878 212.662 181.847C212.786 181.831 212.903 181.855 213.019 181.925C213.136 181.995 213.354 182.213 213.478 182.337L216.8 185.658ZM221.645 177.547C221.046 176.948 220.353 177.189 219.459 177.554C218.603 177.912 218.16 178.029 217.724 177.593C217.382 177.251 217.429 176.753 217.81 176.372C218.043 176.139 218.277 176.03 218.502 176.006C218.844 175.96 219.21 176.092 219.63 176.294L219.77 176.154L218.712 175.174L218.611 175.275L218.689 175.649L218.642 175.695C218.37 175.703 217.997 175.781 217.6 176.178C216.946 176.831 216.954 177.663 217.452 178.161C218.137 178.845 218.751 178.62 219.622 178.262C220.594 177.865 221.03 177.741 221.489 178.2C221.925 178.635 221.816 179.133 221.38 179.569C220.82 180.129 219.964 180.098 219.07 179.577L218.907 179.74L220.206 180.992L220.346 180.852L220.19 180.401L220.244 180.347C220.703 180.354 221.224 180.113 221.567 179.771C222.173 179.164 222.383 178.285 221.645 177.547ZM229.293 172.123C229.674 171.742 229.728 171.034 229.635 170.769L229.433 170.738C229.417 170.941 229.363 171.197 229.145 171.415C228.927 171.633 228.616 171.633 228.173 171.547C228.087 171.539 227.893 171.501 227.628 171.469C227.473 170.863 227.084 170.085 226.858 169.673C226.617 169.245 226.524 168.98 226.5 168.848C226.477 168.685 226.461 168.56 226.516 168.382C226.555 168.249 226.617 168.14 226.726 168.016L226.57 167.86L225.139 169.292L225.295 169.447C225.404 169.354 225.505 169.284 225.621 169.245C225.847 169.175 226.026 169.229 226.197 169.4C226.391 169.595 226.563 169.844 226.687 170.062C226.951 170.513 227.162 170.972 227.278 171.415L225.404 171.127C224.774 171.042 224.33 170.956 223.988 170.909C224.081 170.287 224.128 169.292 223.56 168.724C223 168.164 222.3 168.226 221.686 168.84C221.017 169.509 221.095 170.349 221.655 170.909C222.067 171.322 222.572 171.454 223.148 171.532C223.272 171.547 223.428 171.578 223.599 171.609C223.451 172.395 223.179 173.694 224.089 174.604C224.851 175.366 226.026 175.39 226.975 174.441C227.558 173.857 227.9 173.064 227.838 172.271L228.212 172.333C228.764 172.45 229.013 172.403 229.293 172.123ZM226.928 173.818C226.321 174.425 225.388 174.674 224.501 173.787C223.755 173.041 223.778 172.442 223.91 171.656L225.108 171.843C225.653 171.921 226.78 172.1 227.519 172.216C227.55 172.854 227.372 173.375 226.928 173.818ZM221.903 170.241C221.53 169.867 221.569 169.393 221.903 169.058C222.308 168.654 222.72 168.786 223.14 169.206C223.739 169.805 223.786 170.303 223.7 170.871C222.79 170.738 222.23 170.567 221.903 170.241ZM193.22 223.827L193.08 223.967C193.205 224.309 193.368 224.644 193.329 225.242C193.313 225.554 193.22 225.974 192.676 226.518L192.24 226.954C192.053 227.14 191.804 227.327 191.618 227.358C191.229 227.42 190.84 227.031 190.505 226.697L189.082 225.274L189.689 224.667C190.023 224.332 190.249 224.216 190.49 224.208C190.809 224.185 191.151 224.418 191.377 224.612L191.524 224.465L189.697 222.637L189.549 222.785C189.735 223.002 189.969 223.329 189.945 223.663C189.945 223.912 189.829 224.122 189.487 224.465L188.88 225.071L187.495 223.687C187.254 223.446 186.943 223.088 186.966 222.738C186.974 222.575 187.114 222.403 187.223 222.294L187.806 221.711C188.18 221.338 188.592 221.206 188.763 221.19C189.214 221.128 189.588 221.252 190.07 221.439L190.225 221.283L188.818 220.296L185.232 223.881L185.38 224.029C185.481 223.943 185.566 223.873 185.66 223.827C185.862 223.733 186.033 223.702 186.259 223.772C186.57 223.912 186.92 224.216 187.425 224.721L189.627 226.923C190.132 227.428 190.459 227.786 190.576 228.105C190.638 228.307 190.599 228.47 190.498 228.68C190.459 228.766 190.397 228.859 190.311 228.96L190.467 229.116L194.27 225.312L193.22 223.827ZM196.677 220.23C197.346 220.899 197.509 221.762 196.903 222.369C196.28 222.991 195.324 223.061 194.11 221.848C192.928 220.665 192.936 219.615 193.566 218.985C193.854 218.698 194.11 218.581 194.437 218.565C194.81 218.565 195.176 218.729 195.619 219.172L196.677 220.23ZM199.034 220.564L198.886 220.417C198.808 220.479 198.66 220.58 198.552 220.611C198.357 220.681 198.202 220.65 198.038 220.533C197.898 220.44 197.743 220.284 197.603 220.144L194.204 216.745C193.776 216.317 193.309 215.82 193.068 215.563C193.021 215.516 192.998 215.509 192.959 215.547L191.932 216.574L192.072 216.714C192.205 216.597 192.345 216.489 192.5 216.442C192.632 216.403 192.741 216.403 192.889 216.504C193.037 216.605 193.449 216.986 193.675 217.212L194.787 218.324L194.756 218.355C194.382 218.246 193.892 218.27 193.364 218.799C192.57 219.592 192.22 221.047 193.558 222.384C194.81 223.637 196.218 223.504 196.98 222.742C197.533 222.19 197.626 221.49 197.408 220.945L197.455 220.899L197.813 221.257C197.89 221.334 197.984 221.428 198.046 221.474C198.085 221.498 198.116 221.498 198.155 221.459C198.194 221.42 198.964 220.634 199.034 220.564ZM202.004 215.712L200.324 214.031C199.896 213.604 199.632 213.308 199.391 213.067C199.344 213.02 199.321 213.028 199.282 213.067L198.294 214.055L198.434 214.195C198.566 214.078 198.737 213.969 198.893 213.938C199.041 213.915 199.157 213.938 199.29 214.024C199.399 214.102 199.624 214.327 199.741 214.444L200.806 215.509C201.047 215.75 201.281 215.999 201.436 216.233C201.623 216.544 201.685 216.871 201.654 217.182C201.631 217.469 201.506 217.734 201.304 217.936C201.071 218.169 200.837 218.294 200.565 218.286C200.246 218.294 199.974 218.131 199.632 217.788L198.084 216.241C197.718 215.875 197.4 215.54 197.174 215.284C197.127 215.237 197.096 215.253 197.065 215.284L196.069 216.279L196.209 216.419C196.357 216.287 196.505 216.186 196.645 216.155C196.746 216.132 196.855 216.132 197.003 216.217C197.112 216.279 197.283 216.435 197.454 216.606L199.181 218.333C199.601 218.753 199.889 218.854 200.153 218.885C200.697 218.932 201.094 218.644 201.374 218.364C201.685 218.053 201.825 217.711 201.88 217.392C201.911 217.127 201.903 216.917 201.771 216.505L201.818 216.458L202.401 217.042C202.448 217.088 202.494 217.088 202.525 217.057L203.474 216.108L203.327 215.96C203.225 216.046 203.085 216.155 202.969 216.194C202.766 216.272 202.619 216.217 202.44 216.1C202.292 215.999 202.144 215.852 202.004 215.712ZM202.376 210.175C202.765 209.786 203.014 209.74 203.527 210.035C203.807 210.175 204.033 210.245 204.235 210.043C204.398 209.88 204.406 209.685 204.211 209.491C204.11 209.39 203.939 209.281 203.706 209.265C203.325 209.242 202.835 209.327 202.189 209.973C201.279 210.883 201.365 212.431 202.43 213.497C203.169 214.235 203.916 214.469 204.569 214.407C205.059 214.383 205.51 214.212 205.938 213.784C206.638 213.084 206.685 212.166 206.226 211.319L205.977 211.443C206.234 211.949 206.467 212.742 205.713 213.497C205.479 213.73 205.137 213.87 204.834 213.878C204.274 213.878 203.628 213.605 202.936 212.913C202.228 212.205 201.932 211.505 201.987 210.969C202.018 210.689 202.158 210.393 202.376 210.175ZM210.863 208.564L210.684 208.479C210.653 208.588 210.567 208.72 210.497 208.79C210.404 208.883 210.303 208.922 210.194 208.907C210.046 208.883 209.882 208.767 209.509 208.393L207.347 206.231C206.81 205.694 206.149 206.013 205.62 206.542C205.223 206.939 204.936 207.584 204.967 207.958C204.967 208.144 205.037 208.308 205.161 208.432C205.332 208.603 205.55 208.588 205.682 208.456C205.861 208.277 205.877 208.106 205.675 207.857C205.496 207.631 205.449 207.413 205.503 207.203C205.573 207.024 205.675 206.861 205.822 206.713C206.188 206.348 206.483 206.348 206.88 206.744L207.463 207.328C207.588 207.546 207.58 207.973 207.316 208.502C207.051 209.062 206.802 209.404 206.779 209.957C206.779 210.299 206.935 210.595 207.129 210.789C207.72 211.38 208.428 211.295 208.98 210.742C209.509 210.213 209.478 209.622 209.377 209.288L209.431 209.233C209.711 209.498 209.898 209.545 210.093 209.506C210.201 209.474 210.31 209.412 210.443 209.28C210.668 209.054 210.831 208.736 210.863 208.564ZM207.782 207.647L208.996 208.86C209.361 209.319 209.214 209.965 208.887 210.291C208.529 210.649 208.07 210.719 207.627 210.276C207.386 210.035 207.292 209.801 207.285 209.56C207.277 209.334 207.378 209.047 207.541 208.65C207.673 208.316 207.806 207.919 207.782 207.647ZM213.121 205.497C213.144 205.847 213.035 206.158 212.794 206.4C212.413 206.781 212.125 206.726 211.806 206.407L209.099 203.685L210.08 202.705L209.862 202.487L208.882 203.467L207.637 202.223L207.513 202.347C208.228 203.592 208.244 204.105 207.878 204.611L208.011 204.743C208.088 204.665 208.516 204.253 208.609 204.159C208.718 204.284 211.27 206.835 211.316 206.882C211.627 207.193 211.822 207.278 212.055 207.263C212.382 207.232 212.623 207.1 212.911 206.812C213.23 206.493 213.409 206.034 213.307 205.513L213.121 205.497ZM210.54 199.989C210.742 199.787 210.75 199.483 210.54 199.273C210.337 199.071 210.026 199.056 209.816 199.266C209.622 199.46 209.63 199.763 209.84 199.973C210.05 200.184 210.345 200.184 210.54 199.989ZM212.438 201.405C212.126 201.094 211.924 200.86 211.769 200.689C211.73 200.65 211.691 200.658 211.66 200.689L210.695 201.654L210.835 201.794C211.03 201.646 211.146 201.591 211.279 201.568C211.411 201.545 211.496 201.568 211.629 201.638C211.738 201.7 212.041 201.988 212.165 202.112L213.97 203.917C214.102 204.049 214.211 204.158 214.304 204.314C214.398 204.469 214.398 204.64 214.335 204.827C214.312 204.913 214.227 205.045 214.164 205.123L214.312 205.27L215.829 203.754L215.681 203.606C215.596 203.676 215.456 203.754 215.378 203.785C215.214 203.839 215.051 203.878 214.857 203.761C214.732 203.684 214.577 203.544 214.46 203.427L212.438 201.405ZM214.828 201.114C216.011 202.296 217.543 202.18 218.414 201.308C219.285 200.437 219.394 198.897 218.212 197.715C217.037 196.54 215.505 196.657 214.634 197.528C213.755 198.407 213.646 199.932 214.828 201.114ZM215.381 200.562C214.688 199.869 214.385 199.224 214.416 198.633C214.432 198.275 214.603 197.948 214.828 197.723C215.046 197.505 215.365 197.326 215.731 197.318C216.33 197.295 216.975 197.598 217.66 198.283C218.336 198.959 218.64 199.62 218.624 200.212C218.616 200.577 218.445 200.888 218.22 201.114C217.986 201.347 217.675 201.518 217.294 201.526C216.711 201.549 216.057 201.238 215.381 200.562ZM223.208 194.43L221.427 192.648C221.03 192.252 220.649 192.151 220.323 192.197C220.05 192.252 219.786 192.376 219.522 192.641C219.234 192.928 219.047 193.286 218.985 193.613C218.899 193.916 218.884 194.305 219.031 194.733L218.985 194.78C218.86 194.64 218.448 194.212 218.339 194.103C218.3 194.064 218.277 194.072 218.238 194.111L217.289 195.06L217.429 195.2C217.569 195.091 217.733 195.005 217.88 194.966C218.005 194.935 218.114 194.951 218.238 195.029C218.363 195.106 218.58 195.324 218.767 195.511L220.369 197.113C220.556 197.3 220.774 197.518 220.859 197.634C221.015 197.868 221.007 198.031 220.898 198.28C220.867 198.358 220.789 198.482 220.727 198.56L220.875 198.708L222.446 197.136L222.298 196.989C222.213 197.059 222.112 197.113 222.018 197.16C221.777 197.261 221.614 197.238 221.443 197.129C221.287 197.035 221.077 196.825 220.906 196.654L219.887 195.635C219.56 195.309 219.374 195.044 219.249 194.686C219.047 194.142 219.226 193.574 219.615 193.185C219.84 192.96 220.058 192.866 220.284 192.874C220.54 192.882 220.782 192.998 221.1 193.317L222.672 194.889C222.843 195.06 223.045 195.262 223.146 195.441C223.255 195.643 223.286 195.767 223.193 195.985C223.154 196.071 223.076 196.195 223.006 196.281L223.154 196.429L224.694 194.889L224.546 194.741C224.468 194.803 224.344 194.881 224.266 194.912C224.017 195.005 223.87 194.966 223.691 194.85C223.558 194.764 223.372 194.593 223.208 194.43Z" fill="black"/>
<path d="M208.086 54.3388L206.803 53.0554L200.666 55.8011L200.612 55.7466L203.381 49.633L201.996 48.2485L201.84 48.404C201.926 48.5051 202.027 48.6218 202.082 48.7385C202.159 48.9096 202.206 49.0807 202.128 49.2985C202.019 49.563 201.817 49.8119 201.374 50.2552L198.566 53.0632C198.177 53.4521 197.951 53.5687 197.726 53.6076C197.516 53.6465 197.376 53.6154 197.205 53.5221C197.111 53.4754 197.01 53.4054 196.901 53.3121L196.746 53.4676L198.379 55.101L198.535 54.9455C198.434 54.8132 198.379 54.7277 198.317 54.6188C198.239 54.4632 198.216 54.3154 198.255 54.121C198.294 53.911 198.418 53.6932 198.807 53.3043L202.307 49.8041L202.369 49.8663L199.507 56.3067L199.756 56.5556L206.173 53.701L206.227 53.7554L203.147 56.8356C202.642 57.3411 202.299 57.6523 201.973 57.7767C201.763 57.8623 201.568 57.8234 201.389 57.7223C201.312 57.6756 201.187 57.5823 201.094 57.5045L200.938 57.6601L202.852 59.5735L203.007 59.4179C202.929 59.3246 202.859 59.2235 202.821 59.1535C202.712 58.9512 202.665 58.7646 202.751 58.5545C202.875 58.2434 203.202 57.9012 203.707 57.3956L205.901 55.2021C206.445 54.6577 206.749 54.3699 207.06 54.2454C207.285 54.1754 207.464 54.2143 207.627 54.2843C207.721 54.331 207.837 54.4166 207.931 54.4943L208.086 54.3388ZM208.041 58.1821C208.367 58.2132 208.647 58.3532 208.865 58.571C209.129 58.8354 209.238 59.0843 209.262 59.3566C209.285 59.6599 209.176 59.9399 208.826 60.2899C208.484 60.6322 208.344 60.6322 208.103 60.3911L206.516 58.8043C207.115 58.3454 207.667 58.1509 208.041 58.1821ZM207.831 62.4367L207.722 62.2034C207.061 62.5378 206.329 62.6467 205.66 61.9778C205.342 61.6589 205.17 61.2855 205.178 60.8733C205.202 60.3211 205.598 59.6755 206.073 59.201C206.15 59.1232 206.22 59.0532 206.298 58.991L208.741 61.4333C208.857 61.3478 209.028 61.1922 209.161 61.06C209.721 60.4999 210.063 59.3643 209.059 58.361C208.165 57.4665 206.602 57.552 205.528 58.6254C204.976 59.1777 204.626 59.8388 204.618 60.5777C204.603 61.1533 204.82 61.6822 205.287 62.1489C205.972 62.8334 206.897 62.9345 207.831 62.4367ZM210.113 65.8703C209.763 65.8936 209.452 65.7847 209.211 65.5436C208.83 65.1625 208.884 64.8747 209.203 64.5558L211.925 61.849L212.905 62.829L213.123 62.6112L212.143 61.6312L213.388 60.3867L213.263 60.2622C212.019 60.9778 211.505 60.9934 211 60.6278L210.867 60.76C210.945 60.8378 211.357 61.2656 211.451 61.359C211.326 61.4679 208.775 64.0191 208.728 64.0658C208.417 64.3769 208.332 64.5713 208.347 64.8047C208.378 65.1314 208.511 65.3725 208.798 65.6603C209.117 65.9792 209.576 66.1581 210.097 66.057L210.113 65.8703ZM214.587 69.364L216.352 67.5983C216.757 67.1939 216.866 66.8361 216.819 66.4938C216.788 66.2138 216.648 65.9494 216.383 65.6849C216.088 65.3893 215.73 65.2027 215.403 65.1404C215.092 65.0471 214.727 65.0393 214.33 65.1716L214.283 65.1249L216.026 63.3826C216.267 63.1415 216.765 62.6592 216.835 62.5892C216.881 62.5425 216.873 62.5192 216.835 62.4803L215.839 61.4847L215.691 61.6325C215.816 61.7725 215.917 61.9203 215.963 62.0914C215.995 62.2003 215.979 62.3403 215.893 62.457C215.823 62.5581 215.668 62.7448 215.466 62.947L211.857 66.5561C211.685 66.7272 211.491 66.9216 211.351 67.015C211.125 67.1628 210.954 67.1472 210.737 67.0539C210.659 67.0228 210.542 66.9528 210.456 66.8828L210.309 67.0305L211.872 68.594L212.02 68.4462C211.95 68.3606 211.88 68.2439 211.841 68.1584C211.763 67.9561 211.771 67.7928 211.934 67.5361C212.02 67.4039 212.152 67.2405 212.347 67.0461L213.358 66.0349C213.669 65.7238 213.988 65.4982 214.33 65.3893C214.851 65.2104 215.419 65.3582 215.831 65.7705C216.057 65.996 216.181 66.2449 216.135 66.525C216.103 66.7739 215.963 67.0072 215.699 67.2717L214.136 68.8351C213.941 69.0295 213.778 69.1773 213.63 69.2629C213.381 69.4184 213.218 69.4262 213.039 69.3562C212.946 69.3251 212.837 69.2473 212.735 69.1618L212.588 69.3095L214.136 70.8574L214.283 70.7096C214.213 70.6241 214.136 70.5152 214.104 70.4218C214.019 70.1963 214.042 70.0485 214.167 69.8462C214.26 69.7062 214.423 69.5273 214.587 69.364ZM217.966 74.5322L218.051 74.3533C217.943 74.3222 217.81 74.2366 217.74 74.1666C217.647 74.0733 217.608 73.9721 217.624 73.8633C217.647 73.7155 217.764 73.5521 218.137 73.1788L220.299 71.0164C220.836 70.4797 220.517 69.8186 219.988 69.2897C219.592 68.893 218.946 68.6052 218.573 68.6363C218.386 68.6363 218.223 68.7063 218.098 68.8308C217.927 69.0019 217.943 69.2197 218.075 69.3519C218.254 69.5308 218.425 69.5464 218.674 69.3441C218.899 69.1652 219.117 69.1186 219.327 69.173C219.506 69.243 219.669 69.3441 219.817 69.4919C220.183 69.8575 220.183 70.1531 219.786 70.5497L219.203 71.1331C218.985 71.2576 218.557 71.2498 218.028 70.9853C217.468 70.7209 217.126 70.472 216.574 70.4486C216.231 70.4486 215.936 70.6042 215.741 70.7987C215.15 71.3898 215.236 72.0976 215.788 72.6499C216.317 73.1788 216.908 73.1477 217.243 73.0465L217.297 73.101C217.033 73.381 216.986 73.5677 217.025 73.7621C217.056 73.871 217.118 73.9799 217.25 74.1122C217.476 74.3377 217.795 74.5011 217.966 74.5322ZM218.884 71.452L217.67 72.6654C217.211 73.031 216.566 72.8832 216.239 72.5565C215.881 72.1987 215.811 71.7398 216.255 71.2965C216.496 71.0553 216.729 70.962 216.97 70.9542C217.196 70.9464 217.484 71.0476 217.88 71.2109C218.215 71.3431 218.611 71.4754 218.884 71.452ZM222.791 77.5682L224.572 75.787C224.969 75.3903 225.07 75.0092 225.023 74.6825C224.969 74.4103 224.844 74.1458 224.58 73.8814C224.292 73.5936 223.934 73.4069 223.608 73.3447C223.304 73.2591 222.915 73.2436 222.488 73.3913L222.441 73.3447C222.581 73.2202 223.009 72.808 223.118 72.6991C223.157 72.6602 223.149 72.6369 223.11 72.598L222.161 71.649L222.021 71.789C222.13 71.929 222.215 72.0924 222.254 72.2402C222.285 72.3646 222.27 72.4735 222.192 72.598C222.114 72.7224 221.896 72.9402 221.71 73.1269L220.107 74.7292C219.921 74.9159 219.703 75.1337 219.586 75.2192C219.353 75.3748 219.19 75.367 218.941 75.2581C218.863 75.227 218.739 75.1492 218.661 75.087L218.513 75.2348L220.084 76.806L220.232 76.6582C220.162 76.5726 220.107 76.4715 220.061 76.3782C219.96 76.137 219.983 75.9737 220.092 75.8026C220.185 75.647 220.395 75.437 220.566 75.2659L221.585 74.2469C221.912 73.9203 222.176 73.7336 222.534 73.6091C223.079 73.4069 223.647 73.5858 224.035 73.9747C224.261 74.2003 224.354 74.4181 224.347 74.6436C224.339 74.9003 224.222 75.1414 223.903 75.4603L222.332 77.0315C222.161 77.2027 221.959 77.4049 221.78 77.506C221.578 77.6149 221.453 77.646 221.235 77.5527C221.15 77.5138 221.025 77.436 220.94 77.366L220.792 77.5138L222.332 79.0539L222.48 78.9061C222.418 78.8283 222.34 78.7038 222.309 78.6261C222.215 78.3772 222.254 78.2294 222.371 78.0505C222.456 77.9182 222.628 77.7316 222.791 77.5682ZM227.446 77.5874C227.773 77.6186 228.053 77.7586 228.27 77.9763C228.535 78.2408 228.644 78.4897 228.667 78.7619C228.69 79.0653 228.582 79.3453 228.232 79.6953C227.889 80.0376 227.749 80.0376 227.508 79.7964L225.921 78.2097C226.52 77.7508 227.073 77.5563 227.446 77.5874ZM227.236 81.8421L227.127 81.6088C226.466 81.9432 225.735 82.0521 225.066 81.3832C224.747 81.0643 224.576 80.6909 224.584 80.2787C224.607 79.7264 225.004 79.0808 225.478 78.6064C225.556 78.5286 225.626 78.4586 225.704 78.3964L228.146 80.8387C228.263 80.7532 228.434 80.5976 228.566 80.4654C229.126 79.9053 229.468 78.7697 228.465 77.7663C227.57 76.8718 226.007 76.9574 224.934 78.0308C224.381 78.583 224.031 79.2442 224.024 79.9831C224.008 80.5587 224.226 81.0876 224.692 81.5543C225.377 82.2388 226.303 82.3399 227.236 81.8421ZM196.696 61.5663C197.248 62.1186 197.404 62.5853 197.38 63.1842C197.349 63.682 197.162 64.2731 196.742 64.9887L196.906 65.1521L198.617 63.4409L198.485 63.3086L198.01 63.4253L197.979 63.3942C197.933 62.912 197.715 62.1497 196.929 61.3641C195.677 60.1118 193.398 60.0574 191.796 61.6597C190.185 63.2697 190.053 65.3776 191.453 66.7777C192.496 67.82 193.779 67.9367 195.031 67.3066L194.946 67.0655C193.577 67.7344 192.597 67.2677 191.928 66.5988C191.523 66.1943 191.267 65.8288 191.166 65.2765C191.041 64.5609 191.134 63.5964 192.418 62.313C193.6 61.1307 194.58 60.8974 195.319 60.9519C195.972 60.9674 196.377 61.2474 196.696 61.5663ZM197.46 72.4115L197.546 72.2326C197.437 72.2015 197.305 72.116 197.235 72.046C197.142 71.9526 197.103 71.8515 197.118 71.7426C197.142 71.5948 197.258 71.4315 197.632 71.0581L199.794 68.8958C200.331 68.3591 200.012 67.698 199.483 67.1691C199.086 66.7724 198.441 66.4846 198.067 66.5157C197.881 66.5157 197.717 66.5857 197.593 66.7101C197.422 66.8813 197.437 67.0991 197.569 67.2313C197.748 67.4102 197.919 67.4257 198.168 67.2235C198.394 67.0446 198.612 66.9979 198.822 67.0524C199.001 67.1224 199.164 67.2235 199.312 67.3713C199.677 67.7369 199.677 68.0324 199.281 68.4291L198.697 69.0125C198.479 69.1369 198.052 69.1292 197.523 68.8647C196.963 68.6002 196.62 68.3513 196.068 68.328C195.726 68.328 195.43 68.4836 195.236 68.678C194.645 69.2692 194.73 69.977 195.283 70.5292C195.812 71.0581 196.403 71.027 196.737 70.9259L196.792 70.9804C196.527 71.2604 196.48 71.4471 196.519 71.6415C196.55 71.7504 196.613 71.8593 196.745 71.9915C196.97 72.2171 197.289 72.3804 197.46 72.4115ZM198.378 69.3314L197.165 70.5448C196.706 70.9104 196.06 70.7626 195.734 70.4359C195.376 70.0781 195.306 69.6192 195.749 69.1758C195.99 68.9347 196.224 68.8414 196.465 68.8336C196.69 68.8258 196.978 68.9269 197.375 69.0903C197.709 69.2225 198.106 69.3547 198.378 69.3314ZM202.884 74.3353C201.725 75.4943 200.73 75.6187 200.069 74.9576C199.765 74.6542 199.625 74.312 199.649 73.9464C199.657 73.5808 199.835 73.1997 200.333 72.7019L201.259 71.7763C201.601 71.4341 202.083 71.2629 202.449 71.2552C202.853 71.2396 203.227 71.3485 203.546 71.6674C204.09 72.2119 204.145 73.0753 202.884 74.3353ZM197.844 74.2109C197.689 74.3664 197.525 74.5453 197.37 74.6387C197.144 74.7709 196.989 74.7553 196.825 74.7009C196.732 74.6698 196.615 74.5842 196.522 74.5064L196.382 74.6464L197.922 76.1865L198.062 76.0465C197.961 75.9298 197.875 75.8132 197.836 75.7121C197.774 75.5565 197.79 75.3698 197.914 75.1831C198.015 75.0354 198.179 74.8565 198.334 74.7009L199.268 73.7675L199.314 73.8142C199.299 74.3431 199.548 74.8098 199.874 75.1365C200.707 75.9687 202.13 76.1787 203.413 74.8953C204.806 73.5031 204.58 72.2663 203.826 71.5118C203.32 71.0063 202.674 70.9051 201.974 71.0918L201.936 71.0529L202.511 70.4929C202.55 70.454 202.542 70.4151 202.511 70.384L201.547 69.4195L201.407 69.5595C201.523 69.7073 201.624 69.8862 201.655 70.0729C201.671 70.1973 201.648 70.314 201.578 70.4307C201.508 70.5473 201.29 70.7651 201.165 70.8896L197.844 74.2109ZM204.953 79.0947C204.603 79.1181 204.291 79.0092 204.05 78.768C203.669 78.3869 203.724 78.0991 204.043 77.7802L206.765 75.0734L207.745 76.0535L207.963 75.8357L206.983 74.8556L208.227 73.6111L208.103 73.4867C206.858 74.2022 206.345 74.2178 205.839 73.8522L205.707 73.9845C205.785 74.0622 206.197 74.49 206.29 74.5834C206.166 74.6923 203.615 77.2435 203.568 77.2902C203.257 77.6013 203.171 77.7958 203.187 78.0291C203.218 78.3558 203.35 78.5969 203.638 78.8847C203.957 79.2036 204.416 79.3825 204.937 79.2814L204.953 79.0947ZM209.263 82.5028L210.943 80.8228C211.371 80.395 211.666 80.1305 211.908 79.8894C211.954 79.8427 211.946 79.8194 211.908 79.7805L210.92 78.7927L210.78 78.9327C210.896 79.0649 211.005 79.236 211.036 79.3916C211.06 79.5394 211.036 79.656 210.951 79.7883C210.873 79.8972 210.648 80.1227 210.531 80.2394L209.465 81.305C209.224 81.5461 208.975 81.7795 208.742 81.935C208.431 82.1217 208.104 82.1839 207.793 82.1528C207.505 82.1295 207.241 82.005 207.038 81.8028C206.805 81.5695 206.681 81.3361 206.688 81.0639C206.681 80.745 206.844 80.4727 207.186 80.1305L208.734 78.5826C209.1 78.2171 209.434 77.8982 209.691 77.6726C209.737 77.6259 209.722 77.5948 209.691 77.5637L208.695 76.5681L208.555 76.7081C208.687 76.8559 208.789 77.0037 208.82 77.1437C208.843 77.2448 208.843 77.3537 208.757 77.5015C208.695 77.6104 208.54 77.7815 208.369 77.9526L206.642 79.6794C206.222 80.0994 206.121 80.3872 206.09 80.6516C206.043 81.1961 206.331 81.5928 206.611 81.8728C206.922 82.1839 207.264 82.3239 207.583 82.3784C207.847 82.4095 208.057 82.4017 208.47 82.2695L208.516 82.3162L207.933 82.8995C207.886 82.9462 207.886 82.9929 207.917 83.024L208.866 83.9729L209.014 83.8251C208.929 83.724 208.82 83.584 208.781 83.4673C208.703 83.2651 208.757 83.1173 208.874 82.9384C208.975 82.7906 209.123 82.6429 209.263 82.5028ZM213.438 82.9289L213.391 82.8822C213.36 82.9133 214.193 82.1277 214.177 82.1433C214.2 82.12 214.208 82.0811 214.169 82.0422L213.22 81.0932L213.08 81.2333C213.174 81.3733 213.267 81.5133 213.306 81.6766C213.329 81.7933 213.314 81.9333 213.244 82.05C213.174 82.1666 212.894 82.4466 212.761 82.5789L211.089 84.2512C210.934 84.4067 210.762 84.5779 210.599 84.679C210.381 84.8034 210.249 84.8112 210.047 84.749C209.946 84.6945 209.821 84.6168 209.743 84.5545L209.596 84.7023L211.151 86.258L211.299 86.1102C211.221 86.0168 211.151 85.9157 211.097 85.799C211.035 85.6746 211.058 85.5424 211.12 85.3868C211.19 85.1923 211.307 85.0134 211.61 84.7101L212.419 83.9012C212.621 83.6989 212.87 83.4656 212.925 83.4267C213.594 82.8978 214.473 82.8122 214.722 83.0611C214.815 83.1545 214.862 83.2634 214.807 83.4111C214.722 83.6056 214.659 83.7923 214.846 83.9789C215.056 84.189 215.282 84.1034 215.429 83.9556C215.577 83.8078 215.616 83.66 215.616 83.5512C215.6 83.38 215.515 83.2011 215.375 83.0611C215.11 82.7967 214.815 82.7189 214.558 82.6956C214.239 82.6722 213.928 82.7189 213.438 82.9289ZM217.025 85.5514C217.352 85.5825 217.632 85.7225 217.85 85.9403C218.114 86.2047 218.223 86.4536 218.246 86.7259C218.27 87.0292 218.161 87.3092 217.811 87.6593C217.468 88.0015 217.328 88.0015 217.087 87.7604L215.501 86.1736C216.099 85.7147 216.652 85.5203 217.025 85.5514ZM216.815 89.806L216.706 89.5727C216.045 89.9071 215.314 90.016 214.645 89.3471C214.326 89.0282 214.155 88.6549 214.163 88.2426C214.186 87.6904 214.583 87.0448 215.057 86.5703C215.135 86.4925 215.205 86.4225 215.283 86.3603L217.725 88.8026C217.842 88.7171 218.013 88.5615 218.145 88.4293C218.705 87.8693 219.047 86.7337 218.044 85.7303C217.15 84.8358 215.586 84.9213 214.513 85.9947C213.96 86.547 213.61 87.2081 213.603 87.947C213.587 88.5226 213.805 89.0515 214.272 89.5182C214.956 90.2027 215.882 90.3038 216.815 89.806Z" fill="black"/>
</svg>
