<svg width="552" height="552" viewBox="0 0 552 552" fill="none" xmlns="http://www.w3.org/2000/svg">
<circle cx="55.1771" cy="271.885" r="54.1771" stroke="black" stroke-dasharray="4 4"/>
<path d="M29.9601 266.736C29.9601 264.864 28.7121 264.24 26.8881 263.376C25.6561 262.8 24.4241 262.336 24.4241 260.768C24.4241 259.568 25.3841 259.04 26.3121 259.04C27.0641 259.04 27.4801 259.232 27.8161 259.456C28.3761 259.856 28.8721 260.736 29.1441 261.584H29.4641L29.1761 258.784H28.8561L28.6321 259.376H28.5521C28.0561 258.912 27.4161 258.608 26.3441 258.608C24.5521 258.608 23.4321 259.792 23.4321 261.216C23.4321 262.992 24.7601 263.744 26.2001 264.416C27.8961 265.184 28.9681 265.616 28.9681 267.312C28.9681 268.448 28.2161 269.376 26.6161 269.376C25.0961 269.376 23.9921 267.872 23.4801 266.096H23.1761L23.3361 269.456H23.5601L23.9281 268.784H24.0241C24.5681 269.312 25.4961 269.808 26.6321 269.808C28.3281 269.808 29.9601 268.688 29.9601 266.736ZM35.4725 262.352C36.2725 262.352 36.5765 262.56 36.8005 263.392C36.9445 263.824 37.1045 264.128 37.5205 264.128C37.8565 264.128 38.0645 263.936 38.0645 263.536C38.0645 263.328 38.0005 263.04 37.7765 262.784C37.4085 262.368 36.8165 261.952 35.4885 261.952C33.6165 261.952 32.1125 263.632 32.1125 265.824C32.1125 267.344 32.6405 268.352 33.3765 268.96C33.9045 269.44 34.5445 269.728 35.4245 269.728C36.8645 269.728 37.8565 268.832 38.2565 267.488L37.8725 267.36C37.6165 268.144 37.0405 269.2 35.4885 269.2C35.0085 269.2 34.5125 268.992 34.1925 268.688C33.6165 268.112 33.2325 267.168 33.2325 265.744C33.2325 264.288 33.6485 263.264 34.2565 262.768C34.5765 262.512 35.0245 262.352 35.4725 262.352ZM40.0348 265.84C40.0348 268.272 41.7308 269.728 43.5228 269.728C45.3148 269.728 47.0108 268.256 47.0108 265.824C47.0108 263.408 45.3148 261.952 43.5228 261.952C41.7148 261.952 40.0348 263.408 40.0348 265.84ZM41.1708 265.84C41.1708 264.416 41.5228 263.44 42.1628 262.864C42.5468 262.512 43.0588 262.352 43.5228 262.352C43.9708 262.352 44.4828 262.496 44.8668 262.864C45.5068 263.456 45.8588 264.432 45.8588 265.84C45.8588 267.232 45.4908 268.224 44.8668 268.816C44.4828 269.184 43.9868 269.328 43.5228 269.328C43.0428 269.328 42.5468 269.184 42.1468 268.8C41.5228 268.224 41.1708 267.232 41.1708 265.84ZM55.2733 265.824C55.2733 268.208 54.3773 269.36 53.0173 269.36C52.3933 269.36 51.8973 269.152 51.5453 268.752C51.1773 268.368 50.9693 267.792 50.9693 266.768V264.864C50.9693 264.16 51.2893 263.488 51.6573 263.104C52.0573 262.672 52.5533 262.4 53.2093 262.4C54.3293 262.4 55.2733 263.232 55.2733 265.824ZM49.9613 270.88C49.9613 271.2 49.9773 271.552 49.9133 271.808C49.8173 272.176 49.6413 272.32 49.4173 272.432C49.2893 272.496 49.0813 272.528 48.9053 272.544V272.832H52.0733V272.544C51.8493 272.528 51.6413 272.496 51.4973 272.432C51.2733 272.336 51.0973 272.128 51.0333 271.808C50.9853 271.552 50.9693 271.2 50.9693 270.88V268.96H51.0653C51.5933 269.52 52.3293 269.744 53.0013 269.744C54.7133 269.744 56.3933 268.496 56.3933 265.856C56.3933 262.992 54.8893 261.952 53.3373 261.952C52.2973 261.952 51.5293 262.512 51.0013 263.424H50.9213L50.9373 262.256C50.9373 262.176 50.8893 262.144 50.8253 262.144H48.8413V262.432C49.1133 262.464 49.4013 262.544 49.6253 262.704C49.7693 262.816 49.8653 262.96 49.9133 263.152C49.9613 263.344 49.9613 263.792 49.9613 264.048V270.88ZM60.6784 262.816C61.0464 262.512 61.4784 262.368 61.9264 262.368C62.4704 262.368 62.8384 262.512 63.1424 262.768C63.4784 263.056 63.6544 263.456 63.6544 264.176C63.6544 264.88 63.5104 265.024 63.0144 265.024H59.7504C59.8944 263.936 60.2624 263.168 60.6784 262.816ZM64.8384 267.408L64.4864 267.28C64.1504 268.304 63.5104 269.168 62.1344 269.168C61.4784 269.168 60.9184 268.96 60.5024 268.528C59.9584 267.936 59.7024 266.864 59.7024 265.888C59.7024 265.728 59.7024 265.584 59.7184 265.44H64.7424C64.7744 265.232 64.7904 264.896 64.7904 264.624C64.7904 263.472 63.9744 261.952 61.9104 261.952C60.0704 261.952 58.5504 263.648 58.5504 265.856C58.5504 266.992 58.8704 268.032 59.6224 268.8C60.1984 269.408 60.9664 269.728 61.9264 269.728C63.3344 269.728 64.3904 268.88 64.8384 267.408ZM74.6816 269.584V269.28C74.4096 269.248 74.1376 269.184 73.9776 269.088C73.7696 268.96 73.7056 268.88 73.6256 268.624C73.5616 268.416 73.5456 268.016 73.5456 267.6V260.448C73.5456 260.016 73.5776 259.184 73.5776 258.944C73.5776 258.848 73.5456 258.816 73.4656 258.816C73.3056 258.816 73.0336 258.88 72.7296 258.944C72.2176 259.024 71.6576 259.104 71.2256 259.12V259.424C71.4816 259.472 71.9136 259.536 72.1056 259.632C72.2656 259.712 72.3616 259.792 72.4096 260.096C72.4576 260.368 72.4736 260.768 72.4736 261.024V267.6C72.4736 268.016 72.4416 268.4 72.3776 268.624C72.2976 268.896 72.1696 268.992 71.9936 269.104C71.8656 269.184 71.5776 269.232 71.3216 269.28V269.584H74.6816Z" fill="black"/>
<circle cx="129.242" cy="267.771" r="128.242" stroke="black"/>
<path d="M157.469 267.122C157.469 265.25 156.221 264.626 154.397 263.762C153.165 263.186 151.933 262.722 151.933 261.154C151.933 259.954 152.893 259.426 153.821 259.426C154.573 259.426 154.989 259.618 155.325 259.842C155.885 260.242 156.381 261.122 156.653 261.97H156.973L156.685 259.17H156.365L156.141 259.762H156.061C155.565 259.298 154.925 258.994 153.853 258.994C152.061 258.994 150.941 260.178 150.941 261.602C150.941 263.378 152.269 264.13 153.709 264.802C155.405 265.57 156.477 266.002 156.477 267.698C156.477 268.834 155.725 269.762 154.125 269.762C152.605 269.762 151.501 268.258 150.989 266.482H150.685L150.845 269.842H151.069L151.437 269.17H151.533C152.077 269.698 153.005 270.194 154.141 270.194C155.837 270.194 157.469 269.074 157.469 267.122ZM162.981 262.738C163.781 262.738 164.085 262.946 164.309 263.778C164.453 264.21 164.613 264.514 165.029 264.514C165.365 264.514 165.573 264.322 165.573 263.922C165.573 263.714 165.509 263.426 165.285 263.17C164.917 262.754 164.325 262.338 162.997 262.338C161.125 262.338 159.621 264.018 159.621 266.21C159.621 267.73 160.149 268.738 160.885 269.346C161.413 269.826 162.053 270.114 162.933 270.114C164.373 270.114 165.365 269.218 165.765 267.874L165.381 267.746C165.125 268.53 164.549 269.586 162.997 269.586C162.517 269.586 162.021 269.378 161.701 269.074C161.125 268.498 160.741 267.554 160.741 266.13C160.741 264.674 161.157 263.65 161.765 263.154C162.085 262.898 162.533 262.738 162.981 262.738ZM167.543 266.226C167.543 268.658 169.239 270.114 171.031 270.114C172.823 270.114 174.519 268.642 174.519 266.21C174.519 263.794 172.823 262.338 171.031 262.338C169.223 262.338 167.543 263.794 167.543 266.226ZM168.679 266.226C168.679 264.802 169.031 263.826 169.671 263.25C170.055 262.898 170.567 262.738 171.031 262.738C171.479 262.738 171.991 262.882 172.375 263.25C173.015 263.842 173.367 264.818 173.367 266.226C173.367 267.618 172.999 268.61 172.375 269.202C171.991 269.57 171.495 269.714 171.031 269.714C170.551 269.714 170.055 269.57 169.655 269.186C169.031 268.61 168.679 267.618 168.679 266.226ZM182.782 266.21C182.782 268.594 181.886 269.746 180.526 269.746C179.902 269.746 179.406 269.538 179.054 269.138C178.686 268.754 178.478 268.178 178.478 267.154V265.25C178.478 264.546 178.798 263.874 179.166 263.49C179.566 263.058 180.062 262.786 180.718 262.786C181.838 262.786 182.782 263.618 182.782 266.21ZM177.47 271.266C177.47 271.586 177.486 271.938 177.422 272.194C177.326 272.562 177.15 272.706 176.926 272.818C176.798 272.882 176.59 272.914 176.414 272.93V273.218H179.582V272.93C179.358 272.914 179.15 272.882 179.006 272.818C178.782 272.722 178.606 272.514 178.542 272.194C178.494 271.938 178.478 271.586 178.478 271.266V269.346H178.574C179.102 269.906 179.838 270.13 180.51 270.13C182.222 270.13 183.902 268.882 183.902 266.242C183.902 263.378 182.398 262.338 180.846 262.338C179.806 262.338 179.038 262.898 178.51 263.81H178.43L178.446 262.642C178.446 262.562 178.398 262.53 178.334 262.53H176.35V262.818C176.622 262.85 176.91 262.93 177.134 263.09C177.278 263.202 177.374 263.346 177.422 263.538C177.47 263.73 177.47 264.178 177.47 264.434V271.266ZM188.187 263.202C188.555 262.898 188.987 262.754 189.435 262.754C189.979 262.754 190.347 262.898 190.651 263.154C190.987 263.442 191.163 263.842 191.163 264.562C191.163 265.266 191.019 265.41 190.523 265.41H187.259C187.403 264.322 187.771 263.554 188.187 263.202ZM192.347 267.794L191.995 267.666C191.659 268.69 191.019 269.554 189.643 269.554C188.987 269.554 188.427 269.346 188.011 268.914C187.467 268.322 187.211 267.25 187.211 266.274C187.211 266.114 187.211 265.97 187.227 265.826H192.251C192.283 265.618 192.299 265.282 192.299 265.01C192.299 263.858 191.483 262.338 189.419 262.338C187.579 262.338 186.059 264.034 186.059 266.242C186.059 267.378 186.379 268.418 187.131 269.186C187.707 269.794 188.475 270.114 189.435 270.114C190.843 270.114 191.899 269.266 192.347 267.794ZM201.742 259.554C203.118 259.554 203.95 260.178 203.95 262.034C203.95 265.138 201.246 267.41 199.646 268.786C199.534 268.866 198.734 269.49 198.35 269.826L198.414 269.97H204.942L205.582 267.378H205.214C205.086 267.698 204.814 268.178 204.574 268.498C204.334 268.818 204.078 268.962 203.294 268.962H200.094V268.898C200.238 268.722 200.878 268.146 201.214 267.842C202.142 266.994 205.15 264.738 205.15 262.098C205.15 260.21 203.902 259.122 201.934 259.122C199.902 259.122 198.83 260.354 198.83 261.394C198.83 261.906 199.134 262.178 199.486 262.178C199.95 262.178 200.19 261.906 200.19 261.426C200.19 261.25 200.126 260.898 200.142 260.722C200.174 260.434 200.238 260.226 200.526 259.986C200.766 259.778 201.166 259.554 201.742 259.554Z" fill="black"/>
<circle cx="276" cy="276" r="275" stroke="black"/>
<path d="M46.2934 283.924C46.2934 286.528 47.6234 288.81 49.8494 288.81C52.1034 288.81 53.4054 286.486 53.4054 283.924C53.4054 281.278 52.0754 279.122 49.8494 279.122C47.6234 279.122 46.2934 281.348 46.2934 283.924ZM52.3694 283.924C52.3694 286.976 51.3474 288.418 49.8494 288.418C48.3514 288.418 47.3434 286.948 47.3434 283.924C47.3434 280.872 48.3374 279.514 49.8494 279.514C51.3754 279.514 52.3694 280.872 52.3694 283.924ZM59.1346 281.46C59.1346 280.2 58.3926 279.136 57.2866 279.136C56.1666 279.136 55.4526 280.228 55.4526 281.488C55.4526 282.762 56.1946 283.84 57.2866 283.84C58.4206 283.84 59.1346 282.734 59.1346 281.46ZM62.1586 279.402L61.8226 279.206L57.0066 288.656L57.3426 288.838L62.1586 279.402ZM57.2866 279.43C58.0146 279.43 58.3786 280.144 58.3786 281.46C58.3786 282.79 58.0286 283.56 57.2866 283.56C56.5306 283.56 56.1946 282.804 56.1946 281.488C56.1946 280.158 56.5446 279.43 57.2866 279.43ZM60.0866 286.444C60.0866 287.704 60.8146 288.796 61.9206 288.796C63.0546 288.796 63.7546 287.69 63.7546 286.416C63.7546 285.156 63.0266 284.092 61.9206 284.092C60.7866 284.092 60.0866 285.184 60.0866 286.444ZM61.9206 288.502C61.1646 288.502 60.8286 287.788 60.8286 286.444C60.8286 285.1 61.1786 284.386 61.9206 284.386C62.6346 284.386 62.9986 285.114 62.9986 286.416C62.9986 287.732 62.6626 288.502 61.9206 288.502Z" fill="#525252"/>
<path d="M169.68 288.614V288.348C169.442 288.32 169.204 288.264 169.064 288.18C168.882 288.068 168.826 287.998 168.756 287.774C168.7 287.592 168.686 287.242 168.686 286.878V280.62C168.686 280.242 168.714 279.514 168.714 279.304C168.714 279.22 168.686 279.192 168.616 279.192C168.476 279.192 168.238 279.248 167.972 279.304C167.524 279.374 167.034 279.444 166.656 279.458V279.724C166.88 279.766 167.258 279.822 167.426 279.906C167.566 279.976 167.65 280.046 167.692 280.312C167.734 280.55 167.748 280.9 167.748 281.124V286.878C167.748 287.242 167.72 287.578 167.664 287.774C167.594 288.012 167.482 288.096 167.328 288.194C167.216 288.264 166.964 288.306 166.74 288.348V288.614H169.68ZM174.458 279.5C175.662 279.5 176.39 280.046 176.39 281.67C176.39 284.386 174.024 286.374 172.624 287.578C172.526 287.648 171.826 288.194 171.49 288.488L171.546 288.614H177.258L177.818 286.346H177.496C177.384 286.626 177.146 287.046 176.936 287.326C176.726 287.606 176.502 287.732 175.816 287.732H173.016V287.676C173.142 287.522 173.702 287.018 173.996 286.752C174.808 286.01 177.44 284.036 177.44 281.726C177.44 280.074 176.348 279.122 174.626 279.122C172.848 279.122 171.91 280.2 171.91 281.11C171.91 281.558 172.176 281.796 172.484 281.796C172.89 281.796 173.1 281.558 173.1 281.138C173.1 280.984 173.044 280.676 173.058 280.522C173.086 280.27 173.142 280.088 173.394 279.878C173.604 279.696 173.954 279.5 174.458 279.5ZM183.3 281.46C183.3 280.2 182.558 279.136 181.452 279.136C180.332 279.136 179.618 280.228 179.618 281.488C179.618 282.762 180.36 283.84 181.452 283.84C182.586 283.84 183.3 282.734 183.3 281.46ZM186.324 279.402L185.988 279.206L181.172 288.656L181.508 288.838L186.324 279.402ZM181.452 279.43C182.18 279.43 182.544 280.144 182.544 281.46C182.544 282.79 182.194 283.56 181.452 283.56C180.696 283.56 180.36 282.804 180.36 281.488C180.36 280.158 180.71 279.43 181.452 279.43ZM184.252 286.444C184.252 287.704 184.98 288.796 186.086 288.796C187.22 288.796 187.92 287.69 187.92 286.416C187.92 285.156 187.192 284.092 186.086 284.092C184.952 284.092 184.252 285.184 184.252 286.444ZM186.086 288.502C185.33 288.502 184.994 287.788 184.994 286.444C184.994 285.1 185.344 284.386 186.086 284.386C186.8 284.386 187.164 285.114 187.164 286.416C187.164 287.732 186.828 288.502 186.086 288.502Z" fill="#525252"/>
<path d="M367.709 267.123C367.709 265.251 366.461 264.627 364.637 263.763C363.405 263.187 362.173 262.723 362.173 261.155C362.173 259.955 363.133 259.427 364.061 259.427C364.813 259.427 365.229 259.619 365.565 259.843C366.125 260.243 366.621 261.123 366.893 261.971H367.213L366.925 259.171H366.605L366.381 259.763H366.301C365.805 259.299 365.165 258.995 364.093 258.995C362.301 258.995 361.181 260.179 361.181 261.603C361.181 263.379 362.509 264.131 363.949 264.803C365.645 265.571 366.717 266.003 366.717 267.699C366.717 268.835 365.965 269.763 364.365 269.763C362.845 269.763 361.741 268.259 361.229 266.483H360.925L361.085 269.843H361.309L361.677 269.171H361.773C362.317 269.699 363.245 270.195 364.381 270.195C366.077 270.195 367.709 269.075 367.709 267.123ZM373.221 262.739C374.021 262.739 374.325 262.947 374.549 263.779C374.693 264.211 374.853 264.515 375.269 264.515C375.605 264.515 375.813 264.323 375.813 263.923C375.813 263.715 375.749 263.427 375.525 263.171C375.157 262.755 374.565 262.339 373.237 262.339C371.365 262.339 369.861 264.019 369.861 266.211C369.861 267.731 370.389 268.739 371.125 269.347C371.653 269.827 372.293 270.115 373.173 270.115C374.613 270.115 375.605 269.219 376.005 267.875L375.621 267.747C375.365 268.531 374.789 269.587 373.237 269.587C372.757 269.587 372.261 269.379 371.941 269.075C371.365 268.499 370.981 267.555 370.981 266.131C370.981 264.675 371.397 263.651 372.005 263.155C372.325 262.899 372.773 262.739 373.221 262.739ZM377.783 266.227C377.783 268.659 379.479 270.115 381.271 270.115C383.063 270.115 384.759 268.643 384.759 266.211C384.759 263.795 383.063 262.339 381.271 262.339C379.463 262.339 377.783 263.795 377.783 266.227ZM378.919 266.227C378.919 264.803 379.271 263.827 379.911 263.251C380.295 262.899 380.807 262.739 381.271 262.739C381.719 262.739 382.231 262.883 382.615 263.251C383.255 263.843 383.607 264.819 383.607 266.227C383.607 267.619 383.239 268.611 382.615 269.203C382.231 269.571 381.735 269.715 381.271 269.715C380.791 269.715 380.295 269.571 379.895 269.187C379.271 268.611 378.919 267.619 378.919 266.227ZM393.022 266.211C393.022 268.595 392.126 269.747 390.766 269.747C390.142 269.747 389.646 269.539 389.294 269.139C388.926 268.755 388.718 268.179 388.718 267.155V265.251C388.718 264.547 389.038 263.875 389.406 263.491C389.806 263.059 390.302 262.787 390.958 262.787C392.078 262.787 393.022 263.619 393.022 266.211ZM387.71 271.267C387.71 271.587 387.726 271.939 387.662 272.195C387.566 272.563 387.39 272.707 387.166 272.819C387.038 272.883 386.83 272.915 386.654 272.931V273.219H389.822V272.931C389.598 272.915 389.39 272.883 389.246 272.819C389.022 272.723 388.846 272.515 388.782 272.195C388.734 271.939 388.718 271.587 388.718 271.267V269.347H388.814C389.342 269.907 390.078 270.131 390.75 270.131C392.462 270.131 394.142 268.883 394.142 266.243C394.142 263.379 392.638 262.339 391.086 262.339C390.046 262.339 389.278 262.899 388.75 263.811H388.67L388.686 262.643C388.686 262.563 388.638 262.531 388.574 262.531H386.59V262.819C386.862 262.851 387.15 262.931 387.374 263.091C387.518 263.203 387.614 263.347 387.662 263.539C387.71 263.731 387.71 264.179 387.71 264.435V271.267ZM398.427 263.203C398.795 262.899 399.227 262.755 399.675 262.755C400.219 262.755 400.587 262.899 400.891 263.155C401.227 263.443 401.403 263.843 401.403 264.563C401.403 265.267 401.259 265.411 400.763 265.411H397.499C397.643 264.323 398.011 263.555 398.427 263.203ZM402.587 267.795L402.235 267.667C401.899 268.691 401.259 269.555 399.883 269.555C399.227 269.555 398.667 269.347 398.251 268.915C397.707 268.323 397.451 267.251 397.451 266.275C397.451 266.115 397.451 265.971 397.467 265.827H402.491C402.523 265.619 402.539 265.283 402.539 265.011C402.539 263.859 401.723 262.339 399.659 262.339C397.819 262.339 396.299 264.035 396.299 266.243C396.299 267.379 396.619 268.419 397.371 269.187C397.947 269.795 398.715 270.115 399.675 270.115C401.083 270.115 402.139 269.267 402.587 267.795ZM412.062 259.123C410.158 259.123 409.23 260.163 409.23 261.043C409.23 261.523 409.502 261.827 409.854 261.827C410.238 261.827 410.494 261.603 410.494 261.091C410.494 260.979 410.462 260.771 410.43 260.659C410.398 260.563 410.35 260.451 410.35 260.323C410.35 259.843 410.942 259.539 411.886 259.539C413.118 259.539 413.614 260.099 413.614 261.187C413.614 262.595 412.862 263.395 411.454 264.211L410.35 264.835L410.542 265.187L411.182 264.819C411.454 264.659 411.838 264.531 412.254 264.531C413.79 264.531 414.35 265.139 414.35 266.515C414.35 268.675 413.23 269.779 411.406 269.779C410.798 269.779 410.478 269.683 410.158 269.395C409.998 269.251 409.886 269.059 409.822 268.787C409.758 268.595 409.742 268.339 409.742 268.163C409.742 267.699 409.566 267.411 409.182 267.411C408.846 267.411 408.574 267.651 408.574 268.147C408.574 269.043 409.678 270.195 411.358 270.195C414.398 270.195 415.566 268.243 415.566 266.563C415.566 265.315 414.686 263.859 412.174 264.211V264.163C413.326 263.411 414.75 262.595 414.75 261.123C414.75 259.939 413.822 259.123 412.062 259.123Z" fill="black"/>
<path d="M381.656 279.556V279.318H377.204C376.63 279.318 376.42 279.066 376.336 278.842H376.084L375.664 281.25H375.944C376.126 280.83 376.294 280.55 376.546 280.368C376.868 280.172 377.12 280.13 377.764 280.13H380.83V280.172C379.962 281.614 378.94 283.42 378.254 284.834C377.82 285.772 377.05 287.2 377.05 288.194C377.05 288.558 377.162 288.81 377.512 288.81C377.904 288.81 378.03 288.516 378.156 287.676C378.702 284.19 379.57 283.028 381.656 279.556ZM386.082 288.81C388.168 288.81 389.19 287.522 389.19 286.164C389.19 284.722 388.028 284.078 386.992 283.658C387.93 283.238 388.854 282.496 388.854 281.264C388.854 279.752 387.664 279.122 386.082 279.122C384.472 279.122 383.338 280.074 383.338 281.558C383.338 282.804 384.248 283.546 385.13 283.952C383.982 284.4 383.016 285.254 383.016 286.5C383.016 288.026 384.416 288.81 386.082 288.81ZM384.262 281.25C384.262 280.2 384.92 279.528 386.11 279.514C387.286 279.5 388.014 280.06 388.014 281.348C388.014 282.454 387.454 283.126 386.586 283.504C385.102 282.93 384.262 282.412 384.262 281.25ZM386.054 288.418C384.808 288.418 383.87 287.732 383.87 286.458C383.87 285.226 384.57 284.484 385.55 284.134C387.3 284.848 388.266 285.212 388.266 286.612C388.266 287.942 387.272 288.418 386.054 288.418ZM394.898 281.46C394.898 280.2 394.156 279.136 393.05 279.136C391.93 279.136 391.216 280.228 391.216 281.488C391.216 282.762 391.958 283.84 393.05 283.84C394.184 283.84 394.898 282.734 394.898 281.46ZM397.922 279.402L397.586 279.206L392.77 288.656L393.106 288.838L397.922 279.402ZM393.05 279.43C393.778 279.43 394.142 280.144 394.142 281.46C394.142 282.79 393.792 283.56 393.05 283.56C392.294 283.56 391.958 282.804 391.958 281.488C391.958 280.158 392.308 279.43 393.05 279.43ZM395.85 286.444C395.85 287.704 396.578 288.796 397.684 288.796C398.818 288.796 399.518 287.69 399.518 286.416C399.518 285.156 398.79 284.092 397.684 284.092C396.55 284.092 395.85 285.184 395.85 286.444ZM397.684 288.502C396.928 288.502 396.592 287.788 396.592 286.444C396.592 285.1 396.942 284.386 397.684 284.386C398.398 284.386 398.762 285.114 398.762 286.416C398.762 287.732 398.426 288.502 397.684 288.502Z" fill="#525252"/>
</svg>
