<svg width="554" height="243" viewBox="0 0 554 243" fill="none" xmlns="http://www.w3.org/2000/svg">
<circle cx="103.079" cy="137.265" r="74.3914" stroke="black" stroke-width="1.16514" stroke-dasharray="4.66 4.66"/>
<path d="M83.754 139.041C83.754 137.132 82.4817 136.496 80.6221 135.615C79.3661 135.028 78.1101 134.555 78.1101 132.956C78.1101 131.733 79.0888 131.195 80.0349 131.195C80.8015 131.195 81.2257 131.39 81.5682 131.619C82.1391 132.026 82.6448 132.924 82.9221 133.788H83.2483L82.9547 130.934H82.6285L82.4001 131.537H82.3186C81.8129 131.064 81.1604 130.754 80.0675 130.754C78.2406 130.754 77.0987 131.961 77.0987 133.413C77.0987 135.224 78.4526 135.99 79.9207 136.675C81.6498 137.458 82.7427 137.899 82.7427 139.628C82.7427 140.786 81.976 141.732 80.3448 141.732C78.7952 141.732 77.6697 140.199 77.1477 138.388H76.8377L77.0009 141.814H77.2292L77.6044 141.128H77.7023C78.2569 141.667 79.203 142.172 80.3611 142.172C82.0902 142.172 83.754 141.031 83.754 139.041ZM89.5195 134.571C90.3351 134.571 90.645 134.783 90.8734 135.631C91.0202 136.072 91.1833 136.382 91.6074 136.382C91.95 136.382 92.162 136.186 92.162 135.778C92.162 135.566 92.0968 135.273 91.8684 135.012C91.4932 134.587 90.8897 134.163 89.5358 134.163C87.6273 134.163 86.094 135.876 86.094 138.111C86.094 139.66 86.6323 140.688 87.3826 141.308C87.9209 141.797 88.5734 142.091 89.4706 142.091C90.9386 142.091 91.95 141.177 92.3578 139.807L91.9663 139.677C91.7053 140.476 91.1181 141.553 89.5358 141.553C89.0464 141.553 88.5408 141.341 88.2145 141.031C87.6273 140.443 87.2358 139.481 87.2358 138.029C87.2358 136.545 87.6599 135.501 88.2798 134.995C88.606 134.734 89.0628 134.571 89.5195 134.571ZM94.3163 138.127C94.3163 140.607 96.0454 142.091 97.8723 142.091C99.6993 142.091 101.428 140.59 101.428 138.111C101.428 135.648 99.6993 134.163 97.8723 134.163C96.0291 134.163 94.3163 135.648 94.3163 138.127ZM95.4745 138.127C95.4745 136.675 95.8333 135.68 96.4858 135.093C96.8773 134.734 97.3993 134.571 97.8723 134.571C98.3291 134.571 98.851 134.718 99.2425 135.093C99.895 135.697 100.254 136.692 100.254 138.127C100.254 139.546 99.8787 140.558 99.2425 141.161C98.851 141.536 98.3454 141.683 97.8723 141.683C97.383 141.683 96.8773 141.536 96.4695 141.145C95.8333 140.558 95.4745 139.546 95.4745 138.127ZM109.998 138.111C109.998 140.541 109.084 141.716 107.698 141.716C107.061 141.716 106.556 141.504 106.197 141.096C105.822 140.704 105.61 140.117 105.61 139.073V137.132C105.61 136.414 105.936 135.729 106.311 135.338C106.719 134.897 107.225 134.62 107.893 134.62C109.035 134.62 109.998 135.468 109.998 138.111ZM104.582 143.265C104.582 143.592 104.598 143.95 104.533 144.211C104.435 144.587 104.256 144.733 104.027 144.848C103.897 144.913 103.685 144.945 103.505 144.962V145.255H106.735V144.962C106.507 144.945 106.295 144.913 106.148 144.848C105.92 144.75 105.74 144.538 105.675 144.211C105.626 143.95 105.61 143.592 105.61 143.265V141.308H105.708C106.246 141.879 106.996 142.107 107.681 142.107C109.427 142.107 111.139 140.835 111.139 138.143C111.139 135.224 109.606 134.163 108.024 134.163C106.964 134.163 106.181 134.734 105.642 135.664H105.561L105.577 134.473C105.577 134.392 105.528 134.359 105.463 134.359H103.44V134.653C103.717 134.685 104.011 134.767 104.239 134.93C104.386 135.044 104.484 135.191 104.533 135.387C104.582 135.582 104.582 136.039 104.582 136.3V143.265ZM115.654 135.044C116.029 134.734 116.469 134.587 116.926 134.587C117.481 134.587 117.856 134.734 118.166 134.995C118.508 135.289 118.688 135.697 118.688 136.431C118.688 137.148 118.541 137.295 118.035 137.295H114.708C114.854 136.186 115.23 135.403 115.654 135.044ZM119.895 139.726L119.536 139.595C119.193 140.639 118.541 141.52 117.138 141.52C116.469 141.52 115.898 141.308 115.474 140.868C114.92 140.264 114.659 139.171 114.659 138.176C114.659 138.013 114.659 137.866 114.675 137.719H119.797C119.83 137.507 119.846 137.165 119.846 136.887C119.846 135.713 119.014 134.163 116.91 134.163C115.034 134.163 113.484 135.892 113.484 138.143C113.484 139.302 113.81 140.362 114.577 141.145C115.164 141.765 115.947 142.091 116.926 142.091C118.361 142.091 119.438 141.226 119.895 139.726ZM130.221 141.944V141.634C129.944 141.602 129.667 141.536 129.504 141.438C129.291 141.308 129.226 141.226 129.145 140.965C129.079 140.753 129.063 140.346 129.063 139.921V132.63C129.063 132.19 129.096 131.341 129.096 131.097C129.096 130.999 129.063 130.966 128.982 130.966C128.818 130.966 128.541 131.031 128.231 131.097C127.709 131.178 127.138 131.26 126.698 131.276V131.586C126.959 131.635 127.399 131.7 127.595 131.798C127.758 131.88 127.856 131.961 127.905 132.271C127.954 132.548 127.97 132.956 127.97 133.217V139.921C127.97 140.346 127.938 140.737 127.872 140.965C127.791 141.243 127.66 141.341 127.481 141.455C127.35 141.536 127.057 141.585 126.796 141.634V141.944H130.221Z" fill="black"/>
<circle cx="280.18" cy="137.265" r="73.8088" stroke="black" stroke-width="1.16514"/>
<path d="M259.19 141.466C259.19 139.558 257.918 138.921 256.058 138.041C254.802 137.453 253.546 136.98 253.546 135.382C253.546 134.158 254.525 133.62 255.471 133.62C256.237 133.62 256.662 133.816 257.004 134.044C257.575 134.452 258.081 135.349 258.358 136.214H258.684L258.391 133.359H258.064L257.836 133.963H257.754C257.249 133.49 256.596 133.18 255.503 133.18C253.676 133.18 252.535 134.387 252.535 135.838C252.535 137.649 253.889 138.416 255.357 139.101C257.086 139.884 258.179 140.324 258.179 142.053C258.179 143.211 257.412 144.158 255.781 144.158C254.231 144.158 253.106 142.624 252.584 140.814H252.274L252.437 144.239H252.665L253.04 143.554H253.138C253.693 144.092 254.639 144.598 255.797 144.598C257.526 144.598 259.19 143.456 259.19 141.466ZM264.955 136.997C265.771 136.997 266.081 137.209 266.309 138.057C266.456 138.497 266.619 138.807 267.043 138.807C267.386 138.807 267.598 138.612 267.598 138.204C267.598 137.992 267.533 137.698 267.304 137.437C266.929 137.013 266.326 136.589 264.972 136.589C263.063 136.589 261.53 138.302 261.53 140.536C261.53 142.086 262.068 143.114 262.819 143.733C263.357 144.223 264.009 144.516 264.906 144.516C266.375 144.516 267.386 143.603 267.794 142.233L267.402 142.102C267.141 142.902 266.554 143.978 264.972 143.978C264.482 143.978 263.977 143.766 263.65 143.456C263.063 142.869 262.672 141.907 262.672 140.455C262.672 138.97 263.096 137.926 263.716 137.421C264.042 137.16 264.499 136.997 264.955 136.997ZM269.752 140.553C269.752 143.032 271.481 144.516 273.308 144.516C275.135 144.516 276.864 143.016 276.864 140.536C276.864 138.073 275.135 136.589 273.308 136.589C271.465 136.589 269.752 138.073 269.752 140.553ZM270.91 140.553C270.91 139.101 271.269 138.106 271.922 137.519C272.313 137.16 272.835 136.997 273.308 136.997C273.765 136.997 274.287 137.143 274.678 137.519C275.331 138.122 275.69 139.117 275.69 140.553C275.69 141.972 275.315 142.983 274.678 143.587C274.287 143.962 273.781 144.109 273.308 144.109C272.819 144.109 272.313 143.962 271.905 143.57C271.269 142.983 270.91 141.972 270.91 140.553ZM285.433 140.536C285.433 142.967 284.52 144.141 283.133 144.141C282.497 144.141 281.992 143.929 281.633 143.521C281.258 143.13 281.046 142.543 281.046 141.499V139.558C281.046 138.84 281.372 138.155 281.747 137.763C282.155 137.323 282.66 137.046 283.329 137.046C284.471 137.046 285.433 137.894 285.433 140.536ZM280.018 145.691C280.018 146.017 280.034 146.376 279.969 146.637C279.871 147.012 279.692 147.159 279.463 147.273C279.333 147.338 279.121 147.371 278.941 147.387V147.681H282.171V147.387C281.943 147.371 281.731 147.338 281.584 147.273C281.355 147.175 281.176 146.963 281.111 146.637C281.062 146.376 281.046 146.017 281.046 145.691V143.733H281.143C281.682 144.304 282.432 144.533 283.117 144.533C284.863 144.533 286.575 143.26 286.575 140.569C286.575 137.649 285.042 136.589 283.46 136.589C282.399 136.589 281.616 137.16 281.078 138.09H280.997L281.013 136.899C281.013 136.817 280.964 136.785 280.899 136.785H278.876V137.078C279.153 137.111 279.447 137.192 279.675 137.355C279.822 137.47 279.92 137.616 279.969 137.812C280.018 138.008 280.018 138.465 280.018 138.726V145.691ZM291.09 137.47C291.465 137.16 291.905 137.013 292.362 137.013C292.917 137.013 293.292 137.16 293.602 137.421C293.944 137.714 294.124 138.122 294.124 138.856C294.124 139.574 293.977 139.721 293.471 139.721H290.143C290.29 138.612 290.665 137.829 291.09 137.47ZM295.331 142.151L294.972 142.021C294.629 143.065 293.977 143.946 292.574 143.946C291.905 143.946 291.334 143.733 290.91 143.293C290.356 142.689 290.095 141.597 290.095 140.602C290.095 140.438 290.095 140.292 290.111 140.145H295.233C295.265 139.933 295.282 139.59 295.282 139.313C295.282 138.138 294.45 136.589 292.346 136.589C290.47 136.589 288.92 138.318 288.92 140.569C288.92 141.727 289.246 142.787 290.013 143.57C290.6 144.19 291.383 144.516 292.362 144.516C293.797 144.516 294.874 143.652 295.331 142.151ZM305.2 133.751C306.603 133.751 307.451 134.387 307.451 136.279C307.451 139.443 304.695 141.76 303.064 143.163C302.949 143.244 302.134 143.88 301.742 144.223L301.808 144.37H308.463L309.115 141.727H308.74C308.61 142.053 308.332 142.543 308.088 142.869C307.843 143.195 307.582 143.342 306.783 143.342H303.52V143.277C303.667 143.097 304.32 142.51 304.662 142.2C305.608 141.336 308.675 139.036 308.675 136.344C308.675 134.419 307.403 133.31 305.396 133.31C303.325 133.31 302.232 134.566 302.232 135.626C302.232 136.148 302.542 136.426 302.9 136.426C303.373 136.426 303.618 136.148 303.618 135.659C303.618 135.48 303.553 135.121 303.569 134.941C303.602 134.648 303.667 134.436 303.961 134.191C304.205 133.979 304.613 133.751 305.2 133.751Z" fill="black"/>
<circle cx="450.29" cy="137.265" r="73.8088" stroke="black" stroke-width="1.16514"/>
<path d="M428.206 139.041C428.206 137.132 426.934 136.496 425.074 135.615C423.818 135.028 422.562 134.555 422.562 132.956C422.562 131.733 423.541 131.195 424.487 131.195C425.254 131.195 425.678 131.39 426.021 131.619C426.591 132.026 427.097 132.924 427.374 133.788H427.701L427.407 130.934H427.081L426.852 131.537H426.771C426.265 131.064 425.613 130.754 424.52 130.754C422.693 130.754 421.551 131.961 421.551 133.413C421.551 135.224 422.905 135.99 424.373 136.675C426.102 137.458 427.195 137.899 427.195 139.628C427.195 140.786 426.428 141.732 424.797 141.732C423.248 141.732 422.122 140.199 421.6 138.388H421.29L421.453 141.814H421.682L422.057 141.128H422.155C422.709 141.667 423.655 142.172 424.813 142.172C426.543 142.172 428.206 141.031 428.206 139.041ZM433.972 134.571C434.787 134.571 435.097 134.783 435.326 135.631C435.473 136.072 435.636 136.382 436.06 136.382C436.402 136.382 436.614 136.186 436.614 135.778C436.614 135.566 436.549 135.273 436.321 135.012C435.946 134.587 435.342 134.163 433.988 134.163C432.08 134.163 430.546 135.876 430.546 138.111C430.546 139.66 431.085 140.688 431.835 141.308C432.373 141.797 433.026 142.091 433.923 142.091C435.391 142.091 436.402 141.177 436.81 139.807L436.419 139.677C436.158 140.476 435.57 141.553 433.988 141.553C433.499 141.553 432.993 141.341 432.667 141.031C432.08 140.443 431.688 139.481 431.688 138.029C431.688 136.545 432.112 135.501 432.732 134.995C433.058 134.734 433.515 134.571 433.972 134.571ZM438.769 138.127C438.769 140.607 440.498 142.091 442.325 142.091C444.152 142.091 445.881 140.59 445.881 138.111C445.881 135.648 444.152 134.163 442.325 134.163C440.481 134.163 438.769 135.648 438.769 138.127ZM439.927 138.127C439.927 136.675 440.286 135.68 440.938 135.093C441.33 134.734 441.852 134.571 442.325 134.571C442.781 134.571 443.303 134.718 443.695 135.093C444.347 135.697 444.706 136.692 444.706 138.127C444.706 139.546 444.331 140.558 443.695 141.161C443.303 141.536 442.798 141.683 442.325 141.683C441.835 141.683 441.33 141.536 440.922 141.145C440.286 140.558 439.927 139.546 439.927 138.127ZM454.45 138.111C454.45 140.541 453.536 141.716 452.15 141.716C451.514 141.716 451.008 141.504 450.649 141.096C450.274 140.704 450.062 140.117 450.062 139.073V137.132C450.062 136.414 450.388 135.729 450.763 135.338C451.171 134.897 451.677 134.62 452.346 134.62C453.487 134.62 454.45 135.468 454.45 138.111ZM449.034 143.265C449.034 143.592 449.051 143.95 448.985 144.211C448.888 144.587 448.708 144.733 448.48 144.848C448.349 144.913 448.137 144.945 447.958 144.962V145.255H451.187V144.962C450.959 144.945 450.747 144.913 450.6 144.848C450.372 144.75 450.192 144.538 450.127 144.211C450.078 143.95 450.062 143.592 450.062 143.265V141.308H450.16C450.698 141.879 451.448 142.107 452.134 142.107C453.879 142.107 455.592 140.835 455.592 138.143C455.592 135.224 454.058 134.163 452.476 134.163C451.416 134.163 450.633 134.734 450.095 135.664H450.013L450.029 134.473C450.029 134.392 449.98 134.359 449.915 134.359H447.892V134.653C448.17 134.685 448.463 134.767 448.692 134.93C448.839 135.044 448.936 135.191 448.985 135.387C449.034 135.582 449.034 136.039 449.034 136.3V143.265ZM460.106 135.044C460.481 134.734 460.922 134.587 461.378 134.587C461.933 134.587 462.308 134.734 462.618 134.995C462.961 135.289 463.14 135.697 463.14 136.431C463.14 137.148 462.993 137.295 462.488 137.295H459.16C459.307 136.186 459.682 135.403 460.106 135.044ZM464.347 139.726L463.988 139.595C463.646 140.639 462.993 141.52 461.59 141.52C460.922 141.52 460.351 141.308 459.927 140.868C459.372 140.264 459.111 139.171 459.111 138.176C459.111 138.013 459.111 137.866 459.127 137.719H464.249C464.282 137.507 464.298 137.165 464.298 136.887C464.298 135.713 463.466 134.163 461.362 134.163C459.486 134.163 457.937 135.892 457.937 138.143C457.937 139.302 458.263 140.362 459.029 141.145C459.617 141.765 460.4 142.091 461.378 142.091C462.814 142.091 463.89 141.226 464.347 139.726ZM474.298 130.885C472.357 130.885 471.411 131.945 471.411 132.842C471.411 133.331 471.688 133.641 472.047 133.641C472.439 133.641 472.7 133.413 472.7 132.891C472.7 132.777 472.667 132.565 472.635 132.451C472.602 132.353 472.553 132.238 472.553 132.108C472.553 131.619 473.157 131.309 474.119 131.309C475.375 131.309 475.881 131.88 475.881 132.989C475.881 134.424 475.114 135.24 473.679 136.072L472.553 136.708L472.749 137.067L473.401 136.692C473.679 136.529 474.07 136.398 474.494 136.398C476.06 136.398 476.631 137.018 476.631 138.421C476.631 140.623 475.489 141.748 473.63 141.748C473.01 141.748 472.684 141.65 472.357 141.357C472.194 141.21 472.08 141.014 472.015 140.737C471.949 140.541 471.933 140.28 471.933 140.101C471.933 139.628 471.754 139.334 471.362 139.334C471.02 139.334 470.742 139.579 470.742 140.085C470.742 140.998 471.868 142.172 473.581 142.172C476.68 142.172 477.871 140.182 477.871 138.47C477.871 137.197 476.974 135.713 474.413 136.072V136.023C475.587 135.256 477.039 134.424 477.039 132.924C477.039 131.717 476.093 130.885 474.298 130.885Z" fill="black"/>
<rect x="1" y="39" width="552.275" height="195.682" rx="97.8409" stroke="black" stroke-width="1.16514"/>
<path d="M247.432 230.535H247.53L249.096 235.119H245.801L247.432 230.535ZM245.964 239.197C245.736 239.18 245.442 239.131 245.295 239.066C245.034 238.968 244.822 238.74 244.822 238.332C244.822 238.055 244.855 237.827 245.051 237.256L245.654 235.559H249.243L249.748 237.044C249.928 237.582 250.075 237.941 250.075 238.397C250.075 238.789 249.814 238.985 249.585 239.066C249.406 239.131 249.259 239.164 248.982 239.197V239.523H252.782V239.197C252.603 239.164 252.472 239.131 252.26 239.034C252.016 238.919 251.787 238.74 251.575 238.365C251.445 238.136 251.2 237.647 250.923 236.815L248.068 228.463H247.677L244.529 237.19C244.3 237.843 244.137 238.218 244.023 238.463C243.876 238.74 243.729 238.903 243.566 239.001C243.354 239.131 243.191 239.164 242.914 239.197V239.523H245.964V239.197ZM256.641 229.54C256.641 228.937 256.674 228.349 256.674 228.023C256.674 227.941 256.641 227.909 256.559 227.909H254.537V228.219C254.863 228.235 255.075 228.268 255.254 228.398C255.401 228.512 255.483 228.627 255.548 228.839C255.613 229.034 255.613 229.638 255.613 229.883V237.631C255.613 237.941 255.613 238.234 255.548 238.479C255.466 238.789 255.303 238.968 255.042 239.083C254.912 239.148 254.716 239.197 254.553 239.213V239.523H257.669V239.213C257.505 239.197 257.326 239.148 257.179 239.083C256.935 238.952 256.771 238.789 256.69 238.43C256.641 238.185 256.641 237.908 256.641 237.631V229.54ZM261.836 229.54C261.836 228.937 261.869 228.349 261.869 228.023C261.869 227.941 261.836 227.909 261.755 227.909H259.732V228.219C260.058 228.235 260.27 228.268 260.45 228.398C260.597 228.512 260.678 228.627 260.743 228.839C260.809 229.034 260.809 229.638 260.809 229.883V237.631C260.809 237.941 260.809 238.234 260.743 238.479C260.662 238.789 260.499 238.968 260.238 239.083C260.107 239.148 259.911 239.197 259.748 239.213V239.523H262.864V239.213C262.701 239.197 262.521 239.148 262.375 239.083C262.13 238.952 261.967 238.789 261.885 238.43C261.836 238.185 261.836 237.908 261.836 237.631V229.54ZM277.857 236.864H277.563C277.335 237.353 277.156 237.875 276.487 238.463C276.144 238.773 275.606 239.115 274.464 239.115H273.551C273.159 239.115 272.702 239.05 272.474 238.887C272.001 238.544 272.001 237.729 272.001 237.027V234.042H273.273C273.975 234.042 274.334 234.156 274.595 234.401C274.953 234.711 275.068 235.314 275.1 235.755H275.41V231.922H275.1C275.068 232.346 274.97 232.933 274.595 233.259C274.334 233.52 273.991 233.618 273.273 233.618H272.001V230.715C272.001 230.209 272.05 229.507 272.441 229.165C272.621 229.002 272.947 228.969 273.175 228.969H274.399C275.182 228.969 275.753 229.263 275.948 229.426C276.487 229.834 276.748 230.356 277.058 231.057H277.384L276.943 228.545H269.424V228.855C269.619 228.871 269.783 228.888 269.929 228.937C270.239 229.051 270.451 229.197 270.614 229.507C270.794 229.98 270.843 230.666 270.843 231.726V236.342C270.843 237.402 270.81 238.12 270.598 238.577C270.451 238.854 270.239 238.985 269.913 239.099C269.783 239.148 269.619 239.18 269.424 239.197V239.523H277.4L277.857 236.864ZM283.344 239.213C283.051 239.197 282.855 239.115 282.676 239.001C282.464 238.87 282.349 238.707 282.284 238.463C282.219 238.202 282.203 237.761 282.203 237.402V235.331C282.203 234.646 282.284 234.107 282.545 233.634C282.888 232.868 283.475 232.395 284.323 232.395C284.861 232.395 285.171 232.541 285.4 232.884C285.612 233.178 285.693 233.585 285.693 234.107V237.402C285.693 237.761 285.677 238.218 285.596 238.495C285.53 238.756 285.4 238.919 285.171 239.05C285.025 239.131 284.813 239.197 284.568 239.213V239.523H287.83V239.229C287.602 239.197 287.39 239.131 287.259 239.066C286.998 238.919 286.9 238.74 286.803 238.446C286.721 238.185 286.721 237.794 286.721 237.451V235.363C286.721 234.646 286.803 234.091 287.015 233.667C287.39 232.835 288.026 232.395 288.842 232.395C289.315 232.395 289.608 232.525 289.837 232.802C290.081 233.112 290.163 233.536 290.163 234.091V237.402C290.163 237.761 290.163 238.169 290.098 238.463C290.032 238.724 289.918 238.903 289.657 239.034C289.51 239.115 289.298 239.18 289.054 239.213V239.523H292.3V239.229C292.137 239.213 291.925 239.164 291.794 239.099C291.484 238.952 291.37 238.773 291.272 238.43C291.207 238.185 291.207 237.827 291.207 237.484V233.781C291.207 232.949 290.978 232.476 290.587 232.15C290.261 231.905 289.902 231.742 289.217 231.742C288.678 231.742 288.189 231.905 287.781 232.183C287.374 232.444 287.031 232.786 286.737 233.406H286.656C286.591 232.835 286.395 232.444 286.085 232.183C285.759 231.889 285.335 231.742 284.731 231.742C284.111 231.742 283.622 231.938 283.23 232.232C282.855 232.476 282.545 232.835 282.284 233.406H282.17C282.186 233.063 282.219 232.248 282.219 232.036C282.219 231.971 282.203 231.938 282.121 231.938H280.098V232.232C280.359 232.28 280.604 232.346 280.8 232.46C280.947 232.541 281.061 232.705 281.11 232.9C281.159 233.112 281.159 233.569 281.159 233.977V237.402C281.159 237.761 281.175 238.153 281.126 238.414C281.028 238.789 280.881 238.952 280.555 239.099C280.408 239.148 280.196 239.213 280.049 239.229V239.523H283.344V239.213ZM295.94 230.029C296.364 230.029 296.691 229.719 296.691 229.279C296.691 228.855 296.381 228.512 295.94 228.512C295.533 228.512 295.223 228.839 295.223 229.279C295.223 229.719 295.533 230.029 295.94 230.029ZM296.446 233.504C296.446 232.851 296.479 232.395 296.495 232.052C296.495 231.971 296.446 231.938 296.381 231.938H294.358V232.232C294.717 232.28 294.896 232.346 295.059 232.46C295.223 232.574 295.288 232.688 295.353 232.9C295.402 233.08 295.418 233.7 295.418 233.961V237.745C295.418 238.022 295.418 238.251 295.353 238.512C295.288 238.773 295.108 238.952 294.847 239.083C294.733 239.148 294.505 239.197 294.358 239.213V239.523H297.539V239.213C297.376 239.197 297.147 239.131 297.033 239.083C296.805 238.968 296.593 238.838 296.511 238.512C296.462 238.3 296.446 237.99 296.446 237.745V233.504ZM304.869 237.419C304.869 236.163 303.89 235.69 302.569 235.135C301.296 234.613 300.709 234.271 300.709 233.357C300.709 232.639 301.28 232.166 302.079 232.166C302.569 232.166 302.928 232.297 303.189 232.509C303.596 232.819 303.841 233.341 304.07 233.993H304.363L304.282 231.856H304.07L303.76 232.329H303.662C303.368 232.052 302.895 231.742 302.063 231.742C300.693 231.742 299.828 232.623 299.828 233.667C299.828 235.102 300.709 235.51 301.998 236.049C303.433 236.652 304.021 236.978 304.021 237.941C304.021 238.854 303.384 239.262 302.471 239.262C301.296 239.262 300.432 238.332 300.04 236.848H299.698L299.747 239.523H300.04L300.35 238.887H300.465C300.938 239.376 301.737 239.67 302.455 239.67C303.727 239.67 304.869 238.968 304.869 237.419ZM312.039 237.419C312.039 236.163 311.061 235.69 309.739 235.135C308.467 234.613 307.88 234.271 307.88 233.357C307.88 232.639 308.451 232.166 309.25 232.166C309.739 232.166 310.098 232.297 310.359 232.509C310.767 232.819 311.012 233.341 311.24 233.993H311.534L311.452 231.856H311.24L310.93 232.329H310.832C310.539 232.052 310.066 231.742 309.234 231.742C307.864 231.742 306.999 232.623 306.999 233.667C306.999 235.102 307.88 235.51 309.169 236.049C310.604 236.652 311.191 236.978 311.191 237.941C311.191 238.854 310.555 239.262 309.642 239.262C308.467 239.262 307.603 238.332 307.211 236.848H306.869L306.917 239.523H307.211L307.521 238.887H307.635C308.108 239.376 308.908 239.67 309.625 239.67C310.898 239.67 312.039 238.968 312.039 237.419ZM315.572 230.029C315.997 230.029 316.323 229.719 316.323 229.279C316.323 228.855 316.013 228.512 315.572 228.512C315.165 228.512 314.855 228.839 314.855 229.279C314.855 229.719 315.165 230.029 315.572 230.029ZM316.078 233.504C316.078 232.851 316.111 232.395 316.127 232.052C316.127 231.971 316.078 231.938 316.013 231.938H313.99V232.232C314.349 232.28 314.528 232.346 314.692 232.46C314.855 232.574 314.92 232.688 314.985 232.9C315.034 233.08 315.05 233.7 315.05 233.961V237.745C315.05 238.022 315.05 238.251 314.985 238.512C314.92 238.773 314.741 238.952 314.48 239.083C314.365 239.148 314.137 239.197 313.99 239.213V239.523H317.171V239.213C317.008 239.197 316.78 239.131 316.665 239.083C316.437 238.968 316.225 238.838 316.143 238.512C316.094 238.3 316.078 237.99 316.078 237.745V233.504ZM319.314 235.706C319.314 238.185 321.043 239.67 322.87 239.67C324.697 239.67 326.426 238.169 326.426 235.69C326.426 233.227 324.697 231.742 322.87 231.742C321.026 231.742 319.314 233.227 319.314 235.706ZM320.472 235.706C320.472 234.254 320.831 233.259 321.483 232.672C321.875 232.313 322.397 232.15 322.87 232.15C323.326 232.15 323.848 232.297 324.24 232.672C324.892 233.275 325.251 234.271 325.251 235.706C325.251 237.125 324.876 238.136 324.24 238.74C323.848 239.115 323.343 239.262 322.87 239.262C322.38 239.262 321.875 239.115 321.467 238.724C320.831 238.136 320.472 237.125 320.472 235.706ZM335.533 237.484V233.749C335.533 232.917 335.24 232.411 334.848 232.117C334.506 231.889 334.098 231.742 333.543 231.742C332.94 231.742 332.369 231.922 331.961 232.199C331.553 232.427 331.129 232.819 330.835 233.422H330.738C330.754 233.145 330.77 232.264 330.77 232.036C330.77 231.954 330.738 231.938 330.656 231.938H328.666V232.232C328.927 232.264 329.188 232.346 329.384 232.46C329.547 232.558 329.645 232.688 329.694 232.9C329.743 233.112 329.743 233.569 329.743 233.961V237.321C329.743 237.712 329.743 238.169 329.71 238.381C329.628 238.789 329.449 238.952 329.074 239.099C328.96 239.148 328.747 239.197 328.601 239.213V239.523H331.896V239.213C331.733 239.197 331.569 239.148 331.423 239.099C331.064 238.952 330.917 238.756 330.852 238.463C330.786 238.202 330.786 237.761 330.786 237.402V235.266C330.786 234.58 330.868 234.107 331.113 233.602C331.472 232.819 332.255 232.411 333.07 232.411C333.543 232.411 333.869 232.541 334.098 232.786C334.359 233.063 334.489 233.439 334.489 234.107V237.402C334.489 237.761 334.489 238.185 334.408 238.479C334.31 238.805 334.212 238.968 333.886 239.099C333.755 239.148 333.543 239.197 333.38 239.213V239.523H336.61V239.213C336.463 239.197 336.251 239.148 336.137 239.099C335.778 238.936 335.664 238.74 335.599 238.43C335.55 238.202 335.533 237.827 335.533 237.484ZM343.876 237.419C343.876 236.163 342.897 235.69 341.576 235.135C340.304 234.613 339.716 234.271 339.716 233.357C339.716 232.639 340.287 232.166 341.087 232.166C341.576 232.166 341.935 232.297 342.196 232.509C342.604 232.819 342.848 233.341 343.077 233.993H343.37L343.289 231.856H343.077L342.767 232.329H342.669C342.375 232.052 341.902 231.742 341.07 231.742C339.7 231.742 338.836 232.623 338.836 233.667C338.836 235.102 339.716 235.51 341.005 236.049C342.44 236.652 343.028 236.978 343.028 237.941C343.028 238.854 342.392 239.262 341.478 239.262C340.304 239.262 339.439 238.332 339.048 236.848H338.705L338.754 239.523H339.048L339.357 238.887H339.472C339.945 239.376 340.744 239.67 341.462 239.67C342.734 239.67 343.876 238.968 343.876 237.419Z" fill="black"/>
<path d="M249.625 10.9986V11.7653C249.625 12.6624 249.478 13.1192 249.315 13.2823C249.038 13.5596 248.418 13.7227 247.39 13.7227C246.575 13.7227 246.036 13.5922 245.384 13.2497C244.128 12.5972 243.328 11.2596 243.328 8.50288C243.328 5.7951 244.16 4.52277 244.992 3.91923C245.58 3.4788 246.167 3.26675 246.999 3.26675C248.369 3.26675 249.07 3.65824 249.674 4.47383C250.082 5.01213 250.375 5.72985 250.604 6.67594H250.946V3.16888H250.669L250.294 3.82135H250.228C249.821 3.39724 248.777 2.81001 247.031 2.81001C244.519 2.81001 241.942 4.91425 241.942 8.50288C241.942 11.9773 244.046 14.2284 247.423 14.2284C248.157 14.2284 249.136 14.1142 249.772 14C250.228 13.9184 250.62 13.7716 250.848 13.6738V11.6185C250.848 10.6071 250.881 10.0688 251.06 9.7589C251.223 9.48159 251.419 9.36741 251.696 9.26954C251.843 9.2206 252.023 9.18798 252.202 9.17167V8.84543H248.222V9.17167C248.401 9.18798 248.565 9.2206 248.711 9.26954C249.021 9.36741 249.201 9.46528 249.364 9.74259C249.56 10.0851 249.625 10.3788 249.625 10.9986ZM258.22 13.6738C258.057 13.6574 257.91 13.6411 257.779 13.5922C257.486 13.5106 257.225 13.3149 257.078 13.0213C256.866 12.5482 256.833 11.8631 256.833 10.8029V8.63337H262.265V10.8029C262.265 11.8631 262.216 12.5319 262.02 13.0213C261.89 13.3475 261.662 13.478 261.352 13.5759C261.205 13.6248 261.074 13.6574 260.895 13.6738V14H264.842V13.6738C264.663 13.6574 264.5 13.6248 264.337 13.5759C264.043 13.478 263.831 13.3149 263.684 13.0213C263.472 12.6135 263.44 11.8631 263.44 10.8029V6.2029C263.44 5.14262 263.472 4.44121 263.684 3.98447C263.831 3.67455 264.027 3.54405 264.288 3.44618C264.483 3.38093 264.663 3.36462 264.842 3.34831V3.02207H260.895V3.34831C261.074 3.36462 261.221 3.39724 261.335 3.42987C261.531 3.49512 261.89 3.67455 262.02 3.98447C262.216 4.45752 262.265 5.15893 262.265 6.2029V8.19295H256.833V6.2029C256.833 5.15893 256.882 4.45752 257.078 3.98447C257.225 3.67455 257.453 3.51143 257.779 3.41356C257.91 3.38093 258.04 3.36462 258.22 3.34831V3.02207H254.256V3.34831C254.452 3.36462 254.598 3.39724 254.778 3.44618C255.055 3.52774 255.267 3.67455 255.43 3.98447C255.659 4.44121 255.659 5.14262 255.659 6.2029V10.8029C255.659 11.8631 255.642 12.5482 255.43 13.0213C255.3 13.3149 255.088 13.478 254.745 13.5922C254.631 13.6248 254.452 13.6574 254.256 13.6738V14H258.22V13.6738ZM274.814 10.9986V11.7653C274.814 12.6624 274.667 13.1192 274.504 13.2823C274.227 13.5596 273.607 13.7227 272.579 13.7227C271.764 13.7227 271.226 13.5922 270.573 13.2497C269.317 12.5972 268.518 11.2596 268.518 8.50288C268.518 5.7951 269.35 4.52277 270.182 3.91923C270.769 3.4788 271.356 3.26675 272.188 3.26675C273.558 3.26675 274.26 3.65824 274.863 4.47383C275.271 5.01213 275.564 5.72985 275.793 6.67594H276.135V3.16888H275.858L275.483 3.82135H275.418C275.01 3.39724 273.966 2.81001 272.221 2.81001C269.709 2.81001 267.131 4.91425 267.131 8.50288C267.131 11.9773 269.235 14.2284 272.612 14.2284C273.346 14.2284 274.325 14.1142 274.961 14C275.418 13.9184 275.809 13.7716 276.038 13.6738V11.6185C276.038 10.6071 276.07 10.0688 276.25 9.7589C276.413 9.48159 276.608 9.36741 276.886 9.26954C277.033 9.2206 277.212 9.18798 277.391 9.17167V8.84543H273.411V9.17167C273.591 9.18798 273.754 9.2206 273.901 9.26954C274.211 9.36741 274.39 9.46528 274.553 9.74259C274.749 10.0851 274.814 10.3788 274.814 10.9986ZM286.437 4.19653C286.437 3.8866 286.454 3.73979 286.584 3.59299C286.698 3.46249 286.845 3.42987 287.122 3.42987H288.068C289.765 3.42987 290.629 4.21284 290.629 5.86035C290.629 6.39864 290.548 7.08374 290.173 7.55679C289.781 8.01352 289.129 8.43763 287.71 8.43763C287.318 8.43763 286.731 8.3887 286.437 8.32345V4.19653ZM287.873 13.6738C287.693 13.6574 287.498 13.6411 287.351 13.5922C287.024 13.4943 286.829 13.3312 286.666 13.005C286.486 12.5809 286.437 11.9936 286.437 11.0149V8.79649C286.682 8.82912 287.237 8.87805 287.693 8.87805C289.063 8.87805 289.961 8.56813 290.515 8.24189C291.298 7.78515 291.853 6.92062 291.853 5.72985C291.853 3.87029 290.336 3.02207 288.215 3.02207H283.86V3.34831C284.088 3.36462 284.251 3.39724 284.366 3.42987C284.659 3.52774 284.871 3.67455 285.034 3.98447C285.23 4.4249 285.263 5.01213 285.263 5.97453V11.0312C285.263 11.9936 285.23 12.5809 285.034 13.0213C284.871 13.3638 284.676 13.4943 284.415 13.5759C284.219 13.6411 284.056 13.6574 283.893 13.6738V14H287.873V13.6738ZM295.794 8.11139H295.696C295.696 8.17664 295.745 6.4802 295.745 6.51282C295.745 6.46389 295.713 6.41495 295.631 6.41495H293.641V6.70857C293.886 6.7575 294.13 6.80644 294.343 6.93693C294.489 7.0348 294.62 7.19792 294.669 7.39367C294.718 7.58941 294.718 8.17664 294.718 8.45394V11.961C294.718 12.2872 294.718 12.6461 294.652 12.9234C294.555 13.2823 294.424 13.4291 294.147 13.5759C293.984 13.6248 293.772 13.6738 293.625 13.6901V14H296.887V13.6901C296.708 13.6738 296.528 13.6411 296.349 13.5759C296.153 13.5106 296.039 13.3475 295.941 13.1192C295.811 12.8419 295.745 12.5319 295.745 11.8958V10.1993C295.745 9.77521 295.762 9.26954 295.778 9.17167C295.925 7.91565 296.757 6.90431 297.279 6.90431C297.474 6.90431 297.638 6.96956 297.735 7.18161C297.85 7.47523 297.98 7.73622 298.372 7.73622C298.812 7.73622 298.959 7.40998 298.959 7.10005C298.959 6.79013 298.845 6.59438 298.73 6.4802C298.535 6.31708 298.257 6.21921 297.964 6.21921C297.409 6.21921 297.018 6.44758 296.724 6.69225C296.365 7.00218 296.088 7.37736 295.794 8.11139ZM300.56 10.183C300.56 12.6624 302.289 14.1468 304.116 14.1468C305.942 14.1468 307.672 12.6461 307.672 10.1667C307.672 7.70359 305.942 6.21921 304.116 6.21921C302.272 6.21921 300.56 7.70359 300.56 10.183ZM301.718 10.183C301.718 8.73125 302.077 7.73622 302.729 7.14899C303.12 6.79013 303.642 6.62701 304.116 6.62701C304.572 6.62701 305.094 6.77381 305.486 7.14899C306.138 7.75253 306.497 8.74756 306.497 10.183C306.497 11.6021 306.122 12.6135 305.486 13.217C305.094 13.5922 304.589 13.739 304.116 13.739C303.626 13.739 303.12 13.5922 302.713 13.2007C302.077 12.6135 301.718 11.6021 301.718 10.183ZM314.12 12.9887C313.778 13.3801 313.337 13.5922 312.832 13.5922C312.032 13.5922 311.788 13.2333 311.788 12.5645L311.804 6.87169H313.859V6.41495H311.804V3.80504H311.543C310.988 5.86035 310.466 6.41495 309.553 6.56176V6.83906C309.716 6.83906 310.597 6.85537 310.793 6.85537C310.776 7.10005 310.776 12.4504 310.776 12.5482C310.776 13.2007 310.89 13.4943 311.151 13.7227C311.527 14.0326 311.918 14.1468 312.522 14.1468C313.19 14.1468 313.859 13.8532 314.3 13.2007L314.12 12.9887ZM315.904 10.183C315.904 12.6624 317.633 14.1468 319.46 14.1468C321.287 14.1468 323.016 12.6461 323.016 10.1667C323.016 7.70359 321.287 6.21921 319.46 6.21921C317.617 6.21921 315.904 7.70359 315.904 10.183ZM317.062 10.183C317.062 8.73125 317.421 7.73622 318.074 7.14899C318.465 6.79013 318.987 6.62701 319.46 6.62701C319.917 6.62701 320.439 6.77381 320.831 7.14899C321.483 7.75253 321.842 8.74756 321.842 10.183C321.842 11.6021 321.467 12.6135 320.831 13.217C320.439 13.5922 319.933 13.739 319.46 13.739C318.971 13.739 318.465 13.5922 318.057 13.2007C317.421 12.6135 317.062 11.6021 317.062 10.183ZM328.858 6.62701C329.673 6.62701 329.983 6.83906 330.212 7.68728C330.358 8.1277 330.521 8.43763 330.946 8.43763C331.288 8.43763 331.5 8.24189 331.5 7.83409C331.5 7.62203 331.435 7.32842 331.207 7.06743C330.831 6.64332 330.228 6.21921 328.874 6.21921C326.965 6.21921 325.432 7.93196 325.432 10.1667C325.432 11.7163 325.97 12.744 326.721 13.3638C327.259 13.8532 327.912 14.1468 328.809 14.1468C330.277 14.1468 331.288 13.2333 331.696 11.8631L331.304 11.7326C331.043 12.5319 330.456 13.6085 328.874 13.6085C328.385 13.6085 327.879 13.3965 327.553 13.0865C326.965 12.4993 326.574 11.5369 326.574 10.0851C326.574 8.60075 326.998 7.55679 327.618 7.05112C327.944 6.79013 328.401 6.62701 328.858 6.62701ZM333.654 10.183C333.654 12.6624 335.384 14.1468 337.21 14.1468C339.037 14.1468 340.766 12.6461 340.766 10.1667C340.766 7.70359 339.037 6.21921 337.21 6.21921C335.367 6.21921 333.654 7.70359 333.654 10.183ZM334.813 10.183C334.813 8.73125 335.171 7.73622 335.824 7.14899C336.215 6.79013 336.737 6.62701 337.21 6.62701C337.667 6.62701 338.189 6.77381 338.581 7.14899C339.233 7.75253 339.592 8.74756 339.592 10.183C339.592 11.6021 339.217 12.6135 338.581 13.217C338.189 13.5922 337.683 13.739 337.21 13.739C336.721 13.739 336.215 13.5922 335.808 13.2007C335.171 12.6135 334.813 11.6021 334.813 10.183ZM345.029 4.0171C345.029 3.41356 345.062 2.82633 345.062 2.50009C345.062 2.41853 345.029 2.3859 344.948 2.3859H342.925V2.69583C343.251 2.71214 343.463 2.74477 343.643 2.87526C343.79 2.98945 343.871 3.10363 343.936 3.31568C344.002 3.51143 344.002 4.11497 344.002 4.35965V12.1078C344.002 12.4177 344.002 12.7114 343.936 12.956C343.855 13.266 343.692 13.4454 343.431 13.5596C343.3 13.6248 343.105 13.6738 342.941 13.6901V14H346.057V13.6901C345.894 13.6738 345.714 13.6248 345.568 13.5596C345.323 13.4291 345.16 13.266 345.078 12.9071C345.029 12.6624 345.029 12.3851 345.029 12.1078V4.0171Z" fill="black"/>
</svg>
