<svg width="554" height="243" viewBox="0 0 554 243" fill="none" xmlns="http://www.w3.org/2000/svg">
<path d="M83.754 139.041C83.754 137.132 82.4817 136.496 80.6221 135.615C79.3661 135.028 78.1101 134.555 78.1101 132.956C78.1101 131.733 79.0888 131.195 80.0349 131.195C80.8015 131.195 81.2257 131.39 81.5682 131.619C82.1391 132.026 82.6448 132.924 82.9221 133.788H83.2483L82.9547 130.934H82.6285L82.4001 131.537H82.3186C81.8129 131.064 81.1604 130.754 80.0675 130.754C78.2406 130.754 77.0987 131.961 77.0987 133.413C77.0987 135.224 78.4526 135.99 79.9207 136.675C81.6498 137.458 82.7427 137.899 82.7427 139.628C82.7427 140.786 81.976 141.732 80.3448 141.732C78.7952 141.732 77.6697 140.199 77.1477 138.388H76.8377L77.0009 141.814H77.2292L77.6044 141.128H77.7023C78.2569 141.667 79.203 142.172 80.3611 142.172C82.0902 142.172 83.754 141.031 83.754 139.041ZM89.5195 134.571C90.3351 134.571 90.645 134.783 90.8734 135.631C91.0202 136.072 91.1833 136.382 91.6074 136.382C91.95 136.382 92.162 136.186 92.162 135.778C92.162 135.566 92.0968 135.273 91.8684 135.012C91.4932 134.587 90.8897 134.163 89.5358 134.163C87.6273 134.163 86.094 135.876 86.094 138.111C86.094 139.66 86.6323 140.688 87.3826 141.308C87.9209 141.797 88.5734 142.091 89.4706 142.091C90.9386 142.091 91.95 141.177 92.3578 139.807L91.9663 139.677C91.7053 140.476 91.1181 141.553 89.5358 141.553C89.0464 141.553 88.5408 141.341 88.2145 141.031C87.6273 140.443 87.2358 139.481 87.2358 138.029C87.2358 136.545 87.6599 135.501 88.2798 134.995C88.606 134.734 89.0628 134.571 89.5195 134.571ZM94.3163 138.127C94.3163 140.607 96.0454 142.091 97.8723 142.091C99.6993 142.091 101.428 140.59 101.428 138.111C101.428 135.648 99.6993 134.163 97.8723 134.163C96.0291 134.163 94.3163 135.648 94.3163 138.127ZM95.4745 138.127C95.4745 136.675 95.8333 135.68 96.4858 135.093C96.8773 134.734 97.3993 134.571 97.8723 134.571C98.3291 134.571 98.851 134.718 99.2425 135.093C99.895 135.697 100.254 136.692 100.254 138.127C100.254 139.546 99.8787 140.558 99.2425 141.161C98.851 141.536 98.3454 141.683 97.8723 141.683C97.383 141.683 96.8773 141.536 96.4695 141.145C95.8333 140.558 95.4745 139.546 95.4745 138.127ZM109.998 138.111C109.998 140.541 109.084 141.716 107.698 141.716C107.061 141.716 106.556 141.504 106.197 141.096C105.822 140.704 105.61 140.117 105.61 139.073V137.132C105.61 136.414 105.936 135.729 106.311 135.338C106.719 134.897 107.225 134.62 107.893 134.62C109.035 134.62 109.998 135.468 109.998 138.111ZM104.582 143.265C104.582 143.592 104.598 143.95 104.533 144.211C104.435 144.587 104.256 144.733 104.027 144.848C103.897 144.913 103.685 144.945 103.505 144.962V145.255H106.735V144.962C106.507 144.945 106.295 144.913 106.148 144.848C105.92 144.75 105.74 144.538 105.675 144.211C105.626 143.95 105.61 143.592 105.61 143.265V141.308H105.708C106.246 141.879 106.996 142.107 107.681 142.107C109.427 142.107 111.139 140.835 111.139 138.143C111.139 135.224 109.606 134.163 108.024 134.163C106.964 134.163 106.181 134.734 105.642 135.664H105.561L105.577 134.473C105.577 134.392 105.528 134.359 105.463 134.359H103.44V134.653C103.717 134.685 104.011 134.767 104.239 134.93C104.386 135.044 104.484 135.191 104.533 135.387C104.582 135.582 104.582 136.039 104.582 136.3V143.265ZM115.654 135.044C116.029 134.734 116.469 134.587 116.926 134.587C117.481 134.587 117.856 134.734 118.166 134.995C118.508 135.289 118.688 135.697 118.688 136.431C118.688 137.148 118.541 137.295 118.035 137.295H114.708C114.854 136.186 115.23 135.403 115.654 135.044ZM119.895 139.726L119.536 139.595C119.193 140.639 118.541 141.52 117.138 141.52C116.469 141.52 115.898 141.308 115.474 140.868C114.92 140.264 114.659 139.171 114.659 138.176C114.659 138.013 114.659 137.866 114.675 137.719H119.797C119.83 137.507 119.846 137.165 119.846 136.887C119.846 135.713 119.014 134.163 116.91 134.163C115.034 134.163 113.484 135.892 113.484 138.143C113.484 139.302 113.81 140.362 114.577 141.145C115.164 141.765 115.947 142.091 116.926 142.091C118.361 142.091 119.438 141.226 119.895 139.726ZM130.221 141.944V141.634C129.944 141.602 129.667 141.536 129.504 141.438C129.291 141.308 129.226 141.226 129.145 140.965C129.079 140.753 129.063 140.346 129.063 139.921V132.63C129.063 132.19 129.096 131.341 129.096 131.097C129.096 130.999 129.063 130.966 128.982 130.966C128.818 130.966 128.541 131.031 128.231 131.097C127.709 131.178 127.138 131.26 126.698 131.276V131.586C126.959 131.635 127.399 131.7 127.595 131.798C127.758 131.88 127.856 131.961 127.905 132.271C127.954 132.548 127.97 132.956 127.97 133.217V139.921C127.97 140.346 127.938 140.737 127.872 140.965C127.791 141.243 127.66 141.341 127.481 141.455C127.35 141.536 127.057 141.585 126.796 141.634V141.944H130.221Z" fill="black"/>
<path d="M256.117 141.466C256.117 139.558 254.844 138.921 252.985 138.041C251.729 137.453 250.473 136.98 250.473 135.382C250.473 134.158 251.451 133.62 252.398 133.62C253.164 133.62 253.588 133.816 253.931 134.044C254.502 134.452 255.007 135.349 255.285 136.214H255.611L255.317 133.359H254.991L254.763 133.963H254.681C254.176 133.49 253.523 133.18 252.43 133.18C250.603 133.18 249.461 134.387 249.461 135.838C249.461 137.649 250.815 138.416 252.283 139.101C254.012 139.884 255.105 140.324 255.105 142.053C255.105 143.211 254.339 144.158 252.707 144.158C251.158 144.158 250.032 142.624 249.51 140.814H249.2L249.364 144.239H249.592L249.967 143.554H250.065C250.62 144.092 251.566 144.598 252.724 144.598C254.453 144.598 256.117 143.456 256.117 141.466ZM261.882 136.997C262.698 136.997 263.008 137.209 263.236 138.057C263.383 138.497 263.546 138.807 263.97 138.807C264.313 138.807 264.525 138.612 264.525 138.204C264.525 137.992 264.459 137.698 264.231 137.437C263.856 137.013 263.252 136.589 261.898 136.589C259.99 136.589 258.457 138.302 258.457 140.536C258.457 142.086 258.995 143.114 259.745 143.733C260.284 144.223 260.936 144.516 261.833 144.516C263.301 144.516 264.313 143.603 264.72 142.233L264.329 142.102C264.068 142.902 263.481 143.978 261.898 143.978C261.409 143.978 260.903 143.766 260.577 143.456C259.99 142.869 259.598 141.907 259.598 140.455C259.598 138.97 260.023 137.926 260.642 137.421C260.969 137.16 261.425 136.997 261.882 136.997ZM266.679 140.553C266.679 143.032 268.408 144.516 270.235 144.516C272.062 144.516 273.791 143.016 273.791 140.536C273.791 138.073 272.062 136.589 270.235 136.589C268.392 136.589 266.679 138.073 266.679 140.553ZM267.837 140.553C267.837 139.101 268.196 138.106 268.848 137.519C269.24 137.16 269.762 136.997 270.235 136.997C270.692 136.997 271.214 137.143 271.605 137.519C272.258 138.122 272.617 139.117 272.617 140.553C272.617 141.972 272.241 142.983 271.605 143.587C271.214 143.962 270.708 144.109 270.235 144.109C269.746 144.109 269.24 143.962 268.832 143.57C268.196 142.983 267.837 141.972 267.837 140.553ZM282.36 140.536C282.36 142.967 281.447 144.141 280.06 144.141C279.424 144.141 278.918 143.929 278.56 143.521C278.184 143.13 277.972 142.543 277.972 141.499V139.558C277.972 138.84 278.299 138.155 278.674 137.763C279.082 137.323 279.587 137.046 280.256 137.046C281.398 137.046 282.36 137.894 282.36 140.536ZM276.945 145.691C276.945 146.017 276.961 146.376 276.896 146.637C276.798 147.012 276.618 147.159 276.39 147.273C276.26 147.338 276.047 147.371 275.868 147.387V147.681H279.098V147.387C278.869 147.371 278.657 147.338 278.511 147.273C278.282 147.175 278.103 146.963 278.038 146.637C277.989 146.376 277.972 146.017 277.972 145.691V143.733H278.07C278.608 144.304 279.359 144.533 280.044 144.533C281.789 144.533 283.502 143.26 283.502 140.569C283.502 137.649 281.969 136.589 280.386 136.589C279.326 136.589 278.543 137.16 278.005 138.09H277.923L277.94 136.899C277.94 136.817 277.891 136.785 277.825 136.785H275.803V137.078C276.08 137.111 276.374 137.192 276.602 137.355C276.749 137.47 276.847 137.616 276.896 137.812C276.945 138.008 276.945 138.465 276.945 138.726V145.691ZM288.016 137.47C288.392 137.16 288.832 137.013 289.289 137.013C289.843 137.013 290.218 137.16 290.528 137.421C290.871 137.714 291.05 138.122 291.05 138.856C291.05 139.574 290.904 139.721 290.398 139.721H287.07C287.217 138.612 287.592 137.829 288.016 137.47ZM292.257 142.151L291.899 142.021C291.556 143.065 290.904 143.946 289.501 143.946C288.832 143.946 288.261 143.733 287.837 143.293C287.282 142.689 287.021 141.597 287.021 140.602C287.021 140.438 287.021 140.292 287.038 140.145H292.16C292.192 139.933 292.209 139.59 292.209 139.313C292.209 138.138 291.377 136.589 289.272 136.589C287.396 136.589 285.847 138.318 285.847 140.569C285.847 141.727 286.173 142.787 286.94 143.57C287.527 144.19 288.31 144.516 289.289 144.516C290.724 144.516 291.801 143.652 292.257 142.151ZM302.127 133.751C303.53 133.751 304.378 134.387 304.378 136.279C304.378 139.443 301.621 141.76 299.99 143.163C299.876 143.244 299.061 143.88 298.669 144.223L298.734 144.37H305.39L306.042 141.727H305.667C305.536 142.053 305.259 142.543 305.014 142.869C304.77 143.195 304.509 143.342 303.709 143.342H300.447V143.277C300.594 143.097 301.246 142.51 301.589 142.2C302.535 141.336 305.602 139.036 305.602 136.344C305.602 134.419 304.329 133.31 302.323 133.31C300.251 133.31 299.158 134.566 299.158 135.626C299.158 136.148 299.468 136.426 299.827 136.426C300.3 136.426 300.545 136.148 300.545 135.659C300.545 135.48 300.48 135.121 300.496 134.941C300.529 134.648 300.594 134.436 300.887 134.191C301.132 133.979 301.54 133.751 302.127 133.751Z" fill="black"/>
<circle cx="103.391" cy="137.265" r="74.3914" stroke="black" stroke-width="1.16514" stroke-dasharray="4.66 4.66"/>
<circle cx="276.704" cy="137.265" r="73.8088" stroke="black" stroke-width="1.16514"/>
<circle cx="450.704" cy="137.265" r="73.8088" stroke="black" stroke-width="1.16514"/>
<path d="M428.206 139.041C428.206 137.132 426.934 136.496 425.074 135.615C423.818 135.028 422.562 134.555 422.562 132.956C422.562 131.733 423.541 131.195 424.487 131.195C425.254 131.195 425.678 131.39 426.021 131.619C426.591 132.026 427.097 132.924 427.374 133.788H427.701L427.407 130.934H427.081L426.852 131.537H426.771C426.265 131.064 425.613 130.754 424.52 130.754C422.693 130.754 421.551 131.961 421.551 133.413C421.551 135.224 422.905 135.99 424.373 136.675C426.102 137.458 427.195 137.899 427.195 139.628C427.195 140.786 426.428 141.732 424.797 141.732C423.248 141.732 422.122 140.199 421.6 138.388H421.29L421.453 141.814H421.682L422.057 141.128H422.155C422.709 141.667 423.655 142.172 424.813 142.172C426.543 142.172 428.206 141.031 428.206 139.041ZM433.972 134.571C434.787 134.571 435.097 134.783 435.326 135.631C435.473 136.072 435.636 136.382 436.06 136.382C436.402 136.382 436.614 136.186 436.614 135.778C436.614 135.566 436.549 135.273 436.321 135.012C435.946 134.587 435.342 134.163 433.988 134.163C432.08 134.163 430.546 135.876 430.546 138.111C430.546 139.66 431.085 140.688 431.835 141.308C432.373 141.797 433.026 142.091 433.923 142.091C435.391 142.091 436.402 141.177 436.81 139.807L436.419 139.677C436.158 140.476 435.57 141.553 433.988 141.553C433.499 141.553 432.993 141.341 432.667 141.031C432.08 140.443 431.688 139.481 431.688 138.029C431.688 136.545 432.112 135.501 432.732 134.995C433.058 134.734 433.515 134.571 433.972 134.571ZM438.769 138.127C438.769 140.607 440.498 142.091 442.325 142.091C444.152 142.091 445.881 140.59 445.881 138.111C445.881 135.648 444.152 134.163 442.325 134.163C440.481 134.163 438.769 135.648 438.769 138.127ZM439.927 138.127C439.927 136.675 440.286 135.68 440.938 135.093C441.33 134.734 441.852 134.571 442.325 134.571C442.781 134.571 443.303 134.718 443.695 135.093C444.347 135.697 444.706 136.692 444.706 138.127C444.706 139.546 444.331 140.558 443.695 141.161C443.303 141.536 442.798 141.683 442.325 141.683C441.835 141.683 441.33 141.536 440.922 141.145C440.286 140.558 439.927 139.546 439.927 138.127ZM454.45 138.111C454.45 140.541 453.536 141.716 452.15 141.716C451.514 141.716 451.008 141.504 450.649 141.096C450.274 140.704 450.062 140.117 450.062 139.073V137.132C450.062 136.414 450.388 135.729 450.763 135.338C451.171 134.897 451.677 134.62 452.346 134.62C453.487 134.62 454.45 135.468 454.45 138.111ZM449.034 143.265C449.034 143.592 449.051 143.95 448.985 144.211C448.888 144.587 448.708 144.733 448.48 144.848C448.349 144.913 448.137 144.945 447.958 144.962V145.255H451.187V144.962C450.959 144.945 450.747 144.913 450.6 144.848C450.372 144.75 450.192 144.538 450.127 144.211C450.078 143.95 450.062 143.592 450.062 143.265V141.308H450.16C450.698 141.879 451.448 142.107 452.134 142.107C453.879 142.107 455.592 140.835 455.592 138.143C455.592 135.224 454.058 134.163 452.476 134.163C451.416 134.163 450.633 134.734 450.095 135.664H450.013L450.029 134.473C450.029 134.392 449.98 134.359 449.915 134.359H447.892V134.653C448.17 134.685 448.463 134.767 448.692 134.93C448.839 135.044 448.936 135.191 448.985 135.387C449.034 135.582 449.034 136.039 449.034 136.3V143.265ZM460.106 135.044C460.481 134.734 460.922 134.587 461.378 134.587C461.933 134.587 462.308 134.734 462.618 134.995C462.961 135.289 463.14 135.697 463.14 136.431C463.14 137.148 462.993 137.295 462.488 137.295H459.16C459.307 136.186 459.682 135.403 460.106 135.044ZM464.347 139.726L463.988 139.595C463.646 140.639 462.993 141.52 461.59 141.52C460.922 141.52 460.351 141.308 459.927 140.868C459.372 140.264 459.111 139.171 459.111 138.176C459.111 138.013 459.111 137.866 459.127 137.719H464.249C464.282 137.507 464.298 137.165 464.298 136.887C464.298 135.713 463.466 134.163 461.362 134.163C459.486 134.163 457.937 135.892 457.937 138.143C457.937 139.302 458.263 140.362 459.029 141.145C459.617 141.765 460.4 142.091 461.378 142.091C462.814 142.091 463.89 141.226 464.347 139.726ZM474.298 130.885C472.357 130.885 471.411 131.945 471.411 132.842C471.411 133.331 471.688 133.641 472.047 133.641C472.439 133.641 472.7 133.413 472.7 132.891C472.7 132.777 472.667 132.565 472.635 132.451C472.602 132.353 472.553 132.238 472.553 132.108C472.553 131.619 473.157 131.309 474.119 131.309C475.375 131.309 475.881 131.88 475.881 132.989C475.881 134.424 475.114 135.24 473.679 136.072L472.553 136.708L472.749 137.067L473.401 136.692C473.679 136.529 474.07 136.398 474.494 136.398C476.06 136.398 476.631 137.018 476.631 138.421C476.631 140.623 475.489 141.748 473.63 141.748C473.01 141.748 472.684 141.65 472.357 141.357C472.194 141.21 472.08 141.014 472.015 140.737C471.949 140.541 471.933 140.28 471.933 140.101C471.933 139.628 471.754 139.334 471.362 139.334C471.02 139.334 470.742 139.579 470.742 140.085C470.742 140.998 471.868 142.172 473.581 142.172C476.68 142.172 477.871 140.182 477.871 138.47C477.871 137.197 476.974 135.713 474.413 136.072V136.023C475.587 135.256 477.039 134.424 477.039 132.924C477.039 131.717 476.093 130.885 474.298 130.885Z" fill="black"/>
<path d="M216 234.682H98.8409C44.8049 234.682 1 190.877 1 136.841V136.841C1 82.8049 44.8049 39 98.8409 39H455.435C509.471 39 553.275 82.8049 553.275 136.841V136.841C553.275 190.877 509.471 234.682 455.435 234.682H340" stroke="black" stroke-width="1.16514"/>
<path d="M231.432 230.535H231.53L233.096 235.119H229.801L231.432 230.535ZM229.964 239.197C229.736 239.18 229.442 239.131 229.295 239.066C229.034 238.968 228.822 238.74 228.822 238.332C228.822 238.055 228.855 237.827 229.051 237.256L229.654 235.559H233.243L233.748 237.044C233.928 237.582 234.075 237.941 234.075 238.397C234.075 238.789 233.814 238.985 233.585 239.066C233.406 239.131 233.259 239.164 232.982 239.197V239.523H236.782V239.197C236.603 239.164 236.472 239.131 236.26 239.034C236.016 238.919 235.787 238.74 235.575 238.365C235.445 238.136 235.2 237.647 234.923 236.815L232.068 228.463H231.677L228.529 237.19C228.3 237.843 228.137 238.218 228.023 238.463C227.876 238.74 227.729 238.903 227.566 239.001C227.354 239.131 227.191 239.164 226.914 239.197V239.523H229.964V239.197ZM240.641 229.54C240.641 228.937 240.674 228.349 240.674 228.023C240.674 227.941 240.641 227.909 240.559 227.909H238.537V228.219C238.863 228.235 239.075 228.268 239.254 228.398C239.401 228.512 239.483 228.627 239.548 228.839C239.613 229.034 239.613 229.638 239.613 229.883V237.631C239.613 237.941 239.613 238.234 239.548 238.479C239.466 238.789 239.303 238.968 239.042 239.083C238.912 239.148 238.716 239.197 238.553 239.213V239.523H241.669V239.213C241.505 239.197 241.326 239.148 241.179 239.083C240.935 238.952 240.771 238.789 240.69 238.43C240.641 238.185 240.641 237.908 240.641 237.631V229.54ZM245.836 229.54C245.836 228.937 245.869 228.349 245.869 228.023C245.869 227.941 245.836 227.909 245.755 227.909H243.732V228.219C244.058 228.235 244.27 228.268 244.45 228.398C244.597 228.512 244.678 228.627 244.743 228.839C244.809 229.034 244.809 229.638 244.809 229.883V237.631C244.809 237.941 244.809 238.234 244.743 238.479C244.662 238.789 244.499 238.968 244.238 239.083C244.107 239.148 243.911 239.197 243.748 239.213V239.523H246.864V239.213C246.701 239.197 246.521 239.148 246.375 239.083C246.13 238.952 245.967 238.789 245.885 238.43C245.836 238.185 245.836 237.908 245.836 237.631V229.54ZM261.857 236.864H261.563C261.335 237.353 261.156 237.875 260.487 238.463C260.144 238.773 259.606 239.115 258.464 239.115H257.551C257.159 239.115 256.702 239.05 256.474 238.887C256.001 238.544 256.001 237.729 256.001 237.027V234.042H257.273C257.975 234.042 258.334 234.156 258.595 234.401C258.953 234.711 259.068 235.314 259.1 235.755H259.41V231.922H259.1C259.068 232.346 258.97 232.933 258.595 233.259C258.334 233.52 257.991 233.618 257.273 233.618H256.001V230.715C256.001 230.209 256.05 229.507 256.441 229.165C256.621 229.002 256.947 228.969 257.175 228.969H258.399C259.182 228.969 259.753 229.263 259.948 229.426C260.487 229.834 260.748 230.356 261.058 231.057H261.384L260.943 228.545H253.424V228.855C253.619 228.871 253.783 228.888 253.929 228.937C254.239 229.051 254.451 229.197 254.614 229.507C254.794 229.98 254.843 230.666 254.843 231.726V236.342C254.843 237.402 254.81 238.12 254.598 238.577C254.451 238.854 254.239 238.985 253.913 239.099C253.783 239.148 253.619 239.18 253.424 239.197V239.523H261.4L261.857 236.864ZM267.344 239.213C267.051 239.197 266.855 239.115 266.676 239.001C266.464 238.87 266.349 238.707 266.284 238.463C266.219 238.202 266.203 237.761 266.203 237.402V235.331C266.203 234.646 266.284 234.107 266.545 233.634C266.888 232.868 267.475 232.395 268.323 232.395C268.861 232.395 269.171 232.541 269.4 232.884C269.612 233.178 269.693 233.585 269.693 234.107V237.402C269.693 237.761 269.677 238.218 269.596 238.495C269.53 238.756 269.4 238.919 269.171 239.05C269.025 239.131 268.813 239.197 268.568 239.213V239.523H271.83V239.229C271.602 239.197 271.39 239.131 271.259 239.066C270.998 238.919 270.9 238.74 270.803 238.446C270.721 238.185 270.721 237.794 270.721 237.451V235.363C270.721 234.646 270.803 234.091 271.015 233.667C271.39 232.835 272.026 232.395 272.842 232.395C273.315 232.395 273.608 232.525 273.837 232.802C274.081 233.112 274.163 233.536 274.163 234.091V237.402C274.163 237.761 274.163 238.169 274.098 238.463C274.032 238.724 273.918 238.903 273.657 239.034C273.51 239.115 273.298 239.18 273.054 239.213V239.523H276.3V239.229C276.137 239.213 275.925 239.164 275.794 239.099C275.484 238.952 275.37 238.773 275.272 238.43C275.207 238.185 275.207 237.827 275.207 237.484V233.781C275.207 232.949 274.978 232.476 274.587 232.15C274.261 231.905 273.902 231.742 273.217 231.742C272.678 231.742 272.189 231.905 271.781 232.183C271.374 232.444 271.031 232.786 270.737 233.406H270.656C270.591 232.835 270.395 232.444 270.085 232.183C269.759 231.889 269.335 231.742 268.731 231.742C268.111 231.742 267.622 231.938 267.23 232.232C266.855 232.476 266.545 232.835 266.284 233.406H266.17C266.186 233.063 266.219 232.248 266.219 232.036C266.219 231.971 266.203 231.938 266.121 231.938H264.098V232.232C264.359 232.28 264.604 232.346 264.8 232.46C264.947 232.541 265.061 232.705 265.11 232.9C265.159 233.112 265.159 233.569 265.159 233.977V237.402C265.159 237.761 265.175 238.153 265.126 238.414C265.028 238.789 264.881 238.952 264.555 239.099C264.408 239.148 264.196 239.213 264.049 239.229V239.523H267.344V239.213ZM279.94 230.029C280.364 230.029 280.691 229.719 280.691 229.279C280.691 228.855 280.381 228.512 279.94 228.512C279.533 228.512 279.223 228.839 279.223 229.279C279.223 229.719 279.533 230.029 279.94 230.029ZM280.446 233.504C280.446 232.851 280.479 232.395 280.495 232.052C280.495 231.971 280.446 231.938 280.381 231.938H278.358V232.232C278.717 232.28 278.896 232.346 279.059 232.46C279.223 232.574 279.288 232.688 279.353 232.9C279.402 233.08 279.418 233.7 279.418 233.961V237.745C279.418 238.022 279.418 238.251 279.353 238.512C279.288 238.773 279.108 238.952 278.847 239.083C278.733 239.148 278.505 239.197 278.358 239.213V239.523H281.539V239.213C281.376 239.197 281.147 239.131 281.033 239.083C280.805 238.968 280.593 238.838 280.511 238.512C280.462 238.3 280.446 237.99 280.446 237.745V233.504ZM288.869 237.419C288.869 236.163 287.89 235.69 286.569 235.135C285.296 234.613 284.709 234.271 284.709 233.357C284.709 232.639 285.28 232.166 286.079 232.166C286.569 232.166 286.928 232.297 287.189 232.509C287.596 232.819 287.841 233.341 288.07 233.993H288.363L288.282 231.856H288.07L287.76 232.329H287.662C287.368 232.052 286.895 231.742 286.063 231.742C284.693 231.742 283.828 232.623 283.828 233.667C283.828 235.102 284.709 235.51 285.998 236.049C287.433 236.652 288.021 236.978 288.021 237.941C288.021 238.854 287.384 239.262 286.471 239.262C285.296 239.262 284.432 238.332 284.04 236.848H283.698L283.747 239.523H284.04L284.35 238.887H284.465C284.938 239.376 285.737 239.67 286.455 239.67C287.727 239.67 288.869 238.968 288.869 237.419ZM296.039 237.419C296.039 236.163 295.061 235.69 293.739 235.135C292.467 234.613 291.88 234.271 291.88 233.357C291.88 232.639 292.451 232.166 293.25 232.166C293.739 232.166 294.098 232.297 294.359 232.509C294.767 232.819 295.012 233.341 295.24 233.993H295.534L295.452 231.856H295.24L294.93 232.329H294.832C294.539 232.052 294.066 231.742 293.234 231.742C291.864 231.742 290.999 232.623 290.999 233.667C290.999 235.102 291.88 235.51 293.169 236.049C294.604 236.652 295.191 236.978 295.191 237.941C295.191 238.854 294.555 239.262 293.642 239.262C292.467 239.262 291.603 238.332 291.211 236.848H290.869L290.917 239.523H291.211L291.521 238.887H291.635C292.108 239.376 292.908 239.67 293.625 239.67C294.898 239.67 296.039 238.968 296.039 237.419ZM299.572 230.029C299.997 230.029 300.323 229.719 300.323 229.279C300.323 228.855 300.013 228.512 299.572 228.512C299.165 228.512 298.855 228.839 298.855 229.279C298.855 229.719 299.165 230.029 299.572 230.029ZM300.078 233.504C300.078 232.851 300.111 232.395 300.127 232.052C300.127 231.971 300.078 231.938 300.013 231.938H297.99V232.232C298.349 232.28 298.528 232.346 298.692 232.46C298.855 232.574 298.92 232.688 298.985 232.9C299.034 233.08 299.05 233.7 299.05 233.961V237.745C299.05 238.022 299.05 238.251 298.985 238.512C298.92 238.773 298.741 238.952 298.48 239.083C298.365 239.148 298.137 239.197 297.99 239.213V239.523H301.171V239.213C301.008 239.197 300.78 239.131 300.665 239.083C300.437 238.968 300.225 238.838 300.143 238.512C300.094 238.3 300.078 237.99 300.078 237.745V233.504ZM303.314 235.706C303.314 238.185 305.043 239.67 306.87 239.67C308.697 239.67 310.426 238.169 310.426 235.69C310.426 233.227 308.697 231.742 306.87 231.742C305.026 231.742 303.314 233.227 303.314 235.706ZM304.472 235.706C304.472 234.254 304.831 233.259 305.483 232.672C305.875 232.313 306.397 232.15 306.87 232.15C307.326 232.15 307.848 232.297 308.24 232.672C308.892 233.275 309.251 234.271 309.251 235.706C309.251 237.125 308.876 238.136 308.24 238.74C307.848 239.115 307.343 239.262 306.87 239.262C306.38 239.262 305.875 239.115 305.467 238.724C304.831 238.136 304.472 237.125 304.472 235.706ZM319.533 237.484V233.749C319.533 232.917 319.24 232.411 318.848 232.117C318.506 231.889 318.098 231.742 317.543 231.742C316.94 231.742 316.369 231.922 315.961 232.199C315.553 232.427 315.129 232.819 314.835 233.422H314.738C314.754 233.145 314.77 232.264 314.77 232.036C314.77 231.954 314.738 231.938 314.656 231.938H312.666V232.232C312.927 232.264 313.188 232.346 313.384 232.46C313.547 232.558 313.645 232.688 313.694 232.9C313.743 233.112 313.743 233.569 313.743 233.961V237.321C313.743 237.712 313.743 238.169 313.71 238.381C313.628 238.789 313.449 238.952 313.074 239.099C312.96 239.148 312.747 239.197 312.601 239.213V239.523H315.896V239.213C315.733 239.197 315.569 239.148 315.423 239.099C315.064 238.952 314.917 238.756 314.852 238.463C314.786 238.202 314.786 237.761 314.786 237.402V235.266C314.786 234.58 314.868 234.107 315.113 233.602C315.472 232.819 316.255 232.411 317.07 232.411C317.543 232.411 317.869 232.541 318.098 232.786C318.359 233.063 318.489 233.439 318.489 234.107V237.402C318.489 237.761 318.489 238.185 318.408 238.479C318.31 238.805 318.212 238.968 317.886 239.099C317.755 239.148 317.543 239.197 317.38 239.213V239.523H320.61V239.213C320.463 239.197 320.251 239.148 320.137 239.099C319.778 238.936 319.664 238.74 319.599 238.43C319.55 238.202 319.533 237.827 319.533 237.484ZM327.876 237.419C327.876 236.163 326.897 235.69 325.576 235.135C324.304 234.613 323.716 234.271 323.716 233.357C323.716 232.639 324.287 232.166 325.087 232.166C325.576 232.166 325.935 232.297 326.196 232.509C326.604 232.819 326.848 233.341 327.077 233.993H327.37L327.289 231.856H327.077L326.767 232.329H326.669C326.375 232.052 325.902 231.742 325.07 231.742C323.7 231.742 322.836 232.623 322.836 233.667C322.836 235.102 323.716 235.51 325.005 236.049C326.44 236.652 327.028 236.978 327.028 237.941C327.028 238.854 326.392 239.262 325.478 239.262C324.304 239.262 323.439 238.332 323.048 236.848H322.705L322.754 239.523H323.048L323.357 238.887H323.472C323.945 239.376 324.744 239.67 325.462 239.67C326.734 239.67 327.876 238.968 327.876 237.419Z" fill="black"/>
<path d="M232.625 10.9986V11.7653C232.625 12.6624 232.478 13.1192 232.315 13.2823C232.038 13.5596 231.418 13.7227 230.39 13.7227C229.575 13.7227 229.036 13.5922 228.384 13.2497C227.128 12.5972 226.328 11.2596 226.328 8.50288C226.328 5.7951 227.16 4.52277 227.992 3.91923C228.58 3.4788 229.167 3.26675 229.999 3.26675C231.369 3.26675 232.07 3.65824 232.674 4.47383C233.082 5.01213 233.375 5.72985 233.604 6.67594H233.946V3.16888H233.669L233.294 3.82135H233.228C232.821 3.39724 231.777 2.81001 230.031 2.81001C227.519 2.81001 224.942 4.91425 224.942 8.50288C224.942 11.9773 227.046 14.2284 230.423 14.2284C231.157 14.2284 232.136 14.1142 232.772 14C233.228 13.9184 233.62 13.7716 233.848 13.6738V11.6185C233.848 10.6071 233.881 10.0688 234.06 9.7589C234.223 9.48159 234.419 9.36741 234.696 9.26954C234.843 9.2206 235.023 9.18798 235.202 9.17167V8.84543H231.222V9.17167C231.401 9.18798 231.565 9.2206 231.711 9.26954C232.021 9.36741 232.201 9.46528 232.364 9.74259C232.56 10.0851 232.625 10.3788 232.625 10.9986ZM241.22 13.6738C241.057 13.6574 240.91 13.6411 240.779 13.5922C240.486 13.5106 240.225 13.3149 240.078 13.0213C239.866 12.5482 239.833 11.8631 239.833 10.8029V8.63337H245.265V10.8029C245.265 11.8631 245.216 12.5319 245.02 13.0213C244.89 13.3475 244.662 13.478 244.352 13.5759C244.205 13.6248 244.074 13.6574 243.895 13.6738V14H247.842V13.6738C247.663 13.6574 247.5 13.6248 247.337 13.5759C247.043 13.478 246.831 13.3149 246.684 13.0213C246.472 12.6135 246.44 11.8631 246.44 10.8029V6.2029C246.44 5.14262 246.472 4.44121 246.684 3.98447C246.831 3.67455 247.027 3.54405 247.288 3.44618C247.483 3.38093 247.663 3.36462 247.842 3.34831V3.02207H243.895V3.34831C244.074 3.36462 244.221 3.39724 244.335 3.42987C244.531 3.49512 244.89 3.67455 245.02 3.98447C245.216 4.45752 245.265 5.15893 245.265 6.2029V8.19295H239.833V6.2029C239.833 5.15893 239.882 4.45752 240.078 3.98447C240.225 3.67455 240.453 3.51143 240.779 3.41356C240.91 3.38093 241.04 3.36462 241.22 3.34831V3.02207H237.256V3.34831C237.452 3.36462 237.598 3.39724 237.778 3.44618C238.055 3.52774 238.267 3.67455 238.43 3.98447C238.659 4.44121 238.659 5.14262 238.659 6.2029V10.8029C238.659 11.8631 238.642 12.5482 238.43 13.0213C238.3 13.3149 238.088 13.478 237.745 13.5922C237.631 13.6248 237.452 13.6574 237.256 13.6738V14H241.22V13.6738ZM257.814 10.9986V11.7653C257.814 12.6624 257.667 13.1192 257.504 13.2823C257.227 13.5596 256.607 13.7227 255.579 13.7227C254.764 13.7227 254.226 13.5922 253.573 13.2497C252.317 12.5972 251.518 11.2596 251.518 8.50288C251.518 5.7951 252.35 4.52277 253.182 3.91923C253.769 3.4788 254.356 3.26675 255.188 3.26675C256.558 3.26675 257.26 3.65824 257.863 4.47383C258.271 5.01213 258.564 5.72985 258.793 6.67594H259.135V3.16888H258.858L258.483 3.82135H258.418C258.01 3.39724 256.966 2.81001 255.221 2.81001C252.709 2.81001 250.131 4.91425 250.131 8.50288C250.131 11.9773 252.235 14.2284 255.612 14.2284C256.346 14.2284 257.325 14.1142 257.961 14C258.418 13.9184 258.809 13.7716 259.038 13.6738V11.6185C259.038 10.6071 259.07 10.0688 259.25 9.7589C259.413 9.48159 259.608 9.36741 259.886 9.26954C260.033 9.2206 260.212 9.18798 260.391 9.17167V8.84543H256.411V9.17167C256.591 9.18798 256.754 9.2206 256.901 9.26954C257.211 9.36741 257.39 9.46528 257.553 9.74259C257.749 10.0851 257.814 10.3788 257.814 10.9986ZM269.437 4.19653C269.437 3.8866 269.454 3.73979 269.584 3.59299C269.698 3.46249 269.845 3.42987 270.122 3.42987H271.068C272.765 3.42987 273.629 4.21284 273.629 5.86035C273.629 6.39864 273.548 7.08374 273.173 7.55679C272.781 8.01352 272.129 8.43763 270.71 8.43763C270.318 8.43763 269.731 8.3887 269.437 8.32345V4.19653ZM270.873 13.6738C270.693 13.6574 270.498 13.6411 270.351 13.5922C270.024 13.4943 269.829 13.3312 269.666 13.005C269.486 12.5809 269.437 11.9936 269.437 11.0149V8.79649C269.682 8.82912 270.237 8.87805 270.693 8.87805C272.063 8.87805 272.961 8.56813 273.515 8.24189C274.298 7.78515 274.853 6.92062 274.853 5.72985C274.853 3.87029 273.336 3.02207 271.215 3.02207H266.86V3.34831C267.088 3.36462 267.251 3.39724 267.366 3.42987C267.659 3.52774 267.871 3.67455 268.034 3.98447C268.23 4.4249 268.263 5.01213 268.263 5.97453V11.0312C268.263 11.9936 268.23 12.5809 268.034 13.0213C267.871 13.3638 267.676 13.4943 267.415 13.5759C267.219 13.6411 267.056 13.6574 266.893 13.6738V14H270.873V13.6738ZM278.794 8.11139H278.696C278.696 8.17664 278.745 6.4802 278.745 6.51282C278.745 6.46389 278.713 6.41495 278.631 6.41495H276.641V6.70857C276.886 6.7575 277.13 6.80644 277.343 6.93693C277.489 7.0348 277.62 7.19792 277.669 7.39367C277.718 7.58941 277.718 8.17664 277.718 8.45394V11.961C277.718 12.2872 277.718 12.6461 277.652 12.9234C277.555 13.2823 277.424 13.4291 277.147 13.5759C276.984 13.6248 276.772 13.6738 276.625 13.6901V14H279.887V13.6901C279.708 13.6738 279.528 13.6411 279.349 13.5759C279.153 13.5106 279.039 13.3475 278.941 13.1192C278.811 12.8419 278.745 12.5319 278.745 11.8958V10.1993C278.745 9.77521 278.762 9.26954 278.778 9.17167C278.925 7.91565 279.757 6.90431 280.279 6.90431C280.474 6.90431 280.638 6.96956 280.735 7.18161C280.85 7.47523 280.98 7.73622 281.372 7.73622C281.812 7.73622 281.959 7.40998 281.959 7.10005C281.959 6.79013 281.845 6.59438 281.73 6.4802C281.535 6.31708 281.257 6.21921 280.964 6.21921C280.409 6.21921 280.018 6.44758 279.724 6.69225C279.365 7.00218 279.088 7.37736 278.794 8.11139ZM283.56 10.183C283.56 12.6624 285.289 14.1468 287.116 14.1468C288.942 14.1468 290.672 12.6461 290.672 10.1667C290.672 7.70359 288.942 6.21921 287.116 6.21921C285.272 6.21921 283.56 7.70359 283.56 10.183ZM284.718 10.183C284.718 8.73125 285.077 7.73622 285.729 7.14899C286.12 6.79013 286.642 6.62701 287.116 6.62701C287.572 6.62701 288.094 6.77381 288.486 7.14899C289.138 7.75253 289.497 8.74756 289.497 10.183C289.497 11.6021 289.122 12.6135 288.486 13.217C288.094 13.5922 287.589 13.739 287.116 13.739C286.626 13.739 286.12 13.5922 285.713 13.2007C285.077 12.6135 284.718 11.6021 284.718 10.183ZM297.12 12.9887C296.778 13.3801 296.337 13.5922 295.832 13.5922C295.032 13.5922 294.788 13.2333 294.788 12.5645L294.804 6.87169H296.859V6.41495H294.804V3.80504H294.543C293.988 5.86035 293.466 6.41495 292.553 6.56176V6.83906C292.716 6.83906 293.597 6.85537 293.793 6.85537C293.776 7.10005 293.776 12.4504 293.776 12.5482C293.776 13.2007 293.89 13.4943 294.151 13.7227C294.527 14.0326 294.918 14.1468 295.522 14.1468C296.19 14.1468 296.859 13.8532 297.3 13.2007L297.12 12.9887ZM298.904 10.183C298.904 12.6624 300.633 14.1468 302.46 14.1468C304.287 14.1468 306.016 12.6461 306.016 10.1667C306.016 7.70359 304.287 6.21921 302.46 6.21921C300.617 6.21921 298.904 7.70359 298.904 10.183ZM300.062 10.183C300.062 8.73125 300.421 7.73622 301.074 7.14899C301.465 6.79013 301.987 6.62701 302.46 6.62701C302.917 6.62701 303.439 6.77381 303.831 7.14899C304.483 7.75253 304.842 8.74756 304.842 10.183C304.842 11.6021 304.467 12.6135 303.831 13.217C303.439 13.5922 302.933 13.739 302.46 13.739C301.971 13.739 301.465 13.5922 301.057 13.2007C300.421 12.6135 300.062 11.6021 300.062 10.183ZM311.858 6.62701C312.673 6.62701 312.983 6.83906 313.212 7.68728C313.358 8.1277 313.521 8.43763 313.946 8.43763C314.288 8.43763 314.5 8.24189 314.5 7.83409C314.5 7.62203 314.435 7.32842 314.207 7.06743C313.831 6.64332 313.228 6.21921 311.874 6.21921C309.965 6.21921 308.432 7.93196 308.432 10.1667C308.432 11.7163 308.97 12.744 309.721 13.3638C310.259 13.8532 310.912 14.1468 311.809 14.1468C313.277 14.1468 314.288 13.2333 314.696 11.8631L314.304 11.7326C314.043 12.5319 313.456 13.6085 311.874 13.6085C311.385 13.6085 310.879 13.3965 310.553 13.0865C309.965 12.4993 309.574 11.5369 309.574 10.0851C309.574 8.60075 309.998 7.55679 310.618 7.05112C310.944 6.79013 311.401 6.62701 311.858 6.62701ZM316.654 10.183C316.654 12.6624 318.384 14.1468 320.21 14.1468C322.037 14.1468 323.766 12.6461 323.766 10.1667C323.766 7.70359 322.037 6.21921 320.21 6.21921C318.367 6.21921 316.654 7.70359 316.654 10.183ZM317.813 10.183C317.813 8.73125 318.171 7.73622 318.824 7.14899C319.215 6.79013 319.737 6.62701 320.21 6.62701C320.667 6.62701 321.189 6.77381 321.581 7.14899C322.233 7.75253 322.592 8.74756 322.592 10.183C322.592 11.6021 322.217 12.6135 321.581 13.217C321.189 13.5922 320.683 13.739 320.21 13.739C319.721 13.739 319.215 13.5922 318.808 13.2007C318.171 12.6135 317.813 11.6021 317.813 10.183ZM328.029 4.0171C328.029 3.41356 328.062 2.82633 328.062 2.50009C328.062 2.41853 328.029 2.3859 327.948 2.3859H325.925V2.69583C326.251 2.71214 326.463 2.74477 326.643 2.87526C326.79 2.98945 326.871 3.10363 326.936 3.31568C327.002 3.51143 327.002 4.11497 327.002 4.35965V12.1078C327.002 12.4177 327.002 12.7114 326.936 12.956C326.855 13.266 326.692 13.4454 326.431 13.5596C326.3 13.6248 326.105 13.6738 325.941 13.6901V14H329.057V13.6901C328.894 13.6738 328.714 13.6248 328.568 13.5596C328.323 13.4291 328.16 13.266 328.078 12.9071C328.029 12.6624 328.029 12.3851 328.029 12.1078V4.0171Z" fill="black"/>
</svg>
