<?xml version="1.0" encoding="utf-8"?>
<!-- Generator: Adobe Illustrator 23.0.3, SVG Export Plug-In . SVG Version: 6.00 Build 0)  -->
<svg version="1.1" xmlns="http://www.w3.org/2000/svg" xmlns:xlink="http://www.w3.org/1999/xlink" x="0px" y="0px"
	 viewBox="0 0 845.9 845.8" style="enable-background:new 0 0 845.9 845.8;" xml:space="preserve">
<style type="text/css">
	.st0{display:none;}
	.st1{fill:none;}
	.st2{fill:#FFFFFF;}
	.st3{fill:#F90000;}
	.st4{fill:none;stroke:#020202;stroke-miterlimit:10;}
</style>
<g id="Layer_3" class="st0">
	
		<image style="display:inline;overflow:visible;" width="1644" height="1438" xlink:href="8E2CE8B83147A208.png"  transform="matrix(0.6034 0 0 0.6034 -75.3839 -17.1986)">
	</image>
</g>
<g id="Layer_4">
</g>
<g id="Layer_2">
	<g>
		<path class="st2" d="M23.5,330.2c2.5-3.8,4-7.8,5.6-11.6c0.7-1.6,1.3-3.4,2.5-4.6c3-3,6.3-5.6,10.3-9.2c-1.5,3.7-2.7,6.5-3.8,9.4
			c0.4,0.2,0.9,0.4,1.3,0.6c1.5-2.1,3-4.2,4.5-6.3c0.9,3.1,1.9,6.5,3,10c1.4,0,2.9,0,4.5,0c1.2,1.8,1.1,5.4,4.8,2.5
			c2-1.5,4.7-2.2,7-3.3c0.2,0.4,0.4,0.8,0.7,1.2c-1.8,2.2-3,4.2,0.5,5.9c0.9,0.4,2,2,1.9,2.8c-0.9,4.8,2.7,7.7,4.6,11.3
			c0.8,1.5,1,3.4,1.5,5c1,3.2,1.7,6.6,3.4,9.4c0.7,1.2,3.4,1.5,5.2,1.9c2.2,0.5,4.7,0,6.6,1c7.4,3.6,10.4,10.5,12,18.1
			c0.7,3.6-0.4,8.1,1.4,10.8c3.1,4.6,1.8,7.6-0.9,11.3c-2,2.7-0.8,4.3,2.3,4.9c2,0.4,3.9,0.9,5.8,1.3c0.1,2.3,0.2,4.3,0.2,6
			c1.7-1,3.2-2.7,4.6-2.5c6.5,0.6,15.1,9.5,15.7,16.1c4-2.9,7.6-0.9,11.2,0.8c2,0.9,4.2,2.2,6.2,2c6.4-0.6,10.4,3.2,14.4,7.1
			c2.1,2.1,3.6,4.6,5.7,6.7c1.7,1.7,3.8,4,5.9,4.2c7,0.4,8.1,5.1,8.7,10.4c0.1,1.2,0.6,2.3,0.7,3.5c0.8,7.7-0.4,14.7-5.1,21.2
			c-3.7,5-6.8,10.5-10.2,15.7c-1.2,1.9-2,4.1-3.6,5.5c-3,2.6-2.8,5.7-2.8,9.1c0.1,12.5,0,25.1-0.1,37.6c0,1.1-0.8,2.2-1,3.3
			c-0.9,3.6-1.6,7.3-2.5,10.9c-0.2,1-0.3,2-0.8,2.8c-1.2,2-2.7,3.8-3.9,5.5c-3.3,0.6-6.8,1-10,2c-2.1,0.7-3.8,2.7-5.8,3.6
			c-7.3,3.3-10.3,11.3-7.6,19.1c1.4,4,2,8.5,2.2,12.8c0.1,3.1-0.9,6.3-1.5,9.4c-0.7,3.6-1.5,7.1-2.2,10.7c-0.2,1.1-0.5,2.3-0.5,3.4
			c-0.1,3.6,0.1,7.3-0.2,10.9c-0.2,2.4-1.3,4.2-4.4,3c-3.6-1.4-7.2-2.6-12-4.2c2.7,2.5,4.6,3.9,6.1,5.7c1.5,1.8,2.1,4.5,3.8,5.7
			c3.9,2.8,4.4,6.7,5,10.8c0.4,3-1.1,4.8-3.9,5.4c-1.8,0.4-3.6,0.4-5.7,0.5c1.9,3.1,3.7,6,5.5,9.1c0.4,0.8,0.4,1.8,0.6,2.7
			c-1,0-2.1,0.2-3.1,0.1c-0.6,0-1.1-0.4-1.7-0.6c-0.3,0.4-0.6,0.9-0.9,1.3c2.6,2.2,5.3,4.3,7.9,6.6c0.8,0.7,1.5,1.6,1.8,2.5
			c2.2,5.9,3.8,12.1,6.6,17.7c1.3,2.6,4.8,4.1,7.1,6.3c1.9,1.9,4,3.9,5.2,6.2c3.3,6.5,6.5,13,12.6,17.6c1.3,0.9,2,2.6,3,3.9
			c6.3,3.9,12.8,8,19.3,12.1c-0.1,0.4-0.1,0.8-0.2,1.2c-1.7-0.1-3.6,0.2-5.1-0.5c-3.3-1.5-6.8-3-9.7-5.2
			c-8.6-6.6-17.4-13.1-25.1-20.6c-7.7-7.5-14.4-16-21.3-24.3c-2.4-2.9-3.6-6.8-5.9-9.8c-2.8-3.6-6.6-6.5-9.1-10.2
			c-7-10.6-14-21.3-20-32.5c-6.4-11.9-12.4-24-17.2-36.6c-6.9-18.4-13.2-37.1-18.6-55.9c-5-17.2-9.3-34.4-20.8-48.9
			c-2.9-3.7-4.8-8.5-5.9-13.1c-3.5-14.3-6.4-28.6-9.4-43c-2.6-12.6-5.2-25.3-1.7-38.3c0.2-0.7,0.4-1.5,0.2-2.2
			c-2.8-8.7-0.5-17.4,1.8-25.4c3.8-13.5,7-27.1,8.9-41c0.8-5.7,1-11.5,1.4-17.3c-0.3-0.1-0.6-0.1-0.9-0.2"/>
		<line class="st3" x1="663.3" y1="143" x2="667.3" y2="136.1"/>
		<path class="st2" d="M429.8,75.9c-1,0-1.8,0-2.6,0c-0.6-3.3-2.3-7.1,1.5-9.3c2.6-1.5,5.9-2,8.9-2.9c0.2,0.5,0.4,0.9,0.6,1.4
			c-0.8,0.9-1.6,1.8-2.6,3c2.3,0.2,4.5,0.4,7.8,0.7c-2.1,2.5-3.5,4.2-4.5,5.4c3.3,3.5,6.6,6.9,9.8,10.3c2.1,2.3,4.1,4.6,7,7.8
			c-0.6,5.8-1.9,6.5-9,6.5c-7.5,0.1-15.1,1-22.6,1.6c-0.7,0-1.3-0.1-3.4-0.3c3.9-2.2,6.6-3.8,9.6-5.6c-1.6-0.6-3.2-1.1-5.8-2
			c2.2-1.1,3.4-1.7,4.6-2.3c-1.2-4.5-0.8-4.9,3.4-4.7c1.3,0.1,2.5-0.6,3.8-1c-0.9-1.4-1.5-3-2.8-4c-1.1-0.8-2.7-0.8-4.5-1.2
			C429.3,78.2,429.5,77.4,429.8,75.9z"/>
		<path class="st2" d="M405.5,90.2c1.2-2.7,2.3-5.4,4-9.1c4.2-0.7,9.1-7.7,16.4-0.6c-3,3.2-5.4,7.2-9,9.1c-3.4,1.8-8,1.3-12,1.9
			C405.1,91.2,405.3,90.7,405.5,90.2z"/>
		<path class="st2" d="M514.3,170.8c6.5,0.2,11.6,0.4,16.9,0.5c-0.1,2.7-0.2,5.4-0.3,9.2C525.8,176.4,518.7,177.2,514.3,170.8z"/>
		<path class="st2" d="M490.5,153c7.7-1.4,8.8-0.1,7.9,9.8c-2.1-1.5-5.6,3.8-6.8-1.7C491,158.5,490.9,155.7,490.5,153z"/>
		<path class="st2" d="M496.2,150.9c-5.7-4-5.7-6.2-0.2-9.5C496.1,144.6,496.1,147.2,496.2,150.9z"/>
		<path class="st2" d="M728.6,536.5c3,9.1-0.8,17.3-1.3,26.3c-1.1-0.4-1.5-0.5-1.7-0.7c-0.3-0.3-0.4-0.7-0.6-1.1
			c-0.3,0.1-0.7,0.1-0.7,0.3c-3.5,12.9-11.2,23.7-17.8,35c-4.7,8-9.9,15.6-14.6,23.6c-2.6,4.4-7.4,4.4-11.2,6.1
			c-2.1,0.9-5.8-4.3-5.2-7.2c0.8-4.4,1.1-9.2,2.9-13.2c2-4.6,5.2-8.9,8.3-12.9c2.7-3.5,4.7-7,4.4-11.6c-0.4-6.4,2.7-11.8,6.3-16.5
			c1.6-2.1,6-2,8.5-3.8c4.5-3.2,9-6.6,12.8-10.7C722.3,546.2,725.1,541.4,728.6,536.5z"/>
		<path class="st2" d="M15.3,313.7c4.1-23.9,25.8-69.1,36-78c-0.4,5.3-0.8,10.7-1.2,16.2c4.5,1.2,5.1,0.3,4.7-4.9
			c-0.4-5.4-0.1-10.9-0.1-17.5c-2,1.5-3.1,2.3-4.2,3.1c-0.3-0.2-0.7-0.4-1-0.5c8.4-14.2,16.9-28.4,25.3-42.6
			c0.4,0.2,0.8,0.5,1.2,0.7c-2.6,4.2-2.1,10.3-4.4,14.6c-2.4,4.3-7.3,11.2-5.5,12.7c1.1,0.9,10.1-8,12.4-12.3
			c7.2-13.3,6.2-27.8,17.8-38c5.8-5.1,11.5-10.3,17.1-15.7c1.9-1.8,3-4.4,4.9-6.2c6.2-5.8,12.4-11.5,18.8-17.1
			c1.7-1.5,3.8-3.2,5.9-3.5c4.9-0.6,7.2-4,10.3-7c2.9-2.8,6.7-4.6,10.2-6.6c3-1.8,6.1-3.4,9.3-4.9c1.4-0.6,3-0.7,4.8-0.4
			c-3.3,2.2-6.7,4.5-10,6.7c0.3,0.5,0.6,1,0.8,1.5c7.9-6.4,19.3-5.4,26.6-13.3c-10.2,3.5-10.2,3.5-10.1-0.2c1.2,0.5,2.5,1.1,4.6,2
			c-2.3-5.1-1.1-7.4,4.2-10.6c1.8-1.1,3.5-2.2,5.2-3.3c-0.2-0.5-0.5-1-0.7-1.5c-2.8,0.8-5.7,1.6-8.4,2.3c2.9-3.7,13.6-7,18.1-6.5
			c3.4,0.4,7.1-0.2,10.5-0.8c3.3-0.6,6.4-1.7,9.7-2.5c1.3-0.4,2.5-0.8,3.8-1.2c5.6-2.2,9.4-6.5,12.3-11.6c0.3-0.5,0.8-1.2,0.6-1.5
			c-2.7-4.6,0.7-6.1,3.8-8.2c4.1-3,7.8-6.5,11.3-10.5c-3.8,1.5-7.7,3-11.5,4.4c-0.2-0.4-0.4-0.7-0.6-1.1c5.3-3.5,10.6-7,16-10.6
			c-0.7-1-1.1-1.6-1.9-2.8c5.1-1.7,9.7-3.3,14.3-4.9c0.2,0.3,0.3,0.7,0.5,1c-2.3,1.9-4.6,3.8-6.9,5.6c0.3,0.3,0.5,0.6,0.8,0.9
			c4.1-1.3,8.5-2.2,12.4-4.1c4.4-2.1,8.5-5,13.3-6.8c-0.7,0.8-1.5,1.7-2.5,2.8c6.3-1.7,12.6-2.5,16.4-8.1c0.2-0.3,0.7-0.6,1-0.8
			c15.8-6.3,31.9-11.7,49-13c1.4-0.1,2.9,0.2,4.6,1.2c-5,1.9-10.1,3.7-15.1,5.6c-4.9,1.8-9.8,3.6-15.3,5.6c1.2,0.3,2,0.6,2.7,0.8
			c-11.8,1.7-21.8,7.2-31,14.4c-2.8,2.2-4.8,5.4-6.7,7.6c1.7,1.7,2.9,3.4,4.6,4.4c1,0.6,3,0.5,4.1-0.1c3.9-1.9,7.7-4.2,11.5-6.3
			c1.3-0.7,2.5-1.3,3.9-1.9c3.9-1.6,7.8-3.4,11.8-4.7c4.2-1.3,8.5-2,12.8-2.8c2.4-0.5,5-0.5,7.4-0.9c13.4-2.2,26.8-4.5,40.5-6.8
			c-0.8-0.4-1.6-0.8-2.3-1.1c0-0.3,0-0.6-0.1-1c1.2,0.1,2.4,0.3,3.7,0.3c1.7,0,3.3,0.1,4.9-0.3c0.3-0.1,0.2-2,0.3-2.9
			c5.4-2.3,11.9-2.2,17.4-6.6c3.8-3,9.5-3.6,14.4-5.1c1.6-0.5,3.3-0.4,5.6-0.7c-2.6-0.9-4.6-1.5-6.6-2.2c0.1-0.4,0.2-0.9,0.3-1.3
			c9.8,0.5,19.6,0.5,29.4,1.5c26.3,2.8,47,4.4,47,4.4c-12.4-1.9-53.8-12.4-109.4-8.7c-27.2,1.8-52.7,2.9-89.5,13.6
			C271.6,26.6,220.7,50,190.8,70.3c-13.3,9-64.3,44.5-99.2,90.1C49.8,215,24.2,281.1,21,292.7"/>
		<path class="st2" d="M71.3,274c-6.4-3-12.1-5.6-22.2-10.3c7.2-2.7,12.1-4.5,20-7.5c1.6-7.7,4-18.5,6.5-30.5
			c9.7,2.8,22.1-3,25,15.2c3.4,21.7,5,21.1-16,26C79.2,268.2,74.3,272.3,71.3,274z"/>
		<g>
			<polygon class="st2" points="750.6,361.9 750.6,361.9 750.6,361.9 			"/>
			<path class="st2" d="M750.6,361.9C750.5,361.7,750.3,361.5,750.6,361.9L750.6,361.9z"/>
			<g>
				<path class="st2" d="M574.6,664.1c7.3-4.8,13.9-10.6,20.9-16c1-0.8,1.9-2.1,3-2.5c7.7-2.8,10.4-10,14.3-16
					c0.6-1,1.6-2.3,1.3-3.2c-1.4-4.8,2.2-5.6,5.2-7c1.2-0.5,2.5-0.9,3.7-1.5c3.7-1.9,9.1-3,10.8-6c3.3-5.9,5.4-12.8,3.8-19.9
					c-0.9-4.2,0-7.2,3.9-9.7c4.8-3.1,9-7.1,13.7-10.2c3.6-2.4,7.8-4,11.7-5.9c8-3.8,13.3-9.6,14.4-18.8c0.5-4.4,1.3-8.8,2.6-12.9
					c2.4-8,1.2-15.7-1-23.4c-1.3-4.7-0.5-8.9,1.2-13.2c0.5-1.2,0.5-3.4-0.3-4.1c-2.6-2.4-2.2-5.1-0.9-7.6c2.6-5.2,5.8-10.1,8.1-15.3
					c2.4-5.5,5.9-9.7,10.8-13.2c1.7-1.2,2.2-4.1,3.7-5.9c4.4-5.1,8.6-10.6,13.8-14.7c10.6-8.4,17.7-19.2,22.7-31.4
					c5.3-13,8.9-26.4,8.7-40.6c0-1-0.1-2.1-0.2-3.1c0,0,0,0,0,0c-9.8,2.6-19.4,5.2-29,7.8c-2.6,0.7-4.5,0.4-6-2.1
					c-1.5-2.6-3.4-5-5.2-7.6c3.2-2.4,2.1-4.9-0.2-7.5c-6.9-7.6-14.1-14.9-20.5-22.9c-2.7-3.4-3.8-8.2-5.7-12.3
					c-0.8-1.7-1.6-3.7-3-4.8c-7-5.5-8.3-13.1-9.1-21.3c-0.5-5-3.7-8.9-7.7-11.8c-2.7-2-4-4.3-4-7.8c0-1.5-1.3-3-2.2-4.4
					c-6.5-9.9-13.1-19.7-19-29.9c2.4,2.5,4.8,5,8,8.4c0.6-3.6,1-6.2,1.5-8.8c0.2,0,0.6,0.1,0.6,0.1c0.5,2.9,1.7,4.9,3.8,7.3
					c5.7,6.4,10,13.9,14.8,21c1.1,1.5,2,3.5,3.5,4.4c5.7,3.5,8.5,8.7,9.8,14.9c1.2,5.6,3.5,10.4,8.3,14c1.9,1.4,3.5,3.6,4.8,5.6
					c3.9,6.3,7.6,12.7,11.2,19.1c0.9,1.6,1.3,3.6,1.7,5.4c1.7,7.3,3.1,14.7,4.9,22c1,3.9,6.2,5,9.3,1.8c2-2,3.9-2.7,6.7-3.3
					c3.7-0.8,7.2-2.8,10.6-4.7c3-1.7,5.6-4.1,8.5-5.8c2.7-1.6,4.9-2.8,5.1-6.7c0.2-4.5,5.3-4.1,8.1-5.9c1-0.6,2-1.4,2.6-2.4
					c0.9-1.3,1.6-2.9,3-4c1.1-2.6,2.2-5.1,3.7-8.7c-3-3.8,0.7-8.5,1.6-13.3c1.2-6.4-0.9-14.3-6.5-17c-7.9-3.8-11.1-10.4-12.8-19.3
					c-1.7,5.3-3.1,9.6-4.6,14c-2.7,0.1-5.6,0.9-7.7-0.1c-1.8-0.8-3-3.4-4-5.5c-1.1-2.6-1.7-5.4-2.5-8.2c-0.5,0.1-0.9,0.2-1.4,0.3
					c-0.2,1.4-0.5,2.7-0.9,4.9c-1.2-1.7-2.5-2.8-2.7-4c-0.8-5.8-5.7-8.5-8.8-12.6c-3.4-4.5-6-9.6-9-14.5c5.4-2.7,8.5-2.2,11,2.6
					c4.2,8.1,11.5,13.1,18.2,18.7c2.2,1.9,5.1,4.2,8.2,0.3c1.6-2,4-1.1,5,1.1c6.1,12.7,17.5,12.8,29,12.2c2.8-0.1,4.2,0.4,5.7,2.6
					c3.4,4.9,7.3,9.5,10.4,14.5c2.3,3.6,3.6,7.8,5.5,11.7c0.6,1.3,1.6,2.4,2.6,3.9c1.2-1,2.1-1.7,4-3.2
					c8.4,31.7,16.7,62.8,25.3,95.1c0.3-7,1.3-13.2,0.7-19.3c-0.9-10.4-3-20.6-4.1-31c-0.7-6.9-0.5-13.8-0.8-21.4l6.2,18
					c0,0-21.3-116.3-96.7-197.2c-67.9-72.9-100.5-80.9-130.4-99.9l-12.5-6.6l-28.5-11l22.8,16l-7.6-1.8l-0.9-0.2l0.9,2.9l-7.9-1.7
					l-3.6,5.3l-9.4-6.5l-1.6,1.5l7.1,6.2l-3.2-0.1l1.5,4.8l-6.6-1.1c0,0,1,2.2,1.3,1.8l-1.4,1.3l-13.4-9.5l9.1,2.4l7-1.1l-6.3-3.3
					l-29.6-7.6c0,0-8.1-6.2-14-4.6c-2,0.4-3.3,0.9-3.3,0.9l-11.1,2.7c0,0-3.8,1.8-5.3,3.6c-1.5,1.8-6.5,9-11.7,10.6
					c-5.2,1.6-10.6,3.3-10.6,3.3s-3.1,0.7-2.3,4.3c0.8,3.6,3.6,12.8,7.8,12.6c4.2-0.1,8.9-2.8,10.9-3.4c2-0.6,3.8-0.4,5.8,3.2
					c2.1,3.6,7.7,9.9,7.7,9.9l-7.3,0.7l5.2,3.9l14.9-4.8l0.2-7.9c0,0,3.6-2.6,3.2-4.4c-0.3-1.6-3.7-3.8-5.3-5.9
					c-1.6-2.1-2.6-3-1.6-4.2c1-1.2,6.9-5.8,7-6c0.1-0.2-0.2-2.7-0.2-2.7l2.7-2.1l8.7,2c0,0-6.6,4.4-6.9,6.5
					c-0.3,2.1,0.7,5.8,3.8,8.2c3.1,2.3,8,4.6,15,4l11.4,0.5c0,0.8,0,1.6,0,2.4l-15.3,0.1l-0.5,0.8c0,0,5.2,2.9,5.5,4.1
					c0.3,1.2,1.8,3.9,1.8,3.9l-1,0.9c0,0-5.9-3.2-7-2.9c-1.2,0.3-3.3,2.2-1.9,5.3c1.4,3.1,2.3,3.9,2.3,3.9s-4.4,3-6.8,2.6
					c-2.4-0.4-6.3-1.6-10.8-0.4c-4.5,1.1-9.4,2.1-9.4,2.1s-0.4-1.9-5.2-2.2c-4.8-0.2-7.8,1-9.6-1.2l-2.8-2.5
					c-2.6-2.6-1.1-4.7,1.6-5.5l-1.7-5.5c0,0-6.8-0.7-7.5,2.2c-0.7,2.9-1.6-0.4,1.1,7.4c1.8,5.2,2.3,5.5-3.2,5.7
					c-2.5,0.1-4.9,0.4-7.4,0.7c-2.9,0.4-5.4,1.3-6.6,4.4c-0.5,1.2-1.3,2.7-2.3,3.1c-7,3-14,5.9-21.2,8.4c-1.3,0.5-3.3-0.6-5.1-1.1
					c0,1.2,0,2.6,0,4c-4.4-0.4-8.9-0.7-13.2-1.1c-1.5,3.1-0.6,4.2,1.9,5c2.2,0.7,4.5,1.6,6.3,3c5.9,4.5,7.2,9.7,4.3,16.4
					c-1.1,2.4-2.7,3.9-5.9,3.5c-9-1.3-18-2.6-27-3.3c-3.3-0.3-6.7,1.2-9.4,1.8c-0.6,7.6,1.3,14.6-4.8,20.1c-2,1.8-3.2,4.2-0.1,7
					c1.3,1.3,0.5,4.9,0.7,8.1c2-0.1,4.7-0.5,7.3-0.3c2.5,0.2,5.1,0.2,6.3,3.6c1.4,4,3.2,3.9,7.1,2.2c2.9-1.3,6.4-1.6,9.6-1.6
					c4.2,0,8.2,0.8,11.7-2.9c2.7-2.9,6.6-4.6,9.7-6.8c-1.7-6.6,3-13.2,9.3-13.8c5.7-0.6,7.2-2,8.6-7.6c0.3-1.1,1.7-2.5,2.8-2.6
					c3-0.4,6.3-0.9,9.1,0c5.9,2,10.5-0.3,15.2-2.8c3.6-2,9.7-0.3,11.6,3.5c3.6,7.1,9.8,10.9,16.8,13.9c6.5,2.7,12.6,6.2,16.1,12.6
					c1,1.8,0,4.6-0.2,8.5c2.8-3.2,5-5.3,6.5-7.8c0.3-0.6-1.9-2.7-3.2-4.4c0.9-3.9,1.9-3.9,9.6,0.9c-0.4-1.4-0.4-2.6-1-3
					c-1.6-1.3-3.4-2.3-5.2-3.3c-4.8-2.6-9.9-4.7-14.3-7.9c-5.2-3.7-9.9-8.2-14.4-12.7c-1.2-1.2-1.2-3.7-1.7-5.5
					c5.2-2.7,5.6-2.6,8,2.7c2.5-1.6,4.4-1.5,6.1,1.5c4,7.5,12.2,9.2,18.8,12.9c4.1,2.3,7.2,4.2,7.8,9.8c0.4,3.3,4.1,6.3,6.4,9.4
					c3,4.3,6.2,8.5,9.1,12.8c2.2,3.3,5.2,4.9,8.7,5.3c0-2.7,0-5.3,0.1-8.1c1.4,0.2,2.6,0.3,4.5,0.6c-4-5.3-7.6-10-11.3-14.8
					c0.2-0.2,0.5-0.4,0.7-0.5c2.4,0.9,4.9,1.7,7.3,2.6c0.2-0.4,0.4-0.8,0.6-1.3c-0.8-0.9-1.6-1.9-2.4-2.8c5.5-2.2,8.4-1.6,12.7,2.7
					c3.5-1.5,7-2.9,10.3-4.3c-1.7-1.7-4.3-3.6-6.1-6.2c-1-1.4-1.2-3.7-1.1-5.6c0.1-2.5,0.8-4.9,1.1-6.4c1.4-3.3,2.3-5.9,3.7-8.3
					c0.6-1,2.5-2.3,3.3-2.1c3.4,1.1,6.6,2.8,10.2,4.4c-0.9,0.8-1.8,1.6-2.2,2c1.9,1.9,3.5,3.7,5.5,5.1c0.9,0.6,2.5,0.9,3.5,0.5
					c2.4-0.8,4.7-2.1,7.9-3.5c-2.4-0.6-4.2-0.7-5.7-1.5c-1.4-0.8-2.4-2.3-4.5-4.4c5.5-1.4,10.1-2.6,14.6-3.8
					c0.1,0.4,0.3,0.8,0.4,1.1c-1,0.6-2.1,1.2-3.5,2c3.6,2.4,2.9,4.9,0.2,7.6c5.6,3.2,11.1,6.2,16.4,9.6c3.9,2.4,7.7,5.2,11.2,8.1
					c1,0.8,1.6,3.6,1.1,4.1c-1.2,1.1-3.1,1.7-4.8,1.9c-7.4,1-13.6-2.5-20-5.5c-6.1-2.8-11.9-2.6-17.9,1c-2.6,1.5-6.6,0.7-10.6,0.9
					c-0.2,0.5-0.6,1.6-1.2,3.2c-4-0.1-8.9-1.1-10.6,5c1.5,1.5,4.6,3,2.6,6.4c-0.1,0.1-0.1,0.3-0.1,0.4c0.2,1.2,10.4,10.2,11.6,10.4
					c1.8,0.4,3.8,0.7,5.4,1.6c2.7,1.5,4.9,3.6,8,0c0.8-0.9,5.2,0.7,7.4,1.9c4.4,2.5,8.7,2.2,12.2-1.5c2.1,0.6,5.5,0.5,6.2,1.9
					c2,3.7,3.6,8,3.8,12.1c0.3,5.9-1,11.9-1.4,17.9c-0.2,3.1-1.9,4.3-4.7,3.6c-3.5-0.9-6.8-2.6-10.3-3.2c-3.1-0.5-6.6-0.6-9.5,0.3
					c-2.7,0.9-4.8,1.7-7.8,0.6c-5.3-2-11-2.8-16.4-4.7c-5.2-1.8-10.4-4-15.2-6.8c-4-2.4-10.6-3.6-14.1-1.3c-2.7,1.7-4.3,3.8-2.7,7.3
					c0.5,1.1-0.2,3.5-1.2,4.4c-1,0.9-3.3,1.4-4.6,0.9c-6.1-2.2-12-4.7-18-7.1c-0.9-0.4-1.8-1.1-2.2-1.9c-3.2-6.9-10-7.7-16.1-8.9
					c-4.9-1-9.8-1.4-13.1-5.9c-0.4-0.6-1.5-0.7-2.3-1.1c-2.2-1.3-3-2.9-0.7-4.7c3-2.4,2.7-4.7,1.3-8c-0.7-1.6,0.2-4,0.5-6.4
					c-0.7,0.2-2.1,0.5-3.6,0.8c-0.8-3.7-3.5-3.8-6.4-2.9c-3.7,1.2-7.3,2-11-0.1c-1.2-0.7-3-0.8-4.3-0.4c-8.8,2.5-17.7-0.8-26.5,0.7
					c-3.9,0.6-7.6,2.3-11.4,2.7c-7.3,0.7-14,6.4-22,2.5c-3-1.5-6.4-2.1-9.7-3c-2.1-0.6-4.2-1-5.7,1.6c-3.4,5.7-8.4,9-14.8,11
					c-6.9,2.1-12.3,10-11.8,17.2c0.4,5.1-3.3,6.9-6.4,8.4c-4.7,2.4-8.6,7-14.7,6c-6.1,5.5-14.1,9-18,16.9c-1,2-2.4,4-4.2,5.3
					c-3.8,2.9-7.3,5.8-8.7,10.6c-0.5,1.7-2.1,3.1-3.5,4.3c-3.5,3-3.9,5.8-1.4,9.7c0.8,1.2,1.7,2.9,1.4,4c-1.9,7.7-0.8,15.7-4.8,23.4
					c-2.6,5.1-4.6,10-9.5,13.5c2.8,3.4,4.6,6.7,3.1,11.5c-1.5,4.9,1.8,9.6,6,12.7c2.7,2,4.4,5.4,6.5,8.2c0.3,0.4,0.3,1.3,0.7,1.6
					c5.5,4,7.6,9.5,8.6,16.1c0.5,2.9,3.9,5.6,6.5,7.9c5,4.6,10.4,8.9,15.6,13.2c3.2,2.6,6.2,5.4,9.8,7.3c2.1,1.1,5.1,1,7.5,0.6
					c4.7-0.8,9.4-3.1,14.1-3.1c6.6,0,13.4,0.9,19.8,2.8c4.4,1.3,8.1,1,11.8-0.6c10.8-4.7,21.9-7.2,33.8-6.3
					c6.2,0.4,9.2,3.5,11.3,8.6c2.5,6.3,5.3,8.5,9.9,7.9c2.1-0.3,4.3-0.5,6.3-0.9c2.2-0.4,4.3-1,6.1-1.5c2.6,2.8,5.4,5.1,7.2,8
					c1.3,2.1,2.5,5.5,1.7,7.5c-3.2,8.2-2.3,17.7-7.9,25.1c-0.6,0.8-0.3,3,0.4,4.1c3.4,5.6,6.8,11.3,10.7,16.5
					c4.9,6.5,9.6,12.6,10.2,21.3c0.3,4.8,2.9,9.4,4.3,14.1c0.3,0.9,0.6,2.5,0.1,2.9c-4.7,4.6-1.2,9.2,0.4,13.4
					c2,5.6,1.5,10.7-2.7,14.8c-10.1,9.9-15,22.1-15.7,36c-0.1,1.1-0.1,2.6,0.5,3.4c4.3,5.4,4.1,12.5,6.8,18.4
					c3.6,7.7,5,15.1,3.7,23.6c-0.9,6,0.2,12.3,0.7,18.4c0.1,2,0.8,4,1.5,5.9c3,7.9,6.3,15.7,9.2,23.6c0.5,1.5,0.7,4-0.2,5
					c-2.1,2.4-1.4,5.1-2.1,7.6c-0.7,2.8,0.1,4.9,2,6c2.4,1.5,4.5,3.6,8.5,2.1c7.5-2.6,15.2-4.2,23.6-2.7
					C558.7,671.3,567.3,668.8,574.6,664.1z M695.4,186.5c-4-2-6.7-11.9-5.6-14.8c-6.7-7-13.1-13.7-19.6-20.3
					c-1.5-1.6-3.4-2.8-4.9-4.4c-2-2.2-2.8-4.6-0.1-7.1c1-0.9,1-2.8,1.9-3.7c2.4-2.5,8.3-2.2,10.8,0.6c1.5,1.7,2.8,3.7,4.6,6.2
					c-2,0-3.1,0.1-4.2,0.1c0,1.6,0.1,3,0.1,4.4c-0.3,0.1-0.7,0.3-1,0.4c5.9,5.1,11.7,10.2,17.6,15.3c1.4-1.6,1.4-1.6,8.7,6
					c-1.9,0.2-3.1,0.4-5,0.6c5.1,7,10.3,14.1,15.8,21.7C706,196,701.1,189.3,695.4,186.5z"/>
			</g>
		</g>
		<path class="st2" d="M261.5,812.4c-3.6-2.6-8.2-5.9-12.8-9.3c-3.7-2.6-11-7.8-11-7.8l-2.1-7.3l7.5-4.1l0,8.3c0,0,10.1,5.1,15,7.5
			c11.2,5.4,14.8,12.7,26,18.1c12.3,5.9,25.4,8.2,39,10.6c5.4,1,20.9,4.8,20.9,4.8s0-1.3,0.1-2c6.2-1,12.3-2,19.7-3.2
			c-1.9-1.4-2.6-1.9-3.9-2.8c2.7-0.8,5.3-0.8,6.6-2.1c4.1-4.2,8.9-0.8,13.3-1.5c5.3-0.9,11.1,1.2,16.6,1.2c6.4,0,12.8-1.6,19.1-1
			c4.1,0.4,7.9,1.9,12,0.4c0.3-0.1,0.6,0,0.9,0c6.6,1,13.2,2.8,19.8,2.9c9.6,0,19.2-1.3,28.8-1.9c1.6-0.1,3.2,0.6,4.9,0.8
			c2.6,0.4,5.2,1,7.8,0.9c3.5-0.1,7-0.9,10.5-1.4c8.5-1.2,17.1-2.5,25.6-3.7c3.6-0.5,7.2-0.8,11.2-1.3c-1.6,2.5-2.6,4.1-3.8,6.1
			c3-0.1,5-0.2,7-0.2c0,0.6,0.1,1.2,0.1,1.7c-5.8,1.7-11.3,5-17.1,6.7c0,0-30.5,8.5-71.3,11.7c-21.6,1.7-47.8,0.7-70.3-1.1
			C316.7,838.3,261.5,812.4,261.5,812.4z"/>
		<path class="st4" d="M23.5,330.2c2.5-3.8,4-7.8,5.6-11.6c0.7-1.6,1.3-3.4,2.5-4.6c3-3,6.3-5.6,10.3-9.2c-1.5,3.7-2.7,6.5-3.8,9.4
			c0.4,0.2,0.9,0.4,1.3,0.6c1.5-2.1,3-4.2,4.5-6.3c0.9,3.1,1.9,6.5,3,10c1.4,0,2.9,0,4.5,0c1.2,1.8,1.1,5.4,4.8,2.5
			c2-1.5,4.7-2.2,7-3.3c0.2,0.4,0.4,0.8,0.7,1.2c-1.8,2.2-3,4.2,0.5,5.9c0.9,0.4,2,2,1.9,2.8c-0.9,4.8,2.7,7.7,4.6,11.3
			c0.8,1.5,1,3.4,1.5,5c1,3.2,1.7,6.6,3.4,9.4c0.7,1.2,3.4,1.5,5.2,1.9c2.2,0.5,4.7,0,6.6,1c7.4,3.6,10.4,10.5,12,18.1
			c0.7,3.6-0.4,8.1,1.4,10.8c3.1,4.6,1.8,7.6-0.9,11.3c-2,2.7-0.8,4.3,2.3,4.9c2,0.4,3.9,0.9,5.8,1.3c0.1,2.3,0.2,4.3,0.2,6
			c1.7-1,3.2-2.7,4.6-2.5c6.5,0.6,15.1,9.5,15.7,16.1c4-2.9,7.6-0.9,11.2,0.8c2,0.9,4.2,2.2,6.2,2c6.4-0.6,10.4,3.2,14.4,7.1
			c2.1,2.1,3.6,4.6,5.7,6.7c1.7,1.7,3.8,4,5.9,4.2c7,0.4,8.1,5.1,8.7,10.4c0.1,1.2,0.6,2.3,0.7,3.5c0.8,7.7-0.4,14.7-5.1,21.2
			c-3.7,5-6.8,10.5-10.2,15.7c-1.2,1.9-2,4.1-3.6,5.5c-3,2.6-2.8,5.7-2.8,9.1c0.1,12.5,0,25.1-0.1,37.6c0,1.1-0.8,2.2-1,3.3
			c-0.9,3.6-1.6,7.3-2.5,10.9c-0.2,1-0.3,2-0.8,2.8c-1.2,2-2.7,3.8-3.9,5.5c-3.3,0.6-6.8,1-10,2c-2.1,0.7-3.8,2.7-5.8,3.6
			c-7.3,3.3-10.3,11.3-7.6,19.1c1.4,4,2,8.5,2.2,12.8c0.1,3.1-0.9,6.3-1.5,9.4c-0.7,3.6-1.5,7.1-2.2,10.7c-0.2,1.1-0.5,2.3-0.5,3.4
			c-0.1,3.6,0.1,7.3-0.2,10.9c-0.2,2.4-1.3,4.2-4.4,3c-3.6-1.4-7.2-2.6-12-4.2c2.7,2.5,4.6,3.9,6.1,5.7c1.5,1.8,2.1,4.5,3.8,5.7
			c3.9,2.8,4.4,6.7,5,10.8c0.4,3-1.1,4.8-3.9,5.4c-1.8,0.4-3.6,0.4-5.7,0.5c1.9,3.1,3.7,6,5.5,9.1c0.4,0.8,0.4,1.8,0.6,2.7
			c-1,0-2.1,0.2-3.1,0.1c-0.6,0-1.1-0.4-1.7-0.6c-0.3,0.4-0.6,0.9-0.9,1.3c2.6,2.2,5.3,4.3,7.9,6.6c0.8,0.7,1.5,1.6,1.8,2.5
			c2.2,5.9,3.8,12.1,6.6,17.7c1.3,2.6,4.8,4.1,7.1,6.3c1.9,1.9,4,3.9,5.2,6.2c3.3,6.5,6.5,13,12.6,17.6c1.3,0.9,2,2.6,3,3.9
			c6.3,3.9,12.8,8,19.3,12.1c-0.1,0.4-0.1,0.8-0.2,1.2c-1.7-0.1-3.6,0.2-5.1-0.5c-3.3-1.5-6.8-3-9.7-5.2
			c-8.6-6.6-17.4-13.1-25.1-20.6c-7.7-7.5-14.4-16-21.3-24.3c-2.4-2.9-3.6-6.8-5.9-9.8c-2.8-3.6-6.6-6.5-9.1-10.2
			c-7-10.6-14-21.3-20-32.5c-6.4-11.9-12.4-24-17.2-36.6c-6.9-18.4-13.2-37.1-18.6-55.9c-5-17.2-9.3-34.4-20.8-48.9
			c-2.9-3.7-4.8-8.5-5.9-13.1c-3.5-14.3-6.4-28.6-9.4-43c-2.6-12.6-5.2-25.3-1.7-38.3c0.2-0.7,0.4-1.5,0.2-2.2
			c-2.8-8.7-0.5-17.4,1.8-25.4c3.8-13.5,7-27.1,8.9-41c0.8-5.7,1-11.5,1.4-17.3L23.5,330.2z M512.2,10.4c-3.9-0.5-45.3-4.2-49.2-4.6
			c-9.7-1-19.6-1-29.4-1.5c-0.1,0.4-0.2,0.9-0.3,1.3c2,0.7,4,1.3,6.6,2.2c-2.3,0.3-4,0.2-5.6,0.7c-4.9,1.5-10.6,2.1-14.4,5.1
			c-5.5,4.4-12,4.3-17.4,6.6c-0.1,0.9,0,2.9-0.3,2.9c-1.6,0.4-3.3,0.3-4.9,0.3c-1.2,0-2.4-0.2-3.7-0.3c0,0.3,0,0.6,0.1,1
			c0.7,0.4,1.5,0.7,2.3,1.1c-13.7,2.3-27.1,4.6-40.5,6.8c-2.5,0.4-5,0.5-7.4,0.9c-4.3,0.8-8.6,1.5-12.8,2.8c-4,1.2-7.9,3-11.8,4.7
			c-1.3,0.5-2.6,1.2-3.9,1.9c-3.8,2.1-7.6,4.4-11.5,6.3c-1.2,0.6-3.1,0.7-4.1,0.1c-1.7-1-2.9-2.7-4.6-4.4c2-2.3,4-5.5,6.7-7.6
			c9.2-7.1,19.2-12.6,31-14.4c-0.8-0.2-1.5-0.4-2.7-0.8c5.5-2,10.4-3.8,15.3-5.6c5.1-1.9,10.1-3.7,15.1-5.6c-1.7-1-3.2-1.3-4.6-1.2
			c-17.1,1.3-33.2,6.7-49,13c-0.4,0.2-0.8,0.4-1,0.8c-3.9,5.6-10.1,6.4-16.4,8.1c1-1.2,1.8-2,2.5-2.8c-4.8,1.8-8.9,4.8-13.3,6.8
			c-3.9,1.8-8.2,2.7-12.4,4.1c-0.3-0.3-0.5-0.6-0.8-0.9c2.3-1.9,4.6-3.8,6.9-5.6c-0.2-0.3-0.3-0.7-0.5-1c-4.6,1.6-9.2,3.2-14.3,4.9
			c0.8,1.1,1.2,1.8,1.9,2.8c-5.4,3.6-10.7,7.1-16,10.6c0.2,0.4,0.4,0.7,0.6,1.1c3.8-1.5,7.7-3,11.5-4.4c-3.5,4-7.2,7.5-11.3,10.5
			c-3,2.2-6.4,3.6-3.8,8.2c0.2,0.3-0.3,1-0.6,1.5c-2.9,5.1-6.6,9.4-12.3,11.6c-1.3,0.4-2.5,0.8-3.8,1.2c-3.2,0.9-6.4,2-9.7,2.5
			c-3.5,0.6-7.1,1.2-10.5,0.8c-4.5-0.6-15.2,2.8-18.1,6.5c2.7-0.8,5.6-1.6,8.4-2.3c0.2,0.5,0.5,1,0.7,1.5c-1.7,1.1-3.5,2.2-5.2,3.3
			c-5.3,3.2-6.5,5.5-4.2,10.6c-2.1-0.9-3.3-1.4-4.6-2c-0.1,3.7-0.1,3.7,10.1,0.2c-7.2,7.8-18.7,6.9-26.6,13.3
			c-0.3-0.5-0.6-1-0.8-1.5c3.3-2.2,6.7-4.5,10-6.7c-1.7-0.2-3.4-0.2-4.8,0.4c-3.2,1.5-6.3,3.1-9.3,4.9c-3.5,2.1-7.3,3.9-10.2,6.6
			c-3.1,3-5.4,6.4-10.3,7c-2.1,0.2-4.2,2-5.9,3.5c-6.4,5.6-12.7,11.3-18.8,17.1c-1.9,1.8-3,4.4-4.9,6.2
			c-5.6,5.4-11.3,10.6-17.1,15.7C84.7,177.4,86.2,190.7,79,204c-2.4,4.3-10.6,12.4-12.9,13.4c-2.3,1,3.1-8.4,5.5-12.7
			c2.4-4.3,1.9-10.4,4.4-14.6c-0.4-0.2-0.8-0.5-1.2-0.7c-8.4,14.2-16.9,28.4-25.3,42.6c0.3,0.2,0.7,0.4,1,0.5
			c1.1-0.8,2.1-1.6,4.2-3.1c0,6.6-0.4,12.1,0.1,17.5c0.4,5.2-0.2,6.1-4.7,4.9c0.4-5.5,0.8-10.8,1.2-16.2c-10.2,9-32,54.8-36.1,78.8
			 M558.6,25 M571.3,28.6 M571.3,28.6 M571.3,28.6 M682.6,142.9c-1.8-2.5-3-4.5-4.6-6.2c-2.5-2.7-8.4-3.1-10.8-0.6
			c-0.9,1-0.9,2.8-1.9,3.7c-2.8,2.5-1.9,4.9,0.1,7.1c1.4,1.6,3.3,2.9,4.9,4.4c6.5,6.7,12.9,13.4,19.6,20.3
			c-1.1,2.9,1.5,12.9,5.6,14.9c5.6,2.8,10.6,9.4,19.2,4.8c-5.5-7.5-10.7-14.6-15.8-21.7c1.8-0.2,3.1-0.4,5-0.6
			c-7.3-7.6-7.3-7.6-8.7-6c-5.9-5.1-11.8-10.2-17.6-15.3c0.3-0.1,0.7-0.3,1-0.4c0-1.4-0.1-2.8-0.1-4.4
			C679.5,142.9,680.6,142.9,682.6,142.9z"/>
		<path class="st4" d="M682.6,142.9c-2,0-3.1,0.1-4.2,0.1c0,1.6,0.1,3,0.1,4.4c-0.3,0.1-0.7,0.3-1,0.4c5.9,5.1,11.7,10.2,17.6,15.3
			c1.4-1.6,1.4-1.6,8.7,6c-1.9,0.2-3.2,0.4-5,0.6c5.1,7,10.3,14.1,15.8,21.7c-8.7,4.7-13.6-2-19.2-4.8c-4-2-6.7-11.9-5.6-14.9
			c-6.7-7-13.1-13.7-19.6-20.3c-1.5-1.6-3.4-2.8-4.9-4.4c-2-2.2-2.8-4.6-0.1-7.1c1-0.9,1-2.8,1.9-3.7c2.4-2.5,8.3-2.2,10.8,0.6
			C679.6,138.4,680.8,140.4,682.6,142.9z"/>
		<path class="st4" d="M728.6,536.5c3,9.1-0.8,17.3-1.3,26.3c-1.1-0.4-1.5-0.5-1.7-0.7c-0.3-0.3-0.4-0.7-0.6-1.1
			c-0.3,0.1-0.7,0.1-0.7,0.3c-3.5,12.9-11.2,23.7-17.8,35c-4.7,8-9.9,15.6-14.6,23.6c-2.6,4.4-7.4,4.4-11.2,6.1
			c-2.1,0.9-5.8-4.3-5.2-7.2c0.8-4.4,1.1-9.2,2.9-13.2c2-4.6,5.2-8.9,8.3-12.9c2.7-3.5,4.7-7,4.4-11.6c-0.4-6.4,2.7-11.8,6.3-16.5
			c1.6-2.1,6-2,8.5-3.8c4.5-3.2,9-6.6,12.8-10.7C722.3,546.2,725.1,541.4,728.6,536.5z"/>
		<path class="st4" d="M429.8,75.9c-1,0-1.8,0-2.6,0c-0.6-3.3-2.3-7.1,1.5-9.3c2.6-1.5,5.9-2,8.9-2.9c0.2,0.5,0.4,0.9,0.6,1.4
			c-0.8,0.9-1.6,1.8-2.6,3c2.3,0.2,4.5,0.4,7.8,0.7c-2.1,2.5-3.5,4.2-4.5,5.4c3.3,3.5,6.6,6.9,9.8,10.3c2.1,2.3,4.1,4.6,7,7.8
			c-0.6,5.8-1.9,6.5-9,6.5c-7.5,0.1-15.1,1-22.6,1.6c-0.7,0-1.3-0.1-3.4-0.3c3.9-2.2,6.6-3.8,9.6-5.6c-1.6-0.6-3.2-1.1-5.8-2
			c2.2-1.1,3.4-1.7,4.6-2.3c-1.2-4.5-0.8-4.9,3.4-4.7c1.3,0.1,2.5-0.6,3.8-1c-0.9-1.4-1.5-3-2.8-4c-1.1-0.8-2.7-0.8-4.5-1.2
			C429.3,78.2,429.5,77.4,429.8,75.9z"/>
		<path class="st4" d="M405.5,90.2c1.2-2.7,2.3-5.4,4-9.1c4.2-0.7,9.1-7.7,16.4-0.6c-3,3.2-5.4,7.2-9,9.1c-3.4,1.8-8,1.3-12,1.9
			C405.1,91.2,405.3,90.7,405.5,90.2z"/>
		<path class="st4" d="M71.3,274c-6.4-3-12.1-5.6-22.2-10.3c7.2-2.7,12.1-4.5,20-7.5c1.6-7.7,4-18.5,6.5-30.5
			c9.7,2.8,22.1-3,25,15.2c3.4,21.7,5,21.1-16,26C79.2,268.2,74.3,272.3,71.3,274z"/>
		<path class="st4" d="M514.3,170.8c6.5,0.2,11.6,0.4,16.9,0.5c-0.1,2.7-0.2,5.4-0.3,9.2C525.8,176.4,518.7,177.2,514.3,170.8z"/>
		<path class="st4" d="M490.5,153c7.7-1.4,8.8-0.1,7.9,9.8c-2.1-1.5-5.6,3.8-6.8-1.7C491,158.5,490.9,155.7,490.5,153z"/>
		<path class="st4" d="M496.2,150.9c-5.7-4-5.7-6.2-0.2-9.5C496.1,144.6,496.1,147.2,496.2,150.9z"/>
		<circle class="st4" cx="422.9" cy="422.9" r="422"/>
		<path class="st4" d="M836.6,339.5c-1.8-8.3-5.4-15.9-5.4-15.9c0.2,7.6,0.1,14.6,0.8,21.4c1.1,10.4,3.2,20.6,4.1,31
			c0.5,6.1-0.4,12.3-0.7,19.3c-8.6-32.2-16.8-63.4-25.3-95.1c-1.9,1.5-2.8,2.2-4,3.2c-1-1.5-2-2.6-2.6-3.9c-1.9-3.9-3.2-8-5.5-11.7
			c-3.2-5-7.1-9.6-10.4-14.5c-1.5-2.2-2.9-2.7-5.7-2.6c-11.5,0.6-22.9,0.6-29-12.2c-1-2.2-3.4-3.1-5-1.1c-3.1,3.9-6,1.6-8.2-0.3
			c-6.6-5.6-13.9-10.6-18.2-18.7c-2.5-4.8-5.5-5.3-11-2.6c3,4.9,5.5,10,9,14.5c3.1,4.1,8.1,6.7,8.8,12.6c0.2,1.2,1.5,2.3,2.7,4
			c0.4-2.1,0.6-3.5,0.9-4.9c0.5-0.1,0.9-0.2,1.4-0.4c0.8,2.7,1.3,5.6,2.5,8.2c0.9,2.1,2.2,4.7,4,5.5c2.2,0.9,5.1,0.1,7.7,0.1
			c1.5-4.4,2.9-8.8,4.6-14c1.7,8.9,4.8,15.4,12.8,19.3c5.6,2.7,7.7,10.7,6.5,17c-0.9,4.8-4.6,9.5-1.6,13.3c-1.5,3.6-2.6,6.2-3.7,8.7
			c-1.4,1.1-2,2.6-3,4c-0.7,0.9-1.6,1.7-2.6,2.4c-2.9,1.9-7.9,1.4-8.1,5.9c-0.2,3.9-2.4,5.1-5.1,6.7c-3,1.7-5.5,4.1-8.5,5.8
			c-3.4,1.9-6.9,4-10.6,4.7c-2.7,0.6-4.7,1.3-6.7,3.3c-3.1,3.2-8.3,2.1-9.3-1.8c-1.8-7.3-3.2-14.7-4.9-22c-0.4-1.8-0.8-3.8-1.7-5.4
			c-3.6-6.4-7.3-12.8-11.2-19.1c-1.3-2.1-2.9-4.2-4.8-5.6c-4.8-3.6-7.1-8.4-8.3-14c-1.3-6.3-4.1-11.4-9.8-14.9
			c-1.5-0.9-2.4-2.8-3.5-4.4c-4.9-7.1-9.2-14.6-14.8-21c-2.1-2.4-3.3-4.5-3.8-7.3c0-0.1-0.4-0.1-0.6-0.1c-0.4,2.6-0.9,5.1-1.5,8.8
			c-3.3-3.4-5.7-5.9-8-8.4c6,10.2,12.5,20.1,19,29.9c0.9,1.4,2.2,2.9,2.2,4.4c0,3.4,1.4,5.8,4,7.8c4,3,7.2,6.8,7.7,11.8
			c0.8,8.2,2,15.8,9.1,21.3c1.4,1.1,2.1,3.1,3,4.8c1.9,4.1,3,8.9,5.7,12.3c6.4,8,13.5,15.3,20.5,22.9c2.4,2.6,3.4,5,0.2,7.5
			c1.8,2.6,3.7,5,5.2,7.7c1.5,2.5,3.4,2.8,6,2.1c9.6-2.6,19.1-5.2,29-7.8c-0.3-0.4,0-0.2,0,0c0.1,1,0.2,2,0.2,3.1
			c0.2,14.2-3.4,27.6-8.7,40.6c-5,12.2-12.1,23-22.7,31.4c-5.2,4.1-9.4,9.7-13.8,14.7c-1.5,1.7-2,4.6-3.7,5.9
			c-4.8,3.5-8.3,7.7-10.8,13.2c-2.4,5.3-5.6,10.1-8.1,15.3c-1.3,2.5-1.7,5.2,0.9,7.6c0.8,0.7,0.8,2.9,0.3,4.1
			c-1.7,4.3-2.6,8.5-1.2,13.2c2.2,7.7,3.4,15.4,1,23.4c-1.3,4.2-2.1,8.6-2.6,12.9c-1.1,9.2-6.4,15-14.4,18.8
			c-3.9,1.9-8.1,3.5-11.7,5.9c-4.8,3.1-8.9,7.1-13.7,10.2c-3.9,2.5-4.8,5.5-3.9,9.7c1.6,7.2-0.5,14.1-3.8,19.9
			c-1.7,3.1-7,4.1-10.8,6c-1.2,0.6-2.5,0.9-3.7,1.5c-3,1.3-6.6,2.2-5.2,7c0.2,0.9-0.7,2.2-1.3,3.2c-4,6-6.7,13.2-14.3,16
			c-1.2,0.4-2,1.7-3,2.5c-6.9,5.4-13.5,11.2-20.9,16c-7.3,4.8-15.9,7.3-24.4,5.8c-8.4-1.5-16.1,0.1-23.6,2.7c-4,1.4-6.1-0.6-8.5-2.1
			c-1.9-1.2-2.8-3.2-2-6c0.7-2.5,0-5.2,2.1-7.6c0.9-1,0.8-3.5,0.2-5c-2.9-7.9-6.2-15.7-9.2-23.6c-0.7-1.9-1.4-3.9-1.5-5.9
			c-0.4-6.1-1.6-12.5-0.7-18.4c1.3-8.5-0.2-15.9-3.7-23.6c-2.7-5.9-2.5-12.9-6.8-18.4c-0.6-0.8-0.6-2.2-0.5-3.4
			c0.7-14,5.6-26.1,15.7-36c4.2-4.2,4.7-9.3,2.7-14.8c-1.6-4.2-5-8.8-0.4-13.4c0.5-0.5,0.1-2-0.1-2.9c-1.4-4.7-4-9.3-4.3-14.1
			c-0.6-8.7-5.3-14.9-10.2-21.3c-3.9-5.2-7.3-10.9-10.7-16.5c-0.7-1.1-1-3.2-0.4-4.1c5.6-7.5,4.7-16.9,7.9-25.1
			c0.8-2-0.4-5.4-1.7-7.5c-1.8-2.9-4.6-5.3-7.2-8c-1.8,0.4-3.9,1-6.1,1.5c-2.1,0.4-4.2,0.7-6.3,0.9c-4.7,0.6-7.5-1.7-9.9-7.9
			c-2-5.1-5.1-8.2-11.3-8.6c-11.9-0.8-23,1.7-33.8,6.3c-3.8,1.6-7.4,1.9-11.8,0.6c-6.3-1.9-13.1-2.7-19.8-2.8
			c-4.7,0-9.3,2.3-14.1,3.1c-2.4,0.4-5.5,0.5-7.5-0.6c-3.6-1.9-6.6-4.7-9.8-7.3c-5.3-4.3-10.6-8.6-15.6-13.2c-2.5-2.3-6-5-6.5-7.9
			c-1.1-6.6-3.2-12.1-8.6-16.1c-0.4-0.3-0.4-1.1-0.7-1.6c-2.1-2.8-3.8-6.2-6.5-8.2c-4.1-3.1-7.5-7.8-6-12.7
			c1.5-4.8-0.4-8.1-3.1-11.5c4.8-3.5,6.8-8.4,9.5-13.5c4-7.7,2.8-15.7,4.8-23.4c0.3-1.2-0.7-2.8-1.4-4c-2.6-3.8-2.2-6.6,1.4-9.7
			c1.4-1.2,3-2.7,3.5-4.3c1.4-4.9,4.9-7.7,8.7-10.6c1.7-1.3,3.2-3.3,4.2-5.3c3.9-7.9,11.9-11.4,18-16.9c6.1,1.1,10-3.6,14.7-6
			c3.1-1.6,6.8-3.4,6.4-8.4c-0.5-7.2,4.8-15.1,11.8-17.2c6.4-1.9,11.4-5.3,14.8-11c1.5-2.6,3.6-2.1,5.7-1.6c3.3,0.9,6.7,1.5,9.7,3
			c8,3.8,14.6-1.9,22-2.5c3.9-0.3,7.6-2.1,11.4-2.7c8.8-1.4,17.7,1.8,26.5-0.7c1.3-0.4,3.1-0.2,4.3,0.4c3.8,2.1,7.3,1.2,11,0.1
			c2.9-0.9,5.5-0.8,6.4,2.9c1.4-0.3,2.8-0.6,3.6-0.8c-0.2,2.4-1.2,4.8-0.5,6.4c1.5,3.2,1.8,5.6-1.3,8c-2.3,1.8-1.5,3.5,0.7,4.7
			c0.7,0.4,1.8,0.5,2.3,1.1c3.3,4.4,8.2,4.9,13.1,5.9c6.2,1.3,12.9,2,16.1,8.9c0.4,0.8,1.3,1.5,2.2,1.9c5.9,2.5,11.9,5,18,7.1
			c1.3,0.5,3.6,0,4.6-0.9c1-0.9,1.7-3.2,1.2-4.4c-1.5-3.6,0.1-5.6,2.7-7.3c3.5-2.3,10.1-1.1,14.1,1.3c4.8,2.8,10,5,15.2,6.8
			c5.3,1.9,11.1,2.7,16.4,4.7c3,1.1,5.1,0.3,7.8-0.6c2.9-0.9,6.4-0.8,9.5-0.3c3.5,0.6,6.8,2.3,10.3,3.2c2.7,0.7,4.4-0.5,4.7-3.6
			c0.4-6,1.7-12,1.4-17.9c-0.2-4.1-1.9-8.4-3.8-12.1c-0.7-1.4-4.1-1.3-6.2-1.9c-3.4,3.7-7.7,4-12.2,1.5c-2.3-1.3-6.6-2.8-7.4-1.9
			c-3.1,3.6-5.2,1.5-8,0c-1.6-0.9-3.5-1.2-5.4-1.6c-1.3-0.3-11.4-9.2-11.6-10.4c0-0.1,0-0.3,0.1-0.4c2-3.4-1-4.8-2.6-6.4
			c1.7-6.2,6.5-5.1,10.6-5c0.6-1.6,1.1-2.7,1.2-3.2c4-0.3,8,0.6,10.6-0.9c6.1-3.6,11.9-3.8,17.9-1c6.4,3,12.6,6.5,20,5.5
			c1.7-0.2,3.7-0.8,4.8-1.9c0.5-0.5-0.2-3.3-1.1-4.1c-3.6-2.9-7.3-5.6-11.2-8.1c-5.3-3.3-10.8-6.3-16.4-9.6c2.7-2.7,3.4-5.2-0.2-7.6
			c1.4-0.8,2.5-1.4,3.5-2c-0.1-0.4-0.3-0.8-0.4-1.1c-4.5,1.2-9.1,2.3-14.6,3.8c2.1,2.1,3.1,3.6,4.5,4.4c1.5,0.8,3.3,0.9,5.7,1.5
			c-3.2,1.4-5.5,2.7-7.9,3.5c-1,0.3-2.7,0.1-3.5-0.5c-1.9-1.4-3.5-3.3-5.5-5.1c0.4-0.4,1.3-1.1,2.2-2c-3.6-1.6-6.8-3.3-10.2-4.4
			c-0.8-0.3-2.7,1-3.3,2.1c-1.4,2.4-2.3,5-3.7,8.3c-0.3,1.5-1,4-1.1,6.4c-0.1,1.9,0.1,4.2,1.1,5.6c1.8,2.5,4.4,4.5,6.1,6.2
			c-3.3,1.4-6.8,2.8-10.3,4.3c-4.3-4.3-7.3-5-12.7-2.7c0.8,0.9,1.6,1.9,2.4,2.8c-0.2,0.4-0.4,0.8-0.6,1.3c-2.4-0.9-4.9-1.7-7.3-2.6
			c-0.2,0.2-0.5,0.4-0.7,0.5c3.6,4.8,7.3,9.5,11.3,14.8c-1.9-0.2-3.1-0.4-4.5-0.6c0,2.8,0,5.3-0.1,8.1c-3.5-0.4-6.5-2-8.7-5.3
			c-2.9-4.4-6-8.6-9.1-12.8c-2.2-3.1-6-6.1-6.4-9.4c-0.6-5.6-3.7-7.5-7.8-9.8c-6.7-3.7-14.8-5.5-18.8-12.9c-1.6-3.1-3.6-3.1-6.1-1.5
			c-2.4-5.3-2.9-5.4-8-2.7c0.5,1.8,0.4,4.3,1.7,5.5c4.5,4.5,9.2,9,14.4,12.7c4.4,3.2,9.5,5.3,14.3,7.9c1.8,1,3.6,2.1,5.2,3.3
			c0.5,0.4,0.5,1.5,1,3c-7.7-4.8-8.7-4.8-9.6-0.9c1.3,1.7,3.5,3.8,3.2,4.4c-1.5,2.5-3.7,4.6-6.5,7.8c0.1-3.9,1.1-6.8,0.2-8.5
			c-3.5-6.3-9.6-9.8-16.1-12.6c-7-3-13.3-6.8-16.8-13.9c-1.9-3.8-7.9-5.5-11.6-3.5c-4.7,2.6-9.4,4.9-15.2,2.8
			c-2.7-0.9-6.1-0.4-9.1,0c-1,0.1-2.5,1.5-2.8,2.6c-1.4,5.5-2.9,7-8.6,7.6c-6.3,0.6-11,7.2-9.3,13.8c-3.1,2.1-7,3.9-9.7,6.8
			c-3.5,3.8-7.5,2.9-11.7,2.9c-3.2,0-6.7,0.4-9.6,1.6c-3.9,1.7-5.7,1.8-7.1-2.2c-1.2-3.4-3.8-3.4-6.3-3.6c-2.6-0.2-5.3,0.2-7.3,0.3
			c-0.2-3.2,0.7-6.8-0.7-8.1c-3.1-2.9-2-5.2,0.1-7c6.2-5.5,4.2-12.5,4.8-20.1c2.7-0.6,6.1-2,9.4-1.8c9,0.7,18,2,27,3.3
			c3.1,0.4,4.8-1.1,5.9-3.5c3-6.7,1.7-11.9-4.3-16.4c-1.8-1.4-4.1-2.3-6.3-3c-2.5-0.8-3.3-2-1.9-5c4.3,0.4,8.7,0.7,13.2,1.1
			c0-1.4,0-2.8,0-4c1.9,0.4,3.8,1.5,5.1,1.1c7.1-2.6,14.2-5.4,21.2-8.4c1-0.4,1.9-1.9,2.3-3.1c1.2-3.1,3.7-4,6.6-4.4
			c2.4-0.3,4.9-0.6,7.4-0.7c5.5-0.2,5.8-0.8,3.2-5.7c-0.9-1.6-1.7-3.5-1.9-5.3c-0.1-0.9,0.9-2.5,1.8-2.9c2.1-0.9,4.4-1.2,6.4-1.7
			c0.6,2,1.2,3.8,1.8,5.8c-2.6,0.8-4.1,2.9-1.6,5.5c1.7,1.8,4.6,3.9,6.6,3.5c4.1-0.7,7.4-0.1,10.9,1.8c0.9,0.5,2.4,0,3.7-0.2
			c4-0.7,8.5-2.9,11.9-1.8c4.7,1.5,8,0.8,11.6-1.7c-0.8-1.6-2-3.1-2.3-4.7c-0.3-1.3,0-3.2,0.8-4.2c0.4-0.6,2.6-0.1,3.8,0.4
			c1.6,0.5,3,1.5,4.4,2.3c0.3-0.3,0.6-0.6,1-0.9c-0.9-1.5-1.5-3.3-2.7-4.6c-1.2-1.2-3-1.8-4.5-2.7c0.1-0.5,0.3-1.1,0.4-1.6
			c5.1,0,10.2-0.1,15.3-0.1c0-0.8,0-1.6,0-2.4c-3.5-0.3-7.1-1.3-10.4-0.7c-7.8,1.6-13.4,0.1-18.2-7c-2.8-4.1-1.9-5.8,1.1-8.1
			c1-0.8,2-1.6,4.2-3.3c-3.8-0.8-6.5-1.5-9.3-1.7c-0.8-0.1-2.6,2-2.5,2.2c1.6,2.8-0.7,3.5-2.3,4.5c-5.8,3.8-5.8,6.3-0.2,10.2
			c1.3,0.9,3.4,2.5,3.2,3.4c-0.3,1.6-2.1,2.9-3.6,4.7c0,2.5,0.1,5.7,0.1,8.1c-5.6,1.8-10.1,3.2-15,4.8c-1.2-0.9-2.9-2.1-5.3-3.8
			c3.1-0.4,5.1-0.7,7.1-0.9c-3.1-4-6.3-7.9-9.3-11.8c-1.5-2-3-2.1-5.3-0.8c-9.6,5.5-14.7,3.2-16.9-7.4c-1.2-5.5-1-6,4.4-7.2
			c6.4-1.5,11.7-4.4,16-9.4c2.2-2.6,4.7-5.4,7.7-6.9c3.3-1.7,7.6-1.5,11.1-3c6.2-2.6,11.7-1.4,17,2c0.8,0.5,1.9,0.8,2.9,1.1
			c9,2.4,18.1,4.6,27.1,7.1c2.1,0.6,3.9,2.3,6.8,4.1c-6.7,2.5-11.5-1.7-17-1.3c5.4,3.3,10.4,6.3,15.3,9.3c0.3-0.4,0.5-0.8,0.8-1.2
			c-0.9-0.6-1.8-1.3-2.7-1.9c0.1-0.2,0.1-0.4,0.2-0.6c2.6,0.7,5.2,1.3,7.8,2c-1-1.7-1.8-3-2.6-4.4c1.5-0.4,3.1-0.9,4.6-1.4
			c-2.3-1.7-4.6-3.3-6.9-5c0.2-0.4,0.5-0.7,0.7-1.1c3.5,2.1,7,4.1,10.1,6c0.8-2.2,1.5-4,1.8-4.8c3.5,0.1,6,0.2,9.4,0.4
			c-1.3-1.7-1.7-2.3-2.3-3.2c2.4,0.5,4.3,1,6.1,1.4c-5.9-3.1-10.6-10-16.5-13c-0.1-0.1,1.6,0.6,1.4,0.9"/>
		<path class="st4" d="M261.5,812.4c-3.6-2.6-8.2-5.9-12.8-9.3c-3.7-2.6-11-7.8-11-7.8l-2.1-7.3l7.5-4.1l0,8.3c0,0,10.1,5.1,15,7.5
			c11.2,5.4,14.8,12.7,26,18.1c12.3,5.9,25.4,8.2,39,10.6c5.4,1,20.9,4.8,20.9,4.8s0-1.3,0.1-2c6.2-1,12.3-2,19.7-3.2
			c-1.9-1.4-2.6-1.9-3.9-2.8c2.7-0.8,5.3-0.8,6.6-2.1c4.1-4.2,8.9-0.8,13.3-1.5c5.3-0.9,11.1,1.2,16.6,1.2c6.4,0,12.8-1.6,19.1-1
			c4.1,0.4,7.9,1.9,12,0.4c0.3-0.1,0.6,0,0.9,0c6.6,1,13.2,2.8,19.8,2.9c9.6,0,19.2-1.3,28.8-1.9c1.6-0.1,3.2,0.6,4.9,0.8
			c2.6,0.4,5.2,1,7.8,0.9c3.5-0.1,7-0.9,10.5-1.4c8.5-1.2,17.1-2.5,25.6-3.7c3.6-0.5,7.2-0.8,11.2-1.3c-1.6,2.5-2.6,4.1-3.8,6.1
			c3-0.1,5-0.2,7-0.2c0,0.6,0.1,1.2,0.1,1.7c-5.8,1.7-10,4.8-15.8,6.5"/>
	</g>
</g>
</svg>
