<svg width="553" height="553" viewBox="0 0 553 553" fill="none" xmlns="http://www.w3.org/2000/svg">
<circle cx="276.5" cy="276.5" r="275.5" fill="white" stroke="black"/>
<circle cx="276.5" cy="276.5" r="212.5" fill="white" stroke="black"/>
<circle cx="277" cy="276" r="204" fill="white" stroke="black"/>
<path d="M240.455 266.096C240.455 264.188 239.183 263.552 237.323 262.671C236.067 262.084 234.811 261.611 234.811 260.012C234.811 258.789 235.79 258.25 236.736 258.25C237.503 258.25 237.927 258.446 238.27 258.675C238.84 259.082 239.346 259.98 239.623 260.844H239.95L239.656 257.989H239.33L239.101 258.593H239.02C238.514 258.12 237.862 257.81 236.769 257.81C234.942 257.81 233.8 259.017 233.8 260.469C233.8 262.279 235.154 263.046 236.622 263.731C238.351 264.514 239.444 264.955 239.444 266.684C239.444 267.842 238.677 268.788 237.046 268.788C235.496 268.788 234.371 267.255 233.849 265.444H233.539L233.702 268.87H233.931L234.306 268.184H234.404C234.958 268.723 235.904 269.228 237.062 269.228C238.791 269.228 240.455 268.087 240.455 266.096ZM249.306 267.043V263.519C249.306 262.622 249.338 262.035 249.338 261.529C249.338 261.431 249.306 261.415 249.224 261.415H247.152V261.709C247.413 261.725 247.707 261.79 247.903 261.921C248.082 262.051 248.18 262.198 248.229 262.426C248.262 262.622 248.262 263.095 248.262 263.34V265.574C248.262 266.08 248.245 266.586 248.164 266.994C248.033 267.516 247.756 267.923 247.397 268.217C247.071 268.494 246.663 268.641 246.239 268.641C245.75 268.641 245.374 268.527 245.097 268.233C244.755 267.907 244.64 267.45 244.64 266.733V263.487C244.64 262.72 244.657 262.035 244.689 261.529C244.689 261.431 244.64 261.415 244.575 261.415H242.487V261.709C242.781 261.725 243.042 261.774 243.221 261.888C243.352 261.97 243.466 262.084 243.531 262.328C243.58 262.508 243.596 262.85 243.596 263.209V266.831C243.596 267.711 243.792 268.119 244.037 268.429C244.559 269.049 245.277 269.163 245.864 269.163C246.516 269.163 247.022 268.951 247.413 268.674C247.723 268.429 247.935 268.201 248.229 267.63H248.327V268.853C248.327 268.951 248.376 269 248.441 269H250.431V268.69C250.235 268.674 249.974 268.641 249.811 268.56C249.518 268.429 249.42 268.217 249.355 267.907C249.306 267.646 249.306 267.336 249.306 267.043ZM257.702 266.896C257.702 265.64 256.724 265.167 255.402 264.612C254.13 264.09 253.543 263.748 253.543 262.834C253.543 262.116 254.114 261.643 254.913 261.643C255.402 261.643 255.761 261.774 256.022 261.986C256.43 262.296 256.675 262.818 256.903 263.47H257.197L257.115 261.333H256.903L256.593 261.806H256.495C256.202 261.529 255.728 261.219 254.897 261.219C253.526 261.219 252.662 262.1 252.662 263.144C252.662 264.579 253.543 264.987 254.831 265.526C256.267 266.129 256.854 266.455 256.854 267.418C256.854 268.331 256.218 268.739 255.304 268.739C254.13 268.739 253.265 267.809 252.874 266.325H252.531L252.58 269H252.874L253.184 268.364H253.298C253.771 268.853 254.57 269.147 255.288 269.147C256.56 269.147 257.702 268.445 257.702 266.896ZM263.861 267.989C263.519 268.38 263.079 268.592 262.573 268.592C261.774 268.592 261.529 268.233 261.529 267.565L261.545 261.872H263.6V261.415H261.545V258.805H261.284C260.73 260.86 260.208 261.415 259.294 261.562V261.839C259.457 261.839 260.338 261.855 260.534 261.855C260.518 262.1 260.518 267.45 260.518 267.548C260.518 268.201 260.632 268.494 260.893 268.723C261.268 269.033 261.659 269.147 262.263 269.147C262.932 269.147 263.6 268.853 264.041 268.201L263.861 267.989ZM272.02 268.837L271.922 268.56C271.775 268.641 271.547 268.69 271.4 268.69C271.204 268.69 271.057 268.625 270.959 268.494C270.829 268.315 270.78 268.021 270.78 267.238V262.704C270.78 261.578 269.752 261.219 268.643 261.219C267.811 261.219 266.833 261.594 266.474 262.018C266.278 262.214 266.18 262.459 266.18 262.72C266.18 263.079 266.425 263.291 266.702 263.291C267.077 263.291 267.273 263.128 267.322 262.655C267.371 262.231 267.55 261.953 267.828 261.79C268.089 261.676 268.366 261.611 268.676 261.611C269.442 261.611 269.752 261.921 269.752 262.753V263.976C269.654 264.335 269.198 264.775 268.366 265.053C267.501 265.362 266.881 265.46 266.278 266.015C265.919 266.374 265.772 266.847 265.772 267.255C265.772 268.494 266.604 269.147 267.762 269.147C268.872 269.147 269.459 268.494 269.703 268.038H269.818C269.834 268.609 269.981 268.853 270.225 269.016C270.372 269.098 270.552 269.147 270.829 269.147C271.302 269.147 271.808 268.984 272.02 268.837ZM269.752 264.645V267.189C269.654 268.054 268.823 268.576 268.137 268.576C267.387 268.576 266.833 268.168 266.833 267.238C266.833 266.733 266.979 266.39 267.224 266.129C267.452 265.884 267.86 265.689 268.447 265.444C268.937 265.232 269.491 264.955 269.752 264.645ZM275.401 259.506C275.825 259.506 276.152 259.197 276.152 258.756C276.152 258.332 275.842 257.989 275.401 257.989C274.993 257.989 274.684 258.316 274.684 258.756C274.684 259.197 274.993 259.506 275.401 259.506ZM275.907 262.981C275.907 262.328 275.94 261.872 275.956 261.529C275.956 261.448 275.907 261.415 275.842 261.415H273.819V261.709C274.178 261.758 274.357 261.823 274.52 261.937C274.684 262.051 274.749 262.165 274.814 262.377C274.863 262.557 274.879 263.177 274.879 263.438V267.222C274.879 267.499 274.879 267.728 274.814 267.989C274.749 268.25 274.569 268.429 274.308 268.56C274.194 268.625 273.966 268.674 273.819 268.69V269H277V268.69C276.837 268.674 276.608 268.609 276.494 268.56C276.266 268.445 276.054 268.315 275.972 267.989C275.923 267.777 275.907 267.467 275.907 267.222V262.981ZM285.977 266.961V263.226C285.977 262.394 285.684 261.888 285.292 261.594C284.95 261.366 284.542 261.219 283.987 261.219C283.384 261.219 282.813 261.399 282.405 261.676C281.997 261.904 281.573 262.296 281.279 262.899H281.182C281.198 262.622 281.214 261.741 281.214 261.513C281.214 261.431 281.182 261.415 281.1 261.415H279.11V261.709C279.371 261.741 279.632 261.823 279.828 261.937C279.991 262.035 280.089 262.165 280.138 262.377C280.186 262.589 280.186 263.046 280.186 263.438V266.798C280.186 267.189 280.186 267.646 280.154 267.858C280.072 268.266 279.893 268.429 279.518 268.576C279.404 268.625 279.191 268.674 279.045 268.69V269H282.34V268.69C282.177 268.674 282.013 268.625 281.867 268.576C281.508 268.429 281.361 268.233 281.296 267.94C281.23 267.679 281.23 267.238 281.23 266.879V264.743C281.23 264.057 281.312 263.584 281.557 263.079C281.916 262.296 282.699 261.888 283.514 261.888C283.987 261.888 284.313 262.018 284.542 262.263C284.803 262.54 284.933 262.916 284.933 263.584V266.879C284.933 267.238 284.933 267.662 284.852 267.956C284.754 268.282 284.656 268.445 284.33 268.576C284.199 268.625 283.987 268.674 283.824 268.69V269H287.054V268.69C286.907 268.674 286.695 268.625 286.581 268.576C286.222 268.413 286.108 268.217 286.042 267.907C285.994 267.679 285.977 267.304 285.977 266.961ZM295.348 268.837L295.25 268.56C295.103 268.641 294.874 268.69 294.728 268.69C294.532 268.69 294.385 268.625 294.287 268.494C294.157 268.315 294.108 268.021 294.108 267.238V262.704C294.108 261.578 293.08 261.219 291.971 261.219C291.139 261.219 290.16 261.594 289.801 262.018C289.606 262.214 289.508 262.459 289.508 262.72C289.508 263.079 289.753 263.291 290.03 263.291C290.405 263.291 290.601 263.128 290.65 262.655C290.699 262.231 290.878 261.953 291.155 261.79C291.416 261.676 291.694 261.611 292.004 261.611C292.77 261.611 293.08 261.921 293.08 262.753V263.976C292.982 264.335 292.526 264.775 291.694 265.053C290.829 265.362 290.209 265.46 289.606 266.015C289.247 266.374 289.1 266.847 289.1 267.255C289.1 268.494 289.932 269.147 291.09 269.147C292.199 269.147 292.787 268.494 293.031 268.038H293.145C293.162 268.609 293.309 268.853 293.553 269.016C293.7 269.098 293.879 269.147 294.157 269.147C294.63 269.147 295.135 268.984 295.348 268.837ZM293.08 264.645V267.189C292.982 268.054 292.15 268.576 291.465 268.576C290.715 268.576 290.16 268.168 290.16 267.238C290.16 266.733 290.307 266.39 290.552 266.129C290.78 265.884 291.188 265.689 291.775 265.444C292.265 265.232 292.819 264.955 293.08 264.645ZM298.811 257.386H296.657V257.68C296.951 257.696 297.261 257.728 297.473 257.892C297.604 257.989 297.701 258.12 297.767 258.299C297.816 258.446 297.832 258.756 297.832 259.017V267.467C297.832 267.907 297.816 268.494 297.783 269.033H298.109L298.794 268.038H298.941C299.365 268.674 300.213 269.147 301.062 269.147C302.448 269.147 304.487 268.119 304.487 265.199C304.487 262.231 302.823 261.219 301.323 261.219C300.295 261.219 299.447 261.709 298.974 262.704H298.876V259.588C298.876 258.707 298.941 257.941 298.941 257.5C298.941 257.419 298.876 257.386 298.811 257.386ZM301.192 261.725C302.464 261.725 303.329 262.655 303.329 265.216C303.329 267.32 302.53 268.706 301.045 268.706C300.425 268.706 299.806 268.511 299.414 268.005C299.006 267.483 298.876 266.896 298.876 265.868V264.221C298.876 263.144 299.284 262.671 299.561 262.361C300.018 261.888 300.556 261.725 301.192 261.725ZM308.745 259.017C308.745 258.414 308.778 257.826 308.778 257.5C308.778 257.419 308.745 257.386 308.664 257.386H306.641V257.696C306.967 257.712 307.179 257.745 307.359 257.875C307.506 257.989 307.587 258.104 307.653 258.316C307.718 258.511 307.718 259.115 307.718 259.36V267.108C307.718 267.418 307.718 267.711 307.653 267.956C307.571 268.266 307.408 268.445 307.147 268.56C307.016 268.625 306.821 268.674 306.658 268.69V269H309.773V268.69C309.61 268.674 309.431 268.625 309.284 268.56C309.039 268.429 308.876 268.266 308.794 267.907C308.745 267.662 308.745 267.385 308.745 267.108V259.017ZM314.12 262.1C314.495 261.79 314.936 261.643 315.393 261.643C315.947 261.643 316.322 261.79 316.632 262.051C316.975 262.345 317.154 262.753 317.154 263.487C317.154 264.204 317.007 264.351 316.502 264.351H313.174C313.321 263.242 313.696 262.459 314.12 262.1ZM318.361 266.782L318.002 266.651C317.66 267.695 317.007 268.576 315.605 268.576C314.936 268.576 314.365 268.364 313.941 267.923C313.386 267.32 313.125 266.227 313.125 265.232C313.125 265.069 313.125 264.922 313.141 264.775H318.263C318.296 264.563 318.312 264.221 318.312 263.943C318.312 262.769 317.48 261.219 315.376 261.219C313.5 261.219 311.951 262.948 311.951 265.199C311.951 266.357 312.277 267.418 313.044 268.201C313.631 268.821 314.414 269.147 315.393 269.147C316.828 269.147 317.905 268.282 318.361 266.782ZM243.565 283.197C243.565 282.887 243.582 282.74 243.712 282.593C243.826 282.462 243.973 282.43 244.25 282.43H245.197C246.893 282.43 247.757 283.213 247.757 284.86C247.757 285.399 247.676 286.084 247.301 286.557C246.909 287.014 246.257 287.438 244.838 287.438C244.446 287.438 243.859 287.389 243.565 287.323V283.197ZM245.001 292.674C244.821 292.657 244.626 292.641 244.479 292.592C244.153 292.494 243.957 292.331 243.794 292.005C243.614 291.581 243.565 290.994 243.565 290.015V287.796C243.81 287.829 244.365 287.878 244.821 287.878C246.192 287.878 247.089 287.568 247.643 287.242C248.426 286.785 248.981 285.921 248.981 284.73C248.981 282.87 247.464 282.022 245.343 282.022H240.988V282.348C241.216 282.365 241.38 282.397 241.494 282.43C241.787 282.528 241.999 282.675 242.163 282.984C242.358 283.425 242.391 284.012 242.391 284.975V290.031C242.391 290.994 242.358 291.581 242.163 292.021C241.999 292.364 241.804 292.494 241.543 292.576C241.347 292.641 241.184 292.657 241.021 292.674V293H245.001V292.674ZM252.922 287.111H252.824C252.824 287.177 252.873 285.48 252.873 285.513C252.873 285.464 252.841 285.415 252.759 285.415H250.769V285.709C251.014 285.758 251.259 285.806 251.471 285.937C251.617 286.035 251.748 286.198 251.797 286.394C251.846 286.589 251.846 287.177 251.846 287.454V290.961C251.846 291.287 251.846 291.646 251.781 291.923C251.683 292.282 251.552 292.429 251.275 292.576C251.112 292.625 250.9 292.674 250.753 292.69V293H254.015V292.69C253.836 292.674 253.656 292.641 253.477 292.576C253.281 292.511 253.167 292.348 253.069 292.119C252.939 291.842 252.873 291.532 252.873 290.896V289.199C252.873 288.775 252.89 288.27 252.906 288.172C253.053 286.916 253.885 285.904 254.407 285.904C254.602 285.904 254.766 285.97 254.863 286.182C254.978 286.475 255.108 286.736 255.5 286.736C255.94 286.736 256.087 286.41 256.087 286.1C256.087 285.79 255.973 285.594 255.859 285.48C255.663 285.317 255.385 285.219 255.092 285.219C254.537 285.219 254.146 285.448 253.852 285.692C253.493 286.002 253.216 286.377 252.922 287.111ZM257.688 289.183C257.688 291.662 259.417 293.147 261.244 293.147C263.071 293.147 264.8 291.646 264.8 289.167C264.8 286.704 263.071 285.219 261.244 285.219C259.4 285.219 257.688 286.704 257.688 289.183ZM258.846 289.183C258.846 287.731 259.205 286.736 259.857 286.149C260.249 285.79 260.771 285.627 261.244 285.627C261.7 285.627 262.222 285.774 262.614 286.149C263.266 286.753 263.625 287.748 263.625 289.183C263.625 290.602 263.25 291.613 262.614 292.217C262.222 292.592 261.717 292.739 261.244 292.739C260.754 292.739 260.249 292.592 259.841 292.201C259.205 291.613 258.846 290.602 258.846 289.183ZM270.641 285.627C271.457 285.627 271.766 285.839 271.995 286.687C272.142 287.128 272.305 287.438 272.729 287.438C273.071 287.438 273.283 287.242 273.283 286.834C273.283 286.622 273.218 286.328 272.99 286.067C272.615 285.643 272.011 285.219 270.657 285.219C268.749 285.219 267.215 286.932 267.215 289.167C267.215 290.716 267.754 291.744 268.504 292.364C269.042 292.853 269.695 293.147 270.592 293.147C272.06 293.147 273.071 292.233 273.479 290.863L273.088 290.733C272.827 291.532 272.239 292.609 270.657 292.609C270.168 292.609 269.662 292.396 269.336 292.087C268.749 291.499 268.357 290.537 268.357 289.085C268.357 287.601 268.781 286.557 269.401 286.051C269.727 285.79 270.184 285.627 270.641 285.627ZM277.607 286.1C277.982 285.79 278.423 285.643 278.88 285.643C279.434 285.643 279.809 285.79 280.119 286.051C280.462 286.345 280.641 286.753 280.641 287.487C280.641 288.204 280.494 288.351 279.989 288.351H276.661C276.808 287.242 277.183 286.459 277.607 286.1ZM281.848 290.782L281.489 290.651C281.147 291.695 280.494 292.576 279.092 292.576C278.423 292.576 277.852 292.364 277.428 291.923C276.873 291.32 276.612 290.227 276.612 289.232C276.612 289.069 276.612 288.922 276.629 288.775H281.75C281.783 288.563 281.799 288.221 281.799 287.943C281.799 286.769 280.967 285.219 278.863 285.219C276.987 285.219 275.438 286.948 275.438 289.199C275.438 290.357 275.764 291.418 276.531 292.201C277.118 292.821 277.901 293.147 278.88 293.147C280.315 293.147 281.392 292.282 281.848 290.782ZM289.277 290.896C289.277 289.64 288.298 289.167 286.977 288.612C285.705 288.09 285.117 287.748 285.117 286.834C285.117 286.116 285.688 285.643 286.488 285.643C286.977 285.643 287.336 285.774 287.597 285.986C288.005 286.296 288.249 286.818 288.478 287.47H288.771L288.69 285.333H288.478L288.168 285.806H288.07C287.776 285.529 287.303 285.219 286.471 285.219C285.101 285.219 284.237 286.1 284.237 287.144C284.237 288.579 285.117 288.987 286.406 289.526C287.842 290.129 288.429 290.455 288.429 291.418C288.429 292.331 287.793 292.739 286.879 292.739C285.705 292.739 284.84 291.809 284.449 290.325H284.106L284.155 293H284.449L284.759 292.364H284.873C285.346 292.853 286.145 293.147 286.863 293.147C288.135 293.147 289.277 292.445 289.277 290.896ZM296.448 290.896C296.448 289.64 295.469 289.167 294.148 288.612C292.875 288.09 292.288 287.748 292.288 286.834C292.288 286.116 292.859 285.643 293.658 285.643C294.148 285.643 294.506 285.774 294.767 285.986C295.175 286.296 295.42 286.818 295.648 287.47H295.942L295.86 285.333H295.648L295.338 285.806H295.241C294.947 285.529 294.474 285.219 293.642 285.219C292.272 285.219 291.407 286.1 291.407 287.144C291.407 288.579 292.288 288.987 293.577 289.526C295.012 290.129 295.599 290.455 295.599 291.418C295.599 292.331 294.963 292.739 294.05 292.739C292.875 292.739 292.011 291.809 291.619 290.325H291.277L291.326 293H291.619L291.929 292.364H292.043C292.516 292.853 293.316 293.147 294.033 293.147C295.306 293.147 296.448 292.445 296.448 290.896ZM300.601 286.1C300.976 285.79 301.416 285.643 301.873 285.643C302.427 285.643 302.803 285.79 303.113 286.051C303.455 286.345 303.635 286.753 303.635 287.487C303.635 288.204 303.488 288.351 302.982 288.351H299.654C299.801 287.242 300.176 286.459 300.601 286.1ZM304.842 290.782L304.483 290.651C304.14 291.695 303.488 292.576 302.085 292.576C301.416 292.576 300.845 292.364 300.421 291.923C299.866 291.32 299.605 290.227 299.605 289.232C299.605 289.069 299.605 288.922 299.622 288.775H304.744C304.776 288.563 304.793 288.221 304.793 287.943C304.793 286.769 303.961 285.219 301.857 285.219C299.981 285.219 298.431 286.948 298.431 289.199C298.431 290.357 298.757 291.418 299.524 292.201C300.111 292.821 300.894 293.147 301.873 293.147C303.308 293.147 304.385 292.282 304.842 290.782ZM312.27 290.896C312.27 289.64 311.292 289.167 309.97 288.612C308.698 288.09 308.111 287.748 308.111 286.834C308.111 286.116 308.682 285.643 309.481 285.643C309.97 285.643 310.329 285.774 310.59 285.986C310.998 286.296 311.243 286.818 311.471 287.47H311.765L311.683 285.333H311.471L311.161 285.806H311.063C310.77 285.529 310.297 285.219 309.465 285.219C308.094 285.219 307.23 286.1 307.23 287.144C307.23 288.579 308.111 288.987 309.399 289.526C310.835 290.129 311.422 290.455 311.422 291.418C311.422 292.331 310.786 292.739 309.872 292.739C308.698 292.739 307.833 291.809 307.442 290.325H307.099L307.148 293H307.442L307.752 292.364H307.866C308.339 292.853 309.138 293.147 309.856 293.147C311.128 293.147 312.27 292.445 312.27 290.896Z" fill="black"/>
<path d="M277 1L308.575 32.5754L277 64.1509" stroke="black"/>
<path d="M14.8 190.03L54.5874 169.757L74.8601 209.545" stroke="black"/>
<path d="M114.5 499.65L107.515 455.545L151.619 448.56" stroke="black"/>
<path d="M438.664 499.09L394.56 492.105L401.545 448" stroke="black"/>
<path d="M538.8 191L518.527 230.787L478.74 210.515" stroke="black"/>
<path d="M103.572 101.449L101.375 103.005L103.856 112.661L103.763 112.727L95.518 107.152L93.1484 108.83L93.3369 109.096C93.5061 108.997 93.7019 108.878 93.886 108.828C94.1556 108.757 94.4174 108.731 94.7163 108.899C95.0756 109.124 95.389 109.482 95.9263 110.241L99.3292 115.047C99.8005 115.712 99.9147 116.071 99.9152 116.411C99.9196 116.727 99.8391 116.924 99.66 117.151C99.5684 117.276 99.4408 117.406 99.2772 117.542L99.4657 117.808L102.261 115.829L102.073 115.563C101.854 115.677 101.716 115.735 101.541 115.799C101.294 115.874 101.072 115.871 100.798 115.766C100.5 115.657 100.213 115.42 99.7419 114.755L95.5 108.764L95.6065 108.689L104.305 114.481L104.731 114.18L102.162 104.087L102.255 104.021L105.988 109.293C106.601 110.158 106.97 110.736 107.07 111.244C107.143 111.573 107.037 111.847 106.845 112.084C106.757 112.186 106.59 112.344 106.453 112.461L106.641 112.727L109.916 110.409L109.727 110.142C109.572 110.233 109.406 110.31 109.294 110.349C108.971 110.458 108.687 110.479 108.401 110.302C107.978 110.042 107.559 109.479 106.946 108.614L104.288 104.86C103.628 103.928 103.283 103.413 103.179 102.927C103.133 102.58 103.235 102.328 103.378 102.106C103.469 101.982 103.624 101.833 103.761 101.716L103.572 101.449ZM116.719 105.392L116.479 105.222C116.406 105.373 116.248 105.545 116.128 105.63C115.968 105.743 115.811 105.775 115.655 105.725C115.445 105.654 115.236 105.443 114.783 104.804L112.163 101.103C111.512 100.184 110.466 100.485 109.561 101.126C108.882 101.607 108.3 102.479 108.252 103.032C108.206 103.305 108.267 103.561 108.418 103.774C108.625 104.067 108.948 104.099 109.174 103.939C109.48 103.722 109.546 103.475 109.312 103.061C109.107 102.687 109.093 102.357 109.225 102.063C109.372 101.819 109.561 101.606 109.814 101.427C110.439 100.984 110.872 101.058 111.352 101.736L112.059 102.735C112.187 103.084 112.069 103.708 111.55 104.415C111.023 105.167 110.574 105.605 110.402 106.407C110.316 106.907 110.47 107.378 110.706 107.711C111.422 108.723 112.478 108.774 113.423 108.105C114.329 107.464 114.431 106.592 114.366 106.078L114.46 106.012C114.803 106.469 115.064 106.583 115.358 106.575C115.525 106.557 115.7 106.493 115.926 106.333C116.312 106.059 116.631 105.634 116.719 105.392ZM112.446 103.281L113.916 105.357C114.336 106.12 113.959 107.026 113.4 107.422C112.787 107.856 112.099 107.844 111.562 107.085C111.269 106.672 111.191 106.308 111.24 105.953C111.285 105.622 111.505 105.226 111.843 104.687C112.119 104.231 112.412 103.684 112.446 103.281ZM122.708 98.8525L120.549 95.804C120.068 95.125 119.536 94.882 119.047 94.8686C118.636 94.8802 118.218 94.9961 117.765 95.3166C117.273 95.6653 116.911 96.1417 116.738 96.6037C116.537 97.0257 116.417 97.5903 116.527 98.2525L116.447 98.3091C116.3 98.0734 115.804 97.3451 115.672 97.1587C115.625 97.0921 115.589 97.0977 115.522 97.1448L113.898 98.2948L114.068 98.5344C114.3 98.4102 114.56 98.326 114.786 98.306C114.975 98.2917 115.131 98.3416 115.293 98.4864C115.455 98.6312 115.719 99.0039 115.946 99.3234L117.887 102.066C118.114 102.385 118.378 102.758 118.474 102.95C118.643 103.33 118.591 103.567 118.369 103.903C118.304 104.009 118.159 104.172 118.049 104.27L118.228 104.523L120.917 102.619L120.738 102.366C120.596 102.447 120.434 102.501 120.286 102.546C119.908 102.633 119.676 102.559 119.453 102.357C119.249 102.181 118.994 101.822 118.787 101.529L117.552 99.7851C117.156 99.226 116.949 98.7928 116.857 98.2387C116.697 97.3923 117.1 96.6071 117.766 96.1357C118.152 95.8624 118.494 95.7803 118.821 95.8481C119.195 95.9236 119.518 96.1543 119.904 96.7001L121.809 99.3893C122.016 99.6821 122.261 100.028 122.364 100.315C122.473 100.638 122.487 100.828 122.296 101.123C122.218 101.238 122.073 101.4 121.95 101.508L122.129 101.761L124.765 99.8944L124.585 99.6415C124.456 99.713 124.255 99.7956 124.133 99.8217C123.746 99.8959 123.54 99.8022 123.308 99.5869C123.136 99.4289 122.906 99.1321 122.708 98.8525ZM130.695 93.2968L128.659 90.4213C128.14 89.6891 127.828 89.191 127.535 88.7783C127.479 88.6984 127.443 88.704 127.376 88.7511L125.686 89.9482L125.855 90.1879C126.078 90.0504 126.355 89.9339 126.59 89.9273C126.812 89.9301 126.977 89.9934 127.149 90.1515C127.288 90.2924 127.562 90.6784 127.703 90.8781L128.995 92.7019C129.287 93.1146 129.566 93.5367 129.735 93.9167C129.93 94.4181 129.939 94.9111 129.816 95.3581C129.71 95.773 129.462 96.1285 129.116 96.3735C128.717 96.6563 128.344 96.78 127.948 96.7006C127.48 96.6323 127.123 96.3255 126.708 95.7398L124.833 93.0906C124.39 92.4649 124.007 91.8964 123.741 91.4648C123.685 91.3849 123.635 91.3999 123.582 91.4376L121.878 92.6442L122.048 92.8838C122.297 92.7275 122.538 92.6166 122.751 92.6061C122.904 92.5972 123.063 92.6244 123.258 92.7864C123.402 92.9046 123.613 93.1747 123.82 93.4676L125.913 96.4229C126.422 97.1418 126.817 97.3615 127.196 97.4731C127.98 97.6773 128.632 97.3557 129.111 97.0164C129.644 96.6393 129.934 96.174 130.093 95.7215C130.205 95.3427 130.246 95.0338 130.156 94.3982L130.236 94.3416L130.943 95.34C130.999 95.4199 131.067 95.4316 131.121 95.3939L132.745 94.2438L132.566 93.9909C132.396 94.0907 132.165 94.2149 131.984 94.2426C131.669 94.3058 131.467 94.1893 131.234 93.974C131.044 93.7893 130.865 93.5364 130.695 93.2968ZM137.055 91.192L136.875 90.9391C136.746 91.0106 136.528 91.1254 136.38 91.1703C135.998 91.2806 135.786 91.1508 135.522 90.9184C135.327 90.7564 135.078 90.433 134.918 90.2067L131.977 86.0532L133.614 84.8937L133.35 84.521L131.713 85.6804L130.742 84.3093C130.403 83.83 130.184 83.465 130.127 83.0457C130.07 82.6264 130.168 82.2571 130.528 82.0026C130.781 81.8234 130.965 81.773 131.124 81.8002C131.274 81.8141 131.376 81.9017 131.576 82.0998C131.753 82.2939 131.874 82.4082 132.029 82.4581C132.23 82.5159 132.393 82.5203 132.62 82.3601C132.899 82.1621 132.931 81.8399 132.714 81.5337C132.459 81.1743 132.058 81.0588 131.62 81.0893C131.231 81.1047 130.855 81.2511 130.416 81.5622C129.923 81.9109 129.584 82.3912 129.48 83.0639C129.402 83.659 129.503 84.3667 130.252 85.3957L130.874 86.2743L129.969 86.9153L130.233 87.2881L131.138 86.6471L134.079 90.8005C134.268 91.0668 134.428 91.2931 134.567 91.5743C134.731 91.9182 134.693 92.2044 134.533 92.4578C134.438 92.6053 134.283 92.7545 134.186 92.8432L134.365 93.0962L137.055 91.192ZM144.157 85.9629L143.917 85.7932C143.844 85.9446 143.686 86.1165 143.566 86.2013C143.407 86.3144 143.249 86.346 143.094 86.2961C142.884 86.225 142.674 86.0137 142.222 85.3747L139.601 81.6738C138.951 80.7553 137.905 81.0563 136.999 81.6973C136.32 82.178 135.738 83.0498 135.691 83.6033C135.644 83.8762 135.706 84.1324 135.856 84.3454C136.064 84.6383 136.386 84.6699 136.612 84.5097C136.918 84.2929 136.984 84.0466 136.751 83.6323C136.545 83.2579 136.532 82.9279 136.664 82.6345C136.811 82.3905 136.999 82.177 137.252 81.9979C137.878 81.5549 138.31 81.6287 138.791 82.3076L139.498 83.3061C139.625 83.6555 139.507 84.2789 138.988 84.9859C138.462 85.7385 138.012 86.1766 137.84 86.978C137.755 87.4782 137.908 87.9491 138.144 88.2819C138.861 89.2937 139.917 89.3454 140.862 88.6761C141.767 88.0352 141.869 87.1633 141.805 86.6492L141.898 86.5832C142.241 87.0397 142.503 87.1545 142.796 87.1463C142.963 87.128 143.138 87.0642 143.364 86.904C143.75 86.6306 144.069 86.2053 144.157 85.9629ZM139.884 83.8519L141.355 85.9286C141.774 86.6907 141.397 87.5975 140.838 87.9934C140.226 88.427 139.537 88.4147 139 87.6559C138.708 87.2432 138.63 86.8788 138.678 86.5244C138.723 86.1928 138.943 85.7973 139.281 85.2583C139.558 84.8025 139.85 84.2556 139.884 83.8519ZM144.268 77.0501C144.934 76.5787 145.309 76.5727 145.986 77.133C146.36 77.4076 146.672 77.5663 147.018 77.3212C147.298 77.1232 147.358 76.8409 147.122 76.5081C147 76.335 146.777 76.1331 146.44 76.0521C145.888 75.9228 145.151 75.9254 144.046 76.7078C142.488 77.8107 142.227 80.0946 143.518 81.9184C144.413 83.1831 145.447 83.7107 146.417 83.783C147.139 83.8713 147.841 83.7338 148.574 83.2154C149.772 82.367 150.069 81.0371 149.61 79.6832L149.215 79.8029C149.464 80.606 149.607 81.824 148.316 82.7384C147.916 83.0212 147.381 83.1403 146.936 83.0759C146.117 82.936 145.242 82.3768 144.403 81.192C143.545 79.9806 143.288 78.8835 143.501 78.1126C143.617 77.7111 143.895 77.314 144.268 77.0501ZM155.267 77.0567C155.214 77.5742 154.977 78.0018 154.564 78.294C153.912 78.7559 153.505 78.6044 153.118 78.0586L149.842 73.4031L151.519 72.2154L151.255 71.8426L149.578 73.0304L148.07 70.9004L147.857 71.0512C148.592 73.0491 148.486 73.8033 147.826 74.451L147.986 74.6773C148.119 74.5831 148.847 74.0874 149.007 73.9742C149.135 74.1834 152.227 78.5499 152.284 78.6297C152.661 79.1622 152.923 79.3359 153.268 79.3714C153.754 79.4075 154.139 79.2745 154.632 78.9257C155.178 78.5392 155.554 77.9131 155.536 77.1261L155.267 77.0567ZM161.671 71.3627L159.635 68.4872C159.117 67.755 158.804 67.2569 158.512 66.8443C158.455 66.7644 158.419 66.7699 158.353 66.817L156.662 68.0142L156.832 68.2538C157.054 68.1163 157.331 67.9999 157.567 67.9933C157.788 67.9961 157.953 68.0593 158.125 68.2174C158.265 68.3583 158.538 68.7444 158.68 68.9441L159.971 70.7679C160.263 71.1806 160.542 71.6027 160.711 71.9826C160.906 72.484 160.916 72.9771 160.792 73.4241C160.686 73.8389 160.438 74.1944 160.092 74.4395C159.693 74.7223 159.321 74.8459 158.925 74.7665C158.457 74.6983 158.1 74.3915 157.685 73.8057L155.809 71.1566C155.366 70.5309 154.983 69.9623 154.718 69.5308C154.661 69.4509 154.612 69.4659 154.559 69.5036L152.855 70.7102L153.024 70.9498C153.273 70.7934 153.515 70.6825 153.727 70.672C153.881 70.6632 154.04 70.6904 154.234 70.8524C154.378 70.9705 154.589 71.2407 154.797 71.5335L156.889 74.4889C157.398 75.2078 157.794 75.4275 158.173 75.539C158.957 75.7432 159.609 75.4217 160.088 75.0823C160.62 74.7053 160.91 74.24 161.07 73.7874C161.181 73.4086 161.222 73.0997 161.132 72.4641L161.212 72.4076L161.919 73.406C161.975 73.4859 162.044 73.4975 162.097 73.4598L163.721 72.3098L163.542 72.0569C163.373 72.1567 163.141 72.2809 162.961 72.3086C162.646 72.3717 162.443 72.2552 162.211 72.04C162.02 71.8553 161.841 71.6023 161.671 71.3627ZM163.683 65.1215L163.603 65.178C163.641 65.2313 162.7 63.8185 162.719 63.8451C162.691 63.8052 162.636 63.7841 162.569 63.8312L160.945 64.9813L161.115 65.2209C161.343 65.1194 161.571 65.018 161.819 65.0019C161.996 64.997 162.196 65.0547 162.35 65.1861C162.503 65.3176 162.842 65.7969 163.002 66.0232L165.029 68.8854C165.217 69.1516 165.425 69.4445 165.532 69.7085C165.659 70.0579 165.638 70.2532 165.496 70.5332C165.391 70.6674 165.246 70.8299 165.136 70.9281L165.315 71.181L167.978 69.2957L167.799 69.0428C167.643 69.1331 167.477 69.2102 167.293 69.2607C167.096 69.3205 166.908 69.2534 166.697 69.1236C166.43 68.9727 166.197 68.7574 165.83 68.2382L164.849 66.8537C164.604 66.5076 164.325 66.0855 164.282 65.9962C163.676 64.8863 163.771 63.5802 164.197 63.2785C164.356 63.1654 164.527 63.1244 164.73 63.2409C164.993 63.4146 165.25 63.5521 165.569 63.3259C165.929 63.0714 165.86 62.7203 165.681 62.4674C165.502 62.2144 165.296 62.1207 165.136 62.0935C164.882 62.0735 164.6 62.1538 164.36 62.3235C163.907 62.644 163.72 63.0566 163.622 63.426C163.508 63.8863 163.498 64.3527 163.683 65.1215ZM166.753 58.5301C167.099 58.2851 167.187 57.8436 166.932 57.4842C166.687 57.138 166.236 57.0376 165.877 57.2921C165.544 57.5277 165.479 57.9731 165.734 58.3325C165.988 58.692 166.42 58.7658 166.753 58.5301ZM169.174 61.0735C168.797 60.541 168.559 60.1494 168.375 59.8604C168.328 59.7938 168.269 59.7955 168.216 59.8332L166.565 61.0021L166.735 61.2417C167.056 61.0743 167.24 61.0238 167.439 61.0227C167.638 61.0217 167.757 61.0771 167.933 61.2125C168.077 61.3307 168.448 61.8271 168.599 62.0401L170.786 65.1286C170.946 65.3549 171.078 65.5413 171.176 65.792C171.273 66.0427 171.231 66.2928 171.093 66.5501C171.038 66.6694 170.879 66.8413 170.769 66.9394L170.948 67.1924L173.544 65.3542L173.365 65.1013C173.222 65.1822 172.998 65.261 172.877 65.287C172.625 65.3258 172.376 65.3418 172.121 65.1227C171.958 64.9779 171.766 64.7344 171.625 64.5347L169.174 61.0735ZM179.692 58.5023L177.534 55.4537C177.053 54.7748 176.521 54.5317 176.032 54.5184C175.62 54.5299 175.203 54.6458 174.75 54.9663C174.258 55.3151 173.895 55.7914 173.723 56.2534C173.522 56.6754 173.402 57.24 173.511 57.9023L173.431 57.9588C173.284 57.7231 172.789 56.9948 172.657 56.8084C172.61 56.7418 172.574 56.7474 172.507 56.7945L170.883 57.9445L171.053 58.1842C171.284 58.06 171.545 57.9757 171.77 57.9558C171.96 57.9414 172.115 57.9913 172.278 58.1361C172.44 58.2809 172.704 58.6536 172.93 58.9731L174.872 61.7155C175.098 62.035 175.362 62.4078 175.458 62.5997C175.627 62.9796 175.575 63.2164 175.354 63.553C175.289 63.659 175.144 63.8215 175.034 63.9196L175.213 64.1725L177.902 62.2684L177.723 62.0155C177.58 62.0964 177.419 62.1507 177.271 62.1956C176.893 62.2832 176.66 62.2083 176.437 62.0064C176.233 61.8311 175.979 61.4717 175.771 61.1788L174.536 59.4348C174.141 58.8757 173.934 58.4425 173.841 57.8884C173.682 57.0421 174.085 56.2568 174.751 55.7855C175.137 55.5121 175.478 55.4301 175.806 55.4978C176.179 55.5733 176.503 55.804 176.889 56.3499L178.793 59.039C179.001 59.3319 179.246 59.678 179.349 59.9647C179.457 60.2875 179.472 60.4772 179.281 60.7723C179.203 60.8876 179.058 61.0501 178.934 61.1577L179.113 61.4106L181.749 59.5442L181.57 59.2912C181.441 59.3628 181.24 59.4454 181.118 59.4714C180.731 59.5457 180.525 59.4519 180.292 59.2367C180.12 59.0786 179.89 58.7818 179.692 58.5023ZM181.576 53.331C180.68 52.0663 180.857 51.1018 181.642 50.5457C182.415 49.9989 183.41 50.1339 184.305 51.3985C185.21 52.6765 184.994 53.6693 184.208 54.2254C183.436 54.7722 182.481 54.609 181.576 53.331ZM189.387 55.0754C188.426 53.7175 187.434 54.0396 186.343 54.8126C185.877 55.1425 184.802 56.0236 184.362 56.3347C183.87 56.6835 183.449 56.6817 183.194 56.3223C182.874 55.8697 183.341 55.2591 183.807 54.9292C184.024 54.7556 184.292 54.6259 184.438 54.5222C185.49 53.7775 186.204 52.1326 185.224 50.7481C185.12 50.6017 184.98 50.4608 184.859 50.3465C184.697 50.2017 184.525 50.0436 184.412 49.8839C184.195 49.5777 184.153 49.2078 184.339 49.0758C184.526 48.9438 184.669 49.062 184.879 49.133C185.067 49.2001 185.26 49.163 185.407 49.0593C185.633 48.8991 185.733 48.5885 185.516 48.2823C185.243 47.8963 184.824 47.813 184.438 48.0864C183.986 48.4069 183.738 49.1018 184.046 49.7629L183.966 49.8195C183.071 49.5143 182.131 49.7399 181.439 50.23C180.347 51.003 179.719 52.6274 180.671 53.972C181.302 54.8639 182.274 55.1353 183.149 55.0156L183.205 55.0955C182.752 55.5563 182.375 56.3227 182.847 56.9883C183.252 57.5608 183.978 57.6263 184.634 57.282L184.681 57.3486C183.782 58.2247 183.492 59.1698 183.982 59.862C184.67 60.8338 186.019 60.6782 187.776 59.4339C189.161 58.4536 190.48 56.6196 189.387 55.0754ZM188.9 55.7997C189.749 56.9978 188.765 58.2339 187.62 59.0445C186.316 59.9683 185.396 60.0802 184.821 59.2682C184.019 58.1366 185.106 57.1873 185.681 56.7004C186.101 56.3627 186.562 55.9967 186.944 55.7461C187.689 55.2182 188.307 54.961 188.9 55.7997Z" fill="black"/>
<path d="M419.988 86.985L423.359 83.3488C423.936 82.7268 424.207 82.555 424.504 82.4746C424.801 82.3941 425.055 82.4076 425.314 82.5363C425.467 82.6114 425.609 82.6984 425.787 82.8417L425.998 82.6144L423.403 80.2076L423.192 80.4349C423.324 80.58 423.493 80.7813 423.605 80.9734C423.753 81.2448 423.794 81.4164 423.771 81.7058C423.726 82.0422 423.565 82.383 422.989 83.005L419.606 86.6531C418.918 87.3947 418.287 87.7879 417.705 87.9599C416.859 88.1996 415.865 87.8562 414.861 86.9245C413.88 86.015 413.506 84.9788 414.065 83.8958C414.333 83.3432 414.754 82.8887 415.043 82.5777L417.938 79.4558C418.703 78.6305 419.147 78.1521 419.579 77.9972C419.887 77.8818 420.177 77.9285 420.447 78.0453C420.576 78.0982 420.73 78.1962 420.896 78.3285L421.118 78.0892L418.211 75.3941L417.99 75.6333C418.134 75.7895 418.255 75.9465 418.318 76.0711C418.454 76.3083 418.544 76.5474 418.428 76.8633C418.272 77.2963 417.907 77.7371 417.053 78.6581L414.536 81.3733C414.148 81.7919 413.482 82.5096 413.162 83.2142C412.555 84.5414 413.307 86.129 414.575 87.3047C415.675 88.325 416.948 88.7041 417.884 88.4379C418.661 88.2239 419.267 87.7624 419.988 86.985ZM424.96 93.7532C425.814 92.8322 425.418 91.8199 424.826 90.5148C424.248 89.267 424.05 88.6165 424.671 87.9467C425.159 87.4204 425.9 87.4617 426.486 88.0052C426.845 88.3379 427.019 88.6776 427.066 89.0106C427.155 89.5151 426.979 90.0642 426.703 90.6979L426.918 90.8976L428.311 89.2752L428.156 89.131L427.607 89.2672L427.535 89.2006C427.508 88.7977 427.372 88.2488 426.762 87.6831C425.757 86.7515 424.525 86.8095 423.815 87.575C422.839 88.6276 423.207 89.5255 423.786 90.7965C424.429 92.215 424.637 92.8535 423.983 93.5592C423.362 94.229 422.618 94.0955 421.948 93.4744C421.087 92.6759 421.085 91.4062 421.808 90.0516L421.556 89.8187L419.773 91.8136L419.989 92.0132L420.648 91.7575L420.732 91.8351C420.746 92.5156 421.133 93.2743 421.659 93.7624C422.592 94.6275 423.906 94.8895 424.96 93.7532ZM429.651 100.751L429.768 100.481C429.605 100.441 429.404 100.322 429.297 100.222C429.153 100.089 429.09 99.941 429.107 99.7788C429.133 99.5585 429.297 99.3099 429.829 98.7358L432.913 95.4106C433.678 94.5853 433.168 93.6234 432.355 92.8692C431.745 92.3036 430.772 91.9132 430.221 91.9802C429.944 91.9906 429.706 92.1035 429.529 92.2949C429.285 92.558 429.32 92.8799 429.523 93.0684C429.798 93.3235 430.053 93.337 430.41 93.0234C430.734 92.7457 431.055 92.6644 431.369 92.7333C431.638 92.827 431.886 92.9678 432.113 93.1785C432.675 93.6998 432.692 94.1378 432.126 94.7478L431.294 95.6448C430.978 95.8414 430.344 95.8538 429.545 95.4915C428.701 95.131 428.18 94.7813 427.36 94.7776C426.853 94.7967 426.424 95.0438 426.146 95.3428C425.303 96.2518 425.47 97.2959 426.319 98.0834C427.132 98.8376 428.007 98.7584 428.496 98.5899L428.58 98.6675C428.204 99.0972 428.145 99.3765 428.214 99.6624C428.266 99.8221 428.364 99.98 428.568 100.169C428.914 100.49 429.396 100.714 429.651 100.751ZM430.839 96.1352L429.109 98.0012C428.45 98.5686 427.485 98.3857 426.982 97.9198C426.432 97.4096 426.303 96.7335 426.935 96.0517C427.279 95.6809 427.619 95.5296 427.976 95.5046C428.31 95.4804 428.742 95.6142 429.339 95.834C429.842 96.0113 430.437 96.185 430.839 96.1352ZM435.463 99.3102C436.517 98.1739 437.497 98.1485 438.202 98.8029C438.896 99.4462 438.969 100.448 437.915 101.584C436.85 102.732 435.834 102.724 435.128 102.07C434.435 101.427 434.398 100.459 435.463 99.3102ZM435.361 107.313C436.492 106.093 435.973 105.189 434.992 104.28C434.574 103.892 433.491 103.021 433.096 102.655C432.653 102.244 432.568 101.832 432.868 101.509C433.245 101.102 433.939 101.434 434.357 101.822C434.572 101.999 434.754 102.234 434.885 102.356C435.83 103.232 437.587 103.593 438.74 102.349C438.862 102.218 438.971 102.052 439.058 101.91C439.167 101.721 439.286 101.521 439.419 101.377C439.674 101.102 440.028 100.985 440.195 101.14C440.363 101.295 440.276 101.46 440.25 101.68C440.223 101.878 440.299 102.06 440.431 102.182C440.634 102.37 440.958 102.404 441.213 102.129C441.535 101.782 441.531 101.355 441.184 101.033C440.777 100.656 440.046 100.557 439.462 100.995L439.391 100.928C439.505 99.9888 439.091 99.1156 438.469 98.5389C437.489 97.6294 435.77 97.348 434.649 98.556C433.906 99.3574 433.84 100.364 434.137 101.196L434.071 101.267C433.527 100.918 432.699 100.707 432.145 101.305C431.668 101.82 431.753 102.544 432.224 103.115L432.169 103.174C431.127 102.475 430.142 102.385 429.566 103.007C428.756 103.88 429.185 105.168 430.764 106.632C432.008 107.786 434.074 108.701 435.361 107.313ZM434.552 106.986C433.554 108.062 432.142 107.354 431.113 106.4C429.941 105.313 429.643 104.435 430.319 103.706C431.262 102.689 432.414 103.557 433.009 104.02C433.426 104.362 433.879 104.737 434.202 105.06C434.872 105.681 435.251 106.232 434.552 106.986ZM443.744 104.631C444.23 104.659 444.653 104.851 444.988 105.161C445.394 105.538 445.57 105.901 445.619 106.303C445.671 106.752 445.525 107.173 445.026 107.711C444.538 108.237 444.331 108.245 443.96 107.901L441.52 105.639C442.382 104.925 443.189 104.606 443.744 104.631ZM443.671 110.948L443.496 110.608C442.535 111.141 441.458 111.343 440.429 110.389C439.939 109.934 439.665 109.391 439.653 108.779C439.657 107.96 440.208 106.981 440.885 106.251C440.996 106.132 441.096 106.024 441.207 105.927L444.963 109.41C445.131 109.277 445.376 109.037 445.565 108.833C446.363 107.972 446.807 106.27 445.264 104.839C443.888 103.564 441.577 103.778 440.046 105.429C439.258 106.278 438.777 107.277 438.807 108.373C438.816 109.226 439.168 109.998 439.886 110.663C440.938 111.639 442.316 111.738 443.671 110.948Z" fill="black"/>
<path d="M254.949 500.022H252.257L248.701 509.336H248.587L245.08 500.022H242.177V500.348C242.372 500.365 242.601 500.381 242.78 500.446C243.041 500.544 243.27 500.675 243.416 500.984C243.58 501.376 243.628 501.849 243.628 502.779V508.667C243.628 509.483 243.514 509.842 243.319 510.119C243.139 510.38 242.96 510.494 242.682 510.576C242.536 510.625 242.356 510.657 242.144 510.674V511H245.57V510.674C245.325 510.641 245.178 510.609 244.999 510.56C244.754 510.478 244.575 510.348 244.411 510.103C244.232 509.842 244.134 509.483 244.134 508.667V501.327H244.265L248.016 511.082H248.538L252.274 501.36H252.388V507.819C252.388 508.879 252.355 509.565 252.143 510.038C252.013 510.348 251.768 510.511 251.475 510.592C251.344 510.625 251.116 510.657 250.936 510.674V511H254.949V510.674C254.77 510.657 254.59 510.625 254.476 510.592C254.15 510.494 253.905 510.348 253.774 510.038C253.579 509.581 253.562 508.879 253.562 507.819V503.219C253.562 502.077 253.579 501.458 253.774 501.001C253.938 500.691 254.166 500.544 254.411 500.446C254.557 500.397 254.77 500.365 254.949 500.348V500.022ZM263.4 510.837L263.302 510.56C263.155 510.641 262.927 510.69 262.78 510.69C262.584 510.69 262.438 510.625 262.34 510.494C262.209 510.315 262.16 510.021 262.16 509.238V504.704C262.16 503.578 261.133 503.219 260.023 503.219C259.191 503.219 258.213 503.594 257.854 504.018C257.658 504.214 257.56 504.459 257.56 504.72C257.56 505.079 257.805 505.291 258.082 505.291C258.457 505.291 258.653 505.128 258.702 504.655C258.751 504.231 258.93 503.953 259.208 503.79C259.469 503.676 259.746 503.611 260.056 503.611C260.823 503.611 261.133 503.921 261.133 504.753V505.976C261.035 506.335 260.578 506.775 259.746 507.053C258.882 507.362 258.262 507.46 257.658 508.015C257.299 508.374 257.152 508.847 257.152 509.255C257.152 510.494 257.984 511.147 259.143 511.147C260.252 511.147 260.839 510.494 261.084 510.038H261.198C261.214 510.609 261.361 510.853 261.606 511.016C261.752 511.098 261.932 511.147 262.209 511.147C262.682 511.147 263.188 510.984 263.4 510.837ZM261.133 506.645V509.189C261.035 510.054 260.203 510.576 259.518 510.576C258.767 510.576 258.213 510.168 258.213 509.238C258.213 508.733 258.36 508.39 258.604 508.129C258.833 507.884 259.24 507.689 259.828 507.444C260.317 507.232 260.872 506.955 261.133 506.645ZM269.408 509.989C269.065 510.38 268.625 510.592 268.119 510.592C267.32 510.592 267.075 510.233 267.075 509.565L267.091 503.872H269.147V503.415H267.091V500.805H266.83C266.276 502.86 265.754 503.415 264.84 503.562V503.839C265.003 503.839 265.884 503.855 266.08 503.855C266.064 504.1 266.064 509.45 266.064 509.548C266.064 510.201 266.178 510.494 266.439 510.723C266.814 511.033 267.206 511.147 267.809 511.147C268.478 511.147 269.147 510.853 269.587 510.201L269.408 509.989ZM273.361 504.1C273.736 503.79 274.177 503.643 274.634 503.643C275.188 503.643 275.563 503.79 275.873 504.051C276.216 504.345 276.395 504.753 276.395 505.487C276.395 506.204 276.248 506.351 275.743 506.351H272.415C272.562 505.242 272.937 504.459 273.361 504.1ZM277.602 508.782L277.243 508.651C276.901 509.695 276.248 510.576 274.846 510.576C274.177 510.576 273.606 510.364 273.182 509.923C272.627 509.32 272.366 508.227 272.366 507.232C272.366 507.069 272.366 506.922 272.383 506.775H277.504C277.537 506.563 277.553 506.221 277.553 505.943C277.553 504.769 276.722 503.219 274.617 503.219C272.741 503.219 271.192 504.948 271.192 507.199C271.192 508.357 271.518 509.418 272.285 510.201C272.872 510.821 273.655 511.147 274.634 511.147C276.069 511.147 277.146 510.282 277.602 508.782ZM281.883 505.111H281.785C281.785 505.177 281.834 503.48 281.834 503.513C281.834 503.464 281.801 503.415 281.72 503.415H279.73V503.709C279.974 503.758 280.219 503.806 280.431 503.937C280.578 504.035 280.708 504.198 280.757 504.394C280.806 504.589 280.806 505.177 280.806 505.454V508.961C280.806 509.287 280.806 509.646 280.741 509.923C280.643 510.282 280.513 510.429 280.235 510.576C280.072 510.625 279.86 510.674 279.713 510.69V511H282.976V510.69C282.796 510.674 282.617 510.641 282.437 510.576C282.242 510.511 282.127 510.348 282.03 510.119C281.899 509.842 281.834 509.532 281.834 508.896V507.199C281.834 506.775 281.85 506.27 281.867 506.172C282.013 504.916 282.845 503.904 283.367 503.904C283.563 503.904 283.726 503.97 283.824 504.182C283.938 504.475 284.069 504.736 284.46 504.736C284.901 504.736 285.047 504.41 285.047 504.1C285.047 503.79 284.933 503.594 284.819 503.48C284.623 503.317 284.346 503.219 284.052 503.219C283.498 503.219 283.106 503.448 282.813 503.692C282.454 504.002 282.176 504.377 281.883 505.111ZM288.198 501.506C288.622 501.506 288.948 501.197 288.948 500.756C288.948 500.332 288.638 499.989 288.198 499.989C287.79 499.989 287.48 500.316 287.48 500.756C287.48 501.197 287.79 501.506 288.198 501.506ZM288.703 504.981C288.703 504.328 288.736 503.872 288.752 503.529C288.752 503.448 288.703 503.415 288.638 503.415H286.615V503.709C286.974 503.758 287.154 503.823 287.317 503.937C287.48 504.051 287.545 504.165 287.61 504.377C287.659 504.557 287.676 505.177 287.676 505.438V509.222C287.676 509.499 287.676 509.728 287.61 509.989C287.545 510.25 287.366 510.429 287.105 510.56C286.991 510.625 286.762 510.674 286.615 510.69V511H289.796V510.69C289.633 510.674 289.405 510.609 289.291 510.56C289.062 510.445 288.85 510.315 288.769 509.989C288.72 509.777 288.703 509.467 288.703 509.222V504.981ZM298.154 510.837L298.056 510.56C297.909 510.641 297.681 510.69 297.534 510.69C297.338 510.69 297.191 510.625 297.094 510.494C296.963 510.315 296.914 510.021 296.914 509.238V504.704C296.914 503.578 295.886 503.219 294.777 503.219C293.945 503.219 292.967 503.594 292.608 504.018C292.412 504.214 292.314 504.459 292.314 504.72C292.314 505.079 292.559 505.291 292.836 505.291C293.211 505.291 293.407 505.128 293.456 504.655C293.505 504.231 293.684 503.953 293.962 503.79C294.223 503.676 294.5 503.611 294.81 503.611C295.577 503.611 295.886 503.921 295.886 504.753V505.976C295.789 506.335 295.332 506.775 294.5 507.053C293.635 507.362 293.016 507.46 292.412 508.015C292.053 508.374 291.906 508.847 291.906 509.255C291.906 510.494 292.738 511.147 293.896 511.147C295.006 511.147 295.593 510.494 295.838 510.038H295.952C295.968 510.609 296.115 510.853 296.359 511.016C296.506 511.098 296.686 511.147 296.963 511.147C297.436 511.147 297.942 510.984 298.154 510.837ZM295.886 506.645V509.189C295.789 510.054 294.957 510.576 294.272 510.576C293.521 510.576 292.967 510.168 292.967 509.238C292.967 508.733 293.113 508.39 293.358 508.129C293.586 507.884 293.994 507.689 294.581 507.444C295.071 507.232 295.625 506.955 295.886 506.645ZM301.976 501.017C301.976 500.414 302.008 499.826 302.008 499.5C302.008 499.419 301.976 499.386 301.894 499.386H299.872V499.696C300.198 499.712 300.41 499.745 300.589 499.875C300.736 499.989 300.818 500.104 300.883 500.316C300.948 500.511 300.948 501.115 300.948 501.36V509.108C300.948 509.418 300.948 509.711 300.883 509.956C300.801 510.266 300.638 510.445 300.377 510.56C300.247 510.625 300.051 510.674 299.888 510.69V511H303.003V510.69C302.84 510.674 302.661 510.625 302.514 510.56C302.269 510.429 302.106 510.266 302.025 509.907C301.976 509.662 301.976 509.385 301.976 509.108V501.017ZM310.368 508.896C310.368 507.64 309.389 507.167 308.068 506.612C306.796 506.09 306.209 505.748 306.209 504.834C306.209 504.116 306.78 503.643 307.579 503.643C308.068 503.643 308.427 503.774 308.688 503.986C309.096 504.296 309.341 504.818 309.569 505.47H309.863L309.781 503.333H309.569L309.259 503.806H309.161C308.868 503.529 308.394 503.219 307.563 503.219C306.192 503.219 305.328 504.1 305.328 505.144C305.328 506.579 306.209 506.987 307.497 507.526C308.933 508.129 309.52 508.455 309.52 509.418C309.52 510.331 308.884 510.739 307.97 510.739C306.796 510.739 305.931 509.809 305.54 508.325H305.197L305.246 511H305.54L305.85 510.364H305.964C306.437 510.853 307.236 511.147 307.954 511.147C309.226 511.147 310.368 510.445 310.368 508.896ZM246.691 532.341H246.397C246.169 532.831 245.989 533.352 245.321 533.94C244.978 534.25 244.44 534.592 243.298 534.592H242.385C241.993 534.592 241.536 534.527 241.308 534.364C240.835 534.021 240.835 533.206 240.835 532.504V529.519H242.107C242.809 529.519 243.168 529.633 243.429 529.878C243.787 530.188 243.902 530.792 243.934 531.232H244.244V527.399H243.934C243.902 527.823 243.804 528.41 243.429 528.736C243.168 528.997 242.825 529.095 242.107 529.095H240.835V526.192C240.835 525.686 240.884 524.984 241.275 524.642C241.455 524.479 241.781 524.446 242.009 524.446H243.233C244.016 524.446 244.587 524.74 244.782 524.903C245.321 525.311 245.582 525.833 245.892 526.534H246.218L245.777 524.022H238.258V524.332C238.453 524.348 238.616 524.365 238.763 524.414C239.073 524.528 239.285 524.675 239.448 524.984C239.628 525.458 239.677 526.143 239.677 527.203V531.819C239.677 532.879 239.644 533.597 239.432 534.054C239.285 534.331 239.073 534.462 238.747 534.576C238.616 534.625 238.453 534.657 238.258 534.674V535H246.234L246.691 532.341ZM251.216 535V534.69C251.037 534.674 250.873 534.625 250.694 534.527C250.547 534.445 250.4 534.299 250.4 534.103C250.4 533.858 250.547 533.581 250.906 533.059L251.852 531.689H251.901L253.157 533.516C253.369 533.842 253.451 534.005 253.451 534.201C253.451 534.413 253.304 534.511 253.173 534.576C253.043 534.625 252.88 534.674 252.668 534.69V535H255.8V534.69C255.555 534.657 255.294 534.543 255.131 534.429C254.87 534.25 254.495 533.777 254.12 533.222L252.554 530.873L253.418 529.584C254.005 528.72 254.234 528.296 254.805 527.937C254.968 527.855 255.245 527.741 255.457 527.692V527.415H252.782V527.709C253.01 527.741 253.206 527.774 253.353 527.855C253.483 527.921 253.581 528.051 253.581 528.279C253.581 528.54 253.467 528.801 253.092 529.356L252.358 530.498H252.309L251.216 528.867C251.02 528.589 250.906 528.426 250.906 528.182C250.906 527.986 251.037 527.888 251.216 527.823C251.363 527.774 251.493 527.741 251.689 527.709V527.415H248.59V527.709C248.883 527.758 249.095 527.872 249.242 527.97C249.503 528.165 249.764 528.557 250.156 529.128L251.64 531.314L250.564 532.847C249.927 533.76 249.634 534.135 249.193 534.413C249.014 534.527 248.818 534.641 248.541 534.69V535H251.216ZM261.634 533.989C261.291 534.38 260.851 534.592 260.345 534.592C259.546 534.592 259.301 534.233 259.301 533.565L259.318 527.872H261.373V527.415H259.318V524.805H259.057C258.502 526.86 257.98 527.415 257.067 527.562V527.839C257.23 527.839 258.111 527.855 258.306 527.855C258.29 528.1 258.29 533.45 258.29 533.548C258.29 534.201 258.404 534.494 258.665 534.723C259.04 535.033 259.432 535.147 260.035 535.147C260.704 535.147 261.373 534.853 261.813 534.201L261.634 533.989ZM265.616 529.111H265.519C265.519 529.177 265.567 527.48 265.567 527.513C265.567 527.464 265.535 527.415 265.453 527.415H263.463V527.709C263.708 527.758 263.953 527.806 264.165 527.937C264.311 528.035 264.442 528.198 264.491 528.394C264.54 528.589 264.54 529.177 264.54 529.454V532.961C264.54 533.287 264.54 533.646 264.475 533.923C264.377 534.282 264.246 534.429 263.969 534.576C263.806 534.625 263.594 534.674 263.447 534.69V535H266.709V534.69C266.53 534.674 266.35 534.641 266.171 534.576C265.975 534.511 265.861 534.348 265.763 534.119C265.633 533.842 265.567 533.532 265.567 532.896V531.199C265.567 530.775 265.584 530.27 265.6 530.172C265.747 528.916 266.579 527.904 267.101 527.904C267.297 527.904 267.46 527.97 267.558 528.182C267.672 528.475 267.802 528.736 268.194 528.736C268.634 528.736 268.781 528.41 268.781 528.1C268.781 527.79 268.667 527.594 268.553 527.48C268.357 527.317 268.079 527.219 267.786 527.219C267.231 527.219 266.84 527.448 266.546 527.692C266.187 528.002 265.91 528.377 265.616 529.111ZM276.596 534.837L276.499 534.56C276.352 534.641 276.123 534.69 275.977 534.69C275.781 534.69 275.634 534.625 275.536 534.494C275.406 534.315 275.357 534.021 275.357 533.238V528.704C275.357 527.578 274.329 527.219 273.22 527.219C272.388 527.219 271.409 527.594 271.05 528.018C270.855 528.214 270.757 528.459 270.757 528.72C270.757 529.079 271.001 529.291 271.279 529.291C271.654 529.291 271.85 529.128 271.899 528.655C271.948 528.231 272.127 527.953 272.404 527.79C272.665 527.676 272.943 527.611 273.253 527.611C274.019 527.611 274.329 527.921 274.329 528.753V529.976C274.231 530.335 273.775 530.775 272.943 531.053C272.078 531.362 271.458 531.46 270.855 532.015C270.496 532.374 270.349 532.847 270.349 533.255C270.349 534.494 271.181 535.147 272.339 535.147C273.448 535.147 274.035 534.494 274.28 534.038H274.394C274.411 534.609 274.557 534.853 274.802 535.016C274.949 535.098 275.128 535.147 275.406 535.147C275.879 535.147 276.384 534.984 276.596 534.837ZM274.329 530.645V533.189C274.231 534.054 273.399 534.576 272.714 534.576C271.964 534.576 271.409 534.168 271.409 533.238C271.409 532.733 271.556 532.39 271.801 532.129C272.029 531.884 272.437 531.689 273.024 531.444C273.514 531.232 274.068 530.955 274.329 530.645ZM281.838 527.627C282.653 527.627 282.963 527.839 283.191 528.687C283.338 529.128 283.501 529.438 283.925 529.438C284.268 529.438 284.48 529.242 284.48 528.834C284.48 528.622 284.415 528.328 284.186 528.067C283.811 527.643 283.208 527.219 281.854 527.219C279.945 527.219 278.412 528.932 278.412 531.167C278.412 532.716 278.95 533.744 279.701 534.364C280.239 534.853 280.891 535.147 281.789 535.147C283.257 535.147 284.268 534.233 284.676 532.863L284.284 532.733C284.023 533.532 283.436 534.609 281.854 534.609C281.365 534.609 280.859 534.396 280.533 534.087C279.945 533.499 279.554 532.537 279.554 531.085C279.554 529.601 279.978 528.557 280.598 528.051C280.924 527.79 281.381 527.627 281.838 527.627ZM290.81 533.989C290.468 534.38 290.027 534.592 289.522 534.592C288.722 534.592 288.478 534.233 288.478 533.565L288.494 527.872H290.549V527.415H288.494V524.805H288.233C287.678 526.86 287.156 527.415 286.243 527.562V527.839C286.406 527.839 287.287 527.855 287.483 527.855C287.466 528.1 287.466 533.45 287.466 533.548C287.466 534.201 287.58 534.494 287.841 534.723C288.217 535.033 288.608 535.147 289.212 535.147C289.88 535.147 290.549 534.853 290.99 534.201L290.81 533.989ZM294.303 525.506C294.727 525.506 295.054 525.197 295.054 524.756C295.054 524.332 294.744 523.989 294.303 523.989C293.895 523.989 293.586 524.316 293.586 524.756C293.586 525.197 293.895 525.506 294.303 525.506ZM294.809 528.981C294.809 528.328 294.842 527.872 294.858 527.529C294.858 527.448 294.809 527.415 294.744 527.415H292.721V527.709C293.08 527.758 293.259 527.823 293.422 527.937C293.586 528.051 293.651 528.165 293.716 528.377C293.765 528.557 293.781 529.177 293.781 529.438V533.222C293.781 533.499 293.781 533.728 293.716 533.989C293.651 534.25 293.471 534.429 293.21 534.56C293.096 534.625 292.868 534.674 292.721 534.69V535H295.902V534.69C295.739 534.674 295.51 534.609 295.396 534.56C295.168 534.445 294.956 534.315 294.874 533.989C294.825 533.777 294.809 533.467 294.809 533.222V528.981ZM298.045 531.183C298.045 533.662 299.774 535.147 301.601 535.147C303.427 535.147 305.157 533.646 305.157 531.167C305.157 528.704 303.427 527.219 301.601 527.219C299.757 527.219 298.045 528.704 298.045 531.183ZM299.203 531.183C299.203 529.731 299.562 528.736 300.214 528.149C300.606 527.79 301.127 527.627 301.601 527.627C302.057 527.627 302.579 527.774 302.971 528.149C303.623 528.753 303.982 529.748 303.982 531.183C303.982 532.602 303.607 533.613 302.971 534.217C302.579 534.592 302.074 534.739 301.601 534.739C301.111 534.739 300.606 534.592 300.198 534.201C299.562 533.613 299.203 532.602 299.203 531.183ZM314.264 532.961V529.226C314.264 528.394 313.97 527.888 313.579 527.594C313.236 527.366 312.829 527.219 312.274 527.219C311.67 527.219 311.1 527.399 310.692 527.676C310.284 527.904 309.86 528.296 309.566 528.899H309.468C309.485 528.622 309.501 527.741 309.501 527.513C309.501 527.431 309.468 527.415 309.387 527.415H307.397V527.709C307.658 527.741 307.919 527.823 308.114 527.937C308.278 528.035 308.375 528.165 308.424 528.377C308.473 528.589 308.473 529.046 308.473 529.438V532.798C308.473 533.189 308.473 533.646 308.441 533.858C308.359 534.266 308.18 534.429 307.805 534.576C307.69 534.625 307.478 534.674 307.332 534.69V535H310.627V534.69C310.463 534.674 310.3 534.625 310.153 534.576C309.795 534.429 309.648 534.233 309.583 533.94C309.517 533.679 309.517 533.238 309.517 532.879V530.743C309.517 530.057 309.599 529.584 309.844 529.079C310.202 528.296 310.985 527.888 311.801 527.888C312.274 527.888 312.6 528.018 312.829 528.263C313.09 528.54 313.22 528.916 313.22 529.584V532.879C313.22 533.238 313.22 533.662 313.139 533.956C313.041 534.282 312.943 534.445 312.617 534.576C312.486 534.625 312.274 534.674 312.111 534.69V535H315.341V534.69C315.194 534.674 314.982 534.625 314.868 534.576C314.509 534.413 314.395 534.217 314.329 533.907C314.28 533.679 314.264 533.304 314.264 532.961Z" fill="black"/>
<path d="M42.5369 304.395L42.2375 304.476C42.2724 304.669 42.2947 304.815 42.2896 304.985C42.2753 305.31 42.2126 305.58 41.947 305.786C41.5523 306.078 40.8559 306.315 39.8318 306.589L35.3728 307.784C34.3486 308.059 33.6784 308.204 33.1708 308.138C32.8492 308.072 32.6725 307.917 32.4778 307.631C32.3925 307.502 32.3146 307.337 32.2482 307.152L31.933 307.237L33.1447 311.759C33.4191 312.783 33.9318 313.625 34.46 314.21C35.612 315.421 37.4055 316.19 39.832 315.54C42.2111 314.902 43.4355 313.358 43.8149 311.686C44 310.927 44.0314 309.973 43.6895 308.697L42.5369 304.395ZM39.4953 314.346C37.5416 314.87 36.1238 314.557 35.0838 313.89C34.272 313.382 33.7877 312.583 33.5344 311.637L33.374 311.039C33.2346 310.519 33.2048 310.155 33.3432 309.915C33.5581 309.52 34.0423 309.373 34.7829 309.175L41.8731 307.275C42.1882 307.191 42.4876 307.111 42.6759 307.246C42.8199 307.342 42.9378 307.53 43.056 307.971L43.2756 308.791C43.5416 309.783 43.5731 310.721 43.2274 311.573C42.7171 312.757 41.4964 313.81 39.4953 314.346ZM44.7002 318.204C44.81 318.614 45.1938 318.849 45.6192 318.735C46.0288 318.625 46.2795 318.237 46.1655 317.811C46.06 317.418 45.6646 317.203 45.2392 317.317C44.8138 317.431 44.5946 317.81 44.7002 318.204ZM41.475 319.592C42.1053 319.423 42.5549 319.336 42.89 319.263C42.9688 319.242 42.9876 319.187 42.9707 319.123L42.4472 317.17L42.1636 317.246C42.2092 317.605 42.1926 317.795 42.1246 317.982C42.0565 318.169 41.9631 318.262 41.7751 318.38C41.6145 318.474 41.02 318.65 40.7679 318.717L37.1125 319.697C36.8446 319.769 36.624 319.828 36.355 319.832C36.086 319.837 35.8663 319.71 35.6727 319.492C35.5801 319.398 35.4737 319.19 35.42 319.053L35.1206 319.133L35.9439 322.205L36.2432 322.125C36.2168 321.963 36.2207 321.726 36.2384 321.603C36.2896 321.353 36.3608 321.114 36.6548 320.951C36.8469 320.849 37.1421 320.753 37.3784 320.689L41.475 319.592ZM39.8735 328.741C41.0868 328.416 41.2904 327.348 41.4841 325.928C41.659 324.564 41.8379 323.908 42.7202 323.672C43.4135 323.486 44.0182 323.915 44.2251 324.687C44.3517 325.16 44.3186 325.54 44.1813 325.847C43.9875 326.321 43.5466 326.693 42.9754 327.082L43.0514 327.366L45.0944 326.734L45.0395 326.529L44.5024 326.352L44.477 326.258C44.6689 325.902 44.8458 325.365 44.6305 324.562C44.2759 323.238 43.2013 322.631 42.1929 322.901C40.8064 323.273 40.6404 324.229 40.454 325.613C40.2425 327.156 40.0794 327.808 39.1498 328.057C38.2675 328.293 37.7089 327.784 37.4725 326.902C37.1685 325.767 37.8428 324.692 39.1753 323.929L39.0867 323.598L36.5153 324.338L36.5913 324.622L37.286 324.756L37.3156 324.867C36.9653 325.45 36.8886 326.298 37.0744 326.992C37.4037 328.221 38.3767 329.142 39.8735 328.741ZM40.412 334.973C39.9452 334.744 39.6264 334.373 39.4955 333.885C39.2886 333.113 39.5719 332.783 40.2179 332.61L45.721 331.153L46.253 333.138L46.6942 333.02L46.1622 331.034L48.6832 330.359L48.6156 330.107C46.4868 330.103 45.816 329.742 45.4378 328.898L45.1699 328.97C45.2122 329.127 45.4244 329.982 45.4751 330.171C45.2345 330.219 40.0665 331.604 39.9719 331.629C39.3417 331.798 39.0876 331.984 38.9346 332.295C38.7323 332.738 38.7234 333.146 38.8796 333.729C39.0527 334.375 39.5094 334.945 40.2536 335.201L40.412 334.973ZM46.1538 337.557L46.1285 337.463C46.0654 337.48 47.7168 337.088 47.6852 337.096C47.7325 337.084 47.7713 337.04 47.7502 336.961L47.2352 335.039L46.9515 335.115C46.9676 335.364 46.9837 335.613 46.9125 335.851C46.856 336.018 46.7322 336.187 46.5558 336.285C46.3794 336.382 45.8121 336.534 45.5443 336.606L42.1567 337.514C41.8416 337.598 41.495 337.691 41.2102 337.7C40.8383 337.698 40.6627 337.61 40.4491 337.38C40.3596 337.236 40.2575 337.043 40.2037 336.906L39.9043 336.986L40.7487 340.137L41.0481 340.057C41.0174 339.879 41.0025 339.698 41.019 339.507C41.0314 339.302 41.1594 339.149 41.3547 338.995C41.5888 338.798 41.8712 338.654 42.4857 338.49L44.1244 338.051C44.534 337.941 45.0267 337.826 45.1254 337.816C46.3767 337.633 47.5688 338.175 47.7039 338.679C47.7546 338.868 47.7338 339.042 47.5543 339.192C47.3002 339.378 47.0819 339.572 47.1832 339.95C47.2972 340.375 47.6504 340.433 47.9497 340.352C48.2491 340.272 48.4086 340.111 48.4893 339.971C48.5962 339.74 48.619 339.447 48.543 339.163C48.3995 338.628 48.0776 338.309 47.7652 338.088C47.373 337.822 46.9388 337.651 46.1538 337.557ZM51.2703 342.724C51.3801 343.134 51.7639 343.369 52.1893 343.255C52.599 343.145 52.8496 342.757 52.7356 342.331C52.6301 341.938 52.2347 341.723 51.8093 341.837C51.3839 341.951 51.1648 342.33 51.2703 342.724ZM48.0451 344.112C48.6754 343.943 49.125 343.856 49.4601 343.783C49.5389 343.762 49.5577 343.707 49.5408 343.644L49.0173 341.69L48.7337 341.766C48.7793 342.125 48.7627 342.315 48.6947 342.502C48.6266 342.689 48.5332 342.782 48.3453 342.9C48.1846 342.994 47.5901 343.17 47.338 343.237L43.6826 344.217C43.4147 344.289 43.1941 344.348 42.9251 344.352C42.6562 344.357 42.4364 344.23 42.2428 344.012C42.1502 343.918 42.0439 343.71 41.9901 343.573L41.6907 343.653L42.514 346.725L42.8134 346.645C42.7869 346.483 42.7908 346.246 42.8085 346.123C42.8597 345.873 42.9309 345.634 43.2249 345.471C43.4171 345.369 43.7122 345.273 43.9485 345.21L48.0451 344.112ZM54.7091 347.365L54.1518 345.285L53.8682 345.361C53.9285 345.649 53.9772 345.957 53.8745 346.204C53.8137 346.355 53.713 346.483 53.5566 346.593C53.4274 346.678 53.1323 346.774 52.8802 346.842L44.7185 349.028C44.2931 349.142 43.7217 349.279 43.1933 349.386L43.2777 349.702L44.4161 350.106L44.4541 350.248C43.9494 350.822 43.712 351.764 43.9316 352.583C44.2904 353.922 45.8108 355.626 48.6311 354.87C51.4987 354.102 52.045 352.233 51.6566 350.783C51.3906 349.791 50.6984 349.098 49.6148 348.899L49.5895 348.804L52.5989 347.998C53.4497 347.77 54.2072 347.634 54.6326 347.52C54.7114 347.499 54.726 347.428 54.7091 347.365ZM51.1344 350.788C51.4637 352.017 50.7893 353.093 48.3156 353.756C46.2831 354.3 44.7369 353.887 44.3528 352.453C44.1923 351.855 44.221 351.205 44.6081 350.696C45.0067 350.167 45.5402 349.889 46.5328 349.623L48.1242 349.197C49.1641 348.918 49.7266 349.19 50.0977 349.377C50.6728 349.696 50.9697 350.174 51.1344 350.788ZM49.1391 363.888L52.5425 362.976C53.4091 362.744 53.9847 362.623 54.4732 362.492C54.5677 362.467 54.575 362.431 54.5539 362.352L54.0177 360.351L53.7341 360.427C53.7859 360.684 53.7989 360.984 53.7235 361.207C53.6439 361.414 53.5274 361.547 53.3195 361.653C53.1389 361.735 52.6819 361.858 52.4456 361.921L50.287 362.499C49.7986 362.63 49.3059 362.745 48.8909 362.772C48.3529 362.781 47.8872 362.619 47.5108 362.348C47.1585 362.105 46.9111 361.749 46.8013 361.339C46.6747 360.867 46.6879 360.475 46.8997 360.131C47.1262 359.716 47.5378 359.487 48.2311 359.301L51.3665 358.461C52.1071 358.263 52.7731 358.101 53.2699 358.002C53.3645 357.977 53.3676 357.925 53.3507 357.862L52.8103 355.845L52.5267 355.921C52.5869 356.209 52.6072 356.474 52.5433 356.677C52.4983 356.824 52.4176 356.964 52.1981 357.09C52.0375 357.184 51.7108 357.288 51.3642 357.381L47.8663 358.318C47.0155 358.546 46.6723 358.841 46.4362 359.157C45.9726 359.822 46.0481 360.545 46.2 361.112C46.3689 361.742 46.7046 362.176 47.0738 362.482C47.3904 362.718 47.6658 362.864 48.2933 363L48.3186 363.094L47.1369 363.411C47.0424 363.436 47.0078 363.496 47.0247 363.559L47.5397 365.482L47.8391 365.401C47.8042 365.208 47.7681 364.948 47.8047 364.769C47.8548 364.451 48.0343 364.302 48.3167 364.159C48.5562 364.044 48.8555 363.964 49.1391 363.888ZM50.1367 371.266C49.6699 371.037 49.3511 370.666 49.2202 370.178C49.0134 369.406 49.2967 369.076 49.9427 368.903L55.4458 367.446L55.9777 369.431L56.4189 369.313L55.8869 367.327L58.4079 366.652L58.3404 366.4C56.2116 366.396 55.5408 366.035 55.1625 365.191L54.8947 365.263C54.9369 365.42 55.1491 366.276 55.1998 366.465C54.9592 366.512 49.7912 367.897 49.6967 367.922C49.0664 368.091 48.8124 368.277 48.6593 368.589C48.4571 369.031 48.4481 369.439 48.6043 370.022C48.7774 370.668 49.2341 371.238 49.9783 371.494L50.1367 371.266ZM59.234 372.445C59.3437 372.855 59.7275 373.089 60.153 372.975C60.5626 372.866 60.8133 372.478 60.6993 372.052C60.5937 371.658 60.1984 371.443 59.773 371.557C59.3476 371.671 59.1284 372.051 59.234 372.445ZM56.0088 373.833C56.639 373.664 57.0887 373.577 57.4238 373.504C57.5025 373.483 57.5214 373.427 57.5045 373.364L56.981 371.411L56.6974 371.486C56.743 371.846 56.7264 372.036 56.6583 372.223C56.5903 372.41 56.4968 372.503 56.3089 372.621C56.1483 372.714 55.5537 372.891 55.3016 372.958L51.6462 373.938C51.3784 374.009 51.1578 374.069 50.8888 374.073C50.6198 374.078 50.4001 373.951 50.2065 373.732C50.1139 373.639 50.0075 373.431 49.9538 373.293L49.6544 373.374L50.4776 376.446L50.777 376.366C50.7506 376.204 50.7545 375.967 50.7722 375.844C50.8234 375.594 50.8945 375.355 51.1886 375.192C51.3807 375.09 51.6759 374.994 51.9122 374.93L56.0088 373.833ZM54.7192 377.528C52.3242 378.17 51.3379 380.224 51.8108 381.989C52.2836 383.753 54.1807 385.035 56.5756 384.393C58.9548 383.756 59.9411 381.702 59.4683 379.937C58.9912 378.156 57.1141 376.886 54.7192 377.528ZM55.0189 378.647C56.4212 378.271 57.4752 378.36 58.2113 378.838C58.6593 379.123 58.9519 379.585 59.0743 380.042C59.1926 380.484 59.1859 381.026 58.9248 381.501C58.5107 382.287 57.6424 382.892 56.2559 383.263C54.8851 383.63 53.8111 383.53 53.0635 383.071C52.5998 382.79 52.3271 382.34 52.2047 381.883C52.078 381.41 52.089 380.884 52.3616 380.389C52.7641 379.622 53.6481 379.014 55.0189 378.647ZM57.1997 393.655L60.8078 392.688C61.6114 392.473 62.0238 392.058 62.2061 391.604C62.338 391.214 62.3743 390.782 62.2307 390.247C62.0745 389.664 61.7535 389.159 61.3801 388.836C61.0539 388.502 60.566 388.193 59.907 388.066L59.8817 387.971C60.1538 387.915 61.0088 387.703 61.2294 387.644C61.3082 387.623 61.3155 387.587 61.2944 387.508L60.7793 385.586L60.4957 385.662C60.5318 385.923 60.5205 386.196 60.4609 386.415C60.4086 386.597 60.3079 386.726 60.1157 386.828C59.9235 386.93 59.4824 387.048 59.1042 387.15L55.8585 388.019C55.4803 388.121 55.0392 388.239 54.8259 388.262C54.4109 388.289 54.2069 388.158 53.968 387.833C53.8911 387.736 53.789 387.544 53.7352 387.406L53.4359 387.486L54.2887 390.669L54.588 390.589C54.5616 390.427 54.5666 390.257 54.5759 390.102C54.6248 389.718 54.7759 389.525 55.0426 389.386C55.2778 389.256 55.7033 389.142 56.0499 389.049L58.1139 388.496C58.7757 388.318 59.2537 388.275 59.8055 388.38C60.6547 388.524 61.2512 389.175 61.4623 389.963C61.5847 390.42 61.5431 390.769 61.3659 391.053C61.1656 391.376 60.837 391.6 60.191 391.773L57.0082 392.625C56.6616 392.718 56.2519 392.828 55.9472 392.825C55.6068 392.815 55.4239 392.763 55.2134 392.482C55.1324 392.368 55.0302 392.176 54.9722 392.023L54.6729 392.103L55.5088 395.223L55.8082 395.142C55.7859 394.996 55.7783 394.779 55.796 394.656C55.8607 394.267 56.0202 394.106 56.3027 393.963C56.5106 393.856 56.8688 393.744 57.1997 393.655Z" fill="black"/>
<path d="M476.16 396.331L476.04 396.599C476.394 397.007 476.798 397.383 477.062 398.233C477.206 398.672 477.3 399.303 476.835 400.346L476.463 401.181C476.304 401.538 476.059 401.929 475.817 402.071C475.311 402.364 474.566 402.032 473.926 401.747L471.199 400.532L471.717 399.37C472.002 398.729 472.253 398.448 472.582 398.309C473.011 398.107 473.609 398.248 474.025 398.398L474.151 398.115L470.649 396.555L470.523 396.838C470.897 397.04 471.394 397.369 471.539 397.844C471.671 398.189 471.621 398.541 471.329 399.197L470.812 400.359L468.159 399.177C467.697 398.972 467.077 398.642 466.923 398.144C466.847 397.914 466.95 397.603 467.043 397.394L467.541 396.277C467.86 395.562 468.36 395.16 468.589 395.047C469.18 394.721 469.763 394.696 470.53 394.698L470.663 394.4L468.189 393.78L465.129 400.649L465.412 400.775C465.506 400.603 465.588 400.46 465.692 400.346C465.923 400.11 466.143 399.976 466.492 399.953C466.998 399.981 467.643 400.215 468.612 400.647L472.828 402.526C473.797 402.957 474.439 403.279 474.77 403.659C474.964 403.906 474.997 404.152 474.968 404.497C474.96 404.636 474.923 404.798 474.858 404.984L475.156 405.117L478.403 397.83L476.16 396.331ZM480.44 388.248L477.028 386.728C476.268 386.389 475.686 386.452 475.259 386.69C474.911 386.91 474.611 387.223 474.385 387.729C474.139 388.28 474.071 388.875 474.158 389.36C474.201 389.826 474.386 390.373 474.818 390.886L474.778 390.976C474.531 390.848 473.733 390.475 473.525 390.382C473.45 390.348 473.422 390.372 473.389 390.446L472.579 392.264L472.847 392.383C472.983 392.158 473.164 391.953 473.348 391.821C473.504 391.712 473.663 391.675 473.876 391.717C474.09 391.759 474.507 391.944 474.865 392.104L477.934 393.471C478.292 393.631 478.709 393.817 478.889 393.933C479.229 394.173 479.305 394.403 479.286 394.806C479.284 394.93 479.243 395.144 479.198 395.284L479.481 395.411L480.822 392.401L480.539 392.275C480.457 392.417 480.346 392.546 480.242 392.66C479.962 392.928 479.723 392.983 479.429 392.923C479.164 392.876 478.761 392.697 478.433 392.551L476.482 391.681C475.856 391.402 475.457 391.135 475.095 390.706C474.525 390.06 474.472 389.178 474.803 388.433C474.996 388.001 475.248 387.756 475.564 387.647C475.924 387.522 476.32 387.555 476.931 387.828L479.94 389.169C480.268 389.315 480.656 389.487 480.891 389.681C481.149 389.903 481.258 390.059 481.244 390.41C481.236 390.549 481.194 390.763 481.143 390.919L481.426 391.045L482.74 388.095L482.457 387.969C482.383 388.096 482.252 388.27 482.161 388.354C481.865 388.616 481.64 388.64 481.331 388.574C481.102 388.525 480.753 388.388 480.44 388.248ZM483.274 380.003C484.556 380.574 485.24 381.682 484.722 382.845C484.191 384.037 482.904 384.642 480.58 383.606C478.315 382.597 477.768 381.139 478.306 379.932C478.551 379.381 478.845 379.083 479.289 378.888C479.806 378.69 480.399 378.722 481.248 379.1L483.274 380.003ZM486.715 379.214L486.432 379.088C486.357 379.216 486.206 379.434 486.072 379.535C485.84 379.735 485.608 379.775 485.32 379.7C485.077 379.645 484.779 379.512 484.51 379.393L477.999 376.492C477.18 376.127 476.269 375.685 475.799 375.458C475.709 375.418 475.673 375.42 475.64 375.494L474.764 377.461L475.032 377.58C475.153 377.349 475.289 377.124 475.479 376.976C475.642 376.852 475.793 376.794 476.051 376.856C476.309 376.917 477.082 377.226 477.515 377.419L479.645 378.368L479.619 378.428C479.044 378.475 478.378 378.768 477.926 379.781C477.249 381.301 477.537 383.5 480.1 384.642C482.499 385.711 484.378 384.78 485.028 383.32C485.5 382.262 485.257 381.243 484.667 380.605L484.706 380.516L485.392 380.821C485.541 380.888 485.72 380.967 485.83 380.999C485.897 381.011 485.94 380.994 485.973 380.92C486.006 380.845 486.655 379.348 486.715 379.214ZM485.846 371.746C488.111 372.755 490.17 371.78 490.914 370.111C491.657 368.442 490.99 366.252 488.725 365.243C486.475 364.241 484.416 365.216 483.672 366.885C482.922 368.569 483.581 370.737 485.846 371.746ZM486.317 370.688C484.991 370.097 484.228 369.365 483.957 368.53C483.789 368.026 483.852 367.483 484.045 367.051C484.231 366.634 484.577 366.217 485.079 366.012C485.896 365.661 486.951 365.738 488.262 366.323C489.558 366.9 490.33 367.654 490.622 368.481C490.805 368.991 490.734 369.513 490.541 369.945C490.342 370.392 490.002 370.794 489.479 371.008C488.683 371.35 487.613 371.266 486.317 370.688ZM494.453 361.807L494.17 361.681C494.095 361.808 493.966 362.018 493.861 362.133C493.589 362.422 493.341 362.419 492.995 362.354C492.745 362.314 492.366 362.163 492.112 362.05L487.464 359.979L488.28 358.146L487.863 357.96L487.046 359.793L485.512 359.109C484.975 358.87 484.601 358.667 484.338 358.336C484.075 358.004 483.971 357.637 484.15 357.234C484.277 356.951 484.409 356.814 484.56 356.756C484.696 356.692 484.828 356.715 485.102 356.783C485.353 356.86 485.515 356.896 485.674 356.86C485.877 356.807 486.019 356.728 486.132 356.474C486.271 356.161 486.134 355.868 485.791 355.716C485.389 355.536 484.985 355.642 484.624 355.892C484.297 356.103 484.048 356.421 483.829 356.913C483.584 357.464 483.537 358.05 483.791 358.682C484.028 359.233 484.476 359.79 485.645 360.293L486.628 360.731L486.177 361.745L486.594 361.93L487.045 360.917L491.694 362.988C491.992 363.121 492.246 363.234 492.509 363.405C492.825 363.617 492.939 363.882 492.93 364.182C492.924 364.358 492.867 364.565 492.829 364.69L493.112 364.817L494.453 361.807ZM497.264 355.499L500.49 348.257L497.999 346.594L497.859 346.907C498.356 347.396 498.791 347.822 499.062 348.657C499.239 349.182 499.367 349.775 498.896 350.833L498.524 351.667C498.305 352.159 497.993 352.538 497.491 352.582C497.193 352.61 496.852 352.494 496.331 352.261L490.982 349.878C490.103 349.487 489.609 349.231 489.272 348.866C489.033 348.599 488.992 348.331 489.024 348.06C489.046 347.891 489.089 347.713 489.147 347.543L488.849 347.41L487.236 351.031L487.534 351.164C487.622 351.006 487.71 350.849 487.814 350.735C488.036 350.477 488.25 350.358 488.608 350.356C489.083 350.372 489.625 350.559 490.504 350.951L495.138 353.016C496.002 353.401 496.503 353.678 496.824 353.999C497.063 354.266 497.119 354.541 497.075 354.879C497.052 355.011 497.015 355.174 496.951 355.359L497.264 355.499ZM493.509 340.599C493.682 340.211 493.531 339.787 493.129 339.608C492.742 339.435 492.303 339.579 492.123 339.981C491.957 340.354 492.129 340.77 492.531 340.949C492.934 341.128 493.343 340.971 493.509 340.599ZM496.888 341.551C496.292 341.285 495.889 341.07 495.582 340.915C495.508 340.882 495.458 340.913 495.431 340.973L494.608 342.821L494.877 342.94C495.067 342.632 495.2 342.495 495.371 342.392C495.541 342.29 495.672 342.277 495.892 342.303C496.076 342.332 496.649 342.569 496.887 342.675L500.344 344.215C500.597 344.328 500.806 344.421 501.018 344.587C501.23 344.753 501.321 344.99 501.334 345.281C501.347 345.412 501.299 345.641 501.254 345.781L501.537 345.908L502.831 343.002L502.548 342.876C502.467 343.018 502.314 343.2 502.223 343.285C502.026 343.447 501.82 343.587 501.489 343.529C501.276 343.488 500.986 343.376 500.762 343.277L496.888 341.551ZM505.005 338.124L504.721 337.998C504.647 338.126 504.517 338.336 504.413 338.45C504.141 338.74 503.893 338.736 503.547 338.671C503.296 338.631 502.917 338.48 502.664 338.367L498.015 336.296L498.832 334.464L498.415 334.278L497.598 336.11L496.063 335.427C495.527 335.188 495.153 334.985 494.89 334.654C494.627 334.322 494.523 333.954 494.702 333.552C494.828 333.269 494.961 333.132 495.112 333.074C495.247 333.009 495.38 333.033 495.653 333.101C495.905 333.177 496.067 333.214 496.226 333.178C496.428 333.125 496.571 333.045 496.684 332.792C496.823 332.479 496.686 332.186 496.343 332.033C495.941 331.854 495.537 331.96 495.175 332.209C494.849 332.421 494.6 332.739 494.381 333.23C494.135 333.782 494.088 334.368 494.343 334.999C494.579 335.551 495.028 336.108 496.196 336.611L497.18 337.049L496.728 338.062L497.146 338.248L497.597 337.235L502.246 339.306C502.544 339.439 502.797 339.552 503.06 339.723C503.376 339.935 503.49 340.2 503.482 340.5C503.475 340.675 503.419 340.882 503.38 341.008L503.664 341.134L505.005 338.124ZM500.612 331.029C500.482 330.56 500.527 330.098 500.713 329.681C500.938 329.175 501.225 328.892 501.59 328.715C501.997 328.521 502.443 328.523 503.113 328.822C503.769 329.114 503.843 329.308 503.637 329.77L502.283 332.81C501.33 332.224 500.767 331.563 500.612 331.029ZM506.614 329.061L506.349 329.335C507.163 330.073 507.702 331.028 507.131 332.309C506.859 332.92 506.433 333.355 505.858 333.563C505.081 333.824 503.977 333.618 503.068 333.213C502.919 333.146 502.785 333.087 502.657 333.012L504.742 328.333C504.561 328.217 504.255 328.063 504.002 327.95C502.929 327.472 501.175 327.601 500.319 329.523C499.555 331.237 500.504 333.356 502.56 334.272C503.618 334.744 504.719 334.877 505.746 334.496C506.552 334.211 507.168 333.629 507.567 332.735C508.151 331.424 507.799 330.089 506.614 329.061ZM489.803 404.24L488.708 406.699L495.768 413.737L495.722 413.842L485.787 413.255L484.605 415.907L484.903 416.039C484.998 415.867 485.105 415.665 485.238 415.528C485.434 415.329 485.646 415.174 485.989 415.166C486.413 415.176 486.865 415.324 487.714 415.703L493.093 418.099C493.838 418.431 494.119 418.681 494.293 418.973C494.458 419.243 494.489 419.453 494.451 419.74C494.436 419.894 494.393 420.071 494.321 420.272L494.619 420.404L496.013 417.275L495.715 417.143C495.586 417.353 495.497 417.474 495.379 417.618C495.205 417.808 495.012 417.919 494.723 417.968C494.411 418.026 494.044 417.969 493.299 417.637L486.594 414.65L486.647 414.531L497.084 415.074L497.296 414.597L489.936 407.228L489.983 407.124L495.883 409.753C496.851 410.184 497.464 410.493 497.81 410.879C498.04 411.124 498.089 411.414 498.044 411.716C498.021 411.848 497.958 412.07 497.9 412.24L498.198 412.373L499.831 408.708L499.533 408.575C499.445 408.732 499.342 408.883 499.266 408.974C499.043 409.232 498.81 409.396 498.474 409.389C497.977 409.382 497.329 409.111 496.361 408.68L492.159 406.808C491.116 406.343 490.557 406.076 490.219 405.711C490.002 405.436 489.961 405.168 489.971 404.904C489.986 404.75 490.043 404.543 490.101 404.373L489.803 404.24ZM503.121 400.922L502.828 400.899C502.843 401.066 502.794 401.294 502.735 401.428C502.655 401.607 502.536 401.715 502.377 401.751C502.16 401.797 501.871 401.722 501.156 401.404L497.014 399.558C495.986 399.1 495.24 399.893 494.789 400.906C494.45 401.666 494.394 402.713 494.636 403.213C494.735 403.472 494.919 403.661 495.157 403.767C495.485 403.913 495.778 403.776 495.891 403.522C496.044 403.18 495.974 402.934 495.562 402.697C495.195 402.48 495.014 402.203 494.978 401.883C494.98 401.599 495.033 401.319 495.159 401.036C495.471 400.335 495.881 400.178 496.641 400.517L497.758 401.015C498.046 401.25 498.262 401.847 498.177 402.719C498.108 403.635 497.946 404.241 498.207 405.018C498.388 405.492 498.761 405.819 499.133 405.985C500.266 406.489 501.2 405.995 501.671 404.937C502.123 403.924 501.766 403.122 501.448 402.713L501.495 402.608C502.023 402.826 502.306 402.791 502.555 402.634C502.689 402.533 502.807 402.389 502.92 402.136C503.112 401.704 503.169 401.175 503.121 400.922ZM498.369 401.287L500.693 402.323C501.443 402.764 501.581 403.736 501.303 404.362C500.997 405.047 500.399 405.388 499.55 405.01C499.088 404.804 498.835 404.53 498.696 404.201C498.565 403.892 498.552 403.44 498.568 402.804C498.573 402.271 498.546 401.652 498.369 401.287ZM504.935 392.242L501.523 390.722C500.763 390.383 500.181 390.446 499.754 390.684C499.406 390.904 499.106 391.217 498.88 391.723C498.634 392.274 498.566 392.869 498.653 393.354C498.696 393.82 498.881 394.367 499.313 394.88L499.273 394.97C499.026 394.842 498.228 394.469 498.02 394.376C497.945 394.342 497.917 394.366 497.884 394.44L497.074 396.258L497.342 396.377C497.478 396.152 497.659 395.947 497.843 395.815C497.999 395.706 498.158 395.669 498.371 395.711C498.585 395.753 499.002 395.938 499.36 396.098L502.429 397.465C502.787 397.625 503.204 397.811 503.384 397.927C503.723 398.167 503.799 398.397 503.781 398.8C503.779 398.924 503.737 399.138 503.693 399.278L503.976 399.405L505.317 396.395L505.034 396.269C504.952 396.411 504.841 396.54 504.737 396.654C504.457 396.922 504.218 396.977 503.923 396.917C503.658 396.87 503.256 396.691 502.928 396.545L500.976 395.675C500.351 395.396 499.952 395.129 499.589 394.7C499.02 394.054 498.966 393.172 499.298 392.427C499.491 391.995 499.743 391.75 500.059 391.641C500.419 391.516 500.815 391.549 501.426 391.822L504.435 393.163C504.763 393.309 505.15 393.481 505.385 393.675C505.644 393.897 505.753 394.053 505.739 394.404C505.731 394.543 505.689 394.757 505.638 394.913L505.921 395.039L507.235 392.089L506.952 391.963C506.878 392.09 506.747 392.264 506.655 392.348C506.36 392.61 506.135 392.634 505.825 392.568C505.597 392.519 505.248 392.382 504.935 392.242ZM510.462 384.446L510.169 384.423C510.183 384.59 510.135 384.819 510.075 384.953C509.996 385.132 509.876 385.239 509.717 385.276C509.5 385.322 509.212 385.247 508.497 384.928L504.355 383.083C503.327 382.625 502.581 383.417 502.129 384.431C501.791 385.19 501.735 386.237 501.976 386.738C502.076 386.996 502.259 387.185 502.498 387.291C502.825 387.437 503.119 387.3 503.232 387.047C503.384 386.704 503.315 386.459 502.903 386.222C502.535 386.004 502.355 385.728 502.319 385.408C502.321 385.123 502.374 384.843 502.5 384.56C502.812 383.86 503.221 383.703 503.981 384.041L505.099 384.539C505.387 384.775 505.603 385.371 505.518 386.244C505.449 387.16 505.286 387.766 505.547 388.543C505.729 389.017 506.101 389.343 506.474 389.509C507.606 390.014 508.541 389.519 509.012 388.461C509.464 387.448 509.107 386.646 508.789 386.237L508.835 386.133C509.364 386.35 509.647 386.316 509.895 386.158C510.03 386.058 510.147 385.914 510.26 385.66C510.453 385.228 510.509 384.7 510.462 384.446ZM505.71 384.811L508.034 385.847C508.784 386.288 508.922 387.261 508.643 387.886C508.338 388.572 507.74 388.912 506.89 388.534C506.429 388.328 506.175 388.055 506.037 387.725C505.906 387.417 505.893 386.965 505.909 386.329C505.914 385.795 505.887 385.176 505.71 384.811ZM507.223 379.411C505.808 378.78 505.467 377.861 505.859 376.981C506.244 376.117 507.168 375.726 508.584 376.356C510.014 376.994 510.335 377.958 509.943 378.837C509.558 379.701 508.653 380.048 507.223 379.411ZM514.831 376.925C513.311 376.248 512.623 377.031 512.078 378.253C511.846 378.774 511.371 380.08 511.152 380.572C510.907 381.123 510.544 381.337 510.141 381.157C509.635 380.932 509.725 380.168 509.957 379.647C510.055 379.387 510.219 379.139 510.292 378.975C510.817 377.798 510.592 376.019 509.042 375.328C508.878 375.255 508.686 375.205 508.524 375.169C508.31 375.127 508.082 375.079 507.903 374.999C507.56 374.846 507.335 374.55 507.428 374.341C507.521 374.133 507.705 374.161 507.922 374.115C508.117 374.077 508.265 373.946 508.338 373.782C508.451 373.529 508.378 373.211 508.035 373.058C507.603 372.866 507.201 373.008 507.008 373.44C506.783 373.946 506.924 374.67 507.527 375.082L507.487 375.171C506.561 375.366 505.868 376.039 505.523 376.814C504.978 378.036 505.267 379.753 506.772 380.424C507.77 380.869 508.744 380.606 509.435 380.057L509.525 380.097C509.37 380.724 509.437 381.576 510.182 381.908C510.823 382.193 511.481 381.879 511.869 381.248L511.943 381.282C511.617 382.494 511.85 383.455 512.625 383.8C513.713 384.284 514.793 383.462 515.669 381.495C516.36 379.946 516.559 377.695 514.831 376.925ZM514.782 377.796C516.123 378.394 515.908 379.959 515.337 381.24C514.686 382.7 513.952 383.266 513.043 382.861C511.777 382.297 512.227 380.926 512.473 380.214C512.662 379.709 512.871 379.159 513.072 378.749C513.444 377.914 513.843 377.378 514.782 377.796ZM509.587 369.856C509.457 369.387 509.502 368.925 509.688 368.508C509.914 368.001 510.2 367.718 510.565 367.541C510.973 367.348 511.418 367.35 512.089 367.648C512.744 367.941 512.819 368.134 512.613 368.596L511.259 371.636C510.305 371.05 509.743 370.389 509.587 369.856ZM515.59 367.887L515.324 368.162C516.139 368.899 516.678 369.854 516.107 371.135C515.835 371.746 515.409 372.181 514.834 372.389C514.057 372.65 512.952 372.444 512.043 372.039C511.894 371.973 511.76 371.913 511.633 371.838L513.717 367.16C513.537 367.044 513.23 366.889 512.977 366.776C511.904 366.298 510.15 366.428 509.294 368.35C508.53 370.063 509.479 372.182 511.535 373.099C512.593 373.57 513.695 373.703 514.722 373.322C515.527 373.038 516.144 372.455 516.542 371.561C517.126 370.25 516.775 368.915 515.59 367.887ZM519.546 363.696C519.412 363.957 519.258 364.103 519.08 364.22C518.875 364.361 518.68 364.399 518.429 364.359C518.165 364.312 517.756 364.148 517.428 364.002L515.535 363.159C514.91 362.88 514.451 362.586 514.125 362.155C513.564 361.531 513.371 360.802 513.717 360.027C513.936 359.535 514.196 359.312 514.602 359.243C514.956 359.168 515.362 359.26 515.839 359.472L518.848 360.813C519.176 360.959 519.587 361.16 519.807 361.347C520.019 361.513 520.115 361.699 520.141 361.961C520.156 362.128 520.129 362.348 520.044 362.578L520.327 362.704L521.655 359.724L521.387 359.605C521.264 359.8 521.118 359.967 521.006 360.06C520.765 360.239 520.562 360.255 520.253 360.225C519.982 360.193 519.624 360.034 519.311 359.895L517.404 359.045C516.749 358.753 516.275 358.452 515.974 358.086C515.367 357.405 515.223 356.645 515.555 355.9C515.748 355.467 515.987 355.252 516.333 355.157C516.716 355.059 517.136 355.157 517.643 355.383L520.667 356.731C520.995 356.877 521.368 357.043 521.609 357.222C521.821 357.388 521.939 357.565 521.952 357.856C521.966 358.024 521.94 358.244 521.87 358.481L522.153 358.607L523.474 355.642L523.206 355.522C523.125 355.665 522.994 355.838 522.881 355.931C522.621 356.154 522.41 356.186 522.058 356.136C521.808 356.096 521.48 355.95 521.167 355.81L517.785 354.303C517.025 353.965 516.5 353.981 516.042 354.206C515.686 354.404 515.391 354.666 515.112 355.291C514.893 355.783 514.843 356.296 514.93 356.782C515.003 357.26 515.176 357.713 515.623 358.233L515.59 358.308C515.042 358.135 514.604 358.154 514.24 358.331C513.839 358.51 513.532 358.837 513.286 359.389C513.034 359.955 513.014 360.482 513.123 360.959C513.194 361.401 513.395 361.83 513.81 362.301L513.764 362.405C513.458 362.251 512.726 361.889 512.532 361.803C512.473 361.776 512.436 361.778 512.403 361.852L511.58 363.7L511.848 363.82C511.999 363.601 512.158 363.404 512.342 363.272C512.476 363.171 512.672 363.133 512.871 363.168C513.084 363.21 513.501 363.395 513.874 363.561L517.003 364.955C517.331 365.102 517.695 365.246 517.913 365.397C518.216 365.639 518.306 365.839 518.307 366.197C518.292 366.351 518.265 366.571 518.22 366.712L518.488 366.832L519.829 363.822L519.546 363.696ZM518.905 348.942C518.775 348.473 518.82 348.011 519.006 347.594C519.232 347.087 519.518 346.804 519.883 346.628C520.291 346.434 520.736 346.436 521.407 346.735C522.062 347.027 522.137 347.221 521.931 347.683L520.576 350.722C519.623 350.137 519.061 349.476 518.905 348.942ZM524.908 346.973L524.642 347.248C525.457 347.986 525.996 348.94 525.425 350.222C525.153 350.833 524.726 351.268 524.152 351.476C523.375 351.737 522.27 351.531 521.361 351.126C521.212 351.059 521.078 350.999 520.951 350.925L523.035 346.246C522.855 346.13 522.548 345.976 522.295 345.863C521.222 345.385 519.468 345.514 518.612 347.436C517.848 349.15 518.797 351.269 520.853 352.185C521.911 352.656 523.013 352.79 524.04 352.408C524.845 352.124 525.462 351.542 525.86 350.648C526.444 349.337 526.093 348.001 524.908 346.973ZM528.765 338.756L525.353 337.236C524.593 336.897 524.012 336.959 523.584 337.198C523.236 337.418 522.936 337.73 522.711 338.237C522.465 338.788 522.397 339.383 522.484 339.868C522.527 340.333 522.712 340.88 523.143 341.394L523.104 341.483C522.857 341.356 522.059 340.982 521.85 340.889C521.776 340.856 521.748 340.879 521.714 340.954L520.905 342.772L521.173 342.891C521.309 342.666 521.489 342.461 521.673 342.328C521.829 342.219 521.988 342.183 522.202 342.225C522.415 342.266 522.833 342.452 523.19 342.611L526.26 343.979C526.617 344.138 527.034 344.324 527.215 344.44C527.554 344.681 527.63 344.911 527.612 345.313C527.61 345.438 527.568 345.651 527.523 345.792L527.806 345.918L529.147 342.908L528.864 342.782C528.783 342.925 528.672 343.054 528.568 343.168C528.287 343.436 528.049 343.49 527.754 343.43C527.489 343.384 527.087 343.205 526.759 343.059L524.807 342.189C524.181 341.91 523.782 341.643 523.42 341.214C522.851 340.567 522.797 339.686 523.129 338.941C523.322 338.509 523.574 338.264 523.89 338.155C524.25 338.03 524.645 338.063 525.256 338.335L528.266 339.676C528.594 339.822 528.981 339.995 529.216 340.189C529.474 340.411 529.584 340.567 529.57 340.918C529.562 341.057 529.52 341.271 529.468 341.426L529.752 341.552L531.066 338.602L530.783 338.476C530.708 338.604 530.577 338.777 530.486 338.862C530.191 339.123 529.966 339.148 529.656 339.081C529.428 339.033 529.078 338.895 528.765 338.756ZM532.688 332.477C532.906 332.95 532.92 333.438 532.715 333.9C532.389 334.63 531.962 334.708 531.351 334.436L526.158 332.104L526.994 330.226L526.577 330.04L525.74 331.918L523.356 330.856L523.25 331.094C524.902 332.437 525.196 333.14 524.958 334.034L525.212 334.147C525.278 333.998 525.651 333.2 525.731 333.021C525.948 333.135 530.835 335.313 530.925 335.353C531.521 335.618 531.835 335.633 532.15 335.488C532.586 335.271 532.849 334.96 533.095 334.409C533.367 333.798 533.371 333.068 532.954 332.4L532.688 332.477Z" fill="black"/>
</svg>
