<svg width="552" height="552" viewBox="0 0 552 552" fill="none" xmlns="http://www.w3.org/2000/svg">
<circle cx="55.1771" cy="271.885" r="54.1771" stroke="black" stroke-dasharray="4 4"/>
<path d="M36.1618 266.736C36.1618 264.864 34.9138 264.24 33.0898 263.376C31.8578 262.8 30.6258 262.336 30.6258 260.768C30.6258 259.568 31.5858 259.04 32.5138 259.04C33.2658 259.04 33.6818 259.232 34.0178 259.456C34.5778 259.856 35.0738 260.736 35.3458 261.584H35.6658L35.3778 258.784H35.0578L34.8338 259.376H34.7538C34.2578 258.912 33.6178 258.608 32.5458 258.608C30.7538 258.608 29.6338 259.792 29.6338 261.216C29.6338 262.992 30.9618 263.744 32.4018 264.416C34.0978 265.184 35.1698 265.616 35.1698 267.312C35.1698 268.448 34.4178 269.376 32.8178 269.376C31.2978 269.376 30.1938 267.872 29.6818 266.096H29.3778L29.5378 269.456H29.7618L30.1298 268.784H30.2258C30.7698 269.312 31.6978 269.808 32.8338 269.808C34.5298 269.808 36.1618 268.688 36.1618 266.736ZM41.6742 262.352C42.4742 262.352 42.7782 262.56 43.0022 263.392C43.1462 263.824 43.3062 264.128 43.7222 264.128C44.0582 264.128 44.2662 263.936 44.2662 263.536C44.2662 263.328 44.2022 263.04 43.9782 262.784C43.6102 262.368 43.0182 261.952 41.6902 261.952C39.8182 261.952 38.3142 263.632 38.3142 265.824C38.3142 267.344 38.8422 268.352 39.5782 268.96C40.1062 269.44 40.7462 269.728 41.6262 269.728C43.0662 269.728 44.0582 268.832 44.4582 267.488L44.0742 267.36C43.8182 268.144 43.2422 269.2 41.6902 269.2C41.2102 269.2 40.7142 268.992 40.3942 268.688C39.8182 268.112 39.4342 267.168 39.4342 265.744C39.4342 264.288 39.8502 263.264 40.4582 262.768C40.7782 262.512 41.2262 262.352 41.6742 262.352ZM46.2364 265.84C46.2364 268.272 47.9324 269.728 49.7244 269.728C51.5164 269.728 53.2124 268.256 53.2124 265.824C53.2124 263.408 51.5164 261.952 49.7244 261.952C47.9164 261.952 46.2364 263.408 46.2364 265.84ZM47.3724 265.84C47.3724 264.416 47.7244 263.44 48.3644 262.864C48.7484 262.512 49.2604 262.352 49.7244 262.352C50.1724 262.352 50.6844 262.496 51.0684 262.864C51.7084 263.456 52.0604 264.432 52.0604 265.84C52.0604 267.232 51.6924 268.224 51.0684 268.816C50.6844 269.184 50.1884 269.328 49.7244 269.328C49.2444 269.328 48.7484 269.184 48.3484 268.8C47.7244 268.224 47.3724 267.232 47.3724 265.84ZM61.4749 265.824C61.4749 268.208 60.5789 269.36 59.2189 269.36C58.5949 269.36 58.0989 269.152 57.7469 268.752C57.3789 268.368 57.1709 267.792 57.1709 266.768V264.864C57.1709 264.16 57.4909 263.488 57.8589 263.104C58.2589 262.672 58.7549 262.4 59.4109 262.4C60.5309 262.4 61.4749 263.232 61.4749 265.824ZM56.1629 270.88C56.1629 271.2 56.1789 271.552 56.1149 271.808C56.0189 272.176 55.8429 272.32 55.6189 272.432C55.4909 272.496 55.2829 272.528 55.1069 272.544V272.832H58.2749V272.544C58.0509 272.528 57.8429 272.496 57.6989 272.432C57.4749 272.336 57.2989 272.128 57.2349 271.808C57.1869 271.552 57.1709 271.2 57.1709 270.88V268.96H57.2669C57.7949 269.52 58.5309 269.744 59.2029 269.744C60.9149 269.744 62.5949 268.496 62.5949 265.856C62.5949 262.992 61.0909 261.952 59.5389 261.952C58.4989 261.952 57.7309 262.512 57.2029 263.424H57.1229L57.1389 262.256C57.1389 262.176 57.0909 262.144 57.0269 262.144H55.0429V262.432C55.3149 262.464 55.6029 262.544 55.8269 262.704C55.9709 262.816 56.0669 262.96 56.1149 263.152C56.1629 263.344 56.1629 263.792 56.1629 264.048V270.88ZM66.88 262.816C67.248 262.512 67.68 262.368 68.128 262.368C68.672 262.368 69.0401 262.512 69.344 262.768C69.68 263.056 69.8561 263.456 69.8561 264.176C69.8561 264.88 69.712 265.024 69.2161 265.024H65.952C66.096 263.936 66.464 263.168 66.88 262.816ZM71.0401 267.408L70.6881 267.28C70.352 268.304 69.712 269.168 68.3361 269.168C67.68 269.168 67.12 268.96 66.704 268.528C66.16 267.936 65.904 266.864 65.904 265.888C65.904 265.728 65.904 265.584 65.92 265.44H70.9441C70.976 265.232 70.9921 264.896 70.9921 264.624C70.9921 263.472 70.1761 261.952 68.1121 261.952C66.272 261.952 64.752 263.648 64.752 265.856C64.752 266.992 65.072 268.032 65.824 268.8C66.4 269.408 67.168 269.728 68.128 269.728C69.536 269.728 70.5921 268.88 71.0401 267.408ZM80.8833 269.584V269.28C80.6113 269.248 80.3393 269.184 80.1793 269.088C79.9713 268.96 79.9073 268.88 79.8273 268.624C79.7633 268.416 79.7473 268.016 79.7473 267.6V260.448C79.7473 260.016 79.7793 259.184 79.7793 258.944C79.7793 258.848 79.7473 258.816 79.6673 258.816C79.5073 258.816 79.2353 258.88 78.9313 258.944C78.4193 259.024 77.8593 259.104 77.4273 259.12V259.424C77.6833 259.472 78.1153 259.536 78.3073 259.632C78.4673 259.712 78.5633 259.792 78.6113 260.096C78.6593 260.368 78.6753 260.768 78.6753 261.024V267.6C78.6753 268.016 78.6433 268.4 78.5793 268.624C78.4993 268.896 78.3713 268.992 78.1953 269.104C78.0673 269.184 77.7793 269.232 77.5233 269.28V269.584H80.8833Z" fill="black"/>
<circle cx="129.242" cy="267.771" r="128.242" stroke="black"/>
<path d="M164.301 267.122C164.301 265.25 163.053 264.626 161.229 263.762C159.997 263.186 158.765 262.722 158.765 261.154C158.765 259.954 159.725 259.426 160.653 259.426C161.405 259.426 161.821 259.618 162.157 259.842C162.717 260.242 163.213 261.122 163.485 261.97H163.805L163.517 259.17H163.197L162.973 259.762H162.893C162.397 259.298 161.757 258.994 160.685 258.994C158.893 258.994 157.773 260.178 157.773 261.602C157.773 263.378 159.101 264.13 160.541 264.802C162.237 265.57 163.309 266.002 163.309 267.698C163.309 268.834 162.557 269.762 160.957 269.762C159.437 269.762 158.333 268.258 157.821 266.482H157.517L157.677 269.842H157.901L158.269 269.17H158.365C158.909 269.698 159.837 270.194 160.973 270.194C162.669 270.194 164.301 269.074 164.301 267.122ZM169.813 262.738C170.613 262.738 170.917 262.946 171.141 263.778C171.285 264.21 171.445 264.514 171.861 264.514C172.197 264.514 172.405 264.322 172.405 263.922C172.405 263.714 172.341 263.426 172.117 263.17C171.749 262.754 171.157 262.338 169.829 262.338C167.957 262.338 166.453 264.018 166.453 266.21C166.453 267.73 166.981 268.738 167.717 269.346C168.245 269.826 168.885 270.114 169.765 270.114C171.205 270.114 172.197 269.218 172.597 267.874L172.213 267.746C171.957 268.53 171.381 269.586 169.829 269.586C169.349 269.586 168.853 269.378 168.533 269.074C167.957 268.498 167.573 267.554 167.573 266.13C167.573 264.674 167.989 263.65 168.597 263.154C168.917 262.898 169.365 262.738 169.813 262.738ZM174.375 266.226C174.375 268.658 176.071 270.114 177.863 270.114C179.655 270.114 181.351 268.642 181.351 266.21C181.351 263.794 179.655 262.338 177.863 262.338C176.055 262.338 174.375 263.794 174.375 266.226ZM175.511 266.226C175.511 264.802 175.863 263.826 176.503 263.25C176.887 262.898 177.399 262.738 177.863 262.738C178.311 262.738 178.823 262.882 179.207 263.25C179.847 263.842 180.199 264.818 180.199 266.226C180.199 267.618 179.831 268.61 179.207 269.202C178.823 269.57 178.327 269.714 177.863 269.714C177.383 269.714 176.887 269.57 176.487 269.186C175.863 268.61 175.511 267.618 175.511 266.226ZM189.614 266.21C189.614 268.594 188.718 269.746 187.358 269.746C186.734 269.746 186.238 269.538 185.886 269.138C185.518 268.754 185.31 268.178 185.31 267.154V265.25C185.31 264.546 185.63 263.874 185.998 263.49C186.398 263.058 186.894 262.786 187.55 262.786C188.67 262.786 189.614 263.618 189.614 266.21ZM184.302 271.266C184.302 271.586 184.318 271.938 184.254 272.194C184.158 272.562 183.982 272.706 183.758 272.818C183.63 272.882 183.422 272.914 183.246 272.93V273.218H186.414V272.93C186.19 272.914 185.982 272.882 185.838 272.818C185.614 272.722 185.438 272.514 185.374 272.194C185.326 271.938 185.31 271.586 185.31 271.266V269.346H185.406C185.934 269.906 186.67 270.13 187.342 270.13C189.054 270.13 190.734 268.882 190.734 266.242C190.734 263.378 189.23 262.338 187.678 262.338C186.638 262.338 185.87 262.898 185.342 263.81H185.262L185.278 262.642C185.278 262.562 185.23 262.53 185.166 262.53H183.182V262.818C183.454 262.85 183.742 262.93 183.966 263.09C184.11 263.202 184.206 263.346 184.254 263.538C184.302 263.73 184.302 264.178 184.302 264.434V271.266ZM195.019 263.202C195.387 262.898 195.819 262.754 196.267 262.754C196.811 262.754 197.179 262.898 197.483 263.154C197.819 263.442 197.995 263.842 197.995 264.562C197.995 265.266 197.851 265.41 197.355 265.41H194.091C194.235 264.322 194.603 263.554 195.019 263.202ZM199.179 267.794L198.827 267.666C198.491 268.69 197.851 269.554 196.475 269.554C195.819 269.554 195.259 269.346 194.843 268.914C194.299 268.322 194.043 267.25 194.043 266.274C194.043 266.114 194.043 265.97 194.059 265.826H199.083C199.115 265.618 199.131 265.282 199.131 265.01C199.131 263.858 198.315 262.338 196.251 262.338C194.411 262.338 192.891 264.034 192.891 266.242C192.891 267.378 193.211 268.418 193.963 269.186C194.539 269.794 195.307 270.114 196.267 270.114C197.675 270.114 198.731 269.266 199.179 267.794ZM208.574 259.554C209.95 259.554 210.782 260.178 210.782 262.034C210.782 265.138 208.078 267.41 206.478 268.786C206.366 268.866 205.566 269.49 205.182 269.826L205.246 269.97H211.774L212.414 267.378H212.046C211.918 267.698 211.646 268.178 211.406 268.498C211.166 268.818 210.91 268.962 210.126 268.962H206.926V268.898C207.07 268.722 207.71 268.146 208.046 267.842C208.974 266.994 211.982 264.738 211.982 262.098C211.982 260.21 210.734 259.122 208.766 259.122C206.734 259.122 205.662 260.354 205.662 261.394C205.662 261.906 205.966 262.178 206.318 262.178C206.782 262.178 207.022 261.906 207.022 261.426C207.022 261.25 206.958 260.898 206.974 260.722C207.006 260.434 207.07 260.226 207.358 259.986C207.598 259.778 207.998 259.554 208.574 259.554Z" fill="black"/>
<circle cx="276" cy="276" r="275" stroke="black"/>
<path d="M46.3012 283.924C46.3012 286.528 47.6312 288.81 49.8572 288.81C52.1112 288.81 53.4132 286.486 53.4132 283.924C53.4132 281.278 52.0832 279.122 49.8572 279.122C47.6312 279.122 46.3012 281.348 46.3012 283.924ZM52.3772 283.924C52.3772 286.976 51.3552 288.418 49.8572 288.418C48.3592 288.418 47.3512 286.948 47.3512 283.924C47.3512 280.872 48.3452 279.514 49.8572 279.514C51.3832 279.514 52.3772 280.872 52.3772 283.924ZM59.1424 281.46C59.1424 280.2 58.4004 279.136 57.2944 279.136C56.1744 279.136 55.4604 280.228 55.4604 281.488C55.4604 282.762 56.2024 283.84 57.2944 283.84C58.4284 283.84 59.1424 282.734 59.1424 281.46ZM62.1664 279.402L61.8304 279.206L57.0144 288.656L57.3504 288.838L62.1664 279.402ZM57.2944 279.43C58.0224 279.43 58.3864 280.144 58.3864 281.46C58.3864 282.79 58.0364 283.56 57.2944 283.56C56.5384 283.56 56.2024 282.804 56.2024 281.488C56.2024 280.158 56.5524 279.43 57.2944 279.43ZM60.0944 286.444C60.0944 287.704 60.8224 288.796 61.9284 288.796C63.0624 288.796 63.7624 287.69 63.7624 286.416C63.7624 285.156 63.0344 284.092 61.9284 284.092C60.7944 284.092 60.0944 285.184 60.0944 286.444ZM61.9284 288.502C61.1724 288.502 60.8364 287.788 60.8364 286.444C60.8364 285.1 61.1864 284.386 61.9284 284.386C62.6424 284.386 63.0064 285.114 63.0064 286.416C63.0064 287.732 62.6704 288.502 61.9284 288.502Z" fill="#525252"/>
<path d="M164.459 279.122C162.793 279.122 161.981 280.032 161.981 280.802C161.981 281.222 162.219 281.488 162.527 281.488C162.863 281.488 163.087 281.292 163.087 280.844C163.087 280.746 163.059 280.564 163.031 280.466C163.003 280.382 162.961 280.284 162.961 280.172C162.961 279.752 163.479 279.486 164.305 279.486C165.383 279.486 165.817 279.976 165.817 280.928C165.817 282.16 165.159 282.86 163.927 283.574L162.961 284.12L163.129 284.428L163.689 284.106C163.927 283.966 164.263 283.854 164.627 283.854C165.971 283.854 166.461 284.386 166.461 285.59C166.461 287.48 165.481 288.446 163.885 288.446C163.353 288.446 163.073 288.362 162.793 288.11C162.653 287.984 162.555 287.816 162.499 287.578C162.443 287.41 162.429 287.186 162.429 287.032C162.429 286.626 162.275 286.374 161.939 286.374C161.645 286.374 161.407 286.584 161.407 287.018C161.407 287.802 162.373 288.81 163.843 288.81C166.503 288.81 167.525 287.102 167.525 285.632C167.525 284.54 166.755 283.266 164.557 283.574V283.532C165.565 282.874 166.811 282.16 166.811 280.872C166.811 279.836 165.999 279.122 164.459 279.122ZM172.619 288.81C174.705 288.81 175.727 287.522 175.727 286.164C175.727 284.722 174.565 284.078 173.529 283.658C174.467 283.238 175.391 282.496 175.391 281.264C175.391 279.752 174.201 279.122 172.619 279.122C171.009 279.122 169.875 280.074 169.875 281.558C169.875 282.804 170.785 283.546 171.667 283.952C170.519 284.4 169.553 285.254 169.553 286.5C169.553 288.026 170.953 288.81 172.619 288.81ZM170.799 281.25C170.799 280.2 171.457 279.528 172.647 279.514C173.823 279.5 174.551 280.06 174.551 281.348C174.551 282.454 173.991 283.126 173.123 283.504C171.639 282.93 170.799 282.412 170.799 281.25ZM172.591 288.418C171.345 288.418 170.407 287.732 170.407 286.458C170.407 285.226 171.107 284.484 172.087 284.134C173.837 284.848 174.803 285.212 174.803 286.612C174.803 287.942 173.809 288.418 172.591 288.418ZM178.53 288.81C178.908 288.81 179.202 288.502 179.202 288.11C179.202 287.718 178.908 287.41 178.53 287.41C178.124 287.41 177.844 287.718 177.844 288.11C177.844 288.502 178.124 288.81 178.53 288.81ZM184.638 284.708C183.546 284.708 182.664 284.05 182.664 282.202C182.664 280.382 183.392 279.514 184.61 279.514C185.786 279.514 186.654 280.312 186.654 282.09C186.654 283.966 185.52 284.708 184.638 284.708ZM181.516 287.214C181.516 287.97 182.118 288.81 183.742 288.81C185.842 288.81 187.76 286.724 187.76 283.28C187.76 281.04 186.85 279.122 184.596 279.122C182.734 279.122 181.642 280.494 181.642 282.244C181.642 283.966 182.622 285.212 184.33 285.212C185.464 285.212 186.29 284.54 186.626 283.7H186.71C186.654 286.724 185.618 288.404 183.798 288.404C182.93 288.404 182.51 288.152 182.51 287.886C182.51 287.76 182.538 287.69 182.58 287.536C182.622 287.382 182.664 287.284 182.664 287.088C182.664 286.668 182.384 286.5 182.118 286.5C181.74 286.5 181.516 286.794 181.516 287.214ZM193.051 288.81C195.137 288.81 196.159 287.522 196.159 286.164C196.159 284.722 194.997 284.078 193.961 283.658C194.899 283.238 195.823 282.496 195.823 281.264C195.823 279.752 194.633 279.122 193.051 279.122C191.441 279.122 190.307 280.074 190.307 281.558C190.307 282.804 191.217 283.546 192.099 283.952C190.951 284.4 189.985 285.254 189.985 286.5C189.985 288.026 191.385 288.81 193.051 288.81ZM191.231 281.25C191.231 280.2 191.889 279.528 193.079 279.514C194.255 279.5 194.983 280.06 194.983 281.348C194.983 282.454 194.423 283.126 193.555 283.504C192.071 282.93 191.231 282.412 191.231 281.25ZM193.023 288.418C191.777 288.418 190.839 287.732 190.839 286.458C190.839 285.226 191.539 284.484 192.519 284.134C194.269 284.848 195.235 285.212 195.235 286.612C195.235 287.942 194.241 288.418 193.023 288.418ZM201.867 281.46C201.867 280.2 201.125 279.136 200.019 279.136C198.899 279.136 198.185 280.228 198.185 281.488C198.185 282.762 198.927 283.84 200.019 283.84C201.153 283.84 201.867 282.734 201.867 281.46ZM204.891 279.402L204.555 279.206L199.739 288.656L200.075 288.838L204.891 279.402ZM200.019 279.43C200.747 279.43 201.111 280.144 201.111 281.46C201.111 282.79 200.761 283.56 200.019 283.56C199.263 283.56 198.927 282.804 198.927 281.488C198.927 280.158 199.277 279.43 200.019 279.43ZM202.819 286.444C202.819 287.704 203.547 288.796 204.653 288.796C205.787 288.796 206.487 287.69 206.487 286.416C206.487 285.156 205.759 284.092 204.653 284.092C203.519 284.092 202.819 285.184 202.819 286.444ZM204.653 288.502C203.897 288.502 203.561 287.788 203.561 286.444C203.561 285.1 203.911 284.386 204.653 284.386C205.367 284.386 205.731 285.114 205.731 286.416C205.731 287.732 205.395 288.502 204.653 288.502Z" fill="#525252"/>
<path d="M382.36 267.123C382.36 265.251 381.112 264.627 379.288 263.763C378.056 263.187 376.824 262.723 376.824 261.155C376.824 259.955 377.784 259.427 378.712 259.427C379.464 259.427 379.88 259.619 380.216 259.843C380.776 260.243 381.272 261.123 381.544 261.971H381.864L381.576 259.171H381.256L381.032 259.763H380.952C380.456 259.299 379.816 258.995 378.744 258.995C376.952 258.995 375.832 260.179 375.832 261.603C375.832 263.379 377.16 264.131 378.6 264.803C380.296 265.571 381.368 266.003 381.368 267.699C381.368 268.835 380.616 269.763 379.016 269.763C377.496 269.763 376.392 268.259 375.88 266.483H375.576L375.736 269.843H375.96L376.328 269.171H376.424C376.968 269.699 377.896 270.195 379.032 270.195C380.728 270.195 382.36 269.075 382.36 267.123ZM387.872 262.739C388.672 262.739 388.976 262.947 389.2 263.779C389.344 264.211 389.504 264.515 389.92 264.515C390.256 264.515 390.464 264.323 390.464 263.923C390.464 263.715 390.4 263.427 390.176 263.171C389.808 262.755 389.216 262.339 387.888 262.339C386.016 262.339 384.512 264.019 384.512 266.211C384.512 267.731 385.04 268.739 385.776 269.347C386.304 269.827 386.944 270.115 387.824 270.115C389.264 270.115 390.256 269.219 390.656 267.875L390.272 267.747C390.016 268.531 389.44 269.587 387.888 269.587C387.408 269.587 386.912 269.379 386.592 269.075C386.016 268.499 385.632 267.555 385.632 266.131C385.632 264.675 386.048 263.651 386.656 263.155C386.976 262.899 387.424 262.739 387.872 262.739ZM392.435 266.227C392.435 268.659 394.131 270.115 395.923 270.115C397.715 270.115 399.411 268.643 399.411 266.211C399.411 263.795 397.715 262.339 395.923 262.339C394.115 262.339 392.435 263.795 392.435 266.227ZM393.571 266.227C393.571 264.803 393.923 263.827 394.563 263.251C394.947 262.899 395.459 262.739 395.923 262.739C396.371 262.739 396.883 262.883 397.267 263.251C397.907 263.843 398.259 264.819 398.259 266.227C398.259 267.619 397.891 268.611 397.267 269.203C396.883 269.571 396.387 269.715 395.923 269.715C395.443 269.715 394.947 269.571 394.547 269.187C393.923 268.611 393.571 267.619 393.571 266.227ZM407.673 266.211C407.673 268.595 406.777 269.747 405.417 269.747C404.793 269.747 404.297 269.539 403.945 269.139C403.577 268.755 403.369 268.179 403.369 267.155V265.251C403.369 264.547 403.689 263.875 404.057 263.491C404.457 263.059 404.953 262.787 405.609 262.787C406.729 262.787 407.673 263.619 407.673 266.211ZM402.361 271.267C402.361 271.587 402.377 271.939 402.313 272.195C402.217 272.563 402.041 272.707 401.817 272.819C401.689 272.883 401.481 272.915 401.305 272.931V273.219H404.473V272.931C404.249 272.915 404.041 272.883 403.897 272.819C403.673 272.723 403.497 272.515 403.433 272.195C403.385 271.939 403.369 271.587 403.369 271.267V269.347H403.465C403.993 269.907 404.729 270.131 405.401 270.131C407.113 270.131 408.793 268.883 408.793 266.243C408.793 263.379 407.289 262.339 405.737 262.339C404.697 262.339 403.929 262.899 403.401 263.811H403.321L403.337 262.643C403.337 262.563 403.289 262.531 403.225 262.531H401.241V262.819C401.513 262.851 401.801 262.931 402.025 263.091C402.169 263.203 402.265 263.347 402.313 263.539C402.361 263.731 402.361 264.179 402.361 264.435V271.267ZM413.078 263.203C413.446 262.899 413.878 262.755 414.326 262.755C414.87 262.755 415.238 262.899 415.542 263.155C415.878 263.443 416.054 263.843 416.054 264.563C416.054 265.267 415.91 265.411 415.414 265.411H412.15C412.294 264.323 412.662 263.555 413.078 263.203ZM417.238 267.795L416.886 267.667C416.55 268.691 415.91 269.555 414.534 269.555C413.878 269.555 413.318 269.347 412.902 268.915C412.358 268.323 412.102 267.251 412.102 266.275C412.102 266.115 412.102 265.971 412.118 265.827H417.142C417.174 265.619 417.19 265.283 417.19 265.011C417.19 263.859 416.374 262.339 414.31 262.339C412.47 262.339 410.95 264.035 410.95 266.243C410.95 267.379 411.27 268.419 412.022 269.187C412.598 269.795 413.366 270.115 414.326 270.115C415.734 270.115 416.79 269.267 417.238 267.795ZM426.714 259.123C424.81 259.123 423.882 260.163 423.882 261.043C423.882 261.523 424.154 261.827 424.506 261.827C424.89 261.827 425.146 261.603 425.146 261.091C425.146 260.979 425.114 260.771 425.082 260.659C425.049 260.563 425.002 260.451 425.002 260.323C425.002 259.843 425.594 259.539 426.538 259.539C427.77 259.539 428.266 260.099 428.266 261.187C428.266 262.595 427.514 263.395 426.106 264.211L425.002 264.835L425.194 265.187L425.834 264.819C426.106 264.659 426.49 264.531 426.906 264.531C428.442 264.531 429.002 265.139 429.002 266.515C429.002 268.675 427.882 269.779 426.058 269.779C425.45 269.779 425.13 269.683 424.81 269.395C424.65 269.251 424.538 269.059 424.474 268.787C424.41 268.595 424.394 268.339 424.394 268.163C424.394 267.699 424.218 267.411 423.834 267.411C423.498 267.411 423.226 267.651 423.226 268.147C423.226 269.043 424.33 270.195 426.01 270.195C429.05 270.195 430.218 268.243 430.218 266.563C430.218 265.315 429.338 263.859 426.826 264.211V264.163C427.978 263.411 429.402 262.595 429.402 261.123C429.402 259.939 428.474 259.123 426.714 259.123Z" fill="black"/>
<path d="M388.603 281.076C388.603 280.32 388.057 279.508 386.377 279.508C384.389 279.508 382.303 281.734 382.303 285.094C382.303 287.292 383.283 289.196 385.453 289.196C387.189 289.196 388.435 287.908 388.435 286.06C388.435 284.366 387.441 283.106 385.747 283.106C384.627 283.106 383.801 283.722 383.437 284.618H383.353C383.437 281.818 384.641 279.9 386.391 279.9C387.161 279.9 387.623 280.152 387.623 280.432C387.623 280.516 387.609 280.6 387.553 280.782C387.497 280.95 387.483 281.02 387.483 281.216C387.483 281.622 387.763 281.79 388.043 281.79C388.379 281.79 388.603 281.538 388.603 281.076ZM385.411 283.568C386.559 283.568 387.427 284.212 387.427 286.186C387.427 287.978 386.671 288.804 385.425 288.804C384.235 288.804 383.381 287.992 383.381 286.116C383.381 284.45 384.375 283.568 385.411 283.568ZM393.615 289V288.734C393.377 288.706 393.139 288.65 392.999 288.566C392.817 288.454 392.761 288.384 392.691 288.16C392.635 287.978 392.621 287.628 392.621 287.264V281.006C392.621 280.628 392.649 279.9 392.649 279.69C392.649 279.606 392.621 279.578 392.551 279.578C392.411 279.578 392.173 279.634 391.907 279.69C391.459 279.76 390.969 279.83 390.591 279.844V280.11C390.815 280.152 391.193 280.208 391.361 280.292C391.501 280.362 391.585 280.432 391.627 280.698C391.669 280.936 391.683 281.286 391.683 281.51V287.264C391.683 287.628 391.655 287.964 391.599 288.16C391.529 288.398 391.417 288.482 391.263 288.58C391.151 288.65 390.899 288.692 390.675 288.734V289H393.615ZM396.671 289.196C397.049 289.196 397.343 288.888 397.343 288.496C397.343 288.104 397.049 287.796 396.671 287.796C396.265 287.796 395.985 288.104 395.985 288.496C395.985 288.888 396.265 289.196 396.671 289.196ZM399.4 284.31C399.4 286.914 400.73 289.196 402.956 289.196C405.21 289.196 406.512 286.872 406.512 284.31C406.512 281.664 405.182 279.508 402.956 279.508C400.73 279.508 399.4 281.734 399.4 284.31ZM405.476 284.31C405.476 287.362 404.454 288.804 402.956 288.804C401.458 288.804 400.45 287.334 400.45 284.31C400.45 281.258 401.444 279.9 402.956 279.9C404.482 279.9 405.476 281.258 405.476 284.31ZM411.331 279.886C412.535 279.886 413.263 280.432 413.263 282.056C413.263 284.772 410.897 286.76 409.497 287.964C409.399 288.034 408.699 288.58 408.363 288.874L408.419 289H414.131L414.691 286.732H414.369C414.257 287.012 414.019 287.432 413.809 287.712C413.599 287.992 413.375 288.118 412.689 288.118H409.889V288.062C410.015 287.908 410.575 287.404 410.869 287.138C411.681 286.396 414.313 284.422 414.313 282.112C414.313 280.46 413.221 279.508 411.499 279.508C409.721 279.508 408.783 280.586 408.783 281.496C408.783 281.944 409.049 282.182 409.357 282.182C409.763 282.182 409.973 281.944 409.973 281.524C409.973 281.37 409.917 281.062 409.931 280.908C409.959 280.656 410.015 280.474 410.267 280.264C410.477 280.082 410.827 279.886 411.331 279.886ZM420.172 281.846C420.172 280.586 419.43 279.522 418.324 279.522C417.204 279.522 416.49 280.614 416.49 281.874C416.49 283.148 417.232 284.226 418.324 284.226C419.458 284.226 420.172 283.12 420.172 281.846ZM423.196 279.788L422.86 279.592L418.044 289.042L418.38 289.224L423.196 279.788ZM418.324 279.816C419.052 279.816 419.416 280.53 419.416 281.846C419.416 283.176 419.066 283.946 418.324 283.946C417.568 283.946 417.232 283.19 417.232 281.874C417.232 280.544 417.582 279.816 418.324 279.816ZM421.124 286.83C421.124 288.09 421.852 289.182 422.958 289.182C424.092 289.182 424.792 288.076 424.792 286.802C424.792 285.542 424.064 284.478 422.958 284.478C421.824 284.478 421.124 285.57 421.124 286.83ZM422.958 288.888C422.202 288.888 421.866 288.174 421.866 286.83C421.866 285.486 422.216 284.772 422.958 284.772C423.672 284.772 424.036 285.5 424.036 286.802C424.036 288.118 423.7 288.888 422.958 288.888Z" fill="#525252"/>
</svg>
