<svg width="277" height="120" viewBox="0 0 277 120" fill="none" xmlns="http://www.w3.org/2000/svg">
<g clip-path="url(#clip0)">
<rect width="277" height="120" fill="white"/>
<path d="M39.6539 68.4688C39.6539 67.1818 38.7959 66.7528 37.5419 66.1588C36.6949 65.7628 35.8479 65.4438 35.8479 64.3658C35.8479 63.5408 36.5079 63.1778 37.1459 63.1778C37.6629 63.1778 37.9489 63.3098 38.1799 63.4638C38.5649 63.7388 38.9059 64.3438 39.0929 64.9268H39.3129L39.1149 63.0018H38.8949L38.7409 63.4088H38.6859C38.3449 63.0898 37.9049 62.8808 37.1679 62.8808C35.9359 62.8808 35.1659 63.6948 35.1659 64.6738C35.1659 65.8948 36.0789 66.4118 37.0689 66.8738C38.2349 67.4018 38.9719 67.6988 38.9719 68.8648C38.9719 69.6458 38.4549 70.2838 37.3549 70.2838C36.3099 70.2838 35.5509 69.2498 35.1989 68.0288H34.9899L35.0999 70.3388H35.2539L35.5069 69.8768H35.5729C35.9469 70.2398 36.5849 70.5808 37.3659 70.5808C38.5319 70.5808 39.6539 69.8108 39.6539 68.4688ZM43.2562 65.4548C43.8062 65.4548 44.0152 65.5978 44.1692 66.1698C44.2682 66.4668 44.3782 66.6758 44.6642 66.6758C44.8952 66.6758 45.0382 66.5438 45.0382 66.2688C45.0382 66.1258 44.9942 65.9278 44.8402 65.7518C44.5872 65.4658 44.1802 65.1798 43.2672 65.1798C41.9802 65.1798 40.9462 66.3348 40.9462 67.8418C40.9462 68.8868 41.3092 69.5798 41.8152 69.9978C42.1782 70.3278 42.6182 70.5258 43.2232 70.5258C44.2132 70.5258 44.8952 69.9098 45.1702 68.9858L44.9062 68.8978C44.7302 69.4368 44.3342 70.1628 43.2672 70.1628C42.9372 70.1628 42.5962 70.0198 42.3762 69.8108C41.9802 69.4148 41.7162 68.7658 41.7162 67.7868C41.7162 66.7858 42.0022 66.0818 42.4202 65.7408C42.6402 65.5648 42.9482 65.4548 43.2562 65.4548ZM46.2052 67.8528C46.2052 69.5248 47.3712 70.5258 48.6032 70.5258C49.8352 70.5258 51.0012 69.5138 51.0012 67.8418C51.0012 66.1808 49.8352 65.1798 48.6032 65.1798C47.3602 65.1798 46.2052 66.1808 46.2052 67.8528ZM46.9862 67.8528C46.9862 66.8738 47.2282 66.2028 47.6682 65.8068C47.9322 65.5648 48.2842 65.4548 48.6032 65.4548C48.9112 65.4548 49.2632 65.5538 49.5272 65.8068C49.9672 66.2138 50.2092 66.8848 50.2092 67.8528C50.2092 68.8098 49.9562 69.4918 49.5272 69.8988C49.2632 70.1518 48.9222 70.2508 48.6032 70.2508C48.2732 70.2508 47.9322 70.1518 47.6572 69.8878C47.2282 69.4918 46.9862 68.8098 46.9862 67.8528ZM56.4942 67.8418C56.4942 69.4808 55.8782 70.2728 54.9432 70.2728C54.5142 70.2728 54.1732 70.1298 53.9312 69.8548C53.6782 69.5908 53.5352 69.1948 53.5352 68.4908V67.1818C53.5352 66.6978 53.7552 66.2358 54.0082 65.9718C54.2832 65.6748 54.6242 65.4878 55.0752 65.4878C55.8452 65.4878 56.4942 66.0598 56.4942 67.8418ZM52.8422 71.3178C52.8422 71.5378 52.8532 71.7798 52.8092 71.9558C52.7432 72.2088 52.6222 72.3078 52.4682 72.3848C52.3802 72.4288 52.2372 72.4508 52.1162 72.4618V72.6598H54.2942V72.4618C54.1402 72.4508 53.9972 72.4288 53.8982 72.3848C53.7442 72.3188 53.6232 72.1758 53.5792 71.9558C53.5462 71.7798 53.5352 71.5378 53.5352 71.3178V69.9978H53.6012C53.9642 70.3828 54.4702 70.5368 54.9322 70.5368C56.1092 70.5368 57.2642 69.6788 57.2642 67.8638C57.2642 65.8948 56.2302 65.1798 55.1632 65.1798C54.4482 65.1798 53.9202 65.5648 53.5572 66.1918H53.5022L53.5132 65.3888C53.5132 65.3338 53.4802 65.3118 53.4362 65.3118H52.0722V65.5098C52.2592 65.5318 52.4572 65.5868 52.6112 65.6968C52.7102 65.7738 52.7762 65.8728 52.8092 66.0048C52.8422 66.1368 52.8422 66.4448 52.8422 66.6208V71.3178ZM60.0227 65.7738C60.2757 65.5648 60.5727 65.4658 60.8807 65.4658C61.2547 65.4658 61.5077 65.5648 61.7167 65.7408C61.9477 65.9388 62.0687 66.2138 62.0687 66.7088C62.0687 67.1928 61.9697 67.2918 61.6287 67.2918H59.3847C59.4837 66.5438 59.7367 66.0158 60.0227 65.7738ZM62.8827 68.9308L62.6407 68.8428C62.4097 69.5468 61.9697 70.1408 61.0237 70.1408C60.5727 70.1408 60.1877 69.9978 59.9017 69.7008C59.5277 69.2938 59.3517 68.5568 59.3517 67.8858C59.3517 67.7758 59.3517 67.6768 59.3627 67.5778H62.8167C62.8387 67.4348 62.8497 67.2038 62.8497 67.0168C62.8497 66.2248 62.2887 65.1798 60.8697 65.1798C59.6047 65.1798 58.5597 66.3458 58.5597 67.8638C58.5597 68.6448 58.7797 69.3598 59.2967 69.8878C59.6927 70.3058 60.2207 70.5258 60.8807 70.5258C61.8487 70.5258 62.5747 69.9428 62.8827 68.9308ZM69.2749 70.4268V70.2178C69.0879 70.1958 68.9009 70.1518 68.7909 70.0858C68.6479 69.9978 68.6039 69.9428 68.5489 69.7668C68.5049 69.6238 68.4939 69.3488 68.4939 69.0628V64.1458C68.4939 63.8488 68.5159 63.2768 68.5159 63.1118C68.5159 63.0458 68.4939 63.0238 68.4389 63.0238C68.3289 63.0238 68.1419 63.0678 67.9329 63.1118C67.5809 63.1668 67.1959 63.2218 66.8989 63.2328V63.4418C67.0749 63.4748 67.3719 63.5188 67.5039 63.5848C67.6139 63.6398 67.6799 63.6948 67.7129 63.9038C67.7459 64.0908 67.7569 64.3658 67.7569 64.5418V69.0628C67.7569 69.3488 67.7349 69.6128 67.6909 69.7668C67.6359 69.9538 67.5479 70.0198 67.4269 70.0968C67.3389 70.1518 67.1409 70.1848 66.9649 70.2178V70.4268H69.2749Z" fill="black"/>
<path d="M125.255 69.6787C125.255 68.3917 124.397 67.9627 123.143 67.3687C122.296 66.9727 121.449 66.6537 121.449 65.5757C121.449 64.7507 122.109 64.3877 122.747 64.3877C123.264 64.3877 123.55 64.5197 123.781 64.6737C124.166 64.9487 124.507 65.5537 124.694 66.1367H124.914L124.716 64.2117H124.496L124.342 64.6187H124.287C123.946 64.2997 123.506 64.0907 122.769 64.0907C121.537 64.0907 120.767 64.9047 120.767 65.8837C120.767 67.1047 121.68 67.6217 122.67 68.0837C123.836 68.6117 124.573 68.9087 124.573 70.0747C124.573 70.8557 124.056 71.4937 122.956 71.4937C121.911 71.4937 121.152 70.4597 120.8 69.2387H120.591L120.701 71.5487H120.855L121.108 71.0867H121.174C121.548 71.4497 122.186 71.7907 122.967 71.7907C124.133 71.7907 125.255 71.0207 125.255 69.6787ZM128.858 66.6647C129.408 66.6647 129.617 66.8077 129.771 67.3797C129.87 67.6767 129.98 67.8857 130.266 67.8857C130.497 67.8857 130.64 67.7537 130.64 67.4787C130.64 67.3357 130.596 67.1377 130.442 66.9617C130.189 66.6757 129.782 66.3897 128.869 66.3897C127.582 66.3897 126.548 67.5447 126.548 69.0517C126.548 70.0967 126.911 70.7897 127.417 71.2077C127.78 71.5377 128.22 71.7357 128.825 71.7357C129.815 71.7357 130.497 71.1197 130.772 70.1957L130.508 70.1077C130.332 70.6467 129.936 71.3727 128.869 71.3727C128.539 71.3727 128.198 71.2297 127.978 71.0207C127.582 70.6247 127.318 69.9757 127.318 68.9967C127.318 67.9957 127.604 67.2917 128.022 66.9507C128.242 66.7747 128.55 66.6647 128.858 66.6647ZM131.807 69.0627C131.807 70.7347 132.973 71.7357 134.205 71.7357C135.437 71.7357 136.603 70.7237 136.603 69.0517C136.603 67.3907 135.437 66.3897 134.205 66.3897C132.962 66.3897 131.807 67.3907 131.807 69.0627ZM132.588 69.0627C132.588 68.0837 132.83 67.4127 133.27 67.0167C133.534 66.7747 133.886 66.6647 134.205 66.6647C134.513 66.6647 134.865 66.7637 135.129 67.0167C135.569 67.4237 135.811 68.0947 135.811 69.0627C135.811 70.0197 135.558 70.7017 135.129 71.1087C134.865 71.3617 134.524 71.4607 134.205 71.4607C133.875 71.4607 133.534 71.3617 133.259 71.0977C132.83 70.7017 132.588 70.0197 132.588 69.0627ZM142.096 69.0517C142.096 70.6907 141.48 71.4827 140.545 71.4827C140.116 71.4827 139.775 71.3397 139.533 71.0647C139.28 70.8007 139.137 70.4047 139.137 69.7007V68.3917C139.137 67.9077 139.357 67.4457 139.61 67.1817C139.885 66.8847 140.226 66.6977 140.677 66.6977C141.447 66.6977 142.096 67.2697 142.096 69.0517ZM138.444 72.5277C138.444 72.7477 138.455 72.9897 138.411 73.1657C138.345 73.4187 138.224 73.5177 138.07 73.5947C137.982 73.6387 137.839 73.6607 137.718 73.6717V73.8697H139.896V73.6717C139.742 73.6607 139.599 73.6387 139.5 73.5947C139.346 73.5287 139.225 73.3857 139.181 73.1657C139.148 72.9897 139.137 72.7477 139.137 72.5277V71.2077H139.203C139.566 71.5927 140.072 71.7467 140.534 71.7467C141.711 71.7467 142.866 70.8887 142.866 69.0737C142.866 67.1047 141.832 66.3897 140.765 66.3897C140.05 66.3897 139.522 66.7747 139.159 67.4017H139.104L139.115 66.5987C139.115 66.5437 139.082 66.5217 139.038 66.5217H137.674V66.7197C137.861 66.7417 138.059 66.7967 138.213 66.9067C138.312 66.9837 138.378 67.0827 138.411 67.2147C138.444 67.3467 138.444 67.6547 138.444 67.8307V72.5277ZM145.624 66.9837C145.877 66.7747 146.174 66.6757 146.482 66.6757C146.856 66.6757 147.109 66.7747 147.318 66.9507C147.549 67.1487 147.67 67.4237 147.67 67.9187C147.67 68.4027 147.571 68.5017 147.23 68.5017H144.986C145.085 67.7537 145.338 67.2257 145.624 66.9837ZM148.484 70.1407L148.242 70.0527C148.011 70.7567 147.571 71.3507 146.625 71.3507C146.174 71.3507 145.789 71.2077 145.503 70.9107C145.129 70.5037 144.953 69.7667 144.953 69.0957C144.953 68.9857 144.953 68.8867 144.964 68.7877H148.418C148.44 68.6447 148.451 68.4137 148.451 68.2267C148.451 67.4347 147.89 66.3897 146.471 66.3897C145.206 66.3897 144.161 67.5557 144.161 69.0737C144.161 69.8547 144.381 70.5697 144.898 71.0977C145.294 71.5157 145.822 71.7357 146.482 71.7357C147.45 71.7357 148.176 71.1527 148.484 70.1407ZM154.568 64.4757C155.514 64.4757 156.086 64.9047 156.086 66.1807C156.086 68.3147 154.227 69.8767 153.127 70.8227C153.05 70.8777 152.5 71.3067 152.236 71.5377L152.28 71.6367H156.768L157.208 69.8547H156.955C156.867 70.0747 156.68 70.4047 156.515 70.6247C156.35 70.8447 156.174 70.9437 155.635 70.9437H153.435V70.8997C153.534 70.7787 153.974 70.3827 154.205 70.1737C154.843 69.5907 156.911 68.0397 156.911 66.2247C156.911 64.9267 156.053 64.1787 154.7 64.1787C153.303 64.1787 152.566 65.0257 152.566 65.7407C152.566 66.0927 152.775 66.2797 153.017 66.2797C153.336 66.2797 153.501 66.0927 153.501 65.7627C153.501 65.6417 153.457 65.3997 153.468 65.2787C153.49 65.0807 153.534 64.9377 153.732 64.7727C153.897 64.6297 154.172 64.4757 154.568 64.4757Z" fill="black"/>
<circle cx="52.0677" cy="66.0677" r="37.0677" stroke="black" stroke-width="0.498279" stroke-dasharray="2.32 2.32"/>
<circle cx="138.426" cy="66.0677" r="36.8186" stroke="black" stroke-width="0.498279"/>
<circle cx="225.126" cy="66.0677" r="36.8186" stroke="black" stroke-width="0.498279"/>
<path d="M211.017 68.4688C211.017 67.1818 210.159 66.7528 208.905 66.1588C208.058 65.7628 207.211 65.4438 207.211 64.3658C207.211 63.5408 207.871 63.1778 208.509 63.1778C209.026 63.1778 209.312 63.3098 209.543 63.4638C209.928 63.7388 210.269 64.3438 210.456 64.9268H210.676L210.478 63.0018H210.258L210.104 63.4088H210.049C209.708 63.0898 209.268 62.8808 208.531 62.8808C207.299 62.8808 206.529 63.6948 206.529 64.6738C206.529 65.8948 207.442 66.4118 208.432 66.8738C209.598 67.4018 210.335 67.6988 210.335 68.8648C210.335 69.6458 209.818 70.2838 208.718 70.2838C207.673 70.2838 206.914 69.2498 206.562 68.0288H206.353L206.463 70.3388H206.617L206.87 69.8768H206.936C207.31 70.2398 207.948 70.5808 208.729 70.5808C209.895 70.5808 211.017 69.8108 211.017 68.4688ZM214.619 65.4548C215.169 65.4548 215.378 65.5978 215.532 66.1698C215.631 66.4668 215.741 66.6758 216.027 66.6758C216.258 66.6758 216.401 66.5438 216.401 66.2688C216.401 66.1258 216.357 65.9278 216.203 65.7518C215.95 65.4658 215.543 65.1798 214.63 65.1798C213.343 65.1798 212.309 66.3348 212.309 67.8418C212.309 68.8868 212.672 69.5798 213.178 69.9978C213.541 70.3278 213.981 70.5258 214.586 70.5258C215.576 70.5258 216.258 69.9098 216.533 68.9858L216.269 68.8978C216.093 69.4368 215.697 70.1628 214.63 70.1628C214.3 70.1628 213.959 70.0198 213.739 69.8108C213.343 69.4148 213.079 68.7658 213.079 67.7868C213.079 66.7858 213.365 66.0818 213.783 65.7408C214.003 65.5648 214.311 65.4548 214.619 65.4548ZM217.568 67.8528C217.568 69.5248 218.734 70.5258 219.966 70.5258C221.198 70.5258 222.364 69.5138 222.364 67.8418C222.364 66.1808 221.198 65.1798 219.966 65.1798C218.723 65.1798 217.568 66.1808 217.568 67.8528ZM218.349 67.8528C218.349 66.8738 218.591 66.2028 219.031 65.8068C219.295 65.5648 219.647 65.4548 219.966 65.4548C220.274 65.4548 220.626 65.5538 220.89 65.8068C221.33 66.2138 221.572 66.8848 221.572 67.8528C221.572 68.8098 221.319 69.4918 220.89 69.8988C220.626 70.1518 220.285 70.2508 219.966 70.2508C219.636 70.2508 219.295 70.1518 219.02 69.8878C218.591 69.4918 218.349 68.8098 218.349 67.8528ZM227.857 67.8418C227.857 69.4808 227.241 70.2728 226.306 70.2728C225.877 70.2728 225.536 70.1298 225.294 69.8548C225.041 69.5908 224.898 69.1948 224.898 68.4908V67.1818C224.898 66.6978 225.118 66.2358 225.371 65.9718C225.646 65.6748 225.987 65.4878 226.438 65.4878C227.208 65.4878 227.857 66.0598 227.857 67.8418ZM224.205 71.3178C224.205 71.5378 224.216 71.7798 224.172 71.9558C224.106 72.2088 223.985 72.3078 223.831 72.3848C223.743 72.4288 223.6 72.4508 223.479 72.4618V72.6598H225.657V72.4618C225.503 72.4508 225.36 72.4288 225.261 72.3848C225.107 72.3188 224.986 72.1758 224.942 71.9558C224.909 71.7798 224.898 71.5378 224.898 71.3178V69.9978H224.964C225.327 70.3828 225.833 70.5368 226.295 70.5368C227.472 70.5368 228.627 69.6788 228.627 67.8638C228.627 65.8948 227.593 65.1798 226.526 65.1798C225.811 65.1798 225.283 65.5648 224.92 66.1918H224.865L224.876 65.3888C224.876 65.3338 224.843 65.3118 224.799 65.3118H223.435V65.5098C223.622 65.5318 223.82 65.5868 223.974 65.6968C224.073 65.7738 224.139 65.8728 224.172 66.0048C224.205 66.1368 224.205 66.4448 224.205 66.6208V71.3178ZM231.386 65.7738C231.639 65.5648 231.936 65.4658 232.244 65.4658C232.618 65.4658 232.871 65.5648 233.08 65.7408C233.311 65.9388 233.432 66.2138 233.432 66.7088C233.432 67.1928 233.333 67.2918 232.992 67.2918H230.748C230.847 66.5438 231.1 66.0158 231.386 65.7738ZM234.246 68.9308L234.004 68.8428C233.773 69.5468 233.333 70.1408 232.387 70.1408C231.936 70.1408 231.551 69.9978 231.265 69.7008C230.891 69.2938 230.715 68.5568 230.715 67.8858C230.715 67.7758 230.715 67.6768 230.726 67.5778H234.18C234.202 67.4348 234.213 67.2038 234.213 67.0168C234.213 66.2248 233.652 65.1798 232.233 65.1798C230.968 65.1798 229.923 66.3458 229.923 67.8638C229.923 68.6448 230.143 69.3598 230.66 69.8878C231.056 70.3058 231.584 70.5258 232.244 70.5258C233.212 70.5258 233.938 69.9428 234.246 68.9308ZM240.385 62.9688C239.076 62.9688 238.438 63.6838 238.438 64.2888C238.438 64.6188 238.625 64.8278 238.867 64.8278C239.131 64.8278 239.307 64.6738 239.307 64.3218C239.307 64.2448 239.285 64.1018 239.263 64.0248C239.241 63.9588 239.208 63.8818 239.208 63.7938C239.208 63.4638 239.615 63.2548 240.264 63.2548C241.111 63.2548 241.452 63.6398 241.452 64.3878C241.452 65.3558 240.935 65.9058 239.967 66.4668L239.208 66.8958L239.34 67.1378L239.78 66.8848C239.967 66.7748 240.231 66.6868 240.517 66.6868C241.573 66.6868 241.958 67.1048 241.958 68.0508C241.958 69.5358 241.188 70.2948 239.934 70.2948C239.516 70.2948 239.296 70.2288 239.076 70.0308C238.966 69.9318 238.889 69.7998 238.845 69.6128C238.801 69.4808 238.79 69.3048 238.79 69.1838C238.79 68.8648 238.669 68.6668 238.405 68.6668C238.174 68.6668 237.987 68.8318 237.987 69.1728C237.987 69.7888 238.746 70.5808 239.901 70.5808C241.991 70.5808 242.794 69.2388 242.794 68.0838C242.794 67.2258 242.189 66.2248 240.462 66.4668V66.4338C241.254 65.9168 242.233 65.3558 242.233 64.3438C242.233 63.5298 241.595 62.9688 240.385 62.9688Z" fill="black"/>
<path d="M98.1301 114.504H49.7521C22.827 114.504 1 92.6771 1 65.7521V65.7521C1 38.8271 22.8271 17 49.7521 17H227.435C254.36 17 276.187 38.8271 276.187 65.7521V65.7521C276.187 92.6771 254.36 114.504 227.435 114.504H179.917" stroke="black" stroke-width="0.498279"/>
<path d="M109.663 112.939H109.729L110.785 116.03H108.563L109.663 112.939ZM108.673 118.78C108.519 118.769 108.321 118.736 108.222 118.692C108.046 118.626 107.903 118.472 107.903 118.197C107.903 118.01 107.925 117.856 108.057 117.471L108.464 116.327H110.884L111.225 117.328C111.346 117.691 111.445 117.933 111.445 118.241C111.445 118.505 111.269 118.637 111.115 118.692C110.994 118.736 110.895 118.758 110.708 118.78V119H113.271V118.78C113.15 118.758 113.062 118.736 112.919 118.67C112.754 118.593 112.6 118.472 112.457 118.219C112.369 118.065 112.204 117.735 112.017 117.174L110.092 111.542H109.828L107.705 117.427C107.551 117.867 107.441 118.12 107.364 118.285C107.265 118.472 107.166 118.582 107.056 118.648C106.913 118.736 106.803 118.758 106.616 118.78V119H108.673V118.78ZM115.588 112.268C115.588 111.861 115.61 111.465 115.61 111.245C115.61 111.19 115.588 111.168 115.533 111.168H114.169V111.377C114.389 111.388 114.532 111.41 114.653 111.498C114.752 111.575 114.807 111.652 114.851 111.795C114.895 111.927 114.895 112.334 114.895 112.499V117.724C114.895 117.933 114.895 118.131 114.851 118.296C114.796 118.505 114.686 118.626 114.51 118.703C114.422 118.747 114.29 118.78 114.18 118.791V119H116.281V118.791C116.171 118.78 116.05 118.747 115.951 118.703C115.786 118.615 115.676 118.505 115.621 118.263C115.588 118.098 115.588 117.911 115.588 117.724V112.268ZM118.805 112.268C118.805 111.861 118.827 111.465 118.827 111.245C118.827 111.19 118.805 111.168 118.75 111.168H117.386V111.377C117.606 111.388 117.749 111.41 117.87 111.498C117.969 111.575 118.024 111.652 118.068 111.795C118.112 111.927 118.112 112.334 118.112 112.499V117.724C118.112 117.933 118.112 118.131 118.068 118.296C118.013 118.505 117.903 118.626 117.727 118.703C117.639 118.747 117.507 118.78 117.397 118.791V119H119.498V118.791C119.388 118.78 119.267 118.747 119.168 118.703C119.003 118.615 118.893 118.505 118.838 118.263C118.805 118.098 118.805 117.911 118.805 117.724V112.268ZM129.038 117.207H128.84C128.686 117.537 128.565 117.889 128.114 118.285C127.883 118.494 127.52 118.725 126.75 118.725H126.134C125.87 118.725 125.562 118.681 125.408 118.571C125.089 118.34 125.089 117.79 125.089 117.317V115.304H125.947C126.42 115.304 126.662 115.381 126.838 115.546C127.08 115.755 127.157 116.162 127.179 116.459H127.388V113.874H127.179C127.157 114.16 127.091 114.556 126.838 114.776C126.662 114.952 126.431 115.018 125.947 115.018H125.089V113.06C125.089 112.719 125.122 112.246 125.386 112.015C125.507 111.905 125.727 111.883 125.881 111.883H126.706C127.234 111.883 127.619 112.081 127.751 112.191C128.114 112.466 128.29 112.818 128.499 113.291H128.719L128.422 111.597H123.351V111.806C123.483 111.817 123.593 111.828 123.692 111.861C123.901 111.938 124.044 112.037 124.154 112.246C124.275 112.565 124.308 113.027 124.308 113.742V116.855C124.308 117.57 124.286 118.054 124.143 118.362C124.044 118.549 123.901 118.637 123.681 118.714C123.593 118.747 123.483 118.769 123.351 118.78V119H128.73L129.038 117.207ZM132.452 118.791C132.254 118.78 132.122 118.725 132.001 118.648C131.858 118.56 131.781 118.45 131.737 118.285C131.693 118.109 131.682 117.812 131.682 117.57V116.173C131.682 115.711 131.737 115.348 131.913 115.029C132.144 114.512 132.54 114.193 133.112 114.193C133.475 114.193 133.684 114.292 133.838 114.523C133.981 114.721 134.036 114.996 134.036 115.348V117.57C134.036 117.812 134.025 118.12 133.97 118.307C133.926 118.483 133.838 118.593 133.684 118.681C133.585 118.736 133.442 118.78 133.277 118.791V119H135.477V118.802C135.323 118.78 135.18 118.736 135.092 118.692C134.916 118.593 134.85 118.472 134.784 118.274C134.729 118.098 134.729 117.834 134.729 117.603V116.195C134.729 115.711 134.784 115.337 134.927 115.051C135.18 114.49 135.609 114.193 136.159 114.193C136.478 114.193 136.676 114.281 136.83 114.468C136.995 114.677 137.05 114.963 137.05 115.337V117.57C137.05 117.812 137.05 118.087 137.006 118.285C136.962 118.461 136.885 118.582 136.709 118.67C136.61 118.725 136.467 118.769 136.302 118.791V119H138.491V118.802C138.381 118.791 138.238 118.758 138.15 118.714C137.941 118.615 137.864 118.494 137.798 118.263C137.754 118.098 137.754 117.856 137.754 117.625V115.128C137.754 114.567 137.6 114.248 137.336 114.028C137.116 113.863 136.874 113.753 136.412 113.753C136.049 113.753 135.719 113.863 135.444 114.05C135.169 114.226 134.938 114.457 134.74 114.875H134.685C134.641 114.49 134.509 114.226 134.3 114.05C134.08 113.852 133.794 113.753 133.387 113.753C132.969 113.753 132.639 113.885 132.375 114.083C132.122 114.248 131.913 114.49 131.737 114.875H131.66C131.671 114.644 131.693 114.094 131.693 113.951C131.693 113.907 131.682 113.885 131.627 113.885H130.263V114.083C130.439 114.116 130.604 114.16 130.736 114.237C130.835 114.292 130.912 114.402 130.945 114.534C130.978 114.677 130.978 114.985 130.978 115.26V117.57C130.978 117.812 130.989 118.076 130.956 118.252C130.89 118.505 130.791 118.615 130.571 118.714C130.472 118.747 130.329 118.791 130.23 118.802V119H132.452V118.791ZM140.661 112.598C140.947 112.598 141.167 112.389 141.167 112.092C141.167 111.806 140.958 111.575 140.661 111.575C140.386 111.575 140.177 111.795 140.177 112.092C140.177 112.389 140.386 112.598 140.661 112.598ZM141.002 114.941C141.002 114.501 141.024 114.193 141.035 113.962C141.035 113.907 141.002 113.885 140.958 113.885H139.594V114.083C139.836 114.116 139.957 114.16 140.067 114.237C140.177 114.314 140.221 114.391 140.265 114.534C140.298 114.655 140.309 115.073 140.309 115.249V117.801C140.309 117.988 140.309 118.142 140.265 118.318C140.221 118.494 140.1 118.615 139.924 118.703C139.847 118.747 139.693 118.78 139.594 118.791V119H141.739V118.791C141.629 118.78 141.475 118.736 141.398 118.703C141.244 118.626 141.101 118.538 141.046 118.318C141.013 118.175 141.002 117.966 141.002 117.801V114.941ZM146.396 117.581C146.396 116.734 145.736 116.415 144.845 116.041C143.987 115.689 143.591 115.458 143.591 114.842C143.591 114.358 143.976 114.039 144.515 114.039C144.845 114.039 145.087 114.127 145.263 114.27C145.538 114.479 145.703 114.831 145.857 115.271H146.055L146 113.83H145.857L145.648 114.149H145.582C145.384 113.962 145.065 113.753 144.504 113.753C143.58 113.753 142.997 114.347 142.997 115.051C142.997 116.019 143.591 116.294 144.46 116.657C145.428 117.064 145.824 117.284 145.824 117.933C145.824 118.549 145.395 118.824 144.779 118.824C143.987 118.824 143.404 118.197 143.14 117.196H142.909L142.942 119H143.14L143.349 118.571H143.426C143.745 118.901 144.284 119.099 144.768 119.099C145.626 119.099 146.396 118.626 146.396 117.581ZM150.946 117.581C150.946 116.734 150.286 116.415 149.395 116.041C148.537 115.689 148.141 115.458 148.141 114.842C148.141 114.358 148.526 114.039 149.065 114.039C149.395 114.039 149.637 114.127 149.813 114.27C150.088 114.479 150.253 114.831 150.407 115.271H150.605L150.55 113.83H150.407L150.198 114.149H150.132C149.934 113.962 149.615 113.753 149.054 113.753C148.13 113.753 147.547 114.347 147.547 115.051C147.547 116.019 148.141 116.294 149.01 116.657C149.978 117.064 150.374 117.284 150.374 117.933C150.374 118.549 149.945 118.824 149.329 118.824C148.537 118.824 147.954 118.197 147.69 117.196H147.459L147.492 119H147.69L147.899 118.571H147.976C148.295 118.901 148.834 119.099 149.318 119.099C150.176 119.099 150.946 118.626 150.946 117.581ZM153.043 112.598C153.329 112.598 153.549 112.389 153.549 112.092C153.549 111.806 153.34 111.575 153.043 111.575C152.768 111.575 152.559 111.795 152.559 112.092C152.559 112.389 152.768 112.598 153.043 112.598ZM153.384 114.941C153.384 114.501 153.406 114.193 153.417 113.962C153.417 113.907 153.384 113.885 153.34 113.885H151.976V114.083C152.218 114.116 152.339 114.16 152.449 114.237C152.559 114.314 152.603 114.391 152.647 114.534C152.68 114.655 152.691 115.073 152.691 115.249V117.801C152.691 117.988 152.691 118.142 152.647 118.318C152.603 118.494 152.482 118.615 152.306 118.703C152.229 118.747 152.075 118.78 151.976 118.791V119H154.121V118.791C154.011 118.78 153.857 118.736 153.78 118.703C153.626 118.626 153.483 118.538 153.428 118.318C153.395 118.175 153.384 117.966 153.384 117.801V114.941ZM155.28 116.426C155.28 118.098 156.446 119.099 157.678 119.099C158.91 119.099 160.076 118.087 160.076 116.415C160.076 114.754 158.91 113.753 157.678 113.753C156.435 113.753 155.28 114.754 155.28 116.426ZM156.061 116.426C156.061 115.447 156.303 114.776 156.743 114.38C157.007 114.138 157.359 114.028 157.678 114.028C157.986 114.028 158.338 114.127 158.602 114.38C159.042 114.787 159.284 115.458 159.284 116.426C159.284 117.383 159.031 118.065 158.602 118.472C158.338 118.725 157.997 118.824 157.678 118.824C157.348 118.824 157.007 118.725 156.732 118.461C156.303 118.065 156.061 117.383 156.061 116.426ZM165.932 117.625V115.106C165.932 114.545 165.734 114.204 165.47 114.006C165.239 113.852 164.964 113.753 164.59 113.753C164.183 113.753 163.798 113.874 163.523 114.061C163.248 114.215 162.962 114.479 162.764 114.886H162.698C162.709 114.699 162.72 114.105 162.72 113.951C162.72 113.896 162.698 113.885 162.643 113.885H161.301V114.083C161.477 114.105 161.653 114.16 161.785 114.237C161.895 114.303 161.961 114.391 161.994 114.534C162.027 114.677 162.027 114.985 162.027 115.249V117.515C162.027 117.779 162.027 118.087 162.005 118.23C161.95 118.505 161.829 118.615 161.576 118.714C161.499 118.747 161.356 118.78 161.257 118.791V119H163.479V118.791C163.369 118.78 163.259 118.747 163.16 118.714C162.918 118.615 162.819 118.483 162.775 118.285C162.731 118.109 162.731 117.812 162.731 117.57V116.129C162.731 115.667 162.786 115.348 162.951 115.007C163.193 114.479 163.721 114.204 164.271 114.204C164.59 114.204 164.81 114.292 164.964 114.457C165.14 114.644 165.228 114.897 165.228 115.348V117.57C165.228 117.812 165.228 118.098 165.173 118.296C165.107 118.516 165.041 118.626 164.821 118.714C164.733 118.747 164.59 118.78 164.48 118.791V119H166.658V118.791C166.559 118.78 166.416 118.747 166.339 118.714C166.097 118.604 166.02 118.472 165.976 118.263C165.943 118.109 165.932 117.856 165.932 117.625ZM171.272 117.581C171.272 116.734 170.612 116.415 169.721 116.041C168.863 115.689 168.467 115.458 168.467 114.842C168.467 114.358 168.852 114.039 169.391 114.039C169.721 114.039 169.963 114.127 170.139 114.27C170.414 114.479 170.579 114.831 170.733 115.271H170.931L170.876 113.83H170.733L170.524 114.149H170.458C170.26 113.962 169.941 113.753 169.38 113.753C168.456 113.753 167.873 114.347 167.873 115.051C167.873 116.019 168.467 116.294 169.336 116.657C170.304 117.064 170.7 117.284 170.7 117.933C170.7 118.549 170.271 118.824 169.655 118.824C168.863 118.824 168.28 118.197 168.016 117.196H167.785L167.818 119H168.016L168.225 118.571H168.302C168.621 118.901 169.16 119.099 169.644 119.099C170.502 119.099 171.272 118.626 171.272 117.581Z" fill="black"/>
<path d="M110.196 5.976V6.493C110.196 7.098 110.097 7.406 109.987 7.516C109.8 7.703 109.382 7.813 108.689 7.813C108.139 7.813 107.776 7.725 107.336 7.494C106.489 7.054 105.95 6.152 105.95 4.293C105.95 2.467 106.511 1.609 107.072 1.202C107.468 0.905 107.864 0.761999 108.425 0.761999C109.349 0.761999 109.822 1.026 110.229 1.576C110.504 1.939 110.702 2.423 110.856 3.061H111.087V0.696H110.9L110.647 1.136H110.603C110.328 0.85 109.624 0.453999 108.447 0.453999C106.753 0.453999 105.015 1.873 105.015 4.293C105.015 6.636 106.434 8.154 108.711 8.154C109.206 8.154 109.866 8.077 110.295 8C110.603 7.945 110.867 7.846 111.021 7.78V6.394C111.021 5.712 111.043 5.349 111.164 5.14C111.274 4.953 111.406 4.876 111.593 4.81C111.692 4.777 111.813 4.755 111.934 4.744V4.524H109.25V4.744C109.371 4.755 109.481 4.777 109.58 4.81C109.789 4.876 109.91 4.942 110.02 5.129C110.152 5.36 110.196 5.558 110.196 5.976ZM115.707 7.78C115.597 7.769 115.498 7.758 115.41 7.725C115.212 7.67 115.036 7.538 114.937 7.34C114.794 7.021 114.772 6.559 114.772 5.844V4.381H118.435V5.844C118.435 6.559 118.402 7.01 118.27 7.34C118.182 7.56 118.028 7.648 117.819 7.714C117.72 7.747 117.632 7.769 117.511 7.78V8H120.173V7.78C120.052 7.769 119.942 7.747 119.832 7.714C119.634 7.648 119.491 7.538 119.392 7.34C119.249 7.065 119.227 6.559 119.227 5.844V2.742C119.227 2.027 119.249 1.554 119.392 1.246C119.491 1.037 119.623 0.949 119.799 0.883C119.931 0.839 120.052 0.828 120.173 0.816999V0.597H117.511V0.816999C117.632 0.828 117.731 0.85 117.808 0.872C117.94 0.915999 118.182 1.037 118.27 1.246C118.402 1.565 118.435 2.038 118.435 2.742V4.084H114.772V2.742C114.772 2.038 114.805 1.565 114.937 1.246C115.036 1.037 115.19 0.927 115.41 0.860999C115.498 0.839 115.586 0.828 115.707 0.816999V0.597H113.034V0.816999C113.166 0.828 113.265 0.85 113.386 0.883C113.573 0.938 113.716 1.037 113.826 1.246C113.98 1.554 113.98 2.027 113.98 2.742V5.844C113.98 6.559 113.969 7.021 113.826 7.34C113.738 7.538 113.595 7.648 113.364 7.725C113.287 7.747 113.166 7.769 113.034 7.78V8H115.707V7.78ZM126.611 5.976V6.493C126.611 7.098 126.512 7.406 126.402 7.516C126.215 7.703 125.797 7.813 125.104 7.813C124.554 7.813 124.191 7.725 123.751 7.494C122.904 7.054 122.365 6.152 122.365 4.293C122.365 2.467 122.926 1.609 123.487 1.202C123.883 0.905 124.279 0.761999 124.84 0.761999C125.764 0.761999 126.237 1.026 126.644 1.576C126.919 1.939 127.117 2.423 127.271 3.061H127.502V0.696H127.315L127.062 1.136H127.018C126.743 0.85 126.039 0.453999 124.862 0.453999C123.168 0.453999 121.43 1.873 121.43 4.293C121.43 6.636 122.849 8.154 125.126 8.154C125.621 8.154 126.281 8.077 126.71 8C127.018 7.945 127.282 7.846 127.436 7.78V6.394C127.436 5.712 127.458 5.349 127.579 5.14C127.689 4.953 127.821 4.876 128.008 4.81C128.107 4.777 128.228 4.755 128.349 4.744V4.524H125.665V4.744C125.786 4.755 125.896 4.777 125.995 4.81C126.204 4.876 126.325 4.942 126.435 5.129C126.567 5.36 126.611 5.558 126.611 5.976ZM133.878 1.389C133.878 1.18 133.889 1.081 133.977 0.982C134.054 0.894 134.153 0.872 134.34 0.872H134.978C136.122 0.872 136.705 1.4 136.705 2.511C136.705 2.874 136.65 3.336 136.397 3.655C136.133 3.963 135.693 4.249 134.736 4.249C134.472 4.249 134.076 4.216 133.878 4.172V1.389ZM134.846 7.78C134.725 7.769 134.593 7.758 134.494 7.725C134.274 7.659 134.142 7.549 134.032 7.329C133.911 7.043 133.878 6.647 133.878 5.987V4.491C134.043 4.513 134.417 4.546 134.725 4.546C135.649 4.546 136.254 4.337 136.628 4.117C137.156 3.809 137.53 3.226 137.53 2.423C137.53 1.169 136.507 0.597 135.077 0.597H132.14V0.816999C132.294 0.828 132.404 0.85 132.481 0.872C132.679 0.938 132.822 1.037 132.932 1.246C133.064 1.543 133.086 1.939 133.086 2.588V5.998C133.086 6.647 133.064 7.043 132.932 7.34C132.822 7.571 132.69 7.659 132.514 7.714C132.382 7.758 132.272 7.769 132.162 7.78V8H134.846V7.78ZM139.902 4.029H139.836C139.836 4.073 139.869 2.929 139.869 2.951C139.869 2.918 139.847 2.885 139.792 2.885H138.45V3.083C138.615 3.116 138.78 3.149 138.923 3.237C139.022 3.303 139.11 3.413 139.143 3.545C139.176 3.677 139.176 4.073 139.176 4.26V6.625C139.176 6.845 139.176 7.087 139.132 7.274C139.066 7.516 138.978 7.615 138.791 7.714C138.681 7.747 138.538 7.78 138.439 7.791V8H140.639V7.791C140.518 7.78 140.397 7.758 140.276 7.714C140.144 7.67 140.067 7.56 140.001 7.406C139.913 7.219 139.869 7.01 139.869 6.581V5.437C139.869 5.151 139.88 4.81 139.891 4.744C139.99 3.897 140.551 3.215 140.903 3.215C141.035 3.215 141.145 3.259 141.211 3.402C141.288 3.6 141.376 3.776 141.64 3.776C141.937 3.776 142.036 3.556 142.036 3.347C142.036 3.138 141.959 3.006 141.882 2.929C141.75 2.819 141.563 2.753 141.365 2.753C140.991 2.753 140.727 2.907 140.529 3.072C140.287 3.281 140.1 3.534 139.902 4.029ZM142.83 5.426C142.83 7.098 143.996 8.099 145.228 8.099C146.46 8.099 147.626 7.087 147.626 5.415C147.626 3.754 146.46 2.753 145.228 2.753C143.985 2.753 142.83 3.754 142.83 5.426ZM143.611 5.426C143.611 4.447 143.853 3.776 144.293 3.38C144.557 3.138 144.909 3.028 145.228 3.028C145.536 3.028 145.888 3.127 146.152 3.38C146.592 3.787 146.834 4.458 146.834 5.426C146.834 6.383 146.581 7.065 146.152 7.472C145.888 7.725 145.547 7.824 145.228 7.824C144.898 7.824 144.557 7.725 144.282 7.461C143.853 7.065 143.611 6.383 143.611 5.426ZM151.689 7.318C151.458 7.582 151.161 7.725 150.82 7.725C150.281 7.725 150.116 7.483 150.116 7.032L150.127 3.193H151.513V2.885H150.127V1.125H149.951C149.577 2.511 149.225 2.885 148.609 2.984V3.171C148.719 3.171 149.313 3.182 149.445 3.182C149.434 3.347 149.434 6.955 149.434 7.021C149.434 7.461 149.511 7.659 149.687 7.813C149.94 8.022 150.204 8.099 150.611 8.099C151.062 8.099 151.513 7.901 151.81 7.461L151.689 7.318ZM152.606 5.426C152.606 7.098 153.772 8.099 155.004 8.099C156.236 8.099 157.402 7.087 157.402 5.415C157.402 3.754 156.236 2.753 155.004 2.753C153.761 2.753 152.606 3.754 152.606 5.426ZM153.387 5.426C153.387 4.447 153.629 3.776 154.069 3.38C154.333 3.138 154.685 3.028 155.004 3.028C155.312 3.028 155.664 3.127 155.928 3.38C156.368 3.787 156.61 4.458 156.61 5.426C156.61 6.383 156.357 7.065 155.928 7.472C155.664 7.725 155.323 7.824 155.004 7.824C154.674 7.824 154.333 7.725 154.058 7.461C153.629 7.065 153.387 6.383 153.387 5.426ZM161.056 3.028C161.606 3.028 161.815 3.171 161.969 3.743C162.068 4.04 162.178 4.249 162.464 4.249C162.695 4.249 162.838 4.117 162.838 3.842C162.838 3.699 162.794 3.501 162.64 3.325C162.387 3.039 161.98 2.753 161.067 2.753C159.78 2.753 158.746 3.908 158.746 5.415C158.746 6.46 159.109 7.153 159.615 7.571C159.978 7.901 160.418 8.099 161.023 8.099C162.013 8.099 162.695 7.483 162.97 6.559L162.706 6.471C162.53 7.01 162.134 7.736 161.067 7.736C160.737 7.736 160.396 7.593 160.176 7.384C159.78 6.988 159.516 6.339 159.516 5.36C159.516 4.359 159.802 3.655 160.22 3.314C160.44 3.138 160.748 3.028 161.056 3.028ZM164.005 5.426C164.005 7.098 165.171 8.099 166.403 8.099C167.635 8.099 168.801 7.087 168.801 5.415C168.801 3.754 167.635 2.753 166.403 2.753C165.16 2.753 164.005 3.754 164.005 5.426ZM164.786 5.426C164.786 4.447 165.028 3.776 165.468 3.38C165.732 3.138 166.084 3.028 166.403 3.028C166.711 3.028 167.063 3.127 167.327 3.38C167.767 3.787 168.009 4.458 168.009 5.426C168.009 6.383 167.756 7.065 167.327 7.472C167.063 7.725 166.722 7.824 166.403 7.824C166.073 7.824 165.732 7.725 165.457 7.461C165.028 7.065 164.786 6.383 164.786 5.426ZM171.39 1.268C171.39 0.860999 171.412 0.464999 171.412 0.245C171.412 0.19 171.39 0.168 171.335 0.168H169.971V0.377C170.191 0.388 170.334 0.409999 170.455 0.498C170.554 0.575 170.609 0.652 170.653 0.795C170.697 0.927 170.697 1.334 170.697 1.499V6.724C170.697 6.933 170.697 7.131 170.653 7.296C170.598 7.505 170.488 7.626 170.312 7.703C170.224 7.747 170.092 7.78 169.982 7.791V8H172.083V7.791C171.973 7.78 171.852 7.747 171.753 7.703C171.588 7.615 171.478 7.505 171.423 7.263C171.39 7.098 171.39 6.911 171.39 6.724V1.268Z" fill="black"/>
</g>
<defs>
<clipPath id="clip0">
<rect width="277" height="120" fill="white"/>
</clipPath>
</defs>
</svg>
