<svg width="552" height="243" viewBox="0 0 552 243" fill="none" xmlns="http://www.w3.org/2000/svg">
<rect width="552" height="243" fill="white"/>
<path d="M85.1494 139.041C85.1494 137.132 83.8771 136.496 82.0175 135.615C80.7615 135.028 79.5055 134.555 79.5055 132.956C79.5055 131.733 80.4842 131.195 81.4303 131.195C82.197 131.195 82.6211 131.391 82.9636 131.619C83.5345 132.027 84.0402 132.924 84.3175 133.788H84.6437L84.3501 130.934H84.0239L83.7955 131.537H83.714C83.2083 131.064 82.5558 130.754 81.4629 130.754C79.636 130.754 78.4941 131.961 78.4941 133.413C78.4941 135.224 79.848 135.99 81.3161 136.676C83.0452 137.459 84.1381 137.899 84.1381 139.628C84.1381 140.786 83.3714 141.732 81.7402 141.732C80.1906 141.732 79.0651 140.199 78.5431 138.388H78.2332L78.3963 141.814H78.6246L78.9998 141.129H79.0977C79.6523 141.667 80.5984 142.173 81.7565 142.173C83.4856 142.173 85.1494 141.031 85.1494 139.041ZM90.4498 134.571C91.2654 134.571 91.5753 134.783 91.8037 135.632C91.9505 136.072 92.1136 136.382 92.5377 136.382C92.8802 136.382 93.0923 136.186 93.0923 135.778C93.0923 135.566 93.027 135.273 92.7987 135.012C92.4235 134.588 91.82 134.164 90.4661 134.164C88.5576 134.164 87.0243 135.876 87.0243 138.111C87.0243 139.661 87.5626 140.688 88.3129 141.308C88.8512 141.798 89.5037 142.091 90.4008 142.091C91.8689 142.091 92.8802 141.178 93.288 139.807L92.8966 139.677C92.6356 140.476 92.0483 141.553 90.4661 141.553C89.9767 141.553 89.471 141.341 89.1448 141.031C88.5576 140.444 88.1661 139.481 88.1661 138.029C88.1661 136.545 88.5902 135.501 89.2101 134.995C89.5363 134.734 89.993 134.571 90.4498 134.571ZM94.7815 138.127C94.7815 140.607 96.5105 142.091 98.3375 142.091C100.164 142.091 101.893 140.59 101.893 138.111C101.893 135.648 100.164 134.164 98.3375 134.164C96.4942 134.164 94.7815 135.648 94.7815 138.127ZM95.9396 138.127C95.9396 136.676 96.2985 135.681 96.9509 135.093C97.3424 134.734 97.8644 134.571 98.3375 134.571C98.7942 134.571 99.3162 134.718 99.7077 135.093C100.36 135.697 100.719 136.692 100.719 138.127C100.719 139.546 100.344 140.558 99.7077 141.161C99.3162 141.537 98.8105 141.683 98.3375 141.683C97.8481 141.683 97.3424 141.537 96.9346 141.145C96.2985 140.558 95.9396 139.546 95.9396 138.127ZM109.998 138.111C109.998 140.542 109.084 141.716 107.698 141.716C107.061 141.716 106.556 141.504 106.197 141.096C105.822 140.705 105.61 140.117 105.61 139.073V137.132C105.61 136.415 105.936 135.729 106.311 135.338C106.719 134.898 107.225 134.62 107.893 134.62C109.035 134.62 109.998 135.468 109.998 138.111ZM104.582 143.266C104.582 143.592 104.598 143.951 104.533 144.212C104.435 144.587 104.256 144.734 104.027 144.848C103.897 144.913 103.685 144.946 103.505 144.962V145.256H106.735V144.962C106.507 144.946 106.295 144.913 106.148 144.848C105.92 144.75 105.74 144.538 105.675 144.212C105.626 143.951 105.61 143.592 105.61 143.266V141.308H105.708C106.246 141.879 106.996 142.107 107.681 142.107C109.427 142.107 111.139 140.835 111.139 138.144C111.139 135.224 109.606 134.164 108.024 134.164C106.964 134.164 106.181 134.734 105.642 135.664H105.561L105.577 134.473C105.577 134.392 105.528 134.359 105.463 134.359H103.44V134.653C103.717 134.686 104.011 134.767 104.239 134.93C104.386 135.044 104.484 135.191 104.533 135.387C104.582 135.583 104.582 136.039 104.582 136.3V143.266ZM115.189 135.044C115.564 134.734 116.004 134.588 116.461 134.588C117.015 134.588 117.391 134.734 117.701 134.995C118.043 135.289 118.223 135.697 118.223 136.431C118.223 137.149 118.076 137.295 117.57 137.295H114.242C114.389 136.186 114.764 135.403 115.189 135.044ZM119.43 139.726L119.071 139.595C118.728 140.639 118.076 141.52 116.673 141.52C116.004 141.52 115.433 141.308 115.009 140.868C114.455 140.264 114.194 139.171 114.194 138.176C114.194 138.013 114.194 137.866 114.21 137.72H119.332C119.364 137.507 119.381 137.165 119.381 136.888C119.381 135.713 118.549 134.164 116.445 134.164C114.569 134.164 113.019 135.893 113.019 138.144C113.019 139.302 113.345 140.362 114.112 141.145C114.699 141.765 115.482 142.091 116.461 142.091C117.896 142.091 118.973 141.227 119.43 139.726ZM128.826 141.944V141.634C128.549 141.602 128.271 141.537 128.108 141.439C127.896 141.308 127.831 141.227 127.749 140.966C127.684 140.754 127.668 140.346 127.668 139.922V132.63C127.668 132.19 127.7 131.342 127.7 131.097C127.7 130.999 127.668 130.966 127.586 130.966C127.423 130.966 127.146 131.032 126.836 131.097C126.314 131.178 125.743 131.26 125.302 131.276V131.586C125.563 131.635 126.004 131.7 126.2 131.798C126.363 131.88 126.461 131.961 126.51 132.271C126.558 132.549 126.575 132.956 126.575 133.217V139.922C126.575 140.346 126.542 140.737 126.477 140.966C126.395 141.243 126.265 141.341 126.085 141.455C125.955 141.537 125.661 141.585 125.4 141.634V141.944H128.826Z" fill="black"/>
<path d="M257.512 141.466C257.512 139.557 256.24 138.921 254.38 138.04C253.124 137.453 251.868 136.98 251.868 135.381C251.868 134.158 252.847 133.62 253.793 133.62C254.56 133.62 254.984 133.815 255.326 134.044C255.897 134.451 256.403 135.349 256.68 136.213H257.006L256.713 133.359H256.387L256.158 133.962H256.077C255.571 133.489 254.918 133.179 253.826 133.179C251.999 133.179 250.857 134.386 250.857 135.838C250.857 137.649 252.211 138.415 253.679 139.1C255.408 139.883 256.501 140.324 256.501 142.053C256.501 143.211 255.734 144.157 254.103 144.157C252.553 144.157 251.428 142.624 250.906 140.813H250.596L250.759 144.239H250.987L251.362 143.554H251.46C252.015 144.092 252.961 144.598 254.119 144.598C255.848 144.598 257.512 143.456 257.512 141.466ZM262.812 136.996C263.628 136.996 263.938 137.208 264.166 138.056C264.313 138.497 264.476 138.807 264.9 138.807C265.243 138.807 265.455 138.611 265.455 138.203C265.455 137.991 265.39 137.698 265.161 137.437C264.786 137.012 264.183 136.588 262.829 136.588C260.92 136.588 259.387 138.301 259.387 140.536C259.387 142.085 259.925 143.113 260.676 143.733C261.214 144.222 261.866 144.516 262.763 144.516C264.232 144.516 265.243 143.602 265.651 142.232L265.259 142.102C264.998 142.901 264.411 143.978 262.829 143.978C262.339 143.978 261.834 143.766 261.507 143.456C260.92 142.868 260.529 141.906 260.529 140.454C260.529 138.97 260.953 137.926 261.573 137.42C261.899 137.159 262.356 136.996 262.812 136.996ZM267.144 140.552C267.144 143.032 268.873 144.516 270.7 144.516C272.527 144.516 274.256 143.015 274.256 140.536C274.256 138.073 272.527 136.588 270.7 136.588C268.857 136.588 267.144 138.073 267.144 140.552ZM268.302 140.552C268.302 139.1 268.661 138.105 269.314 137.518C269.705 137.159 270.227 136.996 270.7 136.996C271.157 136.996 271.679 137.143 272.07 137.518C272.723 138.122 273.082 139.117 273.082 140.552C273.082 141.971 272.706 142.983 272.07 143.586C271.679 143.961 271.173 144.108 270.7 144.108C270.211 144.108 269.705 143.961 269.297 143.57C268.661 142.983 268.302 141.971 268.302 140.552ZM282.36 140.536C282.36 142.966 281.447 144.141 280.06 144.141C279.424 144.141 278.918 143.929 278.56 143.521C278.184 143.129 277.972 142.542 277.972 141.498V139.557C277.972 138.839 278.299 138.154 278.674 137.763C279.082 137.322 279.587 137.045 280.256 137.045C281.398 137.045 282.36 137.893 282.36 140.536ZM276.945 145.69C276.945 146.017 276.961 146.376 276.896 146.636C276.798 147.012 276.618 147.158 276.39 147.273C276.26 147.338 276.047 147.371 275.868 147.387V147.68H279.098V147.387C278.869 147.371 278.657 147.338 278.511 147.273C278.282 147.175 278.103 146.963 278.038 146.636C277.989 146.376 277.972 146.017 277.972 145.69V143.733H278.07C278.608 144.304 279.359 144.532 280.044 144.532C281.789 144.532 283.502 143.26 283.502 140.568C283.502 137.649 281.969 136.588 280.386 136.588C279.326 136.588 278.543 137.159 278.005 138.089H277.923L277.94 136.898C277.94 136.817 277.891 136.784 277.825 136.784H275.803V137.078C276.08 137.11 276.374 137.192 276.602 137.355C276.749 137.469 276.847 137.616 276.896 137.812C276.945 138.007 276.945 138.464 276.945 138.725V145.69ZM287.551 137.469C287.926 137.159 288.367 137.012 288.824 137.012C289.378 137.012 289.753 137.159 290.063 137.42C290.406 137.714 290.585 138.122 290.585 138.856C290.585 139.573 290.438 139.72 289.933 139.72H286.605C286.752 138.611 287.127 137.828 287.551 137.469ZM291.792 142.151L291.433 142.02C291.091 143.064 290.438 143.945 289.036 143.945C288.367 143.945 287.796 143.733 287.372 143.293C286.817 142.689 286.556 141.596 286.556 140.601C286.556 140.438 286.556 140.291 286.572 140.144H291.694C291.727 139.932 291.743 139.59 291.743 139.312C291.743 138.138 290.911 136.588 288.807 136.588C286.931 136.588 285.382 138.317 285.382 140.568C285.382 141.727 285.708 142.787 286.475 143.57C287.062 144.19 287.845 144.516 288.824 144.516C290.259 144.516 291.336 143.651 291.792 142.151ZM300.732 133.75C302.135 133.75 302.983 134.386 302.983 136.278C302.983 139.443 300.226 141.759 298.595 143.162C298.481 143.244 297.665 143.88 297.274 144.222L297.339 144.369H303.994L304.647 141.727H304.271C304.141 142.053 303.864 142.542 303.619 142.868C303.374 143.195 303.113 143.341 302.314 143.341H299.052V143.276C299.198 143.097 299.851 142.51 300.193 142.2C301.14 141.335 304.206 139.035 304.206 136.344C304.206 134.419 302.934 133.31 300.927 133.31C298.856 133.31 297.763 134.566 297.763 135.626C297.763 136.148 298.073 136.425 298.432 136.425C298.905 136.425 299.149 136.148 299.149 135.659C299.149 135.479 299.084 135.12 299.101 134.941C299.133 134.647 299.198 134.435 299.492 134.19C299.737 133.978 300.145 133.75 300.732 133.75Z" fill="black"/>
<circle cx="103.391" cy="137.264" r="74.3914" stroke="black" stroke-dasharray="4.66 4.66"/>
<circle cx="276.704" cy="137.264" r="73.8914" stroke="black"/>
<circle cx="450.704" cy="137.264" r="73.8914" stroke="black"/>
<path d="M429.602 139.04C429.602 137.131 428.329 136.495 426.47 135.614C425.214 135.027 423.958 134.554 423.958 132.955C423.958 131.732 424.937 131.194 425.883 131.194C426.649 131.194 427.073 131.39 427.416 131.618C427.987 132.026 428.493 132.923 428.77 133.787H429.096L428.802 130.933H428.476L428.248 131.536H428.166C427.661 131.063 427.008 130.753 425.915 130.753C424.088 130.753 422.946 131.96 422.946 133.412C422.946 135.223 424.3 135.99 425.768 136.675C427.498 137.458 428.59 137.898 428.59 139.627C428.59 140.785 427.824 141.731 426.193 141.731C424.643 141.731 423.517 140.198 422.995 138.387H422.685L422.849 141.813H423.077L423.452 141.128H423.55C424.105 141.666 425.051 142.172 426.209 142.172C427.938 142.172 429.602 141.03 429.602 139.04ZM434.902 134.57C435.718 134.57 436.028 134.782 436.256 135.631C436.403 136.071 436.566 136.381 436.99 136.381C437.333 136.381 437.545 136.185 437.545 135.777C437.545 135.565 437.479 135.272 437.251 135.011C436.876 134.587 436.272 134.163 434.918 134.163C433.01 134.163 431.477 135.875 431.477 138.11C431.477 139.66 432.015 140.687 432.765 141.307C433.304 141.797 433.956 142.09 434.853 142.09C436.321 142.09 437.333 141.177 437.74 139.806L437.349 139.676C437.088 140.475 436.501 141.552 434.918 141.552C434.429 141.552 433.923 141.34 433.597 141.03C433.01 140.443 432.618 139.48 432.618 138.028C432.618 136.544 433.043 135.5 433.662 134.994C433.989 134.733 434.445 134.57 434.902 134.57ZM439.234 138.126C439.234 140.606 440.963 142.09 442.79 142.09C444.617 142.09 446.346 140.589 446.346 138.11C446.346 135.647 444.617 134.163 442.79 134.163C440.947 134.163 439.234 135.647 439.234 138.126ZM440.392 138.126C440.392 136.675 440.751 135.68 441.403 135.092C441.795 134.733 442.317 134.57 442.79 134.57C443.247 134.57 443.769 134.717 444.16 135.092C444.812 135.696 445.171 136.691 445.171 138.126C445.171 139.546 444.796 140.557 444.16 141.16C443.769 141.536 443.263 141.682 442.79 141.682C442.3 141.682 441.795 141.536 441.387 141.144C440.751 140.557 440.392 139.546 440.392 138.126ZM454.45 138.11C454.45 140.541 453.536 141.715 452.15 141.715C451.514 141.715 451.008 141.503 450.649 141.095C450.274 140.704 450.062 140.116 450.062 139.072V137.131C450.062 136.414 450.388 135.729 450.763 135.337C451.171 134.897 451.677 134.619 452.346 134.619C453.487 134.619 454.45 135.468 454.45 138.11ZM449.034 143.265C449.034 143.591 449.051 143.95 448.985 144.211C448.888 144.586 448.708 144.733 448.48 144.847C448.349 144.912 448.137 144.945 447.958 144.961V145.255H451.187V144.961C450.959 144.945 450.747 144.912 450.6 144.847C450.372 144.749 450.192 144.537 450.127 144.211C450.078 143.95 450.062 143.591 450.062 143.265V141.307H450.16C450.698 141.878 451.448 142.106 452.134 142.106C453.879 142.106 455.592 140.834 455.592 138.143C455.592 135.223 454.058 134.163 452.476 134.163C451.416 134.163 450.633 134.733 450.095 135.663H450.013L450.029 134.472C450.029 134.391 449.98 134.358 449.915 134.358H447.892V134.652C448.17 134.685 448.463 134.766 448.692 134.929C448.839 135.043 448.936 135.19 448.985 135.386C449.034 135.582 449.034 136.038 449.034 136.299V143.265ZM459.641 135.043C460.016 134.733 460.456 134.587 460.913 134.587C461.468 134.587 461.843 134.733 462.153 134.994C462.495 135.288 462.675 135.696 462.675 136.43C462.675 137.148 462.528 137.294 462.022 137.294H458.695C458.842 136.185 459.217 135.402 459.641 135.043ZM463.882 139.725L463.523 139.594C463.181 140.638 462.528 141.519 461.125 141.519C460.456 141.519 459.886 141.307 459.461 140.867C458.907 140.263 458.646 139.17 458.646 138.175C458.646 138.012 458.646 137.865 458.662 137.719H463.784C463.817 137.507 463.833 137.164 463.833 136.887C463.833 135.712 463.001 134.163 460.897 134.163C459.021 134.163 457.471 135.892 457.471 138.143C457.471 139.301 457.798 140.361 458.564 141.144C459.152 141.764 459.935 142.09 460.913 142.09C462.349 142.09 463.425 141.226 463.882 139.725ZM472.903 130.884C470.962 130.884 470.016 131.944 470.016 132.841C470.016 133.331 470.293 133.641 470.652 133.641C471.043 133.641 471.304 133.412 471.304 132.89C471.304 132.776 471.272 132.564 471.239 132.45C471.207 132.352 471.158 132.238 471.158 132.107C471.158 131.618 471.761 131.308 472.724 131.308C473.98 131.308 474.485 131.879 474.485 132.988C474.485 134.424 473.719 135.239 472.283 136.071L471.158 136.707L471.353 137.066L472.006 136.691C472.283 136.528 472.675 136.397 473.099 136.397C474.665 136.397 475.236 137.017 475.236 138.42C475.236 140.622 474.094 141.748 472.234 141.748C471.614 141.748 471.288 141.65 470.962 141.356C470.799 141.209 470.685 141.014 470.619 140.736C470.554 140.541 470.538 140.28 470.538 140.1C470.538 139.627 470.358 139.333 469.967 139.333C469.624 139.333 469.347 139.578 469.347 140.084C469.347 140.997 470.472 142.172 472.185 142.172C475.285 142.172 476.475 140.182 476.475 138.469C476.475 137.197 475.578 135.712 473.017 136.071V136.022C474.192 135.255 475.643 134.424 475.643 132.923C475.643 131.716 474.697 130.884 472.903 130.884Z" fill="black"/>
<path d="M215.114 234.682H98.8408C44.8048 234.682 1 190.877 1 136.841V136.841C1 82.8049 44.8049 39 98.8409 39H453.159C507.195 39 551 82.8049 551 136.841V136.841C551 190.877 507.195 234.682 453.159 234.682H338.603" stroke="black"/>
<path d="M234.223 230.536H234.321L235.887 235.119H232.592L234.223 230.536ZM232.755 239.197C232.526 239.181 232.233 239.132 232.086 239.067C231.825 238.969 231.613 238.74 231.613 238.333C231.613 238.055 231.646 237.827 231.841 237.256L232.445 235.56H236.034L236.539 237.044C236.719 237.582 236.865 237.941 236.865 238.398C236.865 238.789 236.604 238.985 236.376 239.067C236.197 239.132 236.05 239.165 235.773 239.197V239.523H239.573V239.197C239.394 239.165 239.263 239.132 239.051 239.034C238.807 238.92 238.578 238.74 238.366 238.365C238.236 238.137 237.991 237.648 237.714 236.816L234.859 228.464H234.468L231.319 237.191C231.091 237.843 230.928 238.218 230.814 238.463C230.667 238.74 230.52 238.904 230.357 239.001C230.145 239.132 229.982 239.165 229.704 239.197V239.523H232.755V239.197ZM242.967 229.541C242.967 228.937 242.999 228.35 242.999 228.024C242.999 227.942 242.967 227.909 242.885 227.909H240.862V228.219C241.189 228.236 241.401 228.268 241.58 228.399C241.727 228.513 241.808 228.627 241.874 228.839C241.939 229.035 241.939 229.638 241.939 229.883V237.631C241.939 237.941 241.939 238.235 241.874 238.479C241.792 238.789 241.629 238.969 241.368 239.083C241.238 239.148 241.042 239.197 240.879 239.214V239.523H243.994V239.214C243.831 239.197 243.652 239.148 243.505 239.083C243.26 238.953 243.097 238.789 243.016 238.431C242.967 238.186 242.967 237.909 242.967 237.631V229.541ZM247.697 229.541C247.697 228.937 247.729 228.35 247.729 228.024C247.729 227.942 247.697 227.909 247.615 227.909H245.593V228.219C245.919 228.236 246.131 228.268 246.31 228.399C246.457 228.513 246.539 228.627 246.604 228.839C246.669 229.035 246.669 229.638 246.669 229.883V237.631C246.669 237.941 246.669 238.235 246.604 238.479C246.522 238.789 246.359 238.969 246.098 239.083C245.968 239.148 245.772 239.197 245.609 239.214V239.523H248.724V239.214C248.561 239.197 248.382 239.148 248.235 239.083C247.99 238.953 247.827 238.789 247.746 238.431C247.697 238.186 247.697 237.909 247.697 237.631V229.541ZM262.787 236.865H262.494C262.265 237.354 262.086 237.876 261.417 238.463C261.074 238.773 260.536 239.116 259.394 239.116H258.481C258.089 239.116 257.633 239.05 257.404 238.887C256.931 238.545 256.931 237.729 256.931 237.028V234.043H258.204C258.905 234.043 259.264 234.157 259.525 234.401C259.884 234.711 259.998 235.315 260.03 235.755H260.34V231.922H260.03C259.998 232.346 259.9 232.933 259.525 233.26C259.264 233.521 258.921 233.619 258.204 233.619H256.931V230.715C256.931 230.209 256.98 229.508 257.372 229.165C257.551 229.002 257.877 228.97 258.106 228.97H259.329C260.112 228.97 260.683 229.263 260.879 229.426C261.417 229.834 261.678 230.356 261.988 231.058H262.314L261.874 228.546H254.354V228.855C254.55 228.872 254.713 228.888 254.86 228.937C255.17 229.051 255.382 229.198 255.545 229.508C255.724 229.981 255.773 230.666 255.773 231.726V236.343C255.773 237.403 255.74 238.121 255.528 238.577C255.382 238.855 255.17 238.985 254.843 239.099C254.713 239.148 254.55 239.181 254.354 239.197V239.523H262.33L262.787 236.865ZM267.81 239.214C267.516 239.197 267.32 239.116 267.141 239.001C266.929 238.871 266.815 238.708 266.749 238.463C266.684 238.202 266.668 237.762 266.668 237.403V235.331C266.668 234.646 266.749 234.108 267.01 233.635C267.353 232.868 267.94 232.395 268.788 232.395C269.327 232.395 269.637 232.542 269.865 232.884C270.077 233.178 270.159 233.586 270.159 234.108V237.403C270.159 237.762 270.142 238.218 270.061 238.496C269.995 238.757 269.865 238.92 269.637 239.05C269.49 239.132 269.278 239.197 269.033 239.214V239.523H272.295V239.23C272.067 239.197 271.855 239.132 271.724 239.067C271.463 238.92 271.366 238.74 271.268 238.447C271.186 238.186 271.186 237.794 271.186 237.452V235.364C271.186 234.646 271.268 234.092 271.48 233.667C271.855 232.836 272.491 232.395 273.307 232.395C273.78 232.395 274.073 232.526 274.302 232.803C274.546 233.113 274.628 233.537 274.628 234.092V237.403C274.628 237.762 274.628 238.17 274.563 238.463C274.498 238.724 274.383 238.904 274.122 239.034C273.976 239.116 273.763 239.181 273.519 239.214V239.523H276.765V239.23C276.602 239.214 276.39 239.165 276.259 239.099C275.949 238.953 275.835 238.773 275.737 238.431C275.672 238.186 275.672 237.827 275.672 237.484V233.782C275.672 232.95 275.444 232.477 275.052 232.15C274.726 231.906 274.367 231.743 273.682 231.743C273.144 231.743 272.654 231.906 272.246 232.183C271.839 232.444 271.496 232.787 271.203 233.406H271.121C271.056 232.836 270.86 232.444 270.55 232.183C270.224 231.889 269.8 231.743 269.196 231.743C268.576 231.743 268.087 231.938 267.695 232.232C267.32 232.477 267.01 232.836 266.749 233.406H266.635C266.651 233.064 266.684 232.248 266.684 232.036C266.684 231.971 266.668 231.938 266.586 231.938H264.564V232.232C264.825 232.281 265.069 232.346 265.265 232.46C265.412 232.542 265.526 232.705 265.575 232.901C265.624 233.113 265.624 233.57 265.624 233.977V237.403C265.624 237.762 265.64 238.153 265.591 238.414C265.493 238.789 265.347 238.953 265.02 239.099C264.873 239.148 264.661 239.214 264.515 239.23V239.523H267.81V239.214ZM279.94 230.03C280.364 230.03 280.691 229.72 280.691 229.28C280.691 228.855 280.381 228.513 279.94 228.513C279.533 228.513 279.223 228.839 279.223 229.28C279.223 229.72 279.533 230.03 279.94 230.03ZM280.446 233.504C280.446 232.852 280.479 232.395 280.495 232.053C280.495 231.971 280.446 231.938 280.381 231.938H278.358V232.232C278.717 232.281 278.896 232.346 279.059 232.46C279.223 232.575 279.288 232.689 279.353 232.901C279.402 233.08 279.418 233.7 279.418 233.961V237.745C279.418 238.023 279.418 238.251 279.353 238.512C279.288 238.773 279.108 238.953 278.847 239.083C278.733 239.148 278.505 239.197 278.358 239.214V239.523H281.539V239.214C281.376 239.197 281.147 239.132 281.033 239.083C280.805 238.969 280.593 238.838 280.511 238.512C280.462 238.3 280.446 237.99 280.446 237.745V233.504ZM288.404 237.419C288.404 236.163 287.425 235.69 286.104 235.136C284.831 234.614 284.244 234.271 284.244 233.358C284.244 232.64 284.815 232.167 285.614 232.167C286.104 232.167 286.463 232.297 286.724 232.509C287.131 232.819 287.376 233.341 287.604 233.994H287.898L287.816 231.857H287.604L287.294 232.33H287.197C286.903 232.053 286.43 231.743 285.598 231.743C284.228 231.743 283.363 232.623 283.363 233.667C283.363 235.103 284.244 235.511 285.533 236.049C286.968 236.653 287.555 236.979 287.555 237.941C287.555 238.855 286.919 239.262 286.006 239.262C284.831 239.262 283.967 238.333 283.575 236.848H283.233L283.282 239.523H283.575L283.885 238.887H283.999C284.472 239.377 285.272 239.67 285.989 239.67C287.262 239.67 288.404 238.969 288.404 237.419ZM295.109 237.419C295.109 236.163 294.13 235.69 292.809 235.136C291.537 234.614 290.95 234.271 290.95 233.358C290.95 232.64 291.52 232.167 292.32 232.167C292.809 232.167 293.168 232.297 293.429 232.509C293.837 232.819 294.081 233.341 294.31 233.994H294.603L294.522 231.857H294.31L294 232.33H293.902C293.608 232.053 293.135 231.743 292.303 231.743C290.933 231.743 290.069 232.623 290.069 233.667C290.069 235.103 290.95 235.511 292.238 236.049C293.674 236.653 294.261 236.979 294.261 237.941C294.261 238.855 293.625 239.262 292.711 239.262C291.537 239.262 290.672 238.333 290.281 236.848H289.938L289.987 239.523H290.281L290.591 238.887H290.705C291.178 239.377 291.977 239.67 292.695 239.67C293.967 239.67 295.109 238.969 295.109 237.419ZM298.177 230.03C298.601 230.03 298.927 229.72 298.927 229.28C298.927 228.855 298.617 228.513 298.177 228.513C297.769 228.513 297.459 228.839 297.459 229.28C297.459 229.72 297.769 230.03 298.177 230.03ZM298.683 233.504C298.683 232.852 298.715 232.395 298.732 232.053C298.732 231.971 298.683 231.938 298.617 231.938H296.595V232.232C296.954 232.281 297.133 232.346 297.296 232.46C297.459 232.575 297.525 232.689 297.59 232.901C297.639 233.08 297.655 233.7 297.655 233.961V237.745C297.655 238.023 297.655 238.251 297.59 238.512C297.525 238.773 297.345 238.953 297.084 239.083C296.97 239.148 296.742 239.197 296.595 239.214V239.523H299.776V239.214C299.612 239.197 299.384 239.132 299.27 239.083C299.042 238.969 298.83 238.838 298.748 238.512C298.699 238.3 298.683 237.99 298.683 237.745V233.504ZM301.453 235.706C301.453 238.186 303.182 239.67 305.009 239.67C306.836 239.67 308.565 238.17 308.565 235.69C308.565 233.227 306.836 231.743 305.009 231.743C303.166 231.743 301.453 233.227 301.453 235.706ZM302.611 235.706C302.611 234.255 302.97 233.26 303.623 232.672C304.014 232.314 304.536 232.15 305.009 232.15C305.466 232.15 305.988 232.297 306.379 232.672C307.032 233.276 307.391 234.271 307.391 235.706C307.391 237.126 307.016 238.137 306.379 238.74C305.988 239.116 305.482 239.262 305.009 239.262C304.52 239.262 304.014 239.116 303.606 238.724C302.97 238.137 302.611 237.126 302.611 235.706ZM317.208 237.484V233.749C317.208 232.917 316.914 232.411 316.522 232.118C316.18 231.889 315.772 231.743 315.218 231.743C314.614 231.743 314.043 231.922 313.635 232.199C313.227 232.428 312.803 232.819 312.51 233.423H312.412C312.428 233.145 312.444 232.265 312.444 232.036C312.444 231.955 312.412 231.938 312.33 231.938H310.34V232.232C310.601 232.265 310.862 232.346 311.058 232.46C311.221 232.558 311.319 232.689 311.368 232.901C311.417 233.113 311.417 233.57 311.417 233.961V237.321C311.417 237.713 311.417 238.17 311.384 238.382C311.303 238.789 311.123 238.953 310.748 239.099C310.634 239.148 310.422 239.197 310.275 239.214V239.523H313.57V239.214C313.407 239.197 313.244 239.148 313.097 239.099C312.738 238.953 312.591 238.757 312.526 238.463C312.461 238.202 312.461 237.762 312.461 237.403V235.266C312.461 234.581 312.542 234.108 312.787 233.602C313.146 232.819 313.929 232.411 314.744 232.411C315.218 232.411 315.544 232.542 315.772 232.787C316.033 233.064 316.164 233.439 316.164 234.108V237.403C316.164 237.762 316.164 238.186 316.082 238.479C315.984 238.806 315.886 238.969 315.56 239.099C315.43 239.148 315.218 239.197 315.054 239.214V239.523H318.284V239.214C318.137 239.197 317.925 239.148 317.811 239.099C317.452 238.936 317.338 238.74 317.273 238.431C317.224 238.202 317.208 237.827 317.208 237.484ZM325.085 237.419C325.085 236.163 324.106 235.69 322.785 235.136C321.513 234.614 320.926 234.271 320.926 233.358C320.926 232.64 321.496 232.167 322.296 232.167C322.785 232.167 323.144 232.297 323.405 232.509C323.813 232.819 324.057 233.341 324.286 233.994H324.579L324.498 231.857H324.286L323.976 232.33H323.878C323.584 232.053 323.111 231.743 322.279 231.743C320.909 231.743 320.045 232.623 320.045 233.667C320.045 235.103 320.926 235.511 322.214 236.049C323.65 236.653 324.237 236.979 324.237 237.941C324.237 238.855 323.601 239.262 322.687 239.262C321.513 239.262 320.648 238.333 320.257 236.848H319.914L319.963 239.523H320.257L320.567 238.887H320.681C321.154 239.377 321.953 239.67 322.671 239.67C323.943 239.67 325.085 238.969 325.085 237.419Z" fill="black"/>
<path d="M235.183 10.9986V11.7653C235.183 12.6624 235.036 13.1192 234.873 13.2823C234.596 13.5596 233.976 13.7227 232.948 13.7227C232.133 13.7227 231.594 13.5922 230.942 13.2497C229.686 12.5972 228.887 11.2596 228.887 8.50288C228.887 5.7951 229.719 4.52277 230.551 3.91923C231.138 3.4788 231.725 3.26675 232.557 3.26675C233.927 3.26675 234.629 3.65824 235.232 4.47383C235.64 5.01213 235.933 5.72985 236.162 6.67594H236.504V3.16888H236.227L235.852 3.82135H235.787C235.379 3.39724 234.335 2.81001 232.59 2.81001C230.077 2.81001 227.5 4.91425 227.5 8.50288C227.5 11.9773 229.604 14.2284 232.981 14.2284C233.715 14.2284 234.694 14.1142 235.33 14C235.787 13.9184 236.178 13.7716 236.407 13.6738V11.6185C236.407 10.6071 236.439 10.0688 236.619 9.7589C236.782 9.48159 236.977 9.36741 237.255 9.26954C237.402 9.2206 237.581 9.18798 237.76 9.17167V8.84543H233.78V9.17167C233.96 9.18798 234.123 9.2206 234.27 9.26954C234.58 9.36741 234.759 9.46528 234.922 9.74259C235.118 10.0851 235.183 10.3788 235.183 10.9986ZM243.313 13.6738C243.15 13.6574 243.003 13.6411 242.872 13.5922C242.579 13.5106 242.318 13.3149 242.171 13.0213C241.959 12.5482 241.926 11.8631 241.926 10.8029V8.63337H247.358V10.8029C247.358 11.8631 247.309 12.5319 247.113 13.0213C246.983 13.3475 246.755 13.478 246.445 13.5759C246.298 13.6248 246.167 13.6574 245.988 13.6738V14H249.935V13.6738C249.756 13.6574 249.593 13.6248 249.43 13.5759C249.136 13.478 248.924 13.3149 248.777 13.0213C248.565 12.6135 248.533 11.8631 248.533 10.8029V6.2029C248.533 5.14262 248.565 4.44121 248.777 3.98447C248.924 3.67455 249.12 3.54405 249.381 3.44618C249.577 3.38093 249.756 3.36462 249.935 3.34831V3.02207H245.988V3.34831C246.167 3.36462 246.314 3.39724 246.428 3.42987C246.624 3.49512 246.983 3.67455 247.113 3.98447C247.309 4.45752 247.358 5.15893 247.358 6.2029V8.19295H241.926V6.2029C241.926 5.15893 241.975 4.45752 242.171 3.98447C242.318 3.67455 242.546 3.51143 242.872 3.41356C243.003 3.38093 243.133 3.36462 243.313 3.34831V3.02207H239.349V3.34831C239.545 3.36462 239.692 3.39724 239.871 3.44618C240.148 3.52774 240.36 3.67455 240.523 3.98447C240.752 4.44121 240.752 5.14262 240.752 6.2029V10.8029C240.752 11.8631 240.736 12.5482 240.523 13.0213C240.393 13.3149 240.181 13.478 239.838 13.5922C239.724 13.6248 239.545 13.6574 239.349 13.6738V14H243.313V13.6738ZM259.442 10.9986V11.7653C259.442 12.6624 259.295 13.1192 259.132 13.2823C258.855 13.5596 258.235 13.7227 257.207 13.7227C256.392 13.7227 255.853 13.5922 255.201 13.2497C253.945 12.5972 253.146 11.2596 253.146 8.50288C253.146 5.7951 253.978 4.52277 254.81 3.91923C255.397 3.4788 255.984 3.26675 256.816 3.26675C258.186 3.26675 258.888 3.65824 259.491 4.47383C259.899 5.01213 260.192 5.72985 260.421 6.67594H260.763V3.16888H260.486L260.111 3.82135H260.046C259.638 3.39724 258.594 2.81001 256.849 2.81001C254.336 2.81001 251.759 4.91425 251.759 8.50288C251.759 11.9773 253.863 14.2284 257.24 14.2284C257.974 14.2284 258.953 14.1142 259.589 14C260.046 13.9184 260.437 13.7716 260.666 13.6738V11.6185C260.666 10.6071 260.698 10.0688 260.878 9.7589C261.041 9.48159 261.236 9.36741 261.514 9.26954C261.661 9.2206 261.84 9.18798 262.019 9.17167V8.84543H258.039V9.17167C258.219 9.18798 258.382 9.2206 258.529 9.26954C258.839 9.36741 259.018 9.46528 259.181 9.74259C259.377 10.0851 259.442 10.3788 259.442 10.9986ZM270.135 4.19653C270.135 3.8866 270.151 3.73979 270.282 3.59299C270.396 3.46249 270.543 3.42987 270.82 3.42987H271.766C273.463 3.42987 274.327 4.21284 274.327 5.86035C274.327 6.39864 274.246 7.08374 273.87 7.55679C273.479 8.01352 272.826 8.43763 271.407 8.43763C271.016 8.43763 270.429 8.3887 270.135 8.32345V4.19653ZM271.57 13.6738C271.391 13.6574 271.195 13.6411 271.048 13.5922C270.722 13.4943 270.526 13.3312 270.363 13.005C270.184 12.5809 270.135 11.9936 270.135 11.0149V8.79649C270.38 8.82912 270.934 8.87805 271.391 8.87805C272.761 8.87805 273.658 8.56813 274.213 8.24189C274.996 7.78515 275.551 6.92062 275.551 5.72985C275.551 3.87029 274.034 3.02207 271.913 3.02207H267.558V3.34831C267.786 3.36462 267.949 3.39724 268.063 3.42987C268.357 3.52774 268.569 3.67455 268.732 3.98447C268.928 4.4249 268.96 5.01213 268.96 5.97453V11.0312C268.96 11.9936 268.928 12.5809 268.732 13.0213C268.569 13.3638 268.373 13.4943 268.112 13.5759C267.917 13.6411 267.753 13.6574 267.59 13.6738V14H271.57V13.6738ZM279.027 8.11139H278.929C278.929 8.17664 278.978 6.4802 278.978 6.51282C278.978 6.46389 278.945 6.41495 278.864 6.41495H276.874V6.70857C277.118 6.7575 277.363 6.80644 277.575 6.93693C277.722 7.0348 277.852 7.19792 277.901 7.39367C277.95 7.58941 277.95 8.17664 277.95 8.45394V11.961C277.95 12.2872 277.95 12.6461 277.885 12.9234C277.787 13.2823 277.657 13.4291 277.379 13.5759C277.216 13.6248 277.004 13.6738 276.857 13.6901V14H280.12V13.6901C279.94 13.6738 279.761 13.6411 279.581 13.5759C279.386 13.5106 279.272 13.3475 279.174 13.1192C279.043 12.8419 278.978 12.5319 278.978 11.8958V10.1993C278.978 9.77521 278.994 9.26954 279.011 9.17167C279.157 7.91565 279.989 6.90431 280.511 6.90431C280.707 6.90431 280.87 6.96956 280.968 7.18161C281.082 7.47523 281.213 7.73622 281.604 7.73622C282.045 7.73622 282.191 7.40998 282.191 7.10005C282.191 6.79013 282.077 6.59438 281.963 6.4802C281.767 6.31708 281.49 6.21921 281.196 6.21921C280.642 6.21921 280.25 6.44758 279.957 6.69225C279.598 7.00218 279.32 7.37736 279.027 8.11139ZM283.327 10.183C283.327 12.6624 285.056 14.1468 286.883 14.1468C288.71 14.1468 290.439 12.6461 290.439 10.1667C290.439 7.70359 288.71 6.21921 286.883 6.21921C285.04 6.21921 283.327 7.70359 283.327 10.183ZM284.485 10.183C284.485 8.73125 284.844 7.73622 285.496 7.14899C285.888 6.79013 286.41 6.62701 286.883 6.62701C287.34 6.62701 287.862 6.77381 288.253 7.14899C288.906 7.75253 289.264 8.74756 289.264 10.183C289.264 11.6021 288.889 12.6135 288.253 13.217C287.862 13.5922 287.356 13.739 286.883 13.739C286.394 13.739 285.888 13.5922 285.48 13.2007C284.844 12.6135 284.485 11.6021 284.485 10.183ZM296.422 12.9887C296.08 13.3801 295.64 13.5922 295.134 13.5922C294.335 13.5922 294.09 13.2333 294.09 12.5645L294.106 6.87169H296.162V6.41495H294.106V3.80504H293.845C293.291 5.86035 292.769 6.41495 291.855 6.56176V6.83906C292.018 6.83906 292.899 6.85537 293.095 6.85537C293.079 7.10005 293.079 12.4504 293.079 12.5482C293.079 13.2007 293.193 13.4943 293.454 13.7227C293.829 14.0326 294.22 14.1468 294.824 14.1468C295.493 14.1468 296.162 13.8532 296.602 13.2007L296.422 12.9887ZM297.741 10.183C297.741 12.6624 299.471 14.1468 301.297 14.1468C303.124 14.1468 304.853 12.6461 304.853 10.1667C304.853 7.70359 303.124 6.21921 301.297 6.21921C299.454 6.21921 297.741 7.70359 297.741 10.183ZM298.9 10.183C298.9 8.73125 299.258 7.73622 299.911 7.14899C300.302 6.79013 300.824 6.62701 301.297 6.62701C301.754 6.62701 302.276 6.77381 302.668 7.14899C303.32 7.75253 303.679 8.74756 303.679 10.183C303.679 11.6021 303.304 12.6135 302.668 13.217C302.276 13.5922 301.77 13.739 301.297 13.739C300.808 13.739 300.302 13.5922 299.895 13.2007C299.258 12.6135 298.9 11.6021 298.9 10.183ZM310.23 6.62701C311.045 6.62701 311.355 6.83906 311.584 7.68728C311.73 8.1277 311.893 8.43763 312.318 8.43763C312.66 8.43763 312.872 8.24189 312.872 7.83409C312.872 7.62203 312.807 7.32842 312.579 7.06743C312.203 6.64332 311.6 6.21921 310.246 6.21921C308.337 6.21921 306.804 7.93196 306.804 10.1667C306.804 11.7163 307.342 12.744 308.093 13.3638C308.631 13.8532 309.284 14.1468 310.181 14.1468C311.649 14.1468 312.66 13.2333 313.068 11.8631L312.676 11.7326C312.415 12.5319 311.828 13.6085 310.246 13.6085C309.757 13.6085 309.251 13.3965 308.925 13.0865C308.337 12.4993 307.946 11.5369 307.946 10.0851C307.946 8.60075 308.37 7.55679 308.99 7.05112C309.316 6.79013 309.773 6.62701 310.23 6.62701ZM314.561 10.183C314.561 12.6624 316.29 14.1468 318.117 14.1468C319.944 14.1468 321.673 12.6461 321.673 10.1667C321.673 7.70359 319.944 6.21921 318.117 6.21921C316.274 6.21921 314.561 7.70359 314.561 10.183ZM315.719 10.183C315.719 8.73125 316.078 7.73622 316.731 7.14899C317.122 6.79013 317.644 6.62701 318.117 6.62701C318.574 6.62701 319.096 6.77381 319.488 7.14899C320.14 7.75253 320.499 8.74756 320.499 10.183C320.499 11.6021 320.124 12.6135 319.488 13.217C319.096 13.5922 318.59 13.739 318.117 13.739C317.628 13.739 317.122 13.5922 316.714 13.2007C316.078 12.6135 315.719 11.6021 315.719 10.183ZM325.471 4.0171C325.471 3.41356 325.504 2.82633 325.504 2.50009C325.504 2.41853 325.471 2.3859 325.39 2.3859H323.367V2.69583C323.693 2.71214 323.905 2.74477 324.085 2.87526C324.231 2.98945 324.313 3.10363 324.378 3.31568C324.443 3.51143 324.443 4.11497 324.443 4.35965V12.1078C324.443 12.4177 324.443 12.7114 324.378 12.956C324.297 13.266 324.133 13.4454 323.872 13.5596C323.742 13.6248 323.546 13.6738 323.383 13.6901V14H326.499V13.6901C326.336 13.6738 326.156 13.6248 326.009 13.5596C325.765 13.4291 325.602 13.266 325.52 12.9071C325.471 12.6624 325.471 12.3851 325.471 12.1078V4.0171Z" fill="black"/>
</svg>
