<svg width="276" height="275" viewBox="0 0 276 275" fill="none" xmlns="http://www.w3.org/2000/svg">
<g clip-path="url(#clip0)">
<rect width="276" height="275" fill="white"/>
<circle cx="27.99" cy="135.951" r="26.99" transform="rotate(96.8654 27.99 135.951)" stroke="black" stroke-width="0.498182" stroke-dasharray="1.99 1.99"/>
<path d="M14.5058 131.042C14.5058 129.755 13.6478 129.326 12.3938 128.732C11.5468 128.336 10.6998 128.017 10.6998 126.939C10.6998 126.114 11.3598 125.751 11.9978 125.751C12.5148 125.751 12.8008 125.883 13.0318 126.037C13.4168 126.312 13.7578 126.917 13.9448 127.5H14.1648L13.9668 125.575H13.7468L13.5928 125.982H13.5378C13.1968 125.663 12.7568 125.454 12.0198 125.454C10.7878 125.454 10.0178 126.268 10.0178 127.247C10.0178 128.468 10.9308 128.985 11.9208 129.447C13.0868 129.975 13.8238 130.272 13.8238 131.438C13.8238 132.219 13.3068 132.857 12.2068 132.857C11.1618 132.857 10.4028 131.823 10.0508 130.602H9.8418L9.9518 132.912H10.1058L10.3588 132.45H10.4248C10.7988 132.813 11.4368 133.154 12.2178 133.154C13.3838 133.154 14.5058 132.384 14.5058 131.042ZM18.1081 128.028C18.6581 128.028 18.8671 128.171 19.0211 128.743C19.1201 129.04 19.2301 129.249 19.5161 129.249C19.7471 129.249 19.8901 129.117 19.8901 128.842C19.8901 128.699 19.8461 128.501 19.6921 128.325C19.4391 128.039 19.0321 127.753 18.1191 127.753C16.8321 127.753 15.7981 128.908 15.7981 130.415C15.7981 131.46 16.1611 132.153 16.6671 132.571C17.0301 132.901 17.4701 133.099 18.0751 133.099C19.0651 133.099 19.7471 132.483 20.0221 131.559L19.7581 131.471C19.5821 132.01 19.1861 132.736 18.1191 132.736C17.7891 132.736 17.4481 132.593 17.2281 132.384C16.8321 131.988 16.5681 131.339 16.5681 130.36C16.5681 129.359 16.8541 128.655 17.2721 128.314C17.4921 128.138 17.8001 128.028 18.1081 128.028ZM21.0571 130.426C21.0571 132.098 22.2231 133.099 23.4551 133.099C24.6871 133.099 25.8531 132.087 25.8531 130.415C25.8531 128.754 24.6871 127.753 23.4551 127.753C22.2121 127.753 21.0571 128.754 21.0571 130.426ZM21.8381 130.426C21.8381 129.447 22.0801 128.776 22.5201 128.38C22.7841 128.138 23.1361 128.028 23.4551 128.028C23.7631 128.028 24.1151 128.127 24.3791 128.38C24.8191 128.787 25.0611 129.458 25.0611 130.426C25.0611 131.383 24.8081 132.065 24.3791 132.472C24.1151 132.725 23.7741 132.824 23.4551 132.824C23.1251 132.824 22.7841 132.725 22.5091 132.461C22.0801 132.065 21.8381 131.383 21.8381 130.426ZM31.3461 130.415C31.3461 132.054 30.7301 132.846 29.7951 132.846C29.3661 132.846 29.0251 132.703 28.7831 132.428C28.5301 132.164 28.3871 131.768 28.3871 131.064V129.755C28.3871 129.271 28.6071 128.809 28.8601 128.545C29.1351 128.248 29.4761 128.061 29.9271 128.061C30.6971 128.061 31.3461 128.633 31.3461 130.415ZM27.6941 133.891C27.6941 134.111 27.7051 134.353 27.6611 134.529C27.5951 134.782 27.4741 134.881 27.3201 134.958C27.2321 135.002 27.0891 135.024 26.9681 135.035V135.233H29.1461V135.035C28.9921 135.024 28.8491 135.002 28.7501 134.958C28.5961 134.892 28.4751 134.749 28.4311 134.529C28.3981 134.353 28.3871 134.111 28.3871 133.891V132.571H28.4531C28.8161 132.956 29.3221 133.11 29.7841 133.11C30.9611 133.11 32.1161 132.252 32.1161 130.437C32.1161 128.468 31.0821 127.753 30.0151 127.753C29.3001 127.753 28.7721 128.138 28.4091 128.765H28.3541L28.3651 127.962C28.3651 127.907 28.3321 127.885 28.2881 127.885H26.9241V128.083C27.1111 128.105 27.3091 128.16 27.4631 128.27C27.5621 128.347 27.6281 128.446 27.6611 128.578C27.6941 128.71 27.6941 129.018 27.6941 129.194V133.891ZM34.8746 128.347C35.1276 128.138 35.4246 128.039 35.7326 128.039C36.1066 128.039 36.3596 128.138 36.5686 128.314C36.7996 128.512 36.9206 128.787 36.9206 129.282C36.9206 129.766 36.8216 129.865 36.4806 129.865H34.2366C34.3356 129.117 34.5886 128.589 34.8746 128.347ZM37.7346 131.504L37.4926 131.416C37.2616 132.12 36.8216 132.714 35.8756 132.714C35.4246 132.714 35.0396 132.571 34.7536 132.274C34.3796 131.867 34.2036 131.13 34.2036 130.459C34.2036 130.349 34.2036 130.25 34.2146 130.151H37.6686C37.6906 130.008 37.7016 129.777 37.7016 129.59C37.7016 128.798 37.1406 127.753 35.7216 127.753C34.4566 127.753 33.4116 128.919 33.4116 130.437C33.4116 131.218 33.6316 131.933 34.1486 132.461C34.5446 132.879 35.0726 133.099 35.7326 133.099C36.7006 133.099 37.4266 132.516 37.7346 131.504ZM44.1268 133V132.791C43.9398 132.769 43.7528 132.725 43.6428 132.659C43.4998 132.571 43.4558 132.516 43.4008 132.34C43.3568 132.197 43.3458 131.922 43.3458 131.636V126.719C43.3458 126.422 43.3678 125.85 43.3678 125.685C43.3678 125.619 43.3458 125.597 43.2908 125.597C43.1808 125.597 42.9938 125.641 42.7848 125.685C42.4328 125.74 42.0478 125.795 41.7508 125.806V126.015C41.9268 126.048 42.2238 126.092 42.3558 126.158C42.4658 126.213 42.5318 126.268 42.5648 126.477C42.5978 126.664 42.6088 126.939 42.6088 127.115V131.636C42.6088 131.922 42.5868 132.186 42.5428 132.34C42.4878 132.527 42.3998 132.593 42.2788 132.67C42.1908 132.725 41.9928 132.758 41.8168 132.791V133H44.1268Z" fill="black"/>
<circle cx="64.8878" cy="133.9" r="63.8878" stroke="black" stroke-width="0.498182"/>
<path d="M75.7526 131.042C75.7526 129.755 74.8946 129.326 73.6406 128.732C72.7936 128.336 71.9466 128.017 71.9466 126.939C71.9466 126.114 72.6066 125.751 73.2446 125.751C73.7616 125.751 74.0476 125.883 74.2786 126.037C74.6636 126.312 75.0046 126.917 75.1916 127.5H75.4116L75.2136 125.575H74.9936L74.8396 125.982H74.7846C74.4436 125.663 74.0036 125.454 73.2666 125.454C72.0346 125.454 71.2646 126.268 71.2646 127.247C71.2646 128.468 72.1776 128.985 73.1676 129.447C74.3336 129.975 75.0706 130.272 75.0706 131.438C75.0706 132.219 74.5536 132.857 73.4536 132.857C72.4086 132.857 71.6496 131.823 71.2976 130.602H71.0886L71.1986 132.912H71.3526L71.6056 132.45H71.6716C72.0456 132.813 72.6836 133.154 73.4646 133.154C74.6306 133.154 75.7526 132.384 75.7526 131.042ZM79.3549 128.028C79.9049 128.028 80.1139 128.171 80.2679 128.743C80.3669 129.04 80.4769 129.249 80.7629 129.249C80.9939 129.249 81.1369 129.117 81.1369 128.842C81.1369 128.699 81.0929 128.501 80.9389 128.325C80.6859 128.039 80.2789 127.753 79.3659 127.753C78.0789 127.753 77.0449 128.908 77.0449 130.415C77.0449 131.46 77.4079 132.153 77.9139 132.571C78.2769 132.901 78.7169 133.099 79.3219 133.099C80.3119 133.099 80.9939 132.483 81.2689 131.559L81.0049 131.471C80.8289 132.01 80.4329 132.736 79.3659 132.736C79.0359 132.736 78.6949 132.593 78.4749 132.384C78.0789 131.988 77.8149 131.339 77.8149 130.36C77.8149 129.359 78.1009 128.655 78.5189 128.314C78.7389 128.138 79.0469 128.028 79.3549 128.028ZM82.3039 130.426C82.3039 132.098 83.4699 133.099 84.7019 133.099C85.9339 133.099 87.0999 132.087 87.0999 130.415C87.0999 128.754 85.9339 127.753 84.7019 127.753C83.4589 127.753 82.3039 128.754 82.3039 130.426ZM83.0849 130.426C83.0849 129.447 83.3269 128.776 83.7669 128.38C84.0309 128.138 84.3829 128.028 84.7019 128.028C85.0099 128.028 85.3619 128.127 85.6259 128.38C86.0659 128.787 86.3079 129.458 86.3079 130.426C86.3079 131.383 86.0549 132.065 85.6259 132.472C85.3619 132.725 85.0209 132.824 84.7019 132.824C84.3719 132.824 84.0309 132.725 83.7559 132.461C83.3269 132.065 83.0849 131.383 83.0849 130.426ZM92.5929 130.415C92.5929 132.054 91.9769 132.846 91.0419 132.846C90.6129 132.846 90.2719 132.703 90.0299 132.428C89.7769 132.164 89.6339 131.768 89.6339 131.064V129.755C89.6339 129.271 89.8539 128.809 90.1069 128.545C90.3819 128.248 90.7229 128.061 91.1739 128.061C91.9439 128.061 92.5929 128.633 92.5929 130.415ZM88.9409 133.891C88.9409 134.111 88.9519 134.353 88.9079 134.529C88.8419 134.782 88.7209 134.881 88.5669 134.958C88.4789 135.002 88.3359 135.024 88.2149 135.035V135.233H90.3929V135.035C90.2389 135.024 90.0959 135.002 89.9969 134.958C89.8429 134.892 89.7219 134.749 89.6779 134.529C89.6449 134.353 89.6339 134.111 89.6339 133.891V132.571H89.6999C90.0629 132.956 90.5689 133.11 91.0309 133.11C92.2079 133.11 93.3629 132.252 93.3629 130.437C93.3629 128.468 92.3289 127.753 91.2619 127.753C90.5469 127.753 90.0189 128.138 89.6559 128.765H89.6009L89.6119 127.962C89.6119 127.907 89.5789 127.885 89.5349 127.885H88.1709V128.083C88.3579 128.105 88.5559 128.16 88.7099 128.27C88.8089 128.347 88.8749 128.446 88.9079 128.578C88.9409 128.71 88.9409 129.018 88.9409 129.194V133.891ZM96.1214 128.347C96.3744 128.138 96.6714 128.039 96.9794 128.039C97.3534 128.039 97.6064 128.138 97.8154 128.314C98.0464 128.512 98.1674 128.787 98.1674 129.282C98.1674 129.766 98.0684 129.865 97.7274 129.865H95.4834C95.5824 129.117 95.8354 128.589 96.1214 128.347ZM98.9814 131.504L98.7394 131.416C98.5084 132.12 98.0684 132.714 97.1224 132.714C96.6714 132.714 96.2864 132.571 96.0004 132.274C95.6264 131.867 95.4504 131.13 95.4504 130.459C95.4504 130.349 95.4504 130.25 95.4614 130.151H98.9154C98.9374 130.008 98.9484 129.777 98.9484 129.59C98.9484 128.798 98.3874 127.753 96.9684 127.753C95.7034 127.753 94.6584 128.919 94.6584 130.437C94.6584 131.218 94.8784 131.933 95.3954 132.461C95.7914 132.879 96.3194 133.099 96.9794 133.099C97.9474 133.099 98.6734 132.516 98.9814 131.504ZM105.066 125.839C106.012 125.839 106.584 126.268 106.584 127.544C106.584 129.678 104.725 131.24 103.625 132.186C103.548 132.241 102.998 132.67 102.734 132.901L102.778 133H107.266L107.706 131.218H107.453C107.365 131.438 107.178 131.768 107.013 131.988C106.848 132.208 106.672 132.307 106.133 132.307H103.933V132.263C104.032 132.142 104.472 131.746 104.703 131.537C105.341 130.954 107.409 129.403 107.409 127.588C107.409 126.29 106.551 125.542 105.198 125.542C103.801 125.542 103.064 126.389 103.064 127.104C103.064 127.456 103.273 127.643 103.515 127.643C103.834 127.643 103.999 127.456 103.999 127.126C103.999 127.005 103.955 126.763 103.966 126.642C103.988 126.444 104.032 126.301 104.23 126.136C104.395 125.993 104.67 125.839 105.066 125.839Z" fill="black"/>
<circle cx="138" cy="138" r="137" stroke="black" stroke-width="0.498182"/>
<path d="M19.8263 145.315C19.8263 147.361 20.8713 149.154 22.6203 149.154C24.3913 149.154 25.4143 147.328 25.4143 145.315C25.4143 143.236 24.3693 141.542 22.6203 141.542C20.8713 141.542 19.8263 143.291 19.8263 145.315ZM24.6003 145.315C24.6003 147.713 23.7973 148.846 22.6203 148.846C21.4433 148.846 20.6513 147.691 20.6513 145.315C20.6513 142.917 21.4323 141.85 22.6203 141.85C23.8193 141.85 24.6003 142.917 24.6003 145.315ZM29.63 143.379C29.63 142.389 29.047 141.553 28.178 141.553C27.298 141.553 26.737 142.411 26.737 143.401C26.737 144.402 27.32 145.249 28.178 145.249C29.069 145.249 29.63 144.38 29.63 143.379ZM32.006 141.762L31.742 141.608L27.958 149.033L28.222 149.176L32.006 141.762ZM28.178 141.784C28.75 141.784 29.036 142.345 29.036 143.379C29.036 144.424 28.761 145.029 28.178 145.029C27.584 145.029 27.32 144.435 27.32 143.401C27.32 142.356 27.595 141.784 28.178 141.784ZM30.378 147.295C30.378 148.285 30.95 149.143 31.819 149.143C32.71 149.143 33.26 148.274 33.26 147.273C33.26 146.283 32.688 145.447 31.819 145.447C30.928 145.447 30.378 146.305 30.378 147.295ZM31.819 148.912C31.225 148.912 30.961 148.351 30.961 147.295C30.961 146.239 31.236 145.678 31.819 145.678C32.38 145.678 32.666 146.25 32.666 147.273C32.666 148.307 32.402 148.912 31.819 148.912Z" fill="#999999"/>
<path d="M75.8133 142.542C74.5043 142.542 73.8663 143.257 73.8663 143.862C73.8663 144.192 74.0533 144.401 74.2953 144.401C74.5593 144.401 74.7353 144.247 74.7353 143.895C74.7353 143.818 74.7133 143.675 74.6913 143.598C74.6693 143.532 74.6363 143.455 74.6363 143.367C74.6363 143.037 75.0433 142.828 75.6923 142.828C76.5393 142.828 76.8803 143.213 76.8803 143.961C76.8803 144.929 76.3633 145.479 75.3953 146.04L74.6363 146.469L74.7683 146.711L75.2083 146.458C75.3953 146.348 75.6593 146.26 75.9453 146.26C77.0013 146.26 77.3863 146.678 77.3863 147.624C77.3863 149.109 76.6163 149.868 75.3623 149.868C74.9443 149.868 74.7243 149.802 74.5043 149.604C74.3943 149.505 74.3173 149.373 74.2733 149.186C74.2293 149.054 74.2183 148.878 74.2183 148.757C74.2183 148.438 74.0973 148.24 73.8333 148.24C73.6023 148.24 73.4153 148.405 73.4153 148.746C73.4153 149.362 74.1743 150.154 75.3293 150.154C77.4193 150.154 78.2223 148.812 78.2223 147.657C78.2223 146.799 77.6173 145.798 75.8903 146.04V146.007C76.6823 145.49 77.6613 144.929 77.6613 143.917C77.6613 143.103 77.0233 142.542 75.8133 142.542ZM81.9392 150.154C83.5782 150.154 84.3812 149.142 84.3812 148.075C84.3812 146.942 83.4682 146.436 82.6542 146.106C83.3912 145.776 84.1172 145.193 84.1172 144.225C84.1172 143.037 83.1822 142.542 81.9392 142.542C80.6742 142.542 79.7832 143.29 79.7832 144.456C79.7832 145.435 80.4982 146.018 81.1912 146.337C80.2892 146.689 79.5302 147.36 79.5302 148.339C79.5302 149.538 80.6302 150.154 81.9392 150.154ZM80.5092 144.214C80.5092 143.389 81.0262 142.861 81.9612 142.85C82.8852 142.839 83.4572 143.279 83.4572 144.291C83.4572 145.16 83.0172 145.688 82.3352 145.985C81.1692 145.534 80.5092 145.127 80.5092 144.214ZM81.9172 149.846C80.9382 149.846 80.2012 149.307 80.2012 148.306C80.2012 147.338 80.7512 146.755 81.5212 146.48C82.8962 147.041 83.6552 147.327 83.6552 148.427C83.6552 149.472 82.8742 149.846 81.9172 149.846ZM86.2979 150.154C86.5949 150.154 86.8259 149.912 86.8259 149.604C86.8259 149.296 86.5949 149.054 86.2979 149.054C85.9789 149.054 85.7589 149.296 85.7589 149.604C85.7589 149.912 85.9789 150.154 86.2979 150.154ZM90.8112 146.931C89.9532 146.931 89.2602 146.414 89.2602 144.962C89.2602 143.532 89.8322 142.85 90.7892 142.85C91.7132 142.85 92.3952 143.477 92.3952 144.874C92.3952 146.348 91.5042 146.931 90.8112 146.931ZM88.3582 148.9C88.3582 149.494 88.8312 150.154 90.1072 150.154C91.7572 150.154 93.2642 148.515 93.2642 145.809C93.2642 144.049 92.5492 142.542 90.7782 142.542C89.3152 142.542 88.4572 143.62 88.4572 144.995C88.4572 146.348 89.2272 147.327 90.5692 147.327C91.4602 147.327 92.1092 146.799 92.3732 146.139H92.4392C92.3952 148.515 91.5812 149.835 90.1512 149.835C89.4692 149.835 89.1392 149.637 89.1392 149.428C89.1392 149.329 89.1612 149.274 89.1942 149.153C89.2272 149.032 89.2602 148.955 89.2602 148.801C89.2602 148.471 89.0402 148.339 88.8312 148.339C88.5342 148.339 88.3582 148.57 88.3582 148.9ZM97.1355 150.154C98.7745 150.154 99.5775 149.142 99.5775 148.075C99.5775 146.942 98.6645 146.436 97.8505 146.106C98.5875 145.776 99.3135 145.193 99.3135 144.225C99.3135 143.037 98.3785 142.542 97.1355 142.542C95.8705 142.542 94.9795 143.29 94.9795 144.456C94.9795 145.435 95.6945 146.018 96.3875 146.337C95.4855 146.689 94.7265 147.36 94.7265 148.339C94.7265 149.538 95.8265 150.154 97.1355 150.154ZM95.7055 144.214C95.7055 143.389 96.2225 142.861 97.1575 142.85C98.0815 142.839 98.6535 143.279 98.6535 144.291C98.6535 145.16 98.2135 145.688 97.5315 145.985C96.3655 145.534 95.7055 145.127 95.7055 144.214ZM97.1135 149.846C96.1345 149.846 95.3975 149.307 95.3975 148.306C95.3975 147.338 95.9475 146.755 96.7175 146.48C98.0925 147.041 98.8515 147.327 98.8515 148.427C98.8515 149.472 98.0705 149.846 97.1135 149.846ZM103.777 144.379C103.777 143.389 103.194 142.553 102.325 142.553C101.445 142.553 100.884 143.411 100.884 144.401C100.884 145.402 101.467 146.249 102.325 146.249C103.216 146.249 103.777 145.38 103.777 144.379ZM106.153 142.762L105.889 142.608L102.105 150.033L102.369 150.176L106.153 142.762ZM102.325 142.784C102.897 142.784 103.183 143.345 103.183 144.379C103.183 145.424 102.908 146.029 102.325 146.029C101.731 146.029 101.467 145.435 101.467 144.401C101.467 143.356 101.742 142.784 102.325 142.784ZM104.525 148.295C104.525 149.285 105.097 150.143 105.966 150.143C106.857 150.143 107.407 149.274 107.407 148.273C107.407 147.283 106.835 146.447 105.966 146.447C105.075 146.447 104.525 147.305 104.525 148.295ZM105.966 149.912C105.372 149.912 105.108 149.351 105.108 148.295C105.108 147.239 105.383 146.678 105.966 146.678C106.527 146.678 106.813 147.25 106.813 148.273C106.813 149.307 106.549 149.912 105.966 149.912Z" fill="#999999"/>
<path d="M184.969 131.042C184.969 129.755 184.111 129.326 182.857 128.732C182.01 128.336 181.163 128.017 181.163 126.939C181.163 126.114 181.823 125.751 182.461 125.751C182.978 125.751 183.264 125.883 183.495 126.037C183.88 126.312 184.221 126.917 184.408 127.5H184.628L184.43 125.575H184.21L184.056 125.982H184.001C183.66 125.663 183.22 125.454 182.483 125.454C181.251 125.454 180.481 126.268 180.481 127.247C180.481 128.468 181.394 128.985 182.384 129.447C183.55 129.975 184.287 130.272 184.287 131.438C184.287 132.219 183.77 132.857 182.67 132.857C181.625 132.857 180.866 131.823 180.514 130.602H180.305L180.415 132.912H180.569L180.822 132.45H180.888C181.262 132.813 181.9 133.154 182.681 133.154C183.847 133.154 184.969 132.384 184.969 131.042ZM188.571 128.028C189.121 128.028 189.33 128.171 189.484 128.743C189.583 129.04 189.693 129.249 189.979 129.249C190.21 129.249 190.353 129.117 190.353 128.842C190.353 128.699 190.309 128.501 190.155 128.325C189.902 128.039 189.495 127.753 188.582 127.753C187.295 127.753 186.261 128.908 186.261 130.415C186.261 131.46 186.624 132.153 187.13 132.571C187.493 132.901 187.933 133.099 188.538 133.099C189.528 133.099 190.21 132.483 190.485 131.559L190.221 131.471C190.045 132.01 189.649 132.736 188.582 132.736C188.252 132.736 187.911 132.593 187.691 132.384C187.295 131.988 187.031 131.339 187.031 130.36C187.031 129.359 187.317 128.655 187.735 128.314C187.955 128.138 188.263 128.028 188.571 128.028ZM191.52 130.426C191.52 132.098 192.686 133.099 193.918 133.099C195.15 133.099 196.316 132.087 196.316 130.415C196.316 128.754 195.15 127.753 193.918 127.753C192.675 127.753 191.52 128.754 191.52 130.426ZM192.301 130.426C192.301 129.447 192.543 128.776 192.983 128.38C193.247 128.138 193.599 128.028 193.918 128.028C194.226 128.028 194.578 128.127 194.842 128.38C195.282 128.787 195.524 129.458 195.524 130.426C195.524 131.383 195.271 132.065 194.842 132.472C194.578 132.725 194.237 132.824 193.918 132.824C193.588 132.824 193.247 132.725 192.972 132.461C192.543 132.065 192.301 131.383 192.301 130.426ZM201.809 130.415C201.809 132.054 201.193 132.846 200.258 132.846C199.829 132.846 199.488 132.703 199.246 132.428C198.993 132.164 198.85 131.768 198.85 131.064V129.755C198.85 129.271 199.07 128.809 199.323 128.545C199.598 128.248 199.939 128.061 200.39 128.061C201.16 128.061 201.809 128.633 201.809 130.415ZM198.157 133.891C198.157 134.111 198.168 134.353 198.124 134.529C198.058 134.782 197.937 134.881 197.783 134.958C197.695 135.002 197.552 135.024 197.431 135.035V135.233H199.609V135.035C199.455 135.024 199.312 135.002 199.213 134.958C199.059 134.892 198.938 134.749 198.894 134.529C198.861 134.353 198.85 134.111 198.85 133.891V132.571H198.916C199.279 132.956 199.785 133.11 200.247 133.11C201.424 133.11 202.579 132.252 202.579 130.437C202.579 128.468 201.545 127.753 200.478 127.753C199.763 127.753 199.235 128.138 198.872 128.765H198.817L198.828 127.962C198.828 127.907 198.795 127.885 198.751 127.885H197.387V128.083C197.574 128.105 197.772 128.16 197.926 128.27C198.025 128.347 198.091 128.446 198.124 128.578C198.157 128.71 198.157 129.018 198.157 129.194V133.891ZM205.338 128.347C205.591 128.138 205.888 128.039 206.196 128.039C206.57 128.039 206.823 128.138 207.032 128.314C207.263 128.512 207.384 128.787 207.384 129.282C207.384 129.766 207.285 129.865 206.944 129.865H204.7C204.799 129.117 205.052 128.589 205.338 128.347ZM208.198 131.504L207.956 131.416C207.725 132.12 207.285 132.714 206.339 132.714C205.888 132.714 205.503 132.571 205.217 132.274C204.843 131.867 204.667 131.13 204.667 130.459C204.667 130.349 204.667 130.25 204.678 130.151H208.132C208.154 130.008 208.165 129.777 208.165 129.59C208.165 128.798 207.604 127.753 206.185 127.753C204.92 127.753 203.875 128.919 203.875 130.437C203.875 131.218 204.095 131.933 204.612 132.461C205.008 132.879 205.536 133.099 206.196 133.099C207.164 133.099 207.89 132.516 208.198 131.504ZM214.337 125.542C213.028 125.542 212.39 126.257 212.39 126.862C212.39 127.192 212.577 127.401 212.819 127.401C213.083 127.401 213.259 127.247 213.259 126.895C213.259 126.818 213.237 126.675 213.215 126.598C213.193 126.532 213.16 126.455 213.16 126.367C213.16 126.037 213.567 125.828 214.216 125.828C215.063 125.828 215.404 126.213 215.404 126.961C215.404 127.929 214.887 128.479 213.919 129.04L213.16 129.469L213.292 129.711L213.732 129.458C213.919 129.348 214.183 129.26 214.469 129.26C215.525 129.26 215.91 129.678 215.91 130.624C215.91 132.109 215.14 132.868 213.886 132.868C213.468 132.868 213.248 132.802 213.028 132.604C212.918 132.505 212.841 132.373 212.797 132.186C212.753 132.054 212.742 131.878 212.742 131.757C212.742 131.438 212.621 131.24 212.357 131.24C212.126 131.24 211.939 131.405 211.939 131.746C211.939 132.362 212.698 133.154 213.853 133.154C215.943 133.154 216.746 131.812 216.746 130.657C216.746 129.799 216.141 128.798 214.414 129.04V129.007C215.206 128.49 216.185 127.929 216.185 126.917C216.185 126.103 215.547 125.542 214.337 125.542Z" fill="black"/>
<path d="M190.01 143.774C190.01 143.18 189.581 142.542 188.261 142.542C186.699 142.542 185.06 144.291 185.06 146.931C185.06 148.658 185.83 150.154 187.535 150.154C188.899 150.154 189.878 149.142 189.878 147.69C189.878 146.359 189.097 145.369 187.766 145.369C186.886 145.369 186.237 145.853 185.951 146.557H185.885C185.951 144.357 186.897 142.85 188.272 142.85C188.877 142.85 189.24 143.048 189.24 143.268C189.24 143.334 189.229 143.4 189.185 143.543C189.141 143.675 189.13 143.73 189.13 143.884C189.13 144.203 189.35 144.335 189.57 144.335C189.834 144.335 190.01 144.137 190.01 143.774ZM187.502 145.732C188.404 145.732 189.086 146.238 189.086 147.789C189.086 149.197 188.492 149.846 187.513 149.846C186.578 149.846 185.907 149.208 185.907 147.734C185.907 146.425 186.688 145.732 187.502 145.732ZM193.662 150V149.791C193.475 149.769 193.288 149.725 193.178 149.659C193.035 149.571 192.991 149.516 192.936 149.34C192.892 149.197 192.881 148.922 192.881 148.636V143.719C192.881 143.422 192.903 142.85 192.903 142.685C192.903 142.619 192.881 142.597 192.826 142.597C192.716 142.597 192.529 142.641 192.32 142.685C191.968 142.74 191.583 142.795 191.286 142.806V143.015C191.462 143.048 191.759 143.092 191.891 143.158C192.001 143.213 192.067 143.268 192.1 143.477C192.133 143.664 192.144 143.939 192.144 144.115V148.636C192.144 148.922 192.122 149.186 192.078 149.34C192.023 149.527 191.935 149.593 191.814 149.67C191.726 149.725 191.528 149.758 191.352 149.791V150H193.662ZM195.777 150.154C196.074 150.154 196.305 149.912 196.305 149.604C196.305 149.296 196.074 149.054 195.777 149.054C195.458 149.054 195.238 149.296 195.238 149.604C195.238 149.912 195.458 150.154 195.777 150.154ZM197.635 146.315C197.635 148.361 198.68 150.154 200.429 150.154C202.2 150.154 203.223 148.328 203.223 146.315C203.223 144.236 202.178 142.542 200.429 142.542C198.68 142.542 197.635 144.291 197.635 146.315ZM202.409 146.315C202.409 148.713 201.606 149.846 200.429 149.846C199.252 149.846 198.46 148.691 198.46 146.315C198.46 143.917 199.241 142.85 200.429 142.85C201.628 142.85 202.409 143.917 202.409 146.315ZM206.724 142.839C207.67 142.839 208.242 143.268 208.242 144.544C208.242 146.678 206.383 148.24 205.283 149.186C205.206 149.241 204.656 149.67 204.392 149.901L204.436 150H208.924L209.364 148.218H209.111C209.023 148.438 208.836 148.768 208.671 148.988C208.506 149.208 208.33 149.307 207.791 149.307H205.591V149.263C205.69 149.142 206.13 148.746 206.361 148.537C206.999 147.954 209.067 146.403 209.067 144.588C209.067 143.29 208.209 142.542 206.856 142.542C205.459 142.542 204.722 143.389 204.722 144.104C204.722 144.456 204.931 144.643 205.173 144.643C205.492 144.643 205.657 144.456 205.657 144.126C205.657 144.005 205.613 143.763 205.624 143.642C205.646 143.444 205.69 143.301 205.888 143.136C206.053 142.993 206.328 142.839 206.724 142.839ZM213.385 144.379C213.385 143.389 212.802 142.553 211.933 142.553C211.053 142.553 210.492 143.411 210.492 144.401C210.492 145.402 211.075 146.249 211.933 146.249C212.824 146.249 213.385 145.38 213.385 144.379ZM215.761 142.762L215.497 142.608L211.713 150.033L211.977 150.176L215.761 142.762ZM211.933 142.784C212.505 142.784 212.791 143.345 212.791 144.379C212.791 145.424 212.516 146.029 211.933 146.029C211.339 146.029 211.075 145.435 211.075 144.401C211.075 143.356 211.35 142.784 211.933 142.784ZM214.133 148.295C214.133 149.285 214.705 150.143 215.574 150.143C216.465 150.143 217.015 149.274 217.015 148.273C217.015 147.283 216.443 146.447 215.574 146.447C214.683 146.447 214.133 147.305 214.133 148.295ZM215.574 149.912C214.98 149.912 214.716 149.351 214.716 148.295C214.716 147.239 214.991 146.678 215.574 146.678C216.135 146.678 216.421 147.25 216.421 148.273C216.421 149.307 216.157 149.912 215.574 149.912Z" fill="#999999"/>
</g>
<defs>
<clipPath id="clip0">
<rect width="276" height="275" fill="white"/>
</clipPath>
</defs>
</svg>
