<svg width="552" height="552" viewBox="0 0 552 552" fill="none" xmlns="http://www.w3.org/2000/svg">
<rect width="552" height="552" fill="white"/>
<circle cx="55.1771" cy="271.885" r="54.1771" stroke="black" stroke-dasharray="4 4"/>
<path d="M38.8258 266.736C38.8258 264.864 37.5778 264.24 35.7538 263.376C34.5218 262.8 33.2898 262.336 33.2898 260.768C33.2898 259.568 34.2498 259.04 35.1778 259.04C35.9298 259.04 36.3458 259.232 36.6818 259.456C37.2418 259.856 37.7378 260.736 38.0098 261.584H38.3298L38.0418 258.784H37.7218L37.4978 259.376H37.4178C36.9218 258.912 36.2818 258.608 35.2098 258.608C33.4178 258.608 32.2978 259.792 32.2978 261.216C32.2978 262.992 33.6258 263.744 35.0658 264.416C36.7618 265.184 37.8338 265.616 37.8338 267.312C37.8338 268.448 37.0818 269.376 35.4818 269.376C33.9618 269.376 32.8578 267.872 32.3458 266.096H32.0418L32.2018 269.456H32.4258L32.7938 268.784H32.8898C33.4338 269.312 34.3618 269.808 35.4978 269.808C37.1938 269.808 38.8258 268.688 38.8258 266.736ZM43.4502 262.352C44.2502 262.352 44.5542 262.56 44.7782 263.392C44.9222 263.824 45.0822 264.128 45.4982 264.128C45.8342 264.128 46.0422 263.936 46.0422 263.536C46.0422 263.328 45.9782 263.04 45.7542 262.784C45.3862 262.368 44.7942 261.952 43.4662 261.952C41.5942 261.952 40.0902 263.632 40.0902 265.824C40.0902 267.344 40.6182 268.352 41.3542 268.96C41.8822 269.44 42.5222 269.728 43.4022 269.728C44.8422 269.728 45.8342 268.832 46.2342 267.488L45.8502 267.36C45.5942 268.144 45.0182 269.2 43.4662 269.2C42.9862 269.2 42.4902 268.992 42.1702 268.688C41.5942 268.112 41.2102 267.168 41.2102 265.744C41.2102 264.288 41.6262 263.264 42.2342 262.768C42.5542 262.512 43.0022 262.352 43.4502 262.352ZM47.1244 265.84C47.1244 268.272 48.8204 269.728 50.6124 269.728C52.4044 269.728 54.1004 268.256 54.1004 265.824C54.1004 263.408 52.4044 261.952 50.6124 261.952C48.8044 261.952 47.1244 263.408 47.1244 265.84ZM48.2604 265.84C48.2604 264.416 48.6124 263.44 49.2524 262.864C49.6364 262.512 50.1484 262.352 50.6124 262.352C51.0604 262.352 51.5724 262.496 51.9564 262.864C52.5964 263.456 52.9484 264.432 52.9484 265.84C52.9484 267.232 52.5804 268.224 51.9564 268.816C51.5724 269.184 51.0764 269.328 50.6124 269.328C50.1324 269.328 49.6364 269.184 49.2364 268.8C48.6124 268.224 48.2604 267.232 48.2604 265.84ZM61.4749 265.824C61.4749 268.208 60.5789 269.36 59.2189 269.36C58.5949 269.36 58.0989 269.152 57.7469 268.752C57.3789 268.368 57.1709 267.792 57.1709 266.768V264.864C57.1709 264.16 57.4909 263.488 57.8589 263.104C58.2589 262.672 58.7549 262.4 59.4109 262.4C60.5309 262.4 61.4749 263.232 61.4749 265.824ZM56.1629 270.88C56.1629 271.2 56.1789 271.552 56.1149 271.808C56.0189 272.176 55.8429 272.32 55.6189 272.432C55.4909 272.496 55.2829 272.528 55.1069 272.544V272.832H58.2749V272.544C58.0509 272.528 57.8429 272.496 57.6989 272.432C57.4749 272.336 57.2989 272.128 57.2349 271.808C57.1869 271.552 57.1709 271.2 57.1709 270.88V268.96H57.2669C57.7949 269.52 58.5309 269.744 59.2029 269.744C60.9149 269.744 62.5949 268.496 62.5949 265.856C62.5949 262.992 61.0909 261.952 59.5389 261.952C58.4989 261.952 57.7309 262.512 57.2029 263.424H57.1229L57.1389 262.256C57.1389 262.176 57.0909 262.144 57.0269 262.144H55.0429V262.432C55.3149 262.464 55.6029 262.544 55.8269 262.704C55.9709 262.816 56.0669 262.96 56.1149 263.152C56.1629 263.344 56.1629 263.792 56.1629 264.048V270.88ZM65.992 262.816C66.36 262.512 66.792 262.368 67.24 262.368C67.784 262.368 68.152 262.512 68.456 262.768C68.792 263.056 68.968 263.456 68.968 264.176C68.968 264.88 68.824 265.024 68.328 265.024H65.064C65.208 263.936 65.576 263.168 65.992 262.816ZM70.152 267.408L69.8 267.28C69.464 268.304 68.824 269.168 67.448 269.168C66.792 269.168 66.232 268.96 65.816 268.528C65.272 267.936 65.016 266.864 65.016 265.888C65.016 265.728 65.016 265.584 65.032 265.44H70.056C70.088 265.232 70.104 264.896 70.104 264.624C70.104 263.472 69.288 261.952 67.224 261.952C65.384 261.952 63.864 263.648 63.864 265.856C63.864 266.992 64.184 268.032 64.936 268.8C65.512 269.408 66.28 269.728 67.24 269.728C68.648 269.728 69.704 268.88 70.152 267.408ZM78.2193 269.584V269.28C77.9473 269.248 77.6753 269.184 77.5153 269.088C77.3073 268.96 77.2433 268.88 77.1633 268.624C77.0993 268.416 77.0833 268.016 77.0833 267.6V260.448C77.0833 260.016 77.1153 259.184 77.1153 258.944C77.1153 258.848 77.0833 258.816 77.0033 258.816C76.8433 258.816 76.5713 258.88 76.2673 258.944C75.7553 259.024 75.1953 259.104 74.7633 259.12V259.424C75.0193 259.472 75.4513 259.536 75.6433 259.632C75.8033 259.712 75.8993 259.792 75.9473 260.096C75.9953 260.368 76.0113 260.768 76.0113 261.024V267.6C76.0113 268.016 75.9793 268.4 75.9153 268.624C75.8353 268.896 75.7073 268.992 75.5313 269.104C75.4033 269.184 75.1153 269.232 74.8593 269.28V269.584H78.2193Z" fill="black"/>
<circle cx="129.242" cy="267.77" r="128.242" stroke="black"/>
<path d="M166.965 267.122C166.965 265.25 165.717 264.626 163.893 263.762C162.661 263.186 161.429 262.722 161.429 261.154C161.429 259.954 162.389 259.426 163.317 259.426C164.069 259.426 164.485 259.618 164.821 259.842C165.381 260.242 165.877 261.122 166.149 261.97H166.469L166.181 259.17H165.861L165.637 259.762H165.557C165.061 259.298 164.421 258.994 163.349 258.994C161.557 258.994 160.437 260.178 160.437 261.602C160.437 263.378 161.765 264.13 163.205 264.802C164.901 265.57 165.973 266.002 165.973 267.698C165.973 268.834 165.221 269.762 163.621 269.762C162.101 269.762 160.997 268.258 160.485 266.482H160.181L160.341 269.842H160.565L160.933 269.17H161.029C161.573 269.698 162.501 270.194 163.637 270.194C165.333 270.194 166.965 269.074 166.965 267.122ZM171.589 262.738C172.389 262.738 172.693 262.946 172.917 263.778C173.061 264.21 173.221 264.514 173.637 264.514C173.973 264.514 174.181 264.322 174.181 263.922C174.181 263.714 174.117 263.426 173.893 263.17C173.525 262.754 172.933 262.338 171.605 262.338C169.733 262.338 168.229 264.018 168.229 266.21C168.229 267.73 168.757 268.738 169.493 269.346C170.021 269.826 170.661 270.114 171.541 270.114C172.981 270.114 173.973 269.218 174.373 267.874L173.989 267.746C173.733 268.53 173.157 269.586 171.605 269.586C171.125 269.586 170.629 269.378 170.309 269.074C169.733 268.498 169.349 267.554 169.349 266.13C169.349 264.674 169.765 263.65 170.373 263.154C170.693 262.898 171.141 262.738 171.589 262.738ZM175.263 266.226C175.263 268.658 176.959 270.114 178.751 270.114C180.543 270.114 182.239 268.642 182.239 266.21C182.239 263.794 180.543 262.338 178.751 262.338C176.943 262.338 175.263 263.794 175.263 266.226ZM176.399 266.226C176.399 264.802 176.751 263.826 177.391 263.25C177.775 262.898 178.287 262.738 178.751 262.738C179.199 262.738 179.711 262.882 180.095 263.25C180.735 263.842 181.087 264.818 181.087 266.226C181.087 267.618 180.719 268.61 180.095 269.202C179.711 269.57 179.215 269.714 178.751 269.714C178.271 269.714 177.775 269.57 177.375 269.186C176.751 268.61 176.399 267.618 176.399 266.226ZM189.614 266.21C189.614 268.594 188.718 269.746 187.358 269.746C186.734 269.746 186.238 269.538 185.886 269.138C185.518 268.754 185.31 268.178 185.31 267.154V265.25C185.31 264.546 185.63 263.874 185.998 263.49C186.398 263.058 186.894 262.786 187.55 262.786C188.67 262.786 189.614 263.618 189.614 266.21ZM184.302 271.266C184.302 271.586 184.318 271.938 184.254 272.194C184.158 272.562 183.982 272.706 183.758 272.818C183.63 272.882 183.422 272.914 183.246 272.93V273.218H186.414V272.93C186.19 272.914 185.982 272.882 185.838 272.818C185.614 272.722 185.438 272.514 185.374 272.194C185.326 271.938 185.31 271.586 185.31 271.266V269.346H185.406C185.934 269.906 186.67 270.13 187.342 270.13C189.054 270.13 190.734 268.882 190.734 266.242C190.734 263.378 189.23 262.338 187.678 262.338C186.638 262.338 185.87 262.898 185.342 263.81H185.262L185.278 262.642C185.278 262.562 185.23 262.53 185.166 262.53H183.182V262.818C183.454 262.85 183.742 262.93 183.966 263.09C184.11 263.202 184.206 263.346 184.254 263.538C184.302 263.73 184.302 264.178 184.302 264.434V271.266ZM194.131 263.202C194.499 262.898 194.931 262.754 195.379 262.754C195.923 262.754 196.291 262.898 196.595 263.154C196.931 263.442 197.107 263.842 197.107 264.562C197.107 265.266 196.963 265.41 196.467 265.41H193.203C193.347 264.322 193.715 263.554 194.131 263.202ZM198.291 267.794L197.939 267.666C197.603 268.69 196.963 269.554 195.587 269.554C194.931 269.554 194.371 269.346 193.955 268.914C193.411 268.322 193.155 267.25 193.155 266.274C193.155 266.114 193.155 265.97 193.171 265.826H198.195C198.227 265.618 198.243 265.282 198.243 265.01C198.243 263.858 197.427 262.338 195.363 262.338C193.523 262.338 192.003 264.034 192.003 266.242C192.003 267.378 192.323 268.418 193.075 269.186C193.651 269.794 194.419 270.114 195.379 270.114C196.787 270.114 197.843 269.266 198.291 267.794ZM205.91 259.554C207.286 259.554 208.118 260.178 208.118 262.034C208.118 265.138 205.414 267.41 203.814 268.786C203.702 268.866 202.902 269.49 202.518 269.826L202.582 269.97H209.11L209.75 267.378H209.382C209.254 267.698 208.982 268.178 208.742 268.498C208.502 268.818 208.246 268.962 207.462 268.962H204.262V268.898C204.406 268.722 205.046 268.146 205.382 267.842C206.31 266.994 209.318 264.738 209.318 262.098C209.318 260.21 208.07 259.122 206.102 259.122C204.07 259.122 202.998 260.354 202.998 261.394C202.998 261.906 203.302 262.178 203.654 262.178C204.118 262.178 204.358 261.906 204.358 261.426C204.358 261.25 204.294 260.898 204.31 260.722C204.342 260.434 204.406 260.226 204.694 259.986C204.934 259.778 205.334 259.554 205.91 259.554Z" fill="black"/>
<circle cx="276" cy="276" r="275" stroke="black"/>
<path d="M46.7522 283.923C46.7522 286.527 48.0822 288.809 50.3082 288.809C52.5622 288.809 53.8642 286.485 53.8642 283.923C53.8642 281.277 52.5342 279.121 50.3082 279.121C48.0822 279.121 46.7522 281.347 46.7522 283.923ZM52.8282 283.923C52.8282 286.975 51.8062 288.417 50.3082 288.417C48.8102 288.417 47.8022 286.947 47.8022 283.923C47.8022 280.871 48.7962 279.513 50.3082 279.513C51.8342 279.513 52.8282 280.871 52.8282 283.923ZM58.6914 281.459C58.6914 280.199 57.9494 279.135 56.8434 279.135C55.7234 279.135 55.0094 280.227 55.0094 281.487C55.0094 282.761 55.7514 283.839 56.8434 283.839C57.9774 283.839 58.6914 282.733 58.6914 281.459ZM61.7154 279.401L61.3794 279.205L56.5634 288.655L56.8994 288.837L61.7154 279.401ZM56.8434 279.429C57.5714 279.429 57.9354 280.143 57.9354 281.459C57.9354 282.789 57.5854 283.559 56.8434 283.559C56.0874 283.559 55.7514 282.803 55.7514 281.487C55.7514 280.157 56.1014 279.429 56.8434 279.429ZM59.6434 286.443C59.6434 287.703 60.3714 288.795 61.4774 288.795C62.6114 288.795 63.3114 287.689 63.3114 286.415C63.3114 285.155 62.5834 284.091 61.4774 284.091C60.3434 284.091 59.6434 285.183 59.6434 286.443ZM61.4774 288.501C60.7214 288.501 60.3854 287.787 60.3854 286.443C60.3854 285.099 60.7354 284.385 61.4774 284.385C62.1914 284.385 62.5554 285.113 62.5554 286.415C62.5554 287.731 62.2194 288.501 61.4774 288.501Z" fill="#525252"/>
<path d="M167.714 279.121C166.048 279.121 165.236 280.031 165.236 280.801C165.236 281.221 165.474 281.487 165.782 281.487C166.118 281.487 166.342 281.291 166.342 280.843C166.342 280.745 166.314 280.563 166.286 280.465C166.258 280.381 166.216 280.283 166.216 280.171C166.216 279.751 166.734 279.485 167.56 279.485C168.638 279.485 169.072 279.975 169.072 280.927C169.072 282.159 168.414 282.859 167.182 283.573L166.216 284.119L166.384 284.427L166.944 284.105C167.182 283.965 167.518 283.853 167.882 283.853C169.226 283.853 169.716 284.385 169.716 285.589C169.716 287.479 168.736 288.445 167.14 288.445C166.608 288.445 166.328 288.361 166.048 288.109C165.908 287.983 165.81 287.815 165.754 287.577C165.698 287.409 165.684 287.185 165.684 287.031C165.684 286.625 165.53 286.373 165.194 286.373C164.9 286.373 164.662 286.583 164.662 287.017C164.662 287.801 165.628 288.809 167.098 288.809C169.758 288.809 170.78 287.101 170.78 285.631C170.78 284.539 170.01 283.265 167.812 283.573V283.531C168.82 282.873 170.066 282.159 170.066 280.871C170.066 279.835 169.254 279.121 167.714 279.121ZM174.972 288.809C177.058 288.809 178.08 287.521 178.08 286.163C178.08 284.721 176.918 284.077 175.882 283.657C176.82 283.237 177.744 282.495 177.744 281.263C177.744 279.751 176.554 279.121 174.972 279.121C173.362 279.121 172.228 280.073 172.228 281.557C172.228 282.803 173.138 283.545 174.02 283.951C172.872 284.399 171.906 285.253 171.906 286.499C171.906 288.025 173.306 288.809 174.972 288.809ZM173.152 281.249C173.152 280.199 173.81 279.527 175 279.513C176.176 279.499 176.904 280.059 176.904 281.347C176.904 282.453 176.344 283.125 175.476 283.503C173.992 282.929 173.152 282.411 173.152 281.249ZM174.944 288.417C173.698 288.417 172.76 287.731 172.76 286.457C172.76 285.225 173.46 284.483 174.44 284.133C176.19 284.847 177.156 285.211 177.156 286.611C177.156 287.941 176.162 288.417 174.944 288.417ZM179.981 288.809C180.359 288.809 180.653 288.501 180.653 288.109C180.653 287.717 180.359 287.409 179.981 287.409C179.575 287.409 179.295 287.717 179.295 288.109C179.295 288.501 179.575 288.809 179.981 288.809ZM185.187 284.707C184.095 284.707 183.213 284.049 183.213 282.201C183.213 280.381 183.941 279.513 185.159 279.513C186.335 279.513 187.203 280.311 187.203 282.089C187.203 283.965 186.069 284.707 185.187 284.707ZM182.065 287.213C182.065 287.969 182.667 288.809 184.291 288.809C186.391 288.809 188.309 286.723 188.309 283.279C188.309 281.039 187.399 279.121 185.145 279.121C183.283 279.121 182.191 280.493 182.191 282.243C182.191 283.965 183.171 285.211 184.879 285.211C186.013 285.211 186.839 284.539 187.175 283.699H187.259C187.203 286.723 186.167 288.403 184.347 288.403C183.479 288.403 183.059 288.151 183.059 287.885C183.059 287.759 183.087 287.689 183.129 287.535C183.171 287.381 183.213 287.283 183.213 287.087C183.213 286.667 182.933 286.499 182.667 286.499C182.289 286.499 182.065 286.793 182.065 287.213ZM192.698 288.809C194.784 288.809 195.806 287.521 195.806 286.163C195.806 284.721 194.644 284.077 193.608 283.657C194.546 283.237 195.47 282.495 195.47 281.263C195.47 279.751 194.28 279.121 192.698 279.121C191.088 279.121 189.954 280.073 189.954 281.557C189.954 282.803 190.864 283.545 191.746 283.951C190.598 284.399 189.632 285.253 189.632 286.499C189.632 288.025 191.032 288.809 192.698 288.809ZM190.878 281.249C190.878 280.199 191.536 279.527 192.726 279.513C193.902 279.499 194.63 280.059 194.63 281.347C194.63 282.453 194.07 283.125 193.202 283.503C191.718 282.929 190.878 282.411 190.878 281.249ZM192.67 288.417C191.424 288.417 190.486 287.731 190.486 286.457C190.486 285.225 191.186 284.483 192.166 284.133C193.916 284.847 194.882 285.211 194.882 286.611C194.882 287.941 193.888 288.417 192.67 288.417ZM200.612 281.459C200.612 280.199 199.87 279.135 198.764 279.135C197.644 279.135 196.93 280.227 196.93 281.487C196.93 282.761 197.672 283.839 198.764 283.839C199.898 283.839 200.612 282.733 200.612 281.459ZM203.636 279.401L203.3 279.205L198.484 288.655L198.82 288.837L203.636 279.401ZM198.764 279.429C199.492 279.429 199.856 280.143 199.856 281.459C199.856 282.789 199.506 283.559 198.764 283.559C198.008 283.559 197.672 282.803 197.672 281.487C197.672 280.157 198.022 279.429 198.764 279.429ZM201.564 286.443C201.564 287.703 202.292 288.795 203.398 288.795C204.532 288.795 205.232 287.689 205.232 286.415C205.232 285.155 204.504 284.091 203.398 284.091C202.264 284.091 201.564 285.183 201.564 286.443ZM203.398 288.501C202.642 288.501 202.306 287.787 202.306 286.443C202.306 285.099 202.656 284.385 203.398 284.385C204.112 284.385 204.476 285.113 204.476 286.415C204.476 287.731 204.14 288.501 203.398 288.501Z" fill="#525252"/>
<path d="M382.36 267.123C382.36 265.251 381.112 264.627 379.288 263.763C378.056 263.187 376.824 262.723 376.824 261.155C376.824 259.955 377.784 259.427 378.712 259.427C379.464 259.427 379.88 259.619 380.216 259.843C380.776 260.243 381.272 261.123 381.544 261.971H381.864L381.576 259.171H381.256L381.032 259.763H380.952C380.456 259.299 379.816 258.995 378.744 258.995C376.952 258.995 375.832 260.179 375.832 261.603C375.832 263.379 377.16 264.131 378.6 264.803C380.296 265.571 381.368 266.003 381.368 267.699C381.368 268.835 380.616 269.763 379.016 269.763C377.496 269.763 376.392 268.259 375.88 266.483H375.576L375.736 269.843H375.96L376.328 269.171H376.424C376.968 269.699 377.896 270.195 379.032 270.195C380.728 270.195 382.36 269.075 382.36 267.123ZM386.984 262.739C387.784 262.739 388.088 262.947 388.312 263.779C388.456 264.211 388.616 264.515 389.032 264.515C389.368 264.515 389.576 264.323 389.576 263.923C389.576 263.715 389.512 263.427 389.288 263.171C388.92 262.755 388.328 262.339 387 262.339C385.128 262.339 383.624 264.019 383.624 266.211C383.624 267.731 384.152 268.739 384.888 269.347C385.416 269.827 386.056 270.115 386.936 270.115C388.376 270.115 389.368 269.219 389.768 267.875L389.384 267.747C389.128 268.531 388.552 269.587 387 269.587C386.52 269.587 386.024 269.379 385.704 269.075C385.128 268.499 384.744 267.555 384.744 266.131C384.744 264.675 385.16 263.651 385.768 263.155C386.088 262.899 386.536 262.739 386.984 262.739ZM390.659 266.227C390.659 268.659 392.355 270.115 394.147 270.115C395.939 270.115 397.635 268.643 397.635 266.211C397.635 263.795 395.939 262.339 394.147 262.339C392.339 262.339 390.659 263.795 390.659 266.227ZM391.795 266.227C391.795 264.803 392.147 263.827 392.787 263.251C393.171 262.899 393.683 262.739 394.147 262.739C394.595 262.739 395.107 262.883 395.491 263.251C396.131 263.843 396.483 264.819 396.483 266.227C396.483 267.619 396.115 268.611 395.491 269.203C395.107 269.571 394.611 269.715 394.147 269.715C393.667 269.715 393.171 269.571 392.771 269.187C392.147 268.611 391.795 267.619 391.795 266.227ZM405.009 266.211C405.009 268.595 404.113 269.747 402.753 269.747C402.129 269.747 401.633 269.539 401.281 269.139C400.913 268.755 400.705 268.179 400.705 267.155V265.251C400.705 264.547 401.025 263.875 401.393 263.491C401.793 263.059 402.289 262.787 402.945 262.787C404.065 262.787 405.009 263.619 405.009 266.211ZM399.697 271.267C399.697 271.587 399.713 271.939 399.649 272.195C399.553 272.563 399.377 272.707 399.153 272.819C399.025 272.883 398.817 272.915 398.641 272.931V273.219H401.809V272.931C401.585 272.915 401.377 272.883 401.233 272.819C401.009 272.723 400.833 272.515 400.769 272.195C400.721 271.939 400.705 271.587 400.705 271.267V269.347H400.801C401.329 269.907 402.065 270.131 402.737 270.131C404.449 270.131 406.129 268.883 406.129 266.243C406.129 263.379 404.625 262.339 403.073 262.339C402.033 262.339 401.265 262.899 400.737 263.811H400.657L400.673 262.643C400.673 262.563 400.625 262.531 400.561 262.531H398.577V262.819C398.849 262.851 399.137 262.931 399.361 263.091C399.505 263.203 399.601 263.347 399.649 263.539C399.697 263.731 399.697 264.179 399.697 264.435V271.267ZM409.526 263.203C409.894 262.899 410.326 262.755 410.774 262.755C411.318 262.755 411.686 262.899 411.99 263.155C412.326 263.443 412.502 263.843 412.502 264.563C412.502 265.267 412.358 265.411 411.862 265.411H408.598C408.742 264.323 409.11 263.555 409.526 263.203ZM413.686 267.795L413.334 267.667C412.998 268.691 412.358 269.555 410.982 269.555C410.326 269.555 409.766 269.347 409.35 268.915C408.806 268.323 408.55 267.251 408.55 266.275C408.55 266.115 408.55 265.971 408.566 265.827H413.59C413.622 265.619 413.638 265.283 413.638 265.011C413.638 263.859 412.822 262.339 410.758 262.339C408.918 262.339 407.398 264.035 407.398 266.243C407.398 267.379 407.718 268.419 408.47 269.187C409.046 269.795 409.814 270.115 410.774 270.115C412.182 270.115 413.238 269.267 413.686 267.795ZM421.386 259.123C419.482 259.123 418.554 260.163 418.554 261.043C418.554 261.523 418.826 261.827 419.178 261.827C419.562 261.827 419.818 261.603 419.818 261.091C419.818 260.979 419.786 260.771 419.754 260.659C419.722 260.563 419.674 260.451 419.674 260.323C419.674 259.843 420.266 259.539 421.21 259.539C422.442 259.539 422.938 260.099 422.938 261.187C422.938 262.595 422.186 263.395 420.778 264.211L419.674 264.835L419.866 265.187L420.506 264.819C420.778 264.659 421.162 264.531 421.578 264.531C423.114 264.531 423.674 265.139 423.674 266.515C423.674 268.675 422.554 269.779 420.73 269.779C420.122 269.779 419.802 269.683 419.482 269.395C419.322 269.251 419.21 269.059 419.146 268.787C419.082 268.595 419.066 268.339 419.066 268.163C419.066 267.699 418.89 267.411 418.506 267.411C418.17 267.411 417.898 267.651 417.898 268.147C417.898 269.043 419.002 270.195 420.682 270.195C423.722 270.195 424.89 268.243 424.89 266.563C424.89 265.315 424.01 263.859 421.498 264.211V264.163C422.65 263.411 424.074 262.595 424.074 261.123C424.074 259.939 423.146 259.123 421.386 259.123Z" fill="black"/>
<path d="M390.858 281.076C390.858 280.32 390.312 279.508 388.632 279.508C386.644 279.508 384.558 281.734 384.558 285.094C384.558 287.292 385.538 289.196 387.708 289.196C389.444 289.196 390.69 287.908 390.69 286.06C390.69 284.366 389.696 283.106 388.002 283.106C386.882 283.106 386.056 283.722 385.692 284.618H385.608C385.692 281.818 386.896 279.9 388.646 279.9C389.416 279.9 389.878 280.152 389.878 280.432C389.878 280.516 389.864 280.6 389.808 280.782C389.752 280.95 389.738 281.02 389.738 281.216C389.738 281.622 390.018 281.79 390.298 281.79C390.634 281.79 390.858 281.538 390.858 281.076ZM387.666 283.568C388.814 283.568 389.682 284.212 389.682 286.186C389.682 287.978 388.926 288.804 387.68 288.804C386.49 288.804 385.636 287.992 385.636 286.116C385.636 284.45 386.63 283.568 387.666 283.568ZM394.968 289V288.734C394.73 288.706 394.492 288.65 394.352 288.566C394.17 288.454 394.114 288.384 394.044 288.16C393.988 287.978 393.974 287.628 393.974 287.264V281.006C393.974 280.628 394.002 279.9 394.002 279.69C394.002 279.606 393.974 279.578 393.904 279.578C393.764 279.578 393.526 279.634 393.26 279.69C392.812 279.76 392.322 279.83 391.944 279.844V280.11C392.168 280.152 392.546 280.208 392.714 280.292C392.854 280.362 392.938 280.432 392.98 280.698C393.022 280.936 393.036 281.286 393.036 281.51V287.264C393.036 287.628 393.008 287.964 392.952 288.16C392.882 288.398 392.77 288.482 392.616 288.58C392.504 288.65 392.252 288.692 392.028 288.734V289H394.968ZM397.122 289.196C397.5 289.196 397.794 288.888 397.794 288.496C397.794 288.104 397.5 287.796 397.122 287.796C396.716 287.796 396.436 288.104 396.436 288.496C396.436 288.888 396.716 289.196 397.122 289.196ZM398.949 284.31C398.949 286.914 400.279 289.196 402.505 289.196C404.759 289.196 406.061 286.872 406.061 284.31C406.061 281.664 404.731 279.508 402.505 279.508C400.279 279.508 398.949 281.734 398.949 284.31ZM405.025 284.31C405.025 287.362 404.003 288.804 402.505 288.804C401.007 288.804 399.999 287.334 399.999 284.31C399.999 281.258 400.993 279.9 402.505 279.9C404.031 279.9 405.025 281.258 405.025 284.31ZM409.978 279.886C411.182 279.886 411.91 280.432 411.91 282.056C411.91 284.772 409.544 286.76 408.144 287.964C408.046 288.034 407.346 288.58 407.01 288.874L407.066 289H412.778L413.338 286.732H413.016C412.904 287.012 412.666 287.432 412.456 287.712C412.246 287.992 412.022 288.118 411.336 288.118H408.536V288.062C408.662 287.908 409.222 287.404 409.516 287.138C410.328 286.396 412.96 284.422 412.96 282.112C412.96 280.46 411.868 279.508 410.146 279.508C408.368 279.508 407.43 280.586 407.43 281.496C407.43 281.944 407.696 282.182 408.004 282.182C408.41 282.182 408.62 281.944 408.62 281.524C408.62 281.37 408.564 281.062 408.578 280.908C408.606 280.656 408.662 280.474 408.914 280.264C409.124 280.082 409.474 279.886 409.978 279.886ZM417.917 281.846C417.917 280.586 417.175 279.522 416.069 279.522C414.949 279.522 414.235 280.614 414.235 281.874C414.235 283.148 414.977 284.226 416.069 284.226C417.203 284.226 417.917 283.12 417.917 281.846ZM420.941 279.788L420.605 279.592L415.789 289.042L416.125 289.224L420.941 279.788ZM416.069 279.816C416.797 279.816 417.161 280.53 417.161 281.846C417.161 283.176 416.811 283.946 416.069 283.946C415.313 283.946 414.977 283.19 414.977 281.874C414.977 280.544 415.327 279.816 416.069 279.816ZM418.869 286.83C418.869 288.09 419.597 289.182 420.703 289.182C421.837 289.182 422.537 288.076 422.537 286.802C422.537 285.542 421.809 284.478 420.703 284.478C419.569 284.478 418.869 285.57 418.869 286.83ZM420.703 288.888C419.947 288.888 419.611 288.174 419.611 286.83C419.611 285.486 419.961 284.772 420.703 284.772C421.417 284.772 421.781 285.5 421.781 286.802C421.781 288.118 421.445 288.888 420.703 288.888Z" fill="#525252"/>
</svg>
